<svg width="369" height="71" viewBox="0 0 369 71" fill="none" xmlns="http://www.w3.org/2000/svg">
<path d="M2.968 54.6961C6.8 56.7041 12.936 58.7201 19.176 58.7201C25.88 58.7201 29.44 55.9441 29.44 51.7201C29.44 47.4961 26.368 45.3921 18.6 42.7041C7.856 38.8721 0.768 32.9281 0.768 23.5281C0.768 12.4961 10.064 4.1521 25.216 4.1521C32.6 4.1521 37.872 5.5921 41.72 7.4161L38.456 19.1201C35.968 17.8721 31.264 16.0481 25.032 16.0481C18.8 16.0481 15.632 19.0161 15.632 22.2801C15.632 26.4001 19.184 28.2241 27.616 31.3921C39.032 35.6161 44.304 41.5601 44.304 50.6721C44.304 61.5121 36.056 70.7201 18.32 70.7201C10.936 70.7201 3.648 68.7041 0 66.6881L2.976 54.7041L2.968 54.6961Z" fill="#FFFDF8"/>
<path d="M67.248 10.2V22.856H77.704V33.6H67.248V50.576C67.248 56.24 68.688 58.824 73 58.824C75.016 58.824 75.976 58.728 77.312 58.44L77.416 69.464C75.592 70.136 72.04 70.712 68.016 70.712C63.312 70.712 59.384 69.08 56.992 66.68C54.304 63.904 52.96 59.392 52.96 52.776V33.6H46.728V22.856H52.96V14.128L67.248 10.2Z" fill="#FFFDF8"/>
<path d="M144.44 68.504C141.856 69.752 136.96 70.712 131.4 70.712C116.248 70.712 106.56 61.408 106.56 46.736C106.56 33.024 115.96 21.8 133.416 21.8C137.248 21.8 141.472 22.472 144.544 23.616L142.24 34.456C140.512 33.688 137.92 33.016 134.088 33.016C126.416 33.016 121.432 38.48 121.52 46.152C121.52 54.688 127.272 59.288 134.376 59.288C137.824 59.288 140.512 58.7121 142.712 57.7521L144.44 68.4961V68.504Z" fill="#FFFDF8"/>
<path d="M165.504 42.6161H165.688C166.752 40.6001 174.704 22.8561 174.704 22.8561H192.256L179.304 41.8401L198.488 69.7521H180.552L169.144 50.4721L165.496 55.0721V69.7441H150.92V1.66406H165.496V42.6161H165.504Z" fill="#FFFDF8"/>
<path d="M317.6 10.2V22.856H328.056V33.6H317.6V50.576C317.6 56.24 319.04 58.824 323.352 58.824C325.368 58.824 326.328 58.728 327.664 58.44L327.768 69.464C325.944 70.136 322.392 70.712 318.368 70.712C313.664 70.712 309.736 69.08 307.344 66.68C304.656 63.904 303.312 59.392 303.312 52.776V33.6H297.08V22.856H303.312V14.128L317.6 10.2Z" fill="#FFFDF8"/>
<path d="M335.608 57.0961C338.296 58.7281 343.856 60.5441 348.176 60.5441C352.496 60.5441 354.408 59.1041 354.408 56.7041C354.408 54.3041 352.968 53.0641 347.6 51.2401C337.816 47.9761 334.072 42.7041 334.176 37.1441C334.176 28.3201 341.656 21.7041 353.264 21.7041C358.728 21.7041 363.528 23.0481 366.4 24.4881L363.912 34.5601C361.8 33.4081 357.68 31.8721 353.744 31.8721C350.2 31.8721 348.184 33.3121 348.184 35.6161C348.184 37.9201 350 39.0641 355.76 41.0801C364.68 44.1521 368.328 48.7521 368.416 55.5601C368.416 64.3841 361.608 70.8081 348.184 70.8081C342.048 70.8081 336.584 69.3681 333.024 67.4561L335.616 57.0961H335.608Z" fill="#FFFDF8"/>
<path d="M290.12 21.7041C285.512 21.7041 279.848 24.5841 277.456 31.4881H277.072L276.504 22.8561H264.416V69.7521H278.992V45.9681C278.992 44.8161 279.088 43.6641 279.28 42.7041C280.24 38.2001 283.88 35.3201 289.248 35.3201C290.88 35.3201 292.024 35.5121 293.184 35.7041V21.9921C292.12 21.8001 291.448 21.7041 290.112 21.7041H290.12Z" fill="#FFFDF8"/>
<path d="M100.312 9.09606C100.312 13.2081 97.2881 16.5361 92.2881 16.5361C87.5921 16.5361 84.5601 13.2081 84.5601 9.09606C84.5601 4.98406 87.6881 1.66406 92.4881 1.66406C97.2881 1.66406 100.216 4.88806 100.312 9.09606ZM84.9521 70.2561V22.4081H99.8241V70.2561H84.9521Z" fill="#FFFDF8"/>
<path d="M207.36 49.2C207.568 37.44 215.104 24.576 231.232 24.856C246.216 25.12 251.704 36.888 251.496 48.368C251.456 50.832 251.128 53.016 250.928 54.048L221.048 53.52C221.32 59.504 227.248 62.456 233.984 62.568C238.92 62.656 242.912 62.064 246.824 60.8L248.392 69.744H259.76V5.68C259.76 2.544 257.216 0 254.08 0H206.16C203.024 0 200.48 2.544 200.48 5.68V69.752H217.696C210.848 65.768 207.2 58.584 207.368 49.2H207.36ZM230.056 7.048C234.704 7.128 237.496 10.312 237.512 14.384C237.44 18.368 234.448 21.544 229.608 21.456C225.056 21.376 222.176 18.096 222.24 14.112C222.312 10.032 225.4 6.96 230.056 7.04V7.048Z" fill="#FCE519"/>
<path d="M230.2 34.424C224.128 34.32 221.568 39.872 221.12 43.656L238.192 43.96C238.256 40.448 236.848 34.544 230.2 34.432V34.424Z" fill="#FCE519"/>
<path d="M229.608 21.464C234.448 21.552 237.44 18.376 237.512 14.392C237.488 10.312 234.704 7.13597 230.056 7.05597C225.408 6.97597 222.32 10.048 222.24 14.128C222.168 18.112 225.056 21.392 229.608 21.472V21.464Z" fill="#1C1A18"/>
<path d="M233.976 62.5759C227.24 62.4559 221.312 59.5039 221.04 53.5279L250.92 54.0559C251.12 53.0159 251.448 50.8399 251.488 48.3759C251.688 36.8959 246.208 25.1359 231.224 24.8639C215.096 24.5759 207.56 37.4399 207.352 49.2079C207.184 58.5919 210.832 65.7759 217.68 69.7599H248.376L246.808 60.8159C242.888 62.0719 238.904 62.6719 233.968 62.5839L233.976 62.5759ZM230.2 34.4239C236.84 34.5439 238.248 40.4479 238.192 43.9519L221.12 43.6479C221.568 39.8639 224.128 34.3119 230.2 34.4159V34.4239Z" fill="#1C1A18"/>
</svg>
