<svg width="78" height="82" viewBox="0 0 78 82" fill="none" xmlns="http://www.w3.org/2000/svg">
<path d="M56.4583 60.7585C56.5596 60.7172 56.5596 60.5678 56.545 60.4785C56.533 60.4145 56.425 60.3438 56.3396 60.4292C56.261 60.6492 55.817 61.1025 56.0063 61.1505C56.2956 61.2252 56.0596 60.9238 56.4583 60.7585ZM21.6517 61.1398C21.6877 61.1998 21.8664 61.0998 21.8131 61.0558C21.7664 61.0172 21.3131 60.0518 21.2291 60.4745C21.1571 60.8385 21.2917 60.5385 21.6517 61.1398ZM53.9383 61.4772C54.1476 61.4172 54.1623 61.2332 54.2743 61.1398C54.633 60.8412 54.8796 60.4612 54.969 59.9972C54.541 59.9558 54.5463 60.5972 54.2343 60.8638C54.0397 61.0305 53.8197 61.1852 53.9383 61.4772ZM23.2264 60.3518C23.1437 60.1545 23.0464 59.9918 22.7997 59.9958C22.8877 60.4612 23.1371 60.8425 23.4984 61.1385C23.6224 61.2398 23.6437 61.4425 23.8344 61.4825C23.9357 60.8505 23.5971 61.2318 23.2264 60.3518ZM52.4463 58.0945C52.1717 57.9239 51.8157 57.9599 51.7637 58.1359C51.745 58.2012 51.7303 58.3905 51.821 58.3865C52.0623 58.3732 52.2557 58.2452 52.4463 58.0945ZM25.9504 58.3839C26.0504 58.3852 26.0331 58.1438 25.9824 58.0852C25.8504 57.9359 25.5171 57.9652 25.3184 58.0905C25.5144 58.2399 25.7091 58.3812 25.9504 58.3839ZM60.817 55.6199C61.1143 55.4532 61.2236 54.9105 61.1076 54.7919C60.9343 54.6145 60.7196 55.6345 60.817 55.6199ZM16.6411 54.8079C16.5784 55.1012 16.6811 55.4545 16.9731 55.6332C17.0584 55.5479 16.7251 54.4145 16.6411 54.8079ZM54.1997 52.2319C54.465 52.0879 54.4703 51.8025 54.289 51.5692C54.2237 51.8172 54.1383 51.9972 54.1997 52.2319ZM23.5877 52.2079C23.5984 51.9385 23.5557 51.7812 23.4744 51.5692C23.2944 51.8199 23.3117 52.1399 23.5877 52.2079ZM54.5676 50.9052C54.6303 50.7892 54.641 50.5785 54.4997 50.5292C54.109 50.8159 54.3917 50.9585 54.1903 51.4212C54.1917 51.4905 54.2783 51.5252 54.321 51.5012C54.5943 51.3519 54.329 51.3505 54.5676 50.9052ZM23.5824 51.4292C23.4411 51.2105 23.5824 50.6212 23.2837 50.5359C23.1704 50.5039 23.1251 50.7425 23.1811 50.8505C23.4544 51.3839 23.1744 51.3852 23.4557 51.5012C23.4877 51.5145 23.5397 51.5199 23.5824 51.4292ZM62.8276 49.4532C62.7156 49.1399 62.937 48.8345 62.709 48.5505C62.5743 48.9119 62.801 49.2292 62.7383 49.5985C62.9063 49.7199 62.9143 49.5759 62.8276 49.4532ZM15.0437 49.5599C14.9477 49.3492 15.3157 48.1559 14.9557 48.7292C14.9637 49.0039 15.0011 49.2519 14.9291 49.4919C14.8344 49.6372 14.9184 49.7119 15.0437 49.5599ZM29.805 22.9773C29.773 23.3093 30.0984 23.7586 30.3757 23.9373C30.7557 24.1839 30.9117 24.6066 31.205 24.9226L32.0357 25.8186C33.0504 26.9106 33.7957 27.7813 34.6837 28.9773L35.6117 30.2253C35.7904 30.4639 36.0597 30.6306 36.2117 30.9026C36.8117 31.9693 38.1397 33.2106 38.885 34.2866L39.4584 33.5252C39.709 33.1919 40.9824 31.8453 41.2317 31.3999C41.4877 30.9439 41.8277 30.6133 42.1477 30.2146C42.7717 29.4399 43.217 28.7439 43.845 27.9839C44.4717 27.2266 45.0957 26.4999 45.769 25.7773L46.565 24.9226C46.8557 24.6106 47.0623 24.2239 47.385 23.9399L48.229 23.1999C48.325 23.1159 48.3543 23.0079 48.377 22.9266C48.5557 22.2826 47.137 23.1639 47.001 23.2533L45.4517 24.2746C44.9463 24.6079 44.5263 25.0319 44.0797 25.4386C43.8117 25.6813 43.4863 25.8466 43.2463 26.1066C43.041 26.3293 42.8677 26.5373 42.573 26.6533C42.469 26.6959 42.453 26.9026 42.3503 26.9546C41.7903 27.2453 41.3957 27.6893 40.953 28.1119C40.7744 28.2826 40.5904 28.3733 40.4384 28.5879C40.3117 28.7666 39.6664 29.2479 39.5117 29.5279C38.6437 29.7239 39.1157 29.7146 38.2544 29.5319C38.145 29.2733 37.4237 28.7319 37.3304 28.5906C37.1744 28.3546 36.9637 28.2653 36.7797 28.0799C36.3584 27.6546 35.9597 27.2413 35.421 26.9546C35.321 26.9013 35.2997 26.6879 35.1984 26.6546C34.8877 26.5546 34.7464 26.3026 34.5197 26.1053C33.993 25.6466 33.4024 25.2439 32.929 24.7119C32.6477 24.3959 32.2624 24.3586 31.9677 24.1253C31.4944 23.7493 30.865 23.3359 30.317 23.1426C30.1704 23.0906 29.9304 22.6666 29.805 22.9773ZM44.9343 11.7186C45.2557 11.6106 45.613 11.5906 45.8823 11.3906C46.7143 10.772 47.1223 9.87864 47.0997 8.83464C47.081 7.99998 46.4997 7.31465 45.8037 6.85598C45.1943 6.45332 44.489 6.44665 43.7837 6.51865C43.345 6.56265 42.9557 6.58265 42.577 6.87332C42.2917 7.09331 41.929 7.27331 41.741 7.62265C41.373 8.30665 41.321 9.15064 41.5717 9.88531C41.741 10.384 42.1357 10.724 42.4703 11.092C43.065 11.748 44.1757 11.976 44.9343 11.7186ZM35.913 8.87331C35.8504 8.38798 35.5504 7.52931 35.2264 7.26798C34.565 6.73465 35.0104 6.56798 33.2037 6.43598C32.7864 6.40532 32.425 6.55865 32.0104 6.70132C30.9024 7.08532 30.4837 8.40531 30.521 9.48131C30.5424 10.144 30.8757 10.5626 31.2957 10.98C32.197 11.876 33.3877 12.0706 34.5237 11.54C35.6397 11.0186 36.0677 10.0746 35.913 8.87331ZM41.8623 13.1666C41.3117 11.9933 40.8477 10.832 40.4997 9.60531C40.353 9.08931 40.5157 8.53864 40.4784 8.03465C40.457 7.75198 40.5397 7.60665 40.697 7.38531C41.0517 6.89065 41.3917 6.32665 41.977 6.04398C42.7037 5.69332 43.541 5.41599 44.3423 5.46665C45.3023 5.52799 46.1957 5.84799 46.8837 6.43732C47.777 7.20131 48.2183 8.55998 48.0117 9.73464C47.8983 10.3853 47.813 11.068 47.3757 11.6066C46.8997 12.1946 46.2223 12.66 45.477 12.84C44.6637 13.036 43.6477 12.6013 43.481 13.0853C43.4477 13.1826 43.4477 13.472 43.6277 13.4906C44.389 13.5666 45.249 13.736 46.0063 13.4213C46.8797 13.0586 47.7237 12.3613 48.221 11.544C48.721 10.7226 48.8677 9.68398 48.7903 8.75331C48.7557 8.31865 48.6423 7.90798 48.5357 7.49865C48.305 6.62132 47.6317 5.95332 46.8263 5.54399C46.1103 5.17865 45.321 5.01865 44.5303 4.83199C43.425 4.57065 42.177 5.00665 41.2077 5.50132C39.8317 6.20398 39.1544 6.45198 37.497 5.92532C37.0837 5.79332 36.3437 5.46665 35.997 5.25065C35.6304 5.02132 35.1957 4.96665 34.801 4.78399C33.5757 4.21466 31.741 4.71732 30.6824 5.35599C30.3224 5.57332 30.0597 5.87598 29.7584 6.16265C29.289 6.60532 28.869 7.17998 28.7464 7.83065C28.4144 9.57464 28.3584 11.1666 29.8517 12.2786C30.237 12.5653 30.5624 12.9 30.9904 13.0973C31.597 13.3773 32.273 13.3373 32.925 13.4293C33.0677 13.4493 33.2637 13.5293 33.349 13.4093C33.4104 13.324 33.4784 13.1493 33.4064 13.0466C33.3504 12.9653 33.1824 12.9013 33.0637 12.896C32.669 12.88 32.3264 12.7546 31.961 12.6773C31.3317 12.544 30.885 12.1906 30.4264 11.792C29.3717 10.8746 29.3477 10.3586 29.3237 8.97198C29.309 8.13465 29.5557 7.42931 30.177 6.86932C30.5957 6.49332 31.001 6.05065 31.5704 5.86798C32.3757 5.60799 33.265 5.51332 34.089 5.61865C34.8544 5.71599 35.4424 6.04532 35.9997 6.50798C36.4757 6.90265 36.581 7.41065 36.7064 7.99198C36.8864 8.82264 36.857 9.58798 36.5717 10.404C36.3877 10.928 36.2837 11.488 36.0384 11.9866C35.769 12.532 35.6237 13.088 35.461 13.6773C35.281 14.3226 35.089 14.9986 35.205 15.668C35.3877 16.7173 36.2037 17.3493 37.0504 17.8693C37.945 18.4173 38.9064 18.4253 39.9184 18.216C40.709 18.0533 41.3477 17.7986 41.817 17.0573C42.4223 16.1013 42.4023 14.3173 41.8623 13.1666ZM49.181 5.32532C48.5743 4.83199 48.141 4.06266 47.5183 3.85866C47.3783 3.82532 49.165 5.79199 49.181 5.32532ZM29.4664 4.81332C29.7477 4.47999 30.125 4.28266 30.3277 3.85066C29.625 4.12399 29.3384 4.79065 28.6544 5.31599C29.0424 5.40132 29.2677 5.04932 29.4664 4.81332ZM34.0637 3.82266C34.0637 3.77866 34.0277 3.67332 33.969 3.67199L33.5157 3.91999C33.529 4.08932 34.065 3.98532 34.0637 3.82266ZM42.2423 2.99866C42.3343 2.72666 42.2503 2.46133 42.013 2.32533C41.385 1.96799 40.7504 3.10133 40.6637 3.74666C40.637 3.95066 40.7464 4.15866 40.7317 4.36532C40.7144 4.60799 41.7623 4.41599 42.2423 2.99866ZM49.2237 4.15999C49.481 4.43199 49.7103 4.66399 49.8557 5.02799C50.5543 4.36132 50.5743 3.09733 49.7597 2.43199C49.3317 2.08133 48.6703 2.11066 48.1863 2.34799C47.965 2.22133 47.9477 2.45733 47.897 2.57466C47.8517 2.67999 47.9463 2.81333 48.037 2.90799L49.2237 4.15999ZM36.7117 2.39466C36.5384 2.12933 36.0557 2.00799 35.797 2.18666C35.3717 2.47999 35.545 2.93999 35.7277 3.30932C35.8464 3.54666 36.149 4.53065 36.709 4.27999C36.989 4.15599 37.137 3.04799 36.7117 2.39466ZM29.8064 2.90533C29.8997 2.77333 30.0184 2.66933 29.9304 2.52266C29.8757 2.43066 29.8664 2.22533 29.6584 2.34933C29.1904 2.11199 28.5664 2.08799 28.1117 2.40666C27.3077 2.96933 27.2717 4.33066 27.9704 5.03199C28.3037 4.31466 29.4997 3.33866 29.8064 2.90533ZM38.8157 5.02132C39.5197 4.93865 39.8744 2.95199 39.3704 2.12133C39.201 1.84 38.4504 1.99466 38.3344 2.26266C38.2037 2.56399 38.333 2.88266 38.2597 3.16799C38.097 3.80132 38.357 5.07465 38.8157 5.02132ZM49.2743 1.15466C49.4903 1.32933 49.7703 1.352 49.9983 1.25466C49.9143 1.05733 49.245 1.08266 49.2743 1.15466ZM28.5464 1.144C28.045 1.096 28.2224 1.01733 27.8464 1.25466C28.069 1.34533 28.3704 1.34533 28.5464 1.144ZM37.4224 37.1292C37.337 37.0079 36.6784 36.5652 36.441 36.3026L36.0184 35.8332C36.265 36.1066 34.0477 34.3586 34.081 34.4452C34.0024 34.2439 33.7824 34.1519 33.625 34.0132L32.8237 33.3106C32.5584 33.0786 32.2437 32.9026 32.0197 32.6239C31.9984 32.5973 31.929 32.6853 31.8997 32.6839C31.8184 32.6799 31.8677 32.5906 31.6317 32.2759C31.557 32.1746 31.397 32.2706 31.3077 32.2586C30.2024 31.4799 30.6437 31.4839 29.421 30.9159C29.0717 30.7533 28.6344 30.4533 28.5424 30.4933C28.493 30.5146 28.449 30.6213 28.4984 30.7013L29.305 32.0159C29.4024 32.1759 29.4184 32.4506 29.5877 32.5573C30.4264 33.0839 30.2544 33.4146 30.7997 34.0666C30.9477 34.2439 31.0797 34.7172 30.9917 34.9372C30.881 35.2119 30.613 35.4359 30.3944 35.6159C29.5837 36.2799 28.877 37.0492 28.2917 37.9186C28.201 38.0546 27.2624 40.1332 27.1317 40.4479C27.0357 40.6746 26.9997 40.9559 27.0704 41.1666C27.1424 41.3786 26.9557 41.4492 26.9277 41.5906C26.9064 41.7012 26.7984 41.8706 26.7891 41.9759C26.7731 42.1532 26.8184 42.2319 26.7051 42.4359C26.5397 42.7332 26.4384 43.3732 26.3664 43.7426L26.1557 44.8132C26.0597 45.3039 25.9931 46.5372 25.9344 46.6839C25.8851 46.8052 26.1051 47.0092 25.9824 47.1732C25.8784 47.3145 25.9091 48.4372 25.9557 48.1665C25.9037 48.4692 25.9131 48.7425 25.9371 49.0625L26.0117 50.0385C26.0357 50.3665 26.0971 50.7052 26.0957 50.9985C26.0944 51.2559 26.2011 51.4572 26.2264 51.6812C26.2517 51.9079 26.1997 52.0319 26.3117 52.2892C26.7704 53.3439 26.2744 53.4465 26.7077 54.3639C26.8064 54.5719 27.3317 56.1985 27.4144 56.4919C27.5024 56.8092 27.7437 57.0612 27.8704 57.3759C28.033 57.7852 28.189 58.2079 28.3904 58.5905C28.5757 58.9412 28.737 59.2398 28.709 59.6398C28.709 59.6318 29.1997 60.9558 28.3237 61.8985C27.501 62.7838 27.581 62.2932 27.141 62.9972C26.9877 63.6092 27.0717 64.3252 27.3344 64.9145C27.509 65.3065 27.5784 65.7625 27.861 66.1025C27.9677 66.2318 28.073 66.3292 27.9837 66.5225C27.8384 66.8358 28.1064 66.8945 28.0357 67.5492C27.9824 67.8158 26.8757 67.4412 26.7224 67.3252C26.5051 67.1612 26.1611 67.2705 25.9171 67.1465C25.6451 67.0078 25.2731 66.8625 25.0051 67.0665C24.8704 67.1705 25.0811 67.4465 25.0517 67.5638C25.0717 67.4852 24.9331 68.7078 24.9544 68.7478C24.6984 69.0852 23.8384 68.5478 23.7197 68.4332C23.3957 68.1238 22.9651 67.9545 22.6157 67.6625C22.2437 67.3518 21.9317 67.0198 21.5637 66.6692C21.1997 67.3092 21.7744 67.1318 21.6357 67.8612C21.6331 67.9425 21.7371 68.0158 21.8091 68.1252C21.5411 68.3278 21.7664 68.7478 21.7077 68.9612C21.4464 69.2585 20.9317 68.9758 20.7171 68.7438C20.4504 68.4532 20.1144 68.2892 19.8264 68.0332C19.6984 67.9198 18.9904 67.2398 18.9144 67.2838C18.6917 67.4118 18.8424 68.1292 18.5451 68.3772C18.0784 68.7665 16.9544 67.4665 16.7264 67.2332C15.3731 65.8438 15.1237 64.3318 14.6824 63.1012L14.1464 61.6078L13.5144 58.4825L13.3171 57.1719C13.2211 56.5372 13.1144 55.4079 13.1464 54.7759C13.1758 54.1825 13.2758 53.6132 13.2758 53.0172C13.2744 52.3479 13.2051 51.7105 13.3131 51.0252C13.3584 50.7332 13.2824 49.5772 13.3331 49.1185C13.3784 48.7132 13.2438 48.2825 13.3624 47.8759C13.3771 47.8265 13.4144 47.7879 13.4224 47.7492C13.4304 47.7172 13.3224 47.6665 13.3278 47.6292C13.4571 46.8319 13.5317 46.0519 13.6184 45.2359C13.6384 45.0559 13.5998 44.8639 13.6224 44.6985L13.7878 43.5226L14.2344 41.3919C14.3424 40.8826 14.4304 40.3812 14.5917 39.8919L15.1357 38.2399C15.2504 37.8932 15.4424 37.5826 15.5211 37.2079C15.7064 36.3306 16.1051 35.5466 16.5091 34.7666L17.2077 33.4186C17.5437 32.7706 17.8811 32.1733 18.3357 31.6039C18.5077 31.3893 18.5997 31.1119 18.7571 30.8866L20.3331 28.6373C20.5664 28.3053 20.7011 27.9039 20.9691 27.6079C21.1397 27.4186 21.2971 27.3039 21.3917 27.0439C21.4731 26.8213 21.7677 26.7013 21.8704 26.4866C22.0051 26.2066 22.2357 26.0519 22.4211 25.8293C22.5917 25.6239 22.6931 25.3573 22.9677 25.2426C23.1064 25.1853 23.0784 25.0466 23.1517 24.9693L23.8944 24.1933C24.3291 23.7386 24.7851 23.3093 25.1917 22.8226L25.7197 22.1919C25.8811 21.9986 26.4451 21.4959 26.6864 21.2893L28.1837 20.0053L29.121 19.2653C29.2464 19.1666 29.4944 19.0306 29.6597 19.1053C30.8037 19.6293 31.221 20.0239 32.493 20.5626C33.0504 20.7973 33.5904 21.0759 34.1944 21.1173C34.265 21.1213 34.3784 20.9079 34.3624 20.8359C33.453 20.0786 33.6277 20.5693 32.5997 19.6946L31.9944 19.18L31.393 18.7066C30.6184 18.0946 30.013 17.392 29.4837 16.5666C29.0264 15.856 28.5197 15.204 28.1317 14.456L27.4397 13.1213C26.9557 12.1893 26.8944 10.0146 27.0517 9.04531C27.1744 8.29198 27.3451 7.50398 27.2624 6.71465C27.1717 6.57198 27.009 6.37198 26.8957 6.18798L26.2824 5.18799C25.8611 4.50265 26.0237 3.68532 26.1144 2.91733C26.1837 2.32533 26.4837 1.84533 26.8224 1.35066C26.9664 1.14 27.1597 1.08933 27.3424 0.957331C27.8024 0.623998 28.249 0.573332 28.8077 0.589332C29.297 0.603998 29.6984 0.629332 30.1504 0.834664C30.649 1.06266 31.1677 1.232 31.6344 1.53066C31.8157 1.64533 32.0237 1.52533 32.173 1.448C32.6864 1.18533 34.8944 0.535998 34.8477 0.565332C35.1264 0.386665 35.317 0.614665 35.5144 0.565332C36.3784 0.351999 37.785 0 38.6597 0C39.893 0.00133333 41.8597 0.250666 43.041 0.578665L43.6903 0.758664C44.3343 0.937331 45.0157 1.10266 45.6037 1.42933C45.9357 1.61333 46.1237 1.58666 46.4557 1.39866C47.0357 1.072 47.701 0.805331 48.3583 0.630665C48.721 0.535999 49.125 0.642665 49.4903 0.594665C49.8877 0.543998 50.8103 1.06533 51.017 1.352C51.3597 1.828 51.645 2.29866 51.7237 2.87466C51.8317 3.65599 51.989 4.49332 51.561 5.18799L50.9463 6.18665C50.8383 6.35998 50.7317 6.56665 50.5823 6.68398C50.4263 8.06131 51.2077 9.93864 50.7063 11.3346L50.069 13.1093C49.645 14.2893 48.957 15.3506 48.2597 16.3706C47.8983 16.9 46.8503 17.9373 46.389 18.4226C45.4997 19.3586 44.3583 19.9759 43.297 20.6946C43.2237 20.7826 43.389 20.8919 43.4517 20.9426C43.5477 21.0213 43.7303 20.9999 43.8623 20.9466C44.5637 20.6639 45.3317 20.6173 45.9837 20.2799L47.3797 19.5586C47.409 19.544 48.2223 19.024 48.3237 19.0386C48.4517 19.0586 48.5237 19.136 48.6357 19.2293L51.0463 21.2506C51.1877 21.3693 51.3503 21.4946 51.465 21.6093L52.049 22.1906L52.5783 22.8226C52.9743 23.2959 53.4223 23.7173 53.8477 24.1586L54.625 24.9666C54.6797 25.0239 54.6383 25.1693 54.7543 25.2119C55.0596 25.3226 55.153 25.6293 55.3503 25.8213C55.5903 26.0546 56.9823 27.8133 57.085 28.0079C57.3796 28.5733 57.7143 29.1066 58.1183 29.6066C58.653 30.2679 59.0276 30.9919 59.505 31.6759C59.917 32.2639 60.2583 32.8266 60.5903 33.4679L61.2623 34.7652C61.7356 35.6786 62.1623 36.5906 62.3636 37.6146C62.261 37.0932 63.273 40.1799 63.2476 40.1039C63.3943 40.5479 63.449 40.9946 63.549 41.4479C63.7663 42.4332 64.0036 43.3959 64.101 44.4052C64.121 44.6106 64.1796 44.7706 64.1436 45.0025C64.109 45.2279 64.253 45.4919 64.1916 45.7345C64.2636 46.3999 64.381 47.0225 64.413 47.6772C64.437 48.1679 64.4316 48.6545 64.441 49.1692L64.4543 49.9945C64.4596 50.3159 64.417 50.7172 64.461 51.0252C64.5596 51.7159 64.4556 52.3519 64.4956 53.0212L64.6276 55.2652C64.6463 55.5985 64.493 55.9279 64.541 56.2812C64.5943 56.6825 64.1463 58.8079 64.061 59.3185C63.8663 60.4798 63.5423 61.5332 63.1463 62.6385C62.6876 63.9225 62.149 65.0865 61.4183 66.2438C60.953 66.9812 60.517 67.7345 59.7863 68.2318C59.6623 68.3172 59.445 68.3865 59.341 68.3492C58.9583 68.2118 59.0476 67.7412 58.925 67.2985C58.8303 67.5625 58.5743 67.5905 58.4116 67.7532C58.217 67.9452 58.029 68.0172 57.801 68.1532C57.025 68.6145 56.7223 69.3225 56.0903 69.0038C55.9876 68.3878 56.0583 67.7038 55.861 67.0718C55.6383 67.1772 55.4863 67.4092 55.2703 67.5625L54.0477 68.4318C53.6917 68.6852 53.1223 69.0252 52.669 68.7838C52.141 68.5025 52.8317 67.1158 52.6877 67.0265C52.3863 66.8372 52.0743 67.0865 51.797 67.1518C51.4397 67.2358 51.1277 67.2638 50.813 67.4625C51.013 67.3372 49.9183 67.8132 49.7077 67.5705C49.445 67.2692 49.8343 66.7252 49.7517 66.2945C50.057 66.0692 50.089 65.6678 50.2183 65.3532C50.4397 64.8198 50.473 64.1532 50.405 63.5705C50.3557 63.1478 50.3503 62.5758 49.865 62.4025C49.5463 62.2892 49.3797 62.0305 49.169 61.7825C48.7557 61.2945 48.657 60.7318 48.873 60.1012C48.893 60.0438 48.8077 59.9238 48.833 59.8625C48.8637 59.7865 48.9663 59.7238 49.0957 59.6705C48.9863 59.2665 49.229 58.9545 49.385 58.5958L49.865 57.4919C49.961 57.2732 50.0237 57.0305 50.1903 56.8452C50.353 56.6639 50.8517 54.8132 51.0303 54.4385C51.5197 53.4132 50.9943 53.3345 51.4583 52.2905C51.573 52.0332 51.517 51.9052 51.5437 51.6812C51.5703 51.4545 51.681 51.2612 51.6743 50.9972C51.6663 50.7065 51.7357 50.3639 51.7597 50.0412L51.8343 49.0599C51.8583 48.7425 51.8637 48.4692 51.8157 48.1679C51.8583 48.4425 51.901 47.3159 51.773 47.1305C51.677 46.9905 51.8783 46.8105 51.8437 46.7132C51.781 46.5345 51.717 45.3346 51.6143 44.8132L51.4037 43.7439C51.329 43.3612 51.2463 42.7732 51.065 42.4306C50.8703 42.0599 51.125 41.9932 50.821 41.5839C50.713 41.4386 50.7157 41.1679 50.721 40.9319C50.733 40.3652 49.893 38.8159 49.6037 38.1906C49.4837 37.9319 49.401 37.7332 49.2183 37.5212C48.6357 36.8452 48.0943 36.1599 47.369 35.6146C47.153 35.4519 46.893 35.1986 46.781 34.9399C46.689 34.7279 46.8183 34.2772 46.9503 34.0946C47.585 33.2159 47.3983 33.0839 48.177 32.5559C48.377 32.4199 48.385 32.1039 48.5143 31.9199C48.7223 31.6239 48.897 31.3439 49.073 31.0333C49.1783 30.8493 49.4023 30.6759 49.2063 30.4506C48.801 30.7266 47.8197 31.1386 47.6063 31.3173L46.6717 32.1013C46.521 32.2279 46.4917 32.3079 46.2503 32.2533C46.053 32.2093 45.9837 32.5493 45.901 32.6693C45.869 32.7146 45.8103 32.6292 45.7837 32.6252C45.857 32.6372 44.8143 33.4199 44.9397 33.3079L44.145 34.0159C44.0063 34.1386 43.7823 34.2199 43.7197 34.4026C43.6423 34.6306 43.4037 34.5772 43.301 34.6706C42.7943 35.1292 42.289 35.5026 41.7197 35.8826C41.705 35.8919 41.0184 36.6772 40.4944 36.9852C40.2677 37.1186 40.2317 37.4492 40.101 37.6399C39.9717 37.8279 39.7344 37.8692 39.5744 38.0306C39.3797 38.2266 39.1517 38.5546 38.889 38.5586C38.565 38.5639 38.417 38.3812 38.3797 38.1332C38.329 37.7972 37.8944 37.8066 37.7584 37.6119L37.4224 37.1292Z" fill="#243D13"/>
<path d="M40.8796 65.1572C40.661 65.0852 40.621 65.9412 40.7703 66.0078C40.873 65.7078 41.0636 65.2172 40.8796 65.1572ZM37.0143 66.0212C37.1396 65.7585 37.1023 65.4958 37.0076 65.2158C36.9703 65.1078 36.8583 65.1478 36.8036 65.2292C36.8103 65.2198 36.9116 65.9945 37.0143 66.0212ZM42.7743 57.7879C43.0356 57.3145 43.305 56.7399 43.3583 56.2332C43.381 56.0185 43.6796 55.7932 43.365 55.5639L43.069 56.4292C42.973 56.7092 42.985 56.9492 42.833 57.2185C42.749 57.3665 42.721 57.6132 42.7743 57.7879ZM49.3396 51.0252C49.4129 50.9345 49.3769 50.0452 49.2263 50.0785C49.0383 50.1225 49.0916 50.8292 48.9329 51.0545C49.0063 51.0892 49.2863 51.1319 49.3396 51.0252ZM28.8383 51.0532C28.6437 50.7319 28.765 50.0492 28.4877 50.0772C28.4557 50.0812 28.329 50.9239 28.429 51.0252C28.4943 51.1239 28.7663 51.0932 28.8383 51.0532ZM45.3943 53.2279C45.6063 53.1199 45.5916 52.9759 45.637 52.8479C45.8303 52.2879 46.7236 50.7305 46.5249 49.9772C46.5063 49.9052 46.4529 49.8065 46.4036 49.8625C46.3716 49.8985 46.3249 49.9425 46.3116 50.0025C46.0916 50.9652 45.7929 50.6999 46.0876 51.2359C46.0223 51.3412 45.3303 53.2772 45.3183 53.0919C45.321 53.1372 45.3503 53.2505 45.3943 53.2279ZM48.8343 47.5972C48.7543 47.1572 48.8276 46.0599 48.6849 46.0159C48.4956 45.9572 48.5729 47.0026 48.6223 47.2226C48.6023 47.3772 48.6263 47.6159 48.8343 47.5972ZM29.077 45.9292C28.937 46.5359 29.001 47.0892 28.9503 47.6319C29.2423 47.8706 29.2757 45.8066 29.077 45.9292ZM41.697 43.6546C41.6823 43.5186 41.8436 43.4759 41.749 43.3239C41.6356 43.5252 41.401 43.6359 41.325 43.8199L40.6863 45.3639C40.7503 45.4106 42.2063 43.6612 41.697 43.6546ZM48.3049 74.4305C48.2263 74.4638 48.1209 74.2532 48.0196 74.2478C47.9356 74.2438 47.7543 74.4385 47.6743 74.4012C47.3716 74.2572 46.1369 74.1078 45.7943 74.1252C46.4063 74.0945 44.2876 74.0385 44.605 74.0532C44.253 74.0358 43.9436 74.0598 43.597 74.0692C42.8703 74.0878 42.373 74.0105 41.6823 74.0718C41.3463 74.1012 40.9716 73.9532 40.6423 74.0105C39.8863 74.1438 39.525 73.9745 39.2183 73.9892L38.501 74.0225C37.973 74.0478 37.577 74.1052 37.125 74.0132C36.8023 73.9465 36.4223 74.1052 36.089 74.0718C35.469 74.0105 34.8703 74.0865 34.173 74.0678C33.6023 74.0532 32.4596 74.0185 31.965 74.1345C31.6917 74.1985 31.3623 74.0012 31.129 74.2772C30.7583 74.0998 30.4343 74.3185 30.0903 74.3998C30.0023 74.4212 29.8477 74.2492 29.7503 74.2452C29.6437 74.2412 29.5463 74.4705 29.469 74.4372C29.3583 74.3878 29.2117 74.4665 29.1237 74.4492C28.701 74.3598 28.297 74.4652 27.9037 74.5052L27.2223 74.5758C26.873 74.6118 26.3477 74.5212 26.0383 74.3732C25.7543 74.2385 25.561 73.8945 25.289 73.7212C24.8663 73.4492 24.2743 72.4772 24.053 71.9972C23.965 71.8078 23.729 71.6812 23.729 71.4252C23.7317 71.0212 23.1303 71.1585 23.0823 69.9785C23.0717 69.7185 23.3397 69.4505 23.5823 69.5292C23.905 69.6332 24.1823 69.7465 24.509 69.6692C24.9223 69.5718 25.3383 69.5372 25.725 69.3785C25.9343 69.0878 26.237 68.7305 26.629 68.7212C27.8263 68.6945 27.7877 68.8825 28.281 68.4598C28.6463 68.1478 29.1717 67.8012 29.1183 67.2305C29.057 66.5798 28.837 65.9278 28.9223 65.2665C28.961 64.9652 28.6943 64.4198 28.781 63.7612C28.961 62.4078 29.3783 62.5078 29.6997 62.0185C29.8277 61.8239 30.4477 60.3559 30.4117 60.0425C30.065 58.9892 29.9517 59.6292 29.7077 58.7999C29.9343 59.5679 28.9197 56.6799 29.2263 57.4305C28.945 56.7425 28.6317 56.1145 28.4783 55.3919C28.4957 55.4772 28.1543 54.3079 28.0917 54.0399C27.7837 52.7239 27.6277 50.6879 27.497 49.4239L27.381 48.3159C27.3437 47.9612 27.3677 47.6106 27.2943 47.2572C27.1943 46.7786 27.201 45.9506 27.353 45.5172C27.4997 45.0959 27.4477 44.5839 27.4597 44.1346C27.473 43.6519 27.741 43.2852 27.841 42.8439C28.1623 41.4199 28.721 40.1692 29.5383 38.9919C29.7383 38.7039 29.8717 38.3572 30.0917 38.0866L30.609 37.4519C30.9303 37.0599 31.2757 36.6826 31.597 36.2986C31.6157 36.2759 31.729 36.3452 31.7543 36.3319C31.777 36.3186 31.7743 36.2786 31.7917 36.1946C33.4876 36.2546 33.4383 37.0079 33.6343 37.1626C34.5983 37.9319 34.8556 38.7492 35.4756 39.7919L36.2756 41.1372C36.401 41.3479 36.517 41.4772 36.6303 41.6826L36.9263 42.2172C37.0583 42.4586 37.0716 43.0186 37.553 43.7852C37.7903 44.1626 38.005 45.4959 38.5916 45.8959C39.069 46.2212 39.7476 44.7999 39.7943 44.4679C40.069 44.1826 40.585 43.1479 40.685 42.7239C40.8396 42.0759 41.1276 41.7479 41.4943 41.1346L42.2943 39.7906L42.657 39.1999C43.1143 38.4546 43.4743 37.7132 44.1356 37.1612C44.3103 37.0159 44.337 36.2332 45.9783 36.1959C45.997 36.2786 45.9903 36.3212 46.0156 36.3319C46.0476 36.3439 46.1596 36.2732 46.1783 36.2946C46.4943 36.6839 46.8649 37.0372 47.1609 37.4519C47.3156 37.6692 47.5116 37.8759 47.6796 38.0866C47.9169 38.3852 48.0543 38.7492 48.2716 39.0612C49.0903 40.2239 49.6049 41.4586 49.9343 42.8439C50.0489 43.3266 50.3249 43.7266 50.3169 44.2506C50.2943 45.7666 50.4596 45.2679 50.5183 46.0479C50.5503 46.4599 50.5663 46.8359 50.4756 47.2586C50.3943 47.6346 50.4249 48.0052 50.3863 48.3812L50.2756 49.4265C50.1769 50.3559 49.8729 53.7825 49.5303 54.5772C49.4423 54.7812 49.5009 55.0305 49.3476 55.2332C49.2156 55.4052 49.2556 55.6439 49.1929 55.8052C49.1529 55.9105 49.0796 55.9332 49.0703 56.0732C49.0383 56.5545 48.6649 56.9625 48.5409 57.4239C48.4489 57.7679 48.3956 58.1279 48.2169 58.4532C47.7143 59.3652 48.3689 58.6052 47.6703 59.4305C47.3503 59.8092 47.0129 60.7159 47.1929 61.1532C47.3903 61.6305 47.5009 62.1105 47.6596 62.5825C47.9476 63.4358 48.4529 63.2118 48.7609 64.7692L48.8583 65.2625C49.0636 66.3052 47.9383 68.4398 49.1409 68.4438L50.2143 68.4478C50.7156 68.4505 51.0569 68.8092 51.3409 69.1678C51.5623 69.4492 51.9609 69.3945 52.2516 69.4798C52.7316 69.6185 53.1769 69.7278 53.6703 69.6372C54.0489 69.5678 54.4063 69.7358 54.5329 70.1105C54.5889 70.2772 54.6516 70.4372 54.6863 70.6332C54.3743 70.9785 54.1263 71.3425 53.9076 71.7492C53.6623 72.2052 53.3863 72.6105 53.0969 73.0425C52.6596 73.6958 52.2116 73.9038 51.6983 74.4252C50.3489 74.6345 51.0623 74.6265 49.9089 74.5145C49.4969 74.4745 49.0943 74.3545 48.6449 74.4558C48.5756 74.4705 48.4329 74.3772 48.3049 74.4305Z" fill="#243D13"/>
<path d="M55.1825 76.4584C55.2425 76.2984 55.0985 76.2211 55.0185 76.2211C54.8999 76.2224 54.8279 76.3011 54.8239 76.4424C54.8185 76.6531 54.8892 76.8438 55.1079 76.8798C55.0772 76.7278 55.1185 76.6264 55.1825 76.4584ZM70.7198 75.6251C71.2971 75.2984 71.3771 74.6784 71.0611 74.1891C70.8238 73.8224 70.3838 73.4691 69.8905 73.6225C69.3945 73.7771 69.0772 74.5878 69.4345 75.0064C69.7385 75.3624 70.2678 75.4918 70.7198 75.6251ZM72.1198 72.7385C72.1771 73.1438 72.6678 73.4065 72.9545 73.3211C73.4118 73.1865 73.5371 72.8185 73.4971 72.3785C73.4705 72.0918 73.4891 71.7811 73.2598 71.5891C73.0931 71.4478 72.7945 71.2571 72.5198 71.3505C71.9985 71.5291 72.0531 72.2011 71.8278 72.3478C72.0305 72.4145 72.0891 72.5171 72.1198 72.7385ZM57.6212 76.5438C57.8372 76.6091 57.9985 76.7424 58.1865 76.7771L59.0745 76.9451C59.4078 77.0078 59.6745 77.0984 60.0278 77.1104C60.3705 77.1224 60.7012 77.1438 61.0452 77.1304C62.5372 77.0744 62.7518 77.3078 64.1838 76.6811C66.4692 75.6811 65.9798 74.8278 66.3238 73.1238C66.3612 72.9358 66.4185 72.8051 66.3452 72.6358C66.2918 72.5131 66.1732 72.4745 66.0265 72.3891C65.3105 71.9705 65.7425 71.3371 63.3945 71.3398H62.4798C62.2505 71.3398 62.0745 71.2158 62.0105 71.0278C61.9132 71.1771 62.1438 71.3585 62.0332 71.4451C61.5732 71.8011 61.0585 71.4358 60.4278 71.8998C60.2905 72.0011 60.1558 71.9825 60.0145 71.8318C59.7438 72.5385 59.7212 71.9438 58.9518 72.4398C58.6238 72.6518 58.3878 72.9718 57.9878 73.0611C57.9145 73.0505 57.8585 72.9398 57.7518 72.9011C57.2692 73.3305 57.6345 73.3265 57.5278 73.6011C57.4865 73.7078 57.2318 73.6358 57.1932 73.7104C56.7599 74.5611 56.9799 73.5358 56.3732 75.1824C56.2852 75.4211 56.4012 75.8131 56.5559 75.9678C56.8625 76.2744 57.2052 76.4211 57.6212 76.5438ZM69.2972 72.6291C69.7332 72.6091 70.0732 72.1798 70.2025 71.8091C70.3958 71.2505 69.9518 70.7918 69.3772 70.6678C68.8452 70.7665 68.2518 70.9705 67.9318 71.4865C67.6772 71.8971 68.0105 72.7011 68.5012 72.7251C68.7678 72.7385 69.0025 72.6425 69.2972 72.6291ZM67.1225 70.4798C67.6452 70.3411 68.0212 70.0091 68.4278 69.7251C68.6638 69.5598 68.7625 69.2211 68.6172 68.9451C68.3838 68.4998 67.8945 68.2051 67.4118 68.1025C66.4932 68.2278 65.3158 69.7531 65.9972 70.3918C66.2638 70.6425 66.7372 70.5811 67.1225 70.4798ZM71.5158 70.4131C71.7465 70.4118 72.1998 70.2625 72.2731 70.0358C72.5011 69.3185 72.1331 68.4971 71.5518 68.0958C71.1331 67.8078 70.6865 67.8118 70.2692 68.0491C69.8772 68.4931 69.9985 69.4771 70.4892 69.8185C70.7971 70.0331 71.0078 70.4158 71.5158 70.4131ZM65.7892 68.0291C65.9185 67.8038 66.0332 67.6171 65.7972 67.4198C65.5238 67.1905 65.2345 66.9225 64.8758 66.7851C64.5438 66.6585 64.1012 66.5985 63.7465 66.7318C63.0585 66.9931 62.7718 67.9771 63.2545 68.5505C63.6358 69.0038 64.3332 69.1611 64.8718 69.0318C65.3798 68.9105 65.5518 68.4425 65.7892 68.0291ZM69.9052 67.4211C70.1012 67.2905 70.2212 67.0811 70.2372 66.9331C70.2585 66.7385 70.1012 66.6251 70.0145 66.4545C69.8958 66.2251 69.8158 65.9091 69.5398 65.8078C69.1465 65.6638 68.7332 65.7971 68.3518 65.8878C68.1038 65.9478 67.9652 65.9798 67.8665 66.2345C67.7678 66.4878 67.7692 66.7051 67.8812 66.9665C67.9692 67.1718 69.2025 67.8905 69.9052 67.4211ZM66.7198 66.1625C67.1545 66.0225 67.2518 65.4945 67.1078 65.1345C67.0505 64.9905 66.8198 64.9598 66.8332 64.7185C66.3558 64.3811 65.7585 64.1998 65.1798 64.3905C64.8692 64.4931 64.5958 64.7678 64.5385 65.0718C64.4892 65.3251 64.5918 65.4998 64.6892 65.6451C64.8238 65.8465 65.0865 65.6745 65.2772 65.7758C65.6878 65.9931 66.1932 66.3318 66.7198 66.1625ZM72.0571 77.0118C71.9905 77.0491 71.9918 77.2251 71.9305 77.2424C71.8825 77.2558 71.8011 77.2358 71.7078 77.2264C71.7078 77.7051 70.9891 77.9344 70.8065 78.1918C70.6505 78.4104 70.4118 78.4064 70.2292 78.4971C70.0332 78.5931 69.8785 78.7598 69.6158 78.8411C69.6252 78.8384 68.1998 79.5038 68.2172 79.4971C67.4798 79.7758 66.7345 79.9731 66.0558 80.3024C65.7812 80.4358 65.6132 80.4691 65.3305 80.5171C65.1545 80.5451 64.9212 80.6598 64.7065 80.6691C64.5212 80.6758 63.8878 80.9664 63.2078 80.9518C63.0598 80.9491 62.7478 81.0264 62.6078 81.0824C62.3838 81.1718 62.2225 81.0931 62.0545 81.1051L61.1078 81.1758C60.5745 81.2158 60.1105 81.2904 59.5772 81.2371L58.9198 81.1731C58.5918 81.1398 58.3038 81.1544 57.9558 81.0758C57.2972 80.9291 57.0372 81.1211 56.3319 80.7398C56.0425 80.5838 55.7092 80.4731 55.4012 80.3344C55.1652 80.2278 55.0079 80.0878 54.7919 79.9758C54.2292 79.6851 53.6759 79.2744 53.4039 78.6878C53.3279 78.5251 53.3705 78.3011 53.1119 78.2038C53.1905 78.0518 53.3172 78.1291 53.4039 78.0584C53.2825 77.9958 53.1372 78.0024 53.0772 77.9251C52.8159 77.5878 53.2745 77.3491 52.9425 77.1238C52.8665 77.0731 52.7905 77.0064 52.7865 76.9278C52.7825 76.8491 52.8425 76.7758 52.9265 76.7011C52.9372 76.6078 52.7932 76.5584 52.7452 76.4731C52.7959 76.1984 52.6012 75.9238 52.6185 75.6691C52.6599 75.0531 53.0825 74.5464 53.4025 74.0504L54.0332 73.0705L54.4132 72.5638C54.5505 72.3798 54.7865 72.2891 54.8879 72.0585C54.9905 71.8238 55.2279 71.7411 55.3865 71.5838C55.6025 71.3678 55.6959 71.0931 55.9919 70.9585C56.2719 70.8331 56.3772 70.4398 56.6465 70.2891C56.8252 70.1905 57.4318 69.6478 57.9065 69.4798C58.2652 69.5438 58.5545 69.5011 58.9105 69.3998C60.3292 68.9985 60.8692 69.1185 61.7612 67.7198C62.3732 66.7598 62.9198 65.7811 63.4585 64.7718C63.8532 64.0318 64.8198 61.1838 65.0105 60.3318L65.5238 58.0345C65.7185 57.1612 65.4665 55.6038 65.6438 54.8278C65.7105 54.5318 66.3278 54.5932 66.4705 54.7758C66.5532 54.8798 66.5692 55.1505 66.7185 55.0572L66.9785 54.8972C67.0665 54.8412 67.2065 55.0425 67.2812 55.0318C67.6758 54.9732 67.9132 55.2892 68.1918 55.3478C68.4785 55.4078 68.6225 55.4985 68.8598 55.6185C69.3252 55.8532 69.8212 56.0252 70.2812 56.3025C70.5412 56.4598 70.8785 56.4718 71.0851 56.7505C71.1598 56.8505 71.4478 56.8318 71.5211 56.9558C71.6611 57.1958 73.0051 57.9265 72.8145 57.7878L73.6598 58.4065C73.8611 58.5532 73.9291 58.6745 74.0531 58.7732C74.2918 58.9638 74.6025 58.9998 74.7558 59.3172C74.8745 59.5612 75.2065 59.6652 75.3958 59.8558C75.5838 60.0425 75.6918 60.2585 75.8571 60.4571C76.3011 60.9905 76.5651 61.2331 76.8998 61.8825C77.3251 62.7065 77.5518 63.0465 77.7598 64.0411C77.8118 64.2878 77.6998 64.8225 77.7265 65.1785C77.7358 65.3011 77.7331 66.8785 77.3358 66.7705C77.5105 67.0705 77.3305 67.2731 77.2011 67.5278C77.1198 67.6891 77.1145 67.9211 76.9758 68.1131L76.2531 69.1265C76.2038 69.1945 76.1958 69.3211 76.1318 69.3371C75.9265 69.3851 75.0451 68.5411 75.0865 68.5958C74.6345 68.0038 74.1798 67.4718 73.5985 66.9811C71.7891 65.4558 71.6451 65.8345 70.8065 65.2185C70.6692 65.1171 70.4558 65.1011 70.2998 64.9131C70.0332 65.1011 71.2225 65.9691 71.2798 65.9971C71.6118 66.1598 71.7185 66.4478 71.9371 66.7025C72.3665 67.2011 72.9318 67.5705 73.3091 68.1118C73.5278 68.4265 73.7225 68.7451 73.9785 69.0291C74.3198 69.4105 74.4598 69.8425 74.5785 70.3305L74.9265 71.7745C75.1025 72.5065 74.6891 73.5265 74.3625 74.1638C74.2371 74.4064 74.1718 74.6158 73.9758 74.8238C73.9305 74.8731 73.4051 75.7491 73.1291 75.3811C73.3038 76.0411 72.6211 76.6944 72.0571 77.0118Z" fill="#243D13"/>
<path d="M22.6852 76.8932C22.9652 76.7759 23.0118 76.4879 22.8825 76.2826C22.8265 76.1919 22.6958 76.2172 22.6332 76.2612C22.5705 76.3052 22.5545 76.3852 22.5918 76.4986C22.6825 76.6172 22.6572 76.7359 22.6852 76.8932ZM8.46253 74.3746C8.38253 74.0692 8.2092 73.6932 7.87186 73.6119C7.3812 73.4919 6.96387 73.8039 6.7012 74.1959C6.39853 74.6506 6.48653 75.4226 7.07053 75.5746C7.13453 75.5919 8.71586 75.3426 8.46253 74.3746ZM5.8532 72.3199C5.79454 71.9959 5.6212 71.5119 5.3092 71.3692C5.01587 71.2359 4.69987 71.4319 4.51187 71.5892C4.28387 71.7799 4.30121 72.0892 4.27587 72.3759C4.23587 72.8186 4.35187 73.1879 4.8172 73.3186C5.09187 73.3959 5.61054 73.1439 5.6332 72.7626C5.64654 72.5519 5.8292 72.4439 5.8532 72.3199ZM21.2278 75.9452C21.3798 75.7852 21.4838 75.3986 21.4012 75.1826C20.7638 73.5159 21.1345 74.6799 20.5785 73.7079C20.5318 73.6266 20.1692 73.7172 20.2332 73.5079C20.3078 73.2706 20.2558 73.0252 19.9998 72.9066C19.7225 73.3319 19.1478 72.6479 18.8212 72.4386C18.6678 72.3412 18.4425 72.2946 18.2825 72.2092C18.1838 72.1559 18.0198 72.2852 17.9305 72.1652C17.8638 72.0772 17.8225 71.9932 17.7572 71.8266C17.6158 71.9786 17.4798 72.0052 17.3412 71.8986C16.7412 71.4292 16.3385 71.8266 15.7385 71.4439C15.6305 71.3586 15.8625 71.1786 15.7612 71.0239C15.6372 71.6932 13.7892 71.0239 12.6159 71.6026C12.2545 71.7799 12.0812 72.1946 11.7439 72.3879C11.5745 72.4839 11.4559 72.5359 11.4052 72.6932C11.3585 72.8439 11.4172 72.9532 11.4492 73.1226C11.7972 74.9692 11.3412 75.5946 13.4772 76.6372C14.3305 77.0559 15.1465 77.1332 16.1012 77.1266L17.8212 77.1132C18.1438 77.1106 18.3865 77.0026 18.6972 76.9439L19.5852 76.7772C19.7932 76.7386 19.9652 76.5986 20.1758 76.5346C20.5585 76.4199 20.9118 76.2826 21.2278 75.9452ZM9.76519 72.3612C9.87586 72.1252 10.0465 71.7386 9.83719 71.4599C9.50519 71.0186 8.88519 70.6679 8.34253 70.6986C8.01986 70.7173 7.7732 70.9573 7.65853 71.1279C7.4932 71.3746 7.49053 71.6759 7.59453 71.8946C7.87186 72.4839 8.3052 72.6732 8.88919 72.6879C9.23053 72.6972 9.53986 72.8452 9.76519 72.3612ZM11.8039 70.3626C12.4212 69.6639 11.2385 68.2226 10.3585 68.1026C9.88253 68.1999 9.43719 68.4733 9.16786 68.9079C8.61453 69.7986 11.1972 71.0506 11.8039 70.3626ZM7.60253 69.3186C7.83053 68.9133 7.7692 68.4519 7.53053 68.0706C7.1132 67.8093 6.6492 67.7986 6.21853 68.0959C5.63854 68.4973 5.26254 69.3293 5.50654 70.0453C5.59054 70.2893 6.0772 70.4239 6.29453 70.4146C6.71987 70.3946 7.71586 69.5679 7.60253 69.3186ZM12.9319 69.0359C13.4785 69.1546 14.1118 68.9906 14.4892 68.5839C15.0078 68.0253 14.7332 66.9866 14.0292 66.7386C12.9759 66.3653 11.8585 67.3999 11.8319 67.6919C11.8185 67.8266 11.9572 67.9359 12.0279 68.0879C12.2092 68.4773 12.4212 68.9253 12.9319 69.0359ZM9.91719 66.9093C10.0079 66.6639 9.99719 66.4693 9.90653 66.2333C9.80786 65.9759 9.66653 65.9453 9.41853 65.8866C9.03586 65.7959 8.62386 65.6666 8.22653 65.8093C7.95053 65.9093 7.87853 66.2293 7.7532 66.4573C7.65186 66.6413 7.48787 66.7799 7.5452 66.9906C7.5852 67.1346 7.7172 67.3279 7.8892 67.4359C8.5572 67.8546 9.80386 67.2226 9.91719 66.9093ZM11.0719 66.1693C11.5759 66.2946 12.1012 66.0413 12.4839 65.7466C12.7465 65.7626 12.9852 65.7866 13.1185 65.6026C13.2252 65.4546 13.2905 65.2253 13.2172 65.0066C12.8759 63.9826 11.3492 64.2893 10.9919 64.7146C10.8892 64.8373 10.7665 64.9986 10.6892 65.1213C10.4679 65.4719 10.6532 66.0653 11.0719 66.1693ZM6.0492 77.2452C6.02654 77.1999 5.87854 77.2679 5.83587 77.2452C5.7852 77.2172 5.77054 77.0546 5.72654 77.0266C5.17454 76.6866 4.46921 76.0746 4.64254 75.3799C4.50254 75.3786 4.49721 75.4586 4.45454 75.4879C4.24254 75.6332 2.46921 73.2572 2.86921 71.6359L3.20654 70.2666C3.47587 69.1719 3.72521 69.2159 4.43321 68.1533C4.80787 67.5906 5.39054 67.2133 5.83454 66.7026C6.04387 66.4626 6.13453 66.1826 6.4492 66.0253C6.52253 65.9879 7.74386 65.1039 7.47053 64.9119C7.31853 65.1039 7.09853 65.1159 6.9652 65.2173C6.19987 65.8013 5.9892 65.4413 4.17187 66.9813C3.59321 67.4733 3.13454 68.0026 2.68521 68.5959C2.67988 68.6026 1.90655 69.2826 1.68521 69.3453C1.55988 69.3813 1.61188 69.1533 1.26788 68.7679C0.714549 68.1466 0.637215 67.6479 0.583882 67.5439C0.459882 67.2986 0.247883 67.0813 0.434549 66.7693C0.0332171 66.8773 0.0385492 65.2786 0.0478825 65.1759C0.118549 64.4866 -0.26545 64.3266 0.394549 62.8386L0.582549 62.4119C0.654549 62.2493 1.12255 61.4639 1.26921 61.2399C1.31988 61.1626 2.37321 59.8613 2.41454 59.8239C2.61721 59.6399 2.92788 59.5253 3.04654 59.2693C3.18254 58.9746 3.51587 58.9639 3.71587 58.7759C3.83987 58.6599 3.90787 58.5586 4.11187 58.4079L4.9532 57.7839C4.73187 57.9493 6.1012 57.1973 6.20787 56.992C6.28787 56.84 6.59987 56.864 6.6852 56.752C6.9092 56.4573 7.26253 56.4506 7.52653 56.284C7.9772 56 8.4652 55.856 8.90519 55.6186C9.13719 55.4933 9.31319 55.4226 9.57719 55.3493C9.86919 55.268 10.0959 54.9906 10.4945 55.0266C10.5732 55.0346 10.6905 54.8746 10.7959 54.892C10.8879 54.908 10.9585 55.0413 11.0465 55.0613C11.2572 55.1106 11.2279 54.8226 11.3159 54.7333C11.4439 54.5986 11.6359 54.8053 11.7145 54.896C11.8345 55.0386 11.7319 55.2026 11.7545 55.3826L11.9265 56.7053C12.1519 58.4439 12.4305 60.1093 13.0172 61.7599C13.6318 63.4893 14.1172 65.2919 15.2038 66.8079C15.5172 67.2466 15.7065 67.7639 16.1345 68.1226C16.4145 68.3573 16.6945 68.6279 17.0105 68.8146C17.5812 69.1506 18.2478 69.1946 18.8598 69.3986C19.2198 69.5186 19.5038 69.5079 19.8625 69.4946C20.0905 69.5399 20.4438 69.7733 20.6438 69.9253L21.1238 70.2879C21.3678 70.4733 21.5012 70.8306 21.7798 70.9586C22.0558 71.0866 22.1505 71.3346 22.3518 71.5506C22.5238 71.7346 22.7972 71.8346 22.9118 72.1012C23.0038 72.3132 23.2278 72.3919 23.3558 72.5612L23.7372 73.0692L24.4598 74.1746C24.7532 74.6239 25.1105 75.1132 25.1572 75.6639C25.1785 75.9026 24.9812 76.1506 25.0332 76.4159C25.0558 76.5252 24.8438 76.5879 24.8532 76.6732C24.8598 76.7506 24.9612 76.8172 24.9758 76.8706C25.0025 76.9759 24.9252 77.0652 24.8318 77.1279C24.5038 77.3492 24.9185 77.5026 24.7292 77.8812C24.6785 77.9839 24.5318 77.9959 24.3665 78.0546C24.4372 78.1279 24.5785 78.0412 24.6492 78.1866C24.3865 78.2946 24.4412 78.5639 24.3505 78.7372C24.0558 79.2999 23.5278 79.6946 22.9798 79.9759C22.7638 80.0866 22.6065 80.2292 22.3692 80.3332C22.0785 80.4612 21.7638 80.5732 21.4838 80.7186C21.2265 80.8532 21.0758 80.9599 20.7518 80.9812C19.8798 81.0386 19.6812 81.1279 18.8478 81.1732C17.4212 81.2519 18.2052 81.3026 16.6225 81.1732L15.7132 81.0986C15.5612 81.0852 15.4332 81.1919 15.2185 81.0946C15.0585 81.0226 14.7052 80.9452 14.5332 80.9532C13.9625 80.9759 13.1759 80.6652 13.0719 80.6626C12.8172 80.6559 12.6345 80.5559 12.4372 80.5172C12.1652 80.4626 11.9825 80.4386 11.7119 80.3026C11.1545 80.0239 9.46119 79.5066 9.26919 79.3506C9.15853 79.2612 8.90119 79.2026 8.76253 79.1346L8.1612 78.8386C7.91453 78.7159 7.73987 78.5839 7.5452 78.4946C7.35053 78.4066 7.11853 78.4026 6.96787 78.1932C6.77587 77.9279 6.11987 77.7372 6.0492 77.2452Z" fill="#243D13"/>
<path d="M38.1092 14.4746C38.4199 14.3039 38.3319 13.9759 38.2412 13.7653C38.1199 13.4879 37.7732 13.4813 37.5052 13.6413C37.2932 13.7666 37.3372 14.1386 37.4785 14.3133C37.6119 14.4786 37.8559 14.6133 38.1092 14.4746ZM40.0265 13.7066C39.8692 13.4213 39.3492 13.3839 39.1452 13.5626C38.9345 13.7466 38.9039 14.0533 39.0532 14.2439C39.1799 14.4039 39.4012 14.4693 39.6519 14.3986C39.9092 14.3239 40.2025 14.0253 40.0265 13.7066ZM38.7879 16.6746C38.1892 17.0973 37.3959 17.1279 36.7705 16.7786C36.6759 16.7266 35.9465 15.8719 36.4172 15.8306C36.7252 15.8026 36.9705 16.0893 37.2772 16.1493C37.4292 16.1786 37.7585 16.1853 37.7332 15.9546C37.6372 15.0466 36.0959 14.6826 36.4159 13.1959C36.5159 12.7333 36.9092 12.5026 37.3079 12.3546C38.0532 12.0773 38.8159 12.1173 39.5932 12.2373C40.0505 12.3079 40.4839 12.4239 40.7025 12.8706C41.2265 13.9399 40.6519 14.4319 39.8999 15.1733C39.7585 15.3119 39.5279 15.4106 39.5359 15.6559C39.5452 15.9373 39.8479 16.2746 40.1519 16.2626C40.6319 16.2426 40.9025 15.5773 41.2425 15.9039C41.6825 16.3293 39.7292 17.3186 38.7879 16.6746Z" fill="#243D13"/>
<path d="M33.9355 8.89597C33.8222 8.7013 33.4848 8.54797 33.3062 8.57063C32.9262 8.61863 32.6702 8.81863 32.6448 9.1533C32.6262 9.40797 32.7208 9.76663 33.0235 9.83463C33.2902 9.8933 33.5688 9.77463 33.7382 9.63597C33.9328 9.47597 34.1022 9.1813 33.9355 8.89597ZM33.5115 10.9013C32.6182 11.1133 31.7582 10.6826 31.4142 9.82263C31.2782 9.48263 31.4195 9.14397 31.4542 8.81197C31.5595 7.79064 32.4848 6.94931 33.4915 7.2133C33.9395 7.33064 34.4128 7.47864 34.7368 7.85464C35.3728 8.5933 35.2648 9.71863 34.6808 10.3866C34.3835 10.7253 33.9248 10.804 33.5115 10.9013Z" fill="#243D13"/>
<path d="M44.6956 9.66401C44.8316 9.42267 44.9036 9.24401 44.8996 9.06534C44.893 8.80001 44.7236 8.66667 44.5383 8.49601C44.309 8.28401 43.9636 8.34934 43.7423 8.52267C43.5263 8.69067 43.457 8.95067 43.497 9.26134C43.5343 9.55867 43.7583 9.77467 44.069 9.83467C44.249 9.87067 44.5676 9.89334 44.6956 9.66401ZM44.985 11.032C44.149 11.3467 43.2476 10.9627 42.7103 10.328C42.229 9.76134 42.045 8.90801 42.2637 8.19868C42.553 7.26268 43.697 7.14668 44.5436 7.21601C45.5263 7.29734 46.3143 8.00668 46.3183 9.07334C46.3223 9.868 45.8076 10.7213 44.985 11.032Z" fill="#243D13"/>
</svg>
