<svg width="130" height="81" viewBox="0 0 130 81" fill="none" xmlns="http://www.w3.org/2000/svg">
<path d="M69.7546 78.8332C69.3119 78.1559 69.4813 78.7039 69.2079 78.0519C69.0599 78.3252 69.0946 78.5239 69.0239 78.7972L69.7546 78.8332ZM65.1306 76.1572L65.1026 75.2945C64.8213 75.4265 64.6786 75.6985 64.6946 75.9372C64.7026 76.0679 64.9773 76.2465 65.1306 76.1572ZM66.06 72.1105L66.2453 71.0959C66.26 71.0159 66.1213 70.8865 66.0613 70.8772C66 70.8692 65.86 71.0025 65.876 71.0625C65.968 71.3372 66.0506 71.6865 65.8626 71.9252C66.0173 71.9439 65.9666 72.0265 66.06 72.1105ZM76.6853 69.7599C76.5186 69.6745 76.4399 69.7185 76.3706 69.6439C76.3239 69.5932 76.3319 69.4559 76.2733 69.4159C76.1066 69.4399 75.9159 69.4679 75.7853 69.5905C75.8253 69.7945 76.0386 69.8919 76.1626 69.9359C76.3719 70.0079 76.5026 69.8012 76.6853 69.7599ZM53.592 69.5652C53.4747 69.4159 53.248 69.4665 53.148 69.3985C53.1133 69.5412 53.1067 69.6332 53.0147 69.6825C52.9467 69.7199 52.8507 69.6839 52.7573 69.7599C52.9813 69.8465 53.14 70.0212 53.332 69.9185C53.444 69.8572 53.7253 69.7359 53.592 69.5652ZM78.2106 69.1132C78.4159 69.0932 78.6279 68.7572 78.5626 68.6132C78.4799 68.4319 78.3706 68.0786 78.0879 68.1879C78.3986 69.0199 77.8093 69.1505 78.2106 69.1132ZM51.3147 68.1839C50.96 68.1599 50.8387 68.6652 50.8787 68.7425C50.976 68.9265 51.104 69.2399 51.3973 69.0985C51.0347 68.6212 51.4853 68.1959 51.3147 68.1839ZM76.6279 68.3839C76.7613 68.2026 76.6946 68.0599 76.6293 68.0172C76.5706 67.9772 76.3279 67.9826 76.3533 68.0972C76.4199 68.4105 76.7039 68.7012 76.9946 68.6745C76.9573 68.4359 76.6879 68.5492 76.6279 68.3839ZM52.484 68.7159C52.7747 68.6239 53.0307 68.3999 53.088 68.0892C53.1093 67.9706 52.8227 67.9906 52.7587 68.0506C52.6667 68.1386 52.816 68.3225 52.78 68.4185C52.7307 68.5532 52.3747 68.4492 52.484 68.7159ZM30.5414 67.6532C30.7667 67.3906 30.644 67.0932 30.5894 66.8492C30.4587 66.9292 30.4067 66.9546 30.2667 67.0132C30.4521 67.1799 30.4467 67.3986 30.5414 67.6532ZM86.3212 67.2826C86.4452 67.1599 86.6039 67.1946 86.6932 67.0719L86.0186 66.7292C86.0479 67.0266 85.9279 67.2692 86.0212 67.5506C86.0479 67.6306 86.2466 67.5639 86.2786 67.5092C86.3066 67.4625 86.2479 67.3546 86.3212 67.2826ZM72.6133 66.5372C72.5439 66.7186 73.0053 66.8932 73.2026 66.7386C72.8639 66.3612 72.6319 65.9639 72.4239 65.5759C72.5773 65.4292 72.4719 65.2892 72.3679 65.4439C72.2253 65.5492 72.0879 65.6119 72.0626 65.7452C72.0413 65.8559 72.4653 66.2772 72.4919 66.2839C72.5666 66.3012 72.6453 66.2666 72.7386 66.2119L72.6133 66.5372ZM33.7827 65.5986C34.0227 65.9012 34.7254 64.7172 34.3494 64.7919C33.7414 65.1412 34.1814 65.0692 33.7827 65.5986ZM65.252 65.5039C65.4933 65.2532 65.4666 64.7306 65.248 64.5239C65.0373 64.6319 65.0453 64.9786 65.2026 65.1159C65.0853 65.2106 64.9733 65.2852 65.044 65.3426C65.0826 65.3746 65.1626 65.5972 65.252 65.5039ZM95.4319 65.0346C95.3399 64.7372 94.7439 64.5772 94.6932 64.4092C94.5919 64.4852 94.4772 64.6092 94.4785 64.7599C94.8985 65.0359 95.2519 65.4212 95.4852 65.8652C95.5332 65.9559 95.7919 65.8852 95.8212 65.8199C95.9345 65.5772 95.6746 65.8106 95.4319 65.0346ZM63.548 65.5306C63.892 64.6172 63.7666 65.1852 63.708 64.4052C63.704 64.3506 63.5973 64.3079 63.564 64.3159C63.532 64.3239 63.4706 64.3439 63.4693 64.3772C63.468 64.4292 63.536 64.5079 63.5293 64.5546C63.4893 64.8772 63.3213 65.1706 63.548 65.5306ZM68.3586 63.7786C68.4333 63.6932 68.3066 63.5492 68.26 63.4799C68.2133 63.4092 67.9906 63.3172 67.92 63.4292C67.896 63.5132 68.0293 63.6639 67.9666 63.8146C68.1 63.8066 68.2786 63.8706 68.3586 63.7786ZM61.372 63.3826C61.1893 63.3892 60.9853 63.6892 61.104 63.7892C61.1973 63.8679 61.4013 63.8319 61.4586 63.7892C61.1866 63.9932 61.7813 63.3692 61.372 63.3826ZM58.3653 64.1306C58.3893 64.0292 58.628 64.0399 58.664 63.9252C58.748 63.6599 58.8586 63.4372 59.1333 63.3252C59.06 63.1359 58.972 62.9026 58.6426 62.9546C58.7893 63.2812 58.5853 63.4679 58.4346 63.6772C58.244 63.9399 58.14 64.2306 57.976 64.5532C58.0746 64.5799 58.2533 64.6039 58.3333 64.4919C58.3986 64.3986 58.332 64.2679 58.3653 64.1306ZM71.9666 65.4612C72.1119 65.5266 72.1586 65.2599 72.1279 65.1466C72.0853 64.9892 71.9546 64.8986 71.7039 64.8732C71.7666 64.7639 71.7919 64.7026 71.7773 64.6292C71.7546 64.5159 71.5053 64.4679 71.4693 64.4026C71.3426 64.1812 71.3706 63.8306 71.1039 63.6812C70.9773 63.6106 71.0213 63.4759 70.9679 63.4039C70.8946 63.3079 70.7839 63.2399 70.7693 63.1532C70.7426 62.9892 70.9253 62.9359 70.9586 62.7226C70.7226 62.8759 70.4999 62.9946 70.2813 63.2839C70.5599 63.4306 70.6986 63.6799 70.8039 63.9706C70.8906 64.0439 71.0479 64.0546 71.1026 64.1386C71.0639 64.2692 71.0506 64.3919 71.1066 64.4839C71.1626 64.5772 71.3306 64.5492 71.4226 64.6332C71.5933 64.7852 71.2373 64.8786 71.9666 65.4612ZM37.8947 61.3826C37.8574 61.3692 37.7774 61.2652 37.7054 61.2999C37.5507 61.3732 37.444 61.5119 37.3014 61.5666C37.4787 61.6772 37.5027 61.7786 37.5814 61.7719C37.6 61.7706 38.0387 61.4332 37.8947 61.3826ZM91.4866 63.8786C91.5639 63.5919 91.2426 63.4359 91.1306 63.2359C91.0226 63.0426 90.6306 62.2146 90.3306 62.2839C90.3252 62.1932 90.3372 62.1106 90.3132 62.0599C90.0572 61.9519 89.9119 61.7492 89.7492 61.5466C89.6546 61.5519 89.5626 61.5946 89.5359 61.5492C89.5079 61.4986 89.4879 61.3586 89.5052 61.2172C89.3639 61.2452 89.2252 61.2226 89.0412 61.3506C89.3372 61.4639 89.4106 61.6799 89.5666 61.8759C89.6012 61.9186 89.8026 61.9186 89.8199 61.9772C89.8332 62.0292 89.7052 62.1132 89.6919 62.2066C90.2052 62.5092 90.6452 63.0012 90.9372 63.5226C90.9732 63.5866 91.1572 63.6092 91.1866 63.6812C91.1066 63.4839 91.1986 64.0932 91.3479 64.0626C91.3812 64.0559 91.4746 63.9199 91.4866 63.8786ZM38.4627 60.4519C38.6174 60.3812 38.804 60.3559 38.7307 60.2012C38.568 60.1946 38.3227 60.2279 38.256 60.3626C38.212 60.4506 38.2014 60.6599 38.2974 60.7226C38.3694 60.7706 38.5187 60.6626 38.5574 60.6226C38.5934 60.5866 38.436 60.5172 38.4627 60.4519ZM71.9413 60.5999C71.9666 60.3439 71.7853 60.1252 71.5226 60.1106C71.4199 60.5132 71.7453 60.8479 72.1573 60.8266C72.1253 60.6919 72.0013 60.6932 71.9413 60.5999ZM57.2866 60.8199C57.6666 60.8892 58.0413 60.4746 57.9 60.1372C57.6866 60.0959 57.4413 60.3746 57.504 60.5946C57.4333 60.6959 57.3106 60.6986 57.2866 60.8199ZM68.5106 60.8146C68.652 60.4519 68.7226 60.1732 68.72 59.8132C68.7186 59.6359 68.9559 59.3932 68.8186 59.2186C68.7039 59.0719 68.6733 58.9412 68.704 58.6839C68.3946 58.8639 68.5533 59.2252 68.4959 59.4772C68.3679 60.0559 68.1866 60.6199 68.304 61.2359C68.5706 61.2146 68.4506 60.9666 68.5106 60.8146ZM70.3039 57.3812C70.1039 57.3439 70.0373 57.2572 69.9586 57.1506C69.8919 57.4012 70.0239 57.6786 70.2946 57.7212C70.3986 57.7372 70.4853 57.4146 70.3039 57.3812ZM59.1173 57.7306C59.344 57.7226 59.5546 57.4732 59.444 57.1919L59.0626 57.4279C59.0066 57.4626 59.0466 57.6839 59.1173 57.7306ZM64.244 57.2079C64.356 56.4226 64.604 55.1373 64.368 54.5226C64.1493 55.1573 64.0786 55.7906 64.112 56.4039C64.1173 56.5132 64.088 56.5146 64.028 56.6399C63.9506 56.8039 64.1586 57.0892 64.244 57.2079ZM25.6667 52.5733C25.8707 52.7079 26.0467 52.6906 26.1307 52.4719C26.2214 52.2359 25.7694 51.9266 25.8414 51.9399C25.7961 51.9319 25.7254 51.9093 25.7121 52.0079C25.7054 52.0613 25.7601 52.1986 25.7201 52.2626C25.7254 52.2546 25.4761 52.2439 25.4454 52.1253C25.3934 52.1679 25.3654 52.3026 25.3961 52.3986C25.4214 52.4759 25.5494 52.4946 25.6667 52.5733ZM79.1546 50.6066C78.9959 50.4559 78.9506 50.3426 78.8799 50.1413C78.8453 50.0426 78.5453 49.9559 78.4813 50.0466L78.0359 50.6839C78.1893 50.7533 78.3613 50.7639 78.5026 50.7866C78.6826 50.6493 78.8479 50.6186 79.1546 50.6066ZM75.0946 49.6773C75.0439 49.6639 74.9213 49.7306 74.8666 49.6959C74.6826 49.5799 74.8079 49.3346 74.6386 49.1533C74.3919 49.5453 74.6999 49.8119 74.8893 50.1253C74.9519 50.2306 74.8586 50.3586 75.0226 50.3253C75.1186 50.3053 75.2626 50.3093 75.2919 50.1986C75.2399 50.3919 75.2333 49.7146 75.0946 49.6773ZM54.5467 50.1266C54.7893 49.7413 55.0333 49.5719 54.7933 49.1706C54.6307 49.3466 54.7547 49.6373 54.544 49.6986C54.4507 49.7253 54.304 49.6213 54.2667 49.7333C54.3 49.6346 54.1653 50.2426 54.1653 50.2426C54.24 50.3359 54.392 50.3199 54.492 50.3186C54.548 50.3173 54.5107 50.2093 54.5467 50.1266ZM77.3293 48.7173C77.3413 48.5759 77.3066 48.4533 77.2399 48.4493C77.1839 48.4453 77.1066 48.5213 77.0613 48.5693C76.9119 48.7199 77.0306 48.8693 77.1226 48.9479C77.2573 49.0626 77.5813 49.0519 77.5506 48.7533C77.5399 48.6613 77.3759 48.7279 77.3293 48.7173ZM83.7732 47.6519C83.4666 47.3239 83.3506 46.9546 83.2692 47.0599C83.2386 47.0986 83.1052 47.2413 83.1466 47.2773C83.3226 47.4279 83.5359 47.6279 83.7732 47.6519ZM46.288 47.2839C46.2893 47.1746 46.1827 47.0399 46.1213 46.9853C45.9827 47.2413 45.8773 47.4173 45.712 47.6253C45.944 47.5506 46.1333 47.4519 46.288 47.2839ZM101.387 47.2319C101.248 47.1439 101.203 46.9053 100.963 46.9279C100.904 47.3533 101.452 47.7626 101.705 47.5639C101.84 47.4586 101.671 47.3919 101.633 47.3159C101.573 47.1879 101.505 47.2106 101.387 47.2319ZM27.7627 47.5786C28.1547 47.7199 28.5121 47.2746 28.4694 46.9293C28.2401 46.9159 28.1667 47.1293 28.0481 47.2439C27.9361 47.1813 27.8681 47.2226 27.8067 47.3119C27.7707 47.3653 27.5761 47.5119 27.7627 47.5786ZM51.9533 47.1586C52.3173 47.1093 52.3933 46.9533 52.6333 46.9533C52.672 46.7706 52.6653 46.6319 52.7333 46.4599C53.076 46.4546 53.1627 46.1839 53.328 46.0119C53.4813 45.8519 53.588 45.7706 53.7213 45.5813L53.964 45.2413C54.1013 45.0493 54.3227 44.8466 54.284 44.5106C53.6173 44.8826 53.3787 45.3986 53.3387 45.4333C53.0907 45.6546 52.8387 45.8346 52.8013 46.1839C52.7027 46.1679 52.5853 46.1546 52.556 46.2666C52.524 46.3906 52.4907 46.4839 52.428 46.5386C52.384 46.5773 52.188 46.5239 52.156 46.5733C52.0573 46.7306 51.952 46.9399 51.9533 47.1586ZM116.493 44.3266C116.393 44.2626 116.317 44.1946 116.24 44.2053C116.19 44.2119 116.159 44.2759 116.076 44.2999C116.02 44.0986 115.921 43.9906 115.764 43.9106C115.6 43.9853 116.241 44.7653 116.226 44.7626C116.338 44.7839 116.474 44.7453 116.533 44.6733C116.614 44.5759 116.646 44.4266 116.493 44.3266ZM13.6908 44.1319C13.5921 44.0199 13.7281 43.9559 13.6588 43.9213C13.4708 43.9906 13.4321 44.1706 13.3641 44.3119C13.2094 44.1799 13.1174 44.2106 12.9934 44.2866C12.7908 44.4119 12.8028 44.6013 12.9454 44.6999C13.5014 45.0866 13.1334 44.5013 13.6908 44.1319ZM95.1452 44.9546L94.6452 44.5933C94.3159 44.3546 94.0372 44.0813 93.8519 43.6386L93.5399 43.9413C93.6532 44.1173 93.8972 44.1346 94.0226 44.2879C94.0826 44.3613 95.0359 45.5093 95.1452 44.9546ZM17.6481 43.4413C17.4587 43.3759 17.3361 43.4613 17.2761 43.5279C17.2067 43.6039 17.1534 43.7999 17.2481 43.8146C17.4161 43.8413 17.5574 43.7706 17.6054 43.6919C17.6441 43.6266 17.7227 43.4666 17.6481 43.4413ZM111.964 43.3453C111.924 43.3786 111.895 43.4306 111.853 43.4839C111.605 42.504 111.557 43.5306 111.919 43.7639C111.997 43.8146 112.211 43.8519 112.233 43.7866C112.287 43.6413 112.053 43.2679 111.964 43.3453ZM93.1665 43.4093C93.1012 43.3426 93.0626 43.1866 92.9812 43.2226C92.8292 43.2919 92.9839 43.3933 92.9546 43.4879C93.0306 43.6453 93.4879 43.7959 93.6039 43.6733C93.7506 43.3693 93.2599 43.5066 93.1665 43.4093ZM77.3013 46.5333C76.6973 46.6933 77.0959 46.0693 76.6466 46.1866C76.6119 45.8173 76.3066 45.6933 76.1079 45.4293L75.7506 44.9533L75.3293 44.6213C75.1586 44.4853 75.2373 44.1959 74.9479 44.0839C74.7559 44.0079 74.7093 43.6919 74.5226 43.5879C74.4559 43.5506 74.3693 43.5599 74.3479 43.5186C74.3213 43.4639 74.3853 43.3826 74.3693 43.2879C74.3439 43.1373 73.9293 43.2586 73.9826 43.3653C74.2839 43.9706 74.3719 43.7666 74.6119 44.3839C74.7559 44.7533 75.1933 44.9573 75.3599 45.3146C75.4399 45.4866 75.5293 45.5839 75.6573 45.7333C75.7306 45.8173 75.6826 45.9746 75.8679 46.0586C75.9586 46.0999 75.9533 46.0799 76.1226 45.9586C76.0373 46.5466 76.9279 46.1359 76.7653 46.9159C77.0439 46.9493 77.1973 47.1933 77.5199 47.1226L77.3013 46.5333ZM59.9826 44.0719C60.104 43.7266 60.348 43.6906 60.4066 43.4413C60.464 43.1999 60.724 43.0946 60.792 42.8693C60.2093 42.5146 60.5186 43.1719 59.9813 43.1186C59.936 43.3413 59.9266 43.5959 59.6906 43.6973C59.7693 43.8906 59.8626 43.9853 59.9826 44.0719ZM15.9454 43.0066C16.6601 42.4453 16.8281 42.7599 16.9748 42.3413C16.9801 42.2986 16.8801 42.2506 16.8561 42.284C16.8347 42.312 16.7788 42.4026 16.7441 42.432C16.6521 42.3786 16.5827 42.2706 16.4867 42.2893C16.5921 42.268 15.5588 42.7346 15.5388 43.0039C15.3508 43.0399 15.0761 42.8653 15.0588 43.0853C15.0468 43.2559 15.4454 43.3999 15.9454 43.0066ZM71.8666 43.8786C71.9199 43.9519 71.7786 44.1199 71.8546 44.1639C72.3786 44.4639 72.3333 44.8933 72.8839 44.7559C72.7026 44.4306 72.4546 44.2519 72.2546 43.9906L70.9226 42.24C70.8693 42.1706 70.7506 42.1253 70.7053 42.1533C70.6599 42.1813 70.5306 42.312 70.5666 42.3533C70.7413 42.564 71.0093 42.6266 71.2279 42.7613C71.1519 42.8826 71.0733 42.9706 71.0826 43.0639C71.0946 43.1773 71.3279 43.1706 71.3559 43.2426C71.4639 43.5253 71.6879 43.6319 71.8666 43.8786ZM109.555 42.704C109.781 42.7213 109.951 42.7906 109.995 42.996C110.111 42.9373 110.199 42.864 110.229 42.84C110.189 42.368 109.709 42.364 109.464 42.156C109.083 41.836 108.784 41.544 108.293 41.3466C108.173 41.2986 108.053 41.0493 107.847 41.152C107.831 41.0186 107.809 40.936 107.744 40.9213C107.628 40.8946 107.545 40.8386 107.517 40.9226C107.48 41.0306 107.415 41.14 107.543 41.148C107.649 41.156 107.777 41.1626 107.84 41.2373C107.868 41.2693 107.856 41.3066 107.868 41.3946C107.985 41.3773 108.056 41.44 108.129 41.4906C108.217 41.552 108.152 41.7026 108.212 41.776C108.381 41.984 108.689 41.9666 108.893 42.1173C109.107 42.276 109.259 42.4239 109.496 42.4906C109.273 42.6079 109.364 42.648 109.555 42.704ZM107.243 41.008C107.389 40.848 107.457 40.7973 107.436 40.72C107.384 40.5253 107.076 40.4426 106.909 40.548L107.243 41.008ZM78.4813 39.7026C78.4893 39.6333 78.3733 39.4986 78.3679 39.4173C78.1986 39.34 78.0119 39.624 78.0693 39.804C78.1053 39.92 78.4666 39.824 78.4813 39.7026ZM51.2893 39.8626C51.4107 39.7293 51.3813 39.6053 51.3027 39.5146C51.2613 39.4653 51.1413 39.3586 51.0787 39.4293C50.9987 39.5173 51.0133 39.6546 50.9053 39.704C51.036 39.8 51.152 39.8346 51.2893 39.8626ZM6.75611 39.9026C6.95344 39.8453 6.95344 39.5853 7.21478 39.636C7.31078 39.6546 7.28278 39.452 7.24144 39.4106C7.21211 39.3813 7.18144 39.3133 7.11211 39.3413C7.07344 39.356 7.01344 39.4653 6.95878 39.428L6.80944 39.3293C6.92278 39.4053 6.21611 39.5613 6.22678 39.9653C6.12144 39.9346 6.07078 39.8826 6.04144 39.9C5.98411 39.932 5.98411 39.9973 6.00011 40.028C6.01611 40.0586 6.12544 40.084 6.17478 40.0693L6.75611 39.9026ZM4.36545 39.508C4.28412 39.1093 4.27078 38.9786 4.47478 38.8026C4.26412 38.7853 4.12411 38.78 4.07345 38.6173L3.91078 38.9853C3.86812 39.0826 3.77078 38.9733 3.60412 38.996C3.77078 39.276 4.04545 39.576 4.36545 39.508ZM76.2973 39.6893C76.6906 39.7773 76.3426 38.76 76.3573 38.8493C76.3226 38.636 76.7266 38.0466 76.2573 37.7933C76.1186 37.7173 76.0613 37.756 75.8493 37.8693C75.6759 37.9613 75.3906 37.9133 75.2773 38.0413C75.1866 38.396 75.4879 38.4853 75.5946 38.684C75.7453 38.9626 75.7866 39.3013 76.2093 39.252C76.2253 39.4213 76.2333 39.5626 76.2973 39.6893ZM126.558 37.932C126.71 37.9386 126.766 37.6573 126.741 37.568C126.642 37.232 126.164 37.2666 125.876 37.076C125.913 37.2973 125.946 37.4186 125.957 37.628C126.242 37.5786 126.332 37.796 126.558 37.932ZM62.9333 36.7613C62.9866 36.584 63.02 36.4733 62.8186 36.376C62.7506 36.576 62.5546 36.6253 62.432 36.772C62.324 36.9026 62.5186 37.068 62.6226 37.072C62.7786 37.0786 62.8746 36.9533 62.9333 36.7613ZM71.1253 37.096L71.5946 37.4653C71.6146 37.2906 71.6199 37.0866 71.5853 36.9333C71.3653 36.8826 70.8173 36.1426 70.7879 36.4506C70.7906 36.4266 71.1053 37.0533 71.3146 36.912C71.2559 36.9613 71.2066 36.9933 71.1253 37.096ZM57.432 38.4746C57.3826 38.344 57.3973 38.272 57.42 38.24C57.4386 38.212 57.5133 38.2306 57.5453 38.1906C57.7946 37.8813 57.8786 37.4946 58.16 37.1986C58.208 37.148 58.3213 37.1333 58.3026 37.0946C58.2653 37.02 58.22 36.996 58.124 36.9146C58.3333 36.996 58.6866 36.4933 58.628 36.3986C58.592 36.3413 58.46 36.2333 58.4386 36.3026C58.3173 36.6853 57.6573 36.96 57.8373 37.1653C57.472 37.2333 57.456 37.604 57.3853 37.9133C57.3293 38.1546 57.016 38.3386 57.056 38.604C57.1946 38.4986 57.34 38.5733 57.432 38.4746ZM8.52677 35.8893C8.55877 35.7053 8.45077 35.536 8.42677 35.376C8.16677 35.592 7.92411 35.6733 7.64411 35.7946C7.72544 36.008 7.69878 36.176 7.73211 36.404C7.85078 36.0306 8.46677 36.2413 8.52677 35.8893ZM50.212 35.2506C50.036 35.476 49.632 35.8333 49.8933 35.9573C49.9907 36.0026 50.5253 35.3973 50.212 35.2506ZM66.684 35.9613C66.5506 35.7373 66.5266 35.3666 66.2173 35.2786C66.1426 35.256 66.0893 35.0666 66.012 35.0773C65.9493 35.0853 65.7626 35.124 65.7653 35.1973C66.0613 35.7013 66.2386 36.284 66.6066 36.7333C66.72 36.872 66.8773 36.9933 66.8853 37.128C67.1 37.032 67.184 36.948 67.2133 36.8293C67.2746 36.5853 66.616 35.848 66.684 35.9613ZM20.6427 33.8386C20.7201 33.8826 20.8681 33.776 20.9174 33.7093C20.9721 33.6346 20.8934 33.428 20.8121 33.3493C20.6881 33.2253 20.5174 33.3426 20.4787 33.4613C20.4334 33.6 20.4654 33.7373 20.6427 33.8386ZM71.5079 34.584C71.4639 34.4813 71.2599 34.4506 71.2359 34.3013C71.2319 34.2706 71.6026 34.032 70.9039 33.4813C70.7426 33.3546 70.6506 33.0853 70.2759 33.22C70.7399 33.4746 70.6653 33.812 70.6813 34.156C70.7999 34.3133 70.9773 34.5386 71.0519 34.7866C71.0079 34.6426 71.5359 35.476 71.6906 35.2693C71.7173 35.2333 71.7413 35.1173 71.7119 35.0746C71.6439 34.98 71.4599 35.0106 71.4346 34.9466C71.3906 34.8373 71.5506 34.6813 71.5079 34.584ZM13.9561 32.928C13.8094 32.864 13.6761 32.8973 13.6614 32.7693C13.6521 32.6893 13.7468 32.6133 13.6454 32.4613C13.6041 32.696 13.4054 32.7906 13.1868 32.744C13.2161 32.94 13.2028 33.0613 13.2721 33.1093C13.4988 33.2666 13.7601 33.0093 13.9561 32.928ZM48.9867 32.0866C48.872 31.872 48.5413 32.1973 48.2413 32.288C48.1547 32.436 48.4227 32.5573 48.5213 32.5586C48.532 32.5586 49.0947 32.2853 48.9867 32.0866ZM41.5547 33.2773C42.1654 32.624 41.3574 32.6413 42.316 32.1226C42.264 31.98 42.1494 31.9293 42.0774 31.8066C42.008 32.108 41.7467 32.1066 41.5214 32.2373C41.5014 32.368 41.5774 32.532 41.4734 32.6333C41.428 32.6773 40.764 33.0413 40.7094 33.2186C40.636 33.46 40.928 33.572 41.1307 33.568C41.3027 33.5653 41.38 33.464 41.5547 33.2773ZM43.1094 31.272C43.1374 31.2173 43.0093 31.1213 42.9453 31.1266C42.848 31.136 42.8454 31.3053 42.8054 31.3813C42.7627 31.4333 42.6814 31.3826 42.652 31.4066C42.616 31.436 42.5387 31.5493 42.6094 31.5866C42.8587 31.72 43.0214 31.4466 43.1094 31.272ZM68.5826 31.2426C68.4173 31.024 68.3453 30.8666 68.3453 30.6306C67.9333 30.896 68.1973 31.1866 68.3506 31.5813C68.4026 31.4786 68.4786 31.404 68.5826 31.2426ZM61.6693 30.1213C61.9226 30.1986 62.0466 30.2066 62.1733 30.0293C62.2653 29.9 62.4373 29.6506 62.2466 29.552C62.0986 29.548 62.1733 29.7493 62.2426 29.8986C62.0266 29.8253 61.8946 29.9813 61.6693 30.1213ZM47.892 29.8053C47.888 29.572 47.6107 29.5773 47.448 29.604C47.2853 29.6307 47.1787 29.868 47.2333 30.052C47.3027 30.2906 47.7187 29.8587 47.892 29.8053ZM81.8906 29.46C81.7053 29.3453 81.5066 29.2613 81.3906 29.1347C81.2559 29.22 81.2346 29.496 81.2773 29.616C81.3359 29.784 81.5519 29.824 81.6626 29.804C81.8079 29.776 82.1039 29.5906 81.8906 29.46ZM88.1959 28.9293C88.0439 28.8093 87.9372 28.7413 87.8866 28.5933C87.7852 28.6547 87.6999 28.6733 87.6039 28.804C87.7639 28.9427 87.9292 29.0933 88.1959 28.9293ZM77.4253 28.844C77.2853 28.8213 77.2213 28.68 77.2199 28.5147C77.1093 28.5107 77.0479 28.5747 76.9466 28.6L76.4733 28.084L76.1386 28.36C76.3413 28.4173 76.3573 28.5533 76.4493 28.6733C76.3266 28.5147 77.2719 29.356 77.4253 28.844ZM42.2627 29.4733C42.2494 29.6573 42.3707 29.7346 42.2467 29.7746C42.144 29.808 42.0694 29.868 42.0534 29.932C42.0414 29.9826 42.1067 30.1613 42.152 30.1333C42.392 29.9666 42.6133 29.8573 42.856 29.7293C43.5427 29.3653 43.268 29.2253 43.8547 28.936C44.16 28.784 44.508 28.3107 44.2307 28.0427C44.0893 27.964 43.9507 28.236 43.876 28.2853C43.7893 28.344 43.6707 28.3107 43.6467 28.3693C43.6213 28.432 43.6133 28.568 43.5573 28.584C43.4147 28.6253 43.1733 28.5733 43.1573 28.712L43.1173 29.076C43.1093 29.148 42.9187 29.072 42.9027 29.1093L42.8147 29.312C42.7627 29.4293 42.588 29.4467 42.5534 29.648C42.4347 29.612 42.3694 29.5307 42.2627 29.4733ZM55.1213 26.492C55.1453 26.4373 55.1507 26.2547 55.056 26.2653C54.8587 26.2867 54.736 26.48 54.6267 26.6253C54.5893 26.6747 54.66 26.7813 54.7107 26.8013C54.7787 26.8267 55.088 26.5653 55.1213 26.492ZM74.8426 26.4293C74.6759 26.2667 74.5653 26.1907 74.4266 26.1053C74.3173 26.0373 74.1813 26.1307 74.1533 26.2027C74.1239 26.2773 74.1306 26.4907 74.2613 26.5347C74.4293 26.5907 74.6493 26.492 74.8426 26.4293ZM40.2454 25.9227C40.5027 25.9053 40.8267 25.76 40.784 25.452C40.6347 25.6067 40.4854 25.596 40.2587 25.5173C40.2934 25.6813 40.336 25.7707 40.2454 25.9227ZM39.3654 24.1867C39.3227 24.1413 39.26 24.068 39.172 24.1027L38.5134 24.3627C38.6574 24.5307 39.5307 24.364 39.3654 24.1867ZM86.6666 19.1547C86.4372 19.2573 86.2146 19.1973 85.9732 19.1573C86.0599 19.5613 86.4412 19.5013 86.7079 19.5387C86.7012 19.38 86.7106 19.308 86.6666 19.1547ZM69.2173 80.6279C68.9946 80.7065 68.8 80.4972 68.6293 80.3692L67.9786 80.7305C67.8973 80.6278 67.86 80.3892 67.708 80.4012C67.4866 80.4185 67.4026 80.6639 67.1653 80.7559C67.088 80.6625 67.16 80.5345 67.0546 80.4705C67.0053 80.6439 66.9373 80.7052 66.8466 80.7852C66.7306 80.8878 66.6026 80.7332 66.4906 80.7079C66.2826 80.8319 65.9106 80.8718 65.724 80.6092C65.5933 80.6199 65.5066 80.7905 65.3773 80.7892L64.5026 80.7825C64.3173 80.7799 64.3053 80.5172 64.216 80.3559C64.1146 80.4945 63.9413 80.4065 63.816 80.4465C62.7293 80.7878 63.4693 80.5412 63.1133 80.7665C63.2706 80.6679 62.64 80.8105 62.6586 80.8158C62.4253 80.7545 62.372 80.1399 62.3 80.7372C62.1373 80.7252 62.0133 80.5492 61.8626 80.4385C61.68 80.3039 61.5386 80.4958 61.4853 80.7238L60.8106 80.3718C60.6506 80.5078 60.4426 80.7012 60.22 80.6279C60.0893 80.5825 60.0333 80.4119 59.9253 80.4505C59.792 80.4999 59.7133 80.5545 59.5586 80.6865L59.5293 80.4519C58.6893 81.3065 59.452 80.2505 58.9533 80.8905C58.8906 80.8772 58.824 80.7665 58.7346 80.7105C58.6773 80.6745 58.5826 80.7758 58.5133 80.7665C58.3946 80.7225 58.388 80.5572 58.2946 80.5039C58.24 80.5852 58.1946 80.6452 58.1173 80.6478C58.0853 80.6492 58.1066 80.5772 58.0666 80.4985C57.9133 80.5652 57.8253 80.6545 57.6733 80.5985C57.432 80.5092 57.132 80.0852 57.088 79.9065C56.9146 80.0999 56.752 79.8492 56.6066 79.9025C56.088 78.9999 56.828 78.3292 56.9573 77.9799L57.5626 76.3359L57.9786 75.2572C58.0093 75.1759 57.9066 75.0652 57.912 74.9919C57.9173 74.9345 58.136 74.8999 58.136 74.8412C58.136 74.5945 58.3653 74.3905 58.3906 74.1985C58.4386 73.8332 58.48 73.5585 58.676 73.2332C58.7493 73.1119 58.6746 72.8719 58.904 72.7839L58.68 72.5932C58.9626 72.3505 59.0986 72.0932 59.0826 71.7532C59.0693 71.4719 59.4253 71.1412 59.3506 70.8759L59.28 70.6252C59.2533 70.5279 59.464 70.4932 59.5053 70.3905C59.5946 70.1719 59.5266 69.7799 59.676 69.5745C59.8493 69.3345 59.8586 69.2212 59.8373 68.9519C59.8146 68.6692 60.1373 68.3785 60.132 68.1039C60.1213 67.5492 60.5293 67.6879 60.3826 66.6439C60.7066 66.4239 60.7266 65.6519 60.572 65.7106C60.3213 65.8066 60.6493 65.9759 60.128 66.3212C60.0093 66.3999 59.84 67.2092 59.6133 67.3466L59.4013 67.4746C59.3653 67.4972 59.4626 67.6972 59.4093 67.7199C59.0093 67.8985 58.7546 68.3145 58.5453 68.6825C58.4146 68.9132 58.2253 68.5585 58.196 69.3705C58.0733 69.1679 57.9613 69.1559 57.9986 69.3745C57.8653 69.7252 57.532 69.9425 57.2213 70.1185C57.2066 70.1972 57.2546 70.2799 57.2533 70.3852C56.7346 70.5745 57.0066 71.0705 56.58 70.9145C56.3653 71.2612 55.9186 71.2692 55.5853 71.3799C55.412 71.4372 55.284 71.7092 54.9933 71.7199C54.9067 71.6585 54.8947 71.4625 54.8653 71.2732C54.66 71.3079 54.5347 71.4892 54.4173 71.6332C54.0987 71.5719 53.7053 71.5252 53.3827 71.4052C53.3333 71.3879 53.3107 71.2572 53.2613 71.2145C53.224 71.1839 53.18 71.2812 53.1147 71.3065C53.0013 71.1879 52.9547 71.0172 52.9933 70.8465L52.4787 71.1399C51.9467 70.2932 51.872 70.5692 51.5747 70.5785C51.4587 70.5812 51.372 70.6785 51.3147 70.6145L51.092 70.3665L50.7827 70.3905C50.6987 70.3972 50.5547 70.3039 50.564 70.1692C50.6653 70.0279 50.596 69.9092 50.4853 70.0585C50.4387 70.1279 50.404 70.1625 50.376 70.1999C50.3653 70.2132 49.6987 69.8505 49.9667 69.4265C49.7533 69.4825 49.6493 69.3119 49.564 69.1545C49.4027 68.8585 50.1387 68.4612 49.7373 68.0012C49.9867 67.9772 50.1027 67.9519 50.2053 67.7519C50.3573 67.7372 50.344 67.7199 50.1813 67.5866C50.5947 67.6426 50.556 67.2146 50.756 67.0532C51.08 66.7946 51.348 66.5986 51.5133 66.2066C51.5853 66.0386 51.9933 65.8679 52.0013 65.6959C52.012 65.4252 52.9147 64.6279 53.0493 64.1986C53.1613 63.8399 53.4067 63.7106 53.6307 63.4212C54.564 62.2132 53.72 62.8492 54.492 62.0412C54.6613 61.8626 54.648 61.5679 54.9293 61.3626C55.1653 61.1906 55.3227 60.7799 55.52 60.5319C55.6827 60.3266 55.6693 59.9906 55.7653 59.7546C55.6893 59.5972 55.4813 59.4572 55.4133 59.1879C54.9387 59.8852 54.8867 59.2746 54.2987 60.2092C54.2427 60.2972 54.2867 60.4212 54.1827 60.4466C54.0933 60.4692 54.0067 60.4412 53.8787 60.4252C53.8413 60.5506 53.8813 60.6346 53.832 60.6799C53.7627 60.7426 53.5613 60.7812 53.5213 60.8386C53.6027 61.0332 52.8947 61.8052 52.8573 61.8332C52.828 61.8546 52.9827 62.0746 52.8853 62.0772C52.8227 62.0799 52.7853 61.9972 52.7067 61.9412C52.6107 62.0692 52.7093 62.3599 52.5787 62.4226L52.2187 62.5972C52.1693 62.6212 52.2587 62.7359 52.2307 62.7706C52.1787 62.8346 52.0347 62.7959 51.928 62.7106C51.904 62.8412 51.9813 62.9639 51.8853 63.1386C51.8027 63.0986 51.8267 62.9946 51.7387 62.9666C51.7653 63.1132 51.704 63.3292 51.624 63.4626C51.5707 63.5506 51.4333 63.4906 51.308 63.6199C51.3413 63.7292 51.3627 63.8026 51.3787 63.8732C51.4053 63.9772 51.2467 63.9599 51.1707 64.0292C50.7267 64.4332 50.3787 64.9732 49.9213 65.3412C49.8613 65.3892 49.9453 65.5626 49.916 65.5772L49.652 65.7119C49.4693 65.8066 48.5413 66.9306 48.3293 67.1306C48.3387 67.1226 47.7613 68.1079 47.756 68.1185C47.6227 68.4065 47.436 68.5985 47.2547 68.8332C46.8507 69.3559 46.5827 69.6065 45.9213 69.6852C45.796 69.6999 45.7053 69.7705 45.564 69.6532C45.4933 69.6852 45.4747 69.8972 45.3533 69.8665L45.112 69.8052C45.02 69.7825 45.008 69.9785 44.9267 69.9932C44.7827 70.0185 44.6253 70.0879 44.5133 70.2012C44.2733 70.0412 43.868 70.1719 43.6573 70.1105C43.188 69.9719 42.7174 69.7919 42.3627 69.5159L42.096 69.3079L41.8134 69.4052C41.7374 69.4305 40.9134 69.1705 41.056 67.7572C41.0694 67.6159 41.1494 67.3066 41.2147 67.1852L41.5454 66.5692C41.4814 66.6879 42.408 65.3879 42.5094 65.0359C42.5294 64.9679 42.7534 64.9666 42.7387 64.8639C42.7267 64.7826 42.7493 64.6986 42.6707 64.5679C42.9147 64.5292 42.968 64.3372 43.0573 64.1146C43.1013 64.0039 43.2293 64.0426 43.2707 64.0012C43.3507 63.9186 43.276 63.7492 43.3253 63.6719C43.3707 63.5999 43.492 63.5852 43.5453 63.5466C43.604 63.5026 43.3587 63.1772 44.152 62.6506C44.1827 62.5306 44.108 62.4292 44.1253 62.2919C44.4013 62.2239 44.7493 61.8519 44.6093 61.7399L44.488 61.6439C44.4533 61.6159 44.5587 61.5452 44.5973 61.5399C44.6333 61.5346 44.7293 61.5986 44.7813 61.5546C44.8547 61.4932 44.8173 61.3386 44.8227 61.2719C44.8293 61.1612 45.0893 61.1559 45.1 61.0652C45.132 60.7959 45.1747 60.5559 45.444 60.4612C45.7973 60.3359 45.7867 60.0052 45.9253 59.8172C46.4213 59.1492 46.2547 59.3732 46.7907 58.7132L47.736 57.5519C47.8787 57.3772 47.8373 57.0839 47.992 56.9319C48.08 56.8466 48.1867 56.8066 48.248 56.6999C48.3093 56.5919 48.2667 56.5226 48.12 56.3932C48.5747 56.4092 48.6027 56.1452 48.712 55.8546C48.748 55.7586 48.9747 55.7399 49.004 55.6159C49.024 55.5319 48.9773 55.4279 48.9267 55.3199C49.0813 55.3186 49.1907 55.3213 49.24 55.2306C49.2973 55.1266 49.2973 55.0173 49.2227 54.8946C49.2987 54.7986 49.4013 54.7639 49.5493 54.7013C49.38 54.5986 50.096 53.9546 50.136 53.9093C50.2867 53.7319 50.3187 53.4866 50.5747 53.3426C50.6853 53.2799 50.7547 53.1079 50.7573 53.0106C50.768 52.6466 50.2907 52.5693 50.2387 52.2026C50.0653 52.4826 49.8547 52.2213 49.66 52.2399C49.2613 52.2759 48.776 52.5879 48.576 52.9253C48.6533 52.7946 48.2973 53.7679 47.9347 53.7479C47.884 53.7546 47.928 53.9133 47.92 53.9613C47.9067 54.0346 47.7227 54.0546 47.7093 54.1266L47.668 54.3426C47.656 54.4053 47.4267 54.4146 47.4067 54.4679C47.26 54.8613 46.9827 55.2866 46.568 55.4759C46.536 55.4893 46.6107 55.6319 46.5827 55.6493C46.5387 55.6786 46.4173 55.6172 46.34 55.6332L46.3 56.0626L45.456 56.7239L45.0227 57.4586C44.9427 57.5932 44.856 57.7799 44.6227 57.7772C44.732 57.8799 44.86 57.8999 44.76 57.9612C44.616 57.9639 44.5187 57.9199 44.4507 57.9599C44.5853 57.8799 43.9627 58.5612 43.9933 58.5772C43.8933 58.4186 43.8547 58.4266 43.8613 58.5972C43.8693 58.7306 43.84 58.8479 43.776 58.8972C43.7213 58.9399 43.536 58.9159 43.4947 58.9866C43.3947 59.1546 43.5053 59.3452 43.504 59.5399C43.1893 59.4826 43.1667 59.7532 43.024 59.9146C42.912 60.0399 42.6214 59.9706 42.7147 60.2666L42.2694 60.3652C42.264 60.4746 42.3067 60.7026 42.176 60.7132C42.0374 60.7252 41.9454 60.7079 41.8214 60.7879C41.7347 60.8439 41.868 60.9759 41.828 61.0599C41.76 61.2026 41.5374 61.2492 41.5894 61.4639C41.0987 61.3332 41.5574 62.4932 41.0427 61.9172C41.0867 62.2692 40.8454 62.3586 40.7094 62.5346C40.4854 62.8226 40.3534 63.1399 39.9454 63.2559C39.8667 63.2786 39.764 63.3612 39.776 63.4319C39.792 63.5199 39.86 63.5652 39.9374 63.6252C39.3187 63.7546 39.7334 64.0732 39.2707 64.1346C39.28 64.2172 39.3814 64.3879 39.3147 64.4106C39.2267 64.4412 39.1134 64.3932 39.036 64.3759C38.98 64.5626 39.0334 64.7892 38.8507 64.8972C39.0374 64.1146 38.4627 65.2932 38.4894 65.3839L38.02 65.7852C37.9707 65.8279 38.0587 65.9612 37.9827 65.9866C37.6147 66.1119 37.92 66.0852 37.6707 66.1319C37.4654 66.1706 37.8854 66.2146 37.7947 66.2919C37.732 66.3452 37.612 66.3492 37.5427 66.3612C37.4147 66.3839 37.576 66.5599 37.5187 66.6146C37.2507 66.8746 36.8854 67.0052 36.5867 67.2159C36.4214 67.3332 36.4307 67.4945 36.3587 67.6292C36.288 67.7612 36.1227 67.8519 36.1454 68.0479C36.1787 68.3332 35.9427 68.3732 35.7787 68.4865C35.58 68.6239 35.476 68.7119 35.224 68.7039C35.0654 68.6985 35.0747 69.0705 34.9707 69.1359C34.7774 69.2572 34.4774 69.0879 34.3094 68.9972C34.2254 69.0919 34.1814 69.1132 34.1387 69.0732C34.084 69.0225 34.0494 68.8759 33.956 68.8705C33.8067 68.8612 33.8014 69.0772 33.68 69.1545C33.448 69.1465 33.332 68.8345 33.1307 68.8545L32.6334 68.9039C32.5334 68.9145 32.4067 69.0532 32.2894 68.8945C32.1387 69.0919 32.1587 69.0279 32.0734 68.8359C31.9454 68.9225 31.9307 69.0425 31.8147 69.0865C31.6934 69.1319 31.5 68.7199 31.2614 68.6959C31.1014 68.6785 31 68.8559 30.8454 68.8945C30.736 68.9225 30.5281 68.8279 30.3961 68.8079C30.2734 68.7892 30.2934 68.5692 30.2547 68.4452C30.0321 68.6159 29.8521 68.5959 29.7067 68.5359C29.0747 68.2772 29.1547 67.8159 29.0814 67.1986C29.3881 66.9412 29.4747 66.6132 29.3201 66.2559C29.8201 65.4519 29.8974 65.8826 29.9854 65.3919L30.3014 65.0906C30.552 64.8519 30.764 64.5372 30.9694 64.2546L31.504 63.5199L31.904 63.0612C32.0867 62.8519 32.2854 62.6012 32.4934 62.4692C32.752 62.3039 32.804 62.0852 32.9627 61.8986C33.108 61.7279 33.328 61.6852 33.4507 61.4146C33.516 61.2706 33.82 61.4612 33.872 60.7412C33.9947 60.6399 34.104 60.4986 34.22 60.3972L34.8294 59.8586C35.0307 59.6826 35.1334 59.4826 35.3414 59.3052C35.424 59.2346 35.3054 58.9466 35.5547 58.9266C35.76 58.9106 35.712 58.5666 35.8107 58.4839C36.0147 58.3119 36.284 58.1919 36.4014 57.8679C36.4307 57.7866 36.6467 57.7786 36.668 57.6919C36.6907 57.5892 36.6387 57.4919 36.568 57.3959L36.956 57.2399C36.8707 56.9666 37.1307 56.8599 37.324 56.7972C37.34 56.7319 37.296 56.6452 37.3014 56.6012C37.3107 56.5426 37.4214 56.4586 37.4814 56.4399C37.792 56.3412 37.7787 56.1319 37.8507 55.9439C37.9867 55.5959 38.316 55.4119 38.5067 55.1466C38.6787 54.9066 38.812 54.6626 39.0854 54.5546C38.9707 54.4613 38.8867 54.4519 38.8467 54.3479L39.6427 53.8946C39.4854 53.5173 39.8707 53.3626 40.0654 53.2039C40.1894 53.1013 40.2094 52.8426 40.424 52.7746C40.5987 52.7199 40.572 52.5573 40.5667 52.4106C40.56 52.2026 40.8974 52.0319 41.1187 52.1079C41.1027 52.0039 41.0347 51.9879 40.992 51.9413C40.9454 51.8919 40.9974 51.8479 41.0414 51.8013C41.08 51.7599 41.2294 51.8666 41.272 51.8253C41.3387 51.7613 41.2734 51.5786 41.3014 51.4906C41.3734 51.2653 41.836 51.4239 41.972 50.7573C42.3027 50.5559 42.688 50.1853 42.8254 49.7973L43.188 49.3493C43.4293 49.0519 43.8933 48.5133 43.9053 48.2333C43.9093 48.1573 44.14 48.1506 44.1667 48.0933C44.2107 47.9946 44.164 47.8893 44.084 47.7226C44.4253 47.6706 44.5293 47.3719 44.6453 47.1346C44.8907 46.6359 45.2053 46.7159 45.4027 46.0719C45.4347 46.0146 46.112 45.6599 46.1053 45.6773C46.1347 45.5839 46.0627 45.4519 46.1 45.3706C46.208 45.1373 46.548 45.1346 46.6947 44.9479L47.564 43.8519L47.8053 43.7093C47.8853 43.6626 47.8053 43.5279 47.8307 43.3999C47.8587 43.2679 48.124 43.3293 48.1907 43.1999C48.2973 42.996 48.3613 42.7213 48.612 42.664C48.728 42.6373 48.856 42.6173 48.8893 42.492C48.9373 42.308 48.1 41.904 47.9187 41.8533C47.8733 41.8306 48.0653 41.484 47.9253 41.612L47.7973 41.7306C47.6907 41.828 47.4853 41.5266 47.3653 41.488C47.0693 41.3893 46.7747 41.18 46.6067 40.948C46.5827 40.916 46.4213 40.992 46.3973 40.9453C46.3773 40.908 46.4253 40.8226 46.396 40.7946C46.1773 40.7906 45.8787 40.6453 45.8253 40.404C45.8253 40.3066 45.768 40.3413 45.7173 40.4453C45.0613 39.8346 45.8213 40.028 44.8373 39.7933C44.3787 40.1693 43.996 39.2546 43.5707 39.5253C43.2893 39.704 42.9773 39.8893 42.7707 40.1346C42.764 40.224 42.8107 40.3213 42.716 40.3573C42.644 40.3853 42.6214 40.388 42.5387 40.2413C42.4667 40.3533 42.4574 40.484 42.464 40.6253C42.3614 40.6173 42.2867 40.608 42.2387 40.6333C42.1814 40.664 42.184 40.8746 42.1307 40.884C41.8334 40.9306 41.1107 41.3346 41.004 41.572C40.8107 42.0013 39.9507 42.2986 39.8787 42.312C39.5867 42.3653 39.54 42.5066 39.4107 42.7266C39.3387 42.8506 39.036 42.8719 39.0814 43.1373C38.924 43.1106 38.9334 43.04 38.82 42.9546C38.896 43.3759 38.5507 43.4426 38.3254 43.5506L37.984 43.9159C37.484 44.4546 37.0494 44.3959 36.7854 44.9866C36.692 45.1959 36.5027 45.4213 36.2654 45.5679C36.3614 45.5079 35.42 46.4119 35.2654 46.2453C35.1707 46.4066 35.164 46.5786 35.056 46.6773C34.9827 46.6373 34.8854 46.6239 34.8267 46.6293C34.7134 46.6399 34.8014 46.7879 34.7467 46.8626C34.6947 46.9346 34.4787 46.9346 34.4574 46.9959L34.3654 47.2519C34.3147 47.3933 33.9267 47.3106 33.9667 47.5679C33.9774 47.6333 34.0134 47.7239 33.98 47.7506C33.94 47.7826 33.872 47.8253 33.8387 47.8066C33.7854 47.7773 33.7854 47.6919 33.6747 47.6493C33.7387 48.0279 33.5227 48.0253 33.392 48.1559C33.14 48.4093 32.824 48.6279 32.5054 48.8066C32.492 48.8133 32.0894 49.6173 32.2267 49.4826C32.0907 49.6159 31.92 49.4773 31.8 49.7213C31.7774 49.7666 31.884 49.7973 31.8987 49.8853C31.7454 49.9133 31.6254 49.7826 31.5147 49.8693C31.468 49.9053 31.4654 50.0066 31.444 50.0639C31.4254 50.1159 31.3294 50.0853 31.2667 50.1146C31.1307 50.5373 30.8134 50.9399 30.3747 51.0906C30.3347 51.1039 30.3334 51.2586 30.2894 51.2759C30.2494 51.2933 30.1747 51.1879 30.0961 51.2013C29.8614 51.2413 29.8694 51.5626 29.6694 51.6359C29.5654 51.6746 29.4307 51.6573 29.3601 51.6866C29.2507 51.7346 29.2761 51.9093 29.2094 52.0079C29.1374 52.1159 28.9601 52.0733 28.8867 52.1359C28.8001 52.2106 28.8414 52.3813 28.7534 52.4719C28.6921 52.5346 28.5707 52.5253 28.4987 52.5266C28.4081 52.5293 28.4587 52.6746 28.4187 52.7426C28.0681 52.8053 27.8787 53.1026 27.6494 53.3639C27.5534 53.4733 27.2987 53.5746 27.1494 53.6959C26.9894 53.8266 26.6761 53.6919 26.5507 53.8959C26.4481 53.7693 26.3254 53.6693 26.2094 53.6559C26.0254 53.6333 25.9281 53.7333 25.8427 53.9613C25.7067 53.8866 25.6187 53.7826 25.5334 53.6706C25.4654 53.9653 24.8961 53.5773 24.9401 53.6186C24.8681 53.5479 24.8667 53.4213 24.9041 53.3013C24.8721 53.2079 24.8107 53.2173 24.7961 53.3039C24.7587 53.5133 24.6601 53.4559 24.5667 53.4359C24.4641 53.4133 24.3747 53.2373 24.3001 53.2279C23.9734 53.1879 23.6601 53.0839 23.4587 52.8093C22.5427 52.5066 22.7841 52.4106 22.7147 52.3173C22.6774 52.2679 22.5214 52.3679 22.4694 52.3453C22.2907 52.2706 22.1374 52.1239 21.8987 52.1026C21.9014 51.9653 22.0161 51.9146 21.9681 51.7666C21.8841 51.8119 21.8494 51.8599 21.8107 51.9093C21.7507 51.9866 20.7507 51.5679 20.8307 51.0146C20.7761 51.0479 20.7267 51.0653 20.6627 51.0866C20.5667 51.1186 20.4414 50.6813 20.3921 50.5879C20.1107 50.0346 20.3467 49.1053 20.9827 49.0559C21.2867 49.0319 21.4561 48.7639 21.5307 48.4079L22.1121 48.2253C21.9121 47.9373 22.7974 47.5226 22.7241 47.5946L23.0321 47.2893C23.0761 47.2466 23.1667 47.2799 23.2027 47.2679C23.2601 47.2466 23.2267 47.1266 23.2747 47.0946L24.2894 46.3893C24.6161 46.1613 24.9801 45.8506 25.3361 45.7146C25.6707 45.5853 25.8081 45.3906 26.0681 45.1719C27.0094 44.3773 26.5441 44.9119 27.3601 44.1893C27.6827 43.9039 28.2147 43.7973 28.3547 43.3066C28.3814 43.2133 28.5907 43.2426 28.7134 43.2013C28.9321 42.6693 29.4267 42.5133 29.8987 42.18C30.2987 41.8973 30.6347 41.5253 31.128 41.5866C31.06 41.4533 31.02 41.3973 31.04 41.3186C31.064 41.224 31.564 41.216 31.5734 41.1666L31.6107 40.9453C31.876 40.9386 32.0227 40.8813 32.128 40.6333C32.288 40.7226 32.18 40.8226 32.2987 40.936C32.3187 40.5066 32.656 40.4 32.9947 40.2106C33.3947 39.988 33.8254 39.6413 34.1134 39.7306C33.9214 39.624 33.9054 39.5186 34.0934 39.5533C34.1987 39.604 34.2547 39.632 34.3414 39.616C34.284 39.4706 34.3467 39.3626 34.404 39.2853C34.488 39.172 34.6867 39.2506 34.744 39.1586C34.952 38.8226 35.3667 38.7746 35.6027 38.4826C35.6387 38.4373 35.552 38.288 35.5814 38.2373C35.6827 38.0586 35.9654 38.2146 36.0467 38.0333C36.1094 37.8906 35.9907 37.8266 35.8187 37.7026C36.1187 37.704 36.228 37.516 36.3947 37.296C36.5134 37.1386 36.6947 37.0506 36.648 36.8146C36.7774 36.8546 36.8174 36.8493 36.8587 36.8546C36.9334 36.8653 37.0707 36.7573 36.9934 36.692C36.8667 36.588 36.6894 36.7133 36.536 36.6173C36.4507 36.4906 36.3107 36.1253 36.1214 36.1866C35.912 36.2546 35.7027 36.4706 35.4974 36.4666C35.4654 36.5306 35.4307 36.6933 35.3734 36.6986C35.312 36.704 35.208 36.6866 35.1 36.6693C35.1174 36.9093 34.812 36.908 34.7174 37.012C34.4067 37.3493 34.0747 37.62 33.5974 37.6733C33.4547 37.6986 33.5134 38.0533 33.4507 38.1346C33.24 38.168 33.0454 38.2413 32.8574 38.356C32.7027 38.452 32.4787 38.3546 32.352 38.504C32.352 38.5826 32.4134 38.676 32.3894 38.728C32.364 38.78 32.2014 38.7053 32.136 38.7306C32.016 38.776 32 38.928 31.9574 38.992C31.88 39.108 31.664 39.0226 31.5774 39.0813C30.8867 39.548 31.1454 39.0186 30.852 39.8013C30.792 39.8066 30.7854 39.6973 30.7347 39.6933C30.568 39.6813 30.4521 40.0213 30.4334 40.0306C30.3321 40.0826 30.2107 39.9546 30.148 39.9386C30.0027 39.9026 29.9961 40.1893 30.0307 40.2746C29.8121 40.244 29.6654 40.4293 29.4787 40.5253C28.9574 40.7946 28.8801 40.8426 28.4881 41.2173C28.3187 41.3786 27.9827 41.3333 27.8374 41.5973C27.7574 41.528 27.6347 41.3213 27.5281 41.4066C27.3441 41.5533 27.3081 41.8493 27.0841 41.932C26.8627 42.012 26.6854 42.084 26.6561 42.384C26.5641 42.2906 26.3174 42.108 26.2387 42.248C26.0134 42.6506 25.5254 42.6746 25.2307 42.9026C25.0881 43.0133 25.0614 43.2093 24.8041 43.2453C24.6374 43.2679 24.4867 43.5493 24.2521 43.5399C23.8734 43.5253 23.7867 43.9759 23.6641 44.1146C23.3614 43.9839 23.1561 44.2346 22.9427 44.4319C22.7254 44.6346 22.3347 44.6373 22.0827 44.7946C21.6747 45.0519 21.3694 45.4493 20.9401 45.6799C20.7494 45.7813 20.5761 45.7746 20.4107 45.9759C20.2481 46.1759 19.7494 46.1733 19.6201 46.4159C19.4747 46.6906 19.2867 46.6973 19.0627 46.8506C18.6974 47.1026 18.3241 47.4319 17.8414 47.5013C17.7921 47.5079 17.7294 47.7199 17.6747 47.7519C17.6214 47.7839 17.6987 47.8746 17.7427 47.9559C17.5561 48.0146 17.3894 48.0733 17.2534 48.2293L17.0521 48.1413C16.9734 48.2893 16.7961 48.5279 16.5907 48.4439C16.5281 48.4186 16.5054 48.2559 16.4441 48.2053C16.2347 48.0293 16.3908 48.6906 15.3188 47.6159C15.1254 47.5933 14.4548 47.2253 14.4161 47.1586C14.3441 47.0373 14.4094 46.8839 14.4668 46.7359C14.2388 46.5933 13.9521 46.8399 13.7508 46.7386L13.1761 46.4506C12.9201 46.3213 12.8374 46.0293 12.6801 45.9506C12.5174 45.8679 12.2281 45.9493 12.0534 45.6933C11.6121 45.0426 11.6068 44.5039 12.0001 43.7479C12.0508 43.6506 12.2628 43.6426 12.2868 43.4519C12.3094 43.2826 12.5374 43.3533 12.6201 43.3346C12.5654 43.0346 13.3734 42.8959 13.2308 42.8466C13.2854 42.8666 13.2801 42.9519 13.3294 42.9786C13.4028 42.8386 13.3534 42.7466 13.4094 42.7133C13.5121 42.6506 13.6041 42.6226 13.7494 42.7146C13.7681 42.26 14.2254 42.3026 14.4721 42.1213C14.7614 41.9093 15.1001 41.7893 15.3948 41.5706L15.8068 41.2613C16.0974 41.0453 16.9201 40.352 17.3027 40.4493C17.3334 40.3146 17.3454 40.1386 17.4467 40.0893C17.5934 40.0186 17.6947 40.0253 17.8814 40.0746C17.8587 39.9546 17.8014 39.9133 17.7987 39.8493C17.7921 39.7493 17.9001 39.7853 17.9827 39.7346L18.7214 39.2853C18.8467 39.2093 19.0507 39.292 19.0654 39.032C19.5254 39.052 19.3614 38.9893 19.8361 38.708C20.0041 38.364 20.2081 38.2853 20.5507 38.1706C20.2467 38.272 21.7094 37.596 21.5841 37.664C21.7294 37.584 21.7721 37.4146 22.0441 37.468C22.0881 37.4773 22.1907 37.4466 22.2334 37.436C22.3361 37.4093 22.2641 37.2933 22.2521 37.1933C22.5201 37.1773 22.7347 37.0706 22.9761 37.096C22.9121 36.9226 22.9214 36.8786 22.9667 36.8546C23.0601 36.8093 23.2054 36.9 23.2627 36.8626C23.4214 36.7573 23.5347 36.544 23.7734 36.6133C23.8214 36.528 23.8107 36.4813 23.8401 36.452C23.8907 36.4026 24.0907 36.4893 24.1227 36.448C24.6507 35.764 24.4467 36.4266 25.7187 35.424C25.8947 35.2853 26.3654 35.336 26.4587 35.084C26.6041 34.6866 26.9481 34.7733 27.1987 34.6066C27.4281 34.4533 27.5414 34.0813 27.9094 34.0026C28.0347 33.976 28.1494 33.7693 28.3481 33.7386C28.6987 33.684 29.1534 33.0546 29.5987 33.1986C29.6347 33.0586 29.5894 32.9293 29.7041 32.864C29.8174 32.7986 29.9347 32.7533 30.0614 32.7426C30.0694 32.7013 30.0601 32.6573 30.0507 32.636C30.0201 32.5746 30.1121 32.504 30.1507 32.548C30.1961 32.5973 30.1947 32.6573 30.2401 32.72C30.3374 32.328 30.6667 32.256 30.9067 32.0666C30.984 31.896 30.9614 31.4613 30.8387 31.2866C30.74 31.1453 30.4214 31.0933 30.2894 30.9826C29.5507 31.34 30.0747 30.7773 29.1214 30.884C28.8921 30.9106 28.0227 31.0346 28.0947 31.424C27.9627 31.3533 27.6641 31.2626 27.5467 31.344C27.4787 31.5786 27.1294 31.584 27.0374 31.712C26.6907 32.192 26.2067 32.276 25.7654 32.4373C25.4694 32.5453 25.2107 32.852 24.8987 33.0093L24.2867 33.3173C24.0907 33.416 23.9467 33.6786 23.7067 33.7333C23.6921 33.98 23.5481 33.9626 23.5814 33.6893L23.3987 33.9826C23.3507 34.06 23.1601 33.9173 23.0521 33.9213C22.7481 33.9293 22.7361 34.612 22.5374 34.1733C22.4267 34.2733 22.4627 34.4226 22.3827 34.6093C22.2987 34.532 22.2734 34.4293 22.1654 34.3933C21.8534 34.2893 21.4481 34.8493 21.2454 34.9133C21.1214 34.952 20.9867 34.9173 20.9667 35.136C20.8334 35.3306 20.9241 35.0293 20.7387 34.996C20.6467 34.98 20.6001 35.0386 20.5134 35.0973L20.3427 35.2133C20.2827 35.2546 20.3414 35.3373 20.3561 35.448C19.9574 35.228 19.4481 35.648 19.1761 35.808C19.0201 35.9 18.7641 35.86 18.7147 36.1013C18.6521 36.0853 18.6214 35.992 18.6001 36.0133C18.5734 36.0386 18.5481 36.1226 18.5294 36.232C18.2387 35.9786 18.0441 36.2106 17.8094 36.32C17.4521 36.4866 17.0041 36.6373 16.7628 36.9586C15.5268 36.8746 16.1961 37.5866 15.0628 37.5C14.9348 37.5506 14.8601 37.7906 14.7294 37.84L14.2028 38.036C14.3788 37.9693 13.1121 38.172 12.8241 38.728C12.7428 38.6186 11.7094 39.132 11.9268 39.056C11.5494 39.188 11.2294 39.308 10.9001 39.5253C10.5401 39.612 10.1254 39.6013 9.92944 39.904C9.8601 40.012 9.49077 39.9093 9.43477 40.0506C9.31477 40.3506 9.1121 40.2346 8.92277 40.3173L7.69744 40.8493C7.53077 40.9226 7.44144 41.0946 7.21877 41.1613C7.02944 41.2186 6.79211 41.2053 6.63211 41.2653C6.44411 41.336 6.29478 41.5626 6.03344 41.5853C5.95211 41.5933 5.89478 41.8026 5.81344 41.8293C5.47878 41.9413 5.40278 41.072 4.62678 41.424L4.03078 41.0853C3.79745 40.9533 3.65079 40.7266 3.37079 40.7946C3.67479 40.6253 2.57345 40.372 2.30012 39.7413C2.24012 39.6026 2.10412 39.4146 1.96679 39.428C1.89746 39.512 1.87879 39.656 1.72412 39.6413C1.57879 39.628 1.28812 39.228 1.33612 39.0133C1.19079 39.0666 1.20146 39.1546 1.14013 39.1866C1.07746 39.2186 0.594793 38.972 0.632126 38.8346C0.649459 38.772 0.736122 38.7386 0.702789 38.6613C0.680123 38.6093 0.640127 38.6026 0.612127 38.6573L0.502793 38.8666C0.36546 38.6626 0.385458 38.3853 0.237458 38.1386C0.198792 38.0733 -0.0198718 38.012 0.00146144 37.9133C0.0187947 37.8306 0.0534591 37.6506 0.172125 37.5933L1.83879 36.7853C2.10945 36.6533 2.36679 36.5466 2.57879 36.356C2.89879 36.068 3.30678 35.984 3.68945 35.8L5.54945 34.9066C5.73078 34.8186 5.73345 34.7386 5.94545 34.6693C6.30811 34.5506 6.83744 34.2973 7.24944 34.3093C7.45744 33.9546 8.58277 33.484 8.99077 33.4213C8.97477 33.0813 9.89077 33.124 10.3814 32.8066C10.5534 32.976 10.6988 32.8693 10.4774 32.7093C10.5054 32.648 11.9388 32.2533 11.9521 32.2453C12.1561 32.1053 12.3801 32.0213 12.6108 31.924C12.4921 31.9733 13.1388 31.4466 13.5654 31.4586C13.7054 31.4626 13.8508 31.248 14.0121 31.4546C14.0254 31.348 13.9841 31.3266 13.9761 31.296C13.9614 31.2266 14.0094 31.1853 14.0934 31.148L14.6748 30.8933C14.7361 30.8666 14.8388 30.9866 14.8841 30.9466L15.0854 30.7666C15.4014 30.4853 15.8801 30.3693 16.3068 30.2026L17.0388 29.9173C17.6427 29.6827 18.2947 29.424 18.7894 29.0787C18.8334 29.048 18.9641 29.1467 19.0201 29.1387C19.0881 29.128 19.0174 28.9933 19.0601 28.9453C19.1601 28.8347 19.3267 28.9 19.4854 28.9333C19.5187 28.6533 19.7481 28.672 19.8934 28.596L21.2507 27.884C21.2907 27.8627 21.3161 27.8133 21.3387 27.8133C21.3694 27.8133 21.4534 27.928 21.4801 27.9053C21.8241 27.5853 22.3441 27.4493 22.8201 27.3307C22.9667 27.2347 22.9427 27.1213 23.0281 27.0987C23.1507 27.064 23.4361 27.0507 23.4907 27.1733C23.2854 26.712 24.2681 26.6947 24.4654 26.644C25.4467 26.3933 25.0001 26.264 26.2921 25.8093C26.4147 25.7653 26.4694 25.6027 26.6841 25.5947C27.6387 25.5547 28.3054 24.6253 28.8321 24.788C28.9321 24.74 28.9054 24.712 28.7881 24.6853C28.6747 24.62 28.8027 24.588 28.9027 24.596C29.5027 24.5053 29.0627 24.348 29.7174 24.3853C29.7694 24.1347 30.02 24.1587 30.1587 24.0573C30.3827 23.8947 31.0067 23.4773 31.2107 23.5893C31.6467 23.2773 32.0654 22.9813 32.5974 22.8173C32.7227 22.7787 32.888 22.5947 33.0987 22.7267C33.0974 22.3787 33.5547 22.3067 33.808 22.2227C34.6894 21.9267 34.6254 21.544 34.8867 21.728C35.0694 21.5587 35.2934 21.4747 35.5307 21.4373C35.4107 21.456 36.316 21.0253 36.2027 21.24C36.136 21.2693 37.2627 20.488 37.08 20.6587C37.276 20.476 37.468 20.5187 37.6534 20.4227C38.292 20.092 38.632 20.2107 39.8747 19.4893C40.2827 19.252 40.6574 18.928 41.148 18.9013C41.356 18.8907 41.4534 18.8093 41.4667 18.6187C41.8934 18.3587 42.7534 18.3707 42.788 17.936C42.8694 18.0187 42.9187 18.084 42.9493 18.0627L43.1493 17.92C43.4067 17.7373 43.836 18.1187 44.0787 18.0373C44.4027 17.928 44.48 18.0027 44.788 18.1507C44.9867 18.2467 45.5867 18.016 45.748 18.4893C45.7813 18.588 45.8147 18.4667 45.8693 18.4213C46.2213 18.3733 46.5427 18.564 46.8227 18.736L47.28 19.02C47.2187 18.9813 48.5693 19.264 48.7387 19.4893C48.7667 19.5267 48.832 19.4907 48.9093 19.4507C49.008 19.5907 49.2187 19.5653 49.34 19.6373C49.5253 19.7467 49.6867 19.9147 49.9173 19.9507C49.968 19.9587 50.0107 20.0653 50.0307 20.0987C50.0747 20.18 50.2107 20.044 50.2853 20.0707C50.8373 20.2653 51.3373 20.54 51.8813 20.7533L53.4587 21.368C53.896 21.5373 55.42 22.2173 55.6973 22.264C56.0733 22.3293 56.3506 22.5507 56.6906 22.7093C57.0026 22.8573 57.7666 22.044 57.852 22.02C58.1173 21.948 58.232 21.728 58.4453 21.608C59.1906 21.184 58.504 21.3213 59.404 20.5907C59.6053 20.4507 59.9293 20.652 60.156 20.548C60.32 20.4733 60.4893 20.4227 60.6746 20.5213C61.4786 20.9493 62.3413 20.9853 63.2386 21.0227L64.2733 21.0667C64.7226 21.0853 65.1266 21.036 65.58 21.0707C67.072 21.18 65.796 21.0533 66.8253 20.9933L67.252 20.9693C67.616 20.948 67.9346 21.0613 68.2919 20.9173C68.5679 20.808 68.9239 20.7707 69.2053 20.72C70.0479 20.5653 70.7413 21.5093 71.2386 21.844L72.0586 22.3933C72.2186 22.5013 72.5413 22.8107 72.7453 22.7133C73.0959 22.5467 73.3613 22.3293 73.7439 22.2653C74.0039 22.2213 75.6026 21.512 75.9986 21.3587L77.5573 20.7507L79.0973 20.08C79.1693 20.048 79.3013 20.1293 79.3706 20.124C79.4266 20.1187 79.4533 19.9587 79.5146 19.9467C79.8333 19.8867 80.4133 19.3573 80.6359 19.5227C80.6599 19.5413 80.7106 19.508 80.7413 19.456C80.8719 19.2387 81.1426 19.34 81.3319 19.2413C81.5853 19.1093 81.8679 19.0187 82.1346 19.0427C82.2399 18.7853 83.9532 18.2347 83.6119 18.412C83.9012 18.2613 84.1626 18.1493 84.6319 18.1347C84.8892 18.1267 85.0572 17.8747 85.4052 18.0307C86.6959 17.7533 86.2026 18.0093 86.5039 18.0573C86.5492 18.064 86.5906 17.9973 86.6039 17.9787C86.7652 17.7613 86.4692 18.1493 87.0959 18.3107C87.2892 18.3613 87.9479 18.5693 87.9626 18.6373L88.0092 18.8627C88.4119 18.8867 88.8586 18.9973 89.1999 19.256C89.8519 19.752 91.3466 20.2973 92.0932 20.524C92.6506 20.6933 92.9452 21.216 93.5132 21.244C93.6639 21.252 93.7972 21.4067 93.9119 21.4387C94.1306 21.4987 94.3452 21.5067 94.5292 21.724C94.5999 21.724 94.6585 21.684 94.6985 21.6733C94.7825 21.6507 94.7959 21.7933 94.8519 21.824C95.8105 22.372 95.6732 22.156 96.1919 22.44C96.2999 22.4987 96.3265 22.528 96.2852 22.7387C96.5785 22.5627 96.6919 22.7827 96.8839 22.8427C97.3825 22.9987 97.8252 23.2827 98.2185 23.596C98.3732 23.6093 98.5572 23.588 98.7519 23.716L99.2799 24.0627C99.4225 24.156 99.6385 24.0667 99.7052 24.3507C99.7265 24.448 99.9479 24.3533 100.015 24.3787C100.192 24.4467 100.317 24.608 100.557 24.5893C100.753 24.5933 100.713 24.6387 100.539 24.7627C101.387 24.7227 101.62 25.5227 102.989 25.6493C103.061 25.656 103.088 25.832 103.139 25.84C104.036 25.976 103.919 26.3653 104.971 26.6467C105.033 26.6627 106.211 26.7373 105.936 27.1413C106.069 27.1027 106.325 26.9853 106.441 27.132C106.781 27.5613 107.303 27.3187 107.947 27.8987C107.971 27.92 108.052 27.8453 108.065 27.8307C108.1 27.7893 108.133 27.844 108.195 27.876L109.54 28.588C109.692 28.668 109.916 28.652 109.951 28.9267C110.093 28.9147 110.224 28.8493 110.357 28.9173C110.431 28.9547 110.369 29.068 110.391 29.1093C110.432 29.1853 110.599 29.048 110.637 29.0733C111.161 29.4227 111.757 29.6466 112.341 29.8853L113.083 30.1866C113.513 30.3613 113.847 30.6866 114.356 30.764C114.411 30.7733 114.497 30.9013 114.529 30.9413C114.573 30.996 114.68 30.8666 114.737 30.8906C114.996 31 115.293 31.0786 115.477 31.2706C115.434 31.3506 115.4 31.4493 115.45 31.4306C115.896 31.272 115.788 31.596 116.041 31.488C116.094 31.4653 117.349 32.076 117.49 32.1853C117.576 32.252 118.676 32.5986 119.094 32.7773C119.325 32.876 119.614 33.0946 119.85 33.092C120.198 33.088 120.288 33.2866 120.502 33.3906C120.809 33.5386 122.185 33.9933 122.136 34.3293C122.609 34.28 123.085 34.5066 123.461 34.6733C123.65 34.7573 123.76 34.6746 123.893 34.9213C123.982 35.0853 124.293 35.128 124.462 35.1946C125.01 35.4146 125.502 35.6613 126.009 35.9266C126.333 36.096 126.657 36.1653 126.937 36.3986C127.138 36.5666 127.441 36.6613 127.682 36.84C128.17 37.2026 130.024 37.5426 129.242 38.1293C129.025 38.292 129.088 38.6666 128.946 38.868C128.865 38.764 128.862 38.66 128.773 38.612C128.693 38.796 128.774 38.724 128.824 38.9013C128.662 39.0213 128.496 39.18 128.289 39.1973C128.121 38.616 128.016 39.8506 127.597 39.6253C127.518 39.5826 127.493 39.504 127.45 39.4306C127.369 39.4786 127.401 39.4933 127.274 39.5373C127.15 39.4533 127.076 39.476 127.157 39.62C127.424 39.684 126.6 40.316 126.642 40.2906C126.408 40.432 126.105 40.5146 126.018 40.82C125.844 40.7573 125.809 40.608 125.653 40.6373C125.64 40.86 125.441 41.184 125.244 41.1266C125.132 41.0946 125.104 41.0053 124.978 41.124C124.944 41.1333 124.92 41.152 124.95 41.1893C125.049 41.32 124.933 41.316 124.844 41.232C124.786 41.1733 124.737 41.12 124.68 41.12C124.614 41.1186 124.55 41.22 124.466 41.2266C124.313 41.236 124.221 41.12 124.064 41.0066C124.06 41.3013 123.856 41.496 123.633 41.7426C123.468 41.6946 122.894 40.824 122.77 41.02C122.656 41.2026 122.544 41.056 122.428 41.0613C122.134 41.0733 121.972 40.952 121.732 40.844L120.517 40.3C120.392 40.244 120.156 40.3853 120.089 40.1533C120.017 39.908 119.669 40.0226 119.538 39.9146C118.998 39.4653 118.734 39.62 118.538 39.5186C118.213 39.3506 117.949 39.168 117.548 39.0773C117.702 39.1133 116.744 38.6546 116.618 38.712C116.448 38.4626 116.134 38.2973 115.826 38.1933C115.665 38.1386 115.58 37.9293 115.358 38.0533C115.206 38.1386 115.082 37.916 114.962 37.8986C114.28 37.7986 114.579 37.3786 114.248 37.5106C114.187 37.5346 113.64 37.4386 113.628 37.3173C113.604 37.0906 113.457 37.1426 113.345 37.0706C112.803 36.7186 112.871 37.1853 112.524 36.804C112.212 36.4613 111.74 36.4746 111.543 36.2453C111.295 35.956 110.904 36.2746 110.884 36.1693C110.873 36.0826 110.867 36.0306 110.835 36.0066C110.821 36.0346 110.731 36.1173 110.715 36.0733C110.633 35.836 110.431 35.912 110.3 35.8293C109.984 35.628 109.548 35.276 109.109 35.42C109.144 35.2706 109.044 35.1253 108.824 35.0133C108.749 34.976 108.652 34.9746 108.593 35.072C108.567 35.2253 108.477 35.216 108.453 35.0613L108.383 34.936C107.991 35.04 107.671 34.192 107.212 34.4253C107.153 34.456 107.129 34.536 107.109 34.5613C106.992 34.72 107.031 34.3186 106.919 34.172C106.661 34.6146 106.72 33.896 106.352 33.924C106.245 33.9306 106.133 34.0173 106.053 33.9906C105.939 33.9533 105.933 33.8013 105.903 33.656C105.792 33.6893 105.835 33.7493 105.859 33.8533C105.877 33.9333 105.779 33.924 105.748 33.8746C105.731 33.8466 105.731 33.7186 105.693 33.7106C105.443 33.6573 105.341 33.4066 105.157 33.3146L104.54 33.0093C104.227 32.8533 103.963 32.5426 103.675 32.4346C103.28 32.288 102.727 32.1906 102.404 31.7173C102.303 31.5706 101.935 31.5786 101.888 31.316C101.721 31.2986 101.481 31.34 101.343 31.4266C101.412 31.0493 100.568 30.9026 100.312 30.884C99.3439 30.8106 99.9039 31.304 99.1599 30.996C98.9985 31.0653 98.7279 31.1733 98.5785 31.268C98.5159 31.4973 98.4345 31.868 98.5345 32.068C98.7212 32.2466 99.0332 32.3106 99.1265 32.5893C99.1759 32.7226 99.2372 32.7413 99.2665 32.572C99.3079 32.5106 99.3839 32.5533 99.3972 32.5906C99.4079 32.616 99.3799 32.656 99.3719 32.732C99.5332 32.764 99.7332 32.8 99.8172 32.9773C99.8412 33.028 99.8092 33.104 99.8239 33.148C99.8492 33.22 99.9479 33.164 100.02 33.172C100.403 33.2173 100.636 33.5746 100.984 33.7013C101.229 33.7893 102.132 34.2653 102.204 34.6253C103.112 34.716 102.785 35.2973 103.465 35.328C103.672 35.3373 104.407 35.912 104.433 35.9226L105.116 36.1866C105.2 36.2186 105.215 36.3546 105.261 36.412C105.327 36.492 105.448 36.416 105.571 36.4346C105.64 36.4453 105.621 36.5386 105.647 36.5666C105.684 36.6106 105.796 36.6106 105.864 36.624C106.092 36.6653 106.053 36.9373 106.291 36.856C106.343 36.8386 106.42 36.852 106.468 36.8586C106.593 36.8746 106.401 37.1453 106.484 37.12C106.763 37.032 106.829 37.1946 107.184 37.184C107.185 37.292 107.135 37.3586 107.172 37.432C107.372 37.492 107.593 37.424 107.744 37.5306C107.408 37.4906 108.909 38.1586 108.868 38.14C109.2 38.2853 109.453 38.384 109.633 38.7373C109.579 38.6306 109.895 39.0573 110.321 39.0213C110.395 39.016 110.419 39.248 110.484 39.2453C110.905 39.232 111.012 39.576 111.64 39.8186C111.688 39.8373 111.551 39.996 111.565 40.032C111.623 40.1706 111.668 39.8933 112.039 40.1333C112.107 40.1773 112.104 40.3213 112.132 40.46C112.456 40.3186 113.336 41.0386 113.605 41.2413L114.065 41.5853C114.365 41.8106 114.692 41.8866 114.962 42.1386C115.104 42.2706 115.474 42.188 115.59 42.4693C115.802 42.9813 115.948 42.3373 116.09 42.9013C116.141 42.9053 116.153 42.8626 116.177 42.8533C116.216 42.8386 116.258 42.8973 116.302 42.9186L116.732 43.1173C116.789 43.1439 116.781 43.2439 116.808 43.3026C116.873 43.4533 116.91 43.0826 117.253 43.6239C117.304 43.7039 117.457 43.6839 117.486 43.7906C117.713 44.6346 117.905 44.6613 117.517 45.4946C117.394 45.7573 117.126 45.9493 116.849 45.9239C116.473 45.8893 116.977 46.0533 116.297 46.4186L115.687 46.7466C115.503 46.8453 115.208 46.5786 114.983 46.7306C115.005 46.8399 115.084 46.9826 115.049 47.1039C114.977 47.3666 114.101 47.4999 113.833 47.8813C113.66 48.1293 113.294 48.1853 113.073 48.2919C112.683 48.4799 112.42 48.5666 111.987 48.4293C111.703 48.3399 111.527 48.2653 111.404 48.0093C110.645 47.7839 111.215 47.2799 110.583 47.0279C110.505 46.9973 110.505 46.8626 110.452 46.8186C110.107 46.8586 109.996 46.6279 109.836 46.4213C109.669 46.2079 109.299 46.1759 109.095 46.0279C108.888 45.8773 108.771 45.7373 108.492 45.6706C108.408 45.6506 107.509 44.9239 107.417 44.8413C107.187 44.6373 106.801 44.6519 106.524 44.4613C106.321 44.3226 106.189 44.0079 105.868 44.0786C105.836 44.0866 105.809 44.1773 105.784 44.1639C105.732 44.1346 105.655 43.5839 105.257 43.5613C104.976 43.5466 104.827 43.2919 104.64 43.2439C104.376 43.1773 104.369 43.0759 104.216 42.9106C103.997 42.6773 103.432 42.6839 103.251 42.296C103.104 41.9813 102.757 42.528 102.753 42.3066C102.748 42.0306 102.535 42.0133 102.347 41.9266C102.116 41.8226 102.085 41.5186 101.881 41.3666C101.755 41.408 101.685 41.5093 101.6 41.5986C101.457 41.3266 101.127 41.376 100.949 41.2146C100.813 41.092 100.703 40.9453 100.524 40.844L99.9265 40.504C99.7425 40.4 99.6172 40.2413 99.3945 40.2866C99.4652 40.1626 99.4212 40.048 99.3772 39.972C99.3025 39.8466 99.1439 40.112 99.0279 40.0306C98.8999 39.9413 98.8825 39.6786 98.6865 39.6933C98.4639 40.1186 98.6719 39.2373 98.1425 39.2733C98.0239 39.2813 97.9692 39.0986 97.8679 39.0773C97.7399 39.0506 97.5412 39.1053 97.4665 38.9546C97.3959 38.816 97.3599 38.676 97.1732 38.7386C97.0785 38.7693 97.0265 38.7186 97.0465 38.6786C97.2479 38.2626 96.6732 38.5546 96.2692 38.1866C96.2079 38.1293 96.0532 38.2093 96.0052 38.1493C95.9372 38.0626 95.9732 37.9306 95.9399 37.8253C95.8839 37.6466 95.7906 37.6253 95.6332 37.6346C95.4812 37.6426 95.3825 37.4746 95.1985 37.448C94.9932 37.4186 94.9145 37.0506 94.7025 36.9986C94.4999 36.948 94.4132 36.8346 94.2679 36.6973C94.2279 36.66 94.1092 36.712 94.0612 36.696C93.9906 36.6733 93.9786 36.4853 93.9212 36.4613C93.5279 36.4226 93.4039 36.1066 93.2479 36.1666C92.8999 36.3026 93.1692 36.732 92.4919 36.644C92.4386 36.6373 92.4012 36.7666 92.4306 36.7826C92.8692 37.02 92.7132 36.5666 92.8146 37.0106C92.8519 37.176 93.0559 37.2266 93.1266 37.3893C93.3052 37.796 93.5866 37.608 93.6039 37.7186C93.6119 37.772 93.5012 37.7586 93.4106 37.8626C93.1279 38.192 93.8812 38.0893 93.8599 38.24L93.8305 38.456C94.0092 38.744 94.3812 38.7973 94.6105 39.044C94.9292 39.388 94.9092 39.0773 95.0679 39.3333C95.1079 39.3986 95.1292 39.4933 95.0919 39.6266C95.2439 39.6693 95.4985 39.3746 95.4745 39.6506C95.3039 39.6626 95.2825 39.744 95.4092 39.7506C95.6905 39.6093 95.8279 39.932 95.9985 39.9613C96.1932 39.9933 96.2825 40.1386 96.4385 40.2146C96.7892 40.3866 97.0879 40.496 97.1559 40.92C97.4039 40.2053 97.1492 40.9933 97.8639 40.9493C97.6985 41.44 98.4825 41.056 98.3985 41.416C98.3852 41.472 98.3052 41.5413 98.3185 41.5693C98.3439 41.6173 98.5012 41.584 98.5519 41.5906C98.9839 41.6506 99.7599 42.384 99.9212 42.44C100.315 42.5773 100.509 42.8853 100.763 43.1773C100.859 43.2866 101.092 43.2119 101.149 43.4133C101.208 43.6186 101.564 43.9239 101.785 43.9879C102.095 44.0773 102.161 44.3093 102.355 44.4639C102.603 44.6639 102.927 44.6946 103.133 44.9933C103.232 45.1333 103.507 45.1199 103.572 45.3533C103.624 45.5413 104.721 45.9333 105.157 46.3893C105.451 46.6986 105.943 46.8013 106.167 47.1479C106.247 47.2733 106.303 47.2346 106.396 47.3053C106.593 47.4533 106.751 47.6426 106.984 47.7133C107.087 47.7439 107.168 47.9573 107.333 47.9839C107.381 47.9906 107.305 48.1613 107.327 48.2053C107.393 48.3386 107.559 48.2359 107.884 48.4013C107.976 48.4493 107.941 48.7653 108.033 48.7999C108.531 48.9813 108.993 49.1599 109.191 49.6986C109.265 49.8959 109.812 49.9319 109.815 50.2119C109.457 51.1013 109.257 50.9279 109.175 50.9719C109.049 51.0399 109.005 51.1746 108.839 51.1799C108.508 51.1893 108.389 51.5879 108.143 51.7226C107.935 51.8373 107.716 51.9413 107.477 52.0679L107.115 52.2613C106.664 52.5013 106.839 52.0239 106.7 52.4239C106.593 52.7306 106.111 52.6386 105.983 52.8079C105.783 53.0733 105.497 53.1773 105.168 53.2239C105.016 53.2453 104.829 53.6359 104.635 53.3759C104.639 53.2799 104.612 53.1786 104.548 53.2946C104.565 53.4733 104.529 53.5613 104.389 53.6546L103.585 54.1813C103.392 54.3079 103.064 54.2373 102.82 54.2639C102.636 54.2839 102.576 53.9959 102.556 53.8546L102.187 53.6399C101.263 53.1039 101.888 53.0586 100.979 52.7239C100.971 52.6266 100.964 52.5493 100.925 52.5399L100.704 52.4879C100.585 52.4586 100.632 52.2533 100.591 52.1826C100.525 52.0679 100.363 52.1173 100.259 52.0399C100.16 51.9666 100.209 51.8039 100.127 51.7186C100.057 51.6466 99.8879 51.6813 99.7692 51.6359C99.5705 51.5586 99.5785 51.2439 99.3439 51.1999C99.2839 51.1973 99.2145 51.2493 99.1785 51.2759C99.1239 51.3159 99.1079 51.1906 99.1012 51.1213C98.6399 50.9439 98.3492 50.5653 98.1772 50.1093C98.1545 50.0773 98.0465 50.1146 98.0159 50.0746C97.9612 50.0039 97.9719 49.8826 97.9039 49.8479C97.8265 49.8093 97.7385 49.8786 97.5812 49.8946C97.4999 49.8173 97.6719 49.7999 97.6625 49.7306C97.5052 49.4786 97.3492 49.6133 97.2119 49.4813C97.3452 49.6093 96.9559 48.8266 96.9359 48.8133C96.6505 48.6106 96.3452 48.4906 96.1146 48.2026C95.9826 48.0386 95.6825 48.0733 95.7585 47.6453C95.6319 47.7279 95.6345 47.8293 95.5652 47.8106C95.4772 47.7879 95.4239 47.7426 95.4559 47.6319C95.4799 47.5479 95.4785 47.4666 95.4452 47.4146C95.3745 47.3013 95.0772 47.3359 95.0226 47.2013C95.0039 47.1533 95.0559 47.0533 94.9772 46.9933C94.8985 46.9333 94.8026 46.9306 94.7119 46.8893C94.6439 46.8599 94.7186 46.6959 94.6586 46.6573C94.5492 46.5866 94.4572 46.6426 94.3759 46.6866C94.2799 46.5586 94.2679 46.4053 94.1786 46.2386C93.8866 46.2719 93.7746 46.1039 93.6052 45.9426C93.4692 45.8133 93.2826 45.7959 93.1892 45.5706C93.1319 45.4319 92.7465 45.3586 92.7425 45.1746C92.7372 44.9213 92.5986 44.9026 92.4439 44.7333C92.2906 44.5639 92.2279 44.3133 91.9292 44.3039C91.7652 44.2999 91.2332 43.6933 91.1292 43.5679C90.9172 43.4239 90.5759 43.4293 90.6092 42.9573C90.5159 43.0359 90.4839 43.1119 90.4106 43.1146C90.3092 43.1186 90.3252 42.9039 90.2612 42.8839C90.0532 42.8213 89.9732 42.6439 89.9026 42.4906C89.5759 42.228 88.6066 42.0493 88.4306 41.5693C88.3519 41.3533 87.6359 40.9466 87.3052 40.8813C87.2532 40.8706 87.2519 40.6653 87.1972 40.6346C87.1492 40.608 87.0759 40.62 86.9692 40.6266C86.9866 40.484 86.9839 40.3466 86.8999 40.24C86.8119 40.376 86.7932 40.3866 86.7226 40.3546C86.6332 40.3146 86.6706 40.232 86.6666 40.1386C86.5092 39.8893 86.2012 39.7906 85.9759 39.584C85.4759 39.1266 85.1692 40.1373 84.6386 39.792C84.7106 39.8386 83.8732 39.92 84.1879 39.856C83.9519 39.904 83.8719 40.688 83.6279 40.368C83.5599 40.6466 83.2612 40.7906 83.0426 40.7946C83.0146 40.8013 83.0532 40.8933 83.0506 40.92C83.0412 40.984 82.9346 40.9546 82.8012 40.948C82.6572 41.2746 82.3039 41.364 82.0346 41.5146C81.9106 41.5826 81.7906 41.732 81.6479 41.732C81.6173 41.7306 81.5692 41.6693 81.5599 41.6493C81.5372 41.5986 81.4946 41.608 81.4746 41.6466C81.4586 41.6746 81.5519 41.8226 81.5199 41.84C81.2599 41.9893 80.9693 42.0306 80.7813 42.2613C80.7266 42.328 80.5493 42.3373 80.5479 42.4306C80.5453 42.608 80.6959 42.6426 80.8293 42.6653C81.0879 42.7093 81.1426 43.0013 81.2466 43.204C81.3093 43.3266 81.5253 43.2666 81.6026 43.3733C81.6639 43.4573 81.5732 43.6013 81.6052 43.6653C81.6572 43.7666 81.8106 43.7679 81.8759 43.8493L82.7852 44.9786C82.9306 45.1599 83.3132 45.1613 83.3452 45.4199C83.3572 45.5106 83.2746 45.6839 83.3692 45.7146L83.5972 45.7906C83.7692 45.8466 83.8986 45.9799 84.0719 46.0666C84.0839 46.3839 84.3092 46.5853 84.5132 46.7599C85.0252 47.2013 84.7106 47.5013 85.3372 47.7239C85.2986 47.8333 85.2666 47.9213 85.2506 47.9799C85.2292 48.0639 85.3039 48.1466 85.4199 48.1613C85.6492 48.1919 85.5266 48.4693 85.6239 48.5599C85.9506 48.8653 86.2706 49.4106 86.4506 49.6413C86.5732 49.7986 86.7506 49.8186 86.7799 50.0959C86.8119 50.4093 87.3346 50.5266 87.4546 50.7733C87.5799 51.0333 87.6772 51.3226 88.0959 51.4039C88.1879 51.4586 88.1146 51.7439 88.1559 51.8319C88.2159 51.8466 88.3012 51.7999 88.3386 51.7959C88.4252 51.7866 88.4932 51.8759 88.4252 51.9666C88.2919 52.0386 88.2826 52.1586 88.4599 52.0853C88.5732 52.0693 88.8732 52.2426 88.8626 52.3639C88.7986 52.6506 89.0266 52.8146 89.2679 52.9853C89.3599 53.0493 89.2812 53.3533 89.5226 53.2626C90.0946 53.8186 89.6892 53.7559 89.8266 53.8826C90.2599 54.2813 90.9292 54.2293 90.3559 54.5666C90.6572 54.6666 90.7439 54.9053 90.8986 55.1186C91.1226 55.4253 91.5626 55.6466 91.6132 56.0586C91.6692 56.5292 92.1946 56.3012 92.1412 56.8132C92.3866 56.8652 92.5532 57.0119 92.4826 57.2572L92.8786 57.3812C92.8186 57.4772 92.7826 57.5652 92.7666 57.6319C92.7826 57.5652 94.0759 59.1666 94.0545 59.0439L94.1119 59.3706C94.0759 59.1679 95.5825 60.8692 95.6212 60.7906C95.4492 61.1492 95.8252 61.2386 95.9639 61.4186C96.1399 61.6452 96.3159 61.7546 96.5185 61.9359C96.6839 62.0852 96.6959 62.3252 96.9359 62.4692C97.1119 62.5746 97.8452 63.4306 97.8999 63.4732C98.1652 63.6772 98.2199 64.0399 98.4652 64.2519C98.7439 64.4919 98.9439 64.7892 99.1372 65.0906C99.2145 65.2106 99.4012 65.2692 99.4425 65.3986C99.6185 65.9506 99.5679 65.3812 100.113 66.2559C99.9679 66.6132 100.059 66.9372 100.359 67.1986C100.308 67.4599 100.345 67.7359 100.264 67.9852C100.136 68.3786 99.7345 68.6865 99.3465 68.5439C99.2865 68.5212 99.2519 68.4519 99.2119 68.4599C99.1519 68.4732 99.1399 68.8292 99.0505 68.8199C98.8945 68.8039 98.7185 68.9225 98.6025 68.8959C98.4492 68.8612 98.3425 68.6785 98.1732 68.6892C97.9812 68.7012 97.8012 69.0345 97.6679 69.0799C97.5052 69.1345 97.3479 68.6225 97.3119 69.0052L96.4252 68.8465C96.1039 68.7892 96.0172 69.1559 95.8145 69.1452C95.6412 69.1359 95.6492 68.9185 95.5026 68.8585C95.4572 68.8065 95.2959 69.0785 95.3132 69.0465C95.2705 69.1239 95.2132 69.1025 95.1852 69.0639C95.0825 68.9252 94.6586 69.3172 94.4719 69.1399C94.3586 69.0332 94.3679 68.6745 94.1812 68.6999C93.9532 68.7319 93.8706 68.5999 93.7159 68.5212C93.4279 68.3732 93.3239 68.3079 93.2532 67.9599C93.2159 67.7732 93.0519 67.3919 92.8905 67.2826L91.9226 66.6199C91.8826 66.5532 91.9786 66.4292 91.9306 66.3826C92.0159 66.3399 91.1599 66.2959 91.6839 66.2252C91.7106 66.2212 91.7906 66.2039 91.7892 66.1452C91.5839 65.9919 91.4212 65.9946 91.4252 65.9492C91.4452 65.7012 91.1586 65.6852 91.0479 65.4892L90.5986 64.6866C90.5812 65.6359 90.3972 64.1412 90.3786 64.3879C90.3266 64.3706 90.1986 64.4452 90.1266 64.4159C90.0799 64.3972 90.1079 64.2906 90.1559 64.1852C90.1666 64.0786 90.0252 64.1332 89.9439 64.0652C89.9106 63.7906 89.7399 63.6692 89.5066 63.6226C89.6159 63.5426 89.6466 63.4932 89.6599 63.4332C89.6719 63.3839 89.6052 63.3079 89.5452 63.2892C89.1199 63.1506 88.9572 62.8506 88.7266 62.5359C88.5919 62.3506 88.3532 62.2386 88.3812 61.9319C88.2986 62.0119 88.2852 62.0572 88.2612 62.0692C88.0852 62.1519 88.1386 61.6666 88.0412 61.4986C88.0079 61.4426 87.8599 61.5092 87.8519 61.4252C87.8172 61.0319 87.5012 61.2346 87.6346 60.9426C87.6839 60.8359 87.6026 60.7586 87.4946 60.7279C87.4186 60.7052 87.3546 60.7199 87.2719 60.7199C87.0559 60.7239 87.3052 60.3626 87.0612 60.3319C86.9706 60.3212 86.8759 60.3092 86.8186 60.2892C86.7346 60.2599 86.7079 60.1412 86.7159 60.0372C86.0519 59.9026 86.5666 59.6146 85.9546 59.5172C85.9266 59.3572 86.0719 59.0826 85.9119 58.9839C85.7986 58.9132 85.6652 58.9319 85.6252 58.8599C85.5452 58.7186 85.5679 58.6132 85.5492 58.4426C85.4772 58.5546 85.3999 58.6399 85.3999 58.4746C85.1826 58.3066 85.0879 58.0932 84.9372 57.9159C84.8772 57.9412 84.8119 57.9532 84.7572 57.9559C84.6012 57.9599 84.6039 57.9119 84.7759 57.7999C84.3279 57.5772 84.2332 57.0532 83.9652 56.7279C83.6226 56.3132 82.9519 56.1999 83.1319 55.6733C83.0506 55.6119 82.9412 55.6653 82.8852 55.6639C82.8372 55.6626 82.8852 55.5706 82.8679 55.5173C82.8186 55.3573 82.5732 55.3586 82.4839 55.2239C82.3812 55.0733 82.2906 54.9106 82.1546 54.7466C82.0786 54.6546 82.1492 54.4586 81.9652 54.4359C81.8986 54.4279 81.8172 54.3813 81.7706 54.3386C81.7292 54.3026 81.7879 54.1959 81.7386 54.1213C81.7026 54.0693 81.5799 54.0319 81.5346 54.0013C81.4839 53.9679 81.5679 53.7626 81.5052 53.7519C81.2599 53.7866 80.8106 53.0413 80.8746 52.8839C80.5626 52.5799 80.0986 52.3666 80.0546 51.8239C79.7866 51.9186 79.5706 51.7799 79.3186 51.6506C79.2093 51.5946 79.1666 51.7506 79.1199 51.7906C78.9839 51.9093 78.8373 51.7973 78.6973 51.5879C78.6946 51.9359 78.4186 52.0386 78.2093 52.1639C77.9813 52.2746 79.0213 53.4839 79.1399 53.6453C79.2613 53.8079 79.3133 53.9506 79.4946 54.1039C79.8146 54.3746 79.9173 54.6919 80.1773 54.8706C80.2466 54.9186 80.1146 55.1106 80.1666 55.1759C80.2506 55.2799 80.3306 55.3639 80.5106 55.3186C80.4719 55.4159 80.4359 55.4933 80.4319 55.5706C80.4226 55.7013 80.6026 55.7306 80.6839 55.8226C80.8533 56.0159 80.8199 56.3612 81.1306 56.3612C81.1706 56.3612 81.2826 56.3919 81.2919 56.4266C81.3012 56.4639 81.1773 56.5026 81.1679 56.5572C81.1333 56.7679 81.3332 56.8186 81.4492 56.9346C81.6239 57.1106 81.5866 57.4532 81.7546 57.6412C82.1812 58.1186 82.5666 58.5866 82.9599 59.0892C83.0986 59.2666 83.3186 59.4066 83.3306 59.6679C83.3332 59.7279 83.5359 59.7399 83.5692 59.7906C83.6946 59.9772 83.2586 59.9612 84.1852 60.5866C84.3212 60.6786 84.2866 60.8386 84.3106 61.0052C84.3332 61.1679 84.6039 61.1399 84.6092 61.3012L84.6172 61.4892C84.6239 61.6759 85.0092 61.4292 84.9546 61.6386C84.9439 61.6826 84.8332 61.7172 84.8319 61.7839C84.8306 62.1119 85.1479 62.1639 85.2786 62.3359C85.3746 62.4639 85.2079 62.7079 85.4906 62.8159C85.6479 62.8772 85.7652 63.1172 85.8866 63.2546C85.9399 63.3146 85.8532 63.4479 85.8719 63.4999C85.8999 63.5826 86.0106 63.5799 86.0879 63.6452C86.1826 63.7252 86.0892 63.8879 86.1572 64.0052C86.6332 64.0919 86.2532 64.4612 86.7639 64.5532C86.7306 64.6559 86.7106 64.7359 86.7012 64.8066C86.6852 64.9372 86.8292 64.9599 86.9199 65.0466C87.0812 65.1986 87.0719 65.5079 87.2386 65.6479C87.4692 65.8426 87.5319 66.0506 87.6332 66.3199C87.6866 66.4599 88.0386 66.4799 87.9732 66.7279C87.9132 66.9519 88.1932 67.0026 88.2252 67.1412C88.2706 67.3279 88.3959 67.6092 88.3879 67.7799L88.3626 68.3412C88.3532 68.5332 88.0332 68.6052 88.0292 68.8385C87.9039 68.8239 87.8866 68.7412 87.7972 68.6345C87.6839 68.5785 87.6639 68.7225 87.7826 68.8039C87.7146 69.0132 87.5759 69.2719 87.3079 69.2639C87.2506 69.2625 87.2372 69.3985 87.1372 69.3532C87.0586 69.3172 87.0186 69.2225 86.9466 69.2585C86.9292 69.4185 86.8079 69.4692 86.7106 69.5745L86.5239 69.7759C86.4546 69.8492 86.3426 69.7292 86.2452 69.6532C86.1839 69.7345 85.7852 70.2265 85.7332 70.1852C85.4319 69.9545 85.6772 69.4092 85.4572 70.0425C85.4239 70.1399 85.3386 70.1559 85.3252 70.0479C85.3186 69.9945 85.3146 69.9519 85.2772 69.8879C85.1666 70.0065 85.0292 70.1199 84.8866 70.1945C84.7866 70.0679 84.7639 69.8705 84.6746 69.8505C84.2852 69.8519 84.0506 69.5385 83.7506 69.3852C83.5279 69.2719 83.1386 69.3812 83.0319 68.9812C82.9332 69.0052 82.6786 69.0239 82.7306 68.9172C82.7799 68.8185 82.7733 68.7692 82.7373 68.7399C82.6693 68.6852 82.4772 68.6959 82.4532 68.6399C82.2959 68.2839 81.8906 68.0852 81.7186 67.7665C81.5786 67.5092 81.5506 67.3959 81.2693 67.2412C81.1639 67.1839 81.1253 66.9759 80.9279 66.9239C80.5959 66.8346 80.5626 66.3319 80.3266 66.1639C80.1399 66.0306 79.8546 65.9599 79.7839 65.7012C79.7719 65.6546 79.5879 65.6532 79.5586 65.6186C79.5279 65.5826 79.5119 65.4959 79.5519 65.3932C79.0693 64.9946 78.5573 64.1852 78.0653 63.8986C78.2626 63.1826 77.7533 63.9559 77.6893 62.9879C77.6279 63.0079 77.6239 63.0772 77.5986 63.0999C77.5506 63.1399 77.5253 63.0679 77.5119 62.9839L77.4986 62.8972L77.5373 62.7559C77.5799 62.5972 77.2973 62.9159 77.2106 62.7666C77.1906 62.7319 77.2519 62.6559 77.2226 62.5986C77.1666 62.4866 76.9559 62.5266 76.8719 62.4332C76.7826 62.3106 76.8319 62.0959 76.6959 61.9879L76.6266 62.0439C76.5746 62.0879 76.5253 62.0852 76.5279 62.0506C76.5333 61.9799 76.5759 61.9079 76.5719 61.8546C76.5733 61.8679 76.1213 61.2292 75.9866 61.1399C75.9093 61.0879 75.9733 60.9239 75.9386 60.8666C75.8039 60.6359 75.7079 60.9692 75.5786 60.4892C75.5199 60.2706 75.3319 60.6826 75.1639 60.2839C74.8466 59.5292 74.3399 59.6479 74.1333 59.3426C73.9319 59.0439 74.0746 59.3786 73.6546 59.7546C73.8119 59.9932 73.7399 60.3146 73.9173 60.5346C74.1226 60.7879 74.2746 61.1679 74.5093 61.3692C74.7719 61.5946 74.8053 61.7932 74.9426 62.0746C75.0399 62.2772 75.4333 62.3666 75.3213 62.7372C75.2813 62.8692 75.5173 62.9479 75.5866 63.0319C75.7106 63.1826 75.6986 63.4132 75.8639 63.5292C76.0879 63.6866 76.4746 63.9959 76.3306 64.2399C76.5146 64.3892 76.8519 64.8372 76.9253 65.0266C76.9999 65.2132 77.3413 65.3132 77.3879 65.5079C77.5013 65.9826 77.8039 65.9706 78.0159 66.3359C78.6546 67.4319 78.7146 66.6359 78.7839 67.2186C78.8439 67.7212 79.5573 67.4399 79.1079 67.7145C79.2426 67.7479 79.3239 67.8439 79.4106 67.9639C79.4159 67.9692 79.6626 67.9359 79.6599 68.0479C79.6586 68.1199 79.5253 68.2825 79.5746 68.3719L79.6306 68.4719C79.9226 68.9972 80.0013 69.0919 79.7333 69.3532C79.5706 69.5119 79.4413 69.3532 79.4493 69.4212C79.7866 69.9225 78.9413 70.2159 79.0933 70.2252C79.0533 70.2225 79.0426 70.1745 79.0093 70.1345L78.9106 70.0119C78.8479 69.9345 78.7879 70.0092 78.8479 70.1212C78.9266 70.2665 78.7799 70.3212 78.7173 70.3652C78.5999 70.4479 78.4933 70.3505 78.3586 70.3625C78.2906 70.3692 78.2319 70.5399 78.1799 70.5825C78.0693 70.6719 77.9839 70.5985 77.8719 70.5665C77.1733 70.3705 77.0479 71.1625 76.9293 71.1292C76.8026 71.0945 76.4453 70.7292 76.4759 70.9585C76.4839 71.0145 76.3719 71.3559 76.2839 71.2719C76.2653 71.2545 76.1959 71.2012 76.1839 71.2279C75.9959 71.6119 75.3999 71.4759 75.0266 71.6545L74.8253 71.4025C74.7813 71.3479 74.6506 71.2519 74.5973 71.2772C74.5199 71.3159 74.5586 71.6612 74.4266 71.7612C74.3959 71.7839 74.3693 71.6279 74.3239 71.6465C74.0666 71.7452 74.0239 71.4092 73.8626 71.3639C73.5893 71.2839 73.2373 71.3252 73.0146 71.0545C72.9239 70.9439 72.7826 70.9545 72.6759 70.9199C72.2866 70.1852 72.0746 70.5465 72.2493 70.1719C71.9186 69.8412 71.4733 69.7932 71.4253 69.1892C71.3359 69.1892 71.3266 69.2425 71.3053 69.3159C71.2479 69.4172 71.2133 69.3039 71.1866 69.2412C71.3599 68.8785 71.0226 68.8492 70.9053 68.6786C70.6386 68.2852 70.4119 67.8652 69.9826 67.6706C70.1533 67.2852 69.9239 67.6585 69.5479 66.9465C69.4559 66.7719 69.5186 66.4439 69.3133 66.3212C68.7933 66.0106 69.0906 65.6426 68.8213 65.7279C68.5946 65.7999 69.0386 66.8412 69.0373 66.6599L69.044 67.3412C69.0426 67.2626 69.6413 68.8319 69.636 69.3479C69.6386 69.1372 70.0079 70.1785 69.8919 70.3705C69.9479 70.4239 70.0519 70.4985 70.1039 70.5345C70.2026 70.6025 70.0679 70.7265 70.0999 70.8412L70.3559 71.7532C70.4466 72.0759 70.5079 72.3705 70.7599 72.5972C70.7053 72.6572 70.4839 72.7639 70.5799 72.8172C70.7693 72.9239 70.6999 73.1159 70.7666 73.2399C70.9359 73.5572 71.0453 73.8279 71.0306 74.1972C71.0373 74.0279 71.3439 75.0759 71.4999 74.9825C71.3919 75.3199 71.7013 75.8305 71.8613 76.2799L72.4546 77.9345C72.5533 78.2092 73.3973 79.0865 72.8239 79.9065C72.7119 79.9305 72.5426 79.9345 72.4439 80.0092C72.3879 79.9092 72.3599 79.8545 72.3226 79.9439C72.2613 80.1799 71.9639 80.5172 71.7666 80.5985C71.6186 80.6599 71.5186 80.5599 71.3746 80.5052L71.3373 80.6212C71.3226 80.6665 71.2373 80.6372 71.2013 80.5758C71.0839 80.3732 71.1173 80.6252 70.9253 80.7798C70.7586 80.6292 70.6053 80.7665 70.4933 80.9092C70.3839 80.7665 70.4279 80.7692 70.3453 80.7038L70.2826 80.7878C70.2146 80.8812 70.1866 80.6719 70.0853 80.5799L69.9786 80.4839C69.9613 80.4679 69.8893 80.4785 69.8879 80.5052C69.8533 80.9812 69.9679 80.5918 69.5146 80.4452C69.3999 80.4078 69.3493 80.5812 69.2173 80.6279Z" fill="#243D13"/>
<path d="M62.3508 13.6426C62.5855 13.792 62.8575 13.7146 63.0908 13.764C63.9628 13.9506 64.7455 13.8186 65.5695 13.5986C66.2362 13.4213 66.7535 13.1853 67.2148 12.6346C67.7202 12.0293 68.7295 11.5533 68.7268 10.4826C68.7255 10.036 69.0602 8.71198 69.3042 8.24132C69.4122 8.03332 69.1882 7.67865 69.1882 7.44932L69.1855 6.82665C68.9882 6.43865 68.8295 6.01332 68.6962 5.57732C68.6055 5.28132 68.2362 5.15066 68.1028 4.90399C67.8802 4.49199 67.6268 4.21333 67.2695 3.92933C67.1082 3.79999 67.0122 3.64266 66.7922 3.54133C66.4122 3.36399 65.9882 3.29199 65.5695 3.15866C65.5135 3.14133 65.4935 3 65.4442 3.01333C65.3962 3.02666 65.3415 3.09066 65.2855 3.11866C65.0268 3.24533 64.7135 3.00133 64.4988 3.06399C64.2442 3.13866 64.0722 3.02666 63.8575 3.04133C63.5828 3.06133 62.5548 3.29199 62.3682 3.42799C62.0588 3.65333 61.6988 3.83599 61.3268 3.99999C60.4628 4.38133 60.6148 4.51866 60.1468 4.96266L59.8122 5.27999L58.9815 6.14132C58.6615 6.47199 58.6015 7.03198 58.4162 7.46798C58.2175 7.93465 58.2308 8.37198 58.3468 8.86665L58.4868 9.46265C58.5482 9.72664 58.5882 9.87731 58.6282 10.1306C58.8468 11.512 58.4628 10.168 59.0042 11.2506C59.1095 11.4613 59.4415 11.5946 59.5055 11.816C59.5668 12.0346 59.6188 12.1546 59.7695 12.2693C59.9388 12.3986 60.1055 12.3386 60.2922 12.384C60.4188 12.4146 60.4735 12.6813 60.7015 12.6693C60.6562 12.7346 60.5708 12.78 60.5935 12.824C60.6308 12.892 60.7175 12.948 60.7842 12.988L61.6615 13.5106C61.8402 13.6173 62.1335 13.504 62.3508 13.6426ZM63.5095 16.2746C63.4028 16.312 63.4068 16.3946 63.3602 16.4373C63.3268 16.4653 63.2562 16.372 63.2002 16.3613C62.9962 16.496 62.7788 16.3386 62.5828 16.32C62.3188 16.2946 61.9695 16.3826 61.7668 16.0826C61.6855 16.1906 61.6442 16.252 61.5762 16.292C61.3908 16.4 61.4948 16.0773 60.9908 16.064C60.7482 16.0586 60.7068 15.7266 60.5735 15.5613C60.4975 15.4693 60.2348 15.364 60.1122 15.3746C59.9242 15.392 59.8482 15.236 59.7188 15.168C59.2015 14.8933 58.8668 14.5186 58.4695 14.1C58.3188 13.94 58.1295 13.844 57.9789 13.6413C57.4682 12.9493 56.9269 12.248 56.7335 11.3493C56.3562 10.8626 56.1335 10.304 55.8922 9.71865C55.4429 8.62931 55.8042 7.61065 55.9589 6.51199C56.0175 6.08932 56.2909 5.71199 56.4282 5.30532C56.6802 4.55599 57.0575 3.95999 57.5322 3.31599C57.5922 3.23599 57.7642 2.704 58.4628 2.24133C58.6628 2.10933 58.8722 1.76533 59.0602 1.57067C59.4122 1.20667 59.8708 1.10667 60.2815 0.850667L60.7082 0.582668C60.9775 0.414668 61.2295 0.417335 61.5202 0.365335C61.7842 0.320002 62.0215 0.124002 62.2988 0.336002C62.1628 -0.178664 64.7855 0.0493355 65.0535 0.0560022C66.1242 0.0786688 67.1402 0.402668 68.0548 0.948C68.5615 1.248 69.0655 1.44667 69.5308 1.856C70.5282 2.73466 70.9322 2.84666 71.4695 4.03599C71.5802 4.27999 71.7241 4.47066 71.7481 4.76532C71.7721 5.06666 72.0455 5.38799 72.0521 5.64266C72.0615 6.09865 72.0201 6.52265 72.1081 6.96799C72.1855 7.36798 72.0215 7.73732 71.9721 8.09332L71.8988 8.61331C71.8508 8.95598 72.0188 9.38931 71.6988 9.68931C71.7801 9.83864 71.7561 10.0186 71.8361 10.22C71.5402 10.496 71.6988 10.9146 71.5895 11.2386C71.3428 11.968 70.7935 12.9186 70.8322 12.7933C70.6975 13.2306 70.3028 13.452 70.0735 13.7933C69.8242 14.164 69.5202 14.3746 69.2042 14.6453C67.5415 16.0666 67.1108 15.6706 66.6655 15.8786C66.3228 16.0386 66.0935 16.0546 65.7388 16.1426L64.6388 16.4173C64.6015 16.4266 63.7215 16.552 63.5802 16.4733C63.5175 16.4373 63.5295 16.32 63.5095 16.2746Z" fill="#243D13"/>
<path d="M47.975 10.0987C47.591 9.94932 47.4203 10.264 47.283 10.64C47.655 10.6693 47.6176 10.2973 47.975 10.0987ZM51.3336 10.732L52.3523 10.5347C52.2949 10.2387 52.1616 10.0187 51.9976 9.80265L51.1069 10.2987C51.2523 10.4907 51.2976 10.6107 51.3336 10.732ZM50.835 10.1933C50.8523 10.0227 50.8616 9.78399 50.6776 9.79999C50.5083 9.90532 50.3136 10.132 50.055 10.1C50.0576 10.5747 50.479 10.1493 50.835 10.1933ZM52.7883 8.60532C53.0243 8.28932 52.9069 8.04399 52.9949 7.83066C53.0776 7.62799 53.2523 7.45866 53.0309 7.24399C52.9096 7.77199 52.5523 7.55732 52.7776 8.06666C52.7016 8.27199 52.6736 8.47332 52.7883 8.60532ZM49.319 12.5413C48.8723 12.5946 48.4363 12.9133 47.9923 13.0026C47.5523 13.0893 47.423 13.3693 47.235 13.7066C47.0603 14.02 46.743 14.2493 46.8296 14.6626C45.815 15.3093 46.4443 14.844 45.587 15.16C45.403 15.164 45.415 14.8466 45.3283 14.7493C45.107 14.5053 45.147 14.2133 45.1043 13.908C45.003 13.18 45.0123 12.4706 44.9936 11.7293C44.971 10.7893 44.8963 9.96265 45.0736 8.96799C45.127 8.66799 45.307 7.86132 45.4363 7.63866L46.127 6.44266C46.3043 6.13733 46.687 5.96933 46.9723 5.74133C47.299 5.48266 47.739 5.39066 48.1256 5.212C48.9176 4.84666 50.5456 4.888 51.4669 4.33733C51.7389 4.17467 51.9616 3.92 52.2229 3.74533C52.4043 3.624 52.8803 2.86 53.0016 2.70534L53.8069 1.67734C53.9536 1.48934 54.0563 1.40267 54.2189 1.30934C54.3016 1.26134 54.2523 1.02801 54.4709 1.00534C54.7829 0.973341 54.9723 0.708009 55.2469 0.600009L55.6949 0.426676C55.9323 0.334676 56.2536 0.15601 56.5229 0.181343L58.0509 0.329343C58.1883 0.342676 58.2843 0.134677 58.4376 0.154677C58.4963 0.161343 59.0589 0.473343 58.9283 0.834675C57.7323 1.27067 56.2269 3.18267 55.9056 4.35867C55.8549 4.548 55.6683 4.69467 55.6843 4.94133C55.6976 5.148 55.3003 5.15466 55.2229 5.27733C55.0669 5.52133 55.2243 5.736 55.1469 6.20533C55.0816 6.59733 55.1429 6.99466 55.1096 7.40133C55.0616 7.98399 55.0336 9.40399 55.1843 9.90399L55.4589 10.8093C55.4709 10.848 55.4003 10.924 55.4096 10.9626C55.4176 10.9973 55.5083 10.9626 55.5456 10.9866C55.7216 11.1 55.5963 11.3253 55.6416 11.468C55.6829 11.6026 55.9429 11.816 55.8656 11.9533C55.6309 12.3626 55.2243 12.2853 54.9083 12.3106C54.6736 12.328 54.5416 12.4 54.3389 12.2706C54.1869 12.1733 53.8323 12.4173 53.6856 12.2453C53.5203 12.052 53.3709 12.2653 53.2336 12.256C52.1936 12.176 51.5803 12.4826 50.695 12.252C50.2763 12.5493 49.7856 12.488 49.319 12.5413Z" fill="#243D13"/>
<path d="M59.0267 19.6519C58.6333 19.4786 58.3707 19.8492 58.184 19.3919C58.084 19.5906 57.9693 19.5572 57.8907 19.5292C57.692 19.4586 57.6867 19.3346 57.7027 19.1292C57.6027 19.1706 57.5947 19.2386 57.544 19.2732C57.4707 19.3252 57.3787 19.2639 57.3133 19.1999C56.7013 18.6026 57.5493 17.1933 57.5427 17.2319C57.6107 16.8399 57.9667 16.8306 58.132 16.5693C58.464 16.0453 58.9307 15.7079 59.6467 15.9746L59.7667 15.8586C59.8413 15.7866 61.288 16.4586 61.1333 17.1093C61.108 17.2173 60.9053 17.2439 60.928 17.4479C60.9547 17.7066 60.616 17.9612 60.56 18.2266C60.512 18.4519 60.1733 19.3106 60.1653 19.3226C60.0667 19.4546 59.8853 19.3972 59.776 19.4199C59.5827 19.6612 59.3373 19.7892 59.0267 19.6519Z" fill="#243D13"/>
<path d="M72.4709 18.116C72.3949 18.352 71.8189 18.6053 71.5309 18.704C71.2469 18.8026 70.9362 19.056 70.6029 18.912C69.9535 18.6293 69.6455 17.9906 69.4735 17.356C69.3109 16.7493 69.3549 16.2 69.7175 15.6733C69.9029 15.4053 70.2562 15.428 70.5562 15.3707C70.8815 15.3107 70.9002 15.592 71.0402 15.6453C71.4469 15.7987 71.6642 16.1066 71.8749 16.4506C72.1242 16.856 72.6242 17.6373 72.4709 18.116Z" fill="#243D13"/>
<path d="M63.0976 20.1279C62.851 20.2999 62.675 20.2519 62.455 20.3106C62.2283 20.3706 62.1483 20.5226 61.8963 20.3786C61.7483 20.2932 61.5096 20.3532 61.4376 20.0866C61.295 20.2586 60.9803 20.1586 60.9056 19.9826C60.7416 19.5946 61.0016 19.2826 61.1176 18.9519C61.3096 18.4079 61.4816 17.9039 61.807 17.4159C61.851 17.3479 61.6616 17.2399 61.6363 17.1839C62.315 16.9959 61.6336 16.8986 62.6016 16.9586C62.8483 16.9732 63.3816 17.6679 63.2856 17.5172L63.783 18.3012C63.703 18.3932 63.6336 18.4986 63.6283 18.5626C63.6243 18.6186 63.767 18.7159 63.7336 18.7706L63.191 19.6452C63.1683 19.8279 63.3203 19.9732 63.0976 20.1279Z" fill="#243D13"/>
<path d="M68.2722 19.9013C67.9962 20.0427 67.8149 20.0227 67.6429 19.7813C67.5989 19.7213 67.5136 19.596 67.4869 19.6093L67.2416 19.728C67.0522 19.8213 66.8829 19.124 66.9149 18.7787C66.9389 18.504 66.8656 18.2533 66.8682 17.9987C66.8709 17.76 66.9229 17.5173 66.8882 17.2573C66.8589 17.0333 67.3069 17.0653 67.4029 16.956C67.7509 16.5587 68.3482 16.3987 68.7322 16.8573C68.8962 17.0533 68.8296 17.424 68.9069 17.668L69.1402 18.396C69.1962 18.572 69.4362 18.632 69.4536 18.808C69.5056 19.332 69.2349 19.4707 68.9616 19.7467C68.8082 19.9027 68.4749 19.7973 68.2722 19.9013Z" fill="#243D13"/>
<path d="M66.5773 19.8613C66.2226 20.7546 65.7679 20.0466 65.4533 20.6626C65.1439 20.4 64.4359 20.5973 64.2213 19.6493C64.1359 19.2746 64.3333 18.712 64.3733 18.2146C64.3946 17.936 64.6759 17.6666 64.5333 17.3466C65.0333 17.0466 65.4559 17.2933 65.9333 17.444C66.0946 17.496 66.3586 17.4093 66.4879 17.616C66.5373 17.696 66.8479 17.6786 66.7106 17.8466C66.6359 17.9373 66.5079 17.94 66.4839 18.0146C66.4573 18.0973 66.6946 18.5693 66.4759 18.5413C66.4066 18.532 66.3719 18.4573 66.2933 18.3666C66.1946 19.2906 66.8973 19.052 66.5773 19.8613Z" fill="#243D13"/>
<path d="M64.8933 10.5854C65.5 10.2187 65.844 9.7947 66.0893 9.2027C66.3067 8.67871 66.3493 8.23337 66.0653 7.70937C65.8387 7.28938 65.768 6.70938 65.3173 6.40804C64.3667 5.77338 65.0093 6.30404 63.6787 6.01471C63.544 6.20804 63.2253 6.13204 63.0267 6.22938C62.4293 6.52138 61.8147 7.12538 61.588 7.77737C61.5 8.03204 61.6227 8.43071 61.588 8.67337C61.5253 9.11204 61.8093 9.3587 61.996 9.6267C62.1253 9.80937 62.0987 10.168 62.4373 10.1654C63.0053 10.9134 64.0933 11.068 64.8933 10.5854ZM62.3173 12.656C62.048 12.5774 61.1773 12.064 60.9027 11.9787C60.5533 11.868 60.4347 11.6574 60.1987 11.4427C59.7533 11.0347 59.5413 10.616 59.46 9.98937C59.3813 9.39604 59.1174 8.74404 59.348 8.13204C59.4293 7.91604 59.5387 7.71737 59.4907 7.49204C59.34 6.79204 61.344 5.20405 61.3747 5.11338L61.5027 4.74138C61.5627 4.56405 61.824 4.48938 61.8467 4.26538C61.9573 4.35338 61.8413 4.44672 61.844 4.49738C61.8453 4.53738 61.908 4.60405 61.972 4.60805C61.9547 4.34405 62.2213 4.42538 62.288 4.35872C62.5107 4.13738 62.768 4.05338 63.0693 3.97872C64.14 3.71338 65.1387 3.79605 66.1253 4.31472C66.6907 4.61338 67.3573 5.10271 67.5867 5.75738L68.2813 7.74671C68.3773 8.02137 68.3133 8.95337 68.2387 9.07337C68.0453 9.38004 67.9427 9.6547 67.8653 9.99603L67.7267 10.6027C67.6653 10.8734 67.3947 11.1414 67.232 11.392C66.8467 11.984 66.152 12.1934 65.524 12.4227C64.4627 12.8107 63.3987 12.9707 62.3173 12.656Z" fill="#243D13"/>
<path d="M64.2856 9.69727L63.2097 9.78127C62.839 9.36927 62.4817 8.79461 62.627 8.21594C62.6683 8.04928 63.0963 7.43594 63.3017 7.29728C63.7203 7.01328 64.3763 7.16528 64.803 7.33594C64.8083 7.47728 64.899 7.58128 64.9816 7.69194C65.4083 8.26661 64.831 9.37594 64.2856 9.69727Z" fill="#243D13"/>
</svg>
