<svg width="77" height="87" viewBox="0 0 77 87" fill="none" xmlns="http://www.w3.org/2000/svg">
<path d="M47.6603 62.2187C47.4937 61.8627 47.1444 61.8921 47.283 61.5547C46.9777 61.5267 46.8924 61.9467 47.007 62.0334C47.2417 62.0107 47.4417 62.0934 47.6603 62.2187ZM38.7564 62.0747C38.8297 61.8414 38.863 61.7654 38.9697 61.6014C38.8417 61.6454 38.791 61.4561 38.723 61.4227C38.607 61.4761 38.4977 61.5761 38.3697 61.5947C38.5604 61.7734 38.6404 61.9281 38.7564 62.0747ZM51.843 58.5401C51.6763 58.2214 51.663 58.0174 51.4017 57.9681C51.4897 58.2561 51.4617 58.4747 51.5897 58.5241C51.659 58.5494 51.8577 58.6987 51.843 58.5401ZM51.155 53.7628C51.199 53.6454 50.9377 53.3534 50.8563 53.4868C50.711 53.7254 50.7283 54.0801 50.9977 54.1774L51.155 53.7628ZM46.975 52.2601C46.7284 52.2641 46.587 52.5268 46.687 52.7414C46.7204 52.8134 46.9257 52.7868 46.963 52.7174C46.9337 52.7734 47.175 52.2574 46.975 52.2601ZM53.5963 51.2988C53.6057 51.6268 53.615 51.9868 53.8083 52.1974C53.8683 52.2614 54.067 52.1041 54.043 52.0308C54.0297 51.9934 53.8283 51.0961 53.5963 51.2988ZM54.9643 51.7641C54.935 51.6308 54.8977 51.3214 54.759 51.2828C54.583 51.2334 54.5337 51.4828 54.611 51.5734C54.667 51.6374 54.7723 51.7454 54.9643 51.7641ZM57.0137 49.6734C57.0737 49.5001 56.991 49.3254 56.8697 49.3148C56.7843 49.3081 56.6243 49.3774 56.567 49.4854C56.5163 49.5774 56.819 49.9521 56.9137 49.8974C56.9803 49.8601 56.975 49.7854 57.0137 49.6734ZM59.1643 47.4254C59.2443 47.0814 59.2243 46.9388 59.2243 46.7081C59.2243 46.6281 59.0097 46.5761 58.935 46.5801C58.8603 46.5828 58.8257 46.8428 58.8603 46.9148C58.9403 47.0854 59.167 47.1974 59.1643 47.4254ZM61.091 41.7348C60.9723 41.6388 60.5977 41.6721 60.5123 41.8255C60.459 41.9228 60.4817 42.1081 60.5417 42.1428C60.4817 42.1081 60.9443 42.1361 61.0497 42.0135C61.0843 41.9735 61.1577 41.7895 61.091 41.7348ZM62.2403 41.4388C62.1576 41.1948 62.0256 41.0095 62.0203 40.6855C61.659 40.7415 61.8696 41.6201 62.0056 41.6428C62.0763 41.6548 62.2803 41.5561 62.2403 41.4388ZM48.299 31.6161C48.0137 31.4775 47.9963 31.2481 48.115 30.9828C47.867 30.9975 47.7043 31.0255 47.5443 31.1481C47.8297 31.4335 48.119 31.6121 48.3297 31.8815C48.3963 31.8121 48.4537 31.7775 48.4257 31.7148C48.4137 31.6895 48.367 31.6495 48.299 31.6161ZM51.495 28.9428C51.2043 28.8708 51.163 28.6162 51.203 28.3068C50.9003 28.6295 50.7163 28.2548 50.1723 28.2548C50.2457 28.4148 50.243 28.4762 50.2537 28.5108C50.2857 28.6042 50.3217 28.5108 50.4243 28.4268C50.5003 28.7228 50.8003 28.8962 51.0817 29.0028C51.155 29.0295 51.2123 29.2335 51.3083 29.1668C51.391 29.1095 51.5337 29.0348 51.495 28.9428ZM57.159 28.0482L56.9163 27.1335C57.0003 27.0895 57.0497 27.0842 57.059 27.0522C57.0723 27.0082 57.0457 26.9362 57.0123 26.9282C56.9497 26.9135 56.907 26.9455 56.8617 26.9935C56.675 27.1868 56.8977 27.3775 56.935 27.5748C56.971 27.7668 56.855 27.9882 57.159 28.0482ZM51.5443 26.9988C51.679 26.5122 51.6203 25.9535 51.155 25.6988C50.655 25.4242 50.163 25.6135 49.9257 26.0935C49.651 26.6482 49.6043 27.4122 50.147 27.8415C50.1803 27.8682 50.163 27.9988 50.211 28.0228C49.999 27.9148 51.187 28.2988 51.5443 26.9988ZM55.4017 27.5882C56.047 27.3455 56.1443 26.6162 55.8897 26.0362C55.695 25.5908 55.123 25.1508 54.643 25.4948C54.1457 25.8535 54.1483 26.6935 54.4937 27.1588C54.6923 27.4255 55.079 27.7095 55.4017 27.5882ZM40.3097 24.4535C40.2377 24.4628 39.835 25.1842 40.0617 25.3282C40.195 25.2002 40.5364 24.4228 40.3097 24.4535ZM46.2537 26.4868C46.8164 26.3442 47.2404 25.8295 47.327 25.3215C47.3897 24.9575 47.2737 24.6668 47.0684 24.4722C46.8537 24.2708 46.5484 24.1935 46.1964 24.2895C45.4937 24.4815 45.0017 25.3148 45.219 26.0428C45.335 26.4295 45.8257 26.5948 46.2537 26.4868ZM59.5897 24.7762C59.7937 24.1682 59.4337 23.4668 58.8857 23.2268C58.4123 23.0202 58.023 23.3548 57.799 23.6708C57.519 24.0655 57.6897 24.5402 57.9817 24.8868C58.203 25.1495 58.4857 25.3135 58.815 25.2935C59.0883 25.2762 59.4643 25.1535 59.5897 24.7762ZM42.803 24.1108C43.4884 23.9308 44.131 23.4108 44.299 22.7242C44.3924 22.3428 44.2177 21.8828 43.8604 21.8068C43.2804 21.6842 42.843 22.0442 42.4724 22.4215C42.0924 22.8082 41.7897 23.3042 42.0857 23.8455C42.195 24.0442 42.5617 24.1735 42.803 24.1108ZM61.051 20.9788C61.2643 20.8082 61.3723 20.4762 61.3283 20.2455C61.2496 19.8322 60.8816 19.5508 60.5843 19.4775C60.1777 19.3762 59.7723 19.4348 59.515 19.7282C59.2017 20.0842 59.2657 20.5468 59.5937 20.8908C59.9417 21.2562 60.6123 21.3308 61.051 20.9788ZM73.719 19.5255C73.7763 19.0268 74.5829 19.4748 74.255 18.8988C74.203 18.8068 74.0443 18.7588 73.9003 18.7975C73.8803 18.8028 73.3576 19.4482 73.719 19.5255ZM49.6657 9.5002C49.5963 9.26553 49.4563 9.26953 49.3417 9.30553L48.5563 9.54553C48.971 9.65486 49.3057 9.50153 49.6657 9.5002ZM76.2656 21.2455V22.3655C76.0896 23.0348 76.0749 23.7708 75.7229 24.4082L75.4136 24.9682L74.723 26.0668C74.0003 25.9082 73.9176 26.3708 73.7843 26.0588C73.7523 25.9815 73.7456 25.8575 73.6963 25.9402C73.6803 25.9695 73.619 26.0362 73.5616 26.0602C73.4003 25.8935 73.4763 25.5882 73.391 25.3708C73.255 25.0268 73.099 24.6975 73.0216 24.3335C72.939 23.9535 72.7256 23.6668 72.5816 23.3188C72.455 23.0108 72.351 22.5935 72.027 22.3815C71.9176 22.3095 71.703 22.3108 71.6963 21.9988C71.5416 21.9682 71.4816 22.0708 71.4203 22.0455C71.611 22.1242 70.7096 21.5055 70.7723 21.4882C70.3736 21.4615 69.911 21.3442 69.5536 21.2735C69.107 21.1868 68.7003 21.2148 68.2723 21.1935L67.8496 21.1735C67.3736 21.1508 66.9376 21.1922 66.4643 21.1948C66.227 21.1948 66.0216 21.1228 65.7816 21.1468C65.3323 21.1908 64.883 21.1828 64.415 21.2788C64.1976 21.3228 63.8683 21.1802 63.6803 21.3228C63.4403 21.5068 63.2243 21.6375 62.9136 21.6575C62.8256 21.8322 62.7296 22.0922 62.6296 22.2415C62.599 22.2868 62.711 22.4468 62.6123 22.4762C62.5816 22.4855 62.5456 22.4868 62.4723 22.5442C62.599 22.5895 62.2096 23.8975 62.2083 23.9308C62.191 24.2682 62.2656 24.5628 62.0883 24.8842C62.007 25.0348 62.151 25.2628 62.115 25.4082C62.0096 25.3708 61.9176 25.2868 61.903 25.3548C61.8816 25.4562 61.8043 25.5068 61.8483 25.5975C61.8803 25.6642 61.9576 25.5335 62.075 25.6068C61.9163 25.7535 61.9163 25.8842 62.051 26.0482C61.9336 26.1428 61.823 26.0335 61.7603 26.1508C61.863 26.3615 62.015 26.1975 62.179 26.3375C61.927 26.5148 61.7443 26.6762 61.7336 26.9322C61.9443 26.8268 62.007 26.8815 61.9416 27.0322C61.6283 27.2615 61.859 27.5042 61.9056 27.7268C61.9696 28.0335 61.8123 28.3762 61.8376 28.6748C61.995 28.5895 62.1203 28.7002 62.0696 28.8322C62.0456 28.8975 62.035 28.9802 61.883 29.0402C62.1776 29.0775 62.0883 29.6401 62.0056 29.7388C62.323 29.9481 62.2083 30.2775 62.1443 30.5561C61.951 31.3975 62.3376 32.2068 62.1883 32.5895C62.0976 32.8215 62.2323 32.9708 62.383 33.1188C62.3696 33.2215 62.2323 33.3428 62.2656 33.4055C62.4296 33.7041 62.619 33.8161 62.499 33.8988C62.4363 33.9415 62.3416 33.9348 62.219 34.0361C62.2923 34.1801 62.4803 34.0948 62.5723 34.2095L62.3656 34.3361C62.3563 34.3415 62.4336 34.7108 62.4296 34.7028C62.4776 34.7855 62.6163 34.7708 62.6403 34.8375C62.6696 34.9188 62.6456 34.9868 62.6083 35.0161C62.523 35.0815 62.5296 34.8561 62.4123 34.8681C62.3976 35.1708 62.719 35.3561 62.7256 35.6401C62.731 35.9615 62.667 36.2401 62.855 36.5188C62.7456 36.5561 62.6923 36.5348 62.671 36.5615C62.5896 36.6601 62.8443 36.7695 62.803 36.8615C62.783 36.9041 62.683 36.9348 62.6776 36.9748C62.7323 37.0375 62.887 37.0868 62.8696 37.1161L62.8043 37.2281C62.931 37.3321 62.9043 37.5001 62.8683 37.6388C63.2523 37.8388 63.1923 38.8961 62.8483 39.0881C64.0096 39.5028 62.5216 40.1668 63.3576 40.7028C63.5563 40.8308 63.359 41.0001 63.3976 41.0895C63.5776 41.5241 63.3176 41.8935 63.2216 42.2588C63.1763 42.4294 63.415 42.8001 63.0923 42.9801C63.4936 43.3828 63.2856 43.7628 63.1616 44.1894C63.0363 44.6188 62.919 45.0041 62.755 45.4014C62.595 45.7868 62.727 46.4254 62.2936 46.7054L62.2216 47.2641C62.211 47.3428 62.339 47.4081 62.2923 47.4534C62.2363 47.5068 62.1376 47.5054 62.099 47.5788C62.0696 47.6321 62.1883 47.7214 62.1936 47.7788C62.2003 47.8574 62.171 47.9148 62.0816 47.9854C62.2483 48.0508 62.1923 48.6761 62.155 48.6881C62.099 48.7068 62.0403 48.7001 61.9563 48.6721C61.8896 48.7081 61.9136 48.7668 62.0003 48.8001C62.1643 48.7334 61.7123 49.6908 61.5496 49.4428C61.551 49.5041 61.655 49.5694 61.671 49.6628C61.6816 49.7228 61.603 49.7934 61.5603 49.8774L61.0603 50.8788C60.9003 51.1988 61.2216 51.1081 60.439 52.6281L60.155 53.1801C59.955 53.5694 59.7617 54.0014 59.527 54.3561C59.3177 54.6734 59.2377 54.9908 58.9723 55.2788C58.5497 55.7414 57.9483 57.1947 57.4523 57.8347L57.1963 58.1654C56.979 58.4467 56.8017 58.8974 56.551 59.0241C56.2737 59.1641 56.159 59.3921 55.9683 59.6321C55.2617 60.5241 55.579 59.8667 54.9323 60.5694C54.7723 60.7441 54.5643 60.8681 54.3897 61.0694L53.939 61.5841C53.8163 61.7254 53.5857 61.8281 53.4243 61.9734C53.351 62.0374 53.1737 61.9121 53.099 61.9667C53.051 62.0014 53.031 62.1201 52.963 62.1721L52.443 62.5694C51.823 62.1334 52.299 63.0374 51.455 62.9521C51.139 62.9201 51.4603 63.4534 50.5923 63.6441C50.5017 63.6641 50.407 63.5134 50.3137 63.5761C50.251 63.6174 50.147 63.7427 50.079 63.8174C49.7523 63.7294 49.5977 64.0481 49.403 64.2107C48.999 64.5507 48.3483 64.4614 47.9243 64.6814C47.4323 64.9387 46.6417 65.3214 46.0977 65.4347C45.851 65.4867 45.5457 65.8267 45.3017 65.5641L44.9297 65.1614C45.0484 64.8761 44.6804 64.5241 44.7177 64.2881C44.811 63.7174 45.4124 62.1721 45.599 61.3734C45.795 60.5361 46.1097 59.8334 46.123 59.7641L46.2364 59.2214C46.1844 59.0267 46.2524 59.0601 46.3564 59.2281C46.3297 58.6507 46.9324 57.4867 46.5537 57.2574C46.2897 57.0961 45.8324 57.3014 45.7257 57.5321C45.6577 57.6761 45.795 57.8774 45.751 57.9907C45.4217 58.3401 45.5097 58.7281 45.4457 59.1254C45.3404 59.7881 44.9284 60.3841 44.8657 61.0561C44.8524 61.1947 44.4804 62.1641 44.471 62.1814C44.2444 62.6227 44.1844 63.0921 44.0524 63.5574C43.8777 64.1694 43.595 64.7281 43.4177 65.3307L43.2684 65.8334L43.0204 66.3694C42.9497 66.5201 42.8884 66.6667 42.851 66.8507C42.783 67.1747 42.5497 67.4254 42.4604 67.7361C42.315 68.2441 41.5697 69.9334 41.1977 70.34C40.8497 70.72 40.2364 70.756 39.751 70.6987C39.2617 70.6414 38.7937 70.6534 38.3084 70.536C38.067 70.4774 37.8097 70.2974 37.4844 70.344C37.287 70.3734 36.9617 70.2747 36.723 70.2547C36.3777 70.2267 36.0924 69.8667 35.755 69.812C35.0004 69.688 35.195 68.6067 35.163 68.1881C35.1084 67.4547 34.5657 65.3734 34.383 64.3627L34.091 62.7561C34.0417 62.4854 33.963 62.1067 33.8444 61.8614C33.7071 61.5774 33.8404 61.4334 33.8057 61.2067L33.7097 60.5921C33.6631 60.2934 33.7271 60.0174 34.0577 59.8121C33.9231 59.7081 33.8391 59.6361 33.8324 59.5401C33.8271 59.4654 33.9311 59.3921 33.9444 59.3121C33.9844 59.0854 34.1217 59.1281 34.2644 59.0801C34.471 59.0107 34.659 58.7481 34.8817 58.7441C35.1884 58.7387 35.539 58.6801 35.7457 58.4241C36.331 58.5481 36.2244 58.1067 37.1204 58.1774C37.2044 57.7894 37.643 57.9841 38.603 57.3321C38.9524 57.0961 39.4564 57.0441 39.7537 56.7654C39.983 56.5521 40.2284 56.5041 40.4644 56.3387C40.675 56.1907 40.8257 56.0694 41.039 55.9667C41.6577 55.6668 41.9084 55.2201 42.4097 55.0681C43.3297 54.7894 43.399 54.1374 43.7124 53.9868C43.8537 53.9201 44.843 53.1348 44.8924 53.0854L45.6057 52.3668C45.795 52.1774 46.0324 52.1801 46.2204 51.9174L47.1004 50.6894C47.499 50.1321 47.9563 49.6281 48.323 49.0428C48.5297 48.7094 48.8497 48.4854 49.0363 48.1361C49.4923 47.2814 49.995 46.4841 50.251 45.5454L50.7857 43.5854L50.9363 42.6841C50.975 42.4468 51.1057 42.1454 51.0857 41.9175C51.051 41.5148 50.9403 41.1761 51.0363 40.7735C51.095 40.5241 51.0163 40.1695 50.999 39.9241C50.6643 40.0788 50.295 37.9388 50.323 37.9815C50.115 37.6575 50.0777 36.4761 49.8923 36.2668C49.6283 35.9681 49.635 35.6188 49.4963 35.3241C49.2977 34.9001 49.0643 34.5455 48.955 34.0681C48.9017 33.8375 48.703 33.6188 48.6563 33.3455C48.635 33.2241 47.8577 32.8388 48.3563 32.4615C48.0497 32.5241 47.9257 32.1908 47.6963 32.1055C47.491 32.0308 47.4524 31.9028 47.323 31.7655L46.6764 31.0708C46.787 31.1895 45.711 30.4815 45.751 30.6375C45.739 30.5921 45.747 30.4441 45.699 30.4215C45.123 30.1441 45.1804 29.8748 43.947 29.3655L41.879 28.5122C41.4804 28.3468 41.0697 28.2455 40.6564 28.1015C39.0204 27.5322 39.1084 28.2055 38.799 28.0415C38.6564 27.9668 38.5284 27.9535 38.4217 27.9602C37.9564 27.2762 38.5417 26.5748 38.923 26.0335C38.9497 25.9962 38.7857 25.9522 38.815 25.9335C38.8484 25.9122 38.987 25.8708 39.0124 25.8428C39.151 25.6908 39.143 25.4042 39.2577 25.2295C39.8177 24.3762 39.899 23.4175 40.1577 22.7588L40.5377 21.7922C40.4537 22.0082 41.115 19.9535 41.075 20.2562C41.1217 19.8962 41.2257 19.5602 41.4084 19.1975C41.3857 19.2442 42.2444 16.7428 42.271 16.6455C42.3457 16.3762 42.3257 16.1508 42.5644 15.9588C42.6257 15.9095 43.0657 15.1082 43.1364 14.8482C43.2084 14.5895 43.2924 14.4589 43.423 14.2575C43.7217 13.7922 43.8817 13.2495 44.2257 12.7989C44.6564 12.2335 44.699 11.6309 45.523 10.9242C45.7124 10.7615 45.8124 10.6682 45.9244 10.4509C46.0564 10.1949 46.5244 10.1669 46.667 9.9242C46.7884 9.71753 46.8217 9.68953 47.0297 9.6362C47.3324 9.5602 47.591 9.2322 47.9043 9.17353C48.1497 9.12687 48.3097 9.02287 48.5097 8.92153C48.7883 8.7802 49.1403 8.7762 49.4097 8.60687C50.0763 8.18687 50.8737 8.29754 51.619 8.1722C51.863 8.1322 51.9603 8.08287 52.2363 8.13087C52.307 8.14287 53.9337 7.90154 54.063 8.50687C54.1123 8.18687 54.8097 8.5322 55.031 8.61487C55.315 8.7202 55.655 8.6442 55.927 8.78553C56.1523 8.90287 56.319 9.06153 56.5923 9.0562C56.8497 9.04953 56.9643 9.58153 57.1363 9.4602C57.203 9.41353 57.2017 9.31753 57.2843 9.2682C57.4777 9.9282 57.4243 9.21087 57.7417 9.87753C58.2203 9.55087 58.295 10.3175 59.131 10.8029C59.2523 10.8735 59.4457 10.8135 59.487 10.9389L59.603 11.2975C59.6443 11.4255 59.7883 11.4962 59.779 11.6482C59.8563 11.5735 59.8697 11.5122 59.8897 11.4775C59.971 11.3322 60.1577 11.8615 60.1523 11.8735C60.1137 11.9469 60.011 11.9402 59.9377 11.9962C59.999 12.1349 60.1803 12.0989 60.255 12.2029C60.4097 12.4175 60.2283 12.6442 60.211 12.8589C60.2017 12.9775 60.3043 13.0775 60.2603 13.2109C60.2337 13.2909 60.1003 13.3109 60.047 13.3922C59.483 14.2549 57.975 15.4562 57.0403 14.4295C57.1243 14.5215 55.435 12.7815 55.551 12.8882L54.7137 12.1175C54.4683 11.8922 53.455 11.5389 52.935 11.4535C52.439 11.3722 51.8937 11.5335 51.4003 11.5375C51.0683 11.5402 50.8043 11.7122 50.5083 11.7669C49.791 11.9002 49.1803 12.1442 48.6417 12.6695C48.415 12.8909 48.019 13.0455 47.9323 13.3722C47.871 13.6069 47.623 13.6842 47.515 13.8629C47.4124 14.0349 47.3897 14.2989 47.1897 14.4695C46.8977 14.7175 46.6457 15.5429 46.687 15.4549C46.3484 16.1722 46.1377 16.8242 46.0764 17.6202C45.943 19.3535 46.2484 18.5095 46.435 19.8482C46.7617 19.9548 46.6297 20.3855 46.811 20.5895C47.007 20.8082 47.4857 21.1802 47.5297 21.4628C47.5604 21.6095 47.9203 21.6282 47.8337 21.9148C48.059 22.0588 48.335 22.1842 48.5643 22.3468C49.3243 22.8868 50.6803 23.0588 51.6377 23.0775C52.047 23.0855 52.4057 23.1415 52.8057 23.0522C53.2097 22.9615 54.5177 22.7522 54.839 22.4815C55.0923 22.2695 55.8457 22.2535 56.8723 20.6055C57.1737 20.1215 57.275 19.4815 57.4963 18.9202C57.5697 18.7322 57.4283 18.5242 57.7043 18.4508C57.8203 17.6988 57.4723 17.5375 57.931 17.3242C57.6977 17.0962 57.735 16.8255 57.8977 16.5868C58.0843 16.3148 58.2563 16.1842 58.5563 16.0642C60.0003 15.4855 59.4443 15.1229 60.155 15.3002C60.195 15.1669 60.1603 15.1002 60.1657 14.9669C60.803 15.0935 61.323 13.7042 62.3136 13.2469C62.915 12.9709 63.8256 12.7442 64.4336 12.7389C64.9363 12.7349 65.4163 12.6122 65.9003 12.6602C66.771 12.7469 67.871 12.8082 68.691 13.1642C68.8883 13.2495 68.943 13.3455 69.203 13.3709C69.555 13.4069 69.8843 13.7335 70.239 13.8415C71.0976 14.1029 71.7536 14.7642 72.6496 15.1469C72.871 15.3082 72.9496 15.5948 73.187 15.7428C73.539 15.9628 74.8483 17.5295 75.1336 18.0548C75.6349 18.9802 75.5176 18.4148 75.9229 19.6682C76.0269 19.9922 76.0536 20.3362 76.1403 20.6748C76.1909 20.8748 76.0856 21.1215 76.2656 21.2455Z" fill="#243D13"/>
<path d="M22.9925 58.2215C23.1192 58.2255 23.2245 58.1201 23.3299 58.0295C23.1912 57.7815 22.9312 57.8481 22.6899 57.8361C22.4805 57.8255 22.4165 57.9268 22.3859 58.0921C22.3699 58.1788 22.4205 58.2908 22.5685 58.2455C22.6032 58.2348 22.5379 58.1055 22.5552 58.0748C22.5725 58.0441 22.9485 58.0961 22.8979 58.0788C22.9312 58.0908 22.9339 58.2201 22.9925 58.2215ZM26.4365 51.2388C26.5845 51.2375 26.5525 51.0068 26.6058 50.9015C26.6538 50.8028 26.7885 50.7802 26.8005 50.6802C26.8085 50.6122 26.7525 50.5242 26.7365 50.3762L25.9032 51.1921C26.0592 51.2361 26.0965 51.0881 26.1845 51.0801C26.2778 51.0735 26.3378 51.2401 26.4365 51.2388ZM28.6685 54.9161L28.6005 55.2188C27.7765 54.7748 27.5778 55.4295 26.7912 54.9975C26.6032 55.0468 25.7165 55.3828 25.5485 55.1588C25.6392 54.9481 25.5992 54.6028 25.7725 54.4961L26.3219 54.1588C26.5365 54.0281 26.6672 53.7801 26.9045 53.6521C26.9325 53.6375 26.8912 53.5001 26.9045 53.4761C26.9258 53.4401 27.0298 53.4801 27.0805 53.4415C27.5312 53.0895 27.8872 52.5561 28.4218 52.3068C28.8885 52.0908 29.2232 51.8508 29.5472 51.4521C29.4392 51.5855 30.5032 50.5402 30.4672 50.5682C30.9458 50.2015 30.8992 49.8228 31.0792 50.0308C31.1058 50.0602 31.1605 50.0495 31.1858 50.0228C31.2178 49.9868 31.2098 49.9002 31.1378 49.7962C31.2218 49.7322 31.2272 49.8575 31.3552 49.9242C31.4312 49.6122 31.8458 49.5028 31.9752 49.2602C32.1152 48.9962 32.1938 48.9482 32.3952 48.7748L33.2778 48.0148C33.4378 47.8775 33.5565 47.4682 33.7965 47.5282C33.9752 47.5735 33.9272 47.2975 34.0965 47.2375C34.3525 47.1082 34.5512 46.9348 34.6352 46.6682L34.8032 46.7748C34.8565 46.8082 35.0205 46.7455 34.9938 46.6975C34.9645 46.6442 34.8912 46.6188 34.8752 46.5962C34.8618 46.5775 34.8792 46.5335 34.9032 46.5322C35.3618 46.5215 35.1285 46.1935 35.5005 46.0642C35.6032 46.0282 35.7378 46.0708 35.7685 45.9842L35.8925 45.6348C35.9298 45.6162 35.9765 45.7162 36.0152 45.7215C36.0645 45.7268 37.6285 44.5148 37.8098 44.2748C37.5858 44.0468 35.5472 44.5828 36.2578 44.4948C36.2192 44.5002 36.1912 44.2815 36.1525 44.2895C35.6618 44.4988 35.6912 44.1162 35.2818 44.9828C35.1272 45.3082 34.7218 45.3295 34.5232 45.5722C34.3898 45.7348 34.2992 45.9055 34.1298 46.0508L33.5792 46.5242L32.9058 47.1455C32.5765 47.4495 32.1565 47.7135 31.7805 47.7562C31.4485 47.7948 30.9605 48.3788 30.5605 48.7762L30.0205 49.3135C29.6698 49.3882 29.4938 49.6655 29.4712 50.0162L29.3565 49.8575C29.3245 49.8148 29.2658 49.8628 29.2405 49.9068C29.2272 49.9308 29.2605 49.9535 29.2778 50.0228C29.0872 50.0242 28.9138 50.6068 28.8205 50.3735C28.7992 50.3202 28.8298 50.2268 28.6698 50.1762C28.7392 50.5042 28.5192 50.5788 28.3498 50.7522C28.2032 50.9041 28.1338 51.1681 27.8805 51.1788C27.8925 51.2655 27.9298 51.3268 27.9178 51.3561C27.9032 51.3895 27.8245 51.4655 27.7978 51.4108C27.7605 51.3308 27.7618 51.2561 27.7272 51.2281C27.7032 51.2081 27.6312 51.2401 27.6258 51.2708C27.6058 51.3801 27.7192 51.5201 27.6552 51.5521C27.6312 51.5641 27.5858 51.6561 27.5592 51.6468C27.5192 51.6348 27.4978 51.4775 27.4605 51.5001C27.3792 51.5495 27.3952 51.6441 27.3685 51.7001C27.3525 51.7335 27.2552 51.6828 27.1992 51.7175C27.2165 51.8988 27.0578 52.0201 26.8938 52.0588C26.5058 52.1481 26.3912 52.4441 26.1645 52.6335C26.1325 52.6588 25.4499 53.0281 25.3459 53.3415C25.3939 53.1961 24.5712 54.5948 24.6045 53.9841C24.2459 54.2081 24.0992 54.5521 23.8672 54.9268C23.7165 55.1681 23.1299 55.2615 22.8779 55.1815C22.7112 55.1295 22.6459 55.0535 22.4645 55.1241C21.8032 55.1241 21.7005 54.7268 20.9472 54.8348C20.8019 54.8561 20.7565 54.6228 20.7352 54.5281C20.7085 54.4135 20.7712 54.1935 20.9072 54.0935C21.4752 53.6721 21.8872 53.1375 22.3632 52.6188C22.6045 52.3575 22.8619 52.1695 23.0499 51.8455C23.1765 51.6255 23.5445 51.5148 23.6179 51.2655C23.6712 51.0855 23.7392 50.9921 23.8779 50.8628L24.4285 50.3495C24.5885 50.2015 24.7445 49.9682 24.8992 49.8175L25.8019 48.9375C26.1565 48.5922 26.3992 48.2602 26.7912 47.9442C26.9938 47.7802 27.2765 47.4842 27.5138 47.2255L28.4472 46.2135L30.3405 44.2348C31.0512 43.4895 31.5618 42.9028 32.2858 42.2202C32.6645 41.8642 32.8792 41.3615 33.4565 41.2055L33.5085 39.7948C33.2512 39.9535 33.2778 40.2055 33.1405 40.3922C32.7578 40.5095 32.5098 40.7842 32.2605 41.0495C31.6552 41.6962 30.9578 42.0135 30.2872 42.5268C30.4098 43.3282 29.9112 42.9402 29.6378 43.5908C28.9218 43.5295 28.8218 44.4655 28.4392 44.8535C28.3538 44.9402 28.0978 44.9122 28.0498 45.1042C27.9525 45.0682 27.8765 44.9682 27.7672 45.0508C27.8365 45.1588 27.9458 45.1815 28.0578 45.3015C27.7938 45.5828 27.5085 45.7855 27.2058 46.0082C27.1658 46.0375 27.2205 46.1695 27.1725 46.1908C27.1352 46.2082 27.0405 46.1815 26.9992 46.2202C26.8272 46.3788 26.8178 46.6522 26.5912 46.7482C26.5312 46.7335 26.4552 46.6442 26.4298 46.6162C26.4045 46.5882 26.3418 46.7015 26.3392 46.7602C26.3392 46.7988 26.4872 46.7575 26.4938 46.8135C26.4072 46.9055 26.3645 47.0562 26.3245 47.1255C25.9539 46.9562 25.6392 47.4682 25.4605 47.8068C25.4139 47.8935 25.1965 47.9175 25.1659 48.0788C25.1232 48.3002 24.8285 48.2055 24.7659 48.2975C24.6752 48.4295 24.4819 48.5402 24.4219 48.6415C24.0939 49.1895 23.6299 49.6282 23.2072 50.1028C23.0445 50.2842 22.9525 50.4255 22.7312 50.4322C22.6352 50.5455 22.6379 50.9188 22.4272 51.0041C22.2672 50.7922 22.1872 50.9561 22.3539 51.1268L21.6325 51.9748C21.5045 52.1255 21.1979 52.0855 21.0885 52.2335C21.0765 52.3041 21.1485 52.4308 21.0845 52.4881C21.0445 52.5241 20.9272 52.5908 20.8979 52.5188C20.8805 52.4775 20.9445 52.4188 20.9339 52.3975C20.8205 52.1935 20.2139 53.2708 20.0259 53.4441C19.9365 53.3708 19.9485 53.2788 19.8659 53.2348C19.5725 53.7975 19.2632 54.2655 18.8765 54.6828C18.8205 54.4748 18.7072 54.4575 18.7019 54.6761C18.5099 54.8148 18.2525 54.7375 18.0352 54.7615C17.9659 54.7695 17.8685 54.9801 17.7659 54.9695C17.6859 54.9601 17.5925 54.8495 17.4752 54.8228C17.2579 54.9655 16.3005 55.1721 16.0579 54.8348C15.7219 54.3695 16.5419 53.8788 16.8219 53.4601L17.4979 52.4548L18.4419 51.2215L19.0912 50.3788C19.1485 50.3042 19.5699 50.0188 20.1979 49.1682C20.5725 48.6602 20.9912 48.1762 21.4392 47.7375C21.7272 47.4548 21.8899 47.1615 22.1205 46.8442C22.5952 46.1908 23.2832 45.7042 23.6845 44.9895C23.8032 44.7802 23.8485 44.6442 24.0619 44.4962C24.3192 44.3175 25.2259 43.0908 25.4219 42.9362C25.6819 42.7308 26.4778 41.9988 26.0019 41.7148C25.8405 41.6188 25.7925 41.4455 25.7179 41.2935C25.4112 41.3975 25.3139 41.7162 25.0219 41.8388C24.7539 41.9508 24.3632 42.0042 24.1712 42.2042C24.1819 42.2762 24.2325 42.4348 24.1885 42.4762C24.1552 42.5068 24.0259 42.4375 24.0165 42.4988C24.0019 42.5868 24.0432 42.6508 24.0392 42.7242C24.0325 42.8135 23.9005 42.7242 23.8285 42.7548C23.6779 42.8175 23.7285 43.0722 23.6019 43.1575C23.4019 43.2922 23.3872 43.4855 23.2779 43.6442C22.8165 44.3042 22.4219 44.4535 22.0952 45.0482C21.8739 45.4522 20.9965 45.6842 21.2352 46.0575L20.4059 46.8295C20.2299 46.9935 20.2179 47.3508 19.8405 47.3682L19.9552 47.5602C19.9872 47.6122 18.9952 48.6575 18.8925 48.7828C18.6605 49.0655 18.5699 49.4855 18.2405 49.6535C18.3045 49.7628 18.3339 49.8375 18.3072 49.8975C18.2219 50.0975 17.7699 49.8815 18.0539 50.1642L17.8365 50.2202C17.7485 50.2428 17.8645 50.4735 17.8272 50.5268C17.6925 50.7148 17.4499 50.8335 17.4285 51.1081C17.2805 51.1695 17.0832 51.1361 17.0179 51.2268C16.9632 51.4655 16.3005 52.2775 16.1072 52.3615C16.0432 52.3908 16.1179 52.5668 16.1099 52.6455C16.0992 52.7455 15.8472 52.7895 15.8245 52.8735C15.7645 53.1055 15.5632 53.1175 15.4432 53.2615C15.4739 53.2241 15.1952 54.0721 14.5832 54.4908C14.5219 54.5335 14.5392 54.7095 14.4499 54.7188C14.3565 54.7295 14.2872 54.6788 14.1512 54.6801C14.1539 54.8441 14.2792 54.8508 14.3032 54.9935C14.1312 55.0415 13.8699 55.2108 13.6952 55.1135C13.5165 55.0135 13.3392 55.0868 13.1912 55.0441C12.7072 54.9068 12.3166 54.8588 11.8072 54.9721C11.4992 55.0401 11.0832 54.5721 11.1806 54.2655C11.3086 53.8735 11.6726 53.6161 12.0259 53.4908C12.1886 53.4335 12.1819 53.2988 12.2579 53.2455C12.7059 52.9228 13.5899 51.6588 13.4459 51.7681C13.6792 51.5895 13.6632 51.4521 13.7965 51.2361C13.9499 50.9881 14.4219 50.8428 14.3405 50.3442C14.4485 50.4322 14.4512 50.5122 14.5512 50.5268C14.6592 50.3242 14.7685 50.2162 14.8272 50.0202C15.2925 49.9895 15.4112 49.5228 15.6419 49.3002C15.8845 49.0655 15.9552 48.8095 16.1405 48.5455C16.6005 47.8868 17.9125 46.6522 17.8005 45.6922C17.9605 45.6802 18.0432 45.6522 18.0939 45.6135C18.2685 45.4842 18.0312 44.5882 18.2632 45.3882C18.4939 45.2588 18.5565 44.9975 18.6965 44.8268L19.5845 43.7375C19.5619 43.5842 19.6552 43.4962 19.7059 43.7135C19.7645 43.7415 19.7739 43.6308 19.7872 43.5682C19.7992 43.5175 19.6979 43.4948 19.6739 43.3908C19.8379 43.4108 19.9392 43.4455 20.0592 43.3802C20.1419 43.3348 20.0979 43.0575 20.1885 43.0215C20.5259 42.8828 20.9899 42.0722 21.1499 41.8495C21.1645 41.8282 22.2019 40.4788 21.9965 40.6495L22.4205 40.2962C22.5672 40.1722 22.7565 39.9962 22.6392 39.7362C22.7432 39.7442 22.7965 39.7442 22.8539 39.7175C22.9179 39.6882 22.8632 39.5682 22.9112 39.5175L23.4285 38.9762C23.4565 38.9468 23.3952 38.8455 23.4005 38.8002C23.4072 38.7508 23.5365 38.8028 23.5632 38.7642C24.2992 37.7469 23.8259 38.3455 23.9005 37.9989C23.9165 37.9255 24.0432 37.9962 24.1192 38.0042L25.0445 36.7989C25.0925 36.7362 24.9872 36.5109 25.0805 36.4869C25.4085 36.4042 25.5085 36.2015 25.6459 35.9655C25.7845 35.7282 26.2592 35.6269 26.3245 35.3149C26.3672 35.1135 26.6912 34.7042 26.8578 34.5282L27.9845 33.3442C28.1525 33.1682 28.3285 33.1082 28.4845 32.8815C28.7098 32.5535 29.2578 32.4415 29.4232 32.1429C29.2272 31.7575 30.4312 31.3495 30.6898 31.3389C30.7685 31.4362 30.9205 31.5949 30.9658 31.7042C31.1218 32.0775 30.7285 33.4562 30.7258 33.4802C30.6845 33.9122 30.6458 34.2549 30.5552 34.6549C30.4992 34.8962 30.5658 35.2975 30.5325 35.6042C30.4938 35.9615 30.6965 36.3349 30.5525 36.6922C30.5045 36.8135 30.3872 36.9202 30.4178 37.0202C30.4592 37.1522 30.7498 37.5589 30.7792 37.5802C30.8498 37.6335 30.9472 37.5375 31.0498 37.5349L32.2658 37.4935C32.3018 37.4602 32.3138 37.3922 32.3405 37.3789C32.3832 37.3549 32.4952 37.5295 32.5312 37.5055C32.7325 37.3735 32.9738 37.4175 33.1698 37.4375C33.3712 37.4589 33.6178 37.2255 33.8458 37.3789C34.0565 37.5202 34.2245 37.3162 34.3778 37.2829L35.0218 37.1389C35.2152 37.0962 35.4685 37.2935 35.6738 37.1149C36.0578 37.4882 35.9552 38.0828 35.8192 38.5588C35.7045 38.9655 35.7898 39.3708 35.6032 39.7588C35.4512 40.0722 35.6605 41.1388 35.5138 41.6388L35.9645 42.0762C36.1992 42.0628 36.5818 41.9335 36.6352 42.0908L36.6872 42.2415C36.6645 42.1748 37.3205 42.1228 37.4992 42.1002C37.6592 42.0802 37.8472 42.2428 38.0112 42.1615C38.0805 42.1268 38.1845 42.0762 38.2485 42.0708C38.3125 42.0655 38.3898 42.2588 38.4632 42.2415C38.7125 42.1748 38.9125 42.0175 39.1832 42.1415C39.3525 42.2188 39.4058 41.9615 39.7151 41.8708C39.7871 41.8482 39.8271 42.0402 39.9098 42.0442C40.0845 42.0522 40.3565 41.7548 40.5165 41.8988C40.6005 41.9748 40.8071 42.1348 40.8485 42.2575C40.9165 42.4628 40.8618 42.8882 40.7378 43.0748C40.4538 43.5015 40.3965 43.8895 40.3605 44.3695L40.2578 45.7348C40.2312 46.0802 40.1751 46.5162 40.6391 46.5935C40.7018 46.6042 43.1471 46.8842 43.0925 46.9162L43.3205 46.7775C43.3698 46.7468 43.5258 46.9682 43.5898 46.9402C43.7525 46.8695 43.8365 46.9402 43.9871 46.9575C45.0765 47.0828 45.0738 46.8388 45.7925 46.9602C45.6525 46.9362 46.2538 46.9108 46.4445 46.7655C46.3885 46.8082 47.2351 46.9148 47.5485 46.7415C47.7071 46.6548 48.0871 46.9642 48.0298 47.1255L47.6165 47.6282C47.7858 47.9935 47.5871 48.2402 47.3725 48.5082C47.1085 48.8362 46.8485 49.1202 46.5631 49.4308C45.5631 50.5202 46.1605 50.2242 45.0725 51.0402C44.8578 51.2028 44.7738 51.5321 44.4578 51.6335C44.1978 51.7188 44.0351 52.0495 43.8138 52.1428C43.4471 52.2975 43.2631 52.5641 43.0018 52.8415C42.9285 52.9201 42.7178 52.8801 42.5965 53.0681C41.4031 54.9081 40.8111 53.9681 40.7138 54.8028C40.7151 54.7895 39.9165 55.2081 39.9338 55.1841C39.7565 55.4281 39.5178 55.4775 39.2365 55.5681C39.2498 55.5641 37.8232 56.2441 37.9072 56.1308C37.8765 56.1721 37.9512 56.1948 38.0178 56.2895C37.1818 56.1681 37.0152 57.1241 36.2952 56.9655C36.2512 57.0215 36.1965 57.1268 36.1898 57.1655C36.1738 57.2508 36.0005 57.1308 35.9498 57.1695C35.5712 57.4575 35.1538 57.5588 34.6912 57.6308C34.1778 57.7108 33.6965 57.8508 33.2112 57.9655C32.9378 58.0295 32.6645 57.9935 32.3685 58.1228C32.0192 58.2748 31.5632 58.1575 31.1872 58.2588C30.6658 58.4001 30.1752 58.4201 29.6485 58.4655C28.6178 58.5521 27.6298 58.7308 26.5885 58.6828C25.9792 58.6548 25.4045 58.6908 24.7979 58.6935C24.6232 58.6948 24.4205 58.7601 24.2579 58.6361C23.9792 58.9335 23.6699 58.8415 23.3352 58.7068C23.0832 58.7295 21.8939 58.9268 21.7685 58.6668C21.8179 58.8895 21.0165 58.7521 20.7632 58.7508C20.6139 58.7481 20.4725 58.9561 20.3499 58.7361L20.2805 58.9321C20.2565 59.0001 20.1805 58.9801 20.1739 58.9268L20.1512 58.7321C19.4792 59.2455 19.4885 58.6068 18.3485 58.9321C17.9219 59.0535 17.4019 58.8041 16.9899 58.9561C16.7072 59.0615 16.5392 59.0041 16.3419 58.9428C15.3179 59.1228 13.0365 58.9015 12.2446 58.9148L10.7739 58.9401C10.3539 58.9468 9.94856 58.9721 9.52722 58.8321C9.44856 58.8068 8.47389 58.9521 8.21923 58.5161C8.15789 58.4881 8.04456 58.5015 8.01123 58.4535C7.9539 58.3721 8.03923 58.2401 8.0379 58.1801C8.02056 57.6748 8.37123 57.5041 8.67123 57.2921C8.97256 57.0788 9.13923 56.5841 9.57122 56.5401C9.93656 56.5028 10.2406 56.2881 10.4166 56.0508C10.4886 56.1335 10.4966 56.2428 10.5379 56.2855C10.6112 56.3588 10.6939 56.2575 10.7899 56.2268C10.9219 56.1841 11.2459 56.4841 11.4166 56.2828C11.4606 56.2321 11.3912 56.1535 11.4272 56.0415C11.5406 56.1335 11.6486 56.1668 11.7592 56.2468C11.8739 56.3295 11.9846 56.0948 12.1352 56.1441C12.2726 56.1881 12.3472 56.3241 12.4859 56.2908C12.7405 56.2308 12.6899 55.9401 12.8365 55.9868C12.9179 56.0121 12.7526 56.3668 12.9032 56.2775C12.9259 56.2628 12.9539 56.2001 12.9779 56.1655C13.0512 56.0588 13.1405 56.0948 13.1832 56.1335C13.2592 56.2041 13.2725 56.2801 13.3299 56.3815C13.3619 56.4015 13.4459 56.3081 13.4379 56.2668C13.4312 56.2308 13.3859 56.1348 13.4245 56.0881L14.1792 56.2748C14.2392 56.2895 14.2565 56.3975 14.3099 56.4175C14.5259 56.4975 14.5365 56.2708 14.7245 56.2535C14.7992 56.2468 14.8392 56.4601 14.9819 56.4788C15.0285 56.4855 15.0779 56.3801 15.1445 56.3708C15.2485 56.3548 15.3285 56.5028 15.4099 56.4801C15.5232 56.4481 15.5939 56.3068 15.6819 56.2401C15.9325 56.3401 16.2752 56.3855 16.5245 56.2561C16.5965 56.3215 16.6605 56.4255 16.7219 56.4588C16.8045 56.5028 16.8952 56.3815 16.9805 56.3895C17.0419 56.3948 17.0925 56.5415 17.1485 56.5615C17.1965 56.5788 17.5725 56.3348 18.0045 56.3841C18.6365 56.4575 18.7819 55.9095 18.7339 56.5015C18.8819 56.5535 18.8592 56.3441 18.9592 56.2988C19.0485 56.2588 19.1405 56.3108 19.1579 56.3481C19.1712 56.3788 19.0965 56.4028 19.0472 56.4855C19.2819 56.4961 19.5325 56.4095 19.8019 56.4015C19.8752 56.3988 21.0112 56.4788 20.8712 56.2761C20.9365 56.3228 20.9259 56.5641 21.0005 56.4761C21.0579 56.4095 21.1112 56.3508 21.1512 56.2441C21.2632 56.2601 21.3019 56.3815 21.4365 56.4895C21.6099 56.2215 21.7872 56.3721 21.9979 56.3788C22.0325 56.3788 23.2832 56.2175 23.4819 56.3375C23.5805 56.2121 23.6032 56.1175 23.6939 56.0455C23.7579 56.2308 23.7725 56.3521 23.8659 56.3775C24.0992 56.4428 24.3352 56.0721 24.4339 56.0815C24.5699 56.0961 24.6779 56.2188 24.6779 56.3975C24.8165 56.3761 24.7712 56.2641 24.8005 56.1388C24.9325 56.2628 25.1339 56.5188 25.3419 56.3988C25.4445 56.3401 25.5019 56.2241 25.5899 56.1961C25.7112 56.1575 25.7672 56.3215 25.8885 56.3868C26.0325 56.4641 26.2472 56.2295 26.3525 56.1468C26.3978 56.2508 26.4179 56.3361 26.5045 56.3988C26.7858 56.1548 27.0952 56.2988 27.4152 56.3681L27.6698 56.4241C27.7645 56.4441 27.8565 56.2081 27.9485 56.2228C28.1232 56.2481 28.2365 56.5055 28.3872 56.3401C28.2245 56.2281 28.2258 56.1668 28.3672 56.1868C28.4512 56.2841 28.5258 56.3775 28.6125 56.3815C28.7018 56.3855 28.7698 56.2348 28.8538 56.1188C28.9738 56.1295 28.9205 56.2721 29.0058 56.4001C29.0792 56.3308 29.0712 56.2508 29.1245 56.1855C29.0792 56.2415 30.2832 56.1228 29.8685 56.2095L30.6725 56.0401C30.7045 56.0335 30.7112 56.2095 30.7432 56.1961C30.7805 56.1828 30.8338 56.0748 30.8845 56.0775C31.0032 56.0855 31.0938 56.1455 31.1738 56.1561C31.3192 56.1775 31.3325 55.9361 31.4272 55.8855C31.7138 55.7348 31.8685 55.8188 32.1485 55.7975C32.7152 55.7548 33.1992 55.6135 33.7125 55.4415C34.0178 55.3388 34.4658 55.4361 34.6858 55.1068C34.7218 55.0548 34.9178 55.1708 34.9698 55.1481C35.0352 55.1175 35.0685 54.9455 35.1392 54.8988C35.2392 54.8975 35.3698 55.0521 35.5085 55.0428C35.8072 55.0228 35.9405 54.3881 36.2592 54.7801C36.2618 54.4521 36.5072 54.5428 36.6818 54.4735C37.3338 54.2135 38.2992 53.3148 38.3312 53.8081L38.3992 53.5508C38.4285 53.4388 38.6005 53.4935 38.7178 53.4655C39.3738 53.3028 39.7871 52.7655 40.3018 52.4361C40.6058 52.2415 40.7218 51.9055 40.9778 51.6961L42.0671 50.8015C42.3991 50.5295 42.7098 50.3535 42.9711 49.9615C42.6005 49.9628 42.5325 49.6748 42.3978 49.5522C42.1845 49.3575 41.9765 49.6948 41.8431 49.7828C41.5538 49.9735 41.2991 50.2295 41.0378 50.4348L39.8298 51.3841C39.3712 51.7441 38.2392 52.4095 37.7338 52.6721L36.6098 53.2548C36.3005 53.4148 36.0458 53.5681 35.6992 53.6455C35.5285 53.6841 35.3552 54.0228 35.1698 53.9815C34.9405 53.9281 34.8392 54.1108 34.6685 54.1468C34.2472 54.2375 33.8965 54.3308 33.4992 54.5201C33.4152 54.5615 32.2512 54.8561 32.1725 54.6855C32.1325 54.5975 32.2072 54.4921 32.2125 54.3855C32.2152 54.3055 32.0832 54.2775 32.0618 54.2335C32.0338 54.1735 32.0952 54.0321 32.1472 53.9495C33.0098 53.5241 32.8965 53.4801 33.7165 52.9361L34.2845 52.5588C34.5098 52.4095 35.8298 51.4508 35.8365 51.2161C36.2552 51.0148 36.6618 50.6468 37.0338 50.3335C36.6845 50.6268 38.4072 49.2335 37.9992 49.5455L38.4565 49.1948C38.0232 49.2122 37.7085 48.9828 37.4018 48.7962C37.1445 48.6402 37.0525 49.0575 36.9418 49.1695C36.6072 49.5108 36.2098 49.7788 35.8352 50.0322C35.7872 50.0655 35.7338 49.9895 35.7045 49.9948C35.5978 50.0108 35.6592 50.1695 35.5138 50.3922C35.4752 50.4495 35.3965 50.3762 35.3045 50.3068C34.8458 50.8188 33.4085 52.0055 32.6685 51.8828L32.6592 52.0321C32.6538 52.0975 32.5738 52.0855 32.4992 52.1135C32.4365 52.1375 32.4712 52.2388 32.4405 52.2695C32.4045 52.3081 32.2858 52.2508 32.2618 52.3535C32.2498 52.4081 32.2485 52.4881 32.2445 52.5348C32.2432 52.5641 32.1805 52.6001 32.1485 52.5695L31.9765 52.4095C31.9938 52.8641 31.7858 52.9881 31.5245 53.1601C31.3445 53.2788 31.2792 53.4241 31.0112 53.3481C30.8845 53.3108 30.8325 53.6201 30.7592 53.6988C30.6832 53.7815 30.5512 53.8121 30.5058 53.9481C30.4258 54.1948 30.1832 54.3041 29.9005 54.1788C29.2458 54.7881 29.4472 55.0761 29.0498 55.1948C28.8698 55.2481 28.7898 55.1428 28.6685 54.9161Z" fill="#243D13"/>
<path d="M47.3324 41.8361C47.427 41.7201 47.2817 41.5987 47.2524 41.5347C47.2004 41.4147 47.1057 41.4921 47.043 41.5267C46.9537 41.5747 46.8577 41.7334 46.903 41.8627C46.9404 41.9667 47.255 41.9307 47.3324 41.8361ZM48.2564 39.9788C48.3724 39.6001 48.3804 39.1934 48.151 38.8708C48.1204 38.9881 47.991 40.1721 48.2564 39.9788ZM43.4844 39.0428C43.4257 38.8028 43.0777 38.7334 42.9191 38.8908C42.8444 38.9641 42.9271 39.0694 42.9644 39.1121C43.0191 39.1748 43.5097 39.1508 43.4844 39.0428ZM39.4311 36.8294C39.3737 36.8028 39.3231 36.8241 39.2671 36.8788C39.0297 37.1041 38.9111 37.5108 39.1817 37.7148C39.3044 36.9761 39.6111 36.9121 39.4311 36.8294ZM38.6337 29.3574C38.2337 29.3441 37.9057 29.2894 37.4884 29.3614C37.2711 29.6788 38.7764 29.4828 38.6337 29.3574ZM42.7204 45.8387C42.4777 45.8414 42.3431 45.7907 42.1497 45.7467C42.0511 45.7241 41.9431 45.8854 41.8297 45.8201C41.6524 45.7201 41.6537 45.6201 41.7004 45.4454L41.8631 44.8467C41.9071 44.6827 41.5271 44.7014 42.0857 43.4161C42.0404 42.8227 42.0364 42.2801 42.1631 41.6614C42.2284 41.3427 42.1231 40.8161 41.7497 40.8227C41.4084 40.8281 41.0391 41.0401 40.7191 40.9654C40.5177 40.9187 40.4124 40.9574 40.2244 40.9801C39.8964 41.0201 39.5857 40.9601 39.2497 41.0254C38.5857 41.1561 37.8631 41.0347 37.2164 41.1254C37.2071 40.9307 37.0844 40.9921 36.9004 41.0467C36.8364 40.7027 36.7324 40.4507 36.4377 40.2281C36.9257 40.0747 36.8724 39.0841 36.9417 38.8454C37.0457 38.4801 37.0217 38.1654 37.0964 37.7948L37.3911 36.3268C37.4604 35.9788 36.8764 35.8228 36.5857 35.9214C36.3951 35.9868 35.0004 36.2054 34.8057 35.9374C34.7244 35.9574 33.8257 36.2134 33.8591 35.9228C33.7791 36.0881 33.6391 36.1281 33.4484 36.1054C33.0617 36.0588 32.2057 36.4761 32.0617 36.1894C32.0097 36.0854 31.9284 35.8761 31.9017 35.7548C31.4804 33.8148 32.0844 34.2934 31.7964 32.6228C31.6844 31.9734 31.7911 31.2908 32.1057 30.7308C32.1417 30.6668 32.2284 30.7668 32.2951 30.7828C32.3151 30.5374 32.5124 30.2294 32.8031 30.2361C33.1057 30.2428 33.1417 29.9601 33.2804 29.8948L35.0017 29.0908C35.2871 28.9574 35.6191 28.9348 35.8817 28.8201C35.9137 28.8614 35.9551 28.9921 35.9964 28.9881C36.0444 28.9828 36.0751 28.8254 36.1191 28.8068C36.4617 28.6561 36.8644 28.7974 37.2017 28.6774C37.7231 28.4894 38.4631 28.7001 38.7671 28.7428C39.0057 28.7748 39.3164 28.6414 39.5284 28.7134C39.5444 28.7841 39.5511 28.8868 39.5991 28.9308C39.6777 29.0028 39.7337 28.8481 39.8177 28.7508C41.2937 29.5188 41.6044 29.0068 43.3297 30.0508C43.7404 30.2988 44.2044 30.4028 44.6097 30.6841L46.1777 31.7681C46.5577 32.0308 46.8204 32.4081 47.1297 32.7148C47.5657 33.1481 47.8804 33.5681 48.1044 34.1254C48.195 34.3521 48.5857 34.6468 48.6057 34.9601C48.615 35.1041 48.9844 35.1854 48.8897 35.4694C48.8244 35.6628 49.0217 35.8134 49.0804 35.9694C49.107 36.0401 49.0257 36.2348 49.1164 36.2721C49.1804 36.2988 49.2577 36.3174 49.407 36.3441C49.287 36.5374 49.2217 36.7228 49.1937 36.9254C49.359 36.9628 49.579 37.1694 49.5244 37.3134C49.3564 37.7481 49.471 37.9508 49.4737 37.9521C49.5444 37.9814 49.587 37.9214 49.6684 37.8281L49.5684 38.3894C49.663 38.3668 49.715 38.3228 49.767 38.3254C49.811 38.3294 49.927 38.4161 49.903 38.4828C49.8044 38.7734 49.955 39.0588 49.9297 39.3161C49.8644 39.9947 49.9444 40.3467 49.9604 41.1574C49.9644 41.4347 49.6964 41.6854 49.6604 41.9281C49.619 42.1934 49.7004 42.5654 49.5684 42.7801C49.351 43.1321 49.2897 43.6334 49.2844 44.0441C49.2817 44.2747 49.131 44.5534 49.439 44.7427C49.311 45.3774 49.0137 45.2387 48.9417 45.6907C48.7124 45.8681 47.5244 45.8867 47.243 45.8587C46.463 45.7787 44.807 45.8614 44.8244 45.8641C44.4404 45.7907 44.1857 45.8214 43.7897 45.8267L42.7204 45.8387Z" fill="#243D13"/>
<path d="M47.4469 84.6534C47.2643 84.5174 47.2176 84.2387 46.8883 84.2987C46.7336 84.3267 46.7016 84.0187 46.6056 83.9961C46.1123 83.8774 45.8096 83.5721 45.5336 83.1387C45.379 83.2401 45.5776 83.3014 45.4443 83.4414C45.391 83.1227 45.1883 83.1974 45.0403 83.1214C44.0016 82.5921 43.7283 82.5961 42.6883 82.2161C42.363 82.0974 42.1136 81.9627 41.751 81.9267C41.5283 81.9054 41.279 81.5201 41.0403 81.5841C40.7936 81.6494 40.671 81.4681 40.5123 81.4587C39.975 81.4281 39.4723 81.3041 38.9403 81.3347C38.3923 81.3667 37.871 81.3334 37.3336 81.3227C36.9723 81.3147 36.6496 81.3894 36.299 81.4054C35.2363 81.4547 34.239 81.6681 33.2776 82.1467C32.947 82.3121 32.5536 82.4187 32.271 82.6174C32.331 82.5747 31.5937 83.5081 30.8603 83.1534C30.9297 82.5987 30.283 82.8627 30.8057 82.3854C30.4457 82.2467 30.591 81.8427 30.495 81.5814C30.4003 81.3227 30.4337 81.2587 30.5043 81.0201C30.6177 80.6387 30.6777 80.3187 30.8683 79.9934C31.4937 78.9241 32.0363 77.9774 33.231 77.3654C33.4456 77.2547 33.751 77.2907 33.911 76.9894C34.0576 77.0467 34.1003 77.1054 34.167 77.1001C34.2776 77.0907 34.3963 77.0107 34.4403 76.9307C34.5403 76.7561 35.4976 76.6747 35.439 76.6907L36.5656 76.3667C37.6963 76.0414 36.8363 76.5081 37.7976 75.7974L37.7656 74.8654C37.6563 74.8694 37.6203 74.8841 37.5843 74.8641C37.5043 74.8187 37.4696 74.7094 37.579 74.6427C37.6403 74.6067 37.6803 74.5227 37.6456 74.4707C37.6243 74.4374 37.5803 74.4294 37.487 74.4187C37.4736 74.3334 37.5443 74.2614 37.5603 74.1481C37.423 74.0561 37.2936 73.9974 37.247 73.8361C37.2083 73.6988 37.207 73.5454 37.3136 73.3908C37.055 73.3601 36.815 73.1094 36.975 72.9334C37.0136 72.8894 37.0816 73.0294 37.0883 73.0588C37.099 73.1028 37.159 73.0854 37.1683 73.0374C37.2283 72.7414 37.0096 73.0134 36.8096 72.6641C36.7696 72.5934 36.8883 72.4881 36.8643 72.3774C36.835 72.2388 36.567 72.1428 36.595 71.9708C36.6896 71.7788 36.9003 71.6334 37.0683 71.4588C38.1096 71.6028 39.1536 71.6454 40.1256 71.3921C40.8523 71.8774 40.7696 71.3588 41.431 71.7228C41.7723 71.9108 41.6443 72.2748 41.779 72.5588L42.2736 73.6028C42.5003 74.0814 42.7696 74.5361 42.863 75.0054C42.7523 74.4467 43.479 76.4014 43.335 75.5561C43.511 76.2054 43.9256 75.8414 44.0403 76.6454C44.187 76.6494 44.423 76.7027 44.5003 76.8641C44.659 77.1921 44.911 77.0854 45.171 77.1441C46.7549 77.4961 48.4483 77.1267 49.9923 77.5881L50.7963 77.8294L50.9963 77.9734C51.0416 78.0054 51.1429 77.8987 51.2349 77.8867C51.2936 78.0774 51.4536 78.1401 51.6123 78.2067C52.2416 78.4694 52.6376 79.0054 53.0883 79.4747C53.5923 79.9974 53.7149 80.3681 53.9576 81.0401C54.4989 82.5387 54.6563 84.1601 54.1563 85.6907C54.0523 86.0121 53.2989 85.9721 53.2163 85.6894C53.1323 85.3987 53.1376 85.1721 52.8269 85.1294C53.4563 85.0041 52.6576 84.8854 52.8429 84.5561C52.6736 84.5587 52.6296 84.6161 52.4723 84.6441C52.5416 84.4627 51.3003 82.8267 51.5243 83.2294C51.3016 82.8281 51.0109 82.6054 50.6896 82.3134C50.4829 82.1281 50.3843 81.9321 50.1109 81.8427C49.9323 81.7841 49.8803 81.3081 49.6016 81.3414C49.4083 81.3654 49.7136 81.5774 48.8323 80.9961L48.6483 80.8747C48.5803 80.8294 48.4243 80.9361 48.4403 81.0441C48.4829 81.3347 48.7523 81.4667 48.9416 81.6214C48.9856 81.6574 48.9723 81.7267 48.9949 81.7494C49.0429 81.7961 49.1536 81.7601 49.2109 81.7814L49.4096 82.1734C49.5496 82.4507 51.0323 83.9627 50.1549 86.4681C49.9296 86.4961 49.6363 86.5401 49.3763 86.5067C49.0936 86.1761 48.9389 85.7734 48.6469 85.5081C48.5003 85.3747 48.2629 85.3534 48.1469 85.2081C47.9723 84.9894 47.7136 84.8521 47.4469 84.6534Z" fill="#243D13"/>
<path d="M61.4964 82.4881C61.5537 82.6521 61.2164 83.1161 61.4164 83.0267L61.603 82.9441C61.439 83.3227 61.7604 83.3347 61.7577 83.5747C61.7564 83.5987 61.0257 84.1454 60.839 83.7134C60.6977 83.3867 60.387 83.3587 60.1564 83.1694L59.1724 82.3681C58.9004 82.1454 58.8497 81.7614 58.6111 81.5374C58.3231 81.2654 57.3631 80.8614 56.9764 80.5921C54.8977 79.1454 55.2671 80.4934 54.4991 79.0107C54.3817 78.7267 53.9791 78.6854 53.7871 78.4481L52.9377 77.4014C52.7324 77.1467 52.4537 77.1081 52.2164 76.9747C51.4031 76.5187 51.1004 76.5667 50.0711 76.4321L48.8884 76.2761C48.7884 76.2627 48.6897 76.3707 48.5911 76.3481C48.4644 76.3201 48.3711 76.2361 48.3151 76.1254C48.2631 76.2067 48.2377 76.2841 48.2071 76.2974C48.1791 76.3081 48.1057 76.2654 48.0791 76.2361C47.8871 76.0374 47.6484 76.1641 47.4657 76.1294C47.2484 76.0867 47.0524 75.9054 46.8484 76.1734C46.6831 76.1254 46.4831 75.9961 46.3444 76.0094C45.9818 76.1787 45.6138 76.0707 45.2378 76.1041C44.9218 76.1321 44.6338 76.0521 44.4738 75.7161C44.4738 75.5748 44.6418 75.4228 44.7258 75.2161C45.3858 75.2601 45.9498 74.9028 46.5497 74.6934C46.7151 74.6361 47.0111 74.8361 47.0857 74.4348C47.3497 74.6321 47.6071 74.4881 47.8324 74.2921L48.0537 74.4801C48.1831 74.3374 48.2604 74.2734 48.2404 74.1201C48.2231 73.9974 48.0991 73.9321 48.0137 73.8148L47.1644 72.6561C46.9311 72.3388 46.6417 72.0188 46.4697 71.6668C46.3764 71.4734 46.3511 71.3268 46.1924 71.1481C45.8764 70.7934 45.7164 70.3041 45.4271 69.9321C44.6924 68.9908 44.8631 68.2294 44.6818 67.6388C44.5724 67.2828 44.4124 67.0441 44.5578 66.6881C44.6578 66.4414 44.8031 66.4974 44.9898 66.4054C46.4004 65.7121 45.6551 66.1374 47.1257 65.7081C47.1831 65.6921 47.3004 65.8814 47.3297 65.8188L47.3871 65.6934C47.3404 65.7948 50.8511 64.5148 51.6151 64.0254C51.7911 63.9121 52.0137 63.9108 52.1831 63.7428C52.4537 63.4748 52.8711 63.3014 53.2311 63.3868C53.3697 63.4201 53.4444 63.6988 53.4911 63.7894C53.5524 63.9094 53.3417 64.0028 53.3044 64.1334C53.2217 64.4148 53.1884 64.7081 53.0644 64.9788C53.0284 65.0588 52.8511 65.0828 52.8617 65.1481L52.9071 65.4388C52.9257 65.5521 51.7817 67.8574 51.8977 67.4654C51.8044 67.7774 51.7857 68.1228 51.5764 68.4134C51.0964 69.0788 51.1631 69.7001 51.6017 70.3721L52.8284 72.2521C53.0404 72.5774 53.4311 72.7521 53.5604 73.1534C53.7111 73.6174 54.1297 73.9228 54.3951 74.2934L54.5551 74.5148C54.6044 74.5841 54.7257 74.4321 54.8244 74.4454C55.4991 74.5414 56.1297 74.7214 56.8124 74.6961C56.9151 74.6921 56.9871 74.7974 57.0777 74.8641C57.2284 74.5508 57.5391 74.6974 57.7977 74.7654C58.0484 74.8321 58.3737 74.5828 58.5697 74.9094C58.6644 74.6494 58.8444 74.6348 59.0964 74.6841C60.1644 74.8908 59.7617 74.7654 60.0497 74.6894C60.1457 74.6641 60.2417 74.7574 60.3257 74.8774C60.6137 74.6748 61.8097 74.9454 62.2724 75.0441C62.927 75.1828 63.5684 75.4961 64.1644 75.8254C64.6097 76.0721 64.9764 76.3974 65.1817 76.8614C65.2924 77.1121 65.5284 77.3054 65.623 77.5534C65.7777 77.9587 65.8244 78.4267 66.0577 78.7921L65.9724 78.8987C65.915 78.9707 66.0684 78.9761 66.235 79.2121C66.2937 79.2961 66.1324 79.4081 66.147 79.5041C66.1697 79.6534 66.3564 79.7161 66.3324 79.8574C66.307 80.0134 66.195 80.1387 66.1577 80.2907C66.131 80.4027 66.2657 80.5521 66.1564 80.6641C66.1817 80.7214 66.231 80.7814 66.243 80.8201C66.267 80.8921 66.1217 80.9654 66.1057 81.0187C66.0017 81.3507 65.835 81.4361 65.531 81.4787C65.247 81.5187 65.099 81.4547 64.939 81.2361C64.791 81.0374 64.5044 80.9054 64.315 80.7494C63.4484 80.0361 62.3257 80.2707 62.2324 80.2361C61.487 79.9641 60.7924 78.8627 59.9484 78.4481C59.3724 78.1641 58.8164 77.8534 58.0537 78.0467C58.2244 78.3241 58.5804 78.4147 58.8604 78.5387C59.4097 78.7801 59.7817 79.1467 60.1817 79.5267C60.4764 79.8081 60.4937 80.0681 60.603 80.4027C60.6844 80.6561 60.9124 80.8787 60.9297 81.2454C60.9244 81.1441 61.4417 82.1907 61.4164 82.0601C61.4297 82.1281 61.3364 82.2161 61.347 82.3001C61.3577 82.3761 61.475 82.4281 61.4964 82.4881Z" fill="#243D13"/>
<path d="M11.9149 68.0654C11.8589 68.0254 11.7563 68.1814 11.6989 68.1814C11.6136 68.1814 11.5416 68.0427 11.4603 67.9667C11.0003 68.1534 10.4163 68.2774 9.94295 68.0201C9.85228 67.9601 9.69361 67.7387 9.65362 67.6401C9.60428 67.3774 9.80428 67.0667 9.97228 66.8534C10.3323 66.3947 10.5963 65.9241 10.8776 65.4241C10.9723 65.2561 11.1496 65.1614 11.1763 64.9161C11.2176 64.9907 11.3163 65.0747 11.4216 65.0294C12.1576 64.7094 12.1963 65.0987 12.5029 64.7201C12.4883 64.7387 14.4496 64.6921 14.9229 64.7427C15.8109 64.8401 15.6229 64.3641 15.9669 64.5987C16.0869 64.5481 16.1509 64.3934 16.1429 64.2841C16.1149 63.8921 15.7603 63.8214 15.4603 63.6534C15.3896 63.8081 15.3283 63.8747 15.2123 63.8681C15.1389 63.8627 15.0349 63.7867 14.9189 63.7654C14.8176 63.7467 14.7083 63.8841 14.6349 63.8561C14.5336 63.8174 14.5056 63.6961 14.4136 63.6054C14.2803 63.7441 14.1776 63.8761 13.9963 63.7947C13.9016 64.0147 13.9416 63.6947 13.8643 63.6294L13.6403 64.0467C13.6083 64.1081 13.4603 63.9361 13.3923 63.9147C13.3376 63.8974 13.2683 63.9254 13.1829 64.0267C13.0883 63.9574 13.0843 63.8427 13.0443 63.6907C12.9176 63.7614 12.9389 63.8894 12.8323 63.9214C12.7603 63.9441 12.6336 63.9121 12.5349 63.8481C12.4363 63.8441 12.3949 63.9547 12.2683 63.9894C12.0976 63.6761 12.0243 63.4014 11.8909 63.0441C12.4363 62.5947 12.5869 61.9721 12.9003 61.4187C13.1629 60.9547 13.6216 60.5374 13.9123 60.1267C14.1136 60.1881 14.2576 60.0987 14.4149 60.0147C14.9563 59.7214 16.2083 59.8841 16.8976 59.9134C17.3229 59.9307 17.7029 59.8574 18.2309 59.9227C19.2816 60.0547 18.6549 60.1321 19.6749 60.0467C19.8269 60.3881 19.6629 60.7147 19.4696 61.0161C19.3176 61.2521 19.3469 61.5521 19.2269 61.8001C18.7923 62.6921 18.4043 63.5694 18.0389 64.4974C17.9683 64.6747 17.8563 64.7854 17.7776 64.9161C17.6843 65.0721 17.8003 65.2987 17.5696 65.5014C17.3789 65.6681 17.2069 66.8014 17.1789 66.8961C17.0496 67.3294 16.7696 67.7534 16.7109 68.1947C16.6563 68.6134 16.4176 68.8401 16.2816 69.1947L15.7083 70.7014C15.4883 71.28 14.7669 72.4054 14.1456 72.22C13.9709 72.168 13.7323 72.2534 13.6496 71.9254C13.4843 72.0774 13.6016 72.2294 13.4963 72.3574C13.2629 72.3814 13.4736 71.984 13.2363 71.8907C13.1109 71.8427 13.0096 71.9947 12.9189 72.0774C12.7603 72.0494 12.4123 71.96 12.3189 71.7467C12.2429 71.5734 12.2003 71.188 12.2683 71.0254C12.4069 70.7321 12.5309 70.4721 12.6096 70.1467C12.6803 69.8547 13.3403 68.9841 12.9563 68.5907C12.8376 68.4681 12.6109 68.3001 12.4776 68.2547C12.2509 68.2921 12.1149 68.2107 11.9149 68.0654Z" fill="#243D13"/>
<path d="M15.5401 85.0601L15.4201 85.3161C15.4054 85.3467 15.3521 85.2254 15.2668 85.2321C15.2041 85.4107 15.0094 85.2961 14.9321 85.3281C14.5894 85.4707 14.2748 85.4041 13.9054 85.3347C13.2108 85.2054 12.8974 85.6627 11.7281 84.8347C11.5054 84.4041 11.4654 83.7774 11.6708 83.3574C11.9974 82.6907 11.5094 83.3267 11.9094 81.9747C11.9934 81.6907 11.9708 81.4547 12.0508 81.2041L12.3308 80.3201C12.6401 79.3427 12.5214 79.4641 12.9788 78.4787C13.0641 78.2947 13.0774 78.1294 13.2148 77.9027L13.5628 77.3227C13.6881 77.1161 13.7868 76.8161 14.0654 76.7641C14.1041 76.7574 14.1748 76.8627 14.2134 76.8654C14.1521 76.8614 14.6428 76.5574 15.1628 76.5374C15.7854 76.5121 16.3947 76.4801 17.0147 76.4214C17.3481 76.3894 19.7041 76.3668 20.1241 76.3894C20.5214 76.4121 21.0734 76.2828 21.2854 76.7334C21.6081 77.4241 21.3627 76.5241 21.7627 77.4747C21.6361 77.7227 21.7081 78.0374 21.7667 78.3187C21.8561 78.7534 21.3441 79.7321 21.3401 79.7347C21.2774 79.7814 21.1374 79.6454 21.0694 79.6801C20.8974 79.7654 20.8867 80.0761 20.7614 80.1734C20.4961 80.3827 20.2027 80.1907 19.9401 80.1961L18.1934 80.2361C17.9561 80.2427 17.6321 80.2547 17.4281 80.3241C17.0014 80.4694 16.9201 80.9801 16.7854 81.3267C16.7387 81.4454 16.6054 81.5147 16.7054 81.6721C16.8041 81.8267 16.5467 81.9774 16.5774 82.0747C16.6694 82.3707 16.3187 83.2294 16.3054 83.3014L16.1574 84.1054C16.0854 84.4974 15.7081 84.7014 15.5401 85.0601Z" fill="#243D13"/>
<path d="M25.6218 65.2028C25.5204 65.0722 25.6404 64.7268 25.3711 64.6015C25.3471 64.5028 25.5924 64.4868 25.6351 64.4335C25.7724 64.2588 25.5978 64.0082 25.6431 63.8042C25.7658 63.2615 25.8404 62.6842 26.0844 62.1922C26.1991 61.9642 26.1991 61.7575 26.2644 61.5628C26.5844 60.6095 26.5084 60.0628 27.4538 59.8322C28.0498 59.6868 27.9551 59.5602 29.0844 59.5802C29.2191 59.5775 29.3658 59.3948 29.5138 59.3308C29.7791 59.6522 30.0471 59.3442 30.3217 59.3122C30.9844 59.2322 31.5431 59.2162 32.2004 59.0415C33.2684 59.2535 32.8484 60.4388 33.0897 61.2535C33.1697 61.5228 33.1524 61.7095 33.1631 61.9735C33.1791 62.4068 34.2511 65.1602 33.0391 65.5335C32.4031 65.7295 31.6831 65.6748 31.0111 65.6842L28.8991 65.7108C28.6284 65.7148 27.3258 65.7175 27.1951 65.6895C26.6898 65.5788 26.0151 65.7095 25.6218 65.2028Z" fill="#243D13"/>
<path d="M11.0243 83.1454L10.7643 83.0147C11.0083 83.364 10.7603 83.6107 10.723 83.896C10.6937 84.1267 10.659 84.2054 10.5283 84.38C9.85232 85.2787 9.31232 84.8907 8.82432 85.1867C8.34032 85.48 6.51233 85.5534 5.86433 85.5854C4.90567 85.6347 3.999 85.664 3.055 85.5654C2.26567 85.4814 0.808343 85.5547 0.385678 84.5574C0.285678 84.32 0.0256783 84.0934 0.00167833 83.784C-0.0223216 83.484 0.219011 83.2134 0.219011 82.9254C0.219011 82.7774 0.151012 82.648 0.257678 82.4627L0.729677 81.636C0.832343 81.456 1.09368 81.4867 1.21368 81.24C1.29501 81.0694 1.66701 81.1134 1.82167 81.12C1.91501 81.1254 1.97101 80.9694 2.02967 81.008L2.30434 81.188C2.32567 81.0974 2.25634 80.9854 2.32167 80.9507C2.42434 80.8987 2.50967 80.8934 2.58834 80.9787C2.93234 81.3534 3.25767 80.824 3.819 81.0587C3.96834 81.1227 4.103 80.98 4.243 80.988C4.30567 80.992 4.35633 81.116 4.39233 81.1427C4.21367 81.0094 5.32567 81.2494 5.21233 81.1854C5.89366 81.568 5.70966 81.22 6.64966 81.1654C6.68033 81.2414 6.72033 81.356 6.74966 81.416C6.79499 81.5107 6.83233 81.376 6.91099 81.328C7.34299 81.6334 7.42299 81.1534 7.71499 81.236C7.95499 81.304 8.04833 81.8747 8.11899 81.392C8.17366 81.368 8.25099 81.4094 8.30832 81.4147C8.34699 81.4174 8.33366 81.348 8.38966 81.276C8.48032 81.3374 8.52432 81.456 8.59632 81.4294L8.81232 81.3507C8.90699 81.3174 8.99366 81.4627 9.07632 81.508C9.17499 81.5614 9.27099 81.4107 9.39499 81.42L10.163 81.484C10.4083 81.504 10.799 81.3787 10.9643 81.6027C11.207 82.4534 11.1177 82.2574 11.0243 83.1454Z" fill="#243D13"/>
<path d="M16.7616 72.1801C16.6869 72.1321 16.4029 71.2962 16.4296 71.2162C16.5322 70.9202 16.7202 70.6268 16.7016 70.3068C16.6842 70.0095 16.9429 69.9815 17.0682 69.8135C17.2189 69.6108 17.3522 69.3802 17.6056 69.3388C17.6642 69.3295 17.7056 69.1815 17.7509 69.1562C17.8176 69.1188 17.9442 69.2628 18.0002 69.2402C18.8122 68.9002 17.8482 69.3108 19.0335 69.0682C19.2575 69.0228 19.3135 69.0228 19.5269 69.1042C19.6455 69.1508 19.8789 69.0615 19.9882 69.1802C20.7615 68.6482 20.5922 69.6828 21.4562 68.4962C20.5482 68.3922 19.7669 68.3788 18.9282 68.4188C18.6402 68.4322 18.3896 68.3255 18.2109 68.1522C18.0629 68.0082 17.9802 67.7482 18.0016 67.4815L18.1122 66.1802C18.1629 65.5908 18.7642 64.9948 18.5536 64.8668C18.6949 64.8788 18.7269 64.9255 18.7735 64.9348C18.8522 64.9522 18.8989 64.8295 18.9642 64.8095L19.7362 64.5802C20.6055 64.3215 20.9709 64.7375 21.3895 64.7148C21.9175 64.6855 22.3882 64.6388 22.9069 64.7122C23.0562 64.7335 23.8615 64.6402 23.8455 65.0028C23.9095 64.9308 23.9415 64.8788 23.9975 64.8868C24.0935 64.9015 24.2495 64.9722 24.2509 65.0975C24.2549 65.3175 24.0229 65.4255 23.9069 65.5215C24.1522 65.9548 23.6935 67.3668 23.6575 67.6348C23.6295 67.8442 23.6189 68.0708 23.5682 68.3135L23.3562 69.3375L23.1242 70.4575C23.0789 70.6748 23.2202 70.8668 23.0029 71.1188C22.8229 71.3268 22.8269 71.7028 22.6695 71.9708C21.7589 72.3668 20.7749 72.3801 19.7989 72.3948L18.9615 72.4068C18.7789 72.4095 18.5936 72.3561 18.4376 72.3375C18.3309 72.3241 17.6402 72.5855 17.0789 72.2855C16.9936 72.2388 16.8549 72.2401 16.7616 72.1801Z" fill="#243D13"/>
<path d="M11.9897 75.7947C11.5603 75.8147 11.1737 75.8734 10.747 75.7867C10.623 75.7614 10.4417 75.8534 10.2563 75.8027C9.24167 75.5307 9.607 75.9787 9.14167 75.7494C9.07767 75.8934 8.98167 75.8947 8.83501 75.8894C8.43101 75.8734 5.50168 75.792 5.26701 75.8147C5.08435 75.832 4.94301 75.8187 4.84435 75.7387C4.38435 75.3654 5.15501 74.4574 5.40701 74.132C5.70701 73.7427 5.77768 73.2494 6.00435 72.8547C6.16835 72.568 6.50168 72.3547 6.54301 71.9974C6.56301 71.8267 7.13501 70.6947 6.95901 70.816C6.99234 70.7934 7.11768 70.8947 7.16168 70.8214C7.20034 70.7587 7.12168 70.6334 7.16301 70.5267C7.19901 70.4334 7.25101 70.3707 7.43368 70.4174C7.41101 70.3347 7.39634 70.2894 7.38968 70.228C7.40434 70.3587 7.99901 69.008 8.78701 68.7467C9.071 68.6534 10.127 68.752 10.3283 68.8094C11.3737 69.108 11.1137 68.6507 11.5657 69.456C11.0777 70.132 11.0643 70.7494 11.275 71.528C11.3803 71.9174 11.4643 72.504 11.8603 72.7014C11.959 72.6747 12.147 72.516 12.2843 72.6614C12.8603 73.2694 13.4363 72.2774 14.303 73.4747C14.235 73.8187 14.031 74.1054 13.9843 74.444C13.955 74.6587 13.7883 74.7934 13.7177 74.9694C13.5617 75.3574 13.3363 75.46 12.9897 75.6054L12.3243 75.8867C12.163 75.9547 12.0977 75.7894 11.9897 75.7947Z" fill="#243D13"/>
<path d="M67.9482 26.7855C68.2015 26.8375 67.1855 27.4255 67.3162 27.4108C67.2642 27.4162 67.2215 27.3588 67.1308 27.2962C67.0575 27.5095 66.8109 27.5295 66.6709 27.6615C66.4415 27.8762 66.2135 27.8802 65.9469 27.9375C65.1629 28.1042 64.4095 28.2242 63.6082 28.0762C63.2069 28.0028 62.7455 27.6562 62.7855 27.2295C62.8095 26.9682 62.7842 25.6602 62.9055 25.8415L62.7962 25.6788C62.7562 25.6202 62.8962 25.5415 62.9135 25.4855C62.9429 25.3868 62.8469 25.2655 62.7775 25.1775C62.9882 24.8202 63.0082 24.4148 62.9402 24.0322C62.9162 23.8922 63.0962 23.6628 62.9215 23.4975C63.0335 23.3748 63.0562 23.3748 63.0802 23.3082C63.1309 23.1588 63.0255 22.9682 62.9709 22.9215C63.0562 22.7242 63.2669 22.5228 63.5002 22.5255C63.7482 22.5282 63.8829 22.3135 64.0642 22.2628C64.6215 22.1069 66.1802 21.9402 66.7415 21.9829L68.9855 22.1549C69.0335 22.1588 69.0668 22.2628 69.1002 22.2975C69.1402 22.3375 69.2375 22.1828 69.2988 22.2042C69.9068 22.4135 70.4722 22.6522 71.0428 22.9215C71.0642 22.9322 71.0682 23.0268 71.0748 23.0468C71.0895 23.1002 71.1522 23.0228 71.2095 23.0135C71.7202 23.2828 72.1415 23.8122 72.1602 24.4228C71.9882 24.8295 71.1175 24.4615 70.8575 24.8495C70.6135 25.2135 70.2828 25.4708 69.8548 25.4682C69.6255 25.5828 68.2482 26.4015 68.2882 26.8175C68.1508 26.8588 68.0482 26.7788 67.9482 26.7855Z" fill="#243D13"/>
<path d="M4.12835 80.6347C3.58568 80.6427 2.37502 80.8307 2.13635 80.0227C2.07369 79.8121 2.59369 78.8561 2.54302 79.0187C2.87502 77.9641 3.10835 77.1894 3.95502 76.4894C5.02968 76.7401 4.76301 76.6214 5.29635 76.5121C5.96834 76.3748 6.66568 76.6587 7.31634 76.5588C7.55234 76.5228 7.68834 76.6214 7.85901 76.6241L9.483 76.6454C9.90967 76.6507 10.3323 76.4761 10.807 76.5921C11.0563 76.6534 11.351 76.4814 11.5803 76.4468C11.663 76.4348 11.763 76.5708 11.871 76.5174C12.151 76.3801 12.475 76.4268 12.651 76.5961C13.143 77.0694 12.8257 78.0667 12.2977 78.2227C12.1203 78.9667 11.9057 79.7174 11.5137 80.3601C11.4617 80.4454 11.2363 80.4787 11.155 80.5641C10.863 80.8654 10.4617 80.7374 10.1323 80.7201C9.79233 80.7027 9.48967 80.7747 9.167 80.6667C9.007 80.6134 8.719 80.8467 8.49367 80.6734C8.32034 80.5387 8.11901 80.7161 7.98834 80.6907C7.36701 80.5707 6.77234 80.5947 6.13768 80.6041L4.12835 80.6347Z" fill="#243D13"/>
<path d="M53.7456 19.9336C54.1229 19.7349 54.3469 19.3536 54.6656 19.1189C54.9922 18.8776 55.0829 18.5149 54.9122 18.1456C55.1242 17.8896 55.1922 17.6389 55.4469 17.4203C55.0722 17.2496 55.2896 16.9029 55.1869 16.6963C54.9602 16.2443 54.6602 15.8576 54.6122 15.3256C54.5762 14.9389 54.2389 14.7163 53.9656 14.5243L53.1109 13.9256C52.9709 13.8283 52.6936 13.7283 52.5602 13.7963L52.3602 13.8989C52.2442 13.9576 52.3896 13.6203 51.6069 13.8829C51.4616 13.7163 51.2162 13.6776 51.0816 13.8736C50.9389 14.0803 50.7962 14.0176 50.6162 14.0589C50.0536 14.1909 49.6909 14.6829 49.2856 15.0309C49.1403 15.1563 49.1723 15.2563 49.1003 15.3603C48.3909 16.4016 48.2349 17.9416 48.9203 18.9869C49.1229 19.2963 49.3589 19.6803 49.6949 19.8949C50.3202 20.2963 51.0816 20.6003 51.8136 20.4989L52.5549 20.3976C52.7269 20.3736 53.0309 20.3083 53.1962 20.2229L53.7456 19.9336ZM50.8096 21.9123C50.6082 21.5563 49.7176 21.6869 50.2496 21.4256C50.1082 21.3936 50.0469 21.4709 49.9442 21.4856C49.8522 21.4976 49.7869 21.3083 49.6949 21.2856C49.3349 21.1976 49.1216 21.0456 48.8923 20.7736C48.6843 20.5269 48.2976 20.3816 48.1843 20.0603C48.1003 19.8203 47.9309 19.7189 47.7363 19.5549C47.6923 19.5189 47.7603 19.3616 47.7163 19.3309C47.6563 19.2896 47.5309 19.2776 47.4763 19.2243C47.3429 19.0936 47.5603 18.8296 47.4683 18.6949C47.1323 18.3403 47.2656 17.5083 47.2683 17.5269C47.1363 16.7243 47.4189 15.5496 47.7429 14.8709C48.1509 14.0136 48.7149 13.8816 48.8216 13.7803C49.0189 13.5923 49.2083 13.2963 49.4816 13.2443C49.2083 13.2963 50.1762 12.8229 49.9869 12.8403C50.0482 12.8349 50.0856 12.9376 50.1402 12.9829C50.2202 12.8069 50.2629 12.6936 50.3482 12.5963C50.4429 12.4896 50.6322 12.6509 50.7429 12.6056C51.2269 12.4043 52.1589 12.1416 52.5296 12.5829C52.6549 12.4403 52.8242 12.5003 53.0149 12.5283C53.7602 12.6376 54.3376 13.0536 54.8736 13.5483C55.0229 13.6843 55.2576 13.8576 55.3469 14.0523L55.6989 14.8176C55.9456 15.3523 56.5616 16.0536 56.4376 16.7803C56.3936 17.0389 56.4322 17.1069 56.4682 17.3469C56.5882 18.1509 56.3389 19.0549 55.9029 19.7643C55.5149 20.3963 54.9162 20.8536 54.3242 21.2709C54.2536 21.3203 54.0136 21.1749 53.9362 21.2483C53.7162 21.4536 54.1349 21.3256 53.5162 21.6843C53.4162 21.6669 53.4242 21.4909 53.3562 21.4136C53.3136 21.8549 52.5002 21.7909 52.0536 21.8016C51.9722 21.8029 51.8949 21.6656 51.8282 21.7043C51.7482 21.7496 51.7056 21.8656 51.6416 21.9109C51.3989 21.7669 51.1882 21.4829 50.8469 21.6056C50.9109 21.7376 51.0469 21.6323 51.1242 21.7296C50.9989 21.8216 50.9136 21.8069 50.8096 21.9123Z" fill="#243D13"/>
<path d="M43.1698 10.0176C43.3005 10.1443 43.0165 9.96961 42.5445 9.51895C42.4165 9.39628 42.1378 9.43628 42.0578 9.19095C41.9165 8.75361 41.6632 8.95628 41.3712 8.47228C41.3365 8.41495 41.2378 8.46428 41.1818 8.44161C41.0952 8.36161 40.9978 8.03895 40.8685 8.03362C40.5898 8.02028 40.5658 7.81628 40.3992 7.68562C40.0978 7.44695 39.7458 7.17762 39.6232 6.81895C39.5525 6.80962 39.4432 6.81762 39.4098 6.80295C39.4525 6.82162 39.0632 5.93362 39.0365 5.79495L38.9245 5.19629C39.0992 4.41896 39.6752 3.74163 40.3885 3.40429C40.6432 3.28429 41.0192 3.36163 41.2725 3.36829C41.7432 3.38163 42.0992 3.53496 42.3658 4.00829L42.8898 4.94162C43.1218 5.35362 43.3152 5.80162 43.6018 6.18962C43.8298 6.49762 43.9512 6.86029 44.2032 7.14162C44.4498 7.41895 44.5258 7.80562 44.7325 8.08962C45.0498 8.52561 45.1285 8.92561 44.9778 9.45228C44.9085 9.69494 44.9632 9.84694 44.7165 10.0336C44.5792 10.1363 44.5738 10.2963 44.3178 10.3349C43.8752 10.4029 43.4752 10.3109 43.1698 10.0176Z" fill="#243D13"/>
<path d="M38.6298 10.5908C38.5218 10.5695 38.3618 10.4762 38.2871 10.4948C38.1151 10.6362 38.3351 10.7802 38.4538 10.9148C38.5311 11.0028 38.5805 10.8695 38.6325 10.8402C38.7031 10.8002 38.7538 10.6162 38.6298 10.5908ZM40.8845 10.5655C40.7591 10.2188 40.5511 10.0815 40.3218 9.8255C40.2351 10.1935 40.4778 10.4908 40.8845 10.5655ZM39.0178 9.86016C38.9431 9.22816 38.4551 9.7055 38.3258 9.27083C38.1991 9.5575 38.1738 9.74416 38.4245 9.9495C38.4405 9.8175 38.4845 9.6735 38.6658 9.69083C38.7658 9.70016 38.8258 9.80816 39.0178 9.86016ZM36.9885 8.65483C36.9311 8.55617 36.4218 9.15883 36.6418 9.3935C36.9085 9.67883 36.6045 9.19883 36.9885 8.65483ZM42.4271 12.8242C41.2445 13.1068 41.3018 12.8548 40.3618 12.5495C39.4365 12.2495 38.7111 11.7268 37.9165 11.3828C37.0805 11.0215 35.9672 10.0362 36.0231 9.11083C36.0618 8.48683 36.5231 7.87617 37.0325 7.4855C37.0485 7.4735 37.1258 7.58683 37.1431 7.58017C37.1925 7.56283 37.2658 7.25617 37.4391 7.29484C37.5138 7.31217 37.5511 7.41217 37.6405 7.5455C37.6911 7.45617 37.6751 7.32684 37.7685 7.26684C37.9578 7.1455 38.0151 7.53483 38.4791 7.5375C38.8218 7.53883 39.0058 7.90283 39.2445 8.08017C39.3191 8.13483 39.4818 8.05217 39.5391 8.1415C39.5858 8.21083 39.6311 8.29083 39.6005 8.42417C39.6498 8.47617 39.7445 8.43483 39.8231 8.4455L40.4711 8.9815C40.8338 9.28016 41.0845 9.6935 41.5378 9.8935C41.7591 9.99216 41.8765 10.2708 42.0645 10.3788C42.4845 10.6175 42.9658 10.8868 43.0791 11.4228C43.1165 11.5935 42.9498 11.8188 42.9525 12.0188C42.9551 12.3082 42.6125 12.5762 42.4271 12.8242Z" fill="#243D13"/>
<path d="M53.9654 7.19093C53.2147 7.51893 52.4681 7.2256 52.1241 6.52026C52.0374 6.34026 52.1014 6.1856 52.2134 6.0136C51.9774 5.68427 51.9321 5.3056 52.0614 4.91627C52.1201 4.74427 52.1067 4.55093 52.2134 4.35094C52.3187 4.15894 52.0987 3.88027 52.1801 3.6816C52.2654 3.47227 52.1614 3.3056 52.0947 3.1576C52.5347 2.61361 52.1761 1.56961 52.5014 1.10694C52.6454 0.901611 52.6587 0.646945 52.8441 0.470945C53.3774 -0.038387 54.328 -0.0570536 55.0187 0.0682794C55.356 0.129613 55.684 0.434945 55.9427 0.662945C56.136 1.48161 55.4627 3.9376 55.1267 4.6776C54.868 5.2456 54.9147 5.8216 54.36 6.73626C54.2907 6.8496 54.1027 6.90826 54.1414 7.0656C54.0641 7.04293 53.9787 7.03226 53.9467 7.02026C53.8827 6.9976 53.9361 7.07226 53.9654 7.19093Z" fill="#243D13"/>
<path d="M47.4723 7.65094C47.2537 8.23494 47.071 8.39894 46.363 8.44961C46.2003 8.46161 46.0697 8.32828 45.8963 8.43761C45.7857 8.50828 45.5057 8.25228 45.479 8.12028C45.2563 7.02161 44.7083 6.91895 44.427 6.10828C44.223 6.14961 44.1817 6.04561 44.335 5.94828C44.3323 5.64562 43.9923 5.40428 43.935 5.11095C43.887 4.86828 43.7963 4.71762 43.7083 4.49629L43.143 3.05762C42.9017 2.44162 43.3537 1.54163 43.991 1.28029C44.2057 1.19229 44.4337 1.22429 44.6163 1.04429C44.7657 1.00963 45.0923 0.970961 45.235 1.00696C45.411 1.14829 45.6297 1.13229 45.803 1.15096C46.071 1.47763 46.439 1.90296 46.607 2.30829C46.703 2.54029 46.495 2.88829 46.7057 3.09229C46.923 3.30162 46.8897 3.50162 46.8603 3.77762C46.8403 3.97229 47.1137 4.17362 47.0203 4.39762C46.995 4.45895 46.9363 4.54562 46.9523 4.61229C46.963 4.65362 47.0497 4.65095 47.131 4.67895C47.0377 4.99762 47.2737 5.28162 47.3497 5.57762C47.4723 6.06028 47.4217 6.56161 47.4403 7.02028C48.0283 6.44695 47.3163 7.40295 47.4723 7.65094Z" fill="#243D13"/>
<path d="M23.0764 63.7775L22.0831 63.7881C21.6298 63.7935 21.2164 63.7028 20.7964 63.8468C20.7511 63.8281 20.6738 63.7455 20.6284 63.7441C20.3631 63.9601 19.6338 63.6815 19.6751 63.7215C19.6485 63.6948 19.7138 63.6268 19.7205 63.5615C19.4605 63.3735 19.5618 63.0828 19.6138 62.8255C19.7338 62.2335 19.8885 61.6908 20.1205 61.1308C20.2324 60.8588 20.1685 60.5015 20.3498 60.2468C20.4724 60.0748 20.7364 59.9935 20.8791 59.8828C21.4324 59.4561 22.2631 59.6108 22.9284 59.5855L24.8458 59.5135C25.0151 59.5068 25.2698 59.6161 25.3804 59.7121C25.4791 59.7961 25.3738 60.7721 25.2364 60.9188C25.7538 61.3895 24.8364 61.4561 25.1138 61.9041C25.2231 62.0828 25.0871 62.2348 24.9924 62.3535C25.0178 62.5281 25.0671 62.5161 25.1604 62.3441C25.0978 63.3415 24.1164 63.7668 23.0764 63.7775Z" fill="#243D13"/>
<path d="M49.8243 6.92422C50.0456 6.98822 49.3203 5.90422 49.3389 6.01755C49.3243 6.18155 49.3123 6.43488 49.3976 6.51622L49.8243 6.92422ZM48.5616 5.96822C48.4896 5.89222 48.2776 5.88955 48.2923 5.74422C48.3016 5.65755 48.3283 5.53355 48.3323 5.39355C48.2803 5.34422 48.1349 5.36555 48.1403 5.26955C48.1469 5.13222 48.1176 5.03089 48.2763 4.91622C48.0789 4.92955 48.0109 4.80689 47.9776 4.64422L47.7603 3.58022C47.6803 3.18956 47.6509 2.94423 47.7829 2.62289C47.8429 2.47756 47.6029 2.17756 47.9349 2.09223C47.7789 1.98956 47.6896 1.9629 47.6509 1.8749C47.6069 1.77223 47.8549 1.5269 47.8523 1.50023C47.8603 1.59756 47.3363 0.984231 48.3269 0.289566C48.4043 0.234899 48.4309 0.144233 48.5216 0.112233C48.5803 0.0908996 48.6256 0.176233 48.7296 0.153566C49.2949 0.0322331 50.2483 -0.166433 50.6616 0.260233C51.2829 0.902898 51.0256 3.02289 51.0616 3.84822L51.1336 5.44155C51.1549 5.92155 51.1829 6.51622 50.9376 6.95355C50.3829 7.52821 49.7896 7.73755 49.1016 7.19488C48.9509 7.07488 48.9536 6.90822 49.0376 6.80955C48.8163 7.00155 48.4803 6.18155 48.5616 5.96822Z" fill="#243D13"/>
<path d="M21.1028 75.5054C20.6868 75.6014 20.3108 75.5627 19.9121 75.568C19.3428 75.576 18.7761 75.7494 18.1761 75.5987C17.7308 75.7814 15.4082 75.8267 15.1442 75.432C14.9082 75.0787 15.1935 74.6254 15.1708 74.104C15.1495 73.6 15.4108 73.324 15.7308 73.0214C15.9922 72.7734 16.3015 72.7214 16.6335 72.7534C17.1428 72.804 17.6855 72.7654 18.2375 72.8494C18.3575 72.8667 18.5388 72.7947 18.6815 72.8067L19.3081 72.86L20.2815 72.916C21.6295 72.9934 21.9268 72.444 22.5641 73.2854C22.7828 73.572 22.5935 73.96 22.5268 74.2974C22.4641 74.6147 22.4121 74.828 22.2108 75.1C21.9655 75.4334 21.7775 75.6574 21.1028 75.5054Z" fill="#243D13"/>
<path d="M56.4894 6.73623C56.332 6.67356 56.368 6.98289 56.3494 7.10023C56.332 7.20023 56.4747 7.37089 56.608 7.37756C56.764 7.38423 56.8 7.30956 56.8414 7.20689C56.9027 7.05756 56.684 7.23089 56.4894 6.73623ZM58.5894 3.4949C58.736 3.39757 58.8334 3.24824 58.8587 3.12424C58.8947 2.94424 58.6254 2.84557 58.476 2.82024C58.3427 2.79757 58.1787 3.02024 58.148 3.1789C58.2467 3.26824 58.432 3.49357 58.5894 3.4949ZM55.5921 6.66023C55.5521 6.39623 56.2107 6.2789 55.9107 6.2069C55.8854 6.20023 55.8134 6.2309 55.7907 6.19223C55.6987 6.03623 55.8561 5.89356 55.9414 5.7629C55.7387 5.71756 55.7614 5.8989 55.6987 5.7709C55.6241 5.61756 55.8161 5.63623 56.028 5.44423C56.096 5.38023 56.0374 5.2669 56.0414 5.14956C56.044 5.07756 56.1267 5.06023 56.1374 5.02423C56.156 4.9669 56.0107 4.8629 56.028 4.79623C56.0707 4.61623 56.2454 4.4269 56.2227 4.25757L56.404 4.17623C56.4547 4.1549 56.3614 3.98823 56.3974 3.9549C56.6507 3.7189 56.668 3.4029 56.732 3.09224L57.0387 2.86824C57.0934 2.82824 56.9787 2.5789 57.0134 2.49757C57.2827 2.34557 57.3907 1.78024 57.8707 1.46557C58.548 1.01891 59.3067 1.55891 59.5867 1.67224C60.1774 1.91091 60.5347 2.37491 60.432 3.04424C61.0534 2.41757 60.1694 4.16157 60.264 4.03623C59.58 4.94557 57.9574 8.07222 56.66 8.05089C56.3734 8.04556 56.208 8.06689 55.9841 7.83623C55.7801 7.62689 55.5481 7.39223 55.7147 7.08289C55.6201 7.08823 55.5721 7.11756 55.5574 7.10023C55.5307 7.06956 55.5201 6.98556 55.5761 6.94023C55.6747 6.86156 55.7841 6.88156 55.8521 6.80956C55.6947 6.74823 55.6041 6.73623 55.5921 6.66023Z" fill="#243D13"/>
<path d="M35.46 12.6497C35.7214 12.383 35.9267 12.2524 36.2 12.0897C36.224 12.027 36.2374 11.951 36.184 11.8484C35.96 12.0604 35.6814 12.1404 35.3627 12.1417C35.3334 12.3217 35.3147 12.4977 35.46 12.6497ZM41.1654 15.1923C40.932 14.8363 41.0627 15.355 40.7774 15.5777C40.56 15.7483 40.3374 15.6123 40.1947 15.6457C39.8307 15.7323 39.5454 15.6257 39.2187 15.575L37.428 15.3003C36.5587 15.167 35.8507 14.971 35.0481 14.5563C35.0161 14.5057 35.0441 14.4217 35.0347 14.387C35.0361 14.3937 34.4601 14.3603 34.5281 13.5377C34.5534 13.2297 34.7107 12.9203 34.4987 12.5817C34.5521 12.5203 34.6041 12.5883 34.7321 12.6097C34.5961 12.3684 34.7987 12.235 34.8374 12.083C34.9094 11.7937 34.9987 11.6377 35.268 11.479C35.7067 11.219 36.3814 11.5924 36.3814 11.5924C36.7654 11.5537 37.192 11.695 37.536 11.863L37.968 12.075C38.02 12.1004 39.452 12.6937 39.2654 12.867L39.4054 12.7377C39.328 12.8097 40.88 13.539 41.0507 13.6603C41.2694 13.8163 41.4814 13.823 41.52 14.091C41.568 14.427 41.3934 14.811 41.1654 15.1923Z" fill="#243D13"/>
<path d="M62.5216 5.98688C62.2376 6.14688 62.0936 6.50022 62.1843 6.82688C62.067 7.40021 62.831 5.58822 62.5216 5.98688ZM61.3003 9.06954C61.1016 9.20288 60.855 9.24821 60.643 9.40954C60.3083 9.66554 59.8176 9.68154 59.4096 9.78554C59.2723 9.58021 59.0416 9.47354 58.963 9.29754C58.7376 8.78954 59.0963 8.29755 59.199 7.87488C59.3123 7.40021 59.4843 7.15488 59.747 6.81622C59.7403 6.82555 60.523 5.64955 60.4736 5.66022C60.5616 5.64022 60.639 5.74022 60.7683 5.72955C60.7256 5.58822 60.6763 5.46822 60.6923 5.29889C60.7003 5.21622 60.827 5.20422 60.9176 5.11489L61.3656 4.68422C61.515 4.54022 61.3403 4.28289 62.3376 4.03756C62.6736 3.95489 62.939 3.87622 63.2496 4.12556C63.5483 4.36689 63.959 4.56155 64.127 4.95355C64.239 5.21089 64.2883 5.49889 64.4336 5.76688C64.4883 5.86688 64.4336 6.00022 64.4523 6.10822C64.4696 6.22155 64.2643 6.21088 64.203 6.30688L63.7963 6.95355C63.919 7.11621 63.863 7.28821 63.7296 7.06688C63.575 7.17888 63.599 7.41088 63.4256 7.49355C62.7616 7.80555 62.811 8.37621 61.9856 8.57621C61.6736 8.65221 61.5483 8.90288 61.3003 9.06954Z" fill="#243D13"/>
<path d="M37.5334 19.3655C36.7708 19.4962 36.0148 19.6269 35.2614 19.5255C35.0734 19.5002 34.8721 19.3695 34.6788 19.3242C34.5228 19.2882 34.6321 19.0455 34.5575 18.9149C34.4228 18.9802 34.5161 19.1242 34.4335 19.2135C34.2188 19.0415 34.3828 18.8189 34.3335 18.6882C34.2561 18.4829 34.1641 18.3575 34.1681 18.1122C34.1735 17.7536 34.0895 16.7722 34.3228 16.5816C34.4735 16.4602 34.5748 16.3202 34.6361 16.1682C34.8268 15.9962 35.1934 16.0309 35.4214 15.9762C35.7961 15.8856 35.9881 16.0109 36.3388 16.1122C36.9268 16.2816 38.4548 16.4816 38.6961 16.6149C38.9668 16.7656 39.4361 16.7216 39.6614 17.0136C39.7788 16.9469 39.8534 16.8549 39.9281 16.8816C40.0828 16.9389 40.0254 17.1242 40.0841 17.1922C40.4254 17.5789 40.0708 17.8989 39.9748 18.3162L39.8934 18.6749C39.8681 18.7869 39.6268 18.7669 39.5468 18.8349C39.0148 19.2949 38.0681 19.2735 37.5334 19.3655Z" fill="#243D13"/>
<path d="M64.3924 12.2775L63.1538 12.4695C62.8738 12.5122 62.6551 12.4815 62.3844 12.4548C62.0684 12.4255 61.9418 12.4148 61.7231 12.2148C61.3458 11.8682 61.3391 11.5948 61.5138 11.1602C61.7151 10.6562 61.9351 10.2615 62.4204 9.97618C62.6231 9.85751 62.7844 9.68951 63.0298 9.60018C63.3444 9.48685 63.5711 9.19218 63.9404 9.09885C64.1604 9.04418 64.3231 8.73751 64.6444 8.76685C64.8804 8.78685 64.9818 8.23352 66.0991 8.32552C66.0884 8.41752 66.0138 8.42818 66.0004 8.47751C65.9858 8.53751 66.0004 8.63485 66.0818 8.67885C66.5404 8.92018 66.4284 9.22551 66.6551 8.94951C67.0138 9.40285 67.1791 10.0882 66.8951 10.6975C66.4804 11.5882 65.3951 12.1228 64.3924 12.2775Z" fill="#243D13"/>
<path d="M18.2098 84.7814C18.2058 84.6987 17.9298 84.3281 17.8285 84.3507C17.7285 84.3734 17.5978 84.4187 17.5938 84.5614C17.7471 84.4001 18.2285 85.2281 18.2098 84.7814ZM20.4858 83.8974C20.1591 85.1587 20.0285 85.2121 18.7578 85.4547C18.5191 85.5001 18.2831 85.6027 18.0631 85.3681C17.8978 85.4321 17.7605 85.5094 17.5991 85.4294C17.4205 85.3414 17.2671 85.2467 17.2151 85.0187L17.0578 84.3307C16.9938 84.0454 17.1498 83.8907 17.2098 83.6601C17.5071 82.5214 17.2618 81.7427 17.8298 81.0521C17.8511 81.0561 17.9391 81.1667 17.9858 81.1481C18.1711 80.9067 18.3925 80.8734 18.6698 80.9481C19.0391 81.0467 19.4298 81.0494 19.8325 81.1254C20.2818 81.2107 20.8098 81.0907 21.1045 81.6187C21.0725 81.5614 21.2911 82.4654 20.8418 82.5414C21.0791 82.8894 20.6058 83.4361 20.4858 83.8974Z" fill="#243D13"/>
<path d="M35.7457 21.2629L35.6297 21.3536C35.475 21.4749 35.4883 21.7163 35.5577 21.9429C35.5777 21.9856 36.207 20.9003 35.7457 21.2629ZM37.5216 21.1763C37.3203 21.0309 36.9283 21.0509 36.8723 21.2749C36.831 21.4403 37.151 21.4643 37.2643 21.4469C37.367 21.4309 37.587 21.3043 37.5216 21.1763ZM35.695 23.7603C35.535 23.7256 35.3497 23.7123 35.3283 23.5816L35.2603 23.1656C35.2377 23.0256 35.0483 22.9443 35.0257 22.7083C34.9563 21.9789 34.6523 21.7869 34.8803 21.3016C35.103 20.8229 35.735 20.4723 36.223 20.4563L37.503 20.4176L38.6323 20.3403C38.8683 20.3243 39.267 20.2056 39.423 20.3843C39.6216 20.7656 39.4923 21.2483 39.2296 21.4656C39.2123 21.5296 39.3376 21.6989 39.3576 21.7469C39.3883 21.8216 39.163 21.8536 39.155 21.9243C39.0843 22.5563 38.5736 22.8589 38.4083 23.0056C38.087 23.2909 37.7696 23.3656 37.403 23.4843C36.855 23.6616 36.3177 23.8963 35.695 23.7603Z" fill="#243D13"/>
<path d="M53.6896 16.1709C54.5029 16.7749 53.3683 18.8642 52.8349 19.0869C52.3136 19.3042 51.8376 19.3829 51.311 19.2616C50.4283 19.0576 49.7376 18.5176 49.4883 17.6469C49.3176 17.0563 49.283 16.4736 49.779 15.9976C49.9243 15.8576 49.9216 15.6069 50.0403 15.4269C50.2456 15.1149 51.1403 14.8309 51.4723 14.8296C51.7963 14.8296 52.2456 14.9296 52.5123 15.1083L53.2923 15.6309C53.4603 15.7429 53.5323 16.0549 53.6896 16.1709Z" fill="#243D13"/>
</svg>
