<svg width="72" height="86" viewBox="0 0 72 86" fill="none" xmlns="http://www.w3.org/2000/svg">
<path d="M20.5752 83.9654C20.7085 83.7228 20.5885 83.5655 20.4512 83.4241C20.3645 83.6681 20.5339 83.7974 20.5752 83.9654ZM18.6286 77.9695C18.9592 77.9081 19.1632 77.6908 19.4326 77.4241C19.1486 77.4415 18.9566 77.7468 18.6286 77.9695ZM42.4432 75.9961C42.6405 75.8695 42.6192 75.7055 42.7458 75.6068C42.8525 75.5255 42.9912 75.3975 42.8512 75.2695C42.7418 75.4055 42.6352 75.5148 42.5192 75.5855C42.5245 75.6281 42.6045 75.6455 42.5965 75.6695C42.5872 75.6988 42.4632 75.6961 42.4512 75.7201C42.4192 75.7868 42.3592 75.9468 42.4432 75.9961ZM29.1699 76.5761C29.3392 76.5255 29.3832 76.4668 29.4405 76.3041C29.4739 76.2081 29.6539 76.0081 29.5272 75.9001C29.2565 75.6655 28.9299 75.4601 28.6485 75.2588C28.5379 75.3348 28.3805 75.2828 28.2752 75.3415C28.0205 75.4801 27.8125 75.8348 27.8179 76.1295C27.8192 76.2268 27.9432 76.3895 27.9645 76.4881C28.2805 76.7241 28.7952 76.6881 29.1699 76.5761ZM3.98992 72.4401C4.07259 72.2801 4.22459 72.2561 4.36992 72.2188C4.31792 72.1521 4.31392 72.0428 4.25392 72.0401C4.19659 72.0375 4.19126 72.1535 4.14592 72.1615C3.88726 71.9855 4.00859 72.3135 3.76459 72.3908C3.85659 72.4495 3.91926 72.4281 3.98992 72.4401ZM40.4992 72.7468C40.8552 72.6548 40.8138 72.2615 40.8058 71.9468C40.5778 72.0308 40.5605 72.2535 40.5952 72.4588C40.5565 72.5495 40.4538 72.5921 40.4992 72.7468ZM37.2445 71.4935C37.2312 71.2468 37.2618 71.0788 37.1738 70.8775C37.0485 70.9162 36.9565 71.0948 37.0312 71.2002C37.1112 71.3135 37.1938 71.3828 37.2445 71.4935ZM35.1405 69.5255C35.1112 69.4948 34.9885 69.5735 34.9658 69.5148C34.9525 69.4775 34.9125 69.4482 34.8938 69.4095C34.6618 69.2935 34.9872 70.0201 35.0365 70.1228C35.1952 69.9655 35.2952 69.6948 35.1405 69.5255ZM42.7765 68.4162C42.7218 68.6935 42.5872 68.9948 42.6885 69.2615C42.7472 69.1415 43.0192 68.3002 42.7765 68.4162ZM17.9366 68.4322C17.9006 68.3775 17.7819 68.3588 17.7486 68.3922C17.5166 68.6255 17.5072 68.5762 17.5406 68.6588C17.5792 68.7508 17.6072 68.7482 17.6966 68.7028C17.8059 68.6455 17.9686 68.5548 17.9366 68.4322ZM45.5218 67.0588C45.4725 66.9535 45.4232 66.9322 45.4058 67.0548C45.3272 67.1762 45.1085 67.2055 45.0698 67.3402L44.9605 67.7735C45.3085 67.6562 45.1045 67.3948 45.5218 67.0588ZM22.9072 67.3655C23.1659 67.3548 23.2485 67.1695 23.4165 67.0775C23.5565 67.0108 23.7072 66.8855 23.6019 66.7215C23.2739 67.1415 22.9179 67.1282 22.9072 67.3655ZM19.3632 67.0975C19.3606 66.9668 19.2819 66.8002 19.1632 66.7468C19.1246 66.7295 19.0672 66.8655 19.0899 66.9002C19.2379 67.1215 19.1699 67.1308 19.2166 67.1615C19.2499 67.1815 19.3646 67.1562 19.3632 67.0975ZM18.0686 65.7388C18.1512 65.4948 17.9832 65.3802 17.9206 65.2482C17.8592 65.3562 17.7766 65.3575 17.7966 65.4242C17.8246 65.5162 17.9872 65.6895 18.0686 65.7388ZM40.0125 65.0842C40.0992 65.1242 40.2872 64.9988 40.2765 64.9028L40.2525 64.6882C40.0805 64.8028 40.0138 64.9588 40.0125 65.0842ZM31.9325 62.8748C32.0445 62.7922 32.1245 62.6788 32.0179 62.5575C31.9232 62.6975 31.8179 62.8522 31.7979 63.0335C31.7925 63.0842 31.8885 63.1188 31.9352 63.0962C31.9592 63.0842 31.9832 63.0548 31.9672 62.9975L31.9325 62.8748ZM33.6378 61.6748C33.8458 61.6868 33.8592 61.2948 33.7112 61.2455C33.5272 61.2482 33.4872 61.6668 33.6378 61.6748ZM27.5579 59.6695C27.4512 59.6735 27.3339 59.6655 27.2539 59.7028C27.2059 59.7948 27.2565 59.9242 27.2259 60.0028C27.5099 59.9908 27.2685 59.9388 27.5579 59.6695ZM50.0391 58.5842C49.8698 58.7108 49.9431 58.9242 50.0005 59.0788C50.0551 58.8988 50.2871 58.4002 50.0391 58.5842ZM37.5552 56.2549C37.5205 56.1242 37.3818 56.1202 37.3298 56.0349C37.3578 56.2109 37.3472 56.3295 37.3952 56.5109C37.4232 56.4295 37.5738 56.3242 37.5552 56.2549ZM40.0258 56.2549C40.1258 56.2175 40.1472 55.9082 40.0552 55.8655C39.9338 55.8362 39.9205 55.9735 39.8938 56.0335C39.8632 56.1055 39.8858 56.3095 40.0258 56.2549ZM36.4805 57.6722C36.5018 57.2269 36.3232 56.5295 36.2192 56.4042L35.7205 55.7989C35.7138 55.6602 35.6498 55.6935 35.6178 55.8322L35.2765 55.6055C35.2378 55.7909 34.8045 55.3842 34.5845 55.6042C34.3565 55.8322 34.1978 56.1375 33.8658 56.2549C33.9752 56.7135 33.6138 57.0602 33.6218 57.3815C33.8912 58.1828 34.8712 58.4895 35.6725 58.3642C35.5325 58.3868 36.4645 58.0175 36.4805 57.6722ZM29.4205 55.7322C29.2992 55.7655 29.3419 55.8322 29.4419 55.8109C29.6459 56.2029 30.4352 56.0015 30.5885 55.6455C30.6779 55.4349 30.7032 55.0895 30.4992 54.9122C30.4192 54.8402 30.2539 54.8135 30.1819 54.6682C30.0925 54.8309 29.0499 54.8695 29.2685 55.2522C29.3525 55.4002 29.4805 55.5389 29.4205 55.7322ZM43.9445 55.4762C44.1152 55.4762 44.2605 55.2709 44.4738 55.3269C44.6032 54.9949 45.4538 54.8882 45.4312 54.2669L45.4191 53.9082C45.4125 53.7162 45.3765 53.5535 45.4232 53.3335C45.5805 52.5909 45.2792 52.3242 44.5992 51.9789C44.5112 51.9349 44.5138 51.8002 44.4312 51.7429C44.3645 51.9242 43.7485 51.7442 43.8312 51.5789C43.7125 51.6762 43.6165 51.5789 43.5205 51.6042L43.3152 51.6562C43.2405 51.6762 43.1658 51.6335 43.0978 51.6602C43.0472 51.6789 43.0192 51.8042 42.9712 51.8162C42.8432 51.8455 42.7432 51.8389 42.6485 51.9535C42.4565 52.1855 42.2805 52.0255 41.8778 52.8242C41.8245 52.8829 41.6058 52.8895 41.6085 52.9962C41.6685 53.6629 41.5098 53.0189 41.6698 53.7655C41.6965 53.8895 41.7912 53.9749 41.6392 54.0922C41.8072 54.2429 41.8405 54.4322 41.9112 54.6269C42.0352 54.9709 42.3792 55.2149 42.7485 55.3135C43.3618 55.4789 42.7432 55.4722 43.9445 55.4762ZM15.6179 51.8015C15.4832 51.6295 15.4072 51.5935 15.3312 51.4429C15.1286 51.5909 15.0046 51.8589 15.1579 52.1349C15.2792 51.9682 15.4419 51.9162 15.6179 51.8015ZM67.0524 49.9482L67.3018 49.2229C67.1991 49.1802 67.0071 49.2655 67.0138 49.4055C67.0218 49.5962 66.9378 49.7909 67.0524 49.9482ZM17.9859 48.3909C17.9992 48.3455 18.0152 48.2855 18.0032 48.2309C17.8192 48.3055 17.6712 48.4202 17.5926 48.6375C17.5486 48.8242 18.0259 48.2522 17.9859 48.3909ZM7.70325 46.9815C7.60591 46.9362 7.42058 46.9509 7.38725 47.0589C7.36325 47.1349 7.41925 47.1855 7.47392 47.2389C7.50458 47.2695 7.53525 47.2309 7.54591 47.1495C7.60725 47.1429 7.64058 47.1615 7.65925 47.1362C7.68325 47.1042 7.75258 47.0029 7.70325 46.9815ZM48.8311 47.2002C48.7431 47.0935 48.5405 47.0669 48.5738 46.8322C48.3351 47.1042 48.3151 46.7602 48.0058 46.8615C47.8138 46.9229 47.8871 46.9722 47.8445 47.1135C47.7818 47.3229 47.6791 47.5042 47.7991 47.6682C47.9645 47.8962 48.2445 47.8069 48.3991 47.9135L48.4951 47.9802C48.4738 47.9655 49.1285 47.5615 48.8311 47.2002ZM17.8179 45.7722C17.7166 45.6629 17.5259 45.6309 17.4539 45.6775C17.4606 45.8069 17.4806 45.8895 17.4552 45.9749C17.5846 45.8802 17.7099 45.9535 17.8179 45.7722ZM16.3699 45.9909C16.4392 45.7535 16.3499 45.4962 16.0872 45.4442C16.1366 45.6362 16.1912 45.8282 16.3699 45.9909ZM13.0472 48.6989C14.1152 49.0175 14.4992 48.7575 15.3819 48.2455C15.3632 48.1535 15.4406 48.0975 15.4739 48.0375C15.7419 47.5402 15.7686 46.9482 15.6552 46.4069C15.6032 46.1562 15.1752 45.7749 15.0272 45.7455C14.9432 45.7295 14.8939 45.5069 14.7726 45.5589C14.6912 45.5922 14.5779 45.6882 14.4872 45.6749C14.4192 45.6655 14.3446 45.5242 14.2566 45.4895C14.1526 45.5629 14.0032 45.6722 13.8699 45.5869C13.6952 45.4775 13.5859 45.6402 13.4699 45.6575C13.2579 45.6882 13.1206 45.6442 12.9792 45.8495C12.8646 46.0149 12.4899 46.1442 12.4846 46.4015C12.4819 46.5575 12.4099 46.6629 12.3819 46.7922C12.3619 46.8829 12.4366 47.0682 12.3819 47.1709C12.3499 47.2322 12.4899 47.3829 12.3512 47.4295C12.3699 47.4815 12.4206 47.5162 12.4072 47.5442C12.3819 47.5922 12.3446 47.6282 12.2726 47.6869C12.5712 47.9349 12.5552 48.5522 13.0472 48.6989ZM45.2058 45.2575L45.3472 44.9895C45.3845 44.9175 45.3885 44.8909 45.3845 44.8496C45.3805 44.8149 45.2765 44.7202 45.2405 44.7802C45.1792 44.8842 45.1872 45.0216 45.0525 45.0989C44.9912 45.1349 45.0085 45.2082 45.0258 45.2469C45.0445 45.2882 45.1658 45.3335 45.2058 45.2575ZM67.9644 45.8109C68.2511 45.7095 68.0938 45.4802 68.1444 45.3255C68.2231 45.0855 68.3258 44.8735 68.3004 44.5829C67.8564 45.0829 68.0764 45.3642 67.9644 45.8109ZM56.9725 44.6336C56.9151 44.6669 57.2058 44.3816 57.0805 44.2909C57.0405 44.2616 56.9845 44.1949 56.9151 44.2309C56.8738 44.2536 56.8538 44.3522 56.7831 44.3749C56.7245 44.3936 56.6565 44.3709 56.6258 44.4109C56.5938 44.4522 56.5778 44.5109 56.6018 44.5469C56.6285 44.5869 56.9325 44.6562 56.9725 44.6336ZM65.6498 44.1176C65.0231 43.9509 65.3644 44.3136 64.6738 43.9229C64.4684 44.2802 64.4884 44.8869 64.8724 44.9989C65.0044 45.0375 65.1938 45.0162 65.3404 44.9082C65.5591 44.7469 65.6231 44.4376 65.6498 44.1176ZM42.2405 47.0322C42.7898 47.0002 43.3232 46.7829 43.7458 46.4429L43.9418 46.0295C44.0712 45.7562 44.0418 45.4442 44.0392 45.1669C44.0325 44.4109 43.6125 44.5509 43.5725 44.0269L43.4925 44.1162C43.5205 44.0856 43.1285 43.8536 43.1685 43.6762C43.0405 43.6869 42.4352 43.4869 42.4752 43.4762C42.4445 43.4842 42.4312 43.5589 42.3978 43.5736C42.2645 43.6349 42.0712 43.5042 41.9418 43.5736C41.5565 43.7829 41.5845 43.5509 40.8832 44.1176C40.7845 44.1962 40.8085 44.3802 40.6845 44.4682C40.1898 44.8176 40.5165 44.9402 40.3272 45.3295C40.3578 45.2389 40.8338 46.2722 40.6138 46.1362C41.0432 46.6042 41.4792 47.0762 42.2405 47.0322ZM49.3031 41.8656C49.2631 41.7496 49.2298 41.6349 49.1471 41.5642C49.0671 41.7656 48.9018 42.2429 49.0285 42.3282C49.0511 42.3429 49.0965 42.3042 49.1218 42.2962C49.0551 42.3149 49.3125 41.8936 49.3031 41.8656ZM60.8791 42.1269C61.1338 42.0149 61.2671 41.8416 61.4844 41.7802C61.5578 41.7602 61.6298 41.7749 61.6658 41.7402C61.7231 41.6842 61.7751 41.6029 61.6938 41.5109C61.4018 41.7389 60.7124 41.7602 60.8791 42.1269ZM55.8831 41.4069C56.0285 41.4002 56.1045 41.3162 56.1938 41.3176C56.1005 41.2362 56.1178 41.1429 56.0631 41.0456C55.9578 41.1456 55.8605 41.1562 55.7418 41.1282C55.7231 41.2149 55.7778 41.4109 55.8831 41.4069ZM64.7991 41.3376L65.2084 41.0669C65.2711 41.0256 65.2618 40.8949 65.2871 40.8442C65.2658 40.7002 64.5191 41.1629 64.7991 41.3376ZM53.4205 40.9989C53.5338 40.7869 53.4951 40.5509 53.2991 40.4989C53.2298 40.6856 53.2791 40.9069 53.4205 40.9989ZM43.0458 40.1829C43.0618 40.0522 42.9098 40.0922 42.8325 40.1082C42.7072 40.1322 42.6272 40.0069 42.4898 40.0229C42.5512 40.1282 42.5485 40.3389 42.6698 40.4109C42.7685 40.4682 43.0312 40.3096 43.0458 40.1829ZM65.3031 39.3162C65.6911 38.9842 64.4738 39.4962 64.6271 39.5216C64.8671 39.5749 65.1378 39.4576 65.3031 39.3162ZM47.2751 39.8322C47.4218 39.7322 47.5285 39.2162 47.4005 39.0949C47.3311 39.0282 47.2538 39.0496 47.1445 39.1122C47.2791 39.3256 47.3405 39.5629 47.2751 39.8322ZM49.4085 38.9096C49.4071 38.9989 49.5658 38.9216 49.5698 38.8469C49.5711 38.8096 49.5431 38.3122 49.3258 38.3922C49.4498 38.5736 49.4245 38.7176 49.4085 38.9096ZM38.5605 37.4602C38.5325 37.3936 38.4258 37.3736 38.3512 37.3802C38.4165 37.7882 38.1112 37.3536 38.3858 38.0322C38.3418 38.0482 38.2378 38.0482 38.2458 38.0802C38.2592 38.1269 38.2938 38.1256 38.3005 38.1442C38.3605 38.3082 38.7338 37.8856 38.5605 37.4602ZM38.7258 36.0082C38.6445 36.0096 38.6072 36.0522 38.5792 36.1482C38.5125 36.3762 38.6712 36.5576 38.7952 36.7336C38.8685 36.6042 38.9098 36.0029 38.7258 36.0082ZM46.1831 37.4042C46.2191 37.3549 46.1725 37.2402 46.2525 37.1669C46.3991 37.0309 46.3992 36.8176 46.3192 36.6629C46.3232 36.6016 46.4191 36.5082 46.4005 36.4389C46.3271 36.1682 46.3898 35.9162 46.3898 35.6589C46.3911 35.4829 46.1498 35.3936 46.0898 35.2616C46.0485 35.1722 46.0218 35.1136 45.9551 35.0576C45.8938 35.0069 45.8511 35.0829 45.7325 35.0976C45.7098 34.9509 45.6885 34.7202 45.5485 34.7136C45.4258 34.7456 45.3032 34.8029 45.1992 34.6469C45.1752 34.6082 45.1312 34.5776 45.0965 34.5629C45.0578 34.5469 45.0205 34.6069 44.9698 34.6069C44.6272 34.6056 44.2232 34.5029 43.8872 34.6389C43.7445 34.6962 43.6805 34.8376 43.4752 34.7309C42.7072 35.5869 43.3738 35.0682 42.8658 35.7762C42.9218 35.8376 42.8738 35.9469 42.8792 36.0082C42.9178 36.3762 42.5298 36.7269 43.2885 37.6656C43.6818 38.1522 44.8152 38.2656 45.2552 38.0042C45.5698 37.8176 45.9472 37.7402 46.1831 37.4042ZM38.0445 34.5322C37.8285 34.4082 37.6738 34.5176 37.5058 34.4509C37.3498 34.3869 37.1605 34.4362 37.0258 34.5216C37.5592 34.6936 37.6552 34.7789 38.0445 34.5322ZM51.9231 30.9016C52.2005 31.1016 52.4525 30.9976 52.6965 30.9723C52.7391 30.9123 52.8018 30.8829 52.8111 30.8456C52.8205 30.8109 52.7538 30.6936 52.7231 30.7136C52.5871 30.8043 52.4258 30.7909 52.2778 30.8069C52.1565 30.8189 52.0338 30.9123 51.9231 30.9016ZM44.6312 27.7869C44.6072 27.7709 44.5712 27.7109 44.5258 27.7003L43.9765 27.5776C43.8885 27.5576 43.7472 27.5803 43.6738 27.6003C43.1818 27.7363 43.4032 28.6536 43.7005 28.8349C43.9258 28.9723 44.4525 28.8309 44.4898 28.7589C44.5258 28.6883 44.6538 27.8003 44.6312 27.7869ZM53.2378 2.50833C53.0498 2.49366 52.5151 2.27099 52.4498 2.46166C52.8645 2.46299 53.1058 2.86166 53.2378 2.50833ZM47.3005 2.46166C47.1005 2.40433 47.1391 1.77233 46.9325 1.88566C46.8258 1.943 46.7125 1.88966 46.7498 2.06166C46.7858 2.23233 46.7391 2.37366 46.8871 2.44033C47.0258 2.50299 47.1591 2.62033 47.3005 2.46166ZM50.2031 1.79233C50.2511 1.75366 50.0898 1.58566 50.0298 1.63633C49.9098 1.73766 49.8245 1.80966 49.6671 1.86166C49.8405 1.90966 50.0631 1.90566 50.2031 1.79233ZM61.2111 1.53633C61.1951 1.33366 60.9884 1.22566 60.8551 1.28966C60.7164 1.35633 60.6018 1.235 60.4471 1.35233C60.7151 1.435 60.9284 1.50833 61.2111 1.53633ZM36.7605 72.3161C36.7165 72.0268 36.4832 71.8775 36.3312 71.6895C36.1565 71.4735 35.9725 71.4775 35.7338 71.4455C35.3698 71.3988 35.1018 71.4281 34.7445 71.6441C34.4432 71.8255 33.7898 71.0975 33.8192 71.1388L33.0338 70.0468C32.9312 69.9042 32.8552 69.6695 32.7965 69.5268C32.5632 68.9655 32.8805 67.7282 33.3525 67.8628L33.9498 68.0348C34.4912 68.1895 34.9818 67.4668 34.9845 66.8548C34.9872 66.1708 34.3965 65.2148 33.5045 65.2495C33.2432 65.2602 32.9445 65.4442 32.7872 65.6228C32.7112 65.7082 32.7032 65.7722 32.5765 65.8122C32.4299 65.8895 32.4298 66.1202 32.2845 66.2388C32.1245 66.3682 32.2005 66.6628 32.1125 66.8442C32.0072 67.0575 31.8205 67.2228 31.8552 67.5108C31.6952 67.5468 31.6125 67.6588 31.4832 67.7068C31.0912 67.8508 30.4299 66.6895 30.3885 66.6402L30.1245 66.3255C29.6592 65.7682 29.7072 65.8575 29.2979 65.3962L28.6965 64.7188C28.5552 64.5602 28.4965 64.3762 28.2925 64.2522C28.2245 64.2122 28.2432 63.9868 28.0752 64.0482C28.2365 64.6788 28.0299 64.5362 28.1445 64.8975C28.0832 65.0148 28.0005 65.1615 28.1059 65.3108C28.1032 65.3668 27.9939 65.3948 27.9645 65.4335C28.0232 65.4748 28.0659 65.5002 28.0539 65.5282C28.0379 65.5668 27.9845 65.6002 27.9765 65.6428C27.9472 65.7975 28.0712 65.9362 28.0712 66.0868C28.0699 67.4775 28.4365 67.1548 27.8379 68.0975C27.9299 67.9522 27.4045 69.1268 27.4539 69.0255C27.0659 69.4162 26.5899 69.7375 26.0712 69.8562C25.7419 69.9335 25.1952 70.3561 24.7232 70.4361C24.6059 70.4561 24.5619 70.4842 24.4592 70.5268C24.4085 70.5468 23.7699 70.5855 23.5979 70.6961C23.5392 70.7348 23.3739 70.7361 23.3085 70.7495L22.8605 70.8415C22.7232 70.8695 22.6165 70.8561 22.5019 70.9188L22.2539 70.9322C22.1765 70.9375 22.1125 70.8242 22.0392 70.8575C21.9699 70.8882 21.8992 70.9828 21.8192 71.0042C21.7432 71.0228 21.6685 70.9175 21.6045 70.9108C21.5365 70.9028 21.4819 70.9962 21.4019 71.0068C21.3459 71.0135 21.2952 70.9548 21.2539 70.9495C21.2045 70.9415 21.1605 71.0761 21.0979 71.1001C20.9072 70.9441 20.6605 71.0602 20.4459 71.1148C20.2845 71.1575 20.0059 70.9508 19.8405 71.1481C19.7899 71.0721 19.7579 71.0442 19.7232 71.0522C19.6952 71.0588 19.6512 71.1468 19.6232 71.1442C18.8846 71.0695 19.0192 71.3708 18.7339 71.1041C18.5966 71.4361 18.1672 71.0882 17.8952 71.0708C17.6952 71.2895 17.4286 71.2201 17.2406 71.0361C17.1699 71.1028 17.1192 71.1921 17.0659 71.1935C16.9979 71.1948 16.9632 71.1028 16.8966 71.0388C16.8619 71.0775 16.8526 71.1441 16.8112 71.1735C16.7659 71.2055 16.6992 71.1695 16.6326 71.1668L15.6966 71.1228C15.6726 71.1215 15.6459 71.0428 15.6299 71.0575C15.6019 71.0841 15.5819 71.1361 15.5486 71.1975C15.3886 71.1015 15.1952 71.1215 15.0192 71.1802C14.8579 71.2335 14.7219 71.1748 14.5659 71.1802C13.5272 71.2148 14.3072 71.3881 13.4792 71.4068C13.0112 71.4161 12.9712 71.5575 12.5939 71.5175C11.8312 71.4348 12.1032 71.7681 11.5952 71.6655C11.4286 71.6308 11.2432 71.8081 11.0779 71.8108C10.8432 71.8161 10.6392 71.8561 10.4086 71.9135C10.2406 71.9548 10.0379 71.9108 9.88591 72.0535C9.73391 72.1948 9.52191 72.2361 9.33524 72.3068C9.05924 72.4108 8.54325 72.7388 8.18591 72.9135L7.19125 73.3988C6.79925 73.5908 5.92192 73.8921 5.60325 74.2588C5.57792 74.2868 5.21259 74.9255 5.08192 74.8535C5.28059 74.9895 5.11659 75.0881 5.05259 75.1921L4.80325 75.6001C4.90592 75.4335 4.38592 76.6481 4.49526 76.5841C4.28859 76.7335 4.31259 76.9495 4.23259 77.1415C4.15926 77.3188 4.08859 77.4268 4.06726 77.6255C4.03926 77.8935 3.66059 78.0761 3.42326 78.0121C3.36859 77.5401 3.24326 77.1601 3.04859 76.7641C2.77659 76.2121 2.90193 76.0495 2.63393 75.4628C2.62993 75.6148 2.48059 75.7055 2.43393 75.8441C2.39793 75.9481 2.37126 76.0148 2.30459 76.1268L1.9006 76.8108C1.79926 76.9815 1.68993 77.1295 1.60326 77.3028C1.41926 77.6761 0.813933 78.3321 0.645933 77.9801C0.549933 77.7775 0.547267 77.4988 0.541933 77.2788L0.525933 76.7281C0.5206 76.5588 0.503267 76.4335 0.479267 76.2841C0.451267 76.1081 0.489933 75.9561 0.4206 75.7735C0.3246 75.5228 -0.0380656 73.7668 0.00326765 73.4668C0.120601 72.6441 0.0886001 72.8081 0.573932 72.0735C0.837931 71.6748 1.06993 71.6308 1.23393 71.4268C1.48193 71.1188 1.8326 70.9308 2.14326 70.6935C2.61926 70.3295 3.12726 70.0322 3.66992 69.7962C3.79126 69.7442 3.81659 69.7295 3.88992 69.6295C4.03792 69.4308 4.35659 69.4135 4.56059 69.2975C4.74059 69.1962 4.87125 69.0708 5.06459 68.9962C5.34325 68.8882 5.61259 68.7562 5.86992 68.6015C6.01925 68.5122 6.17125 68.4922 6.32192 68.4188C6.88192 68.1508 7.36992 68.0455 7.41525 68.0215C7.81925 67.8095 8.20858 67.7068 8.63258 67.5722L10.2579 67.0575L11.6952 66.6028L12.6939 66.3362C12.9232 66.2748 13.1432 66.1402 13.3966 66.2548C14.0579 66.5535 13.7326 67.2108 14.3006 67.3442C14.8099 67.4642 14.7992 67.6602 15.5766 67.2242C15.5726 67.1108 15.6339 66.9762 15.6592 66.8908C15.7286 66.6668 15.5566 66.4375 15.5752 66.2122C15.6779 65.0535 16.1486 65.3162 16.3886 65.1028L16.8672 64.6748C17.2192 64.6388 17.5099 64.5202 17.7886 64.3322C18.0726 64.1402 18.3406 64.3708 18.5632 64.5002C18.8992 64.6975 19.0246 64.9482 19.1166 65.3122C19.1766 65.5495 19.4859 65.7375 19.5659 65.9722C19.6939 66.3442 20.7659 66.6602 21.3899 66.2015C22.2152 65.5948 21.9752 65.4255 22.0325 65.0162C22.0432 64.9428 22.0445 63.2762 22.0312 63.1362C21.9632 62.4282 22.1205 61.0242 22.0272 60.3575C22.0179 60.2962 22.1072 60.1948 22.0685 60.1428C21.9419 59.9802 22.0259 59.8348 22.0165 59.6642C21.9485 58.4762 21.7845 57.3055 21.4605 56.1482C21.4099 55.9669 21.2765 55.7949 21.1939 55.6175C21.0339 55.2709 20.7045 55.0095 20.3552 54.8602C19.8552 54.8709 19.7579 55.0855 19.3179 54.9255C19.2552 54.9069 19.1486 55.0242 19.0792 55.0162C18.9779 55.0055 18.8992 54.8815 18.7992 54.8615C18.3419 54.7695 17.9192 55.0135 17.4872 55.1055C17.1192 55.1829 16.8072 55.3469 16.4752 55.4789C16.2792 55.5562 16.0219 55.5002 15.9099 55.7215C15.7752 55.6962 15.5859 55.8015 15.4579 55.8202C15.2806 55.8469 15.1312 55.8229 15.0499 56.0069C14.9459 55.9975 14.8152 56.0402 14.7192 56.0589C13.9059 56.2069 14.3179 56.4042 13.6926 56.4015C13.6659 56.6375 13.4286 56.5802 13.2672 56.6455C13.0019 56.7549 12.7699 56.9109 12.4699 56.9322C12.3352 56.9429 12.2406 57.0695 12.1632 57.1535C11.9286 57.1242 11.6739 57.2295 11.4512 57.3215C11.3326 57.3709 11.1779 57.2629 11.0339 57.3789C10.9552 57.4429 10.7379 57.3388 10.6419 57.2722C9.19791 56.2629 9.54591 55.8789 8.93924 55.2349C8.66458 54.9415 8.59525 54.5535 8.66991 54.1762C8.70991 53.9749 8.86058 54.0229 9.00991 53.9642C9.72991 53.6829 9.46591 54.3055 10.1672 54.2389C10.3059 54.2255 10.4326 54.2495 10.5712 54.1762C10.8206 54.0442 11.1299 54.0255 11.3686 53.8775C11.5712 53.7522 11.8059 53.6642 11.9726 53.4869L12.4806 52.9415C12.4579 52.9655 12.8886 52.1402 12.8926 52.1242C12.9779 51.8095 12.9392 51.3149 12.7459 51.0229C12.4379 50.5589 11.9032 50.3242 11.4352 50.1042C11.4046 50.0895 11.0072 50.1162 10.9686 50.1202C10.8686 50.1322 10.8619 50.3095 10.8219 50.3522C10.6259 50.5575 10.5512 50.8029 10.5859 51.1069C10.6006 51.2242 10.5259 51.3415 10.5699 51.4802C10.6632 51.7789 10.4752 52.0495 10.2819 52.3082C10.1886 52.4322 9.97124 52.2415 9.95658 52.0962C9.94058 51.9509 9.83924 51.9735 9.78591 51.9189C9.35524 51.4709 9.20858 51.4189 8.79525 50.9709C8.73658 50.9749 8.66058 50.9335 8.70191 50.9989L8.35258 51.7842C8.39125 51.9175 8.37391 52.0815 8.36458 52.2042C8.34458 52.4389 8.53125 52.6522 8.39658 52.8989C8.37258 52.9429 8.47391 53.0429 8.43925 53.0655C7.96191 53.3735 8.23925 53.0629 7.88325 53.3162L7.61258 53.0015C7.58858 52.9735 6.70325 52.1002 6.73525 51.9562L6.63792 52.0402C6.57392 52.0949 6.64192 51.9829 6.45125 51.8802C6.40592 51.8562 6.33925 51.9549 6.28858 51.9562C5.94992 51.9722 5.90859 51.3535 5.70592 51.2429C5.40725 51.0802 5.19125 50.8869 5.00859 50.6215C4.88725 50.4442 4.51392 50.2789 4.49126 49.9909C4.43126 49.9469 4.33126 49.9135 4.28326 49.8255L4.02726 49.3509C3.94992 49.2082 3.87659 49.0135 3.87392 48.8709L3.86459 48.4082C3.86326 48.3135 4.05792 48.1922 3.95792 48.0322C4.32326 47.7842 4.08726 47.6842 4.64459 47.5442C4.79526 47.5069 4.89926 47.4215 4.99126 47.3242C5.03125 47.3602 5.04725 47.4029 5.06325 47.4002C5.09259 47.3975 5.11125 47.3215 5.13525 47.3002C5.36725 47.0842 5.68592 47.0362 5.94459 46.8815C6.21392 46.7215 8.13925 45.7189 8.38725 45.6202C8.65791 45.5122 8.91925 45.4722 9.17658 45.2909C9.30058 45.2042 9.46458 45.1056 9.61124 45.0509L10.1926 44.8335L11.7846 44.1122C12.1259 43.9576 12.4192 43.7869 12.8032 43.6856C12.6979 43.7122 13.7766 43.1922 13.8259 43.1922C13.9939 43.1922 14.0992 43.0589 14.2339 43.0162C14.5139 42.9269 14.7766 42.8069 15.0352 42.7016C15.3312 42.5816 15.5659 42.4402 15.7459 42.1522C15.8019 42.0616 15.7752 41.9669 15.8072 41.8682C15.8486 41.7389 16.0606 41.6256 15.9952 41.4509C15.9072 41.2149 16.1566 41.1656 16.2006 41.0109C16.2592 40.8029 16.3459 40.5496 16.5059 40.4002C16.5432 40.2749 16.8259 39.6722 16.8259 39.6562C16.8166 39.5176 16.9432 39.4469 16.9912 39.3429C17.1872 38.9136 17.3339 38.4909 17.6659 38.1442C17.9152 37.8829 18.0286 37.5002 18.3192 37.2576C18.4312 37.1656 18.7379 37.1336 18.8272 37.2282L19.2432 37.6696C19.3966 37.8336 19.4686 37.8989 19.5459 38.1082C19.6366 38.3536 19.8086 38.5869 19.9459 38.8269L20.8525 40.4189C20.8645 40.4389 20.7872 40.4829 20.7792 40.5029C20.7592 40.5509 20.8312 40.5429 20.8605 40.5709C21.0832 40.7896 21.1819 41.0722 21.3379 41.3402C21.5165 41.6456 21.6259 41.9549 21.5965 42.3349C22.2659 42.5416 22.1725 42.3322 22.7019 42.5576C22.9899 42.6802 23.2525 42.8202 23.5245 42.9869C23.7152 43.1029 23.8525 43.2536 24.0139 43.3682C24.2659 43.5469 24.5485 43.7029 24.7419 43.9589C24.7885 44.0202 24.9072 44.1549 24.9765 44.1842C25.1459 44.2562 25.2859 44.4416 25.4272 44.5456C26.0685 45.0175 26.4845 45.6362 26.8872 46.3122C26.9432 46.4055 27.0152 46.5295 27.0405 46.6149C27.1619 46.7669 27.3059 46.8882 27.2779 47.1082C27.2672 47.1962 27.4712 47.3615 27.3072 47.4615C27.2365 47.5042 27.1565 47.6482 27.0765 47.6829L26.5512 47.9069L25.9539 48.2149C25.7445 48.3229 25.7152 48.4002 25.6725 48.6202C25.5832 49.0855 25.5992 49.0989 25.6712 49.5122C25.7632 50.0309 26.0165 50.6509 26.5845 50.8255C26.7672 50.8815 27.0112 51.0175 27.2085 50.9149C27.8792 50.5655 27.7912 51.1149 28.5592 50.4482C28.7739 50.2615 28.9925 50.1375 29.1499 49.8869C29.2459 49.7349 29.5832 49.8362 29.7325 49.9349C30.0245 50.1255 30.2952 50.6402 30.7325 50.9615L31.4245 51.4709C31.7845 51.7349 32.0445 51.7429 32.2325 51.9402C32.2779 51.9882 32.3085 52.0135 32.3645 51.9122C32.7872 52.1882 33.2445 52.2615 33.7552 52.2282C34.7872 52.1615 34.9912 52.1829 35.9498 51.8495C36.2058 51.7615 36.4125 51.6735 36.6298 51.4895C36.7312 51.4042 36.9232 51.3895 37.0192 51.2629L37.3605 50.8082C37.2952 50.8949 37.8312 49.7469 37.8205 49.7589C38.0045 49.5362 38.3205 48.7242 38.3458 48.5255C38.3832 48.2295 38.4085 47.9789 38.5058 47.6869C38.6005 47.4029 38.5672 46.5362 38.6058 46.1309C38.6405 45.7749 38.4178 45.2629 38.3912 44.9976C38.3458 44.5349 38.2205 44.1096 38.1058 43.6562C38.0352 43.3736 37.9058 43.1709 37.8218 42.9029L37.7138 42.5602C37.6605 42.3896 37.3858 42.0282 37.1645 41.1522C37.0992 40.8922 37.0645 40.6842 36.9365 40.4522C36.7965 40.1936 36.7298 39.8816 36.6338 39.6016L36.2285 38.4309C36.1258 38.1336 36.0565 37.8416 35.9578 37.5256L35.7952 37.0056C35.5538 36.2336 35.5445 35.5776 35.3632 34.9389C35.2952 34.7029 35.1378 34.4602 35.1592 34.2016C35.1845 33.8882 35.1005 33.5936 35.1512 33.2936L35.2165 32.9043C35.7138 32.7856 36.2325 32.9362 36.6618 33.1882C36.9738 33.3722 37.3352 33.4642 37.6245 33.6656C38.0392 33.9549 38.4178 33.8522 38.8245 33.5482L39.2818 33.2069C39.3338 33.1682 39.2992 33.0389 39.3898 32.9989C39.6485 32.8842 39.7298 32.6176 39.8538 32.4003L40.0525 32.0536C40.1445 31.8923 40.0325 31.7363 40.1152 31.6176L40.2645 31.4056C40.3498 31.2843 40.1765 31.2216 40.0965 31.1376C39.6405 30.6603 39.9778 29.8363 39.5925 29.3536C39.3178 29.0083 39.0072 28.8469 38.5698 28.7589C38.3632 28.7176 38.0978 28.6856 37.8858 28.7349C37.2258 28.8856 37.3032 29.1709 36.7192 29.3709C36.5312 29.7323 36.4992 29.5949 36.3898 29.6429C36.3312 29.6683 36.4525 29.7683 36.0538 29.9803C36.0232 30.0083 35.9085 29.9536 35.8645 29.9576C35.8072 29.9643 35.7698 30.1096 35.7098 30.1109C35.5352 30.1176 35.4498 29.9176 35.3232 29.8416C34.7325 29.4856 34.9378 29.8416 34.7592 29.1309C34.5925 28.4656 34.8858 28.5643 34.7952 28.2803C34.7338 28.0856 34.8472 27.8816 34.8298 27.7003C34.7885 27.2869 34.7725 26.8949 34.8112 26.4789C34.8525 26.0376 34.7352 25.5736 34.8618 25.1349C34.9058 24.9843 34.8298 24.8429 34.8498 24.7523C34.9058 24.5096 35.1765 23.3723 35.1552 23.2336C35.1285 23.0749 35.1965 22.9976 35.2192 22.8696L35.4392 21.6309C35.4698 21.4563 35.4165 21.3523 35.6125 21.2123C35.7312 21.1269 35.8218 20.9056 36.0258 20.8963C36.2725 20.8869 36.4472 21.1149 36.4725 21.3576C36.5765 21.4629 36.7285 21.5003 36.7872 21.6363C36.8045 21.6763 36.7245 21.7429 36.7138 21.7776C36.6738 21.9043 37.1832 22.2656 37.2538 22.4176C37.4232 22.7803 37.6925 23.0029 38.0658 23.0989C38.4418 23.1963 38.6298 23.0149 38.8845 22.7816C39.4698 22.2469 39.8272 21.5536 39.3938 20.7469C39.2578 20.4949 39.1472 20.2149 38.8458 20.0883C38.8218 20.0776 38.8245 19.9616 38.8072 19.9363C38.7912 19.9123 38.7605 19.9056 38.6992 19.9456C38.4072 19.8376 37.5192 19.7003 37.2392 19.7203L36.7032 19.7603C36.6245 19.7656 36.5485 19.703 36.5005 19.651C36.5472 19.7003 36.3498 19.3056 36.5658 19.0896C36.6725 18.9816 36.6045 18.7816 36.6618 18.6616L36.8485 18.267C36.7832 18.4043 37.2952 17.455 37.1285 17.683C37.2005 17.5856 37.2538 17.5056 37.3165 17.4056L37.4872 17.1336C37.6578 16.859 37.8498 16.6203 38.0378 16.3483C38.1245 16.2243 38.2805 16.1323 38.3232 15.9643C38.3818 15.7416 38.5712 15.6656 38.7005 15.511C38.8458 15.3376 38.9098 15.0656 39.1565 14.9456C39.2792 14.8856 39.3112 14.695 39.4018 14.635C39.8765 14.3203 39.8872 13.9056 40.4352 13.5843C40.6698 13.4483 40.8045 13.315 40.9912 13.1096C41.0578 13.035 41.2138 13.0256 41.2845 12.8723C41.3605 12.7056 41.6778 12.7016 41.7685 12.571C41.8952 12.387 42.0178 12.3843 42.1792 12.2883L42.5578 12.0616L42.9912 11.803C43.0685 11.7563 43.0712 11.571 43.2725 11.6296C43.3765 11.6603 43.4232 11.5616 43.4898 11.5216C44.1965 11.0896 44.6552 11.111 45.2272 10.799C45.4298 10.6883 47.1538 10.167 47.4818 10.103L47.9085 10.019C48.2298 9.95631 49.2925 9.78697 49.5538 9.76964C49.7351 9.75897 49.9018 9.61898 50.1538 9.66298C50.3351 9.69364 50.5711 9.63097 50.7725 9.60831L52.0378 9.46564C52.0951 9.45898 52.1271 9.53631 52.1925 9.47898C52.3671 9.32831 52.6058 9.35364 52.8151 9.36564C52.9658 9.37364 53.1218 9.31098 53.2845 9.30298C53.5698 9.28964 53.8378 9.29498 54.1245 9.23231C54.0325 9.25231 55.7098 9.11498 55.8098 9.10698C56.7858 9.02431 56.9458 9.16298 57.8778 9.00031C58.3071 8.92564 58.7311 8.95098 59.1551 8.84031C59.4098 8.77364 59.6231 8.75898 59.8671 8.74431C60.2471 8.72031 60.7338 8.44164 60.8031 8.44164C60.9498 8.44164 60.9484 8.33231 61.0164 8.25631C61.2498 8.00298 61.5711 7.76565 61.6604 7.42431C61.7298 7.15631 61.8524 6.91498 61.8724 6.65365C61.8911 6.42698 61.9031 6.14698 61.8391 5.95098C61.6364 5.32965 61.3258 4.81765 60.9111 4.34166C60.8231 4.24032 60.7031 4.21099 60.6018 4.13366C60.3538 3.94566 60.0871 3.83099 59.7618 3.82566C59.3778 3.81899 59.0191 3.74032 58.6511 3.66032C58.4844 3.62566 57.8378 3.62566 57.7325 3.55632C57.6031 3.47099 57.5098 3.58432 57.4031 3.59366C57.1191 3.61899 56.8525 3.61899 56.5938 3.78166C56.3991 3.90299 56.1431 3.84032 55.9551 3.75366C55.9258 3.73899 55.8725 3.84299 55.8458 3.84299C55.8098 3.84432 55.7605 3.72566 55.7205 3.70832C55.5578 3.76032 55.3631 3.82432 55.1765 3.76699C55.1405 3.77899 55.1151 3.83766 55.0831 3.89366C55.0245 3.90166 55.0018 3.80566 54.9418 3.82832C54.9071 3.84299 54.8911 3.89366 54.8725 3.89232C54.8338 3.89099 54.8085 3.84699 54.7805 3.77366L54.5098 3.86032C54.3925 3.74032 54.2351 3.75366 54.1165 3.83232C53.7965 3.58832 53.8458 4.07366 53.6111 3.88966C53.2658 3.61766 53.0831 3.89766 52.5725 3.80832L52.5151 3.89099C52.4925 3.92299 52.4765 3.96832 52.4498 3.97366C52.3845 3.98699 52.3151 3.85099 52.2711 3.82832C52.2338 3.80966 52.2045 3.86699 52.1578 3.88166C52.0525 3.91499 50.9791 3.87766 51.1605 3.92832C50.8485 3.84166 50.5858 3.89366 50.2818 3.92699C50.1445 3.94299 49.9178 3.79899 49.8351 3.98166C49.7858 3.94032 49.6831 4.00966 49.6365 3.99366C49.4711 3.93499 49.2205 3.94832 49.0685 3.98032L48.7858 3.93099C48.6005 3.89899 48.4551 3.85899 48.3165 4.01899C48.2098 3.94432 48.1085 3.82966 47.9911 3.84699C47.9311 3.85632 47.8885 3.93232 47.8391 3.94966C47.8111 3.96032 47.3765 3.80166 47.3311 3.73099C47.3098 3.69899 47.3258 3.64432 47.3165 3.60566C47.3018 3.54566 47.2658 3.60166 47.2165 3.64566C47.0471 3.79499 46.6218 3.27766 46.3805 3.10966C46.3391 3.08033 46.2592 3.11899 46.2258 3.08566C46.1925 3.05499 46.1712 2.91899 46.1258 2.92033C46.0165 2.92166 45.9645 2.94833 45.9112 2.84699C45.7578 2.54699 45.7325 2.25899 45.8112 1.92966C45.8485 1.767 45.8591 1.57366 45.9191 1.415C45.9685 1.28166 46.0205 1.18166 46.0498 1.04166C46.0738 0.929664 46.2965 0.828331 46.3725 0.729665C46.5431 0.504332 46.7898 0.441666 47.0085 0.322999C47.4031 0.108333 48.0098 0.124333 48.4218 0.120333C48.5125 0.120333 49.8498 0.0469999 49.8151 0.0536665C50.1765 -0.00899999 50.5138 0.0469999 50.8751 0.0403332L51.6031 0.0269999C51.8925 0.023 52.1378 -0.0183333 52.4231 0.00966664C52.6271 0.0283333 52.8578 0.0349999 53.0711 0.0363332L53.7551 0.0403332L54.9645 0.109666L57.8738 0.318999L58.7218 0.342999C58.7298 0.342999 61.6924 0.846998 61.7058 0.850998C62.2551 1.00433 62.7458 1.25766 63.2724 1.455C64.4324 1.89233 65.5964 2.87766 66.1471 3.99499L66.4404 4.58965C66.4578 4.62565 66.3871 4.66565 66.3671 4.67899C66.3044 4.71765 66.4578 4.72565 66.4764 4.76032C66.6658 5.10299 66.6418 5.50565 66.7418 5.87365C66.8124 6.13898 67.0164 6.33232 67.1351 6.57898C66.9164 6.90832 66.7924 7.25498 66.7804 7.64431C66.7778 7.70165 66.6831 7.77498 66.6898 7.83898C66.7124 8.07498 66.5444 8.20698 66.4631 8.39365C66.3938 8.55498 66.4031 8.75364 66.2084 8.84698C66.0831 8.90564 66.0844 9.06298 66.0058 9.15764C65.6898 9.53231 65.3818 9.90831 65.0271 10.2416C64.9391 10.3243 64.8778 10.3416 64.8218 10.4456C64.7231 10.6256 64.4418 10.6363 64.3124 10.7896C64.2884 10.819 64.2964 10.8976 64.2884 10.9296C64.2751 10.9763 64.2004 10.9363 64.1644 10.9603L63.4298 11.455C63.1831 11.6216 62.9431 11.6416 62.7178 11.747C62.5044 11.8443 62.4018 11.9216 62.1404 11.947C62.0031 11.9603 61.4538 12.291 60.7911 12.4256C60.4351 12.4976 60.7684 12.547 59.7364 12.6176C59.5085 12.6336 59.1871 13.0496 59.2684 12.9696C59.1818 13.055 59.0458 12.903 58.8511 12.9043C58.7778 12.9056 58.7444 13.039 58.6418 13.0536C58.5964 13.0603 58.5351 12.9843 58.5018 12.971C58.4751 12.959 58.4351 13.0203 58.3898 13.0203C58.2391 12.967 57.7498 13.0083 57.6245 13.1096C57.5511 13.1683 57.4165 13.2056 57.3351 13.1363C57.2285 13.047 57.1218 13.1256 56.9978 13.1603C56.9538 13.1736 56.8791 13.047 56.8418 13.083C56.6725 13.2403 56.4445 13.099 56.2938 13.167C56.1058 13.2496 56.0098 13.243 55.8125 13.1936C56.0591 13.255 54.2338 13.2496 54.0431 13.1816C53.9631 13.1523 53.9631 13.375 53.6645 13.2136C53.3685 13.3936 53.3018 13.1083 53.0605 13.231C52.9258 13.299 52.3031 13.1256 52.0058 13.259C51.8418 13.3323 51.6671 13.2523 51.5511 13.291C51.3125 13.3736 51.1765 13.435 50.9125 13.3296C50.5205 13.3403 50.0565 13.5403 49.6498 13.519C49.4938 13.511 49.2325 13.6043 49.0591 13.6603L47.8551 14.0496C47.6658 14.111 47.4778 14.2483 47.2898 14.267C47.0911 14.287 47.0245 14.4936 46.9005 14.539C46.5245 14.6763 46.2578 14.903 45.9872 15.175C45.7525 15.4123 45.5165 15.6256 45.3618 15.9283C45.2658 16.0883 44.9738 16.1043 44.8978 16.2883C44.7925 16.5416 44.4738 16.6203 44.3565 16.8576C44.2672 17.0376 44.1605 17.2043 44.0658 17.3696L43.8298 17.7816L43.6125 18.2563C43.4272 18.663 43.3672 19.275 43.3338 19.3443C43.2645 19.4856 43.4152 19.8016 43.2765 19.9576C43.3045 19.9269 43.4645 20.7363 43.3285 20.3283C43.5925 21.1229 44.0872 21.8936 44.8525 22.3069C45.2485 22.5216 45.7338 22.6203 46.1578 22.6883C46.6311 22.7629 47.0258 22.6416 47.4498 22.4589C47.6751 22.3616 47.7685 22.0776 47.9711 21.9323C48.1485 21.8056 48.3911 21.4069 48.5071 21.1803L48.6791 20.8403L49.1111 19.9509C49.1551 19.8603 49.1511 19.8163 49.2205 19.7269C49.4098 19.4829 49.5791 18.903 49.6631 18.8483C49.7805 18.7736 49.7778 18.643 49.8311 18.5336C50.0685 18.0523 50.4431 17.631 50.6178 17.119C50.6951 16.8883 50.8245 16.783 50.9645 16.5843C51.2018 16.2496 51.3551 15.8403 51.7631 15.6936C51.9178 15.639 52.1058 15.8083 52.2391 15.7976C52.7431 15.759 53.1018 15.8936 53.4911 16.1883C53.7578 16.3896 54.0818 16.5576 54.3778 16.7483C55.5405 17.4936 55.9138 18.323 57.0751 19.1536L57.4751 19.4403C57.6871 19.591 57.8551 19.7096 58.0205 19.9109C57.9031 19.7669 59.2551 21.0296 59.1431 20.9429L59.9151 21.5389C60.2591 21.8043 60.5258 22.0536 60.8324 22.3536L61.9044 23.4043C61.9591 23.4589 61.9471 23.4749 62.0178 23.5043C62.2964 23.6216 62.4178 23.9616 62.6724 24.1229C62.9604 24.3069 63.1764 24.5283 63.4111 24.7723C63.6471 25.0203 63.9351 25.1989 64.2058 25.4216L67.1044 27.8003C67.5604 28.1749 68.0618 28.4083 68.4684 28.8509C68.5444 28.9336 68.6604 29.0203 68.7391 29.0936C69.1818 29.5029 69.2764 29.6683 69.6338 30.1243C70.2951 30.2883 71.0458 31.2883 71.2991 31.8883C71.3617 32.0363 71.5737 32.0989 71.6124 32.2683C71.6497 32.4269 71.4418 32.4549 71.3578 32.5189C70.9271 32.8429 70.6724 32.2549 70.3271 32.2203C70.1898 32.2069 70.2578 32.6242 70.1991 32.6709C70.1391 32.7176 70.0098 32.7296 70.1044 32.7642C70.2578 32.8216 70.1791 32.8709 70.3844 33.1389C70.4004 33.1602 70.3644 33.2122 70.3538 33.2296C70.3231 33.2789 70.6684 33.6256 70.6858 33.9442C70.6898 34.0082 70.5391 34.0696 70.5484 34.1269C70.5604 34.2029 70.5804 34.2709 70.6311 34.3589C70.7738 34.6002 70.1498 34.4976 70.1111 34.7082L69.8258 34.4522C69.6404 34.2869 69.4831 34.1562 69.2991 34.0056C68.9951 33.7576 68.7698 33.4282 68.4311 33.2509C68.2084 33.3602 67.9271 33.3749 67.8018 33.1189C67.5404 33.4282 67.6431 32.9909 67.2938 33.0483C67.1338 33.0749 67.0991 32.7989 67.0444 32.8509C66.9204 32.9682 66.8578 32.8842 66.7431 32.8322C66.4684 32.7096 66.1644 32.6176 66.0151 32.3976C66.0911 32.6656 65.1271 31.9149 65.1084 31.9056C64.3631 31.5429 64.6791 31.2843 64.4404 31.4656C64.2991 31.3816 64.1298 31.2669 63.9924 31.1496L63.3058 30.5643C63.0564 30.3523 63.3751 30.6896 62.9004 30.3443L61.9431 29.6469C61.7431 29.5016 61.5471 29.4656 61.3644 29.2696C61.1791 29.0696 60.3951 28.7669 60.5204 28.5136C60.4164 28.5856 60.3604 28.5549 60.3138 28.5536C60.2098 28.5509 60.2218 28.3949 60.1591 28.3563C60.0511 28.2896 59.8818 28.3096 59.7938 28.1563C59.7231 28.0349 59.6098 27.9469 59.4618 27.9269C59.4191 27.8949 59.4004 27.9096 59.4004 27.9283C59.3991 28.3883 59.4711 28.0443 59.3258 28.2723C59.1591 28.5336 58.9924 28.7976 58.8631 29.0749C58.6658 29.4989 58.5831 29.5216 58.6671 29.6149C58.6978 29.6483 58.3511 29.9403 58.2605 30.1309C58.2071 30.2429 58.1858 30.3496 58.0791 30.4243C57.8445 30.5869 57.7045 30.8163 57.5311 31.0363C57.4671 31.1163 57.2858 31.0909 57.2365 31.2083C57.1658 31.3776 55.5711 32.0523 55.8898 31.8776L55.6098 32.0309C55.5898 32.0429 54.8965 32.1856 54.8818 32.2309C54.8151 32.4216 54.7445 32.1136 54.4165 32.2709C54.3711 32.2936 54.3085 32.2309 54.2738 32.2229C54.1565 32.1923 54.0711 32.4016 53.9725 32.3456C53.9431 32.3283 53.9178 32.2696 53.8965 32.2589C53.8538 32.3043 53.8391 32.3456 53.8151 32.3843C53.8205 32.3736 53.3858 32.5203 53.3085 32.2203C53.1938 32.3069 53.1685 32.3829 53.0765 32.4203C53.0031 32.4496 52.9298 32.3629 52.8471 32.3323C52.7778 32.4216 52.7378 32.4189 52.6351 32.3856C52.5325 32.3389 52.5511 32.4056 52.6058 32.4923C52.5805 32.5829 52.4365 32.7069 52.5098 32.8096C52.6405 32.9936 52.6951 33.1962 52.8071 33.3762L53.1858 33.9816C53.5231 34.5242 54.1751 35.1816 54.3258 35.7909C54.4231 36.1869 54.8005 36.4736 54.9805 36.8429C55.0445 36.9736 55.0098 37.1776 55.1591 37.2776C55.3071 37.3749 55.2525 37.5069 55.2845 37.6242C55.3298 37.7909 55.7031 38.5616 55.4565 38.6256C55.7498 38.7229 55.6911 39.0549 55.7698 39.2536C55.8511 39.4602 55.8605 39.5629 55.8205 39.7456C55.7925 39.8669 55.9218 40.1042 55.8658 40.2362L55.9978 40.4482C56.3151 40.6989 56.8151 40.7269 57.2218 40.7416C57.3658 40.7469 57.4111 40.7136 57.5511 40.7176L58.0045 40.7269C58.2018 40.7309 58.3978 40.6362 58.6178 40.5949L59.3724 40.4496C59.6431 40.3989 59.9071 40.3762 60.1844 40.3549C60.4924 40.3309 60.7871 40.1762 61.1124 40.1869C61.2058 40.1909 61.2311 40.1736 61.3058 40.1482L62.2618 39.8309L64.3951 39.0189C64.8418 38.8482 65.2378 38.6682 65.7044 38.5469C66.3804 38.3709 67.0738 38.0029 67.6071 37.9829C67.9231 37.9709 68.2071 37.7962 68.5244 37.7549C69.2231 37.6642 69.9684 37.6789 70.6324 37.9549C71.0071 38.1096 71.2098 38.5162 71.4164 38.8522C71.4511 38.9096 71.3417 38.9909 71.3831 39.0416C71.4844 39.1682 71.4071 39.2616 71.3804 39.3576C71.5791 39.6469 71.2484 39.8749 71.5484 40.4536C71.4951 40.4949 71.3964 40.5496 71.4204 40.6122C71.4937 40.8189 71.3804 40.9709 71.3537 41.1616C71.3284 41.3429 71.3404 41.4736 71.2324 41.6376C71.3111 41.5162 70.8498 43.0909 70.9751 42.8122C70.9324 42.9082 70.5484 44.3029 70.5124 44.4842L70.3671 45.1935C70.3551 45.2509 70.0511 45.9375 70.2151 46.0709C69.9111 46.2615 70.1711 46.0389 69.9018 46.7269C69.8738 46.7989 69.5871 48.0869 69.6258 48.0295C69.4538 48.2842 69.3831 48.7989 69.4138 48.7069C69.3724 48.8309 68.9338 50.0562 68.9271 50.0682C68.8364 50.2455 68.3964 51.5015 68.4791 51.7389C68.4818 51.7869 68.4098 51.7989 68.3844 51.8215C68.3298 51.8709 68.3684 51.9749 68.4058 52.0482C68.2431 52.1402 68.2391 52.3122 68.1844 52.4655L67.9164 53.2175C67.9031 53.2522 67.8831 53.2762 67.8698 53.2909C67.7258 53.4455 67.8884 53.5215 67.7831 53.5655C67.6631 53.6162 67.7124 53.7175 67.6978 53.7909L67.6111 54.2122C67.6658 53.9469 67.1884 55.1909 67.2591 55.0375C67.1844 55.2015 67.0684 55.3189 67.0111 55.5202C66.9658 55.6749 66.8604 55.8482 66.8151 56.0042L66.7084 56.3722L66.1711 57.2589C66.0204 57.5069 65.9071 57.7455 65.7791 58.0322L65.4871 58.6855C65.5204 58.6095 65.2804 59.2455 65.3231 59.2002C65.0618 59.4802 64.7524 60.5695 64.6898 60.6308C64.6084 60.7122 64.5231 60.7242 64.3924 60.7402C64.3498 60.7442 64.3044 60.8162 64.2711 60.8348C64.2191 60.8642 64.1884 60.8002 64.1511 60.7482C63.7844 60.2535 63.8031 59.3815 63.7484 59.1975C63.7231 59.1135 63.6684 59.1762 63.6151 59.1775C63.4271 59.1815 63.4804 59.3682 63.4698 59.5028C63.1524 59.6135 62.9364 59.8882 62.7551 60.1588C62.6244 60.3548 62.4458 60.4935 62.3164 60.7015L62.1164 61.0242C62.0484 61.1322 61.4538 61.2655 61.5111 60.9762C61.5631 60.7162 61.4911 60.4455 61.5951 60.1962C61.6444 60.0802 61.8711 58.6708 62.1338 58.1468C62.2551 57.9055 62.3271 57.6802 62.4324 57.4268L62.6458 56.9122C62.7484 56.6655 62.8351 56.4522 62.9084 56.1975L63.0591 55.6695C63.1511 55.3495 63.2591 55.0629 63.3284 54.7335C63.3964 54.4162 63.9338 53.6002 63.9698 53.2522C63.9951 52.9949 64.8324 50.6149 64.8444 50.4935C64.8591 50.3455 64.9551 50.2669 64.9764 50.1482L65.1391 49.2229C65.1644 49.0775 65.1831 48.9682 65.2698 48.8122C65.3324 48.6989 65.2404 48.5282 65.3524 48.3855C65.3791 48.3522 65.4578 47.3069 65.2551 47.2895C65.0524 47.2722 65.1111 47.7855 64.9791 47.4882C64.8511 47.8469 64.6484 47.5269 64.3044 48.0269C64.1924 48.1882 63.9444 48.2029 63.8298 48.3482C63.7391 48.4615 63.6484 48.4989 63.5311 48.5735C63.3831 48.6695 63.2964 48.8295 63.1018 48.8135C62.9151 48.8002 62.8271 48.9615 62.7191 49.0189L62.1271 49.3309C61.9698 49.4135 61.7871 49.3722 61.6058 49.4375C61.4378 49.4989 61.0284 49.1589 60.8578 49.4642C60.8431 49.4895 60.8178 49.6095 60.7978 49.5949L60.6511 49.4869C60.2484 49.1895 61.0084 48.4695 61.0298 48.1255C61.0631 47.6109 61.1604 48.0135 61.0684 47.3229C61.0284 47.0215 60.8738 46.7442 60.7298 46.4589C60.6111 46.2255 60.2511 46.2535 60.1298 45.9575C60.1111 45.9135 59.9284 46.1282 59.8004 46.0242C59.6725 45.9189 59.5084 45.9935 59.3898 45.9749C59.1644 45.9389 59.0671 46.0509 58.8644 46.1455C58.6978 46.2229 58.4311 46.3069 58.3751 46.4735C58.3645 46.5029 58.2631 46.4775 58.2418 46.4762C58.3285 46.4815 57.7018 46.8949 57.7231 47.3255C57.7418 47.6909 57.6391 47.7602 57.6298 47.8375C57.6031 48.0389 57.7831 48.5815 57.5885 48.6642C57.3778 48.7522 57.7231 48.7842 57.2151 49.3269C57.1431 49.4029 57.1698 49.4922 56.8605 49.2495C56.7085 49.2922 56.5338 49.1869 56.3938 49.1709C56.1805 49.1469 55.9991 49.1709 55.7911 49.0735C55.8071 49.0802 55.2218 49.1522 55.3405 49.1082C55.2978 49.1242 55.2618 49.1989 55.2578 49.2655L55.2205 49.8869C55.2125 50.0255 55.1471 50.1775 55.1671 50.2869C55.2071 50.5055 55.0911 50.6495 55.0711 50.8429C55.0551 50.9855 55.1138 51.1162 55.0551 51.3015C54.9218 51.7309 54.8405 52.4655 54.7298 52.6749C54.6751 52.7775 54.8125 53.0109 54.6125 53.0522C54.4191 53.0429 54.7058 53.1322 54.6738 53.1762C54.5951 53.2829 54.4031 54.0162 54.3498 54.2175C54.2565 54.5642 54.0885 54.8695 54.0165 55.2202C53.9631 55.4842 53.1085 57.8095 52.9498 58.2122L52.2045 60.1068C52.0631 60.4668 51.9738 60.8855 51.7431 61.1828L51.5031 61.4935C51.6298 61.3295 50.8831 62.6242 50.8605 62.6735C50.5618 63.3402 50.3605 63.2522 50.1245 63.8255C50.0658 63.9695 49.9418 64.0028 49.8751 64.1068C49.6498 64.4575 49.3418 64.7202 49.0805 65.0228C48.8538 65.2868 48.7138 65.5895 48.3605 65.7202C48.1791 65.7868 48.0525 66.0442 47.8791 66.1188C47.2538 66.3908 47.5125 66.5242 46.9578 66.6602C46.8005 66.6988 46.5191 67.0562 46.2791 67.0695C46.1871 67.0748 46.2111 67.1895 46.1765 67.2162C45.7165 67.5628 45.4432 68.0388 45.3512 68.6188C45.3338 68.7282 45.2285 68.8348 45.3298 68.9522C45.3538 68.9788 45.3592 69.0042 45.3405 69.0335C45.3272 69.0548 45.2538 69.0335 45.2365 69.0522C45.0272 69.2735 45.2952 69.4788 45.3245 69.5722C45.3285 69.5842 45.1272 70.2961 45.1165 70.4108C45.0832 70.7815 44.7685 71.0321 44.8885 71.5068C44.6658 71.5761 44.8258 71.8121 44.7698 71.9335C44.5592 72.3935 44.3992 72.8495 44.3138 73.3388L44.2112 73.9268C44.2178 73.8895 43.6392 75.0041 43.7058 75.1201C43.7658 75.2255 43.0485 76.1028 42.9112 76.2881C42.7592 76.4935 42.4712 76.6148 42.2885 76.8295C42.1765 76.9628 41.9525 76.9095 41.8152 77.0508C41.7005 77.1695 41.4552 77.1308 41.3032 77.2081C41.1378 77.2935 40.9965 77.3201 40.8125 77.2841C40.7178 77.2641 40.6338 77.4495 40.5818 77.4375L40.4845 77.4161C40.3432 77.3841 40.1592 77.5801 40.0525 77.5481C39.8952 77.5028 39.8005 77.5455 39.6658 77.5428C39.5352 77.5401 39.4672 77.4908 39.3698 77.6348C39.2845 77.7615 39.0978 77.6841 38.9738 77.6721C38.6938 77.6455 38.4485 77.7561 38.1912 77.8015C37.9392 77.8455 37.6672 77.7215 37.4312 77.8695C37.3792 77.9015 37.3365 78.0201 37.2925 77.9975L37.1258 77.9135C37.2085 77.9548 36.3858 77.9708 36.5205 77.9761C36.4725 77.9748 36.4152 77.9135 36.3765 77.9095C36.3245 77.9028 36.2872 77.9575 36.2178 78.0855C36.1845 77.9748 35.4232 78.0281 35.3525 78.0441C34.9525 78.1295 35.1672 77.9001 34.9258 78.0961C34.9058 78.1121 34.8845 78.1441 34.8378 78.1695C34.7992 78.1921 34.3112 77.9655 34.1418 78.1455L34.0792 78.2108C34.0565 78.2361 34.0178 78.2295 34.0178 78.2055L34.0192 78.1308C34.0205 78.0921 33.9925 78.1108 33.9525 78.1228L33.5645 78.2348C33.4192 78.2775 33.2632 78.2561 33.1112 78.2921C33.0632 78.2841 32.9872 78.1748 32.9258 78.2081C32.8792 78.2348 32.7978 78.3041 32.7418 78.3095C32.6752 78.3161 32.5952 78.1415 32.5112 78.1868C32.3498 78.2748 32.2299 78.2668 32.0579 78.2228C31.8272 78.1655 31.5899 78.2628 31.3539 78.2281C31.2285 78.2108 31.0939 78.3668 30.9552 78.2481C30.8592 78.2255 30.8672 78.3761 30.7819 78.3708C30.4379 78.1308 30.5472 78.5015 30.1925 78.4068C30.0299 78.3641 29.8352 78.3895 29.6539 78.3255C29.5979 78.3055 29.5285 78.4428 29.4712 78.4521C29.4099 78.4615 29.3165 78.3655 29.2592 78.3641C29.1232 78.4228 28.9899 78.4348 28.8565 78.3561C28.7832 78.3868 28.7539 78.5481 28.6819 78.5535C28.6259 78.5575 28.5219 78.5668 28.4592 78.5188C28.4285 78.4948 28.4259 78.4468 28.4139 78.4228C28.3845 78.3655 28.3459 78.4255 28.3232 78.4815C28.2592 78.6321 28.1272 78.4975 28.0192 78.5161C27.8099 78.5521 27.5965 78.5188 27.4205 78.6015C27.3912 78.6281 27.3632 78.6695 27.3339 78.6335C27.2659 78.5535 27.1245 78.8321 26.7339 78.7201C26.7099 78.7135 26.6832 78.7801 26.6672 78.7948C26.6459 78.8161 26.5739 78.8215 26.5419 78.7948C26.4339 78.7001 26.3419 78.8415 26.2659 78.8241C25.7352 78.6988 26.2005 78.8001 25.4365 78.8975C25.2632 78.9201 23.9365 79.3361 24.3819 79.2441C23.9045 79.3428 23.0872 79.8148 22.8299 80.2828C22.7139 80.4935 22.2712 81.3615 22.2152 81.5148L22.1045 81.8175C21.9405 82.2641 21.9525 81.8801 21.7712 82.5108C21.7365 82.6308 21.5645 82.6735 21.5779 82.8468C21.5792 82.8601 21.5139 83.0281 21.5165 83.0494C21.5405 83.2481 21.3579 83.3681 21.3139 83.5374C21.2672 83.7148 20.9125 84.6268 20.8472 84.7281C20.8192 84.7708 20.8992 84.8681 20.8752 84.9094C20.8379 84.9788 20.7032 85.1041 20.5085 85.1094C20.4605 85.1108 20.3085 85.2468 20.2819 85.2228C20.1165 85.0814 20.0459 84.5041 19.9379 84.1175L19.7766 83.5441C19.7419 83.4175 19.4992 81.9201 19.3699 81.8921C19.1819 81.8495 18.6606 82.9508 18.5312 83.1615C18.4232 83.3375 18.3166 83.4841 18.2206 83.6655C18.1379 83.8201 18.0579 84.0041 17.9646 84.1494C18.0446 84.0241 17.6126 84.5134 17.5059 84.7734L17.3006 85.2748C17.2552 85.3841 17.2179 85.4014 17.0979 85.4134C16.9926 85.4254 16.8926 85.5108 16.7926 85.5041C16.6646 85.4974 16.6459 85.3921 16.6046 85.3188C16.3352 84.8414 16.2672 84.3454 16.1672 83.8268C16.1272 83.6161 16.0566 83.4175 16.0166 83.1828L15.9259 82.6535C15.8979 82.4895 15.8832 82.3548 15.9032 82.1815C15.9499 81.7788 15.7152 81.6201 15.9032 80.7148C16.0552 79.9881 15.8966 80.1841 16.2686 79.5348C16.7366 78.7161 16.8672 78.8041 17.3006 78.2201C17.4912 77.9628 17.7112 77.8068 17.9299 77.6201C18.3552 77.2561 18.7712 77.1575 18.8899 77.0655L19.6739 76.4521C19.7752 76.3721 19.8126 76.3361 19.8926 76.2428C20.0392 76.0721 20.3179 76.0295 20.4845 75.8668C20.9885 75.3761 21.5632 75.3775 21.6259 75.2401C21.6392 75.2121 22.6459 74.6348 22.8992 74.5375L23.8072 74.1868C23.9592 74.1281 24.1859 73.9401 24.3365 73.9468C24.5672 73.9575 24.6325 73.8335 24.8139 73.7788C24.9685 73.7335 25.9659 73.4761 25.9379 73.5455C25.9459 73.5255 25.8939 73.4828 25.9059 73.4508C25.9392 73.3468 26.1125 73.4561 26.1765 73.4135C26.3032 73.3268 26.4432 73.3388 26.5699 73.2921C27.0152 73.1335 27.5565 73.0481 27.6112 73.0281L28.2325 72.8055C27.9019 72.9241 30.6819 72.2441 30.4672 72.2855L31.3525 72.1161C31.6019 72.0695 31.9645 71.9495 32.2019 72.0988C32.2379 72.1215 32.2685 72.7188 32.2485 72.6868C32.5672 73.1801 32.2339 73.3708 32.5298 73.5855C32.6352 73.6615 32.6299 73.7481 32.6645 73.8481C32.7312 74.0401 32.9978 74.0975 33.1165 74.2628C33.2045 74.3855 33.2912 74.4321 33.4378 74.4015C33.5125 74.6548 33.6392 74.5841 33.5992 74.7601C33.5432 75.0028 34.8592 74.8655 35.2312 74.5761C35.2552 74.5561 35.3658 74.5975 35.3685 74.5508C35.3792 74.3588 35.5805 74.4308 35.6458 74.3748L36.1885 73.9175C36.6925 73.4921 36.8672 73.0095 36.7605 72.3161Z" fill="#243D13"/>
<path d="M25.2462 52.8882C25.1515 52.8562 25.0489 52.8722 24.9969 52.8402C24.9022 52.7842 24.9009 52.6282 24.8635 52.5642C24.7395 52.3535 24.8315 52.2802 24.8875 52.1029C24.9289 51.9762 24.9302 51.8829 25.0075 51.7589C25.1889 51.4695 25.4889 51.3175 25.8275 51.4962C25.9955 51.5855 26.2315 51.6869 26.2449 51.9255C26.2862 52.6695 25.8795 52.5615 25.7022 52.7322C25.5542 52.8749 25.5075 52.9775 25.2462 52.8882Z" fill="#243D13"/>
</svg>
