<svg width="77" height="86" viewBox="0 0 77 86" fill="none" xmlns="http://www.w3.org/2000/svg">
<path d="M52.2098 78.5093C52.2538 78.4626 52.2791 78.3746 52.2325 78.368C52.1165 78.352 52.0925 78.4773 52.0725 78.5626C52.0578 78.6266 52.0778 78.664 52.1311 78.7013C52.1565 78.72 52.2071 78.6813 52.2378 78.6426C52.2578 78.616 52.2018 78.584 52.2098 78.5093ZM49.1005 71.5093C49.1671 71.7733 49.3818 71.8667 49.5351 72.0267L50.9431 73.4867C51.2125 73.5867 51.5218 72.876 51.5698 72.7013L51.6898 72.264C51.8018 71.8573 51.9391 71.4733 52.0845 71.0693C52.1365 70.9227 52.0938 70.7493 52.1751 70.5933C52.3405 70.2733 52.3925 69.9333 52.4245 69.5707C51.8938 69.4653 51.4671 69.6893 51.2045 69.648C50.9778 69.6133 50.8125 69.7293 50.6125 69.7707C49.9205 69.9147 50.1938 69.728 49.5538 69.9227C49.7231 69.872 48.5551 70.1 48.6431 70.0893C48.5245 70.1053 48.3271 69.9773 48.1898 70.1613C48.0765 70.3107 48.1591 70.584 48.3031 70.7307C48.4805 70.9093 48.6525 71.068 48.7925 71.2747C48.8658 71.3827 48.9045 71.5093 49.1005 71.5093ZM14.4352 70.4613C14.5419 70.3253 14.5739 70.216 14.6312 70.0693C14.8085 69.6133 14.7859 69.704 14.9992 69.352L15.6299 68.3053C15.7512 68.104 15.9072 67.9107 15.9979 67.6933C16.2725 67.0427 16.2139 67.5107 16.2085 66.7613C16.0619 66.8067 15.9685 66.6693 15.8659 66.6747C15.4192 66.6973 14.9979 66.612 14.5592 66.6013C14.3512 66.596 14.1965 66.6813 13.9792 66.5947C13.7672 66.5107 13.4925 66.568 13.2699 66.592L12.3979 66.6813C12.2712 66.6947 12.1859 66.7053 12.0566 66.7493C11.9059 66.8 11.6726 66.752 11.6046 66.936C11.5966 66.9587 11.6646 67.0267 11.6379 67.04C11.6246 67.0453 11.5979 67.076 11.5779 67.076C11.5619 67.0747 11.5552 67.0213 11.5312 66.996C11.4139 67.06 11.4792 67.18 11.5526 67.28C11.6659 67.4307 11.7046 67.624 11.7952 67.7987C11.9685 68.136 12.2139 68.448 12.3925 68.7893L12.8792 69.7173C12.8805 69.7213 13.6765 70.8733 13.7739 70.9773C13.8445 71.0533 14.0752 71.0627 14.1552 71.0093C14.3339 70.884 14.3139 70.6147 14.4352 70.4613ZM47.2978 64.5147C47.6685 64.8893 47.9805 65.2893 48.3911 65.628C48.5138 65.7293 48.6098 65.964 48.7578 65.992C49.0018 66.0373 49.0818 65.7733 49.1698 65.6267C49.4738 65.1213 49.4871 64.508 49.8018 63.8093C49.8698 63.6587 49.8831 63.5427 49.9018 63.3747C49.9351 63.0853 50.1485 62.832 50.1751 62.5374L50.2165 62.08C49.9751 62.0787 49.7445 62.028 49.5245 62.088C48.8098 62.28 48.8898 62.0107 48.4178 62.3267C48.1845 62.208 48.1645 62.4187 47.8725 62.3467C47.6885 62.3 47.5551 62.4014 47.4018 62.4267L46.9085 62.504L46.4485 62.6027C46.3165 62.6307 46.1045 62.488 45.9751 62.6893C45.7338 63.0667 46.4165 63.5027 46.5911 63.812C46.6578 63.928 46.8045 63.9653 46.8605 64.052C46.9858 64.2493 47.1431 64.3573 47.2978 64.5147ZM21.3605 65.8987C21.4939 65.8347 21.6579 65.564 21.5792 65.4147C21.4832 65.2333 21.4192 65.0947 21.3739 64.9053C21.2219 64.2573 21.4125 64.6467 21.1979 63.92C21.1805 63.8627 21.1205 63.8373 21.1312 63.7853C21.1379 63.7547 21.1992 63.7027 21.1965 63.66C21.1845 63.4947 21.0539 63.328 21.0725 63.1693C21.0939 62.98 20.9299 61.9147 20.8912 61.8974C20.7312 61.824 20.6085 61.9387 20.3699 61.8147C19.8632 61.8934 19.9285 62.2067 19.7232 62.296C19.5845 62.356 19.5699 62.44 19.4872 62.5427C19.0085 63.1373 18.8885 63.1307 18.4712 63.54C18.0525 63.9507 18.0712 63.8147 17.6019 64.1693C17.4632 64.2733 17.2885 64.4693 17.3419 64.6307C17.3992 64.8013 17.6645 64.7427 17.7885 64.7933C18.1112 64.924 18.4205 65.0027 18.7392 65.116L19.5605 65.4093C20.2139 65.6427 20.6645 65.7787 21.3605 65.8987ZM36.6298 58.784C36.6498 58.6134 36.7525 58.6147 36.8938 58.5774C36.8085 58.5347 36.6765 58.5387 36.5938 58.5814C36.5338 58.6254 36.4925 58.7494 36.4765 58.8294C36.4645 58.8894 36.5632 58.9 36.5818 58.8747C36.5938 58.86 36.6232 58.8334 36.6298 58.784ZM43.9565 58.7627C44.1445 58.8774 44.3511 58.8387 44.5391 58.7414C44.7631 58.9427 44.9525 58.6 45.3645 58.828C45.4738 58.7107 45.5911 58.7614 45.7165 58.7667C46.2005 58.7867 45.5858 57.444 45.4805 57.2267C45.2645 56.78 45.1525 56.2894 44.9645 55.8134C44.8805 55.6014 44.7831 55.396 44.7165 55.1827C44.6511 54.9694 44.4925 54.9174 44.3018 54.9614C44.0391 55.0214 43.8431 55.136 43.7045 55.3694C43.5511 55.624 43.3231 55.7974 43.1298 56.016C43.4698 55.6294 42.2698 57.1307 42.5685 56.716L42.0605 57.4227C41.8418 57.7254 41.6311 58.0294 41.5071 58.3894C41.4005 58.6987 42.1885 58.72 42.3765 58.724L43.9565 58.7627ZM21.8939 56.756L22.0832 57.1667C22.1872 57.3907 22.3192 57.6094 22.3819 57.8534C22.4445 58.1054 22.5819 58.296 22.6792 58.5254L23.3659 60.1547C23.4779 60.42 23.6019 60.644 23.8445 60.808C23.9859 60.9027 24.1299 61.1307 24.3485 61.0147C24.6352 60.8627 24.7765 60.524 24.7885 60.1934C24.5472 59.7947 24.3245 58.94 24.1605 58.608C23.9032 58.088 23.7752 57.5614 23.5832 57.0107C23.3712 56.4 23.0632 55.8254 22.9432 55.1814C22.9019 54.96 22.8059 54.7587 22.7525 54.5547C22.6925 54.32 22.6512 54.2 22.4019 54.1547C22.2499 54.1267 22.1219 54.0507 21.9592 54.176C21.6845 54.388 21.4752 54.6987 21.2125 54.928C21.0259 55.092 20.8845 55.2414 20.7205 55.4307C20.5779 55.5934 20.3685 55.7254 20.2032 55.8907C19.8872 56.208 19.5965 56.5334 19.2605 56.8174C18.8299 57.1827 18.6299 57.3774 18.2752 57.8227L17.9659 58.212C17.7059 58.5374 18.4779 59.0587 18.7619 59.0054C18.8552 58.988 19.0579 59.0974 19.1512 59.0067L20.0232 58.1494C20.2712 57.9067 20.4832 57.648 20.7512 57.4227C20.8379 57.3507 20.8712 57.1854 20.9779 57.1467C21.1205 57.096 21.1712 57.004 21.2672 56.9094L21.7005 56.48C21.8445 56.4267 21.8525 56.668 21.8939 56.756ZM32.6205 52.6974C32.7458 53.0014 33.3125 53.6974 33.7512 53.392C33.9632 53.244 33.9698 52.976 34.0565 52.8227C33.9272 52.6294 33.8298 52.388 33.7298 52.1774L33.4272 51.544C33.3605 51.404 33.2872 51.3187 33.2445 51.1547C33.1885 50.94 32.9618 50.772 32.9712 50.5134C32.7445 50.3294 32.6512 50.0787 32.5832 49.8214C32.1205 49.3627 32.0205 47.6894 31.4085 47.7427C31.2352 47.7587 31.1978 47.9641 31.1058 48.0681C30.9618 48.2321 30.8125 48.3414 30.7218 48.5414C30.6698 48.6574 30.4872 48.7387 30.4538 48.8667C30.3805 49.1534 30.1765 49.2974 29.9978 49.4987L29.3365 50.2467L28.6965 51.0067C28.6458 51.068 28.5885 51.1627 28.5418 51.2294C28.4632 51.3387 28.3725 51.4067 28.2898 51.4987L28.0672 51.748C27.9605 51.868 27.8392 51.9507 27.7352 52.0694L27.0592 52.844C26.9738 52.9414 26.9085 53.1614 26.7352 53.0827C26.6352 53.0387 26.7165 52.812 26.6645 52.7347C26.4205 52.3734 26.3058 51.9867 26.1645 51.5814L25.8632 50.7187C25.7325 50.344 25.5472 50.016 25.3952 49.6614C25.3578 49.5787 25.3685 49.4947 25.3045 49.3974C25.1445 49.1547 24.8899 48.3467 24.7299 47.9627L24.5312 47.4881C24.4085 47.1907 24.3899 46.8121 24.2192 46.5547C24.0432 46.2894 23.6525 46.4454 23.4619 46.6254C23.1165 46.9521 22.8179 47.2747 22.4485 47.5814C22.1485 47.8307 21.8485 48.076 21.6485 48.4254C21.3245 48.5267 21.1685 48.7801 21.0099 49.0481C20.6512 49.4094 20.5165 49.3974 20.1792 49.824L19.9939 50.0587C19.8032 50.3 19.5685 50.4974 19.3472 50.7134C19.2525 50.804 18.8592 51.0547 18.8405 51.2427C18.7992 51.6387 19.2539 51.924 19.5792 52.0134C19.7205 52.052 19.8725 51.9974 20.0045 52.0694L20.4219 51.708C20.6139 51.5414 20.7765 51.3774 20.9472 51.1907L21.5752 50.504C21.7792 50.2814 22.0925 50.0267 22.2925 49.8041L22.9979 49.0201C23.1299 48.8734 23.2765 48.7481 23.4579 48.6707L23.6032 49.0907C23.6605 49.2587 23.7672 49.3907 23.8125 49.568C23.8845 49.8507 24.0632 50.08 24.1605 50.3467C24.3299 50.8134 24.5312 51.236 24.7499 51.68C24.8672 51.9174 24.9325 52.152 25.0939 52.376C25.1605 52.468 25.1632 52.6454 25.2232 52.7587L25.7418 53.744C25.9005 54.044 26.0432 54.332 26.2418 54.6174C26.3072 54.7134 26.5765 54.7734 26.6805 54.716C26.8392 54.6254 27.0592 54.5294 27.2005 54.4C27.5045 54.12 27.8098 53.8387 28.0552 53.5147C28.2992 53.192 28.7085 52.9587 29.0285 52.568L29.3898 52.124C29.6645 51.788 30.5458 51.048 31.0632 50.3214C31.1272 50.2334 31.1978 50.0494 31.3338 50.1094C31.3672 50.3867 31.5138 50.572 31.6712 50.7747C31.7858 50.9227 32.5165 52.4467 32.6205 52.6974ZM40.6551 47.1667C40.7058 47.0241 40.7205 46.9001 40.8391 46.7761C40.9445 46.6641 40.7645 46.4774 40.6685 46.4187C40.0951 46.0721 39.7471 46.0881 39.1925 45.9294L38.5778 45.7534C38.3698 45.6934 38.1818 45.6081 37.9658 45.5627C37.3858 45.4414 36.8285 45.3014 36.2592 45.1454C36.1458 45.1134 36.0298 45.0787 35.9165 45.0561L35.4872 44.9694L34.8712 44.8454L33.3245 44.4654C33.0698 44.4041 32.8352 44.2921 32.5752 44.2387C32.4018 44.2027 32.2285 44.2094 32.0672 44.1254C31.8912 44.0347 31.7045 44.0454 31.5298 44.0081L31.0272 43.8987C30.8165 43.8521 28.7752 43.2694 28.7338 43.2654C28.5792 43.2521 28.4672 43.2307 28.3272 43.1921C27.8338 43.0521 27.8898 43.0987 27.4485 42.9974L26.9898 42.8921L25.7312 42.6241C25.5445 42.5841 25.3525 42.5747 25.1725 42.4867C24.9992 42.4014 24.8245 42.4147 24.6445 42.3841C24.4365 42.3481 24.2299 42.2654 24.0205 42.2641C23.9299 42.2627 23.7752 42.2201 23.6872 42.1854C23.4872 42.1067 23.3045 42.1387 23.1059 42.0987C22.7779 42.0334 22.4792 41.9881 22.1379 42.0054C21.9765 42.0121 21.8605 42.1334 21.8019 42.2307C21.6979 42.4014 21.7965 42.5441 21.8259 42.6801C21.8579 42.8374 21.9459 42.8681 22.0352 42.9521C22.2232 43.1281 22.3872 43.1507 22.6219 43.2187L23.3459 43.4294C23.5939 43.5014 23.8405 43.5627 24.0925 43.6214L25.3765 43.9227C25.8672 44.0374 26.3765 44.1134 26.7698 44.2174L27.5525 44.4254C27.6738 44.4574 27.7858 44.4667 27.9085 44.4947L28.6458 44.6587C28.7938 44.6921 28.9285 44.7161 29.0752 44.7427L29.6685 44.8521L30.8405 45.1307L31.3445 45.2347L32.4325 45.5174C32.6405 45.5721 32.8392 45.5774 33.0352 45.6347L33.6818 45.8227C33.7992 45.8574 33.9392 45.8761 34.0578 45.9041L34.4392 45.9974L34.8458 46.1067L36.1325 46.3707L36.8978 46.5881L37.3018 46.6641C37.4872 46.7001 38.0232 46.8401 38.1378 46.8614L38.5725 46.9401L39.5258 47.1481C39.8871 47.2267 40.5485 47.4694 40.6551 47.1667ZM51.7885 38.2387C51.8231 38.0854 51.6738 38.0934 51.6125 38.1147C51.5191 38.1454 51.4858 38.2814 51.5431 38.3841C51.5938 38.4734 51.7618 38.3574 51.7885 38.2387ZM11.7752 38.6067C11.5579 38.1707 10.8566 38.1227 10.6912 38.0201C10.5406 37.9281 10.4166 37.9174 10.2672 37.8654L9.08856 37.4534C8.87789 37.3801 8.71789 37.2121 8.47123 37.1867C8.12989 37.1534 8.17789 36.8294 7.49923 37.1814C7.46989 37.4214 7.3699 37.7041 7.4419 37.9401C7.53523 38.2467 8.38856 38.4401 8.65256 38.5201C8.86589 38.5854 9.05389 38.6787 9.28056 38.7294C9.59789 38.8014 10.8619 39.4427 11.4779 39.4721C11.6312 39.0441 11.6446 39.1201 11.7752 38.6067ZM12.4859 36.7254C12.5419 36.5027 12.7472 36.4841 12.8605 35.9827C12.7979 35.6094 11.7086 35.2174 11.3632 35.0947L10.5952 34.8241C10.4206 34.7628 10.2886 34.5908 10.0766 34.6041C9.99656 34.4108 9.83789 34.4467 9.67389 34.4254C9.33789 34.3827 8.82322 34.0014 8.65523 34.1908C8.63923 34.2081 8.26856 35.0014 8.32456 35.1081C8.38056 35.2841 8.57256 35.3507 8.69656 35.4614C8.88456 35.6321 9.08989 35.6547 9.30723 35.7507L9.75522 35.9494C9.83922 35.9867 11.5432 36.6601 11.4806 36.6481C12.0765 36.7561 12.0352 37.0187 12.2485 36.9307C12.3445 36.8907 12.4552 36.8481 12.4859 36.7254ZM41.7338 36.2214C42.0058 35.9667 42.2418 35.7267 42.3645 35.3574C42.3978 35.2574 42.4471 35.1721 42.3898 35.0468C42.3565 34.9734 42.2631 34.9401 42.1578 34.8827C41.6231 34.5894 40.8311 35.2014 40.4298 35.5361C39.7258 36.1254 39.7831 35.9454 39.1152 36.6081L38.5032 37.2161C38.5418 37.1761 37.6298 37.9374 37.6112 37.9641C37.5565 38.0414 36.9738 38.5401 36.8538 38.6214C36.5858 38.8001 36.2165 39.1281 35.9085 39.0121C35.8338 38.9854 34.6138 37.2427 34.5045 37.0547L34.3125 36.7214C34.1272 36.4014 33.8778 36.1294 33.6698 35.8214L33.0045 34.8388C32.9925 34.8201 32.4138 34.1281 32.4378 34.0388C32.4485 33.9988 32.5005 33.9801 32.5325 33.8841C32.0778 33.8534 32.3218 33.5454 31.8885 33.4361L31.8338 33.1881C31.7738 32.9148 31.5285 32.6654 31.3325 32.4454C31.2418 32.3428 31.0552 32.3388 30.9578 32.2561C30.8192 32.1401 30.6885 32.1014 30.5165 32.1508C30.3912 32.1868 30.3258 32.3014 30.2272 32.4081C29.9765 32.6774 30.1338 32.8148 30.3792 33.2494L30.9698 34.2974L31.3058 34.9001L31.8658 35.7481C31.9352 35.8534 32.5352 36.7547 32.5378 36.7601C32.6138 36.9454 32.7485 37.0894 32.8338 37.2601C32.9712 37.5347 33.1712 37.7347 33.3245 37.9787C33.4032 38.1041 33.4552 38.2094 33.5445 38.3427L34.5992 39.9201C34.7698 40.1761 34.9872 40.4401 35.1338 40.7401C35.1952 40.8627 35.3005 40.9467 35.3538 41.0907C35.4085 41.2361 35.5498 41.4361 35.7085 41.4387C35.9218 41.4414 36.0018 41.1881 36.1298 41.1027C36.3405 40.9627 36.4938 40.8067 36.6805 40.6507L37.2432 40.1814C37.5578 39.9187 37.8325 39.6467 38.1405 39.3747C38.3045 39.2294 38.5032 39.1267 38.6365 38.9467C38.7498 38.7947 38.9298 38.7347 39.0512 38.6121C39.2551 38.4081 39.4805 38.2587 39.6858 38.0747C39.9351 37.8521 40.1458 37.6321 40.4178 37.4414C40.6778 37.2587 40.8431 36.9547 41.1138 36.7841C41.3605 36.6294 41.5258 36.4147 41.7338 36.2214ZM41.3951 29.7068C41.1365 29.7441 40.9525 29.8588 40.7671 30.0054C40.5258 30.1988 40.2858 30.3708 40.0271 30.5334C39.7311 30.7214 39.5018 30.9814 39.2058 31.1574L38.1712 31.7748C37.8032 31.9948 37.4525 32.2121 37.0098 32.2961C36.8098 32.3348 36.4378 31.6841 36.4018 31.5921C36.3232 31.3894 36.2392 31.2508 36.0325 31.1614C35.8992 31.1041 35.4552 30.3641 35.4645 30.3748C35.2912 30.1868 35.1498 30.0068 35.0058 29.7934L34.7765 29.4574L34.4218 29.0134C34.3085 28.8694 34.2058 28.7388 34.1005 28.5854L33.9432 28.3561L33.4232 27.6681C32.9978 27.1054 33.0218 27.1414 32.4298 26.9681C32.2818 26.9254 32.1458 26.9614 32.0005 26.8881C31.9418 26.8574 31.8632 26.9974 31.8125 26.9961C31.7872 26.9641 31.7725 26.9241 31.7552 26.9148C31.6378 26.8574 31.5752 27.3041 31.6818 27.4281C31.8058 27.5748 31.8952 27.6961 31.9632 27.8748C32.0085 27.9908 32.1538 28.0708 32.1858 28.2014C32.2458 28.4401 32.3792 28.6121 32.5392 28.7894C32.6872 28.9548 32.7845 29.1521 32.9845 29.2774C32.9485 29.5148 33.1445 29.6174 33.2405 29.7761C33.6112 30.3908 33.8525 30.5681 34.0445 30.8841C34.1485 31.0548 34.2765 31.1481 34.3925 31.3028L35.8552 33.2561C36.2805 33.8241 36.3658 34.0094 37.0392 34.0894C37.4738 33.8761 37.7738 33.5374 38.1458 33.2561C38.2178 33.2014 38.3738 33.1388 38.4592 33.0934C39.3298 32.6334 40.0605 31.9574 40.1925 31.8854C40.6738 31.6214 40.9925 31.2694 41.3045 31.1188C41.5191 31.0148 41.6165 30.8601 41.8085 30.7588L42.1431 30.5801C42.3338 30.4801 42.8245 29.8468 42.6911 29.6988C42.3671 29.3374 41.7431 29.3441 41.3951 29.7068ZM47.3885 15.4788C47.9125 15.2895 48.5831 14.8508 48.7631 14.3055C48.8325 14.0988 49.0005 13.9188 49.0245 13.6948L49.0791 13.1935C49.1485 12.5468 48.6005 11.6068 48.0618 11.2441C47.5258 10.8841 46.4551 10.3561 45.8165 10.5695C45.5698 10.6508 45.3231 10.6855 45.0858 10.7841C44.5445 11.0095 43.9698 11.6468 43.5871 12.1295C43.4898 12.2521 43.4578 12.5135 43.3925 12.6681C43.2951 12.9001 43.3725 13.1948 43.3645 13.4308C43.3618 13.5255 43.7085 14.2201 43.7018 14.1801C43.7258 14.3215 43.7831 14.3695 43.8565 14.4615C44.2271 14.9241 44.6978 15.2508 45.2791 15.3921C45.4498 15.4335 45.6138 15.5321 45.8125 15.4388C46.3831 15.7575 46.4965 15.3375 47.3885 15.4788ZM36.7232 18.0628C36.6192 17.9868 36.3312 17.9855 36.2218 18.0468C35.8605 18.2548 35.4485 18.2855 35.0578 18.1055C34.7672 17.9708 34.3952 17.8961 34.1418 17.6641L33.5365 17.1095C33.4258 17.0095 32.9792 16.0361 32.8885 15.8641C32.6005 15.3175 32.6618 15.0561 32.5485 14.5775L32.4578 14.1961C32.6325 13.7441 32.4165 13.8081 32.6578 13.3001C32.7698 13.0655 32.9138 12.8828 32.9725 12.6268C33.0258 12.3975 33.2538 12.2588 33.4298 12.1508L33.7738 11.9388C34.2552 11.6415 34.8778 11.6588 35.4032 11.7815C36.0298 11.9295 36.3378 12.3775 36.9152 12.6295C37.1152 12.7175 37.4152 12.4988 37.4925 12.3335C37.6885 11.9121 37.2072 11.5095 36.9125 11.3201C36.7152 11.1935 36.5765 10.9468 36.3325 10.8775C36.1005 10.8108 35.8845 10.6228 35.6485 10.5815C35.1285 10.4908 34.5658 10.5068 34.0552 10.5815C33.5632 10.6535 33.1392 10.8668 32.7218 11.0615L32.2672 11.5548C32.0552 11.7855 31.9592 12.1028 31.7805 12.3775C31.6725 12.5441 31.6365 12.8148 31.5805 13.0041L31.4045 13.6028C31.4418 13.4775 31.3152 14.7001 31.3298 14.6348C31.2992 14.7775 31.4872 15.2455 31.4578 15.4668C31.4405 15.6001 31.4925 15.6975 31.5192 15.8161L31.6125 16.2388C31.6418 16.3695 31.7258 16.4561 31.7645 16.5601C31.8685 16.8495 31.9978 17.0721 32.1832 17.3188L32.6125 17.8855C32.7805 18.1068 32.9818 18.3188 33.2098 18.4828L33.6045 18.7668C33.8952 18.9761 34.7178 19.4761 35.0298 19.4828L36.0912 19.5095C36.2405 19.5121 36.3418 19.4295 36.4485 19.4215C36.7365 19.3988 36.9538 19.2788 37.1232 19.0321C37.1885 18.9361 37.5005 18.8535 37.3872 18.6708C36.9138 17.9175 37.2258 18.4361 36.7232 18.0628ZM43.3938 9.16548L44.3898 8.98015C44.6311 8.93481 44.9071 9.00548 45.1458 8.84415C45.3031 8.99348 45.4658 8.85348 45.6165 8.88015L45.8951 8.92681C45.8445 8.91881 46.2658 8.86548 46.9965 9.01081L47.4925 9.10815C47.6671 9.14281 47.7778 9.18281 47.8991 9.29215C48.0178 9.32548 48.1605 9.00548 48.0831 8.90015C47.9151 8.67482 47.6991 8.50548 47.5231 8.30948C47.2445 8.00015 46.9365 7.90282 46.5231 7.89348C46.3978 7.89082 46.2605 7.73615 46.0965 7.74815C45.5938 7.78415 45.0965 7.71615 44.5898 7.78548C44.4031 7.81082 44.2285 7.89882 44.0218 7.85882C43.7738 7.81082 43.2965 8.02548 43.1805 8.02948C42.9791 8.03482 42.8925 8.11882 42.7418 8.18415C42.5205 8.28015 42.3058 8.33215 42.1138 8.49615L41.8645 8.71081C41.5791 8.95748 41.3138 9.17081 41.1658 9.52681C41.1138 9.65348 40.8845 9.73348 40.8898 9.89215C40.8951 10.1241 41.0618 10.2775 41.2351 10.4348C41.4765 10.3668 41.7738 10.3575 41.9631 10.1788L42.5165 9.65748C42.6445 9.53748 42.8125 9.50148 42.9245 9.34281C42.9725 9.27481 43.1271 9.38415 43.1671 9.35215L43.3938 9.16548ZM32.9325 58.2534L32.5538 58.7134C32.6392 58.6107 32.0912 59.46 32.1325 59.364C32.0072 59.652 31.8645 59.8787 31.6512 60.1147C31.5645 60.2094 31.5298 60.316 31.3992 60.388C31.3072 60.4387 31.3178 60.6387 31.2258 60.7174C30.9552 60.9494 30.7898 61.2654 30.6392 61.5707C30.6098 61.5987 30.4898 61.5987 30.4578 61.6187C30.4098 61.652 30.4445 61.7614 30.4032 61.8147L29.8818 62.468L29.6152 62.8533L29.3925 63.2373C29.3098 63.38 29.1992 63.4813 29.1085 63.6147L28.8365 64.0093L28.4218 64.584C28.3378 64.7 28.3098 64.8587 28.1312 64.8973L28.0752 65.128C27.8298 65.3453 27.6645 65.5947 27.4992 65.8693C27.3432 66.1307 27.2405 66.1547 27.1058 66.36C26.9285 66.632 26.7432 66.8973 26.5312 67.1453C26.3272 67.3853 26.2018 67.6827 25.9818 67.9107C25.8885 68.008 25.8192 68.064 25.7392 68.1867C25.4365 68.648 25.0125 68.808 24.6725 69.0933C24.3552 69.3613 23.8325 69.52 23.6285 69.6347C23.3619 69.7853 23.0872 69.852 22.8059 69.948C22.6245 70.008 22.4579 70.204 22.2485 70.2053C22.0912 70.2053 22.0445 70.3187 21.9325 70.372C21.6592 70.5027 21.2232 70.68 20.9085 70.8173L20.1032 71.1707C20.3179 71.076 19.1672 71.7453 19.2325 71.7053C19.0912 71.792 18.5859 71.832 18.5872 72.0707C18.3392 72.0813 18.1325 72.2373 17.9232 72.3667C17.7325 72.484 17.5152 72.532 17.3312 72.6747C17.1339 72.828 16.8592 72.8333 16.6739 73.0053C16.5205 73.148 16.2859 73.1267 16.1219 73.2493C16.0045 73.3387 15.9152 73.504 15.7605 73.536C15.5272 73.5853 15.3819 73.7493 15.1859 73.8493C14.7445 74.076 14.2605 74.2093 13.8699 74.5187C13.7525 74.6107 13.4619 74.6747 12.9939 75.0493C12.9472 75.0853 12.9445 75.164 12.9072 75.184C12.8512 75.2147 12.7912 75.2107 12.7045 75.168C12.6272 75.3587 12.4539 75.4293 12.2699 75.508C12.1032 75.5787 11.9739 75.7013 11.8166 75.8053C11.6446 75.9187 11.3912 76.084 11.4179 76.328C11.4326 76.4666 11.5352 76.584 11.4872 76.736C11.4299 76.9173 11.5286 77.0707 11.5899 77.2293C11.8392 77.88 11.8006 78.268 11.9552 78.972L12.0392 79.352C12.2645 80.3746 12.1272 79.852 12.5139 80.768C12.6006 80.9746 12.6205 81.2466 12.8632 81.3506C13.1205 81.46 13.3565 81.6106 13.6112 81.7266L14.3645 82.068L15.2819 82.516C15.5899 82.6653 15.8885 82.8653 16.1432 83.1066C16.3205 83.2746 16.4432 83.5733 16.5445 83.7986C16.6272 83.9813 16.5992 84.2213 16.6312 84.4173C16.6445 84.5026 16.5819 84.6773 16.5539 84.7613C16.4525 85.0786 15.9752 85.1493 15.7299 85.2066C15.5779 85.2413 15.4472 85.3293 15.2819 85.3053C15.1699 85.2893 15.0765 85.344 14.9712 85.36C14.5032 85.4306 14.0459 85.3493 13.5792 85.3693C13.4632 85.3733 13.3179 85.3573 13.2232 85.3133C12.9405 85.468 11.7419 85.4 11.5406 85.3426C11.3632 85.292 11.3126 85.3573 11.1659 85.364C10.3126 85.4013 9.46322 85.3933 8.60056 85.3706C8.36589 85.3653 7.49389 84.8293 7.38056 84.7773C6.97923 84.5946 6.7179 84.3026 6.4619 83.956C6.32856 83.7746 6.18723 83.6346 6.08057 83.4306C6.22323 83.7026 4.9819 82.0266 4.90057 81.9053C4.74724 81.6746 4.61524 81.44 4.4419 81.228L3.90191 80.5706C3.99524 80.6826 3.64457 80.0173 3.47391 79.9066C3.34457 79.8226 3.28191 79.6773 3.22857 79.5413C3.08057 79.1653 2.75524 78.9173 2.56324 78.5826C2.40457 78.308 1.55658 77.184 1.56991 77.2106L1.41791 76.892C1.34991 76.748 1.27124 76.6146 1.14858 76.464L0.873913 76.1266C0.773913 76.004 0.715245 75.8466 0.636579 75.708C0.585912 75.6173 0.449912 75.5547 0.432579 75.452C0.360579 75.036 -0.102084 74.7653 0.0205827 73.5613C0.0712493 73.064 0.401915 72.6867 0.651247 72.2827C0.849913 71.9613 1.18991 71.8173 1.46458 71.592C1.64458 71.444 1.76724 71.34 1.97924 71.2387L2.51924 70.9787C2.7739 70.856 3.48324 70.624 3.51391 70.6C3.63391 70.5027 3.85524 70.452 4.00057 70.3787C4.4139 70.172 4.80323 70.1813 5.20323 69.8787C5.36323 69.7587 5.4059 69.4973 5.62056 69.412C5.85256 69.32 6.11656 68.972 6.3699 68.756C6.62456 68.54 6.88856 68.344 7.10856 68.0853C7.29656 67.8653 7.51523 67.7147 7.74189 67.5387C8.08856 67.2693 8.33256 66.884 8.69256 66.6387C8.95522 66.46 9.12989 66.2267 9.34722 66.0027C9.44722 65.8973 9.58856 65.8627 9.67656 65.72C9.74722 65.6053 9.84856 65.4787 9.95922 65.3973L10.3899 65.0813C10.4606 65.0307 11.3019 64.308 11.6792 64.02L12.2899 63.552C12.4085 63.4613 12.5619 63.4133 12.6619 63.308L12.8845 63.0747C13.1232 63.056 13.2472 62.9187 13.4125 62.8093C13.7165 62.6093 14.0459 62.444 14.3832 62.316L14.9072 62.1187C15.0019 62.0827 15.1005 61.992 15.1885 61.9587C15.5499 61.8214 15.7565 61.5694 15.7965 61.1707C15.8139 60.996 15.8952 60.8174 15.8765 60.6227C15.8619 60.464 15.9219 60.304 15.9299 60.148L15.9792 59.0867C15.9872 58.9014 15.9659 58.744 15.9939 58.5534C16.0072 58.468 15.9152 58.4107 16.0019 58.2934C16.1125 58.1414 15.9685 57.8787 16.0445 57.716C16.1165 57.5614 16.0872 57.4227 16.0832 57.2947L16.0672 56.8254C16.0872 57.4347 16.3152 55.132 16.2405 55.5934L16.3312 55.0374C16.3819 54.724 16.4659 54.0254 16.4379 53.7227C16.4632 53.9974 16.5259 52.6454 16.5405 52.732C16.5165 52.5787 16.5645 52.4787 16.5952 52.3374L16.6952 51.8867C16.7405 51.6774 16.8352 51.1 16.8739 50.9787C17.0579 50.428 16.9365 50.3027 17.0832 50.0441C17.1112 49.9961 17.0552 49.8987 17.1219 49.884C17.1792 49.872 17.2352 49.8907 17.3325 49.8547C17.3352 49.7334 17.1379 49.8601 17.0952 49.7947C17.0685 49.7521 17.2419 49.412 17.2752 49.216C17.3752 48.6041 17.5592 48.456 17.6552 47.8974C17.6979 47.6481 17.8352 47.4361 17.8939 47.1947C18.0072 46.7227 18.1432 46.2761 18.3645 45.8334C18.3952 45.7734 18.3139 45.6374 18.4219 45.6121C18.5285 45.5881 18.5005 45.5161 18.5152 45.4387C18.5645 45.1787 19.2005 43.7534 19.2472 43.5454C19.2992 43.3174 19.4312 43.1561 19.5125 42.9547L20.0659 41.5961L20.3032 40.9281C20.3552 40.7801 20.4059 40.6787 20.4832 40.5454C20.5645 40.4027 20.5672 40.2187 20.6832 40.0814C20.8819 39.8454 21.2365 38.8281 21.3352 38.4841C21.4059 38.2374 21.5712 38.0281 21.6005 37.7627C21.6219 37.5721 21.7885 37.4387 21.8445 37.2721C21.9965 36.8134 22.1139 36.7481 22.2632 36.4121C22.3032 36.3227 22.2192 36.1814 22.3232 36.0921C22.4419 35.9894 22.4179 35.7827 22.5059 35.6787C22.7605 35.3827 22.5925 35.1841 22.7885 34.8267C22.9245 34.5788 23.0112 34.3361 23.1232 34.0788C23.1752 33.9601 23.2485 33.9028 23.2325 33.7481C23.2219 33.6374 23.4339 33.5188 23.4112 33.4028C23.3725 33.1961 23.4859 33.1161 23.5512 32.9721C23.7432 32.5414 23.9179 31.7788 24.1685 31.5521C24.2285 31.4988 24.2205 31.3841 24.1979 31.3334C24.1112 31.1468 23.5085 31.3108 23.2032 31.2494C23.0072 31.2108 22.9085 31.3134 22.7259 31.3454L22.3032 31.4188C22.6845 31.3534 20.3939 31.6668 20.8765 31.6308L20.3885 31.6668C20.2312 31.6788 19.5165 31.8441 19.3032 31.9481C19.1139 32.0388 18.9712 32.0028 18.7765 32.0494L16.8099 32.5161C16.2285 32.6534 16.1672 32.7388 15.7965 32.9934C15.6685 33.0814 15.2445 33.9374 15.1752 34.1148L14.9632 34.6507C15.0032 34.5481 14.3819 35.7734 14.4032 35.7374C14.2885 35.9334 14.3032 36.0854 14.2445 36.2947C14.1805 36.5161 13.9659 36.6801 13.9699 36.9681C13.9779 37.4987 13.7325 37.6214 13.6539 37.8641C13.5685 38.1281 13.5272 38.4454 13.3565 38.6641C13.2539 38.7947 13.2899 38.9174 13.2419 39.0494C13.1312 39.3481 13.0165 39.6254 12.9139 39.9361L12.8125 40.2441L12.3779 41.3414C12.3765 41.3441 12.1192 42.1601 12.1206 42.2187C12.1272 42.4334 12.3326 42.5934 12.3979 42.7814C12.4712 42.9921 12.5232 43.1867 12.6725 43.3574C12.8285 43.5334 12.8699 43.7827 12.9792 43.9827C13.1459 44.2854 13.2685 44.5761 13.2952 44.9267C13.3072 45.0801 13.3885 45.2267 13.3952 45.3761L13.4419 46.5361C13.4472 46.6881 13.5712 46.8361 13.4685 46.9961C13.4059 47.0934 13.4979 47.1974 13.4752 47.2681L13.3579 47.6321C13.1992 48.1201 13.1032 49.2641 12.4925 49.9627C11.8632 50.68 12.2419 50.4694 11.7512 50.6134C11.3406 50.7334 10.8979 50.6 10.6832 50.2134C10.7419 50.092 10.6766 49.936 10.6886 49.8214C10.7152 49.5547 10.8419 49.3134 10.9419 49.0654C11.0672 48.7574 11.1419 48.452 11.2486 48.1454C11.3739 47.7801 11.4766 47.4481 11.4192 47.0494C11.3966 46.8961 11.4286 46.7921 11.2472 46.7694C11.0779 46.7481 11.0659 46.8294 10.9979 46.9747C10.9246 47.1307 10.0112 48.7227 9.96589 48.784L9.63389 49.24C9.43389 49.5147 9.39256 49.9094 9.11789 50.1534C8.97789 50.2787 8.97523 50.4827 8.86589 50.6134C8.59256 50.9374 8.48856 51.0334 8.26456 51.3654C8.01656 51.7334 7.69123 52.0867 7.32856 52.3467C7.20856 52.432 7.07256 52.4174 6.95256 52.5454C6.85523 52.6494 6.60057 52.7254 6.45657 52.7174C6.33123 52.7107 6.19523 52.6734 6.0779 52.6427C5.3659 52.4534 6.0219 51.0347 6.12457 50.6507C6.2019 50.364 6.32456 50.136 6.43256 49.8734L6.9139 48.6934C7.08323 48.276 7.27256 47.8694 7.37656 47.4281C7.41256 47.2774 7.3979 47.1454 7.47923 47.0027C7.52056 46.9307 7.44056 46.8241 7.40589 46.7761C7.35789 46.7081 6.97656 46.7454 6.90723 46.9681C6.81256 47.2707 6.63256 47.5374 6.5259 47.8294C6.41923 48.1187 6.26457 48.3627 6.15123 48.6507L5.92723 49.22C5.8219 49.488 5.62057 49.7094 5.4739 49.988L4.9899 50.9067C4.89923 51.08 4.86457 51.2574 4.67257 51.3454C4.53924 51.4067 4.4259 51.5374 4.3299 51.648C4.26057 51.7267 4.1739 51.6987 4.11257 51.728C3.92057 51.8214 3.78191 51.8014 3.59524 51.736C3.05791 51.5454 3.11657 50.9254 3.25924 50.4747C3.37257 50.1134 3.48457 49.7494 3.65657 49.4187C3.72057 49.296 3.76724 49.2294 3.77924 49.0707C3.79657 48.824 4.03524 48.6174 4.10057 48.3921C4.1739 48.1321 4.52857 47.7707 4.80457 46.8694C4.88723 46.5974 5.11523 46.1681 4.92323 46.0601C4.6419 45.9054 4.26057 46.6614 4.1579 46.8414L3.83657 47.4094C3.77524 47.5174 3.71791 47.5747 3.72591 47.7147C3.19524 48.2761 3.6539 47.8961 3.38057 48.3174L2.75924 49.2774C2.59657 49.5267 2.43791 49.876 2.19124 49.9414L1.96991 49.9987C1.79791 50.044 1.68857 50.1614 1.51924 50.1414C1.31391 50.116 1.24858 49.988 1.12858 49.84C0.895244 49.552 0.868577 49.248 0.943244 48.8787L1.03125 48.4494L1.37791 47.6147C1.63258 47.0014 1.86857 46.3974 2.18591 45.8054C2.28057 45.6307 2.29657 45.4521 2.42724 45.2881C2.58591 45.0867 2.69124 44.8161 2.79791 44.5721C2.90458 44.3294 3.10191 44.1401 3.19257 43.8947C3.33524 43.5081 3.49391 43.1721 3.72724 42.8347C3.74724 42.8054 4.35391 41.5107 4.60457 41.1347C4.8659 40.7441 5.02857 40.3147 5.22723 39.8814C5.54457 39.1867 5.4019 38.9641 5.64856 38.4774C5.69656 38.3841 5.6779 38.2294 5.71657 38.1134L6.05523 37.0961C6.0859 37.0041 6.0299 36.8507 6.1059 36.7841C6.23657 36.6694 6.23256 36.5587 6.26723 36.4054C6.3179 36.1734 6.73656 35.0214 6.8699 34.8134C6.9739 34.6507 6.9179 34.3774 7.03523 34.2294C7.13256 34.1041 7.15256 34.0574 7.1819 33.8961C7.2059 33.7574 7.2939 33.5734 7.33923 33.4441L7.49789 32.9841C7.77256 32.1921 8.23789 31.4881 8.50989 30.6908C8.61789 30.5908 8.74989 30.4948 8.78456 30.3361C8.80456 30.2401 8.98189 30.1948 8.99389 30.0974C9.05123 29.6414 9.36189 29.4774 9.44456 29.2774C9.52722 29.0761 9.71522 28.9694 9.80856 28.7974C10.0899 28.2721 10.9326 27.5028 11.4166 27.1148C11.7206 26.8734 12.0419 26.6814 12.3606 26.4561C12.7406 26.1868 13.1739 26.0241 13.5792 25.8001C13.7392 25.7121 13.8432 25.6401 14.0325 25.5908C14.5219 25.4641 14.6619 25.2548 15.2725 25.0468L17.0165 24.4508C17.2272 24.3788 17.3525 24.2574 17.6085 24.2681C17.7005 24.2734 17.8605 24.2094 17.9739 24.1734L18.6885 23.9388C18.8672 23.8814 20.4539 23.4148 20.5352 23.4054C20.7179 23.3828 20.8379 23.4041 21.0392 23.3094C21.4512 23.1148 21.8192 23.1668 22.3992 22.9561C22.1379 23.0508 23.4739 22.6854 23.3445 22.7161L23.9445 22.5721C24.0539 22.5468 24.2139 22.5801 24.3179 22.5068C24.3565 22.4788 24.4525 22.5948 24.4805 22.5668L24.6365 22.4201L25.1125 22.2921C25.3112 22.2388 25.5245 22.3041 25.7285 22.2694C26.0485 22.2161 26.3765 22.1334 26.6978 22.2028C26.8045 22.2254 26.8418 22.2761 26.9658 22.1988C27.1085 22.1094 27.0138 22.3774 27.4032 22.1894C27.4632 22.1601 27.5112 22.2281 27.5778 22.2521C27.7618 22.3201 27.9658 22.2348 28.1565 22.2908C28.3098 22.3348 28.4592 22.4054 28.6312 22.3681C28.8272 22.3254 28.9845 22.4161 29.1565 22.4401C29.4232 22.4774 31.3005 22.8361 31.4938 22.8961C31.8125 22.9948 32.1738 22.9348 32.5285 22.9321C32.6565 22.6628 32.7072 22.4094 32.7872 22.1254C32.8085 22.0508 32.7658 21.9281 32.8538 21.8334C32.7258 21.8174 32.6192 21.6988 32.4952 21.6468C32.0872 21.4788 31.6552 21.3695 31.2818 21.1335C30.8138 20.8388 30.4818 20.4295 30.1578 19.9988C30.0578 19.8655 30.0125 19.7708 29.9032 19.6215L29.4258 18.9735C29.1592 18.6095 28.9858 18.0241 28.7112 17.7001C28.6552 17.4481 28.4378 16.6228 28.3658 16.4015C28.2978 16.1935 28.0592 16.3641 27.9418 16.3735C27.4805 16.4068 26.9205 16.5495 26.5285 16.4721C26.2605 16.4188 25.9645 16.2815 25.7752 16.0735C25.6338 15.9175 25.5339 15.5268 25.5832 15.3295C25.7205 14.7748 26.2818 14.5481 26.7832 14.4641C27.3352 14.3721 27.4685 14.2068 28.0125 14.3561C27.9938 13.9268 28.2325 13.6041 28.0645 13.2748C28.0312 13.2121 28.0672 13.1881 28.0885 13.1281C28.1245 13.0241 28.0072 12.7735 27.8872 12.7668L27.1405 12.7255C26.9792 12.7161 26.8418 12.6281 26.6578 12.6601C26.5325 12.6828 26.3952 12.6428 26.3138 12.5468C25.8605 12.0135 25.4338 12.0495 25.4552 11.7415C25.4845 11.3335 25.6578 10.8815 26.0712 10.7241C26.4232 10.5908 26.8232 10.6721 27.1752 10.7388C27.4418 10.7895 27.7112 10.7015 27.9538 10.7988C28.0245 10.8281 28.1045 10.8335 28.1632 10.8175C28.2312 10.7988 28.4205 10.9508 28.4578 10.8428L28.8125 9.69615C28.8525 9.56548 28.5965 9.47481 28.4992 9.47215C28.6045 9.47481 27.1032 9.15348 27.5805 9.20948L27.3258 9.17881C27.4578 9.19481 25.8298 8.63615 26.2352 7.91882C26.3218 7.76548 26.3845 7.59482 26.5045 7.47215C26.7685 7.20415 26.8752 7.18949 27.2698 7.24815C27.4845 7.28015 27.6578 7.34949 27.8672 7.25215C28.0112 7.25082 28.1978 7.38815 28.3365 7.36149C28.4698 7.33482 29.1178 7.47882 29.2085 7.52815C29.5432 7.71082 29.8432 7.61882 30.0672 7.32682C30.2178 7.12815 30.4472 6.97215 30.5125 6.70949C30.3885 6.55615 30.1912 6.50415 30.0312 6.42282L29.3472 6.07749C29.2338 6.02015 29.1885 5.93616 29.0378 5.90016C28.5965 5.79749 27.6725 5.07482 28.1298 4.36149C28.1992 4.25349 28.1965 4.06549 28.3192 3.99616C29.3245 3.42149 29.5858 3.93216 30.0285 4.13349L30.5485 4.36949C30.6765 4.42816 31.2005 4.96682 31.3178 4.98416C31.4352 5.00282 31.4232 5.11482 31.4965 5.16282C31.6298 5.25216 31.8658 5.31216 32.0245 5.38416C32.1565 5.31882 32.8045 4.90416 32.8152 4.80149C32.8205 4.74149 32.3285 4.09349 32.1432 3.94283C31.8538 3.70949 31.5872 3.44549 31.3792 3.1535C31.1298 2.80416 31.1352 2.50016 31.3512 2.15483C31.5858 1.77883 31.9418 1.51217 32.3992 1.6735C32.6778 1.77217 33.1405 2.00283 33.3485 2.2255L33.9778 2.8975C34.2352 3.17083 34.5378 3.43616 34.8698 3.61349C35.0925 3.73349 35.2565 3.85349 35.5512 3.77083C35.6552 3.74149 36.3218 3.62949 36.4578 3.40949C36.5045 3.3335 36.3832 3.17216 36.3125 3.17083C36.1285 3.1655 36.1232 3.00283 36.0232 2.93616C35.8112 2.7935 35.6245 2.68283 35.4992 2.45083C35.3645 2.2015 35.0645 2.01617 34.9672 1.75083C34.9032 1.5775 34.8978 1.3575 34.8472 1.16017C34.7552 0.804168 35.1018 0.464169 35.4178 0.397502C35.6405 0.350836 35.8218 0.398836 36.0245 0.378836C36.0978 0.370836 36.1352 0.312169 36.2085 0.397502C36.4965 0.728168 36.6458 0.505502 36.8378 0.840168C37.1072 1.3095 37.6898 1.6295 38.0298 2.17616C38.1205 2.32283 38.2458 2.49883 38.2978 2.6415C38.3938 2.90016 38.4792 3.06416 38.7725 3.1415C39.0218 3.20816 39.2738 2.95083 39.9338 3.16283C39.9925 3.1495 40.0658 3.1135 40.0098 3.0895C39.9218 3.05216 39.8538 2.71883 39.8538 2.72416C39.8711 2.3095 39.6231 2.02283 39.4218 1.6895C39.2018 1.3255 39.1925 0.818834 39.2751 0.424169C39.3111 0.253502 39.4645 0.174836 39.5738 0.110837C39.7751 -0.00516307 39.9631 0.0148365 40.1711 0.00150323C40.3871 -0.0118301 40.4138 0.0641697 40.5378 0.204169L41.0591 0.797501L41.6818 1.48683L41.8018 1.92417C41.8378 2.05483 41.9071 2.14816 41.9365 2.2775L42.0298 2.70016C42.0711 2.8935 42.1738 3.04816 41.9831 3.26016C42.2418 3.30683 43.4151 3.65349 43.5725 3.72283C43.6085 3.73883 43.6898 3.75483 43.7045 3.69749C43.7458 3.54283 43.6071 3.39483 43.6258 3.22816C43.6431 3.07216 43.6245 2.8775 43.5258 2.74816C43.3418 2.5055 43.3898 2.28816 43.3658 2.00283C43.3165 1.4535 43.5058 0.817502 44.0858 0.637502C44.1658 0.612169 44.3245 0.785502 44.4205 0.582836C44.6818 0.748169 44.9845 0.864168 45.1191 1.19217C45.1951 1.37883 45.2951 1.55483 45.3405 1.75217C45.3485 1.79083 45.5311 2.52683 45.5311 2.50683C45.5391 3.0455 45.5605 3.55616 45.7418 4.07749C45.7965 4.23349 45.6605 4.52283 45.8045 4.64016C46.0205 4.74416 46.7485 5.21882 46.8951 5.18416C47.1085 5.13349 47.0125 4.42949 47.0058 4.40416C46.9538 4.20949 46.8978 4.06549 46.9351 3.85216L47.0018 3.46549C47.0325 3.2935 47.1151 3.19083 47.1645 3.04816C47.2525 2.79616 47.3205 2.5655 47.5751 2.42283C47.5951 2.38283 47.6085 2.2855 47.6431 2.27216C47.7058 2.24816 47.7805 2.19483 47.8258 2.27083C47.7765 2.3135 47.7138 2.29483 47.6858 2.3255C47.6578 2.35883 47.6698 2.4295 47.7098 2.43483C47.8805 2.45883 47.8685 2.25883 48.2311 2.40416C48.2018 2.46016 48.1458 2.52416 48.1391 2.5295C48.1058 2.5535 48.1418 2.5815 48.1991 2.58816C48.2711 2.59483 48.3325 2.49083 48.3485 2.46416C48.4471 2.30416 48.5738 2.74683 48.5765 2.75216L48.7751 3.0775C49.0365 3.50816 48.8311 3.34816 48.8285 3.52816C48.8285 3.59083 48.9338 3.60549 48.9511 3.65749C48.9871 3.76283 48.9738 3.88416 49.0205 3.99616C49.0898 4.15883 48.9991 4.33083 48.9978 4.49616C48.9938 4.73349 49.0125 4.94149 48.9538 5.16682C48.9058 5.35349 48.9151 5.53882 48.8338 5.73616C48.7805 5.86682 48.7671 6.05749 48.7858 6.20015C48.7978 6.29749 48.6965 6.36282 48.7205 6.45615C48.7605 6.61615 48.9658 6.66949 49.0351 6.79615C49.1245 6.95482 49.8031 7.82815 49.8258 7.91215C49.8711 8.07082 49.9778 8.14282 50.0525 8.27615L50.5591 9.18281C50.7071 9.44681 50.8898 9.66415 51.0045 9.95348C51.0778 10.1348 51.1965 10.2801 51.2378 10.4815C51.2538 10.5601 51.6605 11.1055 51.7471 11.2641L52.0458 11.8121C52.1005 11.9121 52.1418 11.9935 52.1991 12.0881L52.7098 12.9335L53.2591 13.7388C53.5858 14.2188 53.8511 14.7361 54.2031 15.1921L54.5911 15.6935C54.7871 15.9481 54.8578 16.2908 54.9644 16.6015C54.9911 16.6775 54.8258 16.7135 54.8178 16.7495L54.7311 17.1268C54.7111 17.2108 54.6031 17.3455 54.5244 17.3908L54.1351 17.6121C54.0004 17.6895 53.7938 17.5788 53.6644 17.6561C53.4831 17.7641 52.4471 17.8268 52.3711 17.8415L51.8285 17.9481C51.7285 17.9681 51.5698 18.0161 51.4738 18.0615C51.2418 18.1708 51.2578 18.5268 51.3845 18.7081C51.5325 18.9188 51.4618 19.0708 51.4205 19.2841C51.4018 19.3841 51.5685 19.5295 51.4471 19.6748C51.3818 19.7548 51.4898 19.8895 51.4778 19.9721C51.4578 20.1095 51.2938 20.1068 51.2085 20.1695C51.1311 20.2268 51.1045 20.3175 51.0338 20.3241C50.9391 20.3335 50.8631 20.2815 50.7698 20.2801L50.0005 20.2721C49.8231 20.2708 49.6738 20.2001 49.5018 20.3041C49.3551 20.3921 49.1711 20.2148 49.0405 20.2441C48.4978 20.3708 48.3525 20.2601 48.0325 20.7135C47.9698 20.8028 48.0805 21.1015 48.2031 21.1028L50.3978 21.1255C50.8885 21.8641 50.2325 22.5521 50.2085 22.6428L50.0245 23.3241C49.9845 23.4748 49.7378 23.5508 49.7018 23.7188C49.6805 23.8161 49.6591 23.8681 49.5711 23.9281C49.4125 24.0374 49.3898 24.2588 49.2631 24.3828C48.9005 24.7428 48.4831 25.0534 48.0418 25.2988C47.9245 25.3641 47.7671 25.3428 47.6458 25.4254C47.0325 25.8388 45.8165 25.6721 45.1018 25.7108C44.9071 25.7214 44.7565 25.6401 44.5845 25.6161C43.9058 25.5201 43.9925 25.4281 43.4191 25.3334C43.2191 25.3001 43.0618 25.3268 42.9085 25.1734C42.8618 25.1254 42.7338 25.1214 42.7071 25.1881C42.6365 25.3681 42.8631 25.3388 42.8618 25.4468C42.8591 25.6001 42.5205 25.4388 42.5031 25.6014C42.4698 25.9001 42.6271 26.0734 42.8911 26.1308C43.0831 26.1721 44.1098 26.5148 44.2218 26.5841C44.3565 26.6654 44.4738 26.6788 44.6098 26.7214L45.1765 26.9028C45.5925 27.0348 45.9925 27.2614 46.3191 27.5374L46.8805 28.0108C47.1805 28.2628 47.5551 28.4241 47.8538 28.6788L48.5925 29.3108L49.2298 29.9268C49.3525 30.0454 49.4591 30.1214 49.6085 30.2108C49.6431 30.2308 50.0978 30.7454 50.1098 30.7694C50.3511 31.2494 50.6911 31.3774 50.9925 31.7361L51.4618 32.2974C51.5631 32.4174 51.6351 32.5468 51.7791 32.6374C51.8818 32.7014 51.9191 32.8414 52.0018 32.9321L53.1004 34.1281L53.9538 35.0921C54.1564 35.3214 54.4551 35.4294 54.5964 35.7441C54.6498 35.8654 54.8684 36.0361 54.9991 36.0841C55.3964 36.0587 56.3911 35.6334 56.7711 35.4507C56.9324 35.3734 57.1378 35.4094 57.2244 35.1881C57.2764 35.0547 57.4098 35.2307 57.4698 35.2121L58.1058 35.0001C58.2471 34.9534 58.3151 34.8814 58.4751 34.8294L59.5058 34.4908C59.7791 34.4001 59.9898 34.3054 60.2378 34.1934C60.9698 33.8614 61.7178 33.6081 62.4698 33.3188C62.6018 33.2681 62.7458 33.2908 62.8631 33.1881C62.9871 33.0801 63.1378 33.0481 63.2844 32.9908C63.4591 32.9214 63.5378 32.6988 63.6498 32.5721C63.7138 32.5014 63.7658 32.4801 63.7671 32.3801C63.7684 32.2521 64.1084 31.8788 64.1551 31.6801C64.1898 31.5294 64.2724 31.4588 64.3364 31.3441C64.4978 31.0548 64.6271 30.7814 64.8818 30.5601C65.0338 30.4281 65.1524 30.1814 65.3444 30.0934C65.8004 29.8841 65.4164 29.8441 66.1497 29.4214C66.2777 29.3468 66.3457 29.2601 66.4537 29.1868C66.7817 28.9681 67.1217 28.7428 67.4817 28.5841C67.7897 28.4508 67.9657 28.2068 68.2577 28.0628L68.5924 27.8988C68.7657 27.8134 69.0111 27.7694 69.1671 27.6361C69.4111 27.4241 69.6924 27.3934 69.9777 27.3054C70.2577 27.2188 70.6377 27.0334 71.0991 27.2481C71.2577 27.3214 71.4124 27.3934 71.4657 27.5268C71.6857 28.0708 71.0804 28.4388 70.6177 28.8374C70.3551 29.0628 69.8817 29.5401 69.6097 29.6988C69.3204 29.8668 68.9937 30.1881 68.7871 30.3428L68.1124 30.8428C68.0097 30.9188 67.9804 31.0934 67.8284 31.1174C67.7831 31.3214 67.8257 31.5441 67.8204 31.7681C68.2244 31.6961 68.7817 31.2481 69.2404 31.0388C69.4351 30.9508 69.5737 30.8668 69.7231 30.7108C69.9564 30.4694 70.2631 30.3121 70.5431 30.1268C70.8857 29.9001 71.1937 29.6494 71.5617 29.4534L72.5377 28.9334C72.6497 28.8721 72.8457 28.8628 72.9617 28.8188C73.2777 28.7001 73.4991 28.8748 73.7084 29.0348C73.8511 29.1441 73.9711 29.1881 73.9604 29.4241C73.9497 29.6548 73.9764 29.9988 73.7671 30.1481C73.6564 30.2254 72.8271 30.9041 72.8324 30.9014C72.6524 30.9908 72.5364 31.0961 72.3817 31.2108L70.3937 32.6988C70.2764 32.7868 70.1897 32.9028 70.0617 32.9721C69.7804 33.1241 69.6297 33.5268 69.6297 33.6574C69.6297 33.8281 69.9351 33.8588 69.9577 33.8348C69.9751 33.8161 69.9337 33.7574 69.9577 33.7201C70.0097 33.6388 70.0977 33.5934 70.1884 33.5748C70.2884 33.5548 70.7484 33.2561 70.8751 33.1814L71.4991 32.8174C71.6524 32.7268 71.7924 32.6654 71.9564 32.6054C72.0831 32.5601 72.1577 32.3854 72.2751 32.3094C72.8177 31.9561 74.9751 30.6481 75.3551 31.6921C75.3697 31.7308 75.4537 31.8841 75.4511 31.9001C75.3297 32.7188 74.9857 32.7534 74.4777 33.2121C74.3657 33.3134 74.2631 33.3628 74.1484 33.4494L73.7444 33.7521L71.8791 34.9374C71.7177 35.0387 71.2897 35.2587 71.3697 35.5214C71.4951 35.9307 72.0671 35.5001 72.3031 35.3561C72.6017 35.1734 74.5684 34.0281 74.7297 33.9948L75.1231 33.9161C75.3271 33.8748 75.5724 33.8801 75.7884 33.8734C76.0297 33.8654 76.1337 34.0841 76.1871 34.2708C76.3697 34.9054 76.2204 34.9721 75.9617 35.2627C75.7644 35.4854 75.5551 35.6521 75.2871 35.8161L74.5604 36.2627C74.1071 36.5414 73.7164 36.9014 73.2271 37.1241C73.0951 37.1841 73.0071 37.2761 72.8924 37.3601C72.7244 37.4827 72.4551 37.4734 72.3004 37.6107C72.1617 37.7347 72.0257 37.7574 71.8751 37.8414C71.1791 38.2281 70.5111 38.6494 69.7377 38.8427C69.4657 38.9107 69.2071 38.9827 68.9591 39.1014C68.7951 39.1801 68.6124 39.1681 68.4431 39.2401C67.9804 39.4321 67.7991 39.2041 67.4311 39.4001C67.2364 39.5041 67.2657 39.1907 67.0164 39.2227C66.5911 39.2774 65.9724 38.9227 65.3844 39.2761L64.7924 39.6334C64.4578 39.8347 64.2458 39.9574 63.9111 40.1494C63.6298 40.3107 63.3924 40.5107 63.1031 40.6561C62.9698 40.7227 62.8951 40.8934 62.7018 40.8654C62.6444 40.8561 62.6244 40.9587 62.5858 40.9787L61.1524 41.7107C60.8124 41.8854 60.5004 42.0987 60.1431 42.2267C59.7831 42.3561 59.0631 42.7961 58.5218 42.9747L58.1364 43.1014C57.8978 43.1801 57.6964 43.2814 57.4618 43.3761L56.5964 43.7214C56.3138 43.8334 56.0044 43.8401 55.7071 43.9067L55.3178 43.9934L54.5778 44.1121C54.1191 44.1867 53.6524 44.1334 53.1911 44.1054C53.0551 44.0974 52.4631 43.8947 52.2591 43.7414C52.0671 43.5947 51.8485 43.4974 51.6311 43.3961C51.4525 43.3121 51.3431 43.1907 51.1738 43.0907L50.7618 42.8494C50.9565 42.9627 49.1645 41.4521 49.1218 41.4321C49.0885 41.4147 49.1378 41.2934 49.0778 41.2907C48.9578 41.2867 48.9351 41.1921 48.8871 41.1107C48.8005 40.9627 48.5925 40.9307 48.4978 40.8027C48.4285 40.7094 48.4151 40.5801 48.2831 40.5321C48.1671 40.4907 48.1191 40.3907 48.0538 40.2961C47.9351 40.1281 47.7085 40.0481 47.5778 39.8867C47.3538 39.6107 47.1205 39.3907 46.8551 39.1681C46.9845 39.2761 46.5525 38.8067 46.5845 38.8627C46.3098 38.3707 46.6831 38.8601 46.4231 38.6547C45.4791 37.9094 45.9245 37.7401 45.9405 37.2534C45.9511 36.9041 45.9938 36.5987 46.0418 36.2627C46.0858 35.9454 46.0605 35.6347 46.1525 35.3227C46.2938 34.8334 46.1618 34.4321 46.1938 34.0721C46.2058 33.9321 46.2631 33.8361 46.1951 33.6948C46.1498 33.6001 46.0511 33.5708 45.9165 33.5161C45.4765 33.3361 45.3365 34.7974 45.2311 35.2134C45.1871 35.3881 45.0685 35.5401 45.1058 35.7401C45.1165 35.7974 45.1431 35.8601 45.0885 35.9094C44.9538 36.0294 44.9805 36.1907 44.9511 36.3507C44.9098 36.5681 44.8725 36.7814 44.8311 36.9907L44.7551 37.3747C44.7071 37.6161 44.4685 38.5427 44.4818 38.7454C44.4991 38.9827 44.3431 39.2081 44.3778 39.4334C44.4125 39.6654 44.1845 39.7614 44.2191 40.2401C44.2431 40.5787 43.9445 41.1267 43.9245 41.6027C43.9165 41.8054 43.9178 41.8947 43.7805 42.0401C43.6991 42.1321 43.6711 42.4001 43.6778 42.5321C43.6831 42.6307 43.5165 43.4574 43.4751 43.6334L43.3605 44.1334L43.2991 44.4387C43.2565 44.6481 43.1578 44.8387 43.1498 45.0454L43.1271 45.5987C43.1231 45.6961 42.7311 46.8547 42.7711 47.5227C42.7871 47.7987 42.6085 48.0347 42.5911 48.2907L42.5565 48.82C42.5378 49.108 42.5605 49.3094 42.7391 49.5107C43.1045 49.924 43.3858 50.0934 43.7311 50.4414C44.3085 51.0227 44.9551 51.492 45.5391 52.056L45.9045 52.4094C45.9818 52.484 45.9591 52.6494 46.1111 52.7187C46.5418 52.9134 46.4765 53.152 46.6938 53.1627C46.7858 53.1667 46.7725 53.2494 46.8218 53.2894L47.2631 53.656C47.4845 53.84 47.8778 54.316 48.1351 54.484C48.3671 54.636 48.5578 54.8494 48.7285 55.0574C48.8858 55.248 49.0885 55.348 49.2605 55.504C49.4458 55.676 49.6005 55.8587 49.8125 56.0054C50.0258 56.1547 50.1351 56.4347 50.3565 56.568C50.4711 56.6374 50.5391 56.7374 50.6365 56.8094C51.3458 57.3334 51.4111 57.7387 51.7285 57.912C51.9138 58.012 52.0098 58.1694 52.1685 58.2787C52.3551 58.408 52.4684 58.5827 52.5031 58.792C52.6218 58.8334 52.6964 58.96 52.7684 59.0467C53.2738 59.6574 53.6004 60.3334 53.8258 61.0934C53.9298 61.4454 54.1258 61.7534 54.1231 62.14C54.1244 61.9494 54.3738 63.4347 54.3578 63.2467L54.3964 63.704C54.4111 63.8867 54.4684 64.036 54.4751 64.232C54.4818 64.4067 54.5938 64.5693 54.6284 64.7373C54.7191 65.1707 54.8098 65.604 54.8484 66.0573C54.8738 66.3613 54.9551 66.8027 55.0298 67.092C54.9071 66.6147 55.2951 68.48 55.2204 67.9787L55.2791 68.368L55.3458 68.704C55.3791 68.8693 55.3324 69.032 55.4271 69.2C55.5298 69.3787 55.5871 70.0053 55.6431 70.1547C55.6911 70.2853 55.7124 70.3667 55.7444 70.516L55.9138 71.3173C55.9764 71.6173 56.0924 72.112 56.0898 72.3907C56.0884 72.672 56.2098 72.9147 56.2658 73.1827L56.5004 74.3173C56.5804 74.7067 56.6511 75.084 56.7458 75.4653C56.8778 75.996 56.9218 76.224 57.3418 76.4427C57.4591 76.504 57.5591 76.5666 57.7004 76.604L59.0418 76.9573C59.0071 76.948 60.0124 77.0786 60.1858 77.14C60.3831 77.208 61.7578 77.3506 61.9418 77.3426C62.1164 77.3333 62.2364 77.412 62.3898 77.428C62.7738 77.468 63.1924 77.4773 63.5738 77.4253C63.7191 77.4053 63.7511 77.3773 63.9004 77.4173C64.2218 77.5053 64.5844 77.4253 64.9338 77.4626C65.3231 77.5053 65.7178 77.3986 66.1191 77.4666C66.1711 77.476 66.2377 77.5493 66.2911 77.5266C66.4124 77.476 66.5097 77.412 66.6284 77.5093C66.7751 77.6293 66.9871 77.4253 67.2377 77.6586C67.4097 77.82 67.6657 77.9346 67.7591 78.1653L67.9857 78.728C68.0551 78.9 67.9471 79.0493 67.9284 79.196C67.9071 79.3733 67.7631 79.416 67.6924 79.5373C67.6177 79.6626 67.5191 79.7133 67.4311 79.8026C67.2311 80.008 67.0444 80.16 66.7777 80.2866C66.6084 80.368 66.4817 80.4866 66.2858 80.5413C66.1404 80.5813 65.9831 80.676 65.8457 80.7453L65.4751 80.9333C65.2191 81.0626 65.0124 81.2213 64.7244 81.2866C64.2244 81.3986 64.5018 81.3933 64.0658 81.5586L62.6418 82.0986C62.4004 82.1906 62.1924 82.3053 61.9444 82.3853L61.4804 82.536C61.3498 82.5786 61.2058 82.592 61.0778 82.6373L60.5498 82.8266C60.1698 82.9626 59.0284 83.3213 58.6764 83.3933L58.2471 83.4813C58.3244 83.4653 56.7498 84.0066 56.5924 84.004C55.9978 83.9933 56.1484 84.2173 55.4924 84.28C55.2778 84.3 55.2738 84.4066 54.7178 84.532L54.1764 84.6546C54.0551 84.6826 53.3165 84.86 53.3378 84.8573C53.0231 84.8906 52.7338 85.0066 52.4364 85.0773C52.4018 85.0853 52.3498 85.0186 52.3151 85.048C52.1325 85.2053 51.9058 85.1773 51.6818 85.2146C51.7578 85.2013 51.0098 85.3746 51.1445 85.372L50.0725 85.3933C49.8191 85.3986 49.5951 85.396 49.3618 85.3026C49.2271 85.2493 49.0565 85.2466 48.9525 85.1373C48.9178 85.1026 48.9245 85.004 48.8565 85.0013C48.7578 84.9973 48.7458 84.8893 48.6898 84.8573C48.4925 84.7426 48.3898 84.596 48.2951 84.392C48.1845 84.1533 48.0231 83.9253 47.9925 83.6426C47.9178 82.9533 48.0831 82.732 47.9791 82.468C47.9178 82.3106 48.0698 82.172 48.0698 82.016L48.0605 80.5106C48.0605 80.4386 47.9831 80.2653 47.9271 80.2133C47.8791 80.1666 47.9311 80.1333 47.9311 80.0933C47.9298 79.852 47.7578 79.644 47.7231 79.4026C47.6911 79.18 47.5885 79.0186 47.5031 78.8133C47.2405 78.1813 47.0885 77.4946 46.7258 76.9173C46.3751 76.3587 46.4498 76.068 46.1685 75.6013C46.0578 75.4187 46.0351 75.2267 45.9471 75.056C45.7351 74.648 45.5751 74.2453 45.4031 73.8267C45.2378 73.4227 45.0125 73.06 44.8925 72.6347C44.8458 72.4707 44.7231 72.344 44.7178 72.16C44.7125 71.9733 44.5005 71.9973 44.5671 71.8533C44.6018 71.7787 44.5818 71.7053 44.5351 71.64C44.3658 71.4027 44.5018 71.316 44.3418 71.276C44.3071 71.2667 44.2378 71.2173 44.2498 71.1747C44.2965 71.0053 44.1738 70.9 44.1525 70.764C44.1058 70.48 44.0071 70.224 43.9551 69.9427L43.8885 69.5773C43.8645 69.4413 43.7738 69.2853 43.7698 69.1507C43.7645 68.992 43.6338 68.2213 43.5925 68.0533C43.5738 67.9787 43.4871 66.8787 43.4871 66.8787C43.3525 66.6667 43.4138 66.504 43.4498 66.2907C43.4911 66.0373 43.4231 65.7933 43.5111 65.5427C43.5685 65.376 43.4685 65.16 43.4831 64.9653C43.5151 64.5773 43.3431 64.18 42.9711 64.0027C42.8925 63.9653 42.7711 63.9067 42.7111 63.852C42.5591 63.8427 42.4365 63.8147 42.3058 63.6787C42.1778 63.548 41.9338 63.5573 41.7591 63.476L40.9018 63.0773C40.7005 62.984 40.5458 62.88 40.3418 62.7893L39.5338 62.4254C39.0578 62.212 38.6125 61.9707 38.1378 61.744C37.9285 61.644 37.7565 61.492 37.5218 61.4347C37.3365 61.3894 37.2205 61.252 37.0832 61.1347C37.0005 61.0654 36.8605 61.108 36.7685 61.06L36.1872 60.752C35.8512 60.5747 35.2485 60.3307 34.8872 60.1734L33.9405 59.7614C33.8432 59.72 33.7965 59.6147 33.6938 59.5854C33.4525 59.5174 33.3485 59.3547 33.3992 59.32C33.7472 59.0854 33.8752 58.7214 34.1045 58.388L35.1765 56.8347C35.3778 56.544 36.0685 55.4974 36.2058 55.24C36.3365 54.9974 36.4392 54.7787 36.6098 54.5654C36.7898 54.3414 36.8538 54.0427 37.0098 53.804C36.9765 53.6694 36.9738 53.488 36.9045 53.3587C36.8072 53.176 36.5112 53.0267 36.3045 53.0987C36.1538 53.1507 35.9818 53.336 35.9085 53.472L35.3818 54.4547L35.0458 55.0694L34.8352 55.4134C34.7432 55.5654 34.5792 55.628 34.5352 55.8267C34.4952 56.004 34.3698 56.1414 34.2392 56.256C34.2352 56.2987 34.2725 56.3387 34.2925 56.3814C34.1085 56.348 33.9178 56.8174 33.7178 57.0614C33.4072 57.4414 32.8898 58.304 32.9325 58.2534Z" fill="#243D13"/>
<path d="M47.7433 13.5895C47.6659 13.9295 47.4793 14.0828 47.2259 14.2295C46.9193 14.4055 46.6379 14.4348 46.2699 14.4028C45.8873 14.3695 45.4593 14.3521 45.1979 14.0108C44.9379 13.6681 44.9259 13.7428 44.8326 13.3175C44.7393 12.8921 44.8179 12.4895 45.1739 12.2188C46.2499 11.4041 46.3593 11.9095 46.5526 11.8201C46.7766 11.7161 47.8739 12.5815 47.7646 13.2628C47.7553 13.3175 47.8486 13.3868 47.8499 13.4268C47.8513 13.4868 47.7566 13.5335 47.7433 13.5895Z" fill="#243D13"/>
</svg>
