<svg width="117" height="33" viewBox="0 0 117 33" fill="none" xmlns="http://www.w3.org/2000/svg">
<path d="M25.2288 5.25921C25.2306 5.34386 25.2776 5.35979 25.3001 5.37166C25.3279 5.38457 25.3883 5.36849 25.3957 5.33665C25.4061 5.28564 25.3864 5.24267 25.3601 5.24225C25.3338 5.24182 25.2276 5.22047 25.2288 5.25921Z" fill="#243D13"/>
<path d="M24.8717 15.6599C24.8464 15.6173 24.7904 15.6013 24.7344 15.6599C24.6344 15.7639 24.737 15.7626 24.7797 15.7626C24.877 15.7653 24.8984 15.7066 24.8717 15.6599Z" fill="#243D13"/>
<path d="M97.613 21.2346C97.6236 21.2239 97.6316 21.2173 97.641 21.2159C97.6156 21.2173 97.6063 21.2239 97.613 21.2346Z" fill="#243D13"/>
<path d="M20.4688 15.1719C20.4221 14.9679 20.5661 14.8719 20.6315 14.7132C20.6581 14.8906 20.6288 15.0599 20.4688 15.1719ZM21.5875 13.0012C21.5115 12.8159 21.3075 12.6426 21.1781 12.4892C20.8821 12.3692 20.0275 14.3999 19.9888 14.5199C19.8675 14.9026 19.5315 15.1506 19.3581 15.4986C18.9195 16.3799 18.7608 17.4879 18.2701 18.2999C17.9661 18.8026 17.6835 19.2986 17.3261 19.7892C17.1355 20.0519 16.9155 20.5212 17.2901 20.7359C17.5128 20.7866 17.8008 20.4799 17.9475 20.3346C18.3715 19.9092 18.7568 19.5292 19.0395 18.9972C19.8021 17.5586 19.8648 18.4506 20.2995 17.6519L20.6355 17.0332C20.7635 16.8012 20.8528 16.5732 20.8261 16.3039C20.7915 15.9652 21.0328 15.6906 21.1128 15.3772L21.3395 14.4746C21.4035 14.2186 21.2341 13.9306 21.3595 13.6546C21.4421 13.4706 21.6768 13.2159 21.5875 13.0012Z" fill="#243D13"/>
<path d="M22.3065 7.73854C22.1185 8.10921 21.8651 8.42788 21.7011 8.80921C21.6891 8.83854 20.7851 9.88254 20.7078 9.99987C20.3305 10.5679 19.8785 11.0879 19.1798 11.1399C19.1305 11.1439 19.0398 11.1545 19.0052 11.1385C18.8318 11.0612 19.4798 9.80787 19.5865 9.62387C19.8398 9.18387 20.0612 8.76521 20.2492 8.28921C20.8358 6.80788 21.5398 6.71855 21.9625 6.04388C22.1771 5.70122 22.6678 4.66655 23.1065 4.89855C23.4251 5.06788 22.4985 7.36121 22.3065 7.73854Z" fill="#243D13"/>
<path d="M11.7608 23.6572C11.6995 23.6906 11.6302 23.6732 11.5702 23.5839C11.7582 23.5212 11.9622 23.2666 12.0102 23.3986C12.0342 23.4666 11.7822 23.6452 11.7608 23.6572ZM9.05552 24.3132C9.01419 24.3345 8.89552 24.2759 8.91952 24.2012C8.94752 24.1146 9.08485 24.0799 9.14085 23.9972C9.19952 23.9146 9.26619 23.9652 9.30752 24.0079C9.40485 24.1079 9.05552 24.3132 9.05552 24.3132ZM13.7395 16.5932C13.6862 16.5999 13.5995 16.6412 13.5595 16.7279L13.2928 17.3039C13.1302 17.6546 12.9982 17.9732 12.8355 18.3359C12.6928 18.6546 12.3862 19.0239 12.4262 19.3786C12.4582 19.6652 12.4315 19.8559 12.3795 20.1346C12.3075 20.5226 12.2528 20.8612 11.9595 21.1772C11.7835 21.3652 11.7248 21.7652 11.4662 21.8892C11.2195 22.0066 11.0382 22.1346 10.8222 22.3012C10.6462 22.4399 10.4089 22.4959 10.2422 22.6879C10.1182 22.8319 9.95552 22.9319 9.73952 22.9039L8.09686 24.4345C7.95552 24.5665 7.90352 24.6932 7.67019 24.7505C7.54886 24.7799 7.55019 25.1772 7.67819 25.2039C8.06086 25.1785 8.47686 24.9639 8.84352 24.7879C9.11152 24.6585 9.36485 24.6985 9.57952 24.6119L10.8302 24.1159C11.0262 24.0372 11.1555 23.8919 11.3782 24.0399C11.8955 24.3799 12.9688 23.0586 13.1942 22.6519L13.3008 21.2919C13.3208 21.0306 13.3902 20.7812 13.3128 20.5092C13.7662 19.7812 13.6355 18.3999 13.8328 17.8972C13.9822 17.5146 14.2022 16.5359 13.7395 16.5932Z" fill="#243D13"/>
<path d="M88.6904 20.78C88.7104 20.6773 88.9291 20.7226 88.9571 20.9066C88.9038 20.9973 88.6744 20.8626 88.6904 20.78ZM87.5291 19.688C87.7291 19.66 87.9131 19.792 88.0158 20.0173C87.8278 19.9826 87.6651 19.884 87.5291 19.688ZM84.9864 18.4013C84.9131 18.308 84.7664 18.2226 84.8664 18.0746C84.9891 18.148 85.2038 18.2013 85.2318 18.3506C85.2624 18.508 85.0491 18.4813 84.9864 18.4013ZM91.0931 21.948C90.1131 20.5173 90.1824 21.1146 89.1344 20.1386L87.4904 18.608L86.0664 17.548C85.4131 17.0626 84.9078 16.432 84.3131 15.876C84.0184 15.6 83.7878 15.328 83.5571 14.9973L83.1278 14.3813C82.9784 14.1666 82.7144 13.984 82.7144 13.6787C82.7144 13.5213 82.7758 13.34 82.6384 13.1973C82.1518 12.6907 82.2811 12.4333 81.5665 11.612C81.4491 11.476 81.3465 10.732 81.0785 10.7547C80.5411 10.8 80.6225 11.844 80.9878 12.444C81.2491 12.8733 81.2518 13.308 81.4131 13.7787L81.5678 14.2293C81.6118 14.36 81.6638 14.6826 81.7598 14.7866C82.4798 15.5706 81.9171 15.2386 82.5824 16.052C83.0238 16.14 83.4584 16.4786 83.3771 16.988C83.9544 17.5853 83.9411 17.9426 84.6358 18.5946L85.8118 19.6973C86.4064 20.2546 86.8158 20.1306 87.1718 20.3586L87.8024 20.764C88.4131 21.156 88.9651 21.5333 89.6664 21.7666C89.8678 22.0853 91.4291 23.1373 91.6104 22.6426C91.6784 22.456 91.3064 22.2613 91.0931 21.948Z" fill="#243D13"/>
<path d="M112.09 31.6559C112.318 31.5586 112.655 31.4373 112.865 31.7239C112.613 31.7719 112.382 31.7639 112.09 31.6559ZM106.017 29.5119C106.123 29.4333 106.19 29.5319 106.375 29.5613C106.279 29.5933 106.125 29.6493 106.017 29.5119ZM77.0726 15.4746C77.182 15.4666 77.3046 15.4426 77.3433 15.504C77.3993 15.592 77.454 15.816 77.3446 15.8906L77.0726 15.4746ZM75.782 11.904C75.8526 11.9693 76.5753 12.9906 76.3193 12.9786C76.1166 12.9373 75.6713 11.968 75.782 11.904ZM75.554 13.044C75.622 13.116 75.726 13.2106 75.6886 13.3466C75.5793 13.2973 75.3846 13.2093 75.3593 13.092C75.3446 12.956 75.51 12.9973 75.554 13.044ZM75.398 13.9733C75.4073 13.9946 75.3993 14.0306 75.398 14.1C75.398 14.1306 75.366 14.1453 75.3313 14.1053C75.294 14.0613 75.2286 14.0186 75.2833 13.956C75.3233 13.9106 75.386 13.9466 75.398 13.9733ZM71.6233 9.11864C71.9353 9.28398 72.0913 9.56931 72.2753 9.84797C71.902 9.83464 71.6673 9.47998 71.6233 9.11864ZM45.9834 19.8986C46.05 19.8973 46.2047 19.7706 46.2234 19.9079C46.0234 20.0146 45.9474 20.0226 45.87 20.1199C45.7887 19.9666 45.878 19.9013 45.9834 19.8986ZM44.8941 21.4386C44.9327 21.3959 44.9794 21.4213 45.0034 21.4493C45.0287 21.4799 45.0794 21.5319 45.0474 21.5626C44.9981 21.6093 44.9341 21.6093 44.9061 21.5893C44.8674 21.5599 44.8474 21.4919 44.8941 21.4386ZM57.3367 11.6346C57.35 11.584 57.3767 11.552 57.4354 11.4253C57.498 11.4946 57.5007 11.6413 57.4514 11.716C57.4034 11.788 57.3207 11.7 57.3367 11.6346ZM56.3207 12.5573C56.3407 12.5226 56.6247 12.088 56.6874 12.2866C56.6847 12.2866 56.618 12.6093 56.5887 12.6266C56.522 12.6666 56.4607 12.5946 56.3207 12.5573ZM56.3927 13.248C56.386 13.3613 56.2647 13.5893 56.114 13.6506C55.8327 13.64 56.2167 13.336 56.2434 13.2093C56.2567 13.1426 56.3967 13.1733 56.3927 13.248ZM54.9887 15.7213C55.0607 15.6213 55.054 15.5026 55.0967 15.456C55.1407 15.4266 55.2634 15.5706 55.174 15.6266C55.122 15.6586 55.078 15.792 54.9887 15.7213ZM54.9794 15.8453C55.0154 15.952 54.9154 16.168 54.706 16.1493C54.6674 16.0013 54.87 15.8333 54.9794 15.8453ZM53.386 18.5C53.3487 18.5733 52.8767 19.2266 52.8114 18.96C52.7687 18.7853 53.162 18.4813 53.386 18.5ZM54.3047 16.5466C54.3274 16.388 54.438 16.284 54.5727 16.3066C54.5087 16.4426 54.4727 16.512 54.3047 16.5466ZM54.522 19.0773C54.8567 19.16 54.0967 19.3586 53.958 19.3933C53.962 19.256 54.5447 19.0933 54.522 19.0773ZM54.278 16.5933C54.1914 16.804 53.3874 17.8626 53.098 17.812C53.2647 17.608 53.4234 17.5253 53.5234 17.32C53.4154 17.5426 54.2487 16.4506 54.278 16.5933ZM51.11 20.3826C51.1487 20.2733 51.234 20.2359 51.33 20.2159C51.3767 20.2053 51.37 20.3373 51.334 20.3693C51.2754 20.4213 51.2154 20.4653 51.11 20.3826ZM52.8847 23.2293C52.946 22.6773 53.378 22.2759 53.854 22.0093C54.0087 21.9226 54.0874 21.7519 54.2927 21.7519C54.218 21.9653 54.0314 22.0773 53.8887 22.2346C53.5807 22.5786 53.33 22.9533 52.8847 23.2293ZM52.1674 23.2799C52.1727 23.2159 52.2607 23.1333 52.3447 23.1186C52.4087 23.1066 52.3994 23.2053 52.358 23.2293C52.3234 23.2506 52.302 23.2853 52.1674 23.2799ZM49.95 25.6666C50.202 25.4666 50.3207 25.2306 50.606 25.0733C50.5874 25.2399 50.2154 25.8599 49.95 25.6666ZM49.4487 25.3146C49.4687 25.2973 49.5074 25.3586 49.5274 25.3733C49.5927 25.4253 49.3687 25.5026 49.358 25.4639C49.3394 25.3933 49.3887 25.3586 49.4487 25.3146ZM49.902 25.7613C49.5914 26.1786 49.1647 26.4253 48.7327 26.7386C48.6514 26.7973 48.5474 26.6959 48.506 26.6719C48.466 26.6479 48.4994 26.5919 48.5247 26.5413C48.5447 26.4999 48.5994 26.5066 48.6634 26.4839C49.1234 26.3173 49.4394 25.9813 49.902 25.7613ZM62.9687 13.1773C62.8433 12.9906 62.7767 12.7893 62.7753 12.4973C62.9407 12.688 63.0367 12.9253 62.9687 13.1773ZM63.506 14.12C63.3047 13.9613 63.134 13.7333 63.1527 13.4493C63.4073 13.5893 63.5073 13.8213 63.506 14.12ZM64.258 12.0346C64.2207 11.8213 64.1647 11.6453 64.0607 11.444C64.0887 11.3986 64.15 11.404 64.2033 11.408C64.402 11.424 64.3887 11.9626 64.4167 12.192C64.3367 12.1586 64.3087 12.0973 64.258 12.0346ZM64.8273 25.1439C64.6033 25.2119 64.4513 25.0799 64.2873 25.0053C64.4913 24.8293 64.714 24.9639 64.8273 25.1439ZM64.434 21.1959C64.7713 21.1519 65.0127 21.6693 65.046 21.9866C64.8593 22.1319 63.9913 21.2533 64.434 21.1959ZM65.6353 21.1866C65.806 21.2653 66.122 22.1759 66.1047 22.2146C65.982 22.4826 65.6367 21.7773 65.582 21.6826C65.7727 21.5293 65.634 21.3946 65.6353 21.1866ZM67.274 25.2759C66.9967 25.1226 66.6527 25.0386 66.438 24.6959C66.7847 24.7679 67.0767 24.9199 67.274 25.2759ZM68.1713 25.6066C68.0407 25.5546 67.9207 25.5373 67.8247 25.4706C67.8927 25.3546 67.9807 25.3479 68.062 25.4053C68.1127 25.4399 68.194 25.4999 68.1713 25.6066ZM69.4873 21.2773C69.478 21.3959 69.3513 21.3039 69.306 21.2879C69.2487 21.2679 69.1887 21.1679 69.2647 21.1093C69.3193 21.0679 69.4927 21.1919 69.4873 21.2773ZM83.6833 20.6653C83.3713 20.7653 83.17 20.5546 82.9926 20.3706C83.2633 20.3999 83.474 20.4853 83.6833 20.6653ZM86.4273 24.7986C86.0033 24.7226 85.7753 24.5879 85.5886 24.2679C85.5566 24.2159 85.45 24.1853 85.4766 24.1079C85.4966 24.0506 85.5406 24.0039 85.59 23.9733C85.6713 23.9226 85.7246 24.0199 85.8086 24.0586L86.5646 24.4146C86.7139 24.4853 86.5766 24.8239 86.4273 24.7986ZM101.301 28.1399C100.925 28.1999 100.569 28.1079 100.191 28.0519C99.6979 27.9799 99.1686 28.0333 98.6993 27.8479C97.9459 27.5519 97.4726 27.2293 96.5286 26.8893C95.9126 26.6653 95.2819 26.5133 94.7139 26.1879C94.1819 25.8839 93.7086 25.5319 93.1366 25.2933C92.5179 25.0346 91.8073 24.8746 91.3019 24.4053C90.4899 23.6533 89.5406 23.3066 88.5553 22.8293L86.4233 21.7973C85.062 21.1373 84.942 21.1799 83.7646 20.0533L82.8046 19.136C81.7526 18.128 80.386 18.5906 80.3566 18.9706L80.31 19.5653C80.2606 20.2079 80.4326 20.4519 80.726 20.8866C80.9033 21.1519 81.022 21.4759 81.3966 21.6093C81.8446 21.7706 82.218 22.0813 82.5486 22.4466C82.6286 22.5186 82.966 22.3826 82.9633 22.5999C82.962 22.6813 82.87 22.7893 82.8633 22.8653C82.8513 22.9813 83.5313 23.8533 83.5086 23.8053C83.7193 24.1613 83.9473 24.4093 84.2953 24.6719L84.6273 24.9226C85.042 25.2373 86.4033 26.0093 86.6166 26.2173C86.8846 26.4813 86.8006 26.9746 86.8993 27.3066C87.0379 27.7746 87.0473 28.1786 87.1326 28.6759C87.17 28.8973 86.9073 29.3053 86.614 29.2813C85.706 28.9639 84.7473 28.5786 83.7873 28.4199C83.6646 28.5373 83.546 28.6679 83.3606 28.5759C83.1086 28.4533 82.8126 28.5213 82.5526 28.4453C82.2686 28.3626 82.0766 28.0413 81.814 27.9119C81.3366 27.6746 80.8966 27.4306 80.4486 27.1333C80.2406 26.9959 79.9593 26.9346 79.7286 26.8199L78.29 26.1013C77.9326 25.9213 77.5526 25.2613 76.818 24.9653C76.538 24.8533 76.27 24.5879 76.01 24.4226C76.182 24.0133 75.606 23.6826 75.3313 23.4839L74.7593 23.0706C74.2847 22.7266 73.7073 22.5893 73.1753 22.3253L70.5873 21.0466C70.246 20.8773 69.9807 20.7533 69.7047 20.4786C69.282 20.0586 68.982 19.5506 68.718 18.996L68.3807 18.288C68.782 17.664 67.3327 16.0453 66.986 15.86C66.442 15.5706 66.19 15.08 65.9633 14.5506C65.638 13.8 64.9727 11.9373 64.8713 11.2013C64.758 10.3853 64.8607 10.2773 64.554 9.37464C64.4953 9.20264 64.4713 9.04931 64.3313 8.87998C64.114 8.61464 64.342 7.72665 64.446 7.46131C64.5447 7.20665 64.5033 6.91865 64.526 6.64798C64.5393 6.48665 64.398 6.38798 64.31 6.32532C63.6073 5.82932 63.1153 7.72265 63.0887 7.76131L62.5313 8.56664C62.1927 9.05598 62.1647 9.55864 62.018 10.1253C61.966 10.324 61.9927 10.5213 62.0713 10.6906C61.798 11.3533 61.982 12.004 62.182 12.66C62.302 13.0573 62.1767 13.52 62.3567 13.9333C62.602 14.4933 62.6673 15.088 62.8513 15.668C63.0487 16.288 63.2887 16.9106 63.0353 17.5706C62.962 17.76 63.05 17.9986 63.0327 18.208L62.9687 19.008C62.9367 19.4106 62.8473 19.9386 62.6287 20.2799C61.77 21.1333 61.7127 22.6119 62.1193 23.6573C62.2873 24.0879 62.662 24.4253 63.0273 24.6986C65.1047 26.2533 65.4807 25.3066 66.0753 25.8186C66.246 25.9666 66.506 26.0413 66.6873 26.1546C66.9193 26.2986 67.078 26.1813 67.278 26.2039C67.7407 26.2573 68.3953 26.5693 68.8033 26.8346C69.0593 27.2479 69.346 27.6199 69.8113 27.8439C69.9793 27.9253 70.166 28.0866 70.342 28.1346C70.5887 28.2039 70.7433 28.3039 70.946 28.4506C71.2727 28.6879 71.5287 28.8039 71.5127 29.2959C71.5087 29.4253 71.346 29.5839 71.162 29.6879L68.31 28.9613C67.5967 28.7786 66.97 28.5933 66.4087 28.1266C66.086 27.8586 65.63 27.8106 65.258 27.6359C63.8647 26.9786 63.058 27.3866 62.5007 27.2159C62.078 27.0866 61.6167 27.0626 61.2287 26.8693C61.066 26.7879 60.978 26.5519 60.7673 26.4719C60.2087 26.2586 59.6927 25.9866 59.1127 25.7999C56.618 24.9973 57.1847 25.6319 56.63 25.5066C56.1514 25.3973 55.714 25.5866 55.3034 25.7746C54.554 26.1173 54.9194 26.2119 54.1047 26.5879C53.6514 26.7973 53.2847 27.0319 52.858 27.3199C51.442 28.2773 49.93 29.1706 48.3527 29.8066C48.25 29.8479 48.2567 30.2066 48.0727 30.0773C47.8887 29.9493 47.7887 29.6733 47.6247 29.5013C47.4394 29.3079 47.27 29.1413 47.1514 28.9026C47.598 28.7266 47.9247 28.4493 48.302 28.2159C48.7167 27.9573 49.4967 27.8106 49.674 27.5639C49.7287 27.4866 49.906 27.5413 49.982 27.4853L50.726 26.9293L51.8434 26.1106C52.1087 25.9173 52.2887 25.6279 52.4687 25.3533L53.0794 24.4186C53.206 24.2266 53.3967 24.0919 53.582 23.9413L54.366 23.3026C54.5514 23.1519 54.6634 22.9639 54.8407 22.7946C55.382 22.2773 55.5234 21.7879 55.8794 21.3613C55.9594 21.2653 55.9794 21.1386 55.9767 21.0559C55.9527 20.4879 54.59 20.9639 54.6354 20.9199L51.2114 23.1813C50.8087 23.4466 50.442 23.7226 50.0567 23.9893L49.518 24.3626C49.0634 24.6773 48.686 25.0586 48.1647 25.2893L47.086 25.7666C46.5701 25.9946 46.0834 26.1906 45.5141 26.2599C45.4181 26.2719 45.2194 26.4226 45.1194 26.2813L44.5127 25.4213C44.5514 24.9906 45.0674 24.9133 45.3674 24.7559C45.9487 24.4493 47.1434 23.7493 47.7114 23.5906C48.1287 23.4746 48.4887 23.2893 48.8594 23.0653C49.13 22.9026 49.4754 22.8453 49.702 22.6066L50.1807 22.1053C50.518 21.7493 50.8274 21.4119 51.234 21.1373C51.9874 20.6293 52.734 20.2119 53.6074 19.9533C53.842 19.8839 54.0527 19.7466 54.3034 19.7026C54.6047 19.648 55.674 18.948 55.318 18.2946C55.8727 17.5853 55.742 17.3106 56.2354 16.8386C56.5167 16.5693 56.7527 16.2546 57.082 16.0066C57.486 15.7013 57.9207 15.4346 58.246 15.0373C58.506 14.7186 58.4967 14.328 58.562 13.956L58.686 13.248C58.7567 12.8493 58.8687 12.5853 58.834 12.18C58.79 11.664 59.038 11.0133 59.0914 10.296C59.1327 9.72798 59.95 8.55998 59.3807 8.15331C59.178 8.00931 58.9194 8.09198 58.7474 8.27065C57.7354 9.32531 57.7487 10.34 56.63 11.5333C56.0567 12.1453 55.6874 12.8133 55.458 13.62L55.254 14.3386C55.17 14.6333 54.9794 14.976 54.7754 15.2066L53.3754 16.7866C53.1447 17.0453 53.0554 17.372 52.7794 17.6373C52.098 18.2946 52.4474 18.3053 51.678 18.7413C50.678 19.308 49.5407 20.5733 49.158 20.7399C48.9407 20.8346 48.9554 21.0679 48.8247 21.1986L48.1407 21.8813C47.9447 22.0759 47.77 22.2773 47.5567 22.4653C46.99 22.9599 45.8021 23.0653 44.4967 24.2093C44.2847 24.3933 44.0581 24.5666 43.7901 24.6546C43.4167 24.1986 42.5807 23.8173 42.5234 23.3866C42.6394 23.0959 43.0221 23.0586 43.2554 22.9093L43.6941 22.6266C44.0487 22.3986 44.3901 22.1759 44.8087 22.0573C45.0754 21.9813 45.8141 21.6293 46.0234 21.3959C46.3301 21.0546 47.094 20.8466 47.794 19.4C47.8514 19.28 47.738 19.0986 47.686 19.02C47.4234 18.6146 46.3434 19.3026 46.1821 19.3813C45.6341 19.6493 45.0167 20.0466 44.5234 20.3946C44.2354 20.5959 43.9701 20.8786 43.6594 21.0146C43.3887 21.1319 43.3874 21.3453 43.1861 21.4933L42.0367 22.3386C41.9394 22.4106 41.8047 22.6266 41.6741 22.4773C41.4887 22.2693 41.3221 22.0573 41.1101 21.8626C41.0314 21.7906 40.8927 21.6226 40.9647 21.5133C41.0421 21.3959 41.3474 21.3159 41.3514 21.1439C41.3554 20.8746 41.4474 20.8319 41.6181 20.6719L42.2781 20.0466C42.5114 19.8253 42.7647 19.6759 43.0007 19.4693C43.6274 18.9186 44.1794 18.328 44.9434 17.968C45.4967 17.708 46.7887 16.728 47.09 16.272C47.178 16.1386 47.382 15.892 47.5287 15.8386C47.8847 15.7093 47.9154 15.3586 48.0914 15.128C48.1727 15.0226 49.478 13.6906 49.5474 13.64C49.8754 13.3986 49.8487 13.1093 50.03 12.8626C50.442 12.304 50.95 11.86 51.278 11.244C51.5874 10.6626 52.0714 10.2133 52.598 9.84131L53.822 8.97331L54.3594 8.62798C54.814 8.33465 55.1114 8.26131 55.5554 7.92798C55.7314 7.79598 55.9407 7.74531 56.1087 7.57465C56.31 7.37198 56.63 7.28265 56.8167 7.05865C57.0394 6.78932 57.79 6.46265 57.7607 6.49598L58.7087 5.75199L59.9647 4.80399C60.2527 4.58665 60.482 4.27066 60.7927 4.09999C61.086 3.93999 61.454 3.39199 61.9433 3.23599C62.4473 3.07466 63.0353 3.00266 63.5553 3.07199C64.4527 3.19333 63.718 2.51333 64.8967 3.58399C65.474 4.10532 65.2647 4.35999 65.75 5.15865C65.878 5.36932 66.0287 5.52932 66.098 5.78799C66.1673 5.89598 66.3687 5.90132 66.4847 5.97465C66.6767 6.48932 67.43 6.97998 67.8887 7.30665C68.1113 7.46531 68.262 7.71198 68.526 7.83998C68.706 7.92531 68.7367 8.15865 68.7967 8.32531C68.9687 8.80264 69.302 9.15998 69.5593 9.58131C69.966 10.244 70.4553 10.7866 71.0873 11.2493C71.0873 11.2586 71.586 11.784 71.7233 11.712C71.7713 12.016 72.5113 12.3 72.8153 12.4533C73.05 12.5706 73.1406 12.9066 73.3606 13.0573C73.5326 13.176 73.7006 13.256 73.7926 13.464C73.762 13.3533 74.7206 14.2346 74.758 14.2693C75.322 14.8253 75.8486 15.432 76.5086 15.8773C76.6633 15.9826 76.7446 16.0106 76.842 16.2C77.2793 17.0453 77.0153 17.0506 78.002 17.9346C78.118 17.9226 78.238 17.8893 78.4113 17.8306C78.2873 17.4813 78.3566 17.2346 78.4206 16.9053C78.494 16.5266 78.2246 16.1653 78.182 15.7986C78.0326 14.5186 77.622 13.548 76.8246 12.5146C76.5326 12.1346 76.2873 11.7186 76.0193 11.324C75.7846 10.9773 75.4713 10.7413 75.206 10.4426C74.9446 10.1506 74.7393 9.92531 74.3513 9.76664C74.0046 9.62664 73.6753 9.37198 73.3647 9.14931C73.03 8.90798 72.7753 8.58264 72.474 8.30265C72.3593 8.19598 72.334 8.01065 72.2407 7.88531C71.978 7.53465 71.8473 7.13332 71.7327 6.70932L71.3673 5.34265C71.326 5.19065 71.3447 4.88399 71.39 4.71732C71.4607 4.46399 71.79 4.24266 72.0327 4.14399C72.3953 3.99866 72.9473 4.08532 73.1993 4.35866C73.5246 5.17332 73.7286 5.73332 74.1193 6.49598C74.2246 6.69998 74.4886 7.66665 74.8286 7.71598C74.614 7.68531 75.43 8.73064 75.93 9.05998C76.6126 9.50798 76.91 9.95464 77.2473 10.2666C77.526 10.5226 77.894 10.6973 78.0393 11.112C78.166 11.4746 78.4113 11.7386 78.662 12.0293C78.826 12.2173 78.9153 12.408 79.2246 12.4213C79.294 12.424 79.3766 12.4426 79.43 12.4186C79.522 12.3773 79.4993 12.2253 79.5446 12.1866C80.146 11.688 79.4793 11.2053 79.3313 10.6813C79.3486 10.1853 79.1753 9.83464 79.002 9.42398C78.8686 9.10931 78.7873 8.89198 78.4753 8.63998C78.2553 8.46131 78.2446 7.90798 77.9633 7.75731C77.514 7.51731 77.33 7.22398 77.1793 6.75065C76.9833 6.12665 76.6046 5.55465 76.33 4.96132C76.242 4.77199 76.2553 4.64799 76.4286 4.51065C76.5993 4.37599 76.702 4.12932 76.922 4.03466C77.9513 3.59732 78.0113 3.79866 79.022 3.65066C79.414 3.59332 79.7446 3.74266 80.0646 3.88266C80.242 3.96132 80.4833 3.98132 80.4606 4.27732C80.4313 4.68532 81.106 5.80799 81.334 6.62798C81.4033 6.87865 81.4246 7.16398 81.5233 7.39598L81.7753 7.99065C82.0086 8.54398 82.0913 9.07064 82.5166 9.51464C82.7646 9.77464 82.8753 10.224 83.2286 10.4666C83.446 10.616 83.546 10.8373 83.6913 11.0506C83.9033 11.364 84.27 11.6106 84.414 11.98C84.4806 12.152 84.61 12.2346 84.6993 12.3706L85.0006 12.824L85.0353 13.5866C85.0433 13.7466 85.0793 13.948 85.1846 14.096C85.5926 14.4653 86.0286 14.852 86.5206 15.0693C86.7193 15.1573 86.8246 15.332 86.9953 15.4266C87.1593 15.5186 87.3353 15.52 87.5086 15.6706C88.0379 16.1346 88.3339 16.228 88.7353 16.716C89.1339 17.2013 88.5219 16.812 89.6726 18.132C89.8033 18.2813 90.0526 18.3266 90.0993 18.596C90.1313 18.7813 90.3953 18.8426 90.4899 18.9786C90.7019 19.284 91.0233 19.4506 91.2579 19.7106L92.0553 20.5906C92.3379 20.9026 92.3846 21.1519 92.8926 21.5533C93.3406 21.9039 93.3326 22.3266 93.8553 22.8159L94.4979 23.4173L94.7859 23.7039C95.0979 24.0119 95.3366 24.4573 95.6846 24.6373L96.1619 24.8826C95.8486 24.7306 97.2619 25.6146 97.2753 25.6146L97.9513 26.0693C98.4846 26.4279 98.3819 26.3919 98.9846 26.6773L99.6806 27.0066C99.9366 27.1266 101.427 27.7359 101.301 28.1399ZM95.4459 29.0373L95.0779 29.1959C94.7006 29.3586 94.2433 29.1226 93.8499 29.0693C93.9566 28.8933 94.0953 29.0373 94.1886 28.9733C94.4339 28.8066 94.6913 28.7573 94.9806 28.8586C95.1326 28.9119 95.3166 28.7999 95.4553 28.8759C95.6286 28.9706 95.7379 28.9213 95.9846 28.8906C95.8726 29.0773 95.6219 28.9626 95.4459 29.0373ZM91.4006 27.3479C91.5873 27.3239 91.7859 27.3279 91.9886 27.4413C91.7913 27.6533 91.6406 27.4906 91.4006 27.3479ZM91.4139 31.0039C91.6459 30.9133 91.8553 30.9039 92.1073 30.9186C91.9739 31.2239 91.6419 31.1866 91.4139 31.0039ZM90.1606 30.7333C90.0873 30.7733 89.7313 30.5999 89.8513 30.5519C89.9459 30.5146 90.1006 30.4706 90.1713 30.5626C90.2046 30.6066 90.2126 30.7039 90.1606 30.7333ZM87.8273 28.7919C87.7886 28.8159 87.7486 28.7786 87.7099 28.7546C87.6486 28.7173 87.6833 28.6719 87.758 28.6533C87.7993 28.6426 87.8406 28.6239 87.8486 28.6586C87.8593 28.7066 87.8686 28.7653 87.8273 28.7919ZM86.9513 22.8093C87.0659 22.7306 87.2326 22.7399 87.2859 22.8986C87.1499 22.9013 87.0846 22.8346 86.9513 22.8093ZM85.8073 30.8639C85.9206 30.7599 86.0699 30.7119 86.2886 30.7866C86.1886 30.9426 85.9846 31.0106 85.8073 30.8639ZM84.678 30.9386C84.0926 30.8773 83.602 30.9666 83.5233 30.5839C83.7393 30.5333 83.9086 30.6773 84.102 30.6639C84.298 30.6519 84.842 30.7359 84.8086 30.8493C84.7993 30.8826 84.7433 30.9453 84.678 30.9386ZM79.3406 27.4159C79.0806 27.2933 78.818 27.2399 78.646 27.0079C78.7553 27.0159 78.862 26.9346 78.95 26.9639C79.1753 27.0359 80.202 27.5333 80.1953 27.6039C80.1633 28.0146 79.486 27.4853 79.3406 27.4159ZM79.7913 30.4719C79.7726 30.5266 79.7593 30.6186 79.674 30.6226C79.486 30.6319 79.258 30.6959 79.134 30.4506C79.418 30.5479 79.8446 30.3186 79.7913 30.4719ZM75.8806 28.7239C75.8073 28.7453 75.726 28.6319 75.8166 28.5693C75.8473 28.5466 75.902 28.6479 76.0326 28.6293C76.0566 28.7266 75.934 28.7079 75.8806 28.7239ZM73.3807 31.5746C73.474 31.5079 73.582 31.5146 73.774 31.5746C73.6566 31.6173 73.5367 31.6213 73.3807 31.5746ZM73.4487 24.9266C73.4527 24.8066 73.5487 24.8373 73.5833 24.8799C73.614 24.9186 73.69 24.9599 73.626 25.0373C73.5953 25.0079 73.4473 24.9759 73.4487 24.9266ZM73.4367 26.1586C73.5113 26.1426 73.6033 26.1746 73.6353 26.3866C73.5753 26.3786 73.47 26.3426 73.3753 26.2759C73.326 26.2439 73.3953 26.1666 73.4367 26.1586ZM71.6687 23.6879L73.206 24.7439C73.49 25.0159 70.9953 23.5599 71.6687 23.6879ZM70.7927 23.2266L71.4767 23.5946C71.7633 24.0373 70.4633 23.1519 70.7927 23.2266ZM71.274 25.7586C71.45 25.6426 71.762 25.6839 71.802 25.8933C71.8353 26.0666 71.8353 26.1666 72.074 26.2533C72.2487 26.6253 71.1927 25.8066 71.274 25.7586ZM72.1047 28.2853C72.006 28.2906 71.9207 28.3119 71.894 28.2573C71.8753 28.2186 71.89 28.0853 71.9233 28.1106C71.9967 28.1666 72.078 28.0893 72.0807 28.1279C72.0833 28.2026 72.19 28.2813 72.1047 28.2853ZM63.2807 30.3279C63.4193 30.1706 63.57 30.1906 63.6247 30.0346C63.7047 30.2453 63.5073 30.4053 63.2807 30.3279ZM60.942 31.7013C61.0473 31.4679 61.2033 31.6653 61.3167 31.6573C61.542 31.6413 61.81 31.5559 62.0367 31.7693C61.6727 31.8479 61.3233 31.7853 60.942 31.7013ZM59.9793 27.7186C60.3207 27.8333 60.6967 27.9559 60.9847 28.2653C60.8473 28.3866 59.7073 27.9986 59.9793 27.7186ZM58.358 29.8266C58.254 29.8359 58.1927 29.9933 58.0767 30.0106C57.686 30.0719 57.358 30.0146 57.0234 30.0266C57.3687 29.7319 57.686 29.6479 58.0767 29.7426C58.274 29.7893 58.83 29.4559 59.1434 29.5773C58.8954 29.7946 58.6314 29.8039 58.358 29.8266ZM56.598 29.0706C56.53 29.0613 56.4447 29.1079 56.4154 28.9866C56.494 28.8853 56.5527 28.9959 56.694 28.9746C56.7194 29.0559 56.662 29.0786 56.598 29.0706ZM51.8647 29.8026L52.338 29.5813C53.05 29.2506 53.1754 29.4279 53.8474 29.3973C53.654 29.5946 52.1714 29.8919 51.8647 29.8026ZM49.298 31.1186C49.2527 31.1493 49.2047 31.1559 49.1487 31.1386C49.0914 31.1213 49.0834 31.0613 49.1634 30.9906C49.2287 30.9319 49.2874 30.9679 49.3314 31.0159C49.3647 31.0506 49.33 31.0973 49.298 31.1186ZM41.3181 27.4159C41.2874 27.4533 40.9634 27.2559 41.0701 27.2213C41.0701 27.2333 41.3461 27.2506 41.3674 27.3479C41.3727 27.3706 41.3327 27.3986 41.3181 27.4159ZM40.3047 27.6613C39.3261 27.4999 38.3874 27.3119 37.4394 27.0279C37.1554 26.9426 36.9514 26.8253 36.7647 26.5906C36.4407 26.1826 35.8781 26.3893 35.5021 25.3573C35.6701 25.1719 35.0101 24.4266 35.0101 24.4266C34.4007 24.0906 33.7274 23.4866 33.6781 22.8706C33.9541 22.8039 34.1274 22.9493 34.3407 22.9813C34.6327 23.0253 34.9394 22.9813 35.1914 23.1706L35.9047 23.7733C35.9047 23.7733 36.4367 24.6653 36.5154 24.5293C36.8901 24.6813 37.0594 24.9866 37.3261 25.2653C38.0087 25.9786 37.8247 25.5866 38.4967 25.9573C38.8447 26.1479 39.1354 26.3279 39.3941 26.6399C39.7194 27.0306 40.5941 27.5613 41.0954 27.7613C40.7981 27.8799 40.5674 27.7039 40.3047 27.6613ZM35.1061 26.7359C35.0634 26.7346 34.9607 26.7373 35.0607 26.6319C35.1167 26.5733 35.1741 26.5906 35.1981 26.6333C35.2261 26.6786 35.2034 26.7373 35.1061 26.7359ZM33.7674 28.6173C33.3901 28.3226 33.0181 28.0559 32.5901 27.8506C32.4461 27.7813 32.3621 27.6413 32.2274 27.5666C31.6674 27.2546 31.1341 26.9106 30.7248 26.4053C30.6754 26.1693 30.7688 25.9399 30.6994 25.7226C30.6488 25.5666 30.5421 25.4306 30.5941 25.2519C30.6781 24.9613 30.7688 24.3719 30.4154 24.2639C30.2474 24.2133 30.1661 24.3986 30.0514 24.5213C29.8541 24.7306 29.5314 24.8119 29.4034 25.0906C29.2768 25.3666 29.0994 25.6359 29.0114 25.9186C28.8834 26.3239 28.5928 26.4746 28.1834 26.4799C27.8234 26.4839 27.5354 26.7853 27.2354 26.9373C26.4808 27.3199 26.6648 28.2373 25.9754 28.2786L25.1794 28.3253C24.7714 28.3493 24.3688 28.4026 23.9528 28.4679C23.7821 28.3813 23.8994 28.0866 23.9141 27.9479C23.9848 27.3093 24.5821 27.5386 25.7528 26.4506C25.8941 26.3186 26.1261 26.3159 26.2834 26.1933C26.8848 25.7279 26.5648 25.5319 26.6474 25.3573C26.6754 25.2959 26.8034 25.2973 26.8834 25.2346L27.5021 24.7506L27.8368 24.4333L28.5061 23.5453C28.6434 23.3639 28.9568 23.4159 29.1608 23.2879C29.5341 22.4466 30.0248 22.7933 30.4954 21.7519C31.0728 20.4799 30.4474 21.1759 31.7154 20.1959C31.8688 20.2959 32.1328 20.3079 32.2354 20.4799C32.3808 20.7239 32.0728 20.9573 31.9034 21.0933C31.8248 21.1559 31.8034 21.2999 31.7234 21.3533C31.3501 21.5999 31.4101 21.9546 31.4514 22.3053C31.5021 22.7213 31.4408 23.1239 31.6754 23.5066C31.8941 23.8639 32.1914 24.2053 32.2861 24.6386C32.3621 24.9866 32.3781 25.4253 32.7234 25.6306C32.8514 25.7066 33.1034 25.7746 33.0754 26.0159C32.9754 26.3306 33.6194 26.6493 33.7474 26.5839C34.0234 26.4453 34.2514 27.0479 34.4474 27.2919C34.6514 27.5466 34.9247 27.7346 34.9634 28.0973C34.5887 28.3306 34.2047 28.5199 33.7674 28.6173ZM27.9434 27.0586C27.8954 27.1093 27.8661 27.1946 27.8274 27.1826C27.7568 27.1586 27.6914 27.0773 27.7954 27.0266C27.8781 26.9853 27.9941 27.0079 27.9434 27.0586ZM27.4088 27.4119C27.3861 27.4333 27.3154 27.4706 27.2928 27.4093C27.2768 27.3666 27.3008 27.2933 27.3568 27.2613C27.4088 27.2306 27.4568 27.2599 27.4674 27.2866C27.4901 27.3453 27.4421 27.3799 27.4088 27.4119ZM25.4554 29.1906C25.5234 29.1853 25.5461 29.1093 25.5901 29.1613C25.7194 29.3173 25.6888 29.1879 25.4208 29.3293C25.3941 29.3439 25.3354 29.3239 25.3274 29.2946C25.3048 29.2013 25.3674 29.1999 25.4554 29.1906ZM24.9474 31.3293C24.7554 31.4786 24.5714 31.1759 24.4408 31.1373C22.4114 30.5466 23.2514 30.5026 22.6368 30.3066L21.7128 30.0119C21.4341 29.9239 21.1688 29.8026 20.9928 29.5746C20.8768 29.4226 20.7168 29.4626 20.5741 29.3919C20.1834 29.1946 19.8848 28.7933 19.7155 28.3786C20.0021 28.2373 20.3154 28.1519 20.5968 28.2386C21.7728 28.5986 21.0821 28.6293 22.4048 29.3453C22.6741 29.4906 23.4474 29.9333 23.7568 29.9386C24.0594 29.9439 24.2848 30.0919 24.4981 30.2813C24.6968 30.4613 24.9888 30.4879 25.2114 30.6186C25.4314 30.7453 25.5888 30.7866 25.8701 30.7546C25.5234 30.9639 25.2541 31.0893 24.9474 31.3293ZM21.5568 25.8413C21.4741 26.0159 21.3141 26.1479 21.0568 26.0626C21.1754 25.9279 21.3488 25.8559 21.5568 25.8413ZM22.1528 25.2413C22.1194 25.1186 22.1754 25.0959 22.2448 25.1066C22.3088 25.1186 22.3754 25.0786 22.4088 25.1479C22.2954 25.1759 22.2514 25.2519 22.1528 25.2413ZM22.6528 26.4426C22.7234 26.3746 22.7648 26.4626 22.7141 26.5359C22.4888 26.5706 22.4088 26.7479 22.1594 26.7266C22.2274 26.5453 22.4634 26.5319 22.6528 26.4426ZM22.7954 26.3093C22.8101 26.2639 22.8768 26.2999 22.9248 26.2426C23.0341 26.1506 23.1168 26.2759 23.0088 26.3559C22.8994 26.3799 22.8661 26.4293 22.8288 26.4079C22.7928 26.3879 22.7821 26.3479 22.7954 26.3093ZM22.8408 26.9079C22.9061 26.8586 22.9821 26.8466 23.0728 26.8653C23.1248 26.8746 23.1194 27.2213 22.9821 27.2746C22.8808 27.3119 22.8021 27.2226 22.7648 27.1706C22.7048 27.0879 22.7581 26.9719 22.8408 26.9079ZM24.6834 21.8306C24.7181 21.7733 24.7741 21.7413 24.8434 21.6666C24.9448 21.7493 24.8034 21.7839 24.7381 21.9626C24.6634 22.0279 24.6594 21.8693 24.6834 21.8306ZM24.5701 26.3399C24.5088 26.5146 24.2754 26.5306 24.1728 26.5706C24.1554 26.3973 24.2314 26.3373 24.3181 26.2813C24.3901 26.2333 24.6274 26.1759 24.5701 26.3399ZM15.2941 16.1493C15.2488 16.1626 15.2075 16.1466 15.1981 16.1146C15.1821 16.0626 15.2141 16.0013 15.2981 15.9666C15.3408 15.9493 15.3501 16.1333 15.2941 16.1493ZM24.7354 15.66C24.7914 15.6013 24.8474 15.6186 24.8728 15.66C24.8994 15.7066 24.8781 15.7653 24.7808 15.764C24.7368 15.7626 24.6354 15.7653 24.7354 15.66ZM24.5461 16.0226C24.5221 16.1826 24.1648 16.9786 24.0314 16.888C23.8874 16.7893 24.3541 16.096 24.5461 16.0226ZM22.4914 18.9426C22.5088 18.8466 22.5941 18.7573 22.6368 18.716C22.6994 18.74 22.7781 18.8093 22.7768 18.8546C22.7754 18.92 22.7261 18.976 22.6861 18.9933C22.6394 19.016 22.4754 19.028 22.4914 18.9426ZM21.8821 19.5573C21.8914 19.4946 21.9088 19.4319 22.0075 19.3919C22.0155 19.4906 22.0448 19.5693 21.9888 19.7039C21.8968 19.7746 21.8714 19.6479 21.8821 19.5573ZM17.4035 25.4973C17.6995 25.0653 18.1595 24.8559 18.5381 24.5533L19.2568 23.9773C19.5621 23.7306 19.9074 23.5519 20.1328 23.2199C20.8528 22.1626 20.7528 22.3639 21.7128 21.7639C21.9848 21.5946 22.2274 21.5026 22.4088 21.2079C22.5621 20.9586 22.7888 20.7039 22.9128 20.4293C23.0674 20.0933 23.2688 19.8599 23.5061 19.5906C23.7154 19.3546 24.3661 18.4186 24.6234 18.176L25.0688 17.7573C25.3074 17.5333 25.6034 17.2933 25.6594 16.9373C25.7874 16.132 26.3754 15.524 26.3754 15.556L26.5461 15.224C26.9461 14.4466 27.5154 13.7026 27.1714 12.8093C27.1128 12.656 26.9834 12.44 26.7901 12.5373C26.4794 12.696 26.3301 13.0506 26.0674 13.2493C25.8461 13.4173 25.6114 13.4893 25.4234 13.7133C25.4234 13.696 23.9301 15.1106 24.2741 14.656C24.1221 14.848 23.9848 14.996 23.8261 15.1746C23.1728 15.904 22.6488 16.8013 22.4261 17.768C22.1741 18.856 21.7701 17.952 21.0208 18.9306C20.8568 19.1453 20.6821 19.308 20.6608 19.6039C20.6408 19.8773 20.4195 20.0586 20.1781 20.1359C19.3501 20.4053 19.3354 21.3919 18.5434 21.9506C18.1568 22.2213 17.4941 22.2306 16.9195 22.9333L15.8635 24.2226C15.7501 24.3613 15.5101 24.4533 15.3515 24.5626C15.0661 24.4186 14.8368 24.6386 14.5835 24.6706C14.0288 24.7413 13.5568 24.8693 13.1501 25.2839C13.0728 25.3626 12.8701 25.4346 12.7541 25.5093C12.5061 25.6679 12.1635 25.6866 11.8741 25.6906L10.4235 25.7079C9.66214 25.7186 9.08881 26.0079 8.49948 26.4813C8.06881 26.8279 6.18748 27.3119 4.44882 28.5879C4.00482 28.9133 3.30083 29.5586 2.99016 29.1106C2.79016 28.8226 3.40482 28.5719 3.54082 27.9906C3.60215 27.7239 3.85682 27.0093 4.20749 27.1706C4.31682 27.0306 4.52215 26.9439 4.61548 26.7853C4.95015 26.2053 5.20616 25.5999 5.60082 25.0573C5.63949 25.0039 5.79682 25.0359 5.84349 24.9693L6.49815 24.0213C6.71282 23.7106 7.37948 22.4786 7.61148 22.3239C7.85148 22.1639 7.88882 21.7186 8.37948 21.1359C8.65815 20.8053 8.85547 20.3546 9.24347 20.1346C9.46614 20.0093 9.67014 19.9493 9.86881 19.7799C9.91814 19.7386 11.1755 19.2053 11.3488 18.7346L11.8768 17.3066C12.1288 16.624 12.4341 15.92 12.5061 15.1946C12.5341 14.9226 12.5168 14.7173 12.8368 14.5373C13.1528 14.3613 13.5648 14.184 13.7955 13.8466C14.1461 13.332 14.3235 12.74 14.5341 12.1693C14.6275 11.9173 15.0715 11.4893 15.3861 11.6893C15.4688 11.7426 15.3808 11.8853 15.3688 12.0213C15.2955 12.804 14.8755 13.7386 15.0408 14.56C15.0888 14.8 15.1621 14.9013 15.0288 15.164C14.7541 15.7026 14.6821 16.4666 14.9475 17.056C15.2128 17.6466 15.4955 18.1826 15.5875 18.8426C15.6181 19.0613 15.7821 19.2533 15.7235 19.5333C15.6821 19.7319 15.7128 19.9653 15.8568 20.1133C15.9528 20.0306 16.1208 19.9826 16.2061 19.8853L16.3915 19.0573C16.3155 19.3346 16.5608 17.6986 16.5408 17.9373L16.6048 17.3586C16.5915 17.5533 17.0461 16.2906 17.0995 15.6533C17.1328 15.2613 17.2848 14.9133 17.3701 14.5466C17.5568 13.7453 17.5275 13.548 17.5115 12.7533L17.5008 12.188C17.4835 11.352 17.6501 11.5693 17.8608 10.744C17.9035 10.572 18.3715 9.40398 18.3835 9.38798C18.6128 9.08931 18.7461 8.81731 18.9061 8.46798L19.1488 7.94131C19.3888 7.41865 19.5741 6.88132 19.6821 6.32798C19.8288 5.57732 20.3475 5.10265 20.8301 4.57332C21.1781 4.19066 21.4634 3.80399 21.8341 3.44266C22.3288 2.95999 23.1808 0.694665 23.5021 1.12666C23.5248 1.156 23.5501 1.20133 23.5448 1.264C23.5021 1.70933 23.8434 2.52266 23.8434 2.66133L23.8421 3.55066C23.8421 3.79599 23.7848 4.03732 23.7781 4.27066C23.7541 5.17865 24.1754 5.92265 24.5674 6.69332C24.7128 7.03198 24.5594 7.49465 24.5901 7.84531C24.6261 8.26665 24.6341 8.65864 24.6421 9.06664C24.6461 9.34398 24.3061 9.49064 24.1101 9.59998C23.7994 9.77197 23.6794 10.1013 23.4981 10.368C23.2234 10.7693 23.0688 11.184 23.0008 11.656L22.7581 13.328C22.6928 13.7826 22.5141 14.1893 22.4634 14.692C22.5928 14.7146 22.8221 14.6853 22.9181 14.5973L23.2954 13.8373L23.6674 13.204C24.3501 13.0306 25.0594 12.1266 25.2501 11.976L25.9061 11.4626C25.9061 11.4533 26.7901 10.2773 26.9501 10.3786C27.1888 10.532 27.4474 10.856 27.4861 11.144C27.5434 11.5546 27.8421 11.8346 28.1048 12.1386L28.4928 12.5866L28.9954 13.3186C29.0794 13.4426 28.8861 13.5653 28.8661 13.6586C28.7768 14.048 28.8768 14.44 28.8461 14.8306C28.5181 15.2906 28.1448 15.784 28.4501 16.416C28.4848 16.4893 28.6288 16.492 28.7034 16.556C28.7634 16.9573 29.0688 17.32 29.0928 17.7293C29.1221 18.2253 28.9928 18.7986 28.8101 19.2573C28.7314 19.4546 28.6181 19.5706 28.5514 19.7813C28.4381 20.1413 28.3061 20.5626 28.1088 20.8759C27.5514 20.9333 26.9061 22.2653 26.7901 22.7546C26.6968 23.1506 26.5368 23.4533 26.2168 23.7306C25.6354 24.2346 25.0914 24.8093 24.3328 25.0773C24.1674 25.0319 24.2741 24.7359 24.3754 24.6119L24.7874 24.1119C24.8594 24.0239 25.0034 23.8933 25.0528 23.7893C25.3434 23.1653 25.6048 22.5013 25.7008 21.8106C25.6674 22.0453 25.5794 20.7919 25.9381 20.2119C26.0741 19.9906 26.3488 19.376 26.1941 19.1453C26.1474 19.076 25.9448 18.9946 25.8754 19.1013L25.0021 20.4386C23.8794 22.1573 23.3341 22.1439 22.3594 23.8439C21.4728 23.9159 20.2901 24.6479 19.7274 25.3146C19.5328 25.5453 17.9061 25.5533 17.4035 25.4973ZM19.0301 27.0319C19.0488 27.1293 18.9128 27.1679 18.8435 27.0906C18.8755 27.0573 18.9608 26.9973 18.9395 26.8839C19.0808 26.8426 19.0221 26.9853 19.0301 27.0319ZM16.4488 24.7866C16.3021 24.5466 17.3768 23.4186 17.6168 23.4746C17.3955 23.9293 16.7141 24.4546 16.4488 24.7866ZM16.1315 25.6946C16.0741 25.7079 15.9901 25.6506 16.0555 25.5746C16.1288 25.4933 16.2208 25.6599 16.2288 25.6599C16.2075 25.7226 16.1568 25.6893 16.1315 25.6946ZM14.7088 25.7613C14.6368 25.8519 14.5261 25.8239 14.5088 25.7879C14.4941 25.7586 14.5541 25.7119 14.6075 25.6679C14.6981 25.5959 14.7795 25.6693 14.7088 25.7613ZM12.3541 26.1786C12.2421 26.2599 12.1955 26.2133 12.2688 26.0546L12.7781 25.9666C12.6768 26.0786 12.4981 26.0759 12.3541 26.1786ZM8.44215 28.4999C8.32481 28.5346 8.21148 28.7199 8.08215 28.5213L9.49414 27.8426C9.65948 27.7639 9.83014 27.6293 10.0408 27.6986C9.84747 27.9093 8.61414 28.4479 8.44215 28.4999ZM5.31282 29.9799L5.82615 29.6959C6.57815 29.2813 5.35682 30.2693 5.31282 29.9799ZM4.67015 29.4359C4.75415 29.3946 4.80882 29.2959 5.00615 29.3533C4.90882 29.4066 4.81682 29.5039 4.67015 29.4359ZM1.87682 30.5359C2.01949 30.4719 2.12216 30.3786 2.28216 30.2799C2.56349 30.3866 1.88749 30.6426 1.87682 30.5359ZM16.7688 15.0813C16.6541 14.9733 16.6568 14.856 16.6275 14.7213C16.7581 14.7946 16.9088 14.8853 16.7688 15.0813ZM16.5328 11.544C16.5688 11.4986 16.6661 11.4413 16.7408 11.5106C16.7835 11.5493 16.8075 11.6466 16.7755 11.7786C16.7515 11.876 16.7021 11.86 16.6595 11.86C16.5541 11.8613 16.4675 11.6293 16.5328 11.544ZM24.3114 2.28533C24.3341 2.23599 24.3768 2.31066 24.3941 2.32666C24.4301 2.35733 24.4301 2.44666 24.3834 2.45333C24.2954 2.46533 24.2514 2.41466 24.3114 2.28533ZM25.6648 9.84931C25.6261 9.95331 25.2714 10.3746 25.1728 10.3493C25.0861 10.3266 24.9954 10.276 25.0021 10.2053C25.0274 9.89731 25.1754 9.91331 25.6648 9.84931ZM25.2928 5.09199C25.0941 4.83865 25.0488 4.57199 25.0328 4.28799C25.2608 4.53466 25.2528 4.80265 25.2928 5.09199ZM25.3941 5.33732C25.3874 5.36932 25.3274 5.38532 25.3008 5.37199C25.2781 5.35999 25.2314 5.34532 25.2288 5.25999C25.2274 5.22132 25.3341 5.24399 25.3608 5.24265C25.3861 5.24265 25.4061 5.28665 25.3941 5.33732ZM25.4074 8.61198C25.2808 8.75198 25.1154 8.67198 25.0408 8.53864L25.1261 8.21331C25.2554 8.33465 25.2981 8.41865 25.4074 8.61198ZM25.6061 7.38531C25.6434 7.51598 25.6701 7.64531 25.5674 7.74265C25.4754 7.55465 25.3114 7.42265 25.3501 7.20131C25.4834 7.20265 25.5794 7.29065 25.6061 7.38531ZM26.8234 8.85464C26.7101 8.85731 26.5661 8.71198 26.6528 8.54798L26.8234 8.85464ZM26.6834 7.70531C26.6954 7.83598 26.7048 7.90531 26.6781 8.01865C26.5821 7.96398 26.6408 7.88131 26.5914 7.83998C26.5408 7.79598 26.6074 7.74131 26.6834 7.70531ZM28.3821 7.27731C28.3514 7.32265 28.3234 7.35465 28.2674 7.38931L28.0474 7.01198C28.2021 7.03065 28.2341 7.18532 28.3821 7.27731ZM29.5408 19.32C29.5474 19.5119 29.4354 19.6359 29.2874 19.7239C29.3181 19.54 29.4221 19.4373 29.5408 19.32ZM29.7328 18.6346C29.8541 18.8 29.8701 18.9773 29.7248 19.1733C29.6861 18.992 29.6541 18.8213 29.7328 18.6346ZM30.1941 19.7746L30.3008 19.4573C30.3994 19.6453 30.3181 19.8653 30.2368 20.0453C30.1248 19.9546 30.1621 19.8719 30.1941 19.7746ZM31.2941 14.9093C31.0381 14.7706 30.8061 14.5413 30.7648 14.2333C31.0301 14.388 31.1448 14.6173 31.2941 14.9093ZM31.4021 15.784C31.2474 15.7493 30.5501 14.992 30.8808 15.068C30.8208 15.068 31.4928 15.6813 31.4021 15.784ZM31.8328 19.2693C31.9034 19.2586 31.8768 19.3146 31.8568 19.3346C31.8061 19.3853 31.7781 19.4199 31.6448 19.3826C31.6488 19.324 31.7528 19.2933 31.8328 19.2693ZM32.0888 11.0826C32.1688 11.1 32.1528 11.22 32.2381 11.2986C32.1701 11.3626 32.0928 11.2813 32.0474 11.2693C31.9821 11.2506 31.9968 11.0613 32.0888 11.0826ZM32.7541 20.0173C32.6034 19.9933 32.4034 19.9439 32.3568 19.7546C32.5568 19.7239 32.6568 19.8626 32.7541 20.0173ZM32.9608 16.1453C32.6021 16.0453 32.4968 15.7213 32.3754 15.436C32.6354 15.6546 32.7768 15.8746 32.9608 16.1453ZM33.4101 18.4426C33.2821 18.5453 33.2327 18.42 33.1207 18.3893C33.1954 18.344 33.3394 18.2946 33.4101 18.4426ZM33.5194 24.7773C33.6341 24.8546 33.7088 24.9559 33.6981 25.1146C33.5834 25.0399 33.5074 24.9333 33.5194 24.7773ZM34.3047 19.4733C34.3301 19.4386 34.4114 19.4653 34.4487 19.4613C34.4754 19.4573 34.5061 19.5093 34.4848 19.5573C34.4608 19.6106 34.4127 19.584 34.3861 19.592C34.3234 19.6106 34.2474 19.5533 34.3047 19.4733ZM34.9821 20.2066C34.8021 20.3306 34.6127 20.2479 34.5607 20.0719C34.7354 20.0506 34.8341 20.1213 34.9821 20.2066ZM36.7234 18.5266C36.8514 18.5813 36.8741 18.6506 36.8741 18.812C36.7754 18.7613 36.7021 18.644 36.7234 18.5266ZM38.2501 21.3439L37.7461 21.0759C37.6367 20.9146 37.5127 20.7853 37.4967 20.5879C37.7701 20.8293 38.0154 21.0506 38.2501 21.3439ZM40.0687 22.2066C40.1407 22.1986 40.1581 22.3146 40.1981 22.3479C40.2461 22.3879 40.2461 22.4773 40.1194 22.5399C40.0567 22.5706 39.9967 22.4306 39.9701 22.3839C39.9354 22.3253 39.9621 22.2186 40.0687 22.2066ZM58.6593 4.53466C58.4807 4.87999 58.178 5.11332 57.822 5.22265C58.0554 4.94532 58.294 4.68532 58.6593 4.53466ZM66.97 5.32132C67.0313 5.42932 66.9353 5.61599 67.0327 5.75599C66.8167 5.44532 66.5633 5.14399 66.4193 4.71465C66.686 4.81999 66.8313 5.07199 66.97 5.32132ZM66.9567 3.59599C66.8753 3.61199 66.75 3.49332 66.7647 3.35999C66.8473 3.39066 66.9033 3.42799 66.9567 3.59599ZM67.3473 3.68132C67.3967 3.59066 67.506 3.74132 67.5433 3.78932C67.6727 3.95466 67.1593 4.64799 67.394 4.05466C67.4447 3.92799 67.282 3.80532 67.3473 3.68132ZM70.1927 8.23198C69.8273 8.23598 69.686 7.91198 69.634 7.60398C69.8487 7.78265 70.0193 7.99598 70.1927 8.23198ZM69.8513 6.33732C69.75 6.35065 69.6753 6.26532 69.666 6.13865C69.77 6.08798 69.8513 6.15332 69.8513 6.33732ZM70.85 8.03865L70.4273 7.68665C70.6567 7.55198 70.818 7.82531 70.85 8.03865ZM74.8593 6.40398C74.942 6.57865 75.078 6.71732 75.05 6.94932C74.8326 6.83198 74.7833 6.61732 74.8593 6.40398ZM82.514 7.48398C82.642 7.66931 82.6793 7.83065 82.6273 8.08131C82.5846 8.29065 82.8553 8.41464 82.766 8.63598C82.5246 8.15998 82.3726 7.65731 82.206 7.12265C82.4606 7.11465 82.4246 7.35465 82.514 7.48398ZM84.2993 9.12398C84.51 9.41198 84.5793 9.73064 84.7393 10.0213C84.458 9.76264 84.178 9.56664 83.9886 9.23064C83.942 9.14664 84.246 9.05198 84.2993 9.12398ZM87.0126 8.70798C87.0246 8.75464 87.1033 8.86131 87.0473 8.88131C86.9179 8.85731 86.8873 8.75998 86.8259 8.70531C86.8913 8.66131 87.0019 8.67064 87.0126 8.70798ZM87.3166 10.5866C87.3566 10.6626 87.4166 10.7186 87.5446 10.7986C87.5259 10.9106 87.4513 10.896 87.3913 10.8453C87.3206 10.836 87.2539 10.8253 87.2353 10.7853C87.2006 10.716 87.214 10.64 87.3166 10.5866ZM90.4113 12.7653C90.4993 12.8573 90.6059 12.852 90.7259 12.9493C90.5553 13.0093 90.4313 12.952 90.2699 12.9786C90.0539 12.9693 89.8633 12.9053 89.7433 12.7C89.9526 12.5226 90.2393 12.5653 90.4113 12.7653ZM92.5873 16.528C92.8646 16.544 93.0753 16.692 93.3339 16.8213C93.5046 17.1386 92.5126 16.6173 92.5873 16.528ZM91.9206 15.376C91.9526 15.3253 92.0446 15.356 92.1313 15.3986L93.1579 15.9226C93.2859 15.9866 93.4486 16.048 93.4259 16.2533C92.9606 16.0293 92.5593 15.7933 92.1033 15.604C92.0459 15.58 91.9313 15.6573 91.9073 15.588C91.8846 15.5266 91.8699 15.456 91.9206 15.376ZM94.0873 16.436C94.1126 16.48 94.1846 16.56 94.1166 16.6346C93.9939 16.5306 93.9419 16.4706 93.8406 16.4413C93.9166 16.3853 94.0593 16.3866 94.0873 16.436ZM95.8633 20.1586C95.6886 20.2226 95.6033 20.1159 95.5286 19.9826C95.6846 19.9813 95.7833 20.0559 95.8633 20.1586ZM96.7219 23.5413L96.9619 23.7439C96.9499 23.8599 96.8339 23.8066 96.7953 23.7453C96.7579 23.6853 96.6513 23.6666 96.7219 23.5413ZM97.6419 21.2173C97.6326 21.2173 97.6233 21.2239 97.6139 21.2359C97.6739 21.3426 99.2233 21.9039 99.2193 22.0293C98.6766 22.0226 97.9979 21.4786 97.5406 21.3226C97.5739 21.2866 97.5953 21.2546 97.6139 21.2359C97.6073 21.2239 97.6153 21.2186 97.6419 21.2173ZM99.7366 23.5066C99.2819 23.3573 98.9073 23.1933 98.4766 22.9706C98.7619 22.8679 98.9499 23.0573 99.1833 23.1759C99.3859 23.2786 99.6753 23.2146 99.7366 23.5066ZM101.222 27.1426L99.0806 25.7239C99.0126 25.6706 98.9966 25.5906 99.0246 25.5586C99.0846 25.4879 99.1606 25.4879 99.2459 25.5506L100.667 26.5959C100.799 26.8466 101.203 26.7586 101.222 27.1426ZM15.5115 30.4333C15.3821 30.4479 15.3608 30.3653 15.4955 30.3626C15.5328 30.3093 15.5888 30.2826 15.6115 30.2999C15.6395 30.3213 15.7075 30.3586 15.7061 30.4013C15.7035 30.4599 15.5688 30.4253 15.5115 30.4333ZM13.7075 30.8946C13.7928 30.6946 13.9715 30.6546 14.1421 30.5999C14.4008 30.5186 14.6075 30.3213 14.8675 30.2546C15.2355 30.5999 14.0808 31.0773 13.7075 30.8946ZM116.441 30.8826C116.349 30.5519 116.113 30.1906 115.766 30.0733C115.393 29.9493 115.231 29.6759 114.961 29.4466C114.587 29.1306 114.085 28.9866 113.669 28.7226C113.25 28.4573 112.781 28.3266 112.351 28.0853C111.778 27.7626 111.333 27.3066 110.846 26.8759L109.533 25.7119C108.707 24.9799 107.343 24.3813 106.259 24.1226C105.886 24.0333 105.599 23.9106 105.311 23.6359L103.985 22.3679C103.791 22.1826 102.514 21.0919 102.466 21.0306C101.977 20.4253 101.465 19.9039 100.869 19.3893L98.9499 17.732L98.3299 17.2573C97.7753 16.8346 97.2246 16.4146 96.7673 15.888C96.2179 15.2546 95.7459 14.5826 95.0686 14.076C94.8873 13.9413 94.7619 13.7906 94.5873 13.6506L93.4313 12.7333C93.2526 12.5906 93.1726 12.484 92.9406 12.4146C92.4366 12.2653 92.0579 11.8253 91.5886 11.6146C91.3113 11.4893 91.1099 11.404 90.8699 11.2L89.7419 10.2453C89.3619 9.92264 88.3126 8.53998 87.8766 8.02265L87.2539 7.28531L86.2313 6.09998C85.9873 5.81598 85.7326 5.55465 85.4073 5.36265C85.0993 5.18132 84.8993 4.92399 84.6353 4.69065L83.8473 3.99732C83.6353 3.81066 83.3726 3.71732 83.194 3.48266C83.0326 3.27199 82.854 3.02666 82.606 2.90133C82.346 2.76933 82.1086 2.59866 81.8273 2.51199C81.3633 2.36799 80.4846 2.33866 80.0353 2.39466L76.062 2.88933C75.73 2.93066 75.4446 3.09066 75.066 3.04266C74.6753 2.99199 74.258 3.10399 73.87 2.99333C73.6686 2.93466 73.4633 3.01733 73.2873 2.98133C73.0647 2.93866 72.962 2.98266 72.7753 3.06666C72.4713 3.20266 72.0753 3.02666 71.7673 3.07733C71.314 3.15199 70.9513 3.02399 70.522 2.93599C69.75 2.77999 68.9967 2.66399 68.2353 2.54799L67.77 2.47599C67.2087 2.39066 65.7793 2.21466 65.3167 2.06933C65.1047 2.00399 64.9647 2.09733 64.77 2.07999L63.162 1.932C62.8927 1.908 62.578 1.86933 62.2967 2.07866C61.974 2.31599 61.1127 1.99333 59.218 3.41866C58.8047 3.72799 57.6247 4.82932 57.2687 5.21999C57.0807 5.42665 56.906 5.58799 56.706 5.77199C56.0007 6.41998 54.9607 7.63065 54.2154 7.94665L53.2007 8.37598C52.7914 8.54931 51.562 9.26531 51.278 9.50264L50.6154 10.056C50.4847 10.1653 49.9767 10.784 49.8554 10.956L49.3754 11.6346C49.1967 11.888 48.526 13.108 48.5914 13.052L48.3954 13.2213C49.214 12.5293 46.5994 15.0493 46.2167 15.4173L46.1994 15.4346C46.1967 15.4373 46.194 15.4386 46.1927 15.44L46.1901 15.4426C46.1887 15.4453 46.186 15.4466 46.1847 15.448C46.182 15.452 46.178 15.4533 46.1767 15.456C46.1754 15.4573 46.174 15.4573 46.174 15.4586C46.1727 15.4586 46.1714 15.46 46.1714 15.4613L45.8194 15.7986C45.3501 16.2506 45.0607 16.56 44.6234 17.064C44.4341 17.28 44.2954 17.4906 44.0474 17.6626L41.7927 19.2293C41.6621 19.3213 41.5687 19.436 41.4341 19.5253C40.9514 19.8466 40.6114 20.2959 40.1221 20.6666C39.7141 20.2799 39.3114 19.9226 38.8381 19.6559C38.5394 19.4866 38.3701 19.216 38.1287 19C37.5514 18.4853 37.0594 17.956 36.6541 17.2946C35.7807 15.8706 34.7127 15.2866 34.1794 14.3826C34.0568 14.1733 33.9621 13.956 33.8247 13.7573C32.9661 12.504 33.0808 11.156 31.6808 10.1853C31.5221 10.0733 31.1941 10.0586 31.1088 9.86264C30.9274 9.45331 30.6874 9.15198 30.3394 8.87064C29.9808 8.57998 29.7488 8.20665 29.4794 7.84531C28.9741 7.16665 28.6648 6.94132 28.4048 5.99865C28.2514 5.44265 27.9274 4.95332 27.7288 4.44132C27.5821 4.06666 27.5021 3.83599 27.1954 3.55332C26.8101 3.19733 26.4781 2.77733 26.0421 2.43733C25.8821 2.31333 25.6808 2.12533 25.5714 1.94799L24.5728 0.334666C24.3768 0.0173333 23.8581 0.0506665 23.5154 0C22.4701 0.333332 22.2608 1.54 21.9021 2.01599C21.7768 2.18133 21.6528 2.32666 21.5541 2.50666L21.2248 3.10399C21.1301 3.27866 20.9448 3.43199 20.8141 3.58266L20.3928 4.07199C20.0701 4.44532 19.7741 4.87865 19.5488 5.32265C19.2475 5.91598 18.4661 7.47465 18.2995 8.02531C18.2208 8.28398 17.4288 9.52531 17.2781 9.64664C17.0328 9.84531 16.9141 10.052 16.7381 10.3026C16.6301 10.4546 16.3155 10.46 16.2901 10.8093C16.0128 10.4946 15.7675 10.4053 15.4461 10.4026C15.1035 10.4 14.9061 10.5933 14.6728 10.824C13.6288 11.848 14.0008 12.256 13.6901 12.76C13.5501 12.988 11.9528 14.552 11.5088 15.3613C11.3475 15.656 11.4008 15.888 11.4341 16.164C11.5128 16.8026 11.1608 17.376 10.9728 17.944C10.8715 18.2493 10.7861 18.2986 10.5075 18.4226C9.21281 18.9986 8.36347 20.0159 7.54214 21.1399C7.37814 21.3653 7.26882 21.5826 7.08615 21.7986C7.01948 21.8773 6.48615 23.0479 6.07681 23.4533C5.53415 23.9919 5.10215 24.6386 4.75682 25.3226C4.63682 25.5586 4.41949 25.6119 4.25149 25.7879C3.11149 26.9879 3.10616 27.7666 2.03549 28.7653C1.84483 28.9439 1.7595 29.2279 1.60483 29.4426L0.250169 31.3173C0.13417 31.4773 -0.0711717 31.5973 0.0248281 31.8026C0.112828 31.9879 0.299501 32.0333 0.511501 31.9879C0.926167 31.8999 1.38883 31.8853 1.77416 31.7426C2.65149 31.4186 1.6075 32.0906 3.25549 31.4786C3.83149 31.2653 4.37682 31.0493 4.96082 30.8719C5.08215 30.8359 5.18616 30.8053 5.30616 30.7586C5.62349 30.6333 5.98082 30.6679 6.31148 30.5773C6.61948 30.4933 6.85415 30.1973 7.16348 30.1399C8.83281 29.8373 8.83014 29.3599 10.0195 29.0186C10.5368 28.8693 11.0555 28.7533 11.5728 28.6439C11.7235 28.6119 11.8555 28.6933 11.9795 28.6919C12.4275 28.6879 12.8395 28.4693 13.2688 28.3213C13.4941 28.2439 13.7808 28.1973 13.9515 28.0066C14.1568 27.7773 14.4301 27.6773 14.6528 27.4826C14.8048 27.3493 14.8368 27.1359 15.1075 27.0773C15.4701 26.9999 16.3355 26.9413 16.6661 27.2133C16.7568 27.4839 17.1168 27.5373 17.2648 27.6933C17.7955 28.2533 18.3928 28.6426 18.9715 29.1253C19.0808 29.2159 19.1075 29.4906 19.2955 29.5399C19.4221 29.5719 19.3835 29.9546 19.2941 30.0559C19.0555 30.3213 18.6248 30.2359 18.3648 29.9999C18.1315 29.7893 17.7355 29.9173 17.5048 29.7506L16.8208 29.2586C16.6248 29.1186 16.4008 29.0319 16.3941 28.7639L15.9421 28.5613C15.3381 28.2919 15.4635 28.1893 14.3395 28.9226L13.2008 29.6666C12.5768 30.0746 11.8141 29.7666 11.4408 29.8639C10.7048 30.0559 10.1115 30.5119 9.47948 30.8693C9.11814 31.0719 8.71281 31.0866 8.37148 31.2146C7.53281 31.5319 5.09282 31.3066 5.41015 32.3066C5.67548 32.3052 5.96215 32.0866 6.19549 32.1159C6.52349 32.1573 6.76749 32.0893 7.06482 32.0373C8.03015 31.8719 8.75548 31.7879 9.70614 31.6733C9.75814 31.7693 9.76881 31.9079 9.84748 31.9279C9.93281 31.9493 10.0021 31.9093 10.0968 31.8959C10.6088 31.8293 10.8968 32.0213 11.4435 31.8466C11.6501 31.7799 11.9435 31.8559 12.1595 31.7679C12.3568 31.6879 12.5061 31.7826 12.6995 31.7519L14.4768 31.4733C14.4688 31.4746 15.3488 31.7733 15.5301 31.7466C15.8635 31.6999 17.0128 31.7013 17.4141 31.6999C17.8235 31.6986 18.1781 31.6639 18.5955 31.7666C18.8728 31.8346 19.1808 31.8053 19.4728 31.8599C20.4021 32.0346 20.7434 31.9013 21.7088 31.9306L22.0261 31.9399C22.2714 31.9466 22.4381 31.9079 22.6954 31.8306C22.9594 31.7519 24.0194 31.9053 24.3168 31.9866C24.6874 32.0879 24.9914 32.2159 25.4008 32.1973C25.6368 32.1866 26.5621 32.1479 26.6941 32.1226L27.8861 31.8986C28.0728 31.8639 28.2608 31.9039 28.4634 31.8199C28.6634 31.7373 28.8728 31.7599 29.0741 31.7586C29.3168 31.7559 29.5514 31.6626 29.8101 31.6599L30.9994 31.6479C31.1741 31.6466 32.1114 31.9079 32.6368 31.6159C32.9861 32.1013 33.7407 32.0013 34.2954 31.9239C34.7727 31.8586 35.2154 31.8306 35.6981 31.8159C36.4661 31.7906 37.2794 31.6239 38.0447 31.6706C38.2154 31.6813 38.4421 31.9466 38.6647 31.7626C38.9301 31.5439 39.1047 31.8493 39.2994 31.8813C39.6341 31.9386 40.0434 31.8666 40.3861 31.8386C41.1501 31.7746 42.9381 31.9439 43.1354 31.8839C43.3927 31.8066 43.4794 31.7333 43.7461 31.8026C43.9247 31.8506 44.1154 31.8039 44.3141 31.8999C44.5274 32.0013 44.8461 31.9279 45.0767 31.9746C45.6487 32.0906 46.1767 32.0906 46.6754 31.7613C47.1327 31.7053 47.8807 31.8693 48.302 31.8159L49.0834 31.7173L50.8794 31.8293C50.9674 31.7706 51.09 31.6266 51.2407 31.6653C51.5994 31.7546 52.666 31.5493 53.01 31.5306L54.2247 31.4653L55.0687 31.5439C55.0927 31.5466 56.394 31.5306 56.6607 31.3639C56.9114 31.2079 57.1687 31.4293 57.4127 31.4399C57.758 31.4546 58.0287 31.6373 58.33 31.6853C58.5834 31.7266 58.8513 31.7106 59.1033 31.7799C59.2327 31.8159 59.406 31.7799 59.614 31.8586C60.0647 32.0293 61.2833 32.1826 61.8327 32.2106L62.9007 32.2639C64.2487 32.3319 64.9487 32.2959 66.294 31.9573C66.8793 31.8093 67.5153 31.7799 68.0673 31.7333C68.3153 31.7133 68.5753 31.6226 68.8087 31.6559C68.9167 31.6719 68.958 31.7013 69.0767 31.6559C69.2833 31.5786 69.5887 31.7706 69.786 31.6773C70.1353 31.5119 70.938 31.7279 71.2607 31.7986L72.026 31.9626C72.1913 31.9999 72.366 31.9746 72.502 32.0533C72.6593 32.0626 74.2086 32.1319 73.93 32.0759C74.67 32.1932 75.3366 32.0146 76.062 31.9159L76.4873 31.8573L77.7806 31.6773C78.1926 31.6213 78.5593 31.4626 78.9966 31.5466C79.194 31.5853 79.482 31.6519 79.6846 31.6426C80.0886 31.6253 81.178 31.7346 81.6473 31.7773L82.4273 31.8466C82.5726 31.8599 82.7793 31.9133 82.9206 31.9039C83.218 31.8826 83.498 31.8919 83.7886 31.8973C84.8273 31.9173 84.6593 32.0453 85.2873 32.0679C85.4353 32.0733 86.5339 32.0039 86.6966 32.0679C86.9179 32.1546 87.1126 32.1119 87.318 32.1306C88.2673 32.2159 88.3126 32.3093 89.3579 32.1879L91.0899 31.9853C91.3899 31.9506 91.6606 31.9013 91.9686 31.8226L92.4366 31.7013C92.5979 31.6599 94.5913 31.5493 95.3859 31.3333C95.6513 31.2599 97.6686 31.0879 97.9739 31.1346L99.9046 31.4306C100.078 31.4573 100.187 31.5346 100.351 31.5839C100.615 31.6626 101.714 31.7506 101.678 31.7599C101.979 31.6826 102.347 31.7786 102.666 31.7719C102.905 31.7666 103.031 31.7666 103.198 31.9373C103.881 32.0906 105.975 31.7679 106.51 31.9066C106.718 31.9599 106.961 31.8386 107.181 31.9786C107.035 31.8853 107.797 31.9119 107.734 31.9266C108.207 31.8173 108.678 31.8466 109.163 31.8853L109.854 31.9399C110.613 31.9999 111.199 32.0106 111.979 32.1079C112.139 32.1279 112.246 32.1933 112.426 32.1426C112.387 32.1653 113.283 32.1799 113.185 32.2199C113.334 32.1599 114.054 32.0999 114.217 32.1999C114.269 32.2319 114.305 32.1786 114.355 32.1773L114.785 32.1679C114.802 32.1666 116.217 31.6426 116.613 31.6719C116.702 31.6786 116.819 31.5613 116.833 31.4906C116.87 31.2879 116.51 31.1266 116.441 30.8826Z" fill="#243D13"/>
<path d="M57.4504 11.716C57.501 11.6413 57.497 11.4946 57.4357 11.4253C57.3757 11.552 57.349 11.584 57.3357 11.6346C57.321 11.7 57.4024 11.788 57.4504 11.716Z" fill="#243D13"/>
<path d="M85.8074 30.8639C85.9848 31.0106 86.1874 30.9426 86.2888 30.7866C86.0701 30.7119 85.9194 30.7599 85.8074 30.8639Z" fill="#243D13"/>
<path d="M80.8916 16.6227C80.8489 16.7227 80.9676 16.8494 80.9116 17.036C80.6742 17.064 80.3902 16.9427 80.2969 16.7054C80.1982 16.4507 80.0342 16.6067 79.7129 16.1294C79.5156 15.836 79.3089 15.496 79.1903 15.156C79.1729 15.0547 79.4049 14.8787 79.5063 14.8894C79.8036 14.9227 80.0409 15.1934 80.2409 15.396C80.4702 15.6307 81.5809 16.4627 80.8916 16.6227Z" fill="#243D13"/>
<path d="M79.8779 7.12124C79.8899 7.30124 79.5992 7.33991 79.4459 7.35857C79.1846 7.07724 78.9952 6.76924 78.9139 6.40524C78.5553 5.97858 78.4553 5.95458 78.3073 5.49058C78.2673 5.36791 78.0793 5.29591 78.1206 5.14925C78.1566 5.02258 78.2593 4.85458 78.4299 4.86258C78.5353 4.86791 78.5979 5.05058 78.6712 5.07591C78.8552 5.04658 79.0086 5.03858 79.1366 5.21458C79.5419 5.76658 79.8299 6.41591 79.8779 7.12124Z" fill="#243D13"/>
<path d="M76.8809 21.5426C76.3729 21.2119 75.9703 20.7213 75.9489 20.0866L76.6583 20.9639C76.8316 21.1786 76.9183 21.4386 77.1609 21.5999C77.0303 21.7239 76.9703 21.6013 76.8809 21.5426ZM74.6476 19.6773C74.2423 19.7093 73.8503 19.4119 73.5809 19.1399C73.3503 18.9066 73.0503 18.7893 73.1583 18.6279C73.3729 18.3039 73.7916 18.9079 74.2943 19.1453C74.4836 19.2333 74.7276 19.4106 74.6476 19.6773ZM72.953 17.6613C72.613 17.4426 72.3956 17.1746 72.0796 17.0013C71.881 16.8919 71.769 16.7119 71.5543 16.5733C71.5196 16.5506 71.5876 16.4879 71.6236 16.4706C71.773 16.3986 72.501 17.1599 72.6476 17.2759C72.773 17.3759 73.0716 17.3719 72.953 17.6613ZM72.4303 18.3933C72.2156 18.2119 72.001 18.0226 71.8583 17.7866C72.0476 17.7679 72.737 18.3573 72.4303 18.3933ZM84.3836 26.7239C84.2889 26.6346 84.2183 26.4959 84.0903 26.4732C83.4329 26.3599 82.8769 26.0879 82.3276 25.7026C81.5823 25.1826 81.1329 24.5133 80.4276 24.2346C80.2196 23.7493 79.1116 22.8919 78.9583 22.6666C78.7983 22.4306 77.9356 21.1346 77.8756 21.0226L77.6023 20.5093C77.4876 20.2946 77.4289 20.0093 77.2223 19.8359C76.4769 19.2173 75.7116 18.6493 75.0009 17.9759C74.9209 17.8999 74.7276 17.8919 74.6316 17.8906C74.4436 17.8839 74.3743 17.7359 74.2529 17.6226C73.8263 17.2266 73.4863 16.7919 73.1529 16.3159C72.3476 15.1693 71.3316 14.2813 70.1623 13.5266C70.001 13.4226 69.8983 13.2133 69.7476 13.1039C69.2503 12.7426 69.045 12.2199 68.817 11.676C68.5823 11.1186 67.6716 9.63329 67.293 9.11996C67.1996 8.99329 66.9903 8.89596 66.8636 8.75996C66.7503 8.63596 66.4223 8.67463 66.277 8.64929C66.1263 9.24662 66.385 8.80796 66.725 9.57329C67.0276 10.2506 67.4663 10.8693 67.6556 11.5933C67.873 12.4199 68.029 13.2386 68.521 13.9319L69.7343 15.6399C70.1316 16.1999 70.921 18.8359 71.677 19.3546C71.6916 19.8546 72.3583 19.6813 72.685 20.0279C72.8756 20.2293 73.1196 20.2933 73.3889 20.1613L74.7423 21.1039C74.9809 21.2693 75.1623 21.3559 75.4489 21.2066C75.5956 21.1306 75.7569 21.3253 75.7969 21.4586C75.8676 21.6946 76.1089 21.7173 76.2743 21.8466L78.0489 23.2426C78.4503 24.1026 79.1396 24.6853 79.8956 25.2146C80.1236 25.3746 80.3329 25.5239 80.6049 25.6293C80.8156 25.7093 80.9556 25.9506 81.1703 26.0266L82.5663 26.5186L83.1943 26.7852C83.7036 27.0012 84.6449 26.9706 84.3836 26.7239Z" fill="#243D13"/>
<path d="M55.5221 9.99866C55.5301 10.364 55.3648 10.676 55.2675 10.9973C55.1301 11.4573 54.8621 11.7813 54.5755 12.1467C54.3141 12.48 54.0715 12.752 53.6955 12.9667C53.2515 13.2173 53.1368 13.7413 52.9768 14.1866C52.6888 14.9853 52.0261 15.516 51.4621 16.108C51.2821 16.644 51.0315 17.0093 50.6648 17.4493C50.3261 17.8533 50.0275 18.284 49.4715 18.4173C48.4901 18.6533 49.8755 17.0866 50.0101 16.9346C50.1968 16.7253 50.1568 16.4853 50.2581 16.2546C50.4088 15.9133 50.8101 15.668 50.8981 15.296C51.2208 13.9253 51.9115 13.28 51.9341 13.236C52.1408 12.8213 52.3168 12.4867 52.6808 12.1893C53.0888 11.8547 53.5995 11.604 53.9568 11.2C54.2888 10.8253 54.9741 9.48799 55.5221 9.99866Z" fill="#243D13"/>
<path d="M59.2276 18.66C59.2263 18.564 59.2956 18.5 59.3276 18.4173C59.3943 18.528 59.3836 18.6333 59.2276 18.66ZM60.9063 17.2346C60.697 16.4626 61.0556 15.8266 60.681 15.1C60.6383 15.016 60.741 14.8786 60.637 14.828C60.5596 14.792 60.453 14.6613 60.357 14.7346C60.0303 14.9906 59.9796 15.3813 59.8543 15.7373C59.5956 16.4693 59.2823 17.1853 58.7703 17.7693C58.605 17.9573 58.4423 18.04 58.3703 18.316C58.197 18.9719 57.9476 19.6559 57.9756 20.3546C57.9956 20.8599 57.9823 21.3186 57.677 21.7546C57.473 22.0439 57.3956 22.4439 57.1636 22.7213C57.0463 22.8613 56.9676 22.9066 56.9556 23.1093C56.9383 23.4226 56.7503 23.6959 56.789 24.0693C57.0756 24.0293 57.4543 23.9559 57.681 23.7293C58.1623 23.2493 58.6156 22.8239 59.045 22.3333C59.4263 21.8973 59.9143 21.0159 60.0716 20.4573C60.245 19.8426 60.8796 19.1573 61.0823 17.9146C61.125 17.6533 60.9636 17.4453 60.9063 17.2346Z" fill="#243D13"/>
<path d="M63.1289 5.04257C62.8183 5.3719 62.6716 5.7599 62.4529 6.13856C62.0956 6.75856 61.1116 8.43322 61.0703 9.14389C61.0703 9.14389 60.8716 10.0132 60.4756 9.81589C60.2423 9.69989 60.2569 9.54922 60.2943 9.31722C60.3463 8.99322 60.3756 8.68922 60.4823 8.38389C60.7516 7.62256 61.0489 6.90656 61.3823 6.17056C61.4583 6.00256 61.4343 5.80656 61.5516 5.62656C61.8636 5.15323 62.1716 4.66523 62.6156 4.29457C62.5916 4.32123 63.2103 4.02123 63.2996 4.28523C63.3863 4.53857 63.3103 4.85057 63.1289 5.04257Z" fill="#243D13"/>
</svg>
