<svg width="78" height="82" viewBox="0 0 78 82" fill="none" xmlns="http://www.w3.org/2000/svg">
<path d="M49.9799 73.3132C50.8639 73.1078 51.0812 72.3212 52.0812 71.3012C52.1372 71.2452 52.1745 71.0705 52.1545 71.0172C52.0892 70.8452 51.6705 71.1252 51.7945 71.0998C51.0385 71.2505 50.3572 71.5212 49.6905 71.9012C48.8625 72.3745 47.9919 72.7118 47.1932 73.2278C46.6492 73.5785 45.5852 73.6958 45.0799 74.4985C46.9399 74.0225 48.2025 73.7252 49.9799 73.3132ZM42.3586 69.6705C43.2052 70.2278 43.2226 70.1465 44.0852 70.5918C44.3332 70.7198 44.5879 70.3278 44.8079 70.2638C46.0186 69.9132 47.1639 69.5718 48.3132 69.0318L48.9545 67.2678C48.5865 67.3358 48.2826 67.5012 47.9479 67.6318L46.3239 68.2598C45.7879 68.4678 44.0506 69.1038 43.5532 69.1918C43.1346 69.2652 42.7226 69.3452 42.3586 69.6705ZM26.5453 71.4732C26.9666 71.6385 27.4333 71.6545 27.7426 71.3438C28.2719 70.8118 28.3026 70.1105 28.4799 69.4318C28.7706 68.3185 29.1706 66.6705 27.9813 65.8985C27.8159 66.2012 27.5333 66.2692 27.3479 66.4838C27.1253 66.7398 26.9653 67.0572 26.6653 67.2452C26.2279 67.5212 26.0733 67.9452 26.0506 68.4518C26.0146 69.2345 25.4813 71.0572 26.5453 71.4732ZM46.6146 65.2505C46.3732 64.8638 45.8786 65.1812 45.7159 64.8798C45.8652 65.1572 44.2039 64.9985 44.2159 65.0065L43.9626 64.8692C43.9092 64.8412 43.8132 65.0105 43.7106 65.0092C42.7346 64.9972 41.6666 64.6852 40.6372 64.8318C41.2732 65.4492 41.8079 66.0785 42.5079 66.5505C42.8332 66.7705 43.2746 66.3238 43.5226 66.2158C44.1986 66.3718 44.8719 65.8732 45.0466 65.8212C45.3359 65.7345 45.6012 65.8572 45.8679 65.5358C46.0226 65.3505 46.4546 65.5198 46.6146 65.2505ZM20.0306 66.5825C20.4533 66.4718 20.9506 66.6052 21.3453 66.4278C21.7359 66.2532 21.8306 65.7572 22.0026 65.3972C22.1573 65.0705 22.4053 64.7985 22.3106 64.4278C22.0546 64.3638 21.8706 64.5972 21.6653 64.6305C21.2973 64.6878 21.0639 64.8732 20.7573 65.0532L20.0013 65.4932C19.712 65.6625 19.4613 65.8092 19.1813 65.9945C18.8333 66.2238 18.3493 66.2785 18.1053 66.6785C18.568 66.7798 19.5026 66.7212 20.0306 66.5825ZM61.9118 65.0185C62.0732 65.1452 62.1185 65.2212 62.3012 65.1998C62.2025 64.8425 62.2532 64.5212 62.5025 64.2478C62.6292 64.1105 62.4492 63.9118 62.4492 63.7852C62.4545 62.9092 62.0665 62.1065 61.2345 61.7358C60.2999 61.6932 59.3812 62.1998 59.0612 63.1612C58.9692 63.4785 59.1065 64.0345 59.1865 64.3372C59.4385 65.2958 60.2225 65.6532 61.1118 65.4825C61.4345 65.4198 61.7572 65.4905 61.9118 65.0185ZM71.4625 57.1825C71.6345 57.1159 71.8292 57.0679 71.8705 56.8839C71.8878 56.8025 71.2345 55.3559 70.3265 55.3799C69.8812 55.3919 69.4172 56.0625 69.4905 56.4212C69.6345 57.1225 70.3638 57.1412 70.3238 57.5812C70.3132 57.7052 70.1825 57.8279 70.2145 58.0799C70.9638 57.7439 71.1265 57.3119 71.4625 57.1825ZM57.2985 61.2398C57.4999 61.0052 57.5159 60.7612 57.7625 60.6092C57.9399 60.4999 57.9812 60.2599 57.9892 60.1172C57.9999 59.9492 57.2985 59.3732 57.2185 59.1985C57.0825 58.9065 56.9252 58.7852 56.6785 58.5879C56.3212 58.3039 56.0185 57.9119 55.6159 57.6599C55.2692 57.4439 55.1079 57.0785 54.8265 56.8332L53.0012 55.2479C52.7785 55.0532 52.0372 55.1892 51.9132 55.4465C51.7545 56.0319 52.2105 56.7279 52.4572 57.2079C52.6039 57.4919 52.6519 57.7225 52.8452 57.9852C53.0585 58.2772 53.2825 58.4745 53.5092 58.7532L54.3265 59.7599C54.4799 59.9505 54.3625 60.2745 54.6239 60.2932C54.8079 60.3065 54.8292 60.9572 55.4732 61.4425C55.9745 61.8198 56.8692 61.7385 57.2985 61.2398ZM67.3372 55.1172C67.3812 55.0572 67.4518 54.9972 67.5532 54.9519C67.5892 54.9305 67.5012 54.8292 67.4545 54.8305C67.4132 54.8319 67.3252 54.9679 67.2825 54.9572C66.9905 54.8879 66.8092 54.6039 66.6745 54.3652C66.5465 54.5479 66.4838 54.5559 66.5105 54.3505C66.5652 54.2239 66.6838 54.0799 66.6265 54.0359L66.3998 53.8572C65.8892 53.4572 64.7185 52.8439 64.0585 52.8879C63.4505 52.9279 62.3838 53.5892 62.8265 54.1905C63.1558 54.6385 63.7825 54.6799 64.2478 54.8825C64.8132 55.1292 65.2718 55.5452 65.8038 55.8172C66.0198 55.9279 67.6652 56.5225 67.5598 55.8199C67.5518 55.7652 67.4052 55.7292 67.3718 55.6705C67.6052 56.0785 67.2772 55.1999 67.3372 55.1172ZM16.6533 54.6279C16.464 54.2465 16.18 53.9972 15.9346 53.6785C15.7426 53.4305 15.7386 53.0439 15.4213 52.8652C15.3066 52.7999 15.1613 53.1039 15.2133 53.2505C15.352 53.6399 15.2333 53.9719 15.172 54.3412C15.092 54.8212 15.1413 55.2932 15.108 55.7625C15.6973 55.6839 15.7733 54.9759 16.6533 54.6279ZM71.7105 52.4812C71.6758 52.3705 71.7398 52.2692 71.6532 52.2559C71.5798 52.2439 71.4598 52.1945 71.3892 52.2972C71.2558 52.4865 71.3412 52.8172 71.5105 52.9905C71.6465 53.1279 71.9625 53.2812 72.1825 53.1452C72.1172 52.8119 71.7918 52.7412 71.7105 52.4812ZM11.012 53.5012C11.2226 53.3825 13.3253 52.4185 13.0653 52.2412C12.608 51.9759 12.496 51.5625 12.5746 51.0985C12.58 50.9572 12.448 50.7945 12.372 50.5932L11.216 51.9892C10.5453 52.7972 9.90664 53.5892 9.21865 54.4625C9.25465 54.6972 10.8706 53.5799 11.012 53.5012ZM69.6345 52.2625C69.7132 51.8479 69.4958 51.4399 69.5038 51.0679C69.3718 51.0719 69.2438 51.0959 69.2012 51.0132C69.3638 50.7225 69.2158 50.5012 69.0025 50.3585C69.0518 49.6985 68.8118 50.1492 68.4038 49.4279C68.3185 49.4439 68.2518 49.5652 68.2025 49.5465C68.1225 49.5159 68.1238 49.3572 68.1158 49.3052C68.0812 49.0865 67.7505 49.1772 67.6465 49.0959C67.1252 48.6852 66.0318 48.3679 65.4398 48.6372C65.2505 48.7239 64.6918 48.7172 64.7558 49.0025C65.0625 50.3692 65.3172 49.9492 66.1878 51.2159C66.3798 51.4945 66.8225 51.4732 67.0905 51.5959C68.1638 52.0865 68.3505 51.9079 68.4065 52.4292C68.5958 52.3252 68.5052 52.0892 68.6412 52.1252C68.8585 52.1825 69.5452 52.7359 69.6345 52.2625ZM51.0319 38.9306C50.7852 38.7292 50.5292 38.8599 50.2732 38.8386C50.2785 38.6479 50.3492 38.4879 50.3012 38.3946C50.2319 38.2612 50.0065 38.3279 49.8959 38.2506C49.5999 38.0426 49.5505 37.6506 49.3852 37.3639C49.2919 37.2012 48.9879 37.3599 48.8679 37.2812C48.2745 36.8839 46.7079 36.5012 46.3292 36.6852C46.2172 36.7386 45.9132 36.4799 45.8639 36.7092C45.7532 37.2239 45.9479 37.8026 46.3012 38.1372C46.7079 38.5199 47.0959 38.8892 47.6546 39.0959C48.0612 39.2452 48.3185 39.5866 48.7305 39.7159L49.6865 40.0172C49.7892 39.9332 49.6772 39.7666 49.8039 39.7092C49.6505 39.7786 50.4905 39.4706 50.3892 39.4666C50.4665 39.4706 50.5452 39.5759 50.6772 39.5626C50.8452 39.5466 50.6519 39.3106 50.6879 39.2452C50.7772 39.1692 50.9052 39.2506 50.9439 39.2026C51.0092 39.1186 51.1359 39.0159 51.0319 38.9306ZM56.1292 39.0986C56.1492 38.9199 56.1212 38.8466 56.1519 38.8026C56.1972 38.7372 56.2652 38.7066 56.2999 38.7679C56.3292 38.8186 56.3932 38.9092 56.4559 38.9719C56.6292 38.8572 56.7665 38.6306 56.9772 38.5292C57.3092 39.1679 57.1585 38.1172 57.3932 38.1066C57.4385 38.0879 57.5225 38.2906 57.5772 38.2892C57.6372 38.2879 57.6465 38.1732 57.6252 38.1492C57.6039 38.1252 57.5425 38.0412 57.5345 37.9772C57.7105 37.8572 57.9612 37.8532 58.0985 37.6572C58.2399 37.4559 58.1839 37.3319 58.1625 37.1532C58.1332 36.9172 57.8265 37.0306 57.7465 36.9332C57.2585 36.3399 56.4345 36.2946 55.7865 36.6506C55.7279 36.5986 55.5305 36.4599 55.5039 36.5146L55.4252 36.6826C54.6039 37.3266 54.8399 36.5292 53.4119 37.7066C53.7145 38.1452 53.8959 38.9186 53.9905 39.0732C54.0199 39.1212 54.1105 39.0026 54.1452 39.0052L55.2012 39.0879C55.5399 39.1146 55.8199 38.9746 56.1292 39.0986ZM28.7186 43.8732C28.6759 43.7626 28.6666 43.6412 28.6226 43.5026C28.5959 43.4199 28.4853 43.4092 28.4599 43.3746C28.4253 43.3279 28.4733 43.2332 28.5599 43.1372C27.6826 42.5012 26.7959 41.8839 25.7799 41.4066C25.6599 41.3506 25.7506 41.1439 25.8119 41.0399C25.4466 41.0959 25.3079 40.7786 25.0586 40.6052C24.7586 40.3959 24.4866 40.2532 24.2399 39.9986C24.1026 39.8572 23.8773 39.6786 23.6399 39.6639C23.6173 39.5892 23.6866 39.5266 23.6626 39.4666C23.6253 39.3692 23.4133 39.3346 23.3959 39.2626C23.2373 38.6426 22.6879 38.9092 23.1466 38.5252C22.4786 38.4012 22.0439 37.7852 21.6959 37.2066C21.5519 36.9679 21.1813 36.8252 21.1613 36.5186C21.1506 36.3586 21.2106 36.1919 21.0879 36.1506L20.7453 36.0359C20.7746 35.9546 20.9359 35.8399 20.8093 35.7479C20.7226 35.6852 20.5533 35.7279 20.4786 35.6852C20.2586 35.5266 20.272 35.2212 20.0666 34.9452C19.584 35.3212 20.208 35.8799 20.168 35.8079C20.46 36.3332 20.6466 36.9212 21.0066 37.4052C21.1346 37.5759 21.5773 38.7332 21.7933 38.9426C22.4213 39.5452 22.9479 40.2319 23.2346 41.0519C23.3933 41.0372 23.5986 41.0439 23.6039 41.1199L23.6266 41.4239C23.6359 41.5492 23.9493 41.6572 24.0653 41.7812C24.5613 42.3106 25.1213 42.6692 25.7626 43.0412C25.8213 43.0746 27.1973 44.1786 27.3253 44.3186C27.4506 44.4532 27.3426 44.7506 27.7013 44.8519C28.5373 45.0879 28.4439 45.6852 29.3479 46.2159C29.4653 45.8199 29.3893 45.5412 29.4359 45.1932C29.4466 45.1146 29.2546 45.0132 29.3039 44.9146C29.3266 44.8679 29.4359 44.7812 29.4319 44.7106C29.3773 43.8026 28.7839 44.0452 28.7186 43.8732ZM70.0585 40.3986C70.1332 40.6799 70.1478 40.8212 70.0372 41.0746C70.1692 41.1852 70.2958 41.3466 70.3452 41.5146C70.3932 41.6746 70.3012 41.6999 70.2038 41.9026C70.3905 41.9559 70.4865 41.8679 70.6452 41.9626C69.9692 42.4732 71.0292 42.7506 70.7065 43.3812C70.5865 43.6159 70.8105 43.6999 70.8358 43.8372C70.9118 44.2586 71.1385 44.5972 71.2865 45.0106C71.3878 45.2892 71.3985 45.5479 71.5492 45.8266C71.6065 45.9319 71.6398 46.8505 72.1572 47.2919C72.2105 47.3372 72.9385 47.6932 72.8412 48.2679L73.1852 47.6505C73.1852 47.2705 72.8518 46.9145 72.9118 46.5026C72.9892 45.9666 72.3678 45.1759 72.8052 45.0959C72.5012 44.6452 72.4785 44.0812 72.4585 43.5239C72.4585 43.5372 72.1572 40.4092 72.2038 40.6479L71.8972 39.0812C71.7558 38.3586 71.4198 37.3439 70.9652 36.8319L70.3265 36.1132C70.4638 36.2679 68.8185 35.0346 68.8292 35.1626C68.8238 35.0906 68.7758 35.0506 68.7372 34.8946C68.4958 35.1306 68.3212 34.9172 68.0798 34.8079C67.6572 34.6199 67.2065 34.6412 66.7718 34.4826C65.3092 33.9519 65.2865 34.5772 64.2612 34.4306C64.1238 34.6839 63.8012 34.6959 63.5998 34.8106C63.1092 35.0879 62.8065 35.6039 62.4958 36.0199C62.4385 36.0972 62.3265 36.1452 62.2838 36.1866C62.2505 36.2199 62.0932 36.0252 62.0492 36.0466C61.2265 36.6386 61.1639 37.6692 61.2732 38.5839C61.3199 38.9852 61.2612 39.3119 61.6505 39.6092C61.7892 39.7172 61.8212 40.1252 61.9238 40.3146C62.1225 40.6772 62.6758 40.6759 63.0612 40.7932C63.2518 40.8519 63.2185 41.1772 63.3598 41.2066C63.4865 41.2332 63.6198 41.0786 63.7212 41.1092C63.7998 41.1319 63.9518 41.1946 63.9932 41.2999C64.0865 41.5386 64.3385 41.3919 64.4292 41.4452C64.9585 41.7572 65.3358 41.6012 65.8292 41.4079C66.3078 41.2199 66.9078 40.8519 66.9172 40.2172C66.9212 39.8892 66.2718 39.6506 66.0198 39.8079C65.7358 39.9839 65.4438 39.8866 65.2425 40.0586C65.2358 40.2559 65.1505 40.2799 65.0758 40.2639L64.7252 40.1906C64.0718 40.0546 63.6278 39.9439 63.2825 39.3852C63.0012 38.9306 62.7065 38.2506 62.9798 37.6799C64.2478 36.3906 65.0598 36.6372 66.7798 36.6372C66.8532 36.8279 66.8838 36.9039 66.9518 36.9826C67.0172 36.8519 67.0745 36.8066 67.1318 36.8039C66.8585 36.8186 67.9678 36.9706 68.0292 37.3519C68.1945 37.4079 68.5612 37.3266 68.6292 37.6066C68.6105 37.7572 68.4652 37.5679 68.3065 37.6106C68.5012 37.8332 68.7452 37.9946 69.0305 37.9266C68.9918 38.1506 68.9545 38.2826 69.0292 38.3346C69.1518 38.4199 69.2772 38.3772 69.4385 38.3506C69.4545 38.4506 69.3425 38.4506 69.2172 38.5426C69.5412 38.7092 69.6945 39.0479 69.7665 39.3159L70.0585 40.3986ZM22.9506 35.0612C23.0493 35.1359 22.9013 35.3932 23.0893 35.4039C23.5973 35.4319 22.8466 35.1426 24.0613 35.1666C24.5106 35.1746 24.8226 35.6946 25.2386 35.7532C26.0999 35.8746 26.9826 35.7839 27.8373 35.6199C28.0759 35.5732 28.2026 35.2186 28.4106 35.1612C28.9759 35.0039 29.1039 34.5066 29.1853 33.9906C29.2133 33.8132 29.5746 33.5706 29.4226 33.3706C29.3426 33.2666 29.3213 33.2079 29.4053 32.9759C28.8759 32.9346 27.9906 33.7599 27.6133 33.3946C27.5293 33.4626 27.4293 33.6066 27.3346 33.6132C27.2733 33.6186 27.1453 33.4666 27.0799 33.5039C26.7159 33.7132 25.1306 33.6159 25.2506 33.5826L24.8346 33.6946C24.5626 33.7679 24.2279 33.5666 23.9306 33.6813C23.8986 33.5906 23.9133 33.5359 23.8519 33.4572C23.3146 33.8132 22.8679 33.3399 22.5066 33.6586C22.6199 33.5599 22.0946 34.4119 22.9506 35.0612ZM29.0933 31.9906C28.8279 31.8919 28.6439 31.6719 28.2746 31.6146C28.2119 31.9173 28.4919 32.0679 28.6866 32.2159L29.0933 31.9906ZM71.2038 31.9439C71.0892 31.3879 70.8452 31.0053 70.3625 30.8039C70.3172 30.7866 70.3265 30.5799 70.2718 30.5879C70.2332 30.5933 70.1705 30.7159 70.0958 30.7039C69.9705 30.6826 69.9372 30.4853 69.8465 30.4546C69.5625 30.3573 69.6318 30.7693 69.0105 30.0159L68.8732 30.4293C69.3638 30.1773 67.7892 30.1573 68.0052 30.2093C67.8678 30.1066 67.8185 29.9719 67.6212 29.9266C67.5052 30.1639 67.3665 30.1693 67.0798 30.1666L67.9518 31.6199C68.0278 31.7479 68.2585 31.9839 68.3745 32.0679L69.2345 32.6893C69.1918 32.6586 71.1225 33.5012 71.2025 33.4012C71.8318 33.1279 71.1812 31.8319 71.2038 31.9439ZM18.7613 28.5773C18.5693 28.2906 18.3813 28.0346 18.2946 27.7226C18.2613 27.6053 18.4346 27.4573 18.28 27.3759C18.168 27.3173 18.112 27.1306 17.9733 27.2613C18.1546 27.4346 17.9493 27.6026 17.976 27.6839L18.184 28.3399C18.2466 28.5373 18.5853 28.5626 18.7613 28.5773ZM36.6546 20.4626C36.8519 20.3493 37.0212 20.3439 37.0559 20.224C37.1039 20.0586 37.0719 19.7933 37.0146 19.6573C36.9466 19.4973 36.7719 19.6146 36.7079 19.6746C36.4719 19.8973 36.7772 20.1266 36.6546 20.4626ZM3.50932 17.5773C3.56132 17.4333 3.43333 17.308 3.38799 17.2293C3.09466 17.4133 2.65333 16.568 2.68 17.0666C2.67066 16.8866 2.92399 17.484 3.12666 17.6133C3.21466 17.668 3.47066 17.6853 3.50932 17.5773ZM12.5986 15.9733C12.7746 15.992 12.668 15.74 12.604 15.704C12.4453 15.6173 11.548 15.528 11.3853 15.848L12.5986 15.9733ZM36.3332 15.0133C36.6586 15.0053 36.9652 15.1026 37.1772 14.7866C36.5119 14.756 36.0372 14.5746 35.4452 14.8466C35.7039 15.0773 36.0052 15.0213 36.3332 15.0133ZM26.8599 18.4293C26.1066 18.5866 25.3773 18.8093 25.1119 19.5866C25.0253 19.5826 24.9626 19.4906 24.9346 19.5266C25.0719 19.3506 24.3639 20.6946 24.4466 20.4279C24.3039 20.8866 24.3493 21.6093 24.5879 21.9786C24.7426 22.2199 24.9039 22.2066 24.8159 22.5533C24.7373 22.8613 25.1733 23.1133 25.3226 23.3226C25.2866 23.4026 25.1719 23.4599 25.1813 23.5159C25.1919 23.5826 25.2679 23.6253 25.3079 23.6493C25.3479 23.6733 25.5013 23.5453 25.5426 23.5799C25.8239 23.8239 25.9786 24.1946 26.3373 24.2653C27.0293 24.3999 27.7573 24.2626 28.0773 23.5719C26.8039 22.9933 27.1013 22.9186 26.8039 21.5693C26.7506 21.3306 26.9986 21.1879 27.1093 21.0479C27.2626 20.8533 27.3493 20.5199 27.6466 20.5346C27.7399 20.5386 27.8253 20.6573 27.9053 20.6119C27.9906 20.5626 28.0319 20.4333 28.1199 20.3933C28.1786 20.3666 28.2613 20.5399 28.3293 20.5213C28.4079 20.4986 28.4773 20.4439 28.5453 20.4079C28.9159 20.2093 29.1773 20.5239 29.4919 20.6279C29.8053 20.7306 30.0786 20.8079 30.1453 21.2026C30.3399 21.2573 30.5173 21.2746 30.6693 21.3786L31.0466 22.9999C31.0826 23.1573 31.1173 23.4853 31.0693 23.6506L30.9039 24.2213L30.5559 25.1706C30.5066 25.3066 30.3039 25.4653 30.3466 25.6479C30.0959 25.5346 29.5626 26.0133 29.1826 26.1173C28.8146 26.0813 28.4733 26.2106 28.1346 26.3453C27.5279 26.5866 26.8759 26.1693 26.2959 26.1239C25.8759 26.0919 25.6533 25.9053 25.3653 25.6986C25.2106 25.5879 24.9106 25.5946 24.6799 25.3599C23.9653 24.6279 23.2039 23.9999 22.2946 23.4839C22.0079 23.3226 21.6399 23.0399 21.3853 22.9773C21.0066 22.8839 20.8186 22.6866 20.5253 22.4346C20.2146 22.1693 19.6786 22.1546 19.2906 21.9933C18.6493 21.7253 17.4813 21.1826 16.9546 20.7893C16.6106 20.5333 16.304 20.4879 15.9493 20.3213C15.3333 20.0306 14.78 19.404 14.0106 19.2466C11.7053 18.7733 12.6866 17.956 10.712 17.3666C10.3893 17.2706 7.86265 16.1853 7.71731 16.096C7.13865 15.744 5.97332 15.0826 5.35865 14.9866C4.85066 14.9066 4.37066 14.552 3.80933 14.68C3.60533 14.7266 3.42533 15.26 3.56799 15.408C4.51999 16.392 4.60132 15.7 4.72666 16.1853C4.71066 16.1266 5.77198 16.9066 5.74265 16.8773L6.09599 17.2253C6.26132 17.1186 6.41865 17.0466 6.57598 17.0346C6.77198 17.02 6.85331 17.16 7.03065 17.2466L8.33065 17.8866C8.96798 18.2013 9.68131 18.196 10.364 18.4946C10.7893 18.68 11.1093 19.1106 11.5453 19.356C11.5546 19.3626 14.0426 20.4519 14.2186 20.5239C14.5133 20.6439 14.788 20.7026 14.78 21.1826C14.912 21.0573 14.9733 20.9413 15.108 20.9666C15.1973 20.9826 15.3093 21.0279 15.4106 21.1039L16.1866 21.6866C16.456 21.8893 16.7266 21.9986 17.0306 22.2173L17.8586 22.8106C18.1253 23.0013 18.4346 22.8946 18.6186 23.0306C18.9413 23.2719 19.4186 23.4973 19.5813 23.7533C19.7786 24.0653 20.1173 24.2573 20.5386 24.3626C20.724 24.4093 20.8213 24.6359 20.9959 24.7239C22.4266 25.4439 21.3693 25.3213 22.4759 25.8386C22.6493 25.9213 22.6773 26.0653 22.8973 25.9893C23.0759 25.9279 23.2853 26.3399 23.4599 26.3746C23.7626 26.4333 24.0333 26.5319 24.2439 26.7413C24.7773 26.4199 24.4879 27.0013 25.4359 27.3493C25.6933 27.4439 26.0333 27.5679 26.2999 27.6933C26.6933 27.8759 26.9693 27.8013 27.3693 27.8573C28.1319 27.9626 28.8599 28.0159 29.5359 27.5346C29.6813 27.4319 31.0506 26.8786 31.4053 26.0879C31.5679 25.7253 32.0533 25.5146 32.1226 25.1333C32.1946 24.7426 32.4439 24.3199 32.4373 23.9359L32.4026 22.0506C32.3999 21.9106 32.2306 21.7119 32.2973 21.5533C31.9559 21.4199 31.9546 21.0319 31.8533 20.7026C31.8266 20.6173 31.5506 20.6093 31.5533 20.4479C31.5546 20.3826 31.6866 20.3653 31.7333 20.2026C30.6293 19.8773 31.6399 19.9693 30.7639 19.468C30.2266 19.1613 29.6986 18.9186 29.1439 18.668C28.7986 18.5106 28.4439 18.1226 28.0266 18.4666C28.0479 18.3466 28.0639 18.288 27.9893 18.224C27.9093 18.1533 27.7706 18.3853 27.7146 18.3493C27.4639 18.192 27.1359 18.3706 26.8599 18.4293ZM50.5079 34.0879L51.1092 33.9479C51.4159 33.8759 51.8959 34.0386 52.2265 33.9212C52.2665 33.9652 52.2959 34.1146 52.3292 34.1439C52.3599 34.1719 52.4279 33.9626 52.4745 33.9839C52.8972 34.1746 53.9572 33.9159 53.8812 33.9133C55.7332 33.9693 55.0332 33.8373 55.5972 33.7653C55.8572 33.7319 55.9972 33.8092 56.2572 33.6986L57.8025 33.0412C58.2545 32.8492 58.7879 32.8173 59.1785 32.4839C59.3105 32.3693 59.4652 32.4199 59.5839 32.4146C59.6652 32.1733 60.0119 31.6426 60.3479 31.7666C60.3239 31.6426 60.3185 31.5719 60.3559 31.5159C60.1585 31.8226 62.0038 30.4639 62.2118 30.1879C62.8078 29.3933 63.8225 27.5226 63.8745 26.7173C63.9265 25.9199 64.0825 25.9239 64.0892 25.8133C64.1078 25.4586 64.3532 25.2359 64.5012 24.9039C64.5825 24.7226 64.6198 24.4426 64.6865 24.2599C65.0478 23.2706 64.9118 22.2666 64.9012 21.2613C64.8972 20.8693 64.9918 20.5733 64.8798 20.1999C64.8052 19.9506 64.4678 18.1933 64.3025 17.9173C64.0185 17.4426 63.7745 17.0333 63.5412 16.544L63.0292 15.4706C62.4785 14.3213 61.8398 13.652 60.7798 12.9426C59.1945 11.8813 57.6745 11.332 55.8785 10.7826C55.0225 10.52 53.5785 10.448 52.6625 10.484L50.0732 10.584C49.3425 10.612 46.9825 11.4746 46.2332 12.068L44.7639 13.232C44.6146 13.3506 44.5919 13.432 44.3932 13.4853C44.1906 13.5386 44.1186 13.9906 43.9212 14.0626C43.3599 14.2706 43.0692 14.6773 42.7612 15.168C42.6172 15.3973 42.4239 15.428 42.3759 15.7386C42.3239 16.064 41.8172 16.3506 41.6999 16.7213C41.6186 16.9813 41.7466 17.2826 41.5839 17.5066C41.3866 17.78 41.3652 18.048 41.6426 18.3586C41.4692 18.3853 41.3946 18.4626 41.3146 18.5013C41.2932 18.512 40.9132 19.744 40.9932 19.6293C40.3866 20.5066 40.6359 21.2066 40.6266 21.3479L40.5959 21.8279C40.5799 22.0853 40.5812 22.4479 40.6839 22.6973C40.7106 22.7639 40.4852 22.9013 40.5452 22.9959C40.5746 23.0426 40.7132 23.0826 40.7146 23.1546C40.7159 23.4613 40.5999 23.7946 40.7812 24.0813C40.8812 24.2359 40.7532 24.3586 40.7039 24.4266C40.8679 24.4946 40.9999 24.5373 41.0666 24.6719C41.1332 24.8026 40.9839 24.9159 40.9626 25.0439C40.9492 25.1199 41.6532 26.4173 41.6519 26.4199L41.5599 26.6426C41.5479 26.6719 41.7772 26.7173 41.8252 26.7813C42.0719 27.1066 41.9399 27.5759 42.2226 27.8773C42.2879 27.9319 42.4946 27.8866 42.5319 27.9573C42.5626 28.0133 42.5239 28.1519 42.5466 28.2479C42.7959 28.2346 42.8012 28.5053 42.8972 28.6013C43.3052 29.0119 43.9119 30.2133 44.5332 30.6906C44.7826 30.8826 44.8586 31.0439 45.0146 31.2653C45.1092 31.3973 45.3466 31.5506 45.4866 31.6959C46.0146 32.2373 46.7505 32.4626 47.4105 32.7813C47.7452 32.9426 48.0532 33.1732 48.3985 33.2812L48.9825 33.4652C49.4399 33.6079 50.5372 34.0812 50.5079 34.0879ZM4.28266 12.3773C4.49466 12.44 4.62532 12.512 4.79332 12.4506C4.92799 12.4 4.93065 12.2133 5.00932 12.1213C5.29865 11.784 5.11332 11.6186 4.99332 11.2973C4.87999 10.9973 5.02532 10.5493 4.74399 10.272C4.45599 9.98797 3.25466 11.0386 3.29999 11.6026C3.33199 12.0133 3.96666 12.472 3.94133 12.476C4.06799 12.4586 4.19199 12.3506 4.28266 12.3773ZM9.13864 13.2053C9.31464 12.9026 9.08931 12.5973 9.09465 12.3546C9.10665 11.8426 8.92398 11.5386 8.70931 11.1213C8.62531 10.96 8.67464 10.756 8.50531 10.5706C8.18798 10.2226 8.09731 9.12264 7.46932 9.09731C7.11465 9.08398 6.61999 9.16264 6.32932 9.38931C5.69199 9.88798 7.23331 12.4413 7.06665 12.2186L7.50265 12.8013C7.70932 13.0786 7.91465 13.4773 8.17198 13.5026C8.53598 13.5373 8.96264 13.5106 9.13864 13.2053ZM19.1746 15.0466L19.9333 15.628C20.7413 16.2466 21.6653 16.48 22.6533 16.4746C23.0679 16.472 23.4679 16.588 23.8893 16.5466C24.4466 16.492 24.9719 16.4733 25.5426 16.3053C26.6239 15.984 27.2853 15.0293 27.4519 13.9066C27.4253 14.0866 27.8199 13.0826 27.7013 12.8C27.5973 12.5506 27.9559 12.14 27.8599 11.8773L27.3773 10.5573C27.1759 10.0066 26.6586 9.37731 26.1146 9.10664C25.6639 8.88131 25.3439 8.50931 24.9039 8.39331C24.2693 8.22531 25.1333 8.23198 23.5973 7.92531C22.9146 7.78931 22.1853 7.94531 21.4573 8.06398C21.0573 8.12798 20.7226 8.55065 20.228 8.58265C20.008 8.59731 19.744 9.03198 19.472 8.99998C19.4213 9.10264 19.444 9.22798 19.388 9.24264C19.3346 9.25598 19.184 9.25331 19.1666 9.29464C19.0493 10.4493 18.476 9.83731 18.6066 10.3746C18.632 10.4826 18.5826 10.6173 18.476 10.6413C18.428 10.6533 18.3746 10.58 18.276 10.6693C18.36 10.8253 18.512 10.6773 18.6386 10.844C18.2813 10.8106 18.304 11.9866 18.2573 12.0533L17.9946 12.428C18.088 12.456 18.1773 12.4266 18.1933 12.4626C18.26 12.6053 17.968 12.5973 17.944 12.7066C17.9373 12.7373 18.0693 12.7946 18.0653 12.8213C18.004 13.3466 18.2453 13.7706 18.5133 14.1773C18.728 14.504 18.8533 14.8013 19.1746 15.0466ZM12.7373 9.73198C12.7133 9.69464 12.8346 9.55331 12.772 9.51598C12.744 9.49864 12.6786 9.53731 12.5893 9.52531C12.708 9.19064 12.492 9.02264 12.348 8.75198L12.0146 8.12398C11.9706 8.04265 12.068 7.88931 11.992 7.80265C11.9573 7.76398 11.8426 7.77331 11.8026 7.71731C11.84 7.23198 11.564 6.91732 11.1186 6.85065C10.9346 6.82265 10.864 6.80932 10.7373 6.85332C10.4906 6.93732 10.644 7.13065 10.5666 7.25198C10.1493 7.89865 10.2746 8.53065 10.4373 9.24264L10.6253 10.0613C10.78 10.7386 11.468 12.2346 12.42 12.052C12.6173 12.0133 12.876 11.7906 12.9893 11.672C13.0813 11.3213 12.9706 10.94 12.8986 10.6293C12.8866 10.5773 13.104 10.512 13.0546 10.4426C13.0386 10.4213 12.996 10.3733 12.9693 10.4013C12.6866 10.688 12.9186 10.024 12.7373 9.73198ZM32.1679 5.94798C32.1559 5.81465 32.1786 5.58665 31.9706 5.57865C31.9133 5.57599 31.3053 5.88265 31.5293 6.16932C31.5359 6.17732 32.1946 6.25732 32.1679 5.94798ZM27.0333 8.05731L27.2733 8.49998C27.4746 8.14931 28.0453 9.01731 28.0879 9.07464C28.3093 9.37198 28.6506 9.64664 28.6839 10.064C28.7226 10.54 29.0026 10.9026 29.0799 11.3786C29.1213 11.6373 29.0319 12.1626 29.3559 12.2906C30.1973 12.6226 29.6999 13.188 30.0439 13.2453C30.4039 13.3066 30.9973 12.1853 30.5519 11.1173C30.4479 10.8666 30.5573 10.6493 30.5146 10.448C30.3559 9.70264 30.0573 8.94264 29.6586 8.28931C29.5719 8.14798 29.3306 8.19198 29.3919 7.90398C29.4306 7.72798 29.2159 7.53865 29.0413 7.49731C28.3186 7.32798 28.5173 6.90665 28.0426 6.96265C27.7866 6.68398 27.4799 6.54532 27.1719 6.35465C27.0879 6.30265 27.1493 6.02798 26.9746 6.03198C26.9213 6.03332 26.9226 6.14132 26.9039 6.17465C26.8439 6.28398 25.2039 5.63065 24.9666 5.47999C24.5386 5.58132 23.2439 5.37599 22.8973 5.37199C20.9213 5.34399 21.7479 5.42399 20.4759 5.65732C20.1026 5.72665 18.192 6.58265 17.9133 7.02132C17.5413 7.98265 17.4066 7.50665 17.116 8.50531C17.056 8.70931 17.1666 8.91864 17.04 9.15864C16.924 9.37731 17.0146 9.82664 17.2773 9.84798C17.3426 9.61731 17.568 9.43064 17.7026 9.26531C18.048 8.83998 18.3106 8.33731 18.7946 8.03598C18.852 7.99998 19.0213 8.01598 19.0546 7.96665C19.0773 7.93065 19.0426 7.80798 19.096 7.80665C19.4493 7.79598 19.6053 7.43065 19.9133 7.34398C19.5173 7.45465 21.8319 6.64798 21.3906 6.74265L22.6506 6.47198C22.9746 6.40132 23.3213 6.57332 23.6253 6.49332C23.7159 6.46932 23.7866 6.30532 23.8919 6.33465C23.9719 6.35732 24.0199 6.57732 24.0853 6.55732L24.3173 6.48932C24.4559 6.44798 24.3826 7.00798 24.5813 6.92932C24.6199 6.91332 24.6559 6.82265 24.7199 6.75465C25.2519 6.90132 25.6653 7.56131 26.2093 7.56531C26.2746 7.56531 26.3679 7.53465 26.3946 7.60798C26.4066 7.64265 26.3599 7.69731 26.3093 7.77331L27.0333 8.05731ZM21.7279 3.89066C22.2733 3.98132 22.9146 3.85732 23.0626 3.25066C23.1066 3.07066 22.9373 2.85333 22.9106 2.59866C22.8226 2.66399 22.7559 2.75599 22.6853 2.74399C22.4266 2.69999 22.5719 2.36133 22.4946 2.32399C22.4333 2.29333 22.2973 2.46266 22.2293 2.44933C22.1439 2.43066 22.1226 2.38133 22.0986 2.33466C22.0479 2.23466 22.1146 2.14399 22.2426 2.10266C22.2173 2.04266 22.2013 2.01466 22.1693 2.01733C22.1359 2.01866 21.9986 2.20133 21.9506 2.17866C21.2053 1.812 20.2133 1.576 19.332 1.736C19.18 1.764 19.0706 1.57866 18.9146 1.59466C18.912 1.7 19.0013 1.76 18.9653 1.852C18.5693 1.96666 18.06 1.97199 17.7573 2.27599C17.54 2.49333 17.2426 2.53333 17.0586 2.77066C16.9893 2.85999 17.084 3.03199 16.984 3.06399C16.8733 3.09999 16.7173 3.08933 16.672 3.15999C16.4413 3.51599 16.2906 3.91466 16.4333 4.30399C16.9453 5.70799 18.48 4.62399 19.364 4.39866C19.6133 4.33466 19.8506 4.39999 20.0893 4.22132C20.048 4.25332 21.5666 3.96932 21.7279 3.89066ZM77.5931 47.0852V47.4732C77.0971 48.1919 77.4998 47.3586 77.4171 48.6745L77.3251 50.1292C77.3025 50.4825 77.4371 50.7639 77.2545 51.1172C77.2291 51.1679 77.3225 51.2892 77.2571 51.3305C77.1705 51.3852 77.0718 51.3799 76.9918 51.4545C77.1651 51.5519 77.2851 51.6359 77.2745 51.6652C77.2425 51.7612 77.1185 51.7105 76.9838 51.7545C77.3158 51.9465 77.1545 52.3052 77.1291 52.6359C77.0985 53.0199 77.0851 53.3679 76.6705 53.4652C76.7931 53.5745 76.9958 53.5199 76.9931 53.6119C76.9878 53.8745 76.7065 53.7332 76.6185 53.7945C76.6345 53.9385 76.7478 54.0225 76.7785 54.0865C76.8345 54.2065 76.6411 54.3039 76.6611 54.3825C76.8785 55.2265 76.6505 55.9825 76.2918 56.8399C76.2078 57.0399 76.2731 57.3185 75.8745 57.3239L75.9171 58.2985C75.9358 58.7292 75.7945 59.0719 75.5185 59.4145C75.4691 59.4772 75.5278 59.6532 75.4131 59.7612C75.3091 59.8572 75.2412 59.7745 75.1038 59.7052C74.9492 59.9119 74.7052 60.0585 74.6038 60.3119L74.1612 60.4265C74.2692 60.5345 74.3518 60.5452 74.4225 60.5812C74.4932 60.6172 74.4651 60.8052 74.3545 60.7852C74.1745 60.7519 74.0998 60.4438 73.9198 60.6678C74.0865 60.9465 74.1971 61.3052 73.9665 61.5065C73.8851 61.5238 73.8025 61.2999 73.7412 61.2919C73.6625 61.2812 73.5292 61.2598 73.4598 61.3345C73.7572 61.4638 73.5998 61.6425 73.5452 61.8198C73.4865 62.0078 73.3678 62.1452 73.1145 62.0758C73.0198 62.2265 72.9585 62.3358 72.8092 62.5092C72.7478 62.4585 72.7385 62.3918 72.6705 62.3145C72.4438 62.9065 71.9145 62.9865 71.3505 63.0425C71.0598 63.0718 70.8052 63.1892 70.4785 63.1532C70.1865 63.1198 69.8932 63.1318 69.6172 63.2692C69.5705 63.1332 69.4852 63.1052 69.3865 63.0665C69.2772 63.0225 69.1478 63.1558 69.0585 63.1305C68.8185 63.0598 68.6078 62.8945 68.3372 62.8772C68.0025 62.8572 67.9865 62.6798 67.6705 62.0998C67.6118 61.9945 67.7718 61.9492 67.7652 61.7425C67.5425 61.9172 67.3972 61.8678 67.2758 61.7692C67.0478 61.5838 67.1492 61.3852 67.3145 61.1665C67.3252 60.9612 67.2052 60.9452 67.1838 61.1558C67.1718 61.2652 67.1092 61.2878 67.0772 61.2772C67.0012 61.2492 67.0398 61.1798 67.0412 61.1212C67.0465 60.7945 66.6678 60.7479 66.4438 60.6439C66.3772 60.4799 66.4292 60.1279 66.1945 60.0199C66.1185 59.9852 66.0265 60.0105 65.9865 59.9785C65.8212 59.8452 65.9625 59.5599 65.8238 59.4332C65.7612 59.3759 65.7292 59.5332 65.6225 59.5679C65.4638 59.6199 65.3785 59.2932 65.4718 59.1025C65.3478 59.0959 65.2532 59.2225 65.0718 59.2479C64.5118 58.5492 65.0105 58.7039 64.5265 58.5799C64.4638 58.5639 64.5825 58.4265 64.5452 58.4039C64.3705 58.2972 64.2132 58.4212 64.1052 58.5865C64.0678 58.1172 63.6518 58.0772 63.4385 57.8865C63.0652 57.5532 62.7438 57.3225 62.2612 57.1505C62.0105 57.0612 61.8172 56.8905 61.5238 56.8492C61.3239 56.8199 61.1759 56.4439 60.9012 56.6572C60.8999 56.5145 60.9172 56.4639 60.9039 56.4199C60.8679 56.2959 60.7159 56.4025 60.6265 56.3892C60.3199 56.3425 60.1572 56.0265 59.8572 55.9399C59.7185 55.8999 59.5839 55.8919 59.5159 55.8092C59.4359 55.7145 59.4639 55.6025 59.4145 55.4319C59.3465 55.4865 59.3265 55.5599 59.2599 55.5945C59.2452 55.6012 58.5265 55.2599 58.7412 55.0159L58.3065 55.2385C58.2385 55.2079 58.1585 55.0399 58.1479 54.9705C58.1212 54.8012 57.8879 54.9385 57.8105 54.8719C57.5985 54.6865 57.3399 54.6705 57.0985 54.5399C56.8852 54.4239 56.8185 54.0612 56.4919 54.0799C56.4519 53.9505 56.4932 53.8572 56.4385 53.8359C56.3372 53.7959 56.2199 53.8945 56.1439 53.9519C55.4572 53.4972 54.8532 52.8892 54.4879 52.1239C54.3999 51.9399 54.2572 51.7799 54.2225 51.5439C54.2105 51.4585 53.9879 51.5825 53.9652 51.5279C53.9412 51.4732 53.8719 51.2879 53.9105 51.2332C54.1465 50.9079 53.9252 50.5932 53.9652 50.2652C54.0465 49.5892 54.3225 48.8519 54.7385 48.3065C54.8465 48.1665 55.2025 48.0759 55.3572 47.9412C55.7599 47.5906 56.3519 47.8465 56.8159 47.7545C57.4545 47.6265 58.6359 47.8372 58.8572 48.5985C58.8759 48.6652 58.7652 48.8119 58.8065 48.8879C58.8332 48.9385 58.9679 48.8825 59.0239 48.9652C59.1945 49.2212 59.0505 49.5279 59.0852 49.7972C59.2132 50.7892 58.7105 50.7359 58.4239 51.4785C57.8559 51.1305 57.5665 50.5079 57.1452 50.1012C56.9479 49.9105 56.2279 50.0225 56.1185 50.2679C56.0679 50.3812 55.8919 50.6345 55.8839 50.7625C55.8519 51.3385 56.2039 52.0985 56.7639 52.3279C57.1625 52.4905 57.6132 52.7025 58.0305 52.6865L59.1759 52.6439L59.7865 52.4625C60.2505 51.6185 60.6718 51.1679 60.8358 50.2305C60.8812 49.9719 60.7292 49.7412 60.8839 49.4172C61.0492 49.0705 60.4465 48.3505 60.6492 48.0745C60.4998 48.0932 60.3172 48.2025 60.2199 48.0972C60.1799 47.9132 60.2172 47.6239 59.9599 47.5626C59.7652 47.5159 59.7399 47.3025 59.6385 47.2452C59.5012 47.1679 59.3052 47.3092 59.1932 47.1732C59.1092 47.0719 59.0319 46.9692 59.0399 46.7265C58.9545 46.9319 58.7732 46.9159 58.6479 46.9172C58.4345 46.9186 58.3252 46.6492 58.1732 46.6639L57.8825 46.6932C57.7825 46.7039 57.6892 46.5092 57.5972 46.3692C57.5079 46.4692 57.4759 46.5706 57.4079 46.6119C56.9985 46.8599 57.0919 46.3652 56.4132 46.5346C56.3892 46.5399 56.3092 46.4586 56.3065 46.4359C56.2919 46.3226 56.2199 46.3906 56.1839 46.4612C56.1679 46.4932 56.1679 46.5212 56.1452 46.6239C55.8425 46.5772 55.5145 46.5386 55.2599 46.7199L54.2799 47.4185C53.7545 47.7945 53.3985 48.1585 53.0932 48.7985L52.6345 49.7639C52.5052 50.0359 51.9559 50.2305 52.1679 50.5652L52.3079 50.7852C52.3412 50.8372 52.1932 50.9305 52.1985 51.0359C52.2625 51.1385 52.4825 51.1092 52.5372 51.2839C52.3492 51.3825 52.3812 51.5319 52.4039 51.6665C52.4279 51.8025 52.6479 51.9585 52.9359 51.7665C53.0119 51.9465 52.8972 52.0812 52.8185 52.2612C52.9519 52.3399 53.2145 52.4425 53.2132 52.6492C53.2132 52.7825 52.9625 52.9132 53.1332 53.1239C53.5692 52.3359 54.0305 54.1292 54.9692 54.4492C54.9452 54.5479 54.9732 54.5999 54.9919 54.5959L55.2119 54.5572C54.9532 54.6025 56.9465 55.2679 56.5719 55.5359C56.7439 55.5319 56.9012 55.4225 56.9919 55.5065L57.2945 55.7852C57.3292 55.8172 57.4012 55.6972 57.4292 55.7065C57.4665 55.7185 57.4825 55.7145 57.4999 55.7385C57.5332 55.7865 57.5025 55.8612 57.3839 55.9799C58.3185 55.4692 58.3479 56.9159 58.7319 56.2065L58.9665 56.5705C59.0425 56.5479 59.1465 56.4785 59.2079 56.4532C59.3159 56.4079 59.4292 56.6425 59.5159 56.6492C60.1012 56.6999 60.5132 57.1145 60.7385 57.6879C60.9639 57.7039 61.1278 57.5065 61.3252 57.5625C61.6812 57.6652 61.8265 58.0399 62.1238 58.2265C62.2812 58.3265 62.5398 58.3745 62.5932 58.6545C62.7212 58.6892 62.8398 58.4559 62.9118 58.4919C63.0078 58.5399 63.1145 58.6612 63.1505 58.7319C63.2012 58.8292 63.0105 58.9692 63.0292 59.0359C63.1492 59.1439 63.1865 58.9105 63.2545 58.8399C63.4318 58.6999 63.3358 59.5652 63.6398 59.0852C63.6958 59.3479 63.8478 59.4359 64.1012 59.4572C64.4198 59.4825 64.6278 59.9599 64.8945 60.0199C65.2972 60.1119 65.1692 60.5158 65.3158 60.6318C65.6918 60.9305 66.0518 61.1292 66.2838 61.6198C66.3678 61.7998 66.8572 61.7678 66.8305 62.0798C66.8278 62.1212 66.8505 62.2252 66.8958 62.2345C66.9452 62.2452 66.9918 62.1745 67.0692 62.0985C67.1478 62.3038 67.0972 62.5585 67.2385 62.7732C68.0745 64.0412 67.4838 64.6185 67.7652 64.9372C67.8345 65.0145 67.6025 65.0372 67.6012 65.0905C67.5932 66.3465 66.8318 66.1852 67.4092 66.4678C66.6305 67.2532 66.8438 67.8932 65.5705 68.6172L64.8065 69.0518C63.9678 69.5292 63.4038 69.7318 62.8185 70.0918C62.3958 70.3505 61.8865 70.4278 61.4425 70.6492C60.8545 70.9425 60.2545 71.2092 59.6199 71.3918C59.3385 71.4732 59.2172 71.7612 58.9545 71.8558C58.5439 72.0052 58.3559 72.3225 58.0572 72.6105C57.8825 72.7785 57.6425 72.9332 57.4492 73.1012C56.9972 73.4932 56.6639 73.9278 56.2625 74.3305C55.6479 74.9505 55.0385 75.5331 54.3772 76.0651C53.9465 76.4118 53.4479 76.6131 53.0519 76.9985C52.9399 77.1078 51.1839 78.2705 50.4585 78.9051L50.0679 79.2478C49.5812 79.6758 49.0225 80.1665 48.4065 80.5105L47.6945 80.9091C47.5412 80.9945 47.3732 81.0531 47.4412 81.2558H46.8532C46.8079 81.0838 46.8172 80.8758 46.6852 80.6985C46.5919 80.5731 46.4372 80.4958 46.3372 80.5918C46.2679 80.6571 46.2532 80.7611 46.1732 80.8571C46.0972 80.6251 45.9132 80.5331 45.7346 80.4891C45.7159 79.9331 46.0039 79.4105 46.2986 78.9331C46.4492 78.6905 46.4879 78.3518 46.8452 78.5131C46.7785 78.3198 46.7266 78.2318 46.7772 78.1451C46.7999 78.1051 46.8826 78.0985 46.9799 78.0731C47.0639 77.6211 47.5852 77.3838 47.8319 77.0131C48.0185 76.7305 48.0345 76.4011 48.3905 76.2478C48.6039 76.1558 48.7665 75.6971 48.6972 75.4771C48.4052 75.2505 47.9852 75.5705 47.6532 75.7265C47.1292 75.9745 46.5599 76.1038 46.0012 76.2598C45.0412 76.5278 44.1839 76.9025 43.2386 77.2411L42.2146 77.6091L41.2426 77.9398C41.1026 77.9878 40.8572 77.8105 40.7026 78.0371C40.5972 78.1905 40.3226 78.1198 40.2106 78.1971C39.8186 78.4678 39.4012 78.5585 38.9626 78.7171C37.8052 79.1385 38.4972 78.4011 37.0679 78.8265C37.0052 78.8011 36.9959 78.6531 36.9479 78.6545C36.8812 78.6558 36.7612 78.6878 36.7212 78.7745C36.4412 78.4211 36.6239 78.1971 36.7679 77.9065C36.9039 77.6331 36.7906 77.1758 37.1666 77.0531C37.2826 77.1945 37.3759 77.2025 37.3426 77.0065C37.3212 76.7851 37.4012 76.7985 37.5359 76.9878C37.6079 76.8398 37.6652 76.6638 37.7546 76.6385L38.1759 76.5145C38.2519 76.4931 38.1212 76.2318 38.2439 76.1851C38.4546 76.1065 38.5986 75.9585 38.7706 75.8598C38.8559 75.9478 38.9066 76.1265 38.9746 76.0291C39.1546 75.7731 38.9252 75.6971 39.1052 75.5651C39.3626 75.3785 39.2332 75.8958 39.7972 75.0145C39.9492 75.0291 40.0479 75.0971 40.2266 75.0798C40.1626 74.6772 41.3506 74.1572 41.2492 74.2212C41.5772 74.0145 41.7532 73.6758 42.2039 73.6292C42.5306 73.5958 42.7332 73.1678 42.9599 72.9678C43.1412 72.8092 43.6946 72.6132 43.6759 72.2358C43.6719 72.1612 43.5519 72.1692 43.5039 72.2198L43.3986 72.3305C43.1879 71.9958 42.8679 72.1798 42.5706 72.1572C42.6399 72.1625 41.0492 72.1918 41.1306 72.1958L39.2146 72.1198C38.7626 72.1025 38.3466 72.0332 37.9266 71.9465C36.9959 71.7532 35.3079 71.7412 34.3212 71.5118C34.1893 71.2305 34.1026 70.8745 33.8106 70.7052C34.2213 70.6158 34.1813 70.3238 34.3013 70.0398C34.3239 69.9865 34.5252 70.0278 34.5652 69.9945C34.6132 69.9558 34.6079 69.8732 34.6186 69.7585C34.7346 69.8478 35.4852 69.7972 35.4719 69.5025C35.7092 69.6505 35.9346 69.5865 36.1879 69.5078L37.4919 69.1052C37.9132 68.9745 39.3679 68.4638 39.6759 68.3305C39.8692 68.2465 39.9159 68.1958 40.1666 68.1932C40.6226 68.1878 41.0639 67.9052 41.4986 67.7625C41.4559 67.4958 41.3626 67.3318 41.3132 67.1585C41.2359 67.1785 41.0692 67.2145 40.9999 67.1932C40.9492 67.1772 40.9666 67.1065 40.9372 66.9945C40.6719 66.9412 40.4639 66.7838 40.2079 66.7012C40.1146 66.6705 39.9079 66.7745 39.9159 66.6238C39.9199 66.5398 40.0199 66.4652 40.0146 66.3038C39.8012 66.3492 39.6906 66.4278 39.5666 66.3678C39.3519 66.2652 39.1532 66.0972 39.3266 65.8585C39.4052 65.7492 39.3092 65.6652 39.1959 65.7532C39.1306 65.8038 39.1826 65.9598 39.1226 66.0278C39.0666 66.0905 38.9226 66.0198 38.9012 65.9625C38.8879 65.9238 38.8399 65.8625 38.8079 65.7958C37.5506 65.4705 37.4666 64.8105 36.5439 64.3305C36.6439 64.1425 36.7932 64.1012 36.9426 64.0465C36.7892 63.5745 37.0666 63.0732 37.5146 63.0412C37.3492 63.0532 39.5199 62.7452 39.1492 62.9132C39.4826 62.7612 39.8852 62.6292 40.2666 62.5532C40.5906 62.4892 40.8972 62.2212 41.2132 62.6478C41.2492 62.3852 41.1612 62.3212 41.3212 62.2665C41.4186 62.2332 41.5186 62.1998 41.6146 62.2865C41.6692 62.3358 41.6572 62.4772 41.7079 62.5812C41.8652 62.6532 41.9492 62.5545 41.7799 62.4212C41.8746 62.1172 42.1919 62.3838 42.3972 62.4092C42.6492 62.4425 42.8946 62.4452 43.0706 62.5945C43.1679 62.5972 43.3239 62.3972 43.4079 62.4438C43.4826 62.4852 43.5586 62.6092 43.6506 62.6265C43.7732 62.6505 43.8839 62.4345 43.9906 62.5665C44.0492 62.6385 44.1466 62.7958 44.2479 62.8225C44.4039 62.8638 44.8839 62.3652 45.0212 62.6705C45.0466 62.7278 44.8612 62.7918 44.8546 62.8572C45.0639 62.9825 45.0772 62.6292 45.3532 62.6452C45.5146 62.6532 45.2332 62.8172 45.3772 62.8892C45.4639 62.9318 45.5212 62.7718 45.5812 62.7705C45.6586 62.7705 45.7546 62.8905 45.8319 62.8838C45.8812 62.8798 45.8666 62.7318 45.9146 62.7212C45.9999 62.6998 46.0706 62.8172 46.1319 62.8212C46.2186 62.8252 46.2852 62.7265 46.3346 62.7678C46.3959 62.8185 46.4306 62.8692 46.4839 62.9292C46.5386 62.9918 46.6332 62.9452 46.6452 62.9052C46.6559 62.8718 46.6452 62.8078 46.6799 62.7398C46.9386 62.7465 47.2225 62.7452 47.4545 62.8492C47.3412 63.0185 47.1799 62.8478 47.1319 62.9545C47.4719 63.1932 47.7519 62.8785 48.0425 62.8825C48.7225 62.8892 49.3772 63.0265 50.0625 63.0932C50.5612 63.1425 51.0825 63.0305 51.6359 62.9958C51.8185 62.9838 51.9719 63.1225 52.2652 62.9772C52.4719 62.8745 52.7239 63.1945 52.9119 63.3452C53.2332 63.6012 53.3559 64.1692 53.6825 64.4665C53.9212 64.4292 54.8225 64.9238 55.0772 65.0958C55.2612 65.2198 55.6505 65.1838 55.6892 65.5412C55.7945 65.4785 55.8772 65.4225 55.9625 65.4252C56.0452 65.4265 55.9465 65.5638 55.9359 65.6625C56.1572 65.7412 56.3785 65.8038 56.6105 65.9612C56.7399 66.0492 56.9879 65.7505 56.9265 65.5985C56.8759 65.4705 56.7185 65.3785 56.5599 65.3412C56.2705 65.2758 56.2039 64.8718 55.9852 64.7625C55.2585 64.3972 54.5905 63.9785 54.0159 63.3865C53.8865 63.2532 53.6759 63.2025 53.5839 63.0185C53.4679 62.7838 53.2292 62.8278 52.9799 62.8892C53.0239 62.4558 52.4919 62.3052 52.3505 62.0358C52.1959 61.7438 52.1319 61.5999 51.9119 61.3559C51.6305 61.0412 51.3759 60.4759 50.8999 60.3799C50.8692 60.2185 50.6652 60.0425 50.6279 59.9372C50.4852 58.8932 49.9399 59.6159 49.8719 58.6305C49.1119 57.6852 49.6159 58.1372 49.5239 57.9065C49.5785 58.0425 48.8385 57.0959 48.8279 57.0412C48.7759 56.7785 48.7625 56.6332 48.6225 56.3852C48.3492 55.9025 47.8972 54.6145 47.9239 54.1199C47.9505 53.6092 47.9852 53.1505 47.8132 52.6279C47.7839 52.5412 47.6439 52.5132 47.6585 52.4439C47.6852 52.3225 47.7145 52.2492 47.8052 52.1692C47.6639 52.0439 47.6399 51.8919 47.7812 51.7412C47.8412 51.6785 47.8425 51.5625 47.7945 51.5345C47.7652 51.5185 47.6959 51.5905 47.6399 51.5932C47.5439 51.4865 47.8599 51.4012 47.8092 51.3532L47.5906 51.1399C47.5386 51.0892 47.6812 50.9932 47.7892 50.9065C47.7532 50.7932 47.6052 50.8105 47.4879 50.6985C47.5706 50.3745 47.5999 50.0879 47.6332 49.7865C47.6812 49.7279 47.7732 49.6879 47.7479 49.6305C47.6999 49.5252 47.5572 49.4812 47.5359 49.3945C47.6652 49.2185 47.8346 49.3452 47.9386 49.2545C47.4946 48.8279 47.8786 48.3839 48.0412 47.9745L48.3332 47.2439C48.4892 46.8505 50.1679 44.8972 50.7625 44.7399C51.0159 44.6719 51.1505 44.4679 51.3425 44.3106C51.4079 44.2572 52.7892 43.5452 52.6505 43.5906C52.7065 43.5719 52.8012 43.6706 52.8745 43.6732C53.1252 43.5412 53.3825 43.4786 53.6239 43.6852C53.7079 43.6479 53.7479 43.5146 53.8239 43.5106C54.0519 43.5252 54.2452 43.3786 54.4545 43.3426C54.8185 43.2786 55.2372 43.6639 55.6505 43.3866C55.7372 43.4226 55.6932 43.5466 55.7759 43.6026C55.6665 43.3692 57.5345 43.5586 57.3812 43.6226L57.6319 43.5186C57.6532 43.5092 57.7385 43.7266 57.7865 43.7052C58.1252 43.5559 58.3412 43.5252 58.6492 43.6692C59.3039 43.9746 59.4945 43.4559 59.4292 44.0732C59.4892 44.1932 59.5252 44.0839 59.6025 44.0039C59.6599 43.9786 59.8052 43.9452 59.8905 43.9399C59.9385 43.9372 59.8785 44.0106 59.9119 44.1532C60.6919 44.1479 61.3652 44.4239 62.1105 44.6772C62.3572 44.7626 62.6798 44.6239 62.9758 44.8292C63.4265 45.1426 64.0425 45.1892 64.4892 45.4546C64.8438 45.6639 65.1065 45.8132 65.5012 45.9666L66.8745 46.4959C66.9972 46.5426 67.0825 46.7186 67.2398 46.6452C67.3412 46.5986 67.4532 46.5452 67.4972 46.4052C67.6158 46.0306 66.6078 45.5879 66.8945 45.7706C66.6665 45.6252 66.5758 45.1052 66.2705 45.0239C66.0078 44.9546 65.9025 44.8186 65.6745 44.6652C64.5732 43.9252 64.6412 44.2826 63.7025 43.5746C63.5265 43.4412 63.1025 43.4892 62.9838 43.1892C62.8838 43.2412 62.8038 43.2799 62.7558 43.2732C62.7198 43.2679 62.6465 43.1239 62.6078 43.1359C62.3518 43.2146 62.1279 43.0092 61.9185 42.9039C61.9425 42.9159 60.4852 42.4799 60.3639 42.6292C60.0572 42.2519 59.6252 42.3932 59.2772 42.3052C57.5612 41.8732 58.1985 42.3266 57.2279 41.9599C57.1785 41.9412 57.1759 42.0386 57.1532 42.0519C57.3305 41.9506 55.2519 41.9159 55.4305 41.9306L54.9572 41.8906C54.0865 41.8146 53.2425 41.9892 52.3852 42.2252L50.6652 42.6999C50.0319 42.8746 49.5332 43.2292 49.0225 43.6132C47.6746 44.6279 48.3945 44.8572 47.5439 44.6652C47.5719 44.7719 47.7412 44.8239 47.7466 44.9426C47.4346 45.1666 47.3252 45.4799 47.2586 45.8252C47.2199 46.0359 46.9439 46.2079 46.9319 46.4266C46.9199 46.6519 46.8505 46.7626 46.6412 46.8852L46.6239 47.1572C46.6212 47.1972 46.3866 47.1919 46.3919 47.2479C46.6079 48.4359 45.8732 48.6772 46.1412 49.2265C45.9439 49.6665 45.9586 50.2585 46.1186 50.6959C46.1706 50.8372 45.9692 51.0865 46.1359 51.2919C46.3319 51.5345 46.1652 51.7785 46.1772 52.0119C46.1932 52.3305 46.3492 52.5305 46.1706 52.8732C46.0826 53.0412 46.3772 53.4105 46.3199 53.5985C46.2186 53.9359 46.3039 54.1799 46.4026 54.5372C46.5532 55.0812 46.6186 55.7079 47.0066 56.1652C47.0666 56.2359 46.8612 56.4959 46.9759 56.5812C47.2786 56.8039 47.2452 57.1332 47.3839 57.4305C47.5172 57.7145 47.8146 57.9665 47.9132 58.2825C48.0119 58.5999 48.2092 58.6585 48.4185 58.8079C49.8759 59.8505 49.7839 59.0185 50.4559 60.5305C50.3505 60.7879 50.0852 60.8292 50.0919 61.0638C50.0945 61.1598 50.2412 61.2452 50.2199 61.3092C50.2052 61.3559 50.0359 61.4012 50.0305 61.4505C49.9865 61.8452 49.8812 62.2078 49.4519 62.2305C49.5492 62.3158 49.6159 62.4252 49.5479 62.4732C49.3319 62.4438 49.1612 62.4092 48.9465 62.5758C49.0105 62.1878 48.0532 62.0292 47.7092 61.8452C47.4066 62.3105 47.3386 61.6852 46.7932 61.6732C46.6626 61.6705 46.6119 61.9065 46.5079 61.9492C46.1119 62.0172 45.6759 61.7198 45.3146 61.6398L45.0866 61.8585C45.0639 61.8812 44.9746 61.8078 44.9759 61.7585C44.9772 61.7185 44.9932 61.5932 44.9532 61.5865C44.3986 61.4932 43.7866 60.8998 43.5132 60.8812C43.0532 60.8492 42.5199 60.7212 42.0439 60.5465C41.7719 60.4452 41.3946 60.5305 41.1092 60.4985L39.4772 60.3105C39.1039 60.2679 38.8052 60.7772 38.3346 60.9092C38.3239 60.3505 37.8879 60.3825 37.7746 59.9225C37.7839 59.9572 39.0199 58.6532 39.1786 58.3639C39.3679 58.0185 39.4919 57.7105 39.7786 57.4359C39.8852 57.3332 39.8132 57.0559 40.1106 56.9252C40.3492 56.8185 40.1359 56.1559 40.2866 56.0825L40.5239 55.9679C40.5652 55.9479 40.4146 55.6972 40.4679 55.6639C40.7439 55.4892 40.8519 55.2865 40.8399 54.9185C41.1106 54.9959 40.8626 55.1839 41.0452 55.3492C41.4146 54.7052 41.1346 54.1345 41.7519 53.8319C41.6146 53.1852 41.9759 53.7025 42.2052 53.2439C42.2986 53.0585 42.0812 52.9185 42.0826 52.8039L42.3612 52.3745C42.3906 52.3292 42.4639 52.3092 42.4546 52.2665C42.4466 52.2319 42.3706 52.2105 42.3399 52.1439C42.2746 52.0052 42.5826 51.9919 42.6306 51.9052C42.6612 51.6865 42.7759 51.4919 43.0039 51.3399C42.9159 51.1945 42.7679 51.1932 42.7532 51.0505C42.9106 51.0612 43.1706 51.0759 43.1546 50.8932C43.1466 50.7959 42.8666 50.6625 43.0119 50.5345C43.0999 50.4572 43.2426 50.4119 43.2692 50.3452C43.2866 50.2985 43.1986 50.1372 43.2332 50.0985C43.7546 49.6532 43.8612 48.7639 44.0199 48.2745C44.1666 47.8279 44.3346 47.5705 44.3572 46.8839L44.4172 45.0346C44.4212 44.9372 44.2639 44.8372 44.3546 44.7372C44.3999 44.6879 44.5719 44.6559 44.5906 44.5612C44.6159 44.4292 44.4426 44.4586 44.3346 44.4012C44.6066 44.0292 44.5399 42.5839 44.4986 42.0439L44.3879 40.5452C44.3559 40.1146 44.4612 39.6066 44.3066 39.2239C44.1786 38.9079 44.1266 38.6892 44.0866 38.2799C44.0186 37.5666 43.7626 36.8346 43.5319 36.1479C42.9679 34.4732 43.0066 35.5759 42.8826 34.5772C42.3879 34.4772 42.7332 34.0146 42.2706 33.8999C42.0452 33.8439 42.0386 33.6613 41.9079 33.5333L40.6492 32.2973C39.6546 31.3199 39.2372 31.3626 38.3199 30.9413C37.7519 30.6813 36.8852 30.2466 36.1279 30.7039C35.9506 30.8119 35.5572 30.7359 35.4079 30.8706C35.3839 30.8906 35.3159 30.7386 35.2892 30.7319C35.2612 30.7266 35.1946 30.7426 35.1866 30.7799C35.1772 30.8186 35.2412 30.8746 35.2279 30.9853C34.4119 30.8693 34.7199 31.2039 34.0132 31.4346C33.5679 32.2239 34.0439 31.3106 33.1199 32.3413C32.1173 33.4586 32.1759 34.6439 32.1159 36.0159C32.0879 36.6359 32.1279 37.1852 32.2426 37.7826C32.4533 38.8746 32.6133 39.2972 33.5679 40.0759C34.0186 40.4439 34.4052 40.6146 34.9839 40.7052C35.3012 40.7546 36.5346 41.3212 36.8692 40.7906C37.8532 40.7652 39.4452 39.6346 39.5506 38.4932C39.6172 37.7746 39.1852 37.3532 38.8972 36.8559C38.6932 36.5026 38.2586 36.4052 37.9266 36.6692C37.5332 36.9839 37.5332 37.5519 37.6092 38.0212L37.0346 38.4732C36.5972 38.8146 36.0786 38.6746 35.5839 38.5546C35.2466 38.4719 34.9252 38.4599 34.6879 38.1266L33.8213 36.9052C33.4946 36.4452 33.5333 35.6599 33.7546 35.1079L34.1533 34.1159C34.6146 32.9639 35.6332 32.9253 35.5532 32.9973C35.6212 32.9359 35.6372 32.8253 35.7159 32.7439C35.8919 32.5639 37.1692 32.9746 36.6252 32.7226C37.1999 32.9893 38.3746 32.4573 40.3839 34.9599C40.6026 34.9572 40.6066 35.0226 40.4052 35.1626C40.9599 35.5612 41.3252 36.8959 41.4826 37.6199L42.0066 40.0159C42.1839 40.8252 42.3092 42.3466 42.2866 43.1772L42.2719 43.7532C42.2559 44.3412 42.1572 46.0172 41.9919 46.4639C42.0399 46.3346 41.7719 47.8625 41.8706 47.7919C41.3026 48.2079 41.7612 48.5385 41.6372 48.7572C41.1812 49.5585 41.5146 49.8785 41.4866 50.0679C41.4226 50.4945 41.0906 51.0225 40.9146 51.4292L39.9066 53.7719C39.8066 54.0039 39.7506 54.2279 39.6559 54.4399C39.5492 54.6745 39.2519 54.7919 39.4519 55.1812C39.4786 55.2332 39.2799 55.2919 39.2812 55.1745C39.2812 55.1412 39.2772 55.0772 39.1826 55.0345C39.2492 55.3145 39.0999 55.4385 38.9732 55.6359L38.1826 56.8692C38.0412 57.0879 37.8972 57.2305 37.8986 57.3892C37.8986 57.4239 37.6879 57.1172 37.7812 57.5545C37.6626 57.5519 37.5772 57.6759 37.6079 57.7332L37.6799 57.8719C37.5852 57.8772 37.5026 57.8625 37.4479 57.9065C37.3986 57.9465 37.3679 58.0572 37.3679 58.1292C37.3692 58.4479 37.0426 58.5079 36.9292 58.6572C36.7226 58.9279 36.5546 59.4039 36.2439 59.5959C36.0732 59.7012 36.1186 60.0239 35.9172 60.1212C35.7866 60.1839 35.5946 60.1452 35.5412 60.3358C35.5159 60.4238 35.7146 60.5852 35.6519 60.6852C35.5612 60.8305 35.4412 60.6185 35.3839 60.6318C35.2666 60.6572 35.3106 60.8625 35.2666 60.9145L34.8919 61.3492C34.8426 61.4078 34.7292 61.4078 34.8039 61.4718C34.8266 61.4918 34.8679 61.5279 34.8959 61.5972C34.1399 61.9358 34.4759 62.2172 33.7039 62.7625C33.6346 62.8118 33.6986 63.0305 33.5133 63.0838C33.0626 63.2132 32.9279 63.8532 32.6546 64.0438C32.2599 64.3212 32.2533 64.5852 32.0933 64.9305C31.9333 65.2758 31.2719 65.6185 31.2653 66.1518C31.0746 66.1772 30.7319 66.2452 30.7746 66.5038C30.8533 66.9812 30.3693 67.0652 30.2733 67.3398C30.1453 67.7038 30.0946 68.0065 29.8999 68.3332C29.7346 68.6092 29.6946 68.9585 29.4733 69.2532C29.3679 69.3945 29.4586 69.7505 29.2853 69.9505C29.0479 70.2252 29.0426 70.5865 28.9959 70.9145C28.9293 71.3838 28.5799 71.8212 28.5693 72.2798C28.5639 72.5932 28.3986 72.7452 28.3133 73.0225C28.1013 73.7132 28.0119 74.4545 27.5213 75.0451C27.1626 75.4758 27.1319 75.9225 26.7093 75.9705C26.5666 75.9878 26.4866 75.8051 26.3293 75.7785C26.0919 75.7385 25.8359 75.7251 25.6279 75.6718C25.5599 75.6531 25.4039 75.8785 25.3506 75.7545C25.3279 75.7025 25.3546 75.5798 25.3253 75.5398C25.1626 75.3158 25.2559 75.1731 25.2826 74.9705C25.3933 74.1358 25.2413 73.4332 25.2679 73.0332L25.4293 70.6172L25.3666 69.8905L24.9319 69.8652L23.5133 71.0545C22.8719 71.5905 22.4693 72.3492 21.7639 72.8305C21.1293 73.2638 20.4973 73.4958 20.2706 73.6465C19.8186 73.9452 18.588 73.8732 18.9506 73.9758C18.8973 73.9612 18.88 73.8052 18.8306 73.7652C18.4026 73.4145 18.752 72.9225 18.992 72.4745L19.692 71.1745C19.7333 71.0958 19.58 70.9238 19.648 70.8558C19.692 70.8118 19.88 70.7958 19.9013 70.7465L20.4119 69.6292C20.6026 69.2078 20.8759 68.8385 21.0826 68.4198C21.2453 68.0932 21.0679 67.6678 20.7373 67.6025L20.1333 67.7638C19.0026 68.0665 17.756 68.1412 17.032 68.3252L14.72 68.9118C14.3426 69.0078 13.9586 69.0465 13.6 69.1545C13.064 69.3158 12.5266 69.3438 11.968 69.4132C11.7266 69.4425 11.4666 69.6385 11.1626 69.4798C10.9506 69.3705 10.9746 69.0385 11.076 68.8292C11.1133 68.7505 10.9733 68.6492 10.9693 68.5492C11.8786 67.2558 12.3346 67.6505 13.7 66.6985C14.664 66.0265 13.6133 66.5932 14.8133 66.0958C15.056 65.9958 15.8466 65.6772 15.8213 65.5212C15.812 65.4625 15.6533 65.4812 15.5973 65.3225C15.8013 65.1718 16.0666 65.1692 16.2853 65.0758L15.9773 64.8558C16.232 64.8132 16.4773 64.6772 16.7626 64.6852C16.82 64.6878 16.8813 64.7918 16.924 64.7612C16.9666 64.7318 16.9813 64.6718 17.024 64.5918C17.4666 64.8585 17.4946 64.3852 18.1626 64.3692C18.3773 64.3652 18.5013 64.2265 18.4666 64.0238C18.4053 63.6665 16.3306 63.3145 16.0693 63.2145L14.688 62.6852C14.596 62.6505 14.5306 62.5092 14.5026 62.4358C14.48 62.3758 14.5866 62.2865 14.6 62.2012C14.468 62.0372 14.6186 61.9452 14.6773 61.8238C15.1586 60.8452 16.196 61.0212 16.1333 61.0319C16.4053 60.9905 16.6973 60.9212 16.96 60.8985C17.324 60.8665 17.6613 60.5479 18.0653 60.6652C18.1266 60.6839 18.2453 60.7318 18.2733 60.6479C18.288 60.6052 18.2 60.5399 18.2893 60.4012C18.508 60.7959 18.9066 60.6772 19.256 60.5225C20.5146 59.9692 20.3453 60.3959 21.3346 60.0705L22.9399 59.5439C23.0159 59.5199 23.1439 59.7132 23.2186 59.5892L23.3826 59.3145L23.7733 59.5092L24.9266 58.5279L26.0239 57.3212C26.5039 56.7932 26.8506 56.2345 27.3839 55.7532C27.7639 55.4092 28.0293 54.9159 28.3559 54.5225L29.0879 53.6399L29.5133 53.0692L30.2866 52.1785C30.5679 51.8545 30.8906 51.6652 31.1106 51.4025C31.3773 51.0839 31.6026 50.7785 31.9399 50.5145C32.0906 50.3972 32.3959 50.0332 32.2866 49.8279C32.0319 49.3439 32.2719 49.0279 32.3186 48.5679L32.4146 47.6065C32.4866 47.3999 32.2253 47.1399 32.1879 46.8625C31.4906 47.5972 32.1133 46.9585 31.6946 47.7799C31.3173 48.5239 31.3653 49.3745 31.3799 50.1919C31.3319 50.5212 30.7586 50.5479 30.5906 50.7545C30.3719 51.0239 30.1813 51.2385 29.8906 51.4025C29.6613 51.5319 29.3479 52.0972 29.0559 51.9559C28.7573 51.8132 28.6173 51.7172 28.2706 51.7412C27.8959 51.7692 27.4213 51.5572 27.0359 51.5225C26.8346 50.5759 26.5533 51.5479 26.2853 50.2492C26.1919 49.7905 25.9813 49.4879 25.7119 49.1425L25.0333 48.2745C24.9266 48.1372 24.9133 47.9079 24.6493 47.9359C24.7493 47.8532 24.8053 47.8079 24.7866 47.7746C25.1093 48.3092 23.9706 46.7986 24.2226 47.1092C23.3666 46.0546 23.4159 45.4052 22.9439 45.6986C22.7839 45.7986 22.5479 46.9852 22.6386 46.7586C22.5453 46.9919 22.3839 47.2025 22.3319 47.4812C22.2853 47.7305 21.9759 47.9319 22.0986 48.2265C22.1319 48.3052 22.1533 48.3932 22.0693 48.4639C21.9813 48.5359 21.9306 48.2692 21.8386 48.2919C21.8439 48.4652 21.9359 48.5479 21.9893 48.6399C22.0573 48.7612 21.7413 48.8012 21.7293 48.8812C21.6773 49.2345 21.3719 49.4585 21.2079 49.7465C21.0666 49.9945 20.8893 50.3852 20.8013 50.6119C20.8319 50.9745 20.9706 51.3732 20.7813 51.7919C20.9599 51.8119 20.92 51.6585 20.9733 51.6119C21.0813 51.7639 21.0239 51.8879 20.9839 51.9439C20.9573 51.9799 20.816 51.9292 20.8213 51.9852C20.8359 52.1479 20.9666 52.1785 21.0679 52.2759C20.7973 52.5679 20.956 52.8652 21.0426 53.1879L21.6999 55.6412C21.7959 55.9999 21.5839 56.4159 21.8039 56.7932C21.9466 57.0385 21.5626 57.2959 21.5973 57.4999C21.6266 57.6745 21.8519 57.7812 21.8133 57.9879C21.7866 58.1359 21.6013 58.1839 21.5226 58.3319C21.4613 58.4465 21.5466 58.5879 21.4253 58.6119C20.7213 58.7519 21.3426 58.8145 20.8066 58.7759C20.6213 58.7625 20.4933 58.7679 20.364 58.6865C20.1773 58.5705 20.2093 58.3412 20.1413 58.2252C19.896 58.1132 19.7426 57.9225 19.5973 57.6812C19.272 57.1452 18.804 56.7305 18.4533 56.2132C18.3373 56.0425 18.3 55.7252 18.0453 55.6625C17.872 55.7799 17.684 55.8132 17.424 55.6039C17.2453 55.7879 16.9706 55.8972 16.8253 56.0825C16.264 56.8012 15.264 57.4985 15.1053 57.9425C15.0413 58.1225 14.8933 58.2332 14.7426 58.4239C14.144 59.1745 13.7293 60.1492 13.0053 60.7678C11.768 61.3745 12.684 60.7772 11.7426 60.9452C12.124 60.6065 11.5693 60.0239 11.656 59.5959C11.9693 58.8225 12.148 57.4065 12.4106 56.7172C12.8933 55.4532 12.228 55.5879 12.876 54.9692C12.8493 54.6772 12.948 54.4239 13.0506 54.2385C13.0933 54.1599 12.928 53.9225 12.992 53.8359C13.028 53.7879 13.208 53.8119 13.1746 53.6505C12.696 53.4852 12.4026 53.8812 12.0746 54.0132C11.3826 54.2892 10.5586 54.9185 9.94264 55.3439C9.58664 55.5919 9.23198 55.7319 8.89998 56.0465C8.76931 56.1705 8.54931 56.2945 8.39598 56.4039L7.56531 57.0025C7.29731 57.1945 7.15199 57.3825 6.93865 57.5932C6.57599 57.9505 6.15599 58.2852 5.73599 58.6025C5.59599 58.7079 5.30799 58.6252 5.14399 58.7799C5.06666 58.8532 4.85065 58.6652 4.79599 58.5732C4.71732 58.4399 4.85332 58.2625 4.80665 58.1132C4.77865 58.0252 4.62532 57.9812 4.63466 57.9185C4.69599 57.4532 4.92932 57.7132 4.82266 57.1572C5.13465 57.0492 5.35065 56.7172 5.49865 56.4145C5.60399 56.1999 5.85865 56.0705 5.82932 55.7812C5.94265 55.6879 6.11732 55.6719 6.18532 55.5479C6.42798 55.1065 6.76798 54.7919 7.05332 54.4065C7.11198 54.3265 7.13732 54.1705 7.29065 54.1519C7.60398 53.1652 8.78398 53.0079 8.48798 52.6839C8.57731 52.7799 7.27998 52.2652 6.49465 52.9079C6.32799 53.0452 6.20532 53.2865 5.98532 53.0772C6.16799 52.8679 6.05598 52.7252 5.93598 52.9719C5.51732 53.0332 5.14399 53.1585 4.85199 53.4905C4.80265 53.3212 4.68132 53.2372 4.53332 53.2279C4.15466 53.2012 3.85333 53.8945 3.81199 53.3252C3.51999 53.4145 3.23199 53.4479 2.90933 53.5039L2.67333 52.7092C2.53466 52.2399 3.03333 51.8492 3.43599 51.6625L4.09599 51.3572C4.53199 51.1559 4.90666 50.8812 5.35865 50.6625L7.91198 49.4279C8.04398 49.3639 8.20665 49.4705 8.31998 49.2852C8.52131 48.9572 8.88131 48.7719 9.25464 48.7145L9.42131 48.2945C9.77731 48.4625 9.88131 48.1945 10.0666 47.9852C10.5066 47.4879 11.176 47.0799 11.3413 46.3906C11.4173 46.0772 11.5533 45.9092 11.7066 45.6092L12.788 43.4786C12.9186 43.2212 12.9733 43.0466 13.0813 42.8039C13.4386 42.0039 13.944 41.2719 14.12 40.4039C14.1733 40.1399 14.1813 39.8572 14.5066 39.7586C14.6026 39.0492 14.276 38.7852 14.9613 38.5612C14.6413 38.2879 15.1186 38.1052 15.1973 37.9092C15.1573 38.0092 15.512 36.4692 15.6813 36.3119C15.756 36.3146 15.9186 36.3612 15.9533 36.3132C15.976 36.2812 15.924 36.1839 15.964 36.1452C16.076 36.0399 16.2146 35.9906 16.2653 35.8759C16.328 35.7359 16.2573 35.6039 16.1986 35.4452C16.1333 35.2652 16.4253 35.1799 16.4666 35.0532C16.3373 34.7759 16.412 34.4732 16.7186 34.2866L16.4133 33.9492C16.5213 33.4759 16.5106 33.0252 16.3933 32.5493C16.536 32.3999 16.7133 32.3399 16.78 32.1773L16.132 31.8839C15.2253 31.4719 15.572 31.4613 15.0266 31.1386C15.2653 31.2799 14.5626 30.6639 14.588 30.5253C14.6066 30.4186 14.64 30.3266 14.7253 30.2066C14.564 30.1693 14.3706 30.2066 14.1826 30.1013C14.1253 30.0693 14.2213 29.9119 14.2906 29.9346C14.3346 29.9493 14.3853 29.9573 14.472 29.9279C14.408 29.8493 14.292 29.7973 14.2386 29.6799C14.216 29.6319 14.2773 29.5906 14.2773 29.4919C14.1453 29.3119 13.9266 29.3866 13.7533 29.2666C13.8986 29.1239 14.1093 29.2959 14.1026 29.0853C13.996 29.0226 13.8426 29.0373 13.776 28.9453C13.7186 28.8639 13.844 28.7426 13.8466 28.5893C13.8493 28.4706 13.6533 28.5253 13.508 28.5959C13.4933 28.2079 13.2013 27.9853 13.0386 27.6599C12.9453 27.4719 12.9093 27.1946 12.628 27.1386C12.6293 27.0559 12.7106 26.9933 12.696 26.9479C12.7493 27.1226 11.952 25.5346 11.8506 25.4413C10.9226 24.5853 10.96 24.3146 9.88264 23.6306C9.52798 23.4053 9.07065 23.5026 8.72398 23.3506C8.05198 23.0586 7.45198 22.8973 6.71998 22.8026C6.27199 22.7439 5.95199 22.1946 5.58132 21.9866C5.33599 21.8493 5.18132 21.7039 5.15999 21.4253C5.01465 21.4159 5.00532 21.3693 5.01999 21.3213C5.04265 21.2519 5.11599 21.1426 5.06266 21.0639C4.97599 21.0719 4.92799 21.2266 4.72799 21.1746C4.90532 20.7813 4.69199 20.6559 4.48666 20.4319C3.10399 18.9266 3.31466 18.556 2.32666 17.54C1.91066 17.112 1.60266 16.6453 1.35466 16.0826C1.244 15.832 1.076 15.608 0.991997 15.3653C0.793331 14.7866 0.462665 14.7093 0.0013326 14.3226L0 12.9613C0.459999 12.9266 -0.0746654 12.78 0.414667 12.0413C1.17333 10.8946 1.04266 11.8613 1.72133 10.7533C1.83066 10.804 1.86 10.9226 1.92133 10.9346C1.90266 10.932 2.21199 10.632 2.20533 10.58C2.13333 9.94264 2.28266 10.6146 2.30266 9.91997C2.40133 9.88397 2.53733 9.83864 2.57866 9.71464C2.61333 9.61598 2.62799 9.54398 2.49066 9.38131C3.03866 9.19731 3.48133 8.81064 3.93199 8.37331C4.21332 8.74131 4.47465 8.24665 4.77999 8.50398C4.72532 8.31065 6.09998 7.34798 6.28798 7.39065C6.22532 7.30798 6.17598 7.25998 6.19465 7.22932C6.21598 7.19732 6.27065 7.17732 6.32265 7.15465C7.36798 6.72265 6.96532 6.26265 8.11998 6.21332C8.16131 6.03998 8.41465 6.01599 8.55998 5.93065C8.76798 5.80799 8.94798 5.67999 9.19065 5.78132C9.26398 5.69199 9.28931 5.50932 9.38798 5.60799C9.43198 5.65199 9.55464 5.77465 9.62931 5.78799C10.176 5.11732 11.08 4.92799 11.0733 4.93065L11.752 4.62132C11.9346 4.53866 12.0866 4.58399 12.2306 4.38399C12.296 4.29066 12.488 4.29466 12.5213 4.21866C12.5773 4.08799 12.54 3.97732 12.5653 3.80132C12.728 4.17732 13.6093 3.41066 13.736 3.27999L14.276 2.71733C14.4813 2.50399 14.548 2.25866 14.8786 2.26399C14.708 2.18933 14.6306 2.03733 14.7 1.97866C14.752 1.93466 14.8466 1.90266 14.9226 1.81066C14.9653 1.76 15.008 2.01466 15.0933 2.05199C15.1893 1.91333 15.1173 1.52933 15.2986 1.524L15.796 1.50933C15.828 1.35066 15.88 1.17333 15.9906 1.056C16.0493 0.993331 16.2106 1.09733 16.304 1.02133C16.3866 0.954664 16.3706 0.801331 16.4426 0.705331C16.3173 0.870664 17.5506 0.243999 17.5813 0.234666C17.8346 0.161332 18.1973 0.155999 18.416 0.0386663C18.5053 0.0626663 18.6453 0.219999 18.7293 0.158666L18.948 0C19.092 0.210666 19.272 0.0746661 19.444 0.0839994C21.4306 0.181333 19.9253 0.298666 21.1559 0.382665C21.4959 0.405332 23.0893 0.842664 23.4866 0.927997C23.7586 0.986664 24.0759 0.897331 24.3106 1.136C24.4866 1.31466 24.7906 1.19733 24.9493 1.25733C25.8093 1.71733 26.5079 2.38133 27.0839 3.20666C27.7786 3.24799 28.4973 3.15866 29.1799 3.32132C29.4453 3.38399 29.6159 3.57999 29.9319 3.60799C30.5079 3.65732 31.0319 3.97866 31.5359 3.86532C31.9813 3.76399 34.1506 4.10399 34.3306 4.10532L34.9919 4.11199C37.4039 4.13599 39.9639 6.73732 41.9826 6.75598C42.4199 6.75998 42.6692 6.91332 43.0452 6.99998C43.3972 7.07998 43.9172 7.02798 44.1119 7.46531C44.3186 7.27065 44.5332 7.40665 44.7772 7.46931L45.8252 7.74398C46.2972 7.86798 46.8226 7.85598 47.2839 7.92131C48.3759 8.07731 49.3065 7.81731 50.3519 7.63331L51.6905 7.39731C52.7159 7.21598 52.9919 7.12265 54.0225 7.06932C54.0932 7.11198 54.1519 7.28665 54.2439 7.29065C54.2945 7.29332 54.3639 7.21732 54.4425 7.20665C54.8399 7.14932 55.1985 7.41998 55.6052 7.42131C57.8079 7.43198 57.2625 7.83065 57.6185 7.92265L59.0745 8.29865C60.4425 8.65198 60.3932 8.63598 61.6452 9.25998C62.7732 9.82398 62.8012 9.87731 63.6345 10.708L64.7545 11.8226C64.9332 12 65.2918 12.0333 65.2332 12.4546C66.1172 12.964 65.8105 13.1226 66.1038 13.532C66.2945 13.796 66.6825 13.984 66.7065 14.4013C66.7105 14.48 66.6892 14.6013 66.7398 14.6293C66.7798 14.652 66.9238 14.5893 66.9585 14.656C67.0532 14.844 67.0238 15.1573 67.2692 15.244C67.5745 15.352 67.5238 15.5973 67.5585 15.8386C67.6305 15.9466 68.0038 15.976 67.9345 16.1853C67.8998 16.292 67.7692 16.4133 67.8092 16.5413C67.8398 16.644 68.0265 16.652 68.1572 16.6613C68.1132 16.852 68.8078 18.4466 68.9385 18.7133L69.1678 19.1786C69.3158 19.4773 69.1052 19.832 69.1812 20.1226C69.2678 20.4586 69.4212 21.0626 69.3785 21.3919C69.3825 21.3586 69.6332 23.0079 69.6332 22.9613C69.6345 23.1546 69.5505 23.3066 69.6492 23.5546L69.9785 24.3839C70.0852 24.2706 70.0438 24.1506 70.1358 24.1319C71.2118 25.4359 71.6438 25.9733 72.5798 27.3359C73.8265 29.1506 73.5185 29.1266 74.2785 30.9573C74.4558 31.3826 74.5078 31.8213 74.7505 32.2373C75.0198 32.6959 74.9932 33.3106 75.2145 33.8026C75.7038 34.8932 75.5051 35.3266 75.8318 36.0306C76.1758 36.7719 76.3545 38.5452 76.5225 39.0012C76.6558 39.3639 76.7665 39.5319 76.7051 39.9652C76.6518 40.3372 76.8211 40.8346 76.9171 41.2679L77.0398 41.8186L77.0985 42.8119C77.1198 43.1919 77.0851 43.5546 77.1705 43.9066C77.3091 44.4799 77.3478 45.0546 77.2331 45.6679C77.2158 45.7666 77.3811 45.9359 77.2731 46.0732C77.3105 46.1546 77.4785 46.1986 77.4398 46.2706C77.3905 46.3626 77.2478 46.4559 77.2465 46.5359C77.2425 46.7546 77.4531 46.9599 77.5931 47.0852Z" fill="#243D13"/>
<path d="M53.6679 30.2586C53.6079 30.2573 54.5159 30.1426 54.6119 29.9799C54.7026 29.8279 54.6333 30.0226 54.7559 30.2253C54.8373 30.1306 55.0079 29.8933 55.1706 29.9546C55.5439 30.0973 55.6933 29.7359 55.9319 29.6666C56.6679 29.4533 57.2906 29.1759 57.8426 28.6346C58.1106 28.3706 58.5813 28.2866 58.7266 27.8719C58.7493 27.8053 58.7693 27.6919 58.8239 27.6466C58.8586 27.6186 58.9106 27.6453 59.0293 27.6626C59.5333 26.9346 59.7546 26.3106 60.2319 25.6626C60.4546 25.3599 60.5759 24.5653 60.5773 24.4573C60.5946 22.732 60.9519 23.4306 60.7413 21.2506C60.7093 20.924 60.5053 20.6306 60.5759 20.2986C60.6573 19.916 60.3666 19.632 60.2946 19.324C60.1719 18.8013 59.9719 18.5266 59.6026 18.1706L58.7133 17.3146C57.9959 16.624 58.1093 15.6653 56.8039 15.1106L56.0226 14.78C55.3253 14.4826 54.7146 14.0506 53.9586 14.0386C54.0599 14.436 52.912 13.9853 52.3933 14.04C52.2653 14.0533 52.1706 14.2053 51.9653 14.0773C51.38 14.388 51.5666 14.068 51.3386 14.12C51.2666 14.136 51.2226 14.2186 51.144 14.248C50.456 14.5133 49.704 14.5466 49.0226 14.876C48.8306 14.9693 47.8893 15.5706 47.8013 15.656C46.996 16.4386 46.1626 17.1786 45.484 18.032C45.3453 18.2066 44.6533 19.8666 44.7213 20.112C44.8026 20.4093 44.7706 20.7146 44.7893 21.0346C44.804 21.2813 45.02 21.544 44.712 21.708C44.8813 21.744 44.9506 21.764 44.9973 21.8333C45.036 21.8893 45.024 21.9933 45.0053 22.0866C44.8146 22.992 45.3506 22.9306 45.148 23.5866C45.872 24.6786 45.224 24.4333 45.9586 25.4426C46.2533 25.8479 46.5106 26.1853 46.744 26.6026C46.7813 26.6679 48.5213 28.8546 48.6933 28.8559C48.6453 28.4866 49.6453 29.3813 49.5266 29.2319C50.2573 30.1519 50.7613 29.9399 51.988 30.0333C52.8986 30.1026 51.988 30.2106 53.6679 30.2586ZM56.6173 31.5066C55.1799 32.1399 53.6373 32.1826 52.1213 31.9533C52.0533 31.9426 51.9826 32.1119 51.9333 32.0973C51.88 32.0799 51.8293 32.0159 51.752 31.9839C51.692 31.9586 48.6626 31.1866 48.4386 31.1319C48.1173 31.0533 47.7973 30.6826 47.4373 30.6293C47.3813 30.6213 47.4106 30.4239 47.3906 30.3799C47.36 30.3133 47.1386 30.4053 47.1053 30.3466C46.964 30.0973 46.6573 30.0293 46.4973 29.8893L45.9373 29.4026C45.3586 28.8986 45.0186 28.2186 44.4253 27.8026C44.4946 27.8506 43.536 26.1306 43.468 26.0333C43.2893 25.7826 43.3426 25.5266 43.2426 25.2986C42.8306 24.348 42.6333 23.432 42.5333 22.3986C42.468 21.728 42.16 20.9746 42.5013 20.3186C42.776 19.792 43.0906 19.3026 43.128 18.6533C43.144 18.3733 43.2893 18.104 43.436 17.8973C43.44 17.856 43.3293 17.7786 43.3466 17.7626L43.5066 17.616C43.6666 17.468 44.1773 15.588 46.1426 14.4013C46.3666 14.2666 46.5946 14 46.816 13.9133C47.7133 13.5586 47.7266 12.828 50.2093 12.4426C50.3226 12.424 50.4346 12.2413 50.5226 12.26L51.2706 12.2106C51.6466 12.1853 51.884 12.6066 53.4906 12.0146C53.7626 12.2386 54.2186 12.2666 54.5439 12.3693C54.9533 12.4973 55.2813 11.852 57.7053 13.2853C60.3093 14.824 58.6519 14.124 59.5959 14.848C60.0546 15.1973 61.7093 17.0293 61.7933 17.4546C61.9119 18.0533 62.1013 18.5546 62.3226 19.084C62.4746 19.4466 62.4066 20.4386 62.4213 20.8213C62.4253 20.9306 62.6426 21.0346 62.6519 21.1413C62.6719 21.344 62.5119 21.4946 62.4973 21.6706C62.4706 21.984 62.6613 22.3466 62.5039 22.6453C62.5999 22.7213 62.7146 22.7 62.7186 22.7706C62.7266 22.9 62.5853 22.9453 62.4319 22.9786C62.5826 23.524 62.3093 24.0226 62.1573 24.496C62.0399 24.864 62.0013 25.2679 61.8586 25.5866C61.7173 25.9026 61.8893 26.1213 61.8599 26.3973C61.8026 26.9159 60.8079 28.0119 60.6293 28.3986C60.4533 28.7746 59.9146 28.9239 59.7146 29.2959C59.6186 29.4733 59.4666 29.5253 59.3613 29.6519C59.1453 29.9093 59.1053 30.4626 58.6799 30.4026C58.4866 30.3759 58.3239 30.5706 58.1359 30.6133C58.1386 30.7466 58.1133 30.8466 58.0493 30.8999C57.9706 30.9626 57.7906 30.9253 57.7386 30.9759C57.4079 31.2973 57.0119 31.3333 56.6173 31.5066Z" fill="#243D13"/>
<path d="M22.6692 14.7347C21.4932 14.692 20.5519 14.204 20.3439 12.9427C20.2693 12.4894 20.2853 12.0974 20.4786 11.6654C20.5426 11.524 20.4386 11.292 20.6093 11.1534C20.9812 10.852 21.2532 10.4827 21.5279 10.1214C21.3146 10.4014 22.1039 9.5267 22.1399 9.9547C22.2239 9.88536 22.2626 9.82403 22.3186 9.7907C22.3906 9.74803 22.4572 9.7707 22.5719 9.92936C22.8826 9.42937 23.3986 9.85336 23.7839 9.8387C24.6026 9.8067 25.2026 10.5054 25.2266 11.3094C25.2292 11.3747 25.4319 11.4694 25.4252 11.5734L25.3599 12.6734C25.3399 13.0054 25.1626 13.4387 24.9972 13.7347C24.5186 14.5934 23.5452 14.7667 22.6692 14.7347Z" fill="#243D13"/>
<path d="M52.1796 25.2134L53.1916 25.7654C53.661 25.5467 54.0863 25.2654 54.5876 25.1667C54.6676 25.1507 54.7716 25.3054 54.8223 25.2547C54.4436 25.6347 56.4143 23.3134 56.0343 23.5227C55.8396 23.1747 56.1983 22.5467 56.1516 21.8854C56.1223 21.4774 55.9556 21.0667 56.013 20.6614C56.0103 20.3734 55.677 20.1627 55.6556 19.86C55.6356 19.5747 55.3556 19.4 55.269 19.1667C54.9356 19.42 54.8583 18.8454 54.665 18.816C54.4143 18.7787 54.2876 18.7027 54.0876 18.5694C53.9943 18.508 53.7303 18.6107 53.6236 18.572C53.449 18.508 53.4516 18.3427 53.285 18.1907C53.145 18.4467 53.3716 18.5987 53.1556 18.6707C53.0156 18.716 52.921 18.6614 52.781 18.628C52.533 18.568 52.297 18.8094 52.0636 18.8467C51.9943 18.8574 51.901 18.6867 51.845 18.752C51.7876 18.8214 51.7583 18.9027 51.7116 18.9694C51.5543 19.1934 51.2276 18.9814 51.0663 19.104C50.997 19.1574 50.469 19.608 50.2996 19.5347C49.7477 20.8214 49.237 21.3334 49.817 22.6054C49.9863 22.9747 49.7823 23.564 50.1916 23.848L51.009 24.4134C51.121 24.492 51.4196 24.396 51.3423 24.636C51.317 24.7147 51.2903 24.7854 51.3476 24.832C51.397 24.872 51.4343 24.8934 51.461 24.8347C51.4743 24.8067 51.5076 24.7667 51.581 24.7214C51.689 24.9614 51.9116 25.0667 52.1796 25.2134ZM53.025 28.2147C52.897 28.248 52.6956 28.0307 52.5023 28.056C51.957 28.1253 51.453 27.992 50.957 27.88C50.7116 27.8253 50.5223 27.8867 50.4116 27.624C50.2756 27.3067 49.761 27.2853 49.445 27.3267C49.5423 27.1813 49.5943 27.0773 49.4037 27.092C49.2903 27.1853 49.1557 27.1907 49.0917 27.1453C49.0423 27.108 49.1357 26.9 49.0837 26.8547C48.741 26.5493 48.4303 26.1653 48.1917 25.7494C48.0757 25.5467 47.753 25.3934 47.7303 25.1787C47.697 24.8507 47.589 24.5667 47.273 24.4827C47.2837 24.2894 47.3637 23.98 47.173 23.8494C46.8517 23.6267 47.0317 22.848 47.013 22.376C46.997 21.9827 47.0983 21.7107 47.1517 21.36L47.2983 20.4067C47.5263 18.9174 48.749 17.7387 49.993 16.9547C50.9543 16.3494 52.4316 16.3787 52.7343 16.172C52.781 16.14 52.7663 15.9894 52.8356 15.952C52.9143 15.9094 52.9876 16.052 53.0623 16.0587C53.585 16.1054 55.921 17.2134 56.489 17.5427C56.905 17.784 57.2356 18.2254 57.5916 18.5014C57.4436 18.7894 57.625 18.9534 57.7223 19.128C57.9143 19.48 57.9383 19.896 58.109 20.268C58.217 20.5014 58.533 20.7454 58.4503 21.0707C58.025 20.8947 58.8316 22.272 58.3196 23.1214C58.1903 23.3374 58.3156 23.6934 58.2423 23.9267C58.1423 24.2427 57.9836 24.5 57.8636 24.78C57.553 25.508 57.1876 26.0654 56.6356 26.6067C56.2956 26.94 56.0343 27.412 55.529 27.5347C55.485 27.5453 55.393 27.456 55.353 27.472C55.2836 27.4973 55.289 27.692 55.221 27.7107C54.9263 27.7947 54.6316 27.98 54.3356 28.0173C53.8463 28.0773 53.933 27.9773 53.025 28.2147Z" fill="#243D13"/>
<path d="M53.9635 22.9559C53.2369 23.5559 53.0875 23.7292 52.3449 23.6479C52.0969 23.6199 51.6715 23.5586 51.6289 23.2652L51.4862 22.2772C51.5222 22.1786 51.6222 21.9826 51.5942 21.8279C51.8955 21.7839 52.0035 21.4212 52.1315 21.2146C52.5169 20.9639 53.0222 21.0172 53.4302 20.8306C53.4382 21.2012 53.7209 21.2319 53.8182 21.4266C54.1542 22.0946 54.0249 22.1999 53.9635 22.9559Z" fill="#243D13"/>
</svg>
