<svg width="91" height="83" viewBox="0 0 91 83" fill="none" xmlns="http://www.w3.org/2000/svg">
<path d="M30.2987 79.6171C30.4881 79.5518 30.5774 79.5558 30.7227 79.6198C30.7094 79.3078 30.5001 78.9518 30.1667 79.0425C30.0241 79.0811 29.9241 79.2771 29.7481 79.2971C29.9987 79.3451 30.1694 79.3731 30.2987 79.6171ZM63.3213 78.8558C63.2933 78.7945 63.284 78.7425 63.288 78.5931C63.4013 78.7438 63.7267 78.7705 63.8053 78.6118C63.8373 78.5438 63.6893 78.2891 63.616 78.3118C63.2307 78.4291 62.8253 78.5065 62.4813 78.7051L62.8267 78.9505C62.856 78.8011 62.852 78.7118 62.9227 78.6625C63.0133 78.6011 63.62 79.5105 63.3213 78.8558ZM57.9813 80.4158L58.8187 79.6265C58.804 79.3278 58.8867 79.0558 58.7973 78.7745C58.7053 78.4838 58.3773 78.2705 58.068 78.2878C57.1507 78.3385 57.524 78.1291 56.3947 78.6545C56.2133 78.7385 56.0973 78.9105 55.8613 78.8131C55.756 79.1011 55.572 79.2451 55.28 79.3878C55.2867 79.6678 55.192 80.0651 55.3587 80.3131C56.1653 81.5158 57.372 80.3798 57.9813 80.4158ZM31.9921 80.2998C32.6561 80.5905 33.3014 80.1518 33.5587 79.5865C33.7307 79.2078 33.7654 78.8545 33.5481 78.5038C33.3774 78.2291 33.0921 78.1131 32.6974 78.0225C32.1374 77.8931 31.2387 78.1625 31.2854 78.8585C31.3094 79.2118 31.5827 79.5025 31.1414 79.9638C31.6041 79.8518 31.6907 80.1678 31.9921 80.2998ZM26.6801 80.8451L27.1187 81.0945C28.5534 80.6731 27.5814 80.7211 28.2721 80.2345C28.6481 79.9705 29.0121 79.5851 29.1481 79.1451C29.2854 78.7038 29.0614 78.3065 28.7307 78.1185C27.8321 77.6091 27.3681 78.8571 26.9081 78.9998C26.8107 78.9651 26.6827 78.8358 26.6201 78.8038C26.5681 78.7771 26.4894 78.9185 26.4187 78.8945C26.3001 78.8558 26.2681 78.7491 26.1947 78.8198C26.1281 78.8838 26.0961 78.9451 26.1467 79.0611C26.1947 79.1705 26.4787 79.1678 26.5174 79.3238C26.4401 81.0451 27.2427 80.3105 26.6801 80.8451ZM25.1147 77.8531C25.2054 77.7611 25.3094 77.6878 25.3387 77.6358C25.3787 77.5651 25.3454 77.4118 25.2561 77.3785C24.5134 77.7531 24.2694 76.6611 23.0321 78.2731C22.7828 78.5985 22.8241 78.9451 23.0054 79.2358C23.1814 79.5185 23.5267 79.6105 23.9147 79.5185C24.6361 79.3451 25.0494 78.5798 25.1147 77.8531ZM57.7373 77.2785C57.9253 77.3171 57.976 77.3678 58.0187 77.3065C58.0947 77.1998 58.256 77.0798 58.208 76.9811C58.1093 76.7798 57.7227 76.9051 57.5787 77.0171C57.4267 77.1358 57.4573 77.5625 57.5667 77.6798C57.768 77.6638 57.7267 77.4611 57.7373 77.2785ZM51.6453 77.7745C51.5053 77.8025 51.34 77.8358 51.372 77.9358C51.388 77.9811 51.4787 78.0251 51.5893 78.0745C51.452 78.4465 51.5187 78.8078 51.7333 79.0211C52.0307 79.3198 52.46 79.4745 52.844 79.2811C53.5853 78.9065 55.0827 77.4625 54.4107 76.7798C53.5107 75.8638 51.9413 78.0691 51.9827 77.3585C52.1453 77.3131 52.204 77.2665 52.1933 77.1745C52.1853 77.1158 52.2027 77.0331 52.1227 77.0358C52.004 77.3065 51.7787 77.3611 51.56 77.2985C51.4747 77.4585 51.564 77.6291 51.6453 77.7745ZM62.7027 73.1411C62.892 73.1305 62.9907 72.8865 63.0947 72.7518C63.22 72.8118 63.2653 72.8305 63.32 72.7878C63.432 72.6998 63.4667 72.5865 63.464 72.4758C63.452 72.1198 63.1373 72.5291 62.6 72.6491C62.4453 72.6825 62.5213 73.1491 62.7027 73.1411ZM70.108 68.1505C69.8093 68.5612 69.9066 69.2838 70.444 69.4545C71.2346 69.7065 72.132 69.2558 72.636 68.6132C73.1933 67.8998 73.5453 67.1238 73.7146 66.2252C73.7613 65.9812 73.5293 65.4465 73.276 65.4265C72.2013 65.3465 72.3533 65.8358 71.988 66.0692C71.748 66.2225 70.9413 67.0065 70.8413 67.1438L70.108 68.1505ZM78.2986 67.6958C78.7279 67.8598 78.9186 67.8025 79.2226 67.5705C79.4799 67.3758 79.8386 67.3398 80.0653 67.0852C80.5373 66.5558 81.0599 66.0185 81.1399 65.3078C81.1853 64.9012 80.9386 64.7412 80.6666 64.6358C80.1373 64.4305 79.7786 64.7438 79.3266 65.0198L78.3959 65.5905C78.3706 65.6052 77.18 66.7412 77.7773 67.5425C77.876 67.6745 78.0906 67.6172 78.2986 67.6958ZM84.0333 69.0492C84.2653 69.2625 84.6239 69.0278 84.8026 68.8252C85.4799 68.0598 85.8533 67.1185 85.9986 66.0972C86.0599 65.6718 86.3413 65.2372 86.3093 64.8198C86.2693 64.2785 85.6213 64.1332 85.2199 64.2398C84.7826 64.3545 84.5279 64.5998 84.5319 64.9998C84.1493 65.1318 84.0333 66.1638 84.0133 66.2198C83.9413 66.4212 83.7266 66.4958 83.7759 66.7878C83.8293 67.1078 83.3413 68.4132 84.0333 69.0492ZM67.336 63.1478C67.276 62.6398 66.924 61.7678 66.492 61.6865L66.108 62.0532C65.6186 62.5198 65.352 62.8812 65.3653 63.6558C65.3773 64.3358 65.396 65.0572 65.828 65.5892C66.1426 65.9785 66.58 66.1598 67.04 65.9652C67.9813 65.5692 67.4373 63.9945 67.336 63.1478ZM84.6066 61.3252C84.6679 61.1772 84.5439 61.1518 84.4799 61.1492C84.3853 61.1465 84.3453 61.2052 84.2706 61.2745C84.1639 61.3745 84.0813 61.5532 84.2039 61.6265C84.2679 61.6625 84.4079 61.7412 84.4786 61.6972C84.5653 61.6425 84.5426 61.4772 84.6066 61.3252ZM53.7373 63.3318C54.0293 63.3945 54.3173 63.2945 54.4587 63.1612C54.6493 62.9785 54.6373 62.6665 54.5707 62.4038C54.4493 61.9265 54 61.7052 53.6213 61.4585C52.916 61.0012 51.0427 59.3812 50.348 60.2798C49.32 61.6118 52.052 62.9678 52.6333 63.0932L53.7373 63.3318ZM69.704 59.3705C69.484 59.3092 69.4226 59.3012 69.288 59.2305C69.1773 59.4985 68.9426 59.6625 68.8693 59.9692C69.256 60.0198 69.288 59.4878 69.704 59.3705ZM72.5933 60.9038C72.8293 60.8598 73.1613 61.0718 73.408 60.9892C74.4506 60.6425 75.732 58.2239 74.9626 57.1425C74.6306 56.6772 73.812 57.1292 73.6306 57.4452C73.5946 57.5065 73.388 57.4572 73.3386 57.5052C73.292 57.5519 73.3253 57.7505 73.264 57.7772C72.9666 57.9065 72.9453 58.1519 72.8933 58.3705C72.8666 58.4825 72.4826 58.4932 72.5026 58.6758C72.5146 58.7838 72.6066 58.9158 72.644 59.0265C71.9573 59.3145 72.16 60.3145 72.5933 60.9038ZM78.6719 58.4092C78.3613 58.8478 78.6013 59.6452 79.1279 59.6852C79.8559 59.7398 80.3199 59.0572 80.4959 58.4652C80.7119 57.7385 80.9479 56.3825 80.9733 55.6852C80.9853 55.3719 80.8813 54.8399 80.5306 54.7825C79.3906 54.5945 79.4279 55.4812 78.9866 56.0612C78.9586 56.0972 79.0493 56.2465 79.0039 56.2745C78.7413 56.4305 78.8733 56.6385 78.6586 57.4345C78.6319 57.5345 78.8026 57.7305 78.6533 57.8585C78.4399 58.0425 78.7599 58.2852 78.6719 58.4092ZM37.348 58.4119C38.508 58.2039 38.7747 57.3692 39.0534 56.3799C39.0827 56.2772 39.5814 55.0732 39.2107 54.8359C38.7027 54.5105 37.9454 55.0532 37.8307 55.1652C37.2387 55.7505 36.9747 56.5732 36.7854 57.3519C36.9947 57.6439 37.0374 57.9345 36.7814 58.1412C37.0454 58.1172 37.2507 58.1385 37.348 58.4119ZM85.0119 58.6799C85.8506 58.7719 86.4119 58.2145 86.5066 57.4425C86.5959 56.7199 86.6493 53.7852 85.4279 54.0492C84.9306 54.1559 84.8693 54.7345 84.8346 55.1279C84.8119 55.3852 84.6306 55.6065 84.8919 55.8292C84.6893 56.0065 84.7226 56.2265 84.8639 56.3919C84.4199 56.2945 84.9239 58.5732 85.0119 58.6799ZM69.98 53.9705C69.7613 53.8132 69.448 53.8052 69.1653 53.9719L68.0773 54.6092C67.7826 54.7825 67.5626 55.0679 67.3013 55.3092C66.984 55.5999 66.8253 56.0679 66.6066 56.4479C66.3666 56.8652 66.6013 57.4172 67.04 57.5425C68.8893 58.0732 71 54.7092 69.98 53.9705ZM54.6053 55.9905C54.9893 55.2759 53.9907 54.4945 53.4587 54.2065C53.108 54.0159 52.7467 53.9572 52.4413 53.6319L51.9387 54.0399C52.0413 54.1439 52.1813 54.1705 52.1907 54.2679C52.2 54.3625 52.0613 54.4172 51.98 54.5292C52.1707 54.6959 52.3853 54.9345 52.4947 55.1865C53.012 56.3772 54.4027 56.3652 54.6053 55.9905ZM82.1599 53.7092C82.2159 53.5692 82.1706 53.3732 82.2613 53.3412C82.3893 53.2972 82.5106 53.4452 82.5799 53.4279C82.6666 53.2919 82.4706 53.1492 82.3426 53.0972C82.2799 53.0705 81.8253 53.4479 81.9333 53.5892C81.9813 53.6519 82.0999 53.8625 82.1599 53.7092ZM67.936 52.9372C67.752 52.4399 67.4933 53.2225 67.008 53.2585C67.06 53.9385 67.5706 53.0279 67.936 52.9372ZM75.2266 52.8479C75.2786 52.7732 75.176 52.5905 75.2866 52.5372C75.3413 52.5119 75.4586 52.5359 75.5613 52.5332C75.5893 52.3092 75.8026 52.2639 75.9733 52.1172C75.4493 52.1425 75.0213 52.3759 74.5093 52.4572C74.5266 52.3385 73.7813 53.1959 73.7826 53.1599C73.7746 53.2985 73.8066 53.4039 73.8933 53.5452C74.2613 52.7785 75.0493 53.1052 75.2266 52.8479ZM79.4319 52.8105C79.5226 52.6545 79.5279 52.5199 79.6666 52.5252C79.7826 52.5292 79.8679 52.5039 80.0026 52.5852C79.9906 52.3745 79.8919 52.2505 79.9333 52.0519C79.7959 51.9705 79.1159 52.5412 79.1706 52.7065C79.1959 52.7825 79.3773 52.9039 79.4319 52.8105ZM88.6706 49.1585C88.6813 48.7412 88.4253 48.7439 88.2679 48.7385C88.1626 48.7345 88.0026 48.6959 87.9693 48.9212C88.2119 49.0319 88.4519 49.1679 88.6706 49.1585ZM44.2814 49.9599C44.6267 49.6412 44.9267 49.0705 44.944 48.5332C44.9574 48.1265 44.5067 47.7932 44.212 47.7199C43.7774 47.6119 43.4854 47.8639 43.1547 48.0825C42.404 48.5812 41.7214 49.2865 41.6667 50.1919C41.6454 50.5239 41.788 50.7945 41.9627 50.9225C42.204 51.0972 42.4414 51.1199 42.772 51.0265C44.04 50.6639 43.6867 50.5105 44.2814 49.9599ZM88.2453 48.5999C88.4826 48.5412 88.4066 48.2905 88.3386 48.1212C88.2653 47.9372 88.4093 47.7439 88.2253 47.6759C88.0933 47.6265 87.8426 47.4985 87.8106 47.6385C87.8986 47.8425 87.8879 48.0412 87.9799 48.1865L88.2453 48.5999ZM35.8654 50.8612C36.3841 50.7679 36.3734 50.4465 36.5361 50.1065C36.8374 49.4799 36.9547 48.8972 36.6121 48.2145L36.1014 47.1959C35.9627 46.9199 35.1254 47.1985 35.0547 47.2305C34.9294 47.2865 35.0614 47.5145 35.0027 47.5679C34.7907 47.7639 34.7841 47.9585 34.7814 48.2345C34.7747 48.9732 34.3961 50.4425 35.1707 50.8719C35.3614 50.9772 35.6374 50.9039 35.8654 50.8612ZM87.8359 47.4279C88.0666 47.1612 87.7319 47.0265 87.9666 46.8385C87.5039 46.2426 87.9226 46.3372 87.4719 45.6665C87.4426 45.6239 87.3439 45.7652 87.2999 45.7959C87.3053 45.7919 87.6093 46.8839 87.5146 46.6599L87.8359 47.4279ZM29.3854 46.2186C29.2907 45.7919 29.2441 45.3826 28.9254 45.0346C28.7121 45.5092 28.0987 44.9705 27.9201 45.0505C27.5054 45.2359 27.4161 46.4039 27.3467 46.9985C27.2854 47.5279 27.5694 48.0852 28.1174 48.1399C28.8827 48.2172 29.5814 47.0999 29.3854 46.2186ZM56.768 47.1985C56.4933 47.0439 56.2747 46.7785 55.936 46.6985C55.5973 46.6199 55.3867 46.3505 55.1147 46.1959L53.944 45.5279C53.764 45.4252 53.4773 45.5146 53.2987 45.3292C53.096 45.1199 52.82 45.1719 52.584 45.0919C51.904 44.8626 51.176 44.7919 50.4734 44.6985L49.916 44.6252C49.8987 45.0559 50.064 45.3959 50.3733 45.6292C51.668 46.6052 52.9813 47.5345 54.5027 48.1252C54.796 48.2399 55.1627 48.1185 55.2787 48.5572C55.5813 48.0652 55.8627 48.7265 56.252 48.7345C57.1627 48.7505 57.9773 49.6252 58.3747 49.1759C58.5147 49.0185 58.4613 48.7612 58.3053 48.6452C57.5573 48.0892 58.0173 47.9065 56.768 47.1985ZM86.3519 44.0546C86.4053 44.1532 86.6519 44.0252 86.6906 43.9266C86.8439 43.5332 86.3239 43.3972 86.2186 42.9559C86.1373 43.0666 86.0799 43.0479 85.9679 43.0746C86.0626 43.2546 86.2173 43.2892 86.3626 43.3786C86.1986 43.4732 86.1333 43.6266 86.1826 43.7292C86.2199 43.8066 86.2653 43.8986 86.3519 44.0546ZM36.8454 42.0812C36.7747 42.3866 36.2041 42.6559 36.4774 42.8186C36.5321 42.8506 36.6254 42.9532 36.6734 42.8892C36.9267 42.5599 36.9694 42.8546 36.8454 42.0812ZM85.9413 42.2346C85.8119 42.0212 85.7693 41.8092 85.6493 41.5146C85.4826 41.7786 85.4853 42.1012 85.7239 42.3546C85.7933 42.3306 85.8466 42.2906 85.9413 42.2346ZM24.5441 44.3639C24.8294 44.8319 25.4801 45.1906 25.9014 44.8052C26.3681 44.3772 26.1507 43.7159 26.0947 43.1572C26.0201 42.4106 25.6081 41.5732 24.7454 41.5759C24.3507 41.5772 24.2267 42.3012 24.3427 42.5732C24.2787 42.6812 24.1214 42.7612 24.1121 42.8292C24.1201 42.7679 24.2974 43.9572 24.5441 44.3639ZM41.832 44.5172C42.8627 43.8532 44.1334 42.2732 43.4614 41.4306C43.3534 41.2946 43.1094 41.2026 42.8427 41.1226C42.248 40.9412 40.8 41.9026 40.6507 42.4359C40.472 43.0746 40.2947 42.7372 40.4974 43.7639C40.456 43.8972 40.2454 43.9412 40.308 44.1039C40.4014 44.3506 41.124 44.9732 41.832 44.5172ZM27.8227 40.1746C27.8907 40.5292 28.3361 40.8212 28.6547 40.8972C28.7507 40.7252 29.0187 40.6972 29.1467 40.6026C29.7654 40.1359 29.7667 39.3559 29.7747 38.6226C29.7801 38.1639 29.6467 37.4959 29.1187 37.5092C28.6601 37.5199 28.3654 38.0706 28.0321 38.1626C28.0867 38.2732 28.1841 38.2999 28.2094 38.4266C27.9921 38.5519 27.7081 38.7919 27.8161 39.0506C27.9201 39.3012 27.6867 39.4652 27.7214 39.6452L27.8227 40.1746ZM60.744 40.3292C60.4573 40.1559 60.2267 40.0052 59.964 39.8746L59.0653 39.4279C58.7507 39.2719 58.544 39.1866 58.164 39.1786C57.8667 39.1732 57.5733 38.8292 57.2533 38.8666C56.824 38.9159 56.512 38.7559 56.144 38.5852C55.968 38.5039 55.6627 38.7292 55.512 38.4319C55.4667 38.5506 55.4827 38.6399 55.4027 38.7252C55.0347 38.1372 54.708 38.4746 54.2813 38.1932C53.7893 38.3039 53.348 38.0692 52.8827 38.0106C52.6187 37.9772 52.44 38.0612 52.176 37.8692C51.88 37.6532 51.392 37.8132 51.0707 37.6212C50.9067 37.5239 50.7787 37.4026 50.6333 37.3906C50.4547 37.3759 50.3827 37.4492 50.1973 37.5866C50.0694 37.2186 49.6307 37.3666 49.4694 37.2226C49.184 36.9652 48.9854 36.7746 48.6294 36.6826C48.0707 36.5399 47.6707 36.0052 47.1307 35.8372C46.9934 35.7946 46.828 35.8132 46.728 35.6906C46.672 35.7199 46.6014 35.8186 46.56 35.7999C46.5014 35.7746 46.4947 35.6226 46.3987 35.6652C46.1574 37.6506 47.42 37.2052 48.1094 38.0879C48.1814 38.1799 49.6814 38.9359 49.9587 39.0279C51.1053 39.4079 51.996 39.7426 53.2373 39.7852C53.5187 39.7946 55.7347 40.6252 55.7133 40.6226C56.184 40.7012 56.528 40.9466 56.9747 41.1452L59.1053 42.0919C59.452 42.2466 62.268 43.7252 62.372 43.8426C62.528 44.0159 62.688 43.9879 62.82 44.0786C63.468 44.5226 64.0973 44.8226 64.88 45.0146C65.2053 45.0946 65.7426 45.0279 65.712 44.6599C65.6413 43.8492 63.5693 42.2959 63.5533 42.2732L63.2453 41.8399L60.744 40.3292ZM35.6001 38.8412C35.7574 38.8052 36.4121 39.5092 36.7747 39.1866C37.9667 38.1292 37.872 35.9612 36.8174 35.6452C36.5014 35.5506 36.2854 35.7439 36.0534 35.8492C35.6654 36.0239 35.5001 36.2586 35.3334 36.6319C34.8827 37.6452 35.0401 37.7119 35.6001 38.8412ZM70.668 38.5199C70.4906 38.3572 70.376 37.9866 70.116 37.9026C70.06 37.8852 69.976 38.0679 69.9453 38.0332C69.9146 37.9972 69.912 37.8572 69.8546 37.7626C69.4533 38.3452 69.628 37.5532 68.448 37.4346C68.0546 37.3959 67.7573 37.1452 67.3933 37.0372C67.192 36.9759 66.8773 37.0852 66.7066 36.9039C66.0493 36.2026 65.52 37.0519 65.016 36.2079C64.9546 36.1052 64.852 36.0146 64.8 36.0812C64.7493 36.1452 64.736 36.2039 64.6666 36.3226C64.568 36.2666 64.6013 36.1466 64.544 36.0586C64.4107 36.0892 64.3213 36.0866 64.2546 36.0559C64.0013 35.9386 64.1947 35.5359 63.996 35.5079C63.9493 35.5012 63.8053 35.5599 63.7653 35.5172C63.4867 35.2172 63.0627 35.0506 62.8253 34.7679C62.612 34.5119 62.3813 34.5119 62.18 34.3732C60.5893 33.2892 60.8773 33.2253 58.968 32.5146L58.2387 32.2439C58.5307 32.3519 56.2933 31.7493 56.4173 31.8506C56.3373 31.8853 56.3 32.0066 56.2293 32.0533C55.6667 31.7426 55.0067 31.7853 54.4227 31.6079L53.6213 31.3639L52.3773 31.1319C50.6414 30.8093 49.0174 30.3599 47.5014 29.4599C46.748 29.0133 46.0854 28.5399 45.5614 27.8399C45.496 27.7546 45.2787 27.7333 45.196 27.6893C45.1534 27.6653 44.6987 27.9719 44.6894 28.0759C44.684 28.1293 44.808 28.3039 44.7694 28.3453C44.5867 28.5346 44.5014 28.6626 44.5387 28.9066C44.5734 29.1266 44.7067 29.3106 44.9614 29.3973C45.2867 29.5079 45.4947 29.7506 45.764 29.8893C46.2307 30.1306 46.544 30.5453 46.916 30.9053C47.172 31.1533 47.516 31.2426 47.7947 31.4746C48.0774 31.7079 48.5347 31.6653 48.8294 31.8759C49.0307 32.0199 49.1787 31.9746 49.3827 32.0199C50.496 32.2652 51.556 32.5546 52.6947 32.6412C53.1893 32.6786 53.6667 32.9266 54.18 32.8946C54.6253 32.8666 55.0387 32.9812 55.4627 33.0412C56.6 33.2026 57.6453 33.5066 58.6133 34.1279C59.228 34.5212 59.7987 34.8746 60.3707 35.3572C61.2693 36.1159 62.3613 36.5799 63.424 37.0519L66.332 38.3439L68.496 39.5479C70.0306 40.4012 71.6773 40.2026 73.8146 42.0106C74.1493 42.2946 74.604 42.4026 74.908 42.7652C75.14 43.0426 75.4666 43.2119 75.8533 43.2759C76 43.3012 76.1226 43.0412 76.136 42.9066C76.1626 42.6372 75.856 42.4506 75.5146 41.7812C75.4613 41.6746 75.1813 41.6519 75.144 41.4546C75.0893 41.1546 73.824 40.2026 73.4946 39.9466C72.748 39.3679 71.996 38.8386 71.06 38.6399C71 38.5306 71.0213 38.4639 70.9733 38.4452C70.9266 38.4279 70.728 38.5746 70.668 38.5199ZM71.1026 27.0799C71.1346 26.8413 71.0973 26.6719 71.0933 26.4693C70.88 26.3999 70.7466 26.3013 70.5906 26.1639C70.4653 26.2373 70.4413 26.3399 70.312 26.4573C70.548 26.6613 70.7093 26.9106 71.1026 27.0799ZM66.8813 29.0933C66.648 29.0319 66.5133 29.0013 66.3173 28.8146C66.188 28.7546 65.8786 28.8573 65.7573 28.8386L65.312 28.4279C65.0706 28.6373 64.7773 28.5653 64.5627 28.3826C64.5347 28.3586 64.6466 28.2933 64.632 28.2613C64.6133 28.2213 64.5187 28.1973 64.46 28.0973C64.3413 28.1373 64.3213 28.3159 64.0946 28.3493C64.0426 28.0013 63.7467 27.6519 63.4267 27.7786C63.3453 27.8106 63.3333 28.0199 63.2267 28.0186C63.48 28.0213 62.7733 27.8879 62.732 27.7293L62.6387 27.3639C62.52 27.4506 62.4173 27.8426 62.384 27.5479C62.1907 27.5399 62.0813 27.4413 62.02 27.2719C61.9293 27.2919 61.8613 27.4079 61.8147 27.3893C61.78 27.3746 61.7453 27.2613 61.6947 27.2626C61.4493 27.2706 61.208 27.1586 61.0427 27.0386C60.9333 26.9599 60.6773 26.9733 60.5293 26.8919C60.5027 26.8773 60.416 27.0546 60.3973 27.0773C60.3773 27.1013 60.3053 27.0639 60.2893 27.0186C60.28 26.9879 60.356 26.9319 60.3613 26.8319C59.9547 26.8919 59.9107 26.3226 59.484 26.5199C59.388 26.5639 59.4013 26.7079 59.264 26.9119C59.196 26.6399 58.96 26.6026 58.7787 26.4573C58.6347 26.3426 58.5773 26.0826 58.3573 26.0533C57.8933 25.9933 57.5653 26.3773 57.456 26.1079C57.4067 25.9866 57.404 25.9039 57.324 25.8333C57.1827 25.7093 57.0093 25.9599 56.6707 25.7546C56.5973 25.7106 56.572 25.5386 56.468 25.5719C56.388 25.5973 56.3493 25.6719 56.2 25.7413C55.9867 24.9519 55.1267 25.4253 54.996 25.2666C54.9427 25.2013 54.92 25.0386 54.8493 25.0239L54.2307 24.8919C53.928 24.8279 53.6493 24.6213 53.352 24.7199C53.1653 24.5959 52.992 24.1906 52.664 24.2119C52.4853 24.2239 52.4227 24.4559 52.3267 24.5719C52.1027 24.3586 51.8813 24.2333 51.604 24.1893C51.5013 24.0519 51.492 23.9186 51.3427 23.7773C51.16 24.0573 51.0134 23.8959 50.812 23.9053C50.452 23.9213 50.2653 23.4639 50.0413 23.2973C48.8307 23.1919 47.392 21.8559 46.3 21.2146C45.8894 20.9719 45.5494 20.5919 45.1147 20.4066C44.8027 20.2746 44.516 20.2253 44.3107 19.9386C44.2387 19.8386 43.976 19.8333 43.9694 19.6186C43.84 19.6946 43.8014 19.7466 43.7134 19.8213C43.5454 19.6066 43.464 19.6799 43.3227 19.8013C43.148 19.9506 43.376 20.0386 43.3574 20.1559C43.292 20.5653 43.3094 20.9226 43.5694 21.2773C44.4894 22.5359 45.604 23.8266 47.0507 24.3399C48.5614 24.8733 48.0214 25.3146 50.6507 25.9173C52.0813 26.2453 53.3867 26.8186 54.7693 27.2879L56.508 27.8759C57.7067 28.2826 58.8827 28.6439 60.1133 28.9733C60.4347 29.0586 60.776 29.0906 61.0667 29.1826L62.1027 29.5146C62.3787 29.6026 62.588 29.6533 62.8627 29.7693L66.0626 31.1186L71.1333 33.5586C71.8933 33.9239 72.632 34.3532 73.3133 34.8226C73.724 35.1066 74.0426 35.2852 74.4986 35.4999C74.8013 35.6412 75.1333 35.9839 75.424 36.1932C76.1506 36.7172 76.6613 37.4306 77.3466 38.0052C78.3346 38.8346 79.2079 39.7386 79.9626 40.7999C80.1999 41.1346 80.5773 41.8239 81.0946 41.5199C81.3839 41.3279 81.1373 40.7212 81.1186 40.4386C81.0053 38.6732 78.7106 36.1092 77.4333 35.1426L76.3293 34.3066C76.1826 34.1959 75.988 34.0612 75.8746 33.9506C75.588 33.6692 75.2853 33.5119 74.9613 33.2706L74.4186 32.8666C73.9426 32.5119 73.4466 32.5079 72.796 31.7893C72.1573 31.9666 71.7106 31.6186 71.4013 31.0413C71.1786 31.1426 71.2853 31.3626 71.116 31.3906C71.024 31.2786 71.148 31.1173 71.0946 31.1333C71.0093 31.1559 70.9506 31.0466 70.912 31.0599C70.868 31.0759 70.8466 31.2453 70.756 31.2239C70.616 31.1919 70.74 31.0253 70.7213 30.9639C69.1253 30.9399 70.068 29.6119 69.368 30.4306C69.404 30.1999 69.208 29.9733 68.992 29.8066C68.856 29.7026 68.716 29.7559 68.452 29.7386C68.468 29.8466 68.436 29.9146 68.3853 29.9506C68.356 29.9733 68.2893 29.9546 68.2613 29.8626C68.26 29.6866 68.204 29.6399 68.136 29.8226C68.0333 29.9093 67.0693 29.1413 66.8813 29.0933ZM23.2841 19.9386C23.4401 19.8879 25.3747 18.5826 25.2974 18.164C25.1881 17.8066 24.8427 17.552 24.7121 17.24C24.5694 16.8973 24.4121 16.8853 24.1227 16.78C23.7987 16.6613 23.4601 15.876 22.9374 15.8066C22.4921 15.748 22.1468 15.6146 21.7814 15.3306C21.6041 15.192 21.2214 15.4186 21.0534 15.3493C20.6988 15.2066 20.4228 15.204 20.0668 15.2693C19.8454 15.3093 19.6388 15.2533 19.3748 15.34C18.5561 15.6066 17.6361 15.8706 17.0774 16.592C16.7494 17.0146 17.0281 17.704 17.2588 18.076L17.6428 18.6986C18.0454 19.3506 18.5374 20.0466 19.3361 20.2573C19.8708 20.3986 21.8414 20.4319 22.3468 20.3066C22.6561 20.2306 22.9681 20.0426 23.2841 19.9386ZM22.9748 13.888C23.6774 14.1613 24.2721 14.4786 24.8854 14.8226C25.4121 15.1173 26.3334 16.6546 27.1174 16.008C27.9641 15.312 26.2894 14.1013 25.7721 13.624C25.1921 13.0906 24.0001 12.468 23.3001 12.2746L22.5308 12.0626C22.1121 11.9466 21.9454 12 21.5894 12.008L20.2281 12.036C19.6881 12.048 18.3308 12.2573 17.8654 12.4786L16.8241 12.972C16.3174 13.212 15.8601 13.72 16.1614 14.3146C16.3228 14.6346 16.7614 14.3613 16.9734 14.3373C17.3161 14.2973 17.5388 14.192 17.8441 14.068C19.4681 13.408 21.2974 13.2373 22.9748 13.888ZM27.2961 9.83197C27.4107 9.74931 27.4827 9.62264 27.3881 9.53464C27.3734 9.52131 27.0147 9.46931 26.9134 9.64398C26.8534 9.74931 26.8854 9.82931 26.9681 9.89331C27.0614 9.96531 27.1587 9.93197 27.2961 9.83197ZM32.2401 9.93597C32.5881 10.3493 31.8894 9.98797 32.6121 10.824C32.7747 10.624 32.6734 10.4613 32.6601 10.2933C32.6401 10.0266 32.9401 9.88531 33.0027 9.67864C33.0947 9.37464 33.2094 9.00798 33.4214 8.77731C33.3267 8.64931 33.4534 8.52665 33.4907 8.39998C33.8734 7.09598 34.0401 7.87598 34.2401 6.75598C34.6027 6.63332 34.5334 6.37465 34.6547 6.16532C34.7894 5.93332 35.1547 5.81865 35.1867 5.44532C35.8921 5.18399 35.2454 4.89999 35.9867 4.96265C36.1787 4.71999 36.0534 4.17466 35.7787 4.08399C35.6081 4.37866 35.3454 4.36399 35.1187 4.45199C35.0001 4.49866 34.0787 5.04532 33.8574 5.12799C33.5374 5.24799 33.2401 6.23332 33.0147 6.26798C32.9841 6.32132 33.0227 6.46798 32.9707 6.45865C32.8894 6.44398 32.8534 6.40265 32.7374 6.39998C32.8241 6.54132 32.7201 6.66132 32.7361 6.77198C32.7427 6.82265 32.9481 6.84265 32.9347 6.91198C32.9201 6.99332 32.8081 7.03065 32.7521 7.03198C32.7187 7.03198 32.6947 7.01332 32.5641 6.97198C32.6547 7.36798 32.6921 7.75331 32.4467 8.11465C32.2921 8.34398 32.3761 8.91998 32.3107 8.93998L32.0801 9.01198C32.0814 9.12931 32.3414 9.13864 32.3574 9.25331C32.3241 9.38131 32.1241 9.42531 32.1134 9.54798C32.1041 9.64797 32.1321 9.80798 32.2401 9.93597ZM20.5588 1.936C20.7601 1.74 20.6948 1.19333 20.4494 1.13066C20.2681 1.08266 20.1201 1.128 20.0388 1.17866C19.9361 1.24266 19.8828 1.53866 20.0161 1.58133C20.2094 1.64266 20.3708 1.856 20.5588 1.936ZM52.9627 69.6358C53.02 69.5825 52.132 69.3225 52.0413 69.2572C51.6253 68.7078 51.7227 69.4398 51.148 69.1838C51.0387 69.1358 51.0693 69.0478 51.1347 68.8492C51.012 68.8798 50.9747 68.9238 50.8933 68.9198C50.8227 68.9172 50.7827 68.8425 50.7267 68.7772C50.532 68.5478 50.32 68.7172 50.092 68.8038C49.8014 68.9145 49.264 68.6812 49.168 68.3692C49.0667 68.0385 48.7587 67.6985 48.3947 67.7118C48.1774 67.7198 48.0534 67.8252 47.8507 67.6772C47.7414 67.5985 47.572 67.6158 47.5134 67.4772C47.4467 67.3145 47.496 67.2105 47.564 67.0198C47.3307 67.4505 46.1947 66.6358 46.0267 66.5598C45.764 66.4412 45.4454 66.3985 45.316 66.1132C44.6947 66.0945 44.8747 65.8798 44.584 65.8118C44.5334 65.7998 44.4334 65.9612 44.3707 65.9185C44.024 65.6838 43.9587 65.2518 43.9214 64.9505C43.508 65.1652 43.2374 64.5932 43.2334 64.2718C43.232 64.1252 43.0947 64.1078 43.0334 63.9785C43.5894 63.9452 43.8254 63.1225 43.8934 62.9572C43.9654 62.7838 44.0747 62.7265 44.0667 62.4745C44.064 62.4238 44.7494 61.5185 44.384 61.3705C44.888 61.1585 44.9067 60.7332 45.5587 60.1305C45.768 59.9372 45.6934 59.6318 45.7454 59.4812C45.8027 59.3198 46.1534 59.3159 46.136 58.9305C46.128 58.7639 46.42 58.6772 46.504 58.4185C46.4574 58.3505 46.3227 58.4559 46.1827 58.2985C46.52 58.2639 46.552 58.0039 46.7187 57.8039C46.9214 57.5599 47.0654 57.3039 47.0734 57.0065C47.0747 56.9532 47.2907 56.9252 47.2547 56.8505C47.2294 56.7959 47.1934 56.7425 47.1107 56.6719C47.2387 56.5519 47.4254 56.4825 47.5374 56.3039C47.5974 56.2092 47.3907 56.0865 47.42 56.0172L47.7974 55.1532C47.9214 54.8719 47.876 54.5292 48.28 54.4239C48.28 54.1412 48.468 53.8185 48.416 53.5599C48.3427 53.2025 48.6347 52.9852 48.7054 52.6972C48.7987 52.3172 48.728 51.9265 48.9014 51.5039C48.9574 51.3639 48.8134 51.0585 48.8427 50.8652C48.864 50.7252 48.3867 50.7132 48.356 50.8399C48.4494 51.2239 48.2254 51.5545 47.9147 51.7679C47.8547 51.8092 47.9187 51.9932 47.916 52.0612C47.9107 52.1679 47.7547 52.1879 47.636 52.2639C47.7387 52.3879 47.864 52.2505 47.9014 52.4105C47.652 52.5759 47.2467 52.7425 47.2187 53.0665C47.1987 53.3012 47.336 53.4652 47.1694 53.5945C46.9787 53.7425 46.88 53.8545 46.6054 53.7212C46.628 53.8612 46.716 53.9119 46.724 54.0412C46.424 54.0999 46.4707 54.4145 46.392 54.5719C46.2654 54.8305 45.8347 55.1852 45.78 55.4759C45.724 55.7839 45.6267 55.8559 45.4507 56.0439C45.688 55.7905 45.108 56.6052 44.916 56.5372C44.8427 56.5119 44.8174 56.4292 44.72 56.3345C44.6054 56.5199 44.7614 56.6972 44.8534 56.9012C44.728 56.9119 44.6454 56.8545 44.5707 56.8785C44.3387 56.9559 44.372 57.5639 44.1454 57.7119C43.8014 57.9372 43.1654 58.4599 43.332 58.9065C43.2374 58.9305 43.1387 58.8785 43.096 58.8932C42.9107 58.9559 43.0187 59.5505 42.776 59.1345C42.8494 59.3972 42.6627 59.4852 42.524 59.6692C42.4494 59.7679 42.628 60.0412 42.4 60.1345C42.1307 60.2438 42.0734 60.5158 41.9747 60.7398C41.388 62.0625 40.908 61.3572 41.4094 62.1732C41.32 62.2678 41.26 62.1385 41.1174 62.1305C41.1267 62.3878 40.704 63.5185 40.5254 63.7318C40.4014 63.8812 40.4734 64.1865 40.3294 64.3798C40.2987 64.4212 40.396 64.4998 40.4014 64.5345C40.4134 64.5998 40.236 64.6092 40.2187 64.6705L39.8427 65.9918L39.6814 66.6945C39.6307 66.9172 39.6027 67.2065 39.516 67.4638C39.408 67.7905 39.2014 68.1105 39.4894 68.4878C39.3347 68.5252 39.2787 68.4892 39.2427 68.5092C39.2067 68.5278 39.1334 68.6758 39.1654 68.7252C39.3454 68.9972 38.9614 69.3145 38.9894 69.5185C39.0294 69.8198 38.9014 70.1585 38.788 70.3892C38.8854 70.1918 38.6374 71.4158 38.676 71.3892C38.596 71.4451 38.4907 71.3625 38.3014 71.3598C38.6974 72.6305 37.8587 72.1771 38.3174 72.5998C37.996 72.6531 38.1427 73.0038 38.0587 73.1305C37.7107 73.6545 37.492 74.8718 37.2374 75.4198C37.3214 75.4598 37.388 75.4571 37.4174 75.4785C37.4934 75.5345 37.44 75.5798 37.4174 75.6038C37.3947 75.6291 37.2014 75.6131 37.1907 75.6545C37.1401 75.8358 37.1 76.0545 36.9227 76.1278C36.9041 76.1958 36.9614 76.3158 36.9374 76.3665C36.9134 76.4158 36.8187 76.4505 36.7574 76.5011C36.8174 76.8771 36.4334 77.1358 36.3321 77.4411L36.2587 77.6638C36.2401 77.7225 36.0987 77.6038 36.0241 77.6251C35.9841 77.8065 36.1654 77.9091 36.2281 78.0971C36.0907 77.9198 35.7067 78.8905 35.8147 78.9118C35.1641 78.9798 35.0841 80.4651 34.6107 80.7358L33.9414 81.1185C34.1827 80.9811 32.3987 81.4785 32.4014 81.4798L31.7147 81.3331C31.4707 81.2811 31.3027 81.1291 31.0921 81.1051C30.8534 81.0771 30.7401 81.3891 30.4574 81.1558C30.3361 81.0558 30.2334 80.8758 30.3401 80.6211C30.2387 80.5638 30.1814 80.5105 30.1534 80.5745C29.9641 81.0038 29.6534 80.5505 29.2427 80.7585C29.0881 80.8358 29.1494 81.0958 29.0454 81.1891C28.9881 81.2411 28.8107 81.2091 28.7227 81.2358C28.5827 81.2798 28.7134 81.5585 28.6347 81.6105C28.3974 81.7665 28.1614 81.8638 27.9521 82.0745C27.6387 82.3851 27.0574 82.3531 26.6801 82.3185C26.5694 82.3625 26.4681 82.5598 26.3427 82.5278C26.2267 82.4985 26.0441 82.3585 26.0201 82.1971C25.9761 81.9025 25.8081 81.7265 25.6987 81.4865C25.5934 81.2545 25.6894 80.8905 25.4401 80.6758C25.4601 80.5531 25.5774 80.4345 25.5347 80.3731C25.4841 80.2985 25.3254 80.1345 25.2067 80.1958C24.9227 80.3438 24.6267 80.3465 24.3481 80.4731C24.2481 80.5185 24.1681 80.7011 24.1148 80.6865L23.7694 80.5958C23.3294 80.4811 22.6534 81.1558 21.9988 81.0958C21.8921 81.2331 21.9041 81.3731 21.7961 81.4745C21.7041 81.3598 21.7681 81.3025 21.7601 81.2278C21.7561 81.1878 21.7214 81.1318 21.6601 81.1971C21.6294 81.2305 21.6134 81.2798 21.5561 81.3545C21.4654 81.2211 21.3561 81.1078 21.1948 81.0225C21.2161 80.8931 21.3028 80.8265 21.2668 80.6785C21.1534 80.7385 21.1601 80.8651 20.9361 80.8998C20.9668 80.1558 20.6068 80.3798 21.1401 79.3771C21.1921 79.2771 21.2894 79.2358 21.3201 79.1465C21.3548 79.0478 21.2641 79.0105 21.1801 78.8278C21.4681 78.8305 21.6721 78.6318 21.8441 78.4665C21.8761 78.4358 21.7721 78.2998 21.7481 78.2638C21.7094 78.1998 21.8228 78.1371 21.8854 78.1131C21.9548 78.0878 22.0401 78.1518 22.1614 78.1865C22.0748 77.8878 22.1334 77.6758 22.3481 77.5038L23.2281 76.7998C23.1814 76.8371 24.5827 75.4531 24.4841 75.5305C24.7294 75.3371 24.9174 75.1865 25.0627 74.9598C25.1067 74.8931 25.7761 74.3065 26.1627 73.6998C26.3107 73.4651 26.6987 73.2891 26.5934 72.8905C26.8027 72.8798 26.9001 72.6865 27.0227 72.5718C27.4947 72.1305 27.8254 71.6878 28.1267 71.1598C28.1507 71.1198 28.9494 70.0318 28.9481 70.0958C28.9507 70.0118 28.9201 69.9012 28.7627 69.8145C28.7667 69.6518 29.0187 69.7385 29.0881 69.6598C29.3467 69.3732 29.3481 68.8865 29.5721 68.5865C29.7854 68.2998 29.6507 68.0425 29.7267 67.7865C29.8187 67.4745 30.1641 67.2665 30.1254 66.8452C30.1054 66.6172 30.2747 66.3238 30.3667 66.1092C30.5294 65.7292 30.4121 65.3318 30.5147 64.9958C30.7214 64.3252 30.7961 63.3585 30.7747 63.4545C30.8534 63.1105 30.9401 62.8052 30.9707 62.4345C30.9974 62.1065 31.2187 61.8252 31.1201 61.4585C31.0654 61.2572 31.1961 60.9665 31.1614 60.7585C31.0934 60.3465 31.1881 60.0385 31.3227 59.6905C31.4627 59.3332 31.3681 58.9919 31.4001 58.6692C31.4241 58.4239 31.5547 58.2198 31.5441 57.9185C31.5281 57.4572 31.7601 56.9479 31.4947 56.4652C31.5521 56.2385 31.8201 56.0452 31.8054 55.8412C31.7227 55.5319 31.8187 55.3892 31.8627 55.1079L32.0574 53.8879C32.1027 53.6065 32.0921 53.4492 32.0601 53.2385L31.9294 52.3772C31.8774 52.0385 31.9747 51.8292 31.9334 51.4732L31.8214 50.5172C31.7787 50.1492 31.9241 49.6985 31.5254 49.4612C31.6747 49.3639 31.7201 49.3399 31.6027 49.3052C31.5147 49.2799 31.4667 49.1892 31.4321 49.2239C31.3921 49.2639 31.3121 49.8399 31.3107 49.7999C31.3187 49.9465 31.4827 49.9919 31.5867 50.0319C31.3494 50.1852 31.3387 50.4039 31.3401 50.6265C31.0934 50.6505 31.0601 50.7519 31.3121 50.7292C31.4574 50.7545 31.3721 50.8492 31.2761 50.9052C31.2121 50.9425 31.1427 50.8719 30.9547 50.8412C30.8694 50.9612 31.1161 51.0212 31.1201 51.1425C31.0787 51.3652 30.9401 52.3385 31.3281 52.4252L30.8507 52.7079C30.8974 52.8452 31.0881 52.9105 31.0734 53.0572L30.7761 53.0665C30.6294 53.0705 30.8561 53.1959 30.9121 53.5185C30.9307 53.6292 30.7881 53.6505 30.6294 53.6865C30.6881 53.7252 30.8174 53.7839 30.8067 53.8599C30.8107 53.8332 30.1574 54.6679 29.8374 54.6519C29.5627 54.6385 29.5054 54.2039 29.4027 54.0505C29.1747 53.9879 29.0587 54.2665 28.9054 54.4092L28.5241 53.9279C28.2947 53.9185 28.2201 53.7399 28.0534 53.6292C26.7601 52.7759 27.4494 52.2359 26.7161 52.1599C26.6481 52.0065 26.7294 51.7879 26.5214 51.6519C26.3654 51.5492 26.3721 51.5065 26.1161 51.5439C25.8187 51.5879 25.7067 51.0039 25.6134 50.7705L25.2827 50.2559C24.9121 50.2825 24.9001 49.8372 24.7281 49.6785C24.4654 49.4345 24.2534 49.1692 24.2161 48.7505C23.9948 48.6892 23.7614 48.5519 23.6694 48.2372C23.5321 47.7705 23.2228 47.3519 23.0241 46.8599C22.9254 46.6119 23.0148 46.2665 22.7668 46.0479C22.6174 46.7425 21.9948 44.5572 21.9654 44.4266C21.7334 43.3986 21.5988 43.4692 21.5801 42.3119C21.5761 42.0972 21.2401 41.7986 21.4774 41.5292C21.4601 41.4106 21.2921 41.2692 21.3001 41.1666C21.5121 40.8226 21.3334 40.4666 21.3681 40.1866C21.3961 39.9559 21.5708 39.7586 21.3294 39.5532C21.3148 39.4572 21.5241 39.3666 21.5321 39.2692C21.5374 39.1999 21.3694 39.1359 21.3548 39.0572C21.3374 38.9652 21.5228 38.8439 21.5148 38.7732C21.4348 38.5572 21.3828 38.3652 21.5294 38.1159C21.5801 37.9706 21.4014 37.7906 21.3708 37.6226C21.5374 37.6039 21.5708 36.4586 21.6414 36.2999C21.8121 35.9172 22.2281 35.4026 22.6521 35.3599L23.8934 35.2332C23.2041 35.3039 24.9547 34.9546 25.3054 34.9359C25.4001 34.9319 25.4707 34.7532 25.5601 34.7852C25.6574 34.8186 25.6814 34.9252 25.8507 35.0079C25.9401 34.8759 25.7867 34.7666 25.8401 34.6332C26.2041 34.5412 26.6121 34.6172 26.9441 34.4719C26.8347 34.5199 27.6267 33.9612 27.9241 34.1906C27.9907 34.0959 27.9734 34.0252 28.0227 34.0172C28.1067 34.0039 28.2494 34.0746 28.2987 34.0492C28.4134 33.4172 29.4001 33.8786 29.8987 33.1159C30.0401 32.8999 30.9641 32.4746 30.6867 32.5492C30.7587 32.5306 30.8361 32.5839 30.9054 32.7093C31.0921 32.8293 31.1814 32.6906 30.9254 32.5386C31.2321 31.9359 32.0961 32.3893 31.8107 31.7199C31.9454 31.6986 32.0414 31.7893 32.1387 31.7253C32.0934 31.5613 32.0547 31.4119 32.1147 31.4039L32.4334 31.3613C32.5294 31.3493 33.4547 29.8853 33.4201 29.9599C33.6001 29.5799 33.7214 29.1733 34.0387 28.8399C34.1307 28.7426 34.1401 28.5319 34.1814 28.4319L34.4707 27.7319C34.8014 26.9319 35.1694 26.6693 35.1681 25.7906C35.1681 25.4813 35.8961 24.0079 35.6747 23.5053C35.5867 23.3013 35.7494 23.0986 35.7574 22.9079C35.7721 22.6053 35.6481 22.3093 35.8094 22.0066C35.4721 21.7426 35.3761 21.2333 35.3227 21.2173C34.6241 20.9973 35.2441 22.0973 34.4934 22.4119C34.5481 22.4479 34.6454 22.5053 34.6787 22.6333C34.3694 22.7013 34.4587 22.9893 34.4347 23.1226L34.3267 23.7346L34.1961 24.4626L33.9107 25.6466C33.9001 25.6906 33.5681 25.9839 33.3587 26.6559L33.1694 27.2586C33.0747 27.5639 32.1347 28.1879 32.5294 28.5879C32.4427 28.6466 32.3321 28.5906 32.1601 28.6426C32.2201 28.7306 32.3254 28.7719 32.3414 28.8706C32.3481 28.9133 31.6841 29.5293 31.5481 29.6519C31.2961 29.8773 31.1414 30.2533 30.9414 30.5053C30.9054 30.5519 30.7387 30.4559 30.6921 30.4839C30.6227 30.5239 30.6707 30.6426 30.6974 30.7946C30.2921 30.7373 29.9054 31.0106 29.8267 31.4079C29.5401 31.0986 29.6921 31.4279 29.4774 31.5666C29.4387 31.5919 29.3921 31.5159 29.3201 31.4146C29.2494 31.5239 29.2387 31.6346 29.1601 31.7293C29.0867 31.8173 28.8627 31.6826 28.8347 31.7533L28.6867 32.1173C28.5947 32.3466 28.4134 31.9719 27.7881 32.5386C27.4254 32.8679 26.9334 32.7506 26.5907 32.8786C26.1134 33.0586 25.7507 33.2746 25.2454 33.3626C24.8894 33.4252 24.5161 33.3919 24.1401 33.4972C23.9107 33.5612 22.7388 33.3919 22.6161 33.5199C22.5201 33.6199 22.4228 33.6786 22.2948 33.6772C22.1508 33.6759 22.1254 33.5092 22.0294 33.3319L21.3148 33.7772C21.2614 33.7026 21.2108 33.5866 21.1828 33.4946C21.1521 33.3919 21.0081 33.5426 20.9068 33.4946C20.5094 33.3066 20.0361 33.5026 19.7094 33.6066L19.3188 33.6186C19.1734 33.6226 19.0201 33.2626 18.8161 33.3679C18.6481 33.4546 18.5574 33.6866 18.3334 33.6972C18.2788 33.6999 18.2348 33.6306 18.1974 33.6079C18.1494 33.5772 18.0894 33.6826 18.0188 33.6906C17.9414 33.5306 17.8694 33.4079 17.7761 33.3612C17.5548 33.2532 17.4401 33.5559 17.3134 33.5866C17.1041 33.3079 16.4681 33.3279 16.4054 33.3879C16.3401 33.4492 16.3468 33.6626 16.1894 33.6946C16.1081 33.7106 16.0774 33.4839 16.0028 33.4639C15.9241 33.4412 15.7641 33.5186 15.7014 33.4799C15.5108 33.3599 15.4601 33.4306 15.2934 33.4626C15.2094 33.4786 15.1041 33.2386 15.0188 33.2786C14.7308 33.4119 14.6441 33.6586 14.4841 33.7146C14.3534 33.7599 14.3121 33.5652 14.2134 33.4826C14.1481 33.4279 14.0228 33.5239 13.9654 33.4986C13.8908 33.4652 13.8281 33.3026 13.7468 33.2879L13.1388 33.1852C13.0201 33.1652 12.9521 33.0399 12.8681 33.0346C12.7468 33.0266 12.6028 33.2399 12.5254 33.2093C12.3028 33.1199 12.1574 32.8239 12.0121 32.6239C11.8401 32.6892 11.7548 32.8492 11.6041 32.9346C11.5614 32.8319 11.5508 32.7679 11.5094 32.7119C11.4868 32.6799 11.3828 32.7453 11.3441 32.7093C11.2774 32.6479 11.2988 32.5532 11.2641 32.5039C11.0561 32.2119 10.8121 32.6946 10.3881 32.2306L10.0654 32.2653C9.90678 31.9359 10.1148 31.6759 10.1801 31.3613C10.2215 31.1626 10.1668 30.9999 10.2321 30.8293C10.2774 30.7119 11.6041 29.9186 11.2428 30.2079C11.6188 29.9066 11.9481 29.6506 12.4228 29.4599C12.6894 29.3519 12.8921 28.9546 13.2334 29.0093C13.3948 29.0346 13.9094 28.6426 13.9028 28.4626C13.9001 28.3893 13.8214 28.3039 13.7748 28.2639C13.6828 28.1853 13.5454 28.3519 13.4374 28.3933C13.3468 28.4266 13.2561 28.2813 13.1908 28.2866C12.8188 28.3159 12.9121 28.7333 12.5521 28.7359C12.3134 28.7386 12.2254 28.7866 12.1014 28.5386C11.9054 28.9159 11.6614 28.4906 11.3988 28.7893C11.3294 28.8666 11.3628 29.0866 11.2454 29.1399C11.1574 29.1813 10.9361 28.9706 10.8628 29.0479L10.5854 29.3359C10.5028 29.4213 10.3094 29.3666 10.1921 29.3959C10.0361 29.4359 10.1334 29.6586 10.0561 29.7066L9.09479 30.3053C8.47212 30.6946 7.95745 31.2866 7.66146 31.9613C7.60679 32.0839 7.79346 32.2319 7.51212 32.2399C7.42546 32.2413 7.38946 32.1292 7.21746 32.0853C7.31346 32.3292 7.41746 32.5039 7.29479 32.7199C7.64679 32.9359 7.14279 32.8972 7.05213 33.0919C7.01346 33.1759 7.22412 33.2999 7.20012 33.3639C7.21479 33.3239 6.66546 34.3079 6.36146 34.0666C6.39346 34.2252 6.51213 34.2012 6.55213 34.2626C6.61746 34.3612 6.45879 34.3826 6.42946 34.4492C6.21346 34.9426 5.74413 35.0519 5.2388 35.1212C5.00946 35.1532 4.76413 35.4439 4.52413 35.3586C4.28813 35.2759 4.1228 35.2666 3.87613 35.3306C3.78947 35.3519 3.6548 35.2199 3.5788 35.2079C3.45613 35.1852 3.3388 35.3479 3.20813 35.4146L2.4228 34.8599C2.28547 34.8759 2.2188 35.0746 2.1108 35.1879C1.9388 35.0479 1.8668 34.8799 1.74014 34.7386C1.66814 34.7786 1.65747 34.8652 1.54414 34.8786C1.4988 34.6332 1.70814 34.4532 1.59614 34.1666C1.44014 34.3799 1.51214 34.5972 1.42281 34.7812C1.13881 34.7026 0.988139 34.5612 1.04947 34.2866C1.06681 34.2119 1.07614 34.0746 1.03214 34.0346C0.997472 34.0026 0.894807 34.0692 0.848141 34.0066L0.728141 33.8452C0.682808 33.7839 0.557473 33.9519 0.489474 33.9399C0.0534747 33.8639 0.201476 33.2879 0.10681 33.0253C-0.0425235 32.6106 -0.0318576 32.4319 0.117475 31.9906C0.177475 31.8146 -0.121192 31.4906 0.166807 31.2333C0.28814 31.1266 0.0254755 30.8853 0.0574754 30.7639C0.366808 30.4639 0.308142 29.8986 0.338809 29.5706C0.342809 29.5226 0.616141 28.0626 0.565475 28.1999L0.71614 27.7986C0.74814 27.7106 0.640141 27.5746 0.477475 27.4893C0.849474 27.3746 0.878806 27.1679 0.933473 26.8946C1.03614 26.3786 1.47347 25.8279 1.65881 24.7879C1.7428 24.3213 2.2388 23.6626 2.2668 23.2493C2.30014 22.7559 2.74814 22.5586 2.99747 21.4293C3.05347 21.1786 3.4228 20.9626 3.46013 20.5959C3.48813 20.3013 3.84546 20.1133 3.92146 19.8239C4.07346 19.2413 4.07347 19.3693 4.49213 19.0826C4.63746 18.9826 4.5148 18.772 4.57213 18.644C4.70413 18.3493 5.0748 18.2293 5.14946 17.9106C5.18946 17.7373 4.7348 18.0546 5.64813 17.1386C5.60946 16.856 5.64679 16.6613 5.89613 16.504C6.08679 16.3826 6.99879 15.2733 6.93346 15.0426C7.04146 14.9853 7.13212 14.96 7.16412 14.8973C7.21079 14.8026 7.19479 14.62 7.07612 14.5426C7.80946 13.996 7.81746 14.1573 7.88012 13.584C7.85879 13.776 8.89745 12.712 8.76945 12.9L9.42145 11.9453C9.55078 11.756 9.71345 11.608 9.73078 11.4133C10.0028 11.244 10.5735 11.244 10.7121 10.8893C10.8894 10.4333 11.9774 9.70131 12.0761 9.60131C12.2628 9.41064 12.3441 9.18531 12.6788 9.20664C12.9721 9.22398 13.0508 9.02131 13.1694 8.87864C13.5641 8.40398 14.1814 8.29731 14.7374 8.12265C14.8521 8.08665 14.9254 7.90531 15.0561 7.87465C15.1534 7.85198 15.2468 7.81731 15.3828 8.01331C15.5614 7.61865 15.8908 7.43465 16.2588 7.22398C16.4054 7.14132 16.4721 6.87065 16.7641 6.93198C16.8788 6.30532 16.5708 5.72265 16.5974 5.23199C16.6481 4.28666 16.4014 3.65199 16.6534 3.50532C16.6268 3.43466 16.5588 3.37732 16.5388 3.34132C16.5041 3.27866 16.6668 3.16533 16.6641 3.11066C16.6428 2.63066 16.7681 2.29866 16.9841 1.89866L17.3228 1.27466C17.4721 0.998664 17.6654 0.863998 17.9201 0.807998C18.6414 0.651998 18.7148 -0.0653331 19.4748 0.161333C19.5721 0.190666 19.7788 -0.0653332 19.8961 0.189333C19.9974 0.195999 19.9748 0.133333 20.0121 0C20.4254 0.194666 22.0081 0.506665 21.9948 1.028C22.0974 1.06 22.2668 1.02933 22.3281 1.07466C22.4174 1.14133 22.3681 1.32533 22.4014 1.39733C22.5561 1.512 22.7214 1.644 22.8628 1.83733L23.5548 2.78399C23.2668 3.09733 23.4307 3.32532 23.6094 3.59066C23.7427 3.79066 23.6374 4.11066 23.8494 4.35066C24.4321 4.19866 25.0187 4.32399 25.6041 4.38799L26.2827 4.45999C27.1121 4.54932 27.9014 4.69199 28.7121 4.85332C29.1934 4.95065 29.6094 4.97465 30.0134 5.26799C30.1574 5.37199 30.4614 5.27599 30.5841 5.20532C30.7321 5.11999 30.7654 4.84932 30.8161 4.65732C30.9454 4.16799 31.3107 3.80932 31.5401 3.38799C31.5721 3.32932 31.4947 3.20133 31.4947 3.14933C31.4947 3.05866 31.6081 2.99599 31.6947 2.93333L32.1987 2.56799C32.5401 2.31999 32.9467 1.816 33.4254 1.83866C32.4774 1.69466 34.0441 1.18666 34.1894 1.09333C35.0787 0.518665 34.5947 0.917331 35.8321 0.609332C36.2347 0.509332 36.4547 0.555999 36.8481 0.634665L38.124 0.890664C38.0494 0.875998 38.6347 1.12533 38.8187 1.50266C38.852 1.57066 39.0054 1.45333 39.0707 1.50933C39.6947 2.05066 39.7614 2.31333 40.3374 3.04399C40.3974 3.12133 40.1654 3.20266 40.1427 3.32132C40.3294 3.31066 40.5534 3.43732 40.5334 3.56799C40.104 3.81732 40.6387 4.67732 40.496 4.51065C40.5707 4.59865 40.704 4.58932 40.8414 4.67732C40.7454 4.89199 40.6227 4.68665 40.3894 4.64799C40.8294 5.48532 39.92 7.19598 39.7294 7.16665C39.6494 7.15331 39.5934 7.10531 39.4934 7.04931C39.4507 7.23065 39.5667 7.30798 39.592 7.48531C38.804 7.65065 39.3534 8.12265 38.7534 8.20131C38.7187 8.68531 38.0334 8.98664 38.08 8.99198C38 8.98264 37.9814 8.88398 37.8854 8.78664C37.7894 8.96131 37.8827 9.13731 37.9294 9.35198C37.5041 9.42531 37.2654 9.78131 36.9481 9.99197C36.7147 10.1466 36.7881 10.304 36.6987 10.492C36.7147 10.4573 35.9694 11.3933 35.9894 11.2973C35.9641 11.4213 35.9347 11.5826 36.0974 11.716C36.0854 11.7786 35.9667 11.8106 35.8987 11.7573C35.8467 11.7173 35.8067 11.652 35.7641 11.5773C35.6681 11.828 35.6321 12.0346 35.4387 12.1906C35.3227 12.112 35.3854 11.9786 35.2187 11.9666C35.4054 12.408 35.0627 12.6506 34.9147 12.8186C34.9387 13.2506 35.5587 13.2093 35.8441 13.204C36.1187 13.1986 36.2481 13.3093 36.5694 13.1613L37.4094 12.7733C37.7294 12.6266 37.9387 12.472 38.0307 12.1173C38.0987 11.8506 38.4747 11.7693 38.6334 11.5786C38.8467 11.3213 38.7427 10.9373 38.8427 10.636L39.052 10.008C39.204 9.54798 39.7534 9.79198 40.0147 9.72531C40.484 9.60664 40.66 9.70798 41.02 9.92797C41.2067 10.0413 41.3734 10.112 41.4467 10.416C41.5307 10.5533 41.8427 10.816 42.0107 10.8266C42.344 10.848 42.4467 11.1413 42.652 11.26L44.0614 12.072C44.528 12.3413 44.848 12.7186 44.8907 13.2746C44.9 13.4146 45.1387 13.5786 45.0014 13.8413L45.3454 13.6986C45.776 14.724 46.528 14.5026 46.528 15.368C46.6787 15.404 46.7414 15.5733 46.864 15.6693C47.052 15.8173 47.4187 15.8746 47.4987 16.148C47.5507 16.3266 47.528 16.504 47.68 16.6826C47.792 16.8146 47.9707 16.84 48.2174 16.7706C48.236 16.9573 48.152 17.1213 48.2347 17.22C48.7934 17.144 48.2147 17.2106 48.988 17.9693C49.0707 18.052 49.2547 17.9573 49.304 18.0186C49.3827 18.1146 49.4027 18.252 49.4654 18.3613C49.6587 18.6973 50.1347 18.704 50.404 18.952C50.5587 19.096 50.4854 19.3853 50.7667 19.5013C50.932 19.5693 51.12 19.64 51.3107 19.5013C51.3293 19.9666 51.8027 19.9746 52.524 20.4679C52.3747 20.3666 52.988 20.7306 53.1773 20.5839C52.984 20.7346 55.544 21.6933 55.8147 21.6839C56.3187 21.6666 56.9253 21.7453 57.4227 21.8253L58.4733 21.9959C58.696 22.0319 58.8987 22.0586 59.0667 22.1626C59.1493 22.2133 59.3813 22.1413 59.4693 22.3359C59.736 22.1266 59.9973 22.1946 60.2947 22.3719C60.5347 22.5146 60.9253 22.3999 61.2013 22.4973C62.2267 22.8599 63.1373 22.7506 63.7133 22.9239L64.64 23.2026C65.3813 23.4253 65.5186 23.3706 65.8146 23.4626L66.772 23.7573C66.9466 23.8106 67.2426 23.7866 67.3613 23.8733C67.5693 24.0253 67.8346 24.0093 68.0333 24.0906C69.4026 24.6466 69.5746 24.5399 69.8973 24.6586C70.1733 24.7613 70.3146 24.9306 70.6466 24.9533C70.8613 24.9679 71.1226 25.3866 71.42 25.1426C71.664 25.4733 71.1853 25.6226 71.6146 25.4986C71.716 25.4559 72.0493 25.4626 72.124 25.5759C72.4026 26.0013 73.292 26.1746 73.6306 26.2973C73.8346 26.3719 73.9066 26.5666 74.2173 26.5919C74.5053 26.6146 74.652 27.1693 74.884 27.3173C74.9906 27.4413 75.2066 27.3359 75.3186 27.4306C75.6853 27.8599 76.2186 28.0999 76.5733 28.4759C76.7733 28.6866 76.8813 28.8946 77.2533 28.8626C77.5106 29.1426 77.8799 29.8706 78.2933 29.5999C78.3319 29.6759 78.2706 29.8399 78.3066 29.8986C78.3666 29.9933 78.5586 29.8973 78.6399 29.9773C79.5679 30.8933 78.6773 30.1839 79.4039 30.9866L79.5453 31.1413C79.5839 31.1853 79.6786 31.1213 79.7639 31.0479C79.9186 30.9146 79.8533 31.2119 79.9959 31.5439C80.0333 31.6319 80.1573 31.6013 80.3119 31.6466C80.5999 31.9479 80.6093 32.4333 80.8719 32.6559L81.3466 33.0559C81.3973 33.0986 81.2853 33.2293 81.2999 33.2826C81.3453 33.4572 81.8559 33.2666 82.1039 34.0332C82.1626 34.2132 82.4546 34.1372 82.5493 34.2359C82.7573 34.4479 82.6479 34.7772 82.7679 35.0052C82.8026 35.0719 82.9959 35.0079 83.0506 35.0359C83.1133 35.0666 83.1333 35.1972 83.2013 35.2506C83.7239 35.6719 83.2759 35.8532 83.6306 36.2092C83.7226 36.3012 83.8679 36.3092 84.0333 36.2452C84.0493 36.3532 83.9879 36.4119 84.0026 36.4572C84.0306 36.5452 84.1879 36.5279 84.2546 36.5906C84.5319 36.8599 84.4799 37.2812 84.7253 37.5599C84.7773 37.6212 84.9346 37.6066 84.9933 37.6479C85.0719 37.7039 85.0293 37.8506 85.0773 37.9439C85.4373 38.6506 85.7839 39.4439 86.0413 40.1719C86.0706 40.2559 86.3146 40.2439 86.3733 40.2706C86.4773 40.3199 86.7106 41.5106 86.7599 41.5879C87.1373 42.1759 87.4399 42.8106 87.5693 43.4919C87.8253 43.1599 88.3613 44.6812 88.2106 44.8465C88.1946 44.9412 88.2399 44.9506 88.3679 44.9426C88.5199 45.6172 89.1679 46.1399 88.6653 46.3905C89.2159 46.1185 89.1733 47.5412 89.2866 47.7785C89.4626 48.1452 89.7013 48.4865 89.6466 48.9025C89.6279 49.0412 89.8999 49.1879 89.7493 49.4252C89.5759 49.6959 90.4679 49.9425 90.0373 50.7359C90.7093 50.6012 89.8106 50.5665 90.3893 51.8052C90.6573 52.3812 90.4319 53.0425 90.6079 53.5372C90.7599 53.9625 90.6533 54.3705 90.6093 54.7652C90.5879 54.9519 90.6706 55.2479 90.6146 55.4345C90.7132 55.1092 90.6053 57.0479 90.6079 56.7679L90.6039 57.3399C90.5946 58.5439 90.2319 60.8425 90.0426 62.1878C90.0519 62.1212 89.4826 63.6478 89.5519 63.3305C89.4959 63.5918 89.4893 63.7945 89.3559 64.0612C89.0733 64.6265 88.8706 65.2438 88.6866 65.8572C88.5466 66.3278 88.5439 66.7945 88.2199 67.2345C88.2306 67.2198 87.6493 68.8825 87.5186 69.1465C87.4333 69.3198 86.7026 70.7985 86.5293 70.5705C86.2933 70.6318 86.6479 70.6412 86.5933 70.8038C86.0039 71.2012 86.4919 71.4692 86.0053 71.4332C85.8786 71.9238 85.3586 72.1572 85.0293 72.4318C84.7879 72.6318 84.7973 73.1438 83.5413 73.4891C83.4573 73.2891 83.3759 73.2238 83.3573 73.4251C83.3493 73.6451 81.6799 74.6838 81.6986 74.6971L81.4959 74.5345C81.5066 74.5425 81.2719 74.9638 81.1373 75.0465C80.2466 75.1958 79.6319 76.2265 78.9399 76.2585C78.6893 76.2705 78.4826 76.2238 78.2733 76.4745C78.2679 76.3251 78.2039 76.2665 78.1559 76.2105C78.0626 76.1025 77.9133 76.0185 77.8013 76.1931C77.7719 76.2398 77.7479 76.2891 77.7226 76.3371C77.7093 76.3651 77.6599 76.2998 77.6453 76.2785C77.6279 76.2518 77.6973 76.1758 77.6773 76.1211C77.6226 75.9718 77.496 76.1225 77.3133 76.2878L76.9319 75.5771C76.8839 75.4878 76.26 72.8105 76.5546 73.7091C76.5053 73.5598 76.3586 73.3771 76.3253 73.1745C76.264 72.8025 76.084 72.4371 75.7666 72.2785C75.672 72.2305 75.42 72.3945 75.5066 72.4691C75.764 72.6945 75.6053 72.9238 75.664 73.1731C75.6906 73.2865 75.932 73.3451 75.8493 73.4678C75.764 73.5918 75.6573 73.6345 75.4626 73.5771C75.5026 73.8571 75.792 73.8718 75.8573 74.1238C75.752 74.2945 75.484 74.5251 75.54 74.7358C75.6493 75.1518 76.1573 75.3905 76.024 75.5051C75.9986 75.5265 75.9613 75.5931 75.8906 75.5611C75.8346 75.5371 75.7973 75.4891 75.7293 75.4891C75.736 75.4891 76.0586 76.5438 75.588 76.7771C75.564 76.7891 75.468 76.7438 75.4546 76.7665C75.3906 76.8851 75.5786 76.9025 75.5826 76.9785C75.604 77.3878 75.1693 77.6558 74.9653 77.9745C74.8706 78.1211 74.9826 78.2918 74.7213 78.3945C74.5466 78.4625 74.6093 78.8198 74.4013 78.8585C73.6853 78.7411 73.948 79.5998 73.772 79.3878C73.58 79.1558 73.5293 79.5051 73.368 79.3158C73.324 79.2651 73.2853 79.2891 73.2613 79.3731C73.1106 79.5118 72.8053 79.5878 72.6093 79.6691C72.3333 79.4811 72.0933 79.6091 71.8626 79.7265C71.7066 79.7931 71.3293 79.8785 71.1666 79.8345C70.8653 79.7531 70.612 79.8971 70.3133 79.9571C70.072 80.0065 69.6586 79.5918 69.3933 80.0171C69.3306 80.1171 69.1013 80.1331 69.008 80.1145C68.864 80.0878 68.7786 79.9385 68.6533 79.7998C68.4813 79.6091 68.2733 80.3078 67.8906 79.9158C67.6786 79.6998 67.528 79.8158 67.4733 79.6785C67.3786 79.4385 67.3826 80.0265 67.156 80.1011C67.0906 80.1238 67.0853 79.9491 66.936 79.9505C66.9106 79.8971 66.8866 79.8731 66.8693 79.8851C66.4826 80.1478 66.936 79.9731 66.2026 79.7371C66.1693 79.7278 66.144 79.6278 66.136 79.6025C66.1173 79.5451 66.024 79.5598 65.9626 79.6291C65.7946 79.8225 65.688 79.8385 65.4786 79.7145C64.94 79.3985 64.3773 79.9491 64.5586 79.8971C64.5213 79.9078 64.4493 79.7571 64.416 79.7825C64.164 79.9771 63.7386 79.7931 63.476 79.8438C63.252 79.8878 63.1293 80.0531 62.824 79.9518C62.692 79.9078 62.444 80.1038 62.272 79.9705C62.0613 80.0531 61.9493 80.3331 61.724 80.3958C61.528 80.2411 61.24 80.1011 61.0387 80.2958C60.9413 80.3905 60.892 80.5051 60.764 80.5451C60.6853 80.5705 60.5467 80.4811 60.432 80.4611C60.2053 80.6691 59.856 80.7958 59.512 80.7118C59.3613 80.6758 59.3413 80.9785 59.252 80.9985L58.2067 81.2265L58.0053 81.5558C57.892 81.4078 57.8 81.3745 57.7267 81.3251C57.616 81.2491 57.5 81.4971 57.3973 81.5145C57.2653 81.5385 57.1627 81.3585 57.0867 81.3971C56.776 81.5505 56.7733 81.7718 56.6907 81.7211C56.652 81.6985 56.5973 81.6238 56.5333 81.6265C56.3893 81.6345 56.3347 81.8011 56.2453 81.8251C56.1467 81.8518 55.9987 81.7505 55.9413 81.6758C55.7827 81.4665 55.6693 81.7158 55.5693 81.7065C55.2613 81.6798 54.8733 81.6265 54.5653 81.6838C54.44 81.5811 54.2787 81.4265 54.1573 81.3398C53.98 81.2118 53.8373 81.3291 53.6 81.4385C53.544 81.2185 53.3453 80.7185 53.1147 80.6771C52.5453 80.5745 52.216 81.1358 51.512 80.8411C51.356 80.7758 51.0493 80.8905 50.8627 80.7625C50.7853 80.7145 50.5347 80.9651 50.4974 80.8078C50.4814 80.7425 50.536 80.6678 50.5213 80.6425C50.4467 80.5105 50.2734 80.7931 50.1214 80.7051C49.9454 80.6051 50.2574 80.4545 50.1454 80.2051C50.1227 80.1571 50.0347 80.1011 49.9734 80.1291C49.9254 80.1505 49.8734 80.2745 49.7667 80.3065C49.6054 80.0091 49.6014 78.7718 49.7854 78.4771C49.9 78.2945 50.004 78.1318 49.772 77.9425L50.3494 77.5865C50.5147 77.4851 50.3907 77.2825 50.4427 77.1651C50.4747 77.0931 50.68 77.0851 50.7934 77.0145C50.876 76.9625 50.8494 76.8198 50.924 76.6971C51.1894 76.2571 51.8413 76.0478 52.028 75.6185C52.2173 75.1811 52.592 75.3211 52.9613 75.1665C53.2213 75.0585 53.5707 74.8491 53.8493 74.7105C53.7507 74.7598 54.6707 73.7265 55.28 74.0505C55.3373 74.0811 55.4613 73.9865 55.5053 73.9518C55.556 73.9118 55.4653 73.7065 55.5227 73.7011L56.3693 73.6318C56.8027 73.5958 58.02 72.7785 58.1053 73.1638C58.1987 73.2265 58.2867 73.1438 58.2027 73.0025C58.4093 72.8185 58.7987 72.8211 59.02 72.5998C59.248 72.3731 59.4747 72.5105 59.6853 72.4492L60.5507 72.1998C60.8027 72.1265 61.0427 72.0545 61.2533 72.0198C61.384 71.9985 61.5427 71.8225 61.784 71.8385C61.9627 71.8492 62.1227 71.5132 62.3533 71.7211C62.396 71.5212 62.608 71.4452 62.6653 71.3212C62.6147 71.0278 62.5547 70.7665 62.5587 70.4798C62.3227 70.5932 62.512 70.7958 62.3013 70.9505C62.0213 70.6185 61.7747 70.4172 61.572 70.1158C61.6253 69.9532 61.756 69.8878 61.7027 69.7025C61.5707 69.7825 61.5147 69.8985 61.3827 69.9532C61.1453 69.7252 61.6587 69.4892 61.512 69.2198C61.3267 69.3092 61.3373 69.5145 61.1973 69.6038C60.3107 68.9972 61.2507 68.3678 60.2613 68.5212C59.9947 68.0692 59.8053 67.5478 59.4853 67.1292C59.0013 66.4945 58.792 64.4425 58.7427 63.5892C58.7213 63.2078 58.58 62.8398 58.6493 62.4385C58.732 61.9705 58.5987 60.2705 58.6827 60.0398C58.8867 59.4719 58.7347 58.6092 59.0173 57.9599C59.256 57.4132 59.2747 56.8585 59.4813 56.3039C59.6053 55.9652 59.8413 55.5812 59.96 55.2012C60.064 54.8639 60.904 53.7145 60.932 53.6359C61.0573 53.2785 61.3067 53.0079 61.5427 52.7305C61.5533 52.6519 61.5267 52.5759 61.548 52.5359C61.588 52.4599 61.7027 52.4199 61.8067 52.4412C62.0133 52.4839 62.2027 52.2905 62.16 52.0825C62.1453 52.0105 62.1613 51.9785 62.1907 51.9399C62.2227 51.8985 62.3413 51.9719 62.3893 51.9412C62.4787 51.8825 62.4627 51.6999 62.6387 51.7345C62.7307 51.7599 62.772 51.7265 62.672 51.6185C62.848 51.2865 63.296 51.0932 63.7013 51.1385C63.804 51.0159 63.8533 50.9119 63.9547 50.8212C64.5813 50.8505 64.2506 50.1359 64.5693 50.5065C65.0026 50.1559 65.268 49.9292 65.7893 50.1465C65.7893 50.0172 65.8026 49.9505 65.8306 49.8959C65.8946 49.7785 67.1893 49.7505 66.8133 49.7025L67.1 49.7385C67.172 49.7479 67.1733 49.5465 67.2413 49.4932C67.376 49.3865 67.756 49.4052 67.9293 49.5785C67.9866 49.4665 68.0266 49.2945 68.1226 49.2999L68.5986 49.3305C68.8493 49.3465 69.128 49.0239 69.4306 49.0972C69.4746 49.1079 69.5226 49.2265 69.584 49.2279C69.6186 49.2279 69.6533 49.1639 69.688 49.0692L71.3306 48.9172C71.696 48.8825 72.0706 48.7305 72.4733 48.7079C72.6506 48.6985 72.836 48.3145 72.8786 48.1905C72.0733 48.4959 72.3386 47.7585 71.7493 48.3692C71.5226 47.9505 70.5706 48.1039 70.5666 48.1065C70.4906 48.1492 70.476 48.3425 70.3773 48.3412C70.2573 48.3412 70.2413 48.1559 70.176 48.1172C69.928 47.9705 69.5493 48.3452 69.4746 47.9172C69.28 47.8012 69.0066 48.0679 68.844 48.0505C68.5866 47.9839 68.3373 47.9239 68.088 48.1892C68.0093 48.2679 67.8826 48.0052 67.8813 47.8599C67.784 47.9025 67.7653 47.9705 67.72 48.0252C67.656 48.1012 67.5253 47.9279 67.4666 47.9505C66.6293 48.2812 66.9106 47.9492 65.7746 48.2612C65.66 48.2932 65.504 48.1812 65.4026 48.2212C65.1893 48.3079 65.084 48.4345 65.024 48.6012C64.66 48.4532 64.4187 48.7905 64.2 49.0132C64.1 49.1132 63.8213 49.1519 63.736 49.2879C63.712 49.3265 63.5493 49.2132 63.5 49.2145C63.4427 49.2172 63.5213 49.3505 63.4867 49.3985C63.4067 49.5079 63.2067 49.5252 63.1507 49.7265C62.492 49.7519 61.9773 50.2172 61.848 50.8959C61.7333 50.8865 61.7293 50.8252 61.6773 50.6652C61.564 51.0412 61.336 51.1932 60.9707 51.2092C60.7693 51.2185 60.8147 51.6492 60.6933 51.7412C60.432 51.9412 60.2093 52.1065 60.2347 52.4479C60.1373 52.4465 60.0373 52.4052 60.0573 52.4665C60.0733 52.5185 60.112 52.5572 60.1693 52.6279L59.648 52.8799C59.5373 53.1185 59.376 53.2572 59.22 53.4545C59.1387 53.5572 59.2267 53.7452 59.1467 53.8119C59.0347 53.9065 58.9213 53.9812 58.7533 53.9705C58.792 54.1185 58.688 54.3559 58.64 54.4519C58.6173 54.4985 58.5293 54.4759 58.4307 54.4012C58.3333 54.4212 58.336 54.4812 58.4267 54.5345C58.4853 54.5679 58.5333 54.6025 58.5773 54.6119C58.6507 54.6279 58.644 54.7399 58.6107 54.8132C58.5893 54.8572 58.4987 54.8305 58.3947 54.8305L58.1573 55.3092C58.068 55.4905 58.0427 55.7092 57.9587 55.9292C57.8947 56.0972 58.0227 56.4239 57.8147 56.5745C57.868 56.6545 57.96 56.7359 57.9573 56.7865C57.956 56.8785 57.8333 56.9292 57.74 56.9985C57.604 57.1012 57.7347 57.2305 57.848 57.3452C57.1773 57.6385 58.244 58.7519 57.6213 58.7932C57.5973 58.8679 57.6587 58.9572 57.632 59.0012C57.24 59.4852 57.908 59.4478 57.616 60.1958C57.5493 59.9958 57.5027 59.9545 57.4707 60.1492C57.5067 60.2452 57.5067 60.3652 57.544 60.4012C57.5813 60.4372 57.7133 60.3732 57.7293 60.5052C57.7373 60.5692 57.5653 60.6172 57.5387 60.6772C57.492 60.7838 57.6 60.9238 57.5667 61.0465C57.5413 61.1452 57.3653 61.1425 57.336 61.1972C57.3813 61.1145 57.5053 62.3785 57.52 62.3412L57.336 62.7932C57.2453 63.0132 57.8307 63.2745 57.8347 63.9478C57.7067 63.9558 57.676 63.8598 57.6253 63.8572C57.5533 63.8532 57.6453 64.3652 57.6053 64.2452C57.6227 64.2972 57.7867 64.2185 57.7813 64.2932C57.772 64.4385 57.5373 64.5732 57.6227 64.6678C57.9827 65.0612 57.9987 65.1878 58.2413 65.7345C58.2867 65.8385 58.0627 65.8638 58.064 65.9292C58.0707 66.2545 58.056 66.7078 58.3093 66.9292C59.4427 67.9252 58.4853 67.6665 58.8667 67.8785C58.9067 67.9012 59.0693 67.7305 59.1093 67.7958C59.2347 68.0038 59.544 68.2238 59.6347 68.4172C59.8187 68.8092 59.956 69.0585 60.2653 69.3772C60.1787 69.2878 60.5987 70.1212 60.5707 70.2465C60.5547 70.3132 60.364 70.2892 60.324 70.3585C60.3347 70.5532 60.2867 70.8038 60.0213 70.8265C59.7787 70.8465 59.6147 71.0878 59.4027 71.1292C59.2413 71.1612 59.0933 71.0105 58.956 71.2198C58.8133 71.4412 58.74 70.8158 58.6387 71.0078C58.6253 71.0318 58.616 71.1798 58.5733 71.1812C58.284 71.1945 57.84 71.3065 57.5373 71.1665C57.1827 71.0025 56.8093 70.8372 56.436 70.7705C56.3427 70.7532 56.2747 70.5905 56.1773 70.5638C55.996 70.5158 55.904 70.6465 55.7013 70.7638C55.296 70.2972 55.4707 70.1558 55.1267 70.2118C55.028 70.2278 55.012 70.3318 54.8947 70.4905C54.8813 70.4198 54.4467 69.9785 54.392 70.0225C54.356 70.0505 54.308 70.1372 54.248 70.1505C54.0227 70.1958 53.916 69.8238 53.7773 69.8025C53.5533 69.7678 53.3293 69.6265 53.168 69.4505C53.1027 69.4492 52.9973 69.6025 52.9627 69.6358Z" fill="#243D13"/>
<path d="M15.9321 76.0945C16.1548 76.2145 16.2575 76.2278 16.3108 76.1665C16.6148 75.8158 15.9415 75.7945 15.8375 74.9358C15.8041 74.6531 15.4361 74.5185 15.2335 74.4651C14.9668 74.3945 14.7081 74.5678 14.4468 74.7331C13.5908 75.2798 13.2242 76.6145 14.0748 77.3385C14.7841 77.3465 15.4961 76.6371 15.9321 76.0945ZM19.5761 75.8505C19.8481 75.4745 19.6121 74.5625 19.0401 74.3918C18.2201 74.1465 17.4588 75.3718 17.5935 76.0011C17.6548 76.2905 17.8228 76.5251 17.9921 76.6238C18.7481 77.0691 19.2588 76.2878 19.5761 75.8505ZM13.0575 72.9225C13.0508 72.6585 12.8082 72.1478 12.4295 72.1398C11.6682 72.1265 10.8842 72.4251 10.2628 72.8438C9.86416 73.1118 9.80949 73.7665 10.0148 74.1331C10.7202 74.6771 13.0868 74.2451 13.0575 72.9225ZM16.0148 77.4611C15.4108 77.7745 15.5281 78.2811 14.6095 78.5531C14.2815 78.6505 14.0268 78.8678 13.6881 79.0105C13.4322 78.7171 13.0988 78.6931 12.7882 78.7211C12.7255 78.5785 12.5042 78.4825 12.4348 78.3718C12.1108 77.8558 12.8228 76.8025 12.4815 76.2731C12.5255 76.1345 12.7082 76.0265 12.6802 75.8665C12.6428 75.6558 12.4935 75.3571 12.2922 75.2611C12.1082 75.1745 11.9362 75.4731 11.7922 75.5505C11.6095 75.4811 11.5215 75.3305 11.3495 75.2198C11.2415 75.3985 11.1002 75.5185 10.9348 75.6465C10.9202 75.5705 10.9335 75.5291 10.9522 75.5025C11.0775 75.3158 9.98149 75.4451 10.1242 75.4118C9.94549 75.4531 9.90149 75.6785 9.63083 75.4651C9.54283 75.3958 9.53349 75.3371 9.54283 75.1611C9.52149 75.1065 9.33349 75.0038 9.30683 74.9198C9.28683 74.8531 9.17616 74.9811 9.05749 75.0331C8.69083 74.7531 8.73749 74.3251 9.00283 74.0251C8.85883 73.9745 8.90283 73.8851 8.92283 73.8278C8.96283 73.7198 9.11749 73.6571 9.25749 73.6265C9.19483 73.5731 9.12816 73.5398 9.08816 73.4878C8.98683 73.3571 9.20149 73.3465 9.26683 73.2745L9.66016 72.8358C9.95483 72.5065 10.1228 72.1171 10.5748 71.9651C10.8308 71.8785 10.9468 71.6758 11.1028 71.4278C11.1708 71.5265 11.2562 71.7318 11.3428 71.6065C11.4135 71.5065 11.2988 71.2785 11.4535 71.2025C11.8175 71.0211 11.9335 71.2851 12.3108 70.9931C12.4108 70.9158 12.3628 70.7598 12.3655 70.5958C12.4935 70.5931 12.5735 70.6358 12.6295 70.6411C12.7455 70.6505 12.7855 70.5158 12.8442 70.3931C12.9495 70.4118 13.0055 70.4785 13.1268 70.5545C13.3028 70.0465 14.4468 69.8025 14.6761 69.5665C14.8535 69.3838 14.9068 69.2771 15.2015 69.1665C15.3201 69.1225 16.0748 68.1985 16.1241 68.8331C16.4041 68.3251 17.0161 68.3331 16.7788 67.7345C17.3841 67.7145 17.6015 67.2398 17.8641 66.8825L18.1961 66.4318C18.4455 66.0918 18.5855 65.7438 18.7028 65.3158C18.7655 65.0932 19.0521 64.9585 19.0521 64.6158C19.0508 64.2945 19.7228 63.6452 19.3868 63.4012C19.7855 63.2318 19.7988 62.7518 19.8535 62.4332C20.0495 61.2932 20.0135 62.3345 20.2735 61.2238L20.6041 59.8052C20.7148 59.3358 20.9761 58.9225 21.0841 58.4452C21.2615 57.6652 21.8521 57.5332 21.5015 56.9665C21.6508 56.9225 21.7761 56.9065 21.8428 56.8425C21.9641 56.7265 21.7628 56.5825 21.7281 56.4878C22.7068 55.1185 21.9921 55.9945 22.4521 55.0065C22.5801 54.7318 22.6588 54.2572 22.8881 54.0332C23.0921 53.8345 22.9401 53.3519 23.6548 52.6519C23.8255 52.4852 23.7601 51.9145 24.1815 51.9532C24.5375 51.9852 24.8721 51.6679 25.3415 51.9932C26.2761 52.6399 26.0361 52.8652 26.8481 53.5545C26.7988 53.6479 26.7081 53.6105 26.6628 53.7625C27.1308 53.5559 27.2068 53.9132 27.4374 54.1372C27.7748 54.4638 28.0174 54.8532 28.3521 55.1598L29.8481 56.5372C30.1561 56.8212 30.6814 57.0132 30.7628 57.4918C30.7734 57.5545 30.5334 57.6385 30.5014 57.6892C30.4708 57.7398 30.4974 57.8172 30.5001 57.9412C30.3174 57.8665 30.1788 57.8945 30.0361 58.0038C29.9068 58.1012 29.9348 58.2518 29.9228 58.4372C29.9174 58.4892 29.7721 58.5492 29.7228 58.5638C29.6028 58.6038 29.7894 58.8025 29.7521 58.8598C29.6494 59.0212 29.3108 60.0438 29.4868 60.2625L29.2348 60.8972L28.9108 62.2625C28.9934 62.3105 29.0988 62.1918 29.2174 62.3118C29.1041 62.4265 28.9921 62.4358 28.9228 62.4785C28.8121 62.5465 29.0308 62.7892 28.9774 62.8412C28.8268 62.9838 28.7868 63.1025 28.7481 63.3332C28.6948 63.6558 28.4414 63.9532 28.6188 64.3212L28.2134 64.3612C28.5121 64.5332 28.4174 64.8665 28.2414 65.1212C28.1494 65.2532 28.4014 65.3825 28.4014 65.4718C28.4001 65.6785 28.1001 65.5638 28.0308 65.6345C27.9841 65.7318 28.1161 65.7745 28.1454 65.7852C28.2068 65.8092 28.1521 65.8932 28.1188 65.9252C28.0748 65.9638 27.9894 65.9398 27.8468 65.8785C27.9868 66.2158 27.8214 66.5278 27.5814 66.7852L27.7588 66.8785C27.7828 66.8918 27.7454 66.9812 27.7134 67.0012C27.6774 67.0225 27.6508 67.0038 27.5321 67.0252C27.5654 67.3838 27.4094 67.6692 27.1908 67.8891C27.1668 68.0585 27.2254 68.3465 27.1521 68.5358C27.1401 68.5811 27.2321 68.6251 27.2454 68.6545C27.2614 68.6905 27.2308 68.7665 27.1975 68.7718C27.1081 68.7878 27.0495 68.6451 26.8975 68.6611C26.9428 68.8518 27.0495 69.0091 27.0388 69.2278C27.0308 69.3771 26.8535 69.4998 26.6815 69.6678C26.7921 69.6838 26.9481 69.6091 26.9895 69.8238C26.6068 69.7998 26.4908 70.1278 26.4895 70.3531C26.4895 70.3625 25.7775 71.3358 25.7748 71.3011C25.8015 71.5771 25.6641 71.6171 25.5201 71.7678L24.7001 72.6318C24.5975 72.7411 24.3241 72.7225 24.2615 72.9051C24.2241 73.0118 24.2588 73.1705 24.1628 73.3638C24.1215 73.3958 24.0641 73.2451 24.0215 73.2225C23.9241 73.1731 23.9201 73.4318 23.8615 73.4451C22.9588 73.6371 22.9388 74.3985 22.0135 74.8331C21.6748 74.9931 21.4588 74.9625 21.2921 75.3278C21.2228 75.4771 20.9455 75.6718 20.9975 75.9358C20.5895 75.7891 20.4361 76.0465 20.2201 76.3478C20.0868 76.5358 19.8601 76.6678 19.8401 76.9118C19.7268 76.9518 19.4908 76.9838 19.4428 77.1451C19.4108 77.2518 19.3201 77.3865 19.4188 77.5598C19.3815 77.6785 19.1175 77.6465 19.0015 77.5825C18.8055 77.4745 18.6775 77.7838 18.5281 77.8198C18.2575 77.8865 18.0655 77.9278 17.9321 78.2705C17.7841 78.1158 17.8468 78.0038 17.7788 77.9665C17.6655 77.9038 17.5868 77.9665 17.4348 78.1278C17.4108 77.9811 17.4201 77.9331 17.3935 77.8531C17.3561 77.7398 17.0895 77.8585 17.0201 77.8465C16.9228 77.8305 16.9161 77.6638 16.8495 77.6198C16.7601 77.5638 16.5508 77.6291 16.4255 77.6798C16.2721 77.7425 16.2028 77.4371 16.0148 77.4611Z" fill="#243D13"/>
<path d="M49.0629 75.7291C49.1296 75.4491 48.8962 75.2811 48.8562 75.0997C48.8176 74.9211 49.0922 74.7984 49.1069 74.6237C49.1549 74.0437 48.8336 74.8664 48.4722 74.8744C47.3402 74.8971 46.6029 75.8557 46.7736 76.9624C47.1629 76.9357 47.4896 77.1037 47.8696 77.0211C48.4629 76.8944 48.9229 76.3211 49.0629 75.7291ZM46.8789 74.0411C46.9722 73.6517 46.6229 73.1637 46.2882 73.0117C45.3976 73.2877 44.4909 73.9771 44.0816 74.8664C43.9136 75.2277 44.2029 75.6411 44.4229 75.7797C45.4149 76.4024 46.6442 75.0117 46.8789 74.0411ZM51.0682 71.5864C50.9149 71.4144 50.7989 71.5331 50.7749 71.4478C50.7442 71.3371 50.7709 71.2864 50.7096 71.1664C50.5909 71.4091 50.5109 71.3878 50.5229 71.0838C50.3856 71.1358 50.4202 71.2851 50.3402 71.4264C50.1109 71.4118 49.9896 71.2558 49.9189 71.0571C49.8482 71.2451 49.7669 71.3451 49.6016 71.3904C49.5229 71.4118 49.4362 71.2464 49.3056 71.2451C49.1136 71.2438 49.1256 71.7638 49.2642 71.7398C50.2816 71.5611 50.0029 72.2211 51.0682 71.5864ZM47.0402 78.4757C46.8496 78.2624 46.6189 78.0717 46.3442 77.9211L46.2162 78.3144C45.6909 78.1304 45.4243 77.6837 45.3229 77.2544C45.2803 77.0744 45.5296 76.8157 45.3789 76.6811C44.9229 76.2704 44.6456 77.0277 44.5376 76.5491C44.4829 76.6837 44.3589 76.6904 44.2469 76.7064C44.0549 76.7331 44.0576 76.5891 43.9536 76.4317L43.7096 76.7784C43.5389 76.5544 43.6683 76.3717 43.6883 76.1277C43.4003 76.2237 43.4136 76.4744 43.1376 76.4517C43.2696 76.1477 42.9523 76.0171 42.9016 75.8291C42.6403 74.8664 42.9616 74.5811 43.4643 73.6971C43.6189 73.4251 43.7349 73.1051 44.0869 73.1037C44.0403 72.9651 43.9296 72.8904 43.9523 72.8344C43.9803 72.7651 44.2083 72.7971 44.2669 72.7544C44.4949 72.5904 44.7256 72.3971 45.0496 72.3944C45.0203 72.2504 44.9203 72.2504 44.8563 72.1224C45.2963 72.1051 45.4123 71.8318 45.6789 71.6584L46.7602 70.9598C47.0589 70.7678 47.4496 70.6758 47.7882 70.5131C48.0989 70.3624 48.3269 70.4918 48.6042 70.5318C48.9656 70.5851 49.3936 70.1598 49.7256 70.1651C50.3309 70.1744 51.0416 70.1478 51.6976 70.2704C52.2856 70.3784 52.8256 70.7838 53.4856 70.8398C54.0696 70.8878 55.0882 71.2838 55.5989 71.7358C55.4922 71.9038 55.4176 71.7318 55.2669 71.7411C55.3362 71.8838 55.3922 71.9651 55.4002 72.0851C55.4122 72.2424 55.1736 72.1651 55.1149 72.2704L54.8642 72.7197C54.5509 72.8677 54.1482 72.7597 53.8696 72.9117C53.6002 73.0571 53.4029 73.2957 53.0949 73.1357C53.0122 73.2931 52.9896 73.4251 52.9016 73.5344C52.8216 73.4784 52.6829 73.3451 52.6149 73.4117C52.2616 73.7517 51.7989 73.8837 51.3749 74.1064C51.3082 74.1424 51.4589 74.4131 51.3869 74.4344C51.2602 74.4731 51.0949 74.3744 51.0069 74.4144C50.9442 74.4437 50.9549 74.6504 50.9029 74.7224C50.8669 74.7744 50.7922 74.7664 50.6469 74.7637C50.5242 75.7837 49.8842 75.3171 49.5842 76.0931C49.4736 76.3797 49.1349 76.5197 48.9842 76.7851C48.9429 76.8571 49.0216 76.9464 49.0069 76.9904C48.9709 77.1064 48.8096 76.9691 48.7576 76.9864C48.4909 77.0757 48.3656 77.3677 48.3389 77.6064C48.1976 77.6411 48.0016 77.6091 47.9176 77.7077C47.8602 77.7757 47.8762 78.0517 47.7536 78.0437L47.3509 78.0184C47.2149 78.0091 47.1669 78.1757 47.0402 78.4757Z" fill="#243D13"/>
<path d="M22.6495 18.8653C22.1948 18.8773 21.8361 19.1973 21.3801 19.1733C20.9388 19.1493 20.4495 19.1653 20.0241 18.9973C19.4548 18.7706 18.7895 18.2186 18.6041 17.6626C18.3668 16.9506 19.8148 16.248 20.7295 16.472C21.4415 16.6453 22.5561 16.6186 23.0228 17.2813C23.1828 17.5093 23.6321 17.828 23.4521 18.18C23.2988 18.48 22.8708 18.6133 22.6495 18.8653Z" fill="#243D13"/>
</svg>
