<svg width="103" height="76" viewBox="0 0 103 76" fill="none" xmlns="http://www.w3.org/2000/svg">
<path d="M20.4893 72.4949C20.4266 72.2255 20.3173 72.0602 20.2426 71.8589C20.1599 71.9882 20.1813 72.0802 20.1026 72.1376C20.0186 72.1989 19.8853 72.2002 19.7599 72.1242C19.5039 72.2589 19.36 72.0616 19.12 71.9869C19.3266 72.4976 19.9839 72.6189 20.4893 72.4949ZM13.9426 72.9522C14.0053 73.0362 14.0546 72.9909 14.1826 72.8576C13.6893 72.4336 14.2506 71.7336 13.4413 71.6256C13.38 71.7402 14.0453 73.0882 13.9426 72.9522ZM38.3399 69.9096L37.6719 69.5962C37.5826 69.9162 37.7452 70.1402 37.9786 70.4229C38.1146 70.2496 38.1492 70.0522 38.3399 69.9096ZM13.816 69.4682C13.7453 69.8309 14.0106 70.1896 14.4746 70.1189C14.3866 69.7709 14.084 69.6949 13.816 69.4682ZM31.5519 69.7669C31.0946 69.4682 30.7706 69.1522 30.2773 68.9176C30.3319 69.2296 30.6386 69.2696 30.7839 69.4669C30.9666 69.7122 31.1746 69.9136 31.5519 69.7669ZM66.7612 68.8429C66.1078 68.4482 65.5345 68.2002 64.9865 67.7482C65.3145 68.3269 66.0798 69.1962 66.7612 68.8429ZM61.3558 66.2722C61.5825 65.9549 62.0092 65.5349 61.9852 65.1336C61.9505 64.5709 60.0225 64.9936 60.1412 64.9402C60.0092 64.9989 60.1758 64.5602 59.0678 64.7269C59.0318 64.9936 59.1945 65.1762 59.2705 65.4162L59.9892 67.7122C60.6198 67.5229 60.9252 66.8776 61.3558 66.2722ZM14.368 64.1136L15.796 64.0482C15.7826 63.9669 15.6293 63.8776 15.6746 63.8136C15.94 63.4336 15.8666 63.0562 15.9026 62.6229C15.9253 62.3322 16.0853 61.8189 15.7146 61.6509C15.408 61.5122 15.016 61.8522 14.7173 61.9229C14.3906 62.0016 14.1386 62.0509 13.884 62.2682C13.8133 62.3282 13.636 62.2109 13.6013 62.2589L13.3733 62.5642C13.252 62.7269 12.8133 62.7629 12.8413 63.0522C12.912 63.7442 14.128 64.1242 14.368 64.1136ZM37.1426 62.7202C37.0972 62.1976 36.7692 61.9522 36.4359 61.6309C36.2346 61.4389 35.6079 60.4669 35.0466 60.8016C34.7772 60.9629 34.6026 62.9696 34.5226 63.6456C35.5039 63.6229 36.3546 63.1909 37.1426 62.7202ZM41.3186 63.0269C41.5106 62.7429 41.7279 62.4562 41.8466 62.1616L42.4759 60.5856C42.5266 60.4589 42.4919 60.3189 42.4079 60.2229C42.2319 60.0229 41.6226 60.2136 41.4332 60.1589C40.4359 59.8696 40.7706 60.7749 40.0412 60.0269C39.7826 60.4856 40.1439 60.8469 40.2786 61.2002C40.3706 61.4389 41.0172 63.0909 41.3186 63.0269ZM64.1038 59.9536C63.8158 60.6376 63.5998 61.1976 63.4198 61.9642C63.7572 61.5256 64.5598 60.7722 64.1038 59.9536ZM22.8773 61.2522C22.8319 60.9762 22.5226 60.8376 22.4226 60.6109C22.3559 60.4589 22.3386 60.2189 22.1119 60.2069C21.7306 60.1869 21.7479 59.8376 21.5866 59.6869C21.2559 59.3816 21.0333 59.0789 20.7533 58.7349C20.6239 58.5749 20.3879 58.4976 20.2653 58.2696C20.2039 58.1576 19.9453 58.4829 20.0186 58.5949C20.1839 58.8496 19.8653 59.0403 19.8666 59.2389C19.8679 59.5296 19.7533 59.6509 19.6626 59.8789C19.3906 60.5616 19.2733 61.2682 18.9533 61.9242C18.8786 62.0762 19.0053 62.2362 19.068 62.3189C19.1933 62.4842 19.2493 62.2509 19.38 62.2309C20.0333 62.2536 20.5746 62.0722 21.2279 61.8402L22.8773 61.2522ZM60.1878 60.8722C60.4292 61.3589 60.8612 61.6949 61.1892 62.1762C61.3905 62.1482 61.6918 61.0629 61.6918 61.0589C61.8412 58.9016 63.4545 57.2003 61.7358 57.9616C61.3478 58.1336 60.8545 57.9709 60.4305 58.1069C60.1732 58.1883 59.9092 58.5123 59.6158 58.1896L59.0078 58.7696C58.9038 59.7949 59.5745 59.6256 60.1878 60.8722ZM43.4639 57.0843C43.3999 57.4963 43.7439 57.3856 43.9519 57.4376C44.4212 57.5536 44.7719 57.4963 45.1946 57.3323C45.3066 57.2896 45.5132 57.5136 45.6345 57.3923C45.7225 57.3016 45.8879 57.2589 45.8866 57.0176C45.6586 57.1869 45.5359 57.0789 45.3666 57.0976L44.3212 57.2069C44.0226 57.2389 43.7279 57.4069 43.4639 57.0843ZM39.3546 56.0056C38.9026 55.7083 38.4559 55.5256 37.8639 55.5963C38.2759 55.8576 38.7772 56.1189 39.3546 56.0056ZM67.7918 55.5603C66.8132 54.9976 65.9385 54.4736 65.0945 53.8096C64.9465 53.9803 65.0412 54.1416 65.0292 54.3229L65.5772 56.9389C66.4252 56.6243 67.0572 56.0749 67.7918 55.5603ZM62.2945 52.0283C62.4452 51.8109 63.4745 50.1376 63.0025 50.1389L60.5518 50.1443C60.6972 50.6549 61.0985 50.5576 61.3585 50.8109C61.7318 51.1723 61.8678 51.7029 62.2945 52.0283ZM66.2478 48.2563C66.3225 48.3896 66.6838 48.0216 66.5718 47.9483C66.3238 47.7883 66.1998 47.6669 66.1932 47.3549C66.1732 46.3856 66.2292 45.4443 66.2892 44.4576C65.9345 44.4856 65.7358 44.7416 65.4265 44.8443C64.8852 45.0243 64.3812 45.219 64.0132 45.7123L65.6692 47.3683C65.9332 47.6323 66.0652 47.9323 66.2478 48.2563ZM79.6145 43.655C79.7251 43.6523 79.7758 43.443 79.8758 43.3723C80.1678 43.1656 80.4891 43.0683 80.5931 42.6603C80.1131 42.8976 79.7958 43.1856 79.2945 43.5216C79.2985 43.6523 79.5225 43.659 79.6145 43.655ZM52.2972 40.9216C51.5345 40.9256 51.0345 41.3603 50.2345 41.5056C50.7025 41.6856 51.8612 41.4096 52.2972 40.9216ZM82.1425 30.4083C82.2158 30.2443 82.0918 30.0523 81.9171 29.9497C81.8411 30.2377 81.6998 30.4043 81.7118 30.791C81.9838 30.9003 82.0598 30.5923 82.1425 30.4083ZM17.1746 29.0017C16.912 28.687 16.6266 28.7403 16.3186 28.603C15.9426 28.4377 15.5853 28.1843 15.12 28.1003C14.748 28.0337 13.772 27.0043 13.256 27.1377C13.0826 27.411 13.4746 27.627 13.4693 27.8257C13.4586 28.2337 13.4253 28.4363 13.588 28.7083C13.8173 29.095 14.1013 29.0417 14.4813 29.1843C15.232 29.4657 16.004 29.8603 16.6426 30.3377C16.9573 30.5737 17.2426 30.9257 17.676 30.683C18.0093 30.495 18.192 30.151 18.0066 29.6443C17.8866 29.3177 17.3866 29.2577 17.1746 29.0017ZM38.5906 25.4057L37.3186 24.9243C36.5266 24.6257 38.2626 25.743 38.5906 25.4057ZM31.3026 24.4297C31.1959 24.315 31.1879 24.0937 30.9439 24.139C31.2613 24.523 31.4679 24.8857 31.8786 25.2577C31.8626 24.851 31.5866 24.627 31.3026 24.4297ZM20.7239 27.7457C21.1733 26.499 20.6119 26.583 20.3786 26.023C20.3319 25.9097 20.2866 25.7683 20.2146 25.699C20.1599 25.647 19.9839 25.7323 19.9013 25.7043C19.7253 25.475 19.6013 25.159 19.5493 24.8603C19.6719 24.8057 19.7666 25.0763 19.8426 24.959C19.9133 24.851 19.6053 24.211 19.2559 24.1697C19.3906 24.0843 19.4653 24.0323 19.4599 23.967C19.4386 23.7017 18.8773 23.471 18.78 23.2763C18.7453 23.2083 18.9266 23.1257 18.9053 23.063C18.8986 23.0457 17.968 22.1937 17.8786 22.0937C17.7386 21.939 17.8146 21.571 17.4586 21.5803C17.32 21.795 17.4493 22.0457 17.3413 22.2937C17.0413 22.5043 16.704 22.9697 16.9453 23.3203C17.068 23.4963 17.0973 23.6337 17.16 23.831C17.2386 24.0777 17.644 24.2523 17.4586 24.5817C17.388 24.7083 17.2493 24.8243 17.2906 24.9737C17.324 25.0937 17.4266 25.1977 17.6026 25.2523C17.664 25.8177 17.9413 25.587 18.2293 26.071C18.6666 26.8097 19.1653 27.459 19.7519 28.103C19.8173 28.1737 19.5973 28.3057 19.5626 28.3217C19.8066 28.5137 19.8333 28.223 19.9999 28.127C20.2506 27.9843 20.6119 28.0563 20.7239 27.7457ZM57.2252 21.615C57.2865 21.5657 57.2265 21.507 57.2119 21.4083C57.1119 20.779 57.5572 20.295 57.0239 18.899C56.8145 19.8577 57.1145 20.1457 57.0652 21.6537C57.0612 21.775 57.1985 21.635 57.2252 21.615ZM84.0584 17.8257C84.1238 17.8857 84.2011 17.8817 84.2665 17.8137C84.3451 17.731 84.3824 17.635 84.3344 17.4924C84.2864 17.351 84.2425 17.283 84.1185 17.2697C84.0025 17.2577 83.8531 17.3204 83.9158 17.539C83.9571 17.687 83.9944 17.767 84.0584 17.8257ZM65.7985 24.5257L65.9825 22.739C66.0172 22.3977 66.3745 22.0937 66.1558 21.7217C66.6105 20.6163 66.2865 18.711 66.0918 17.4497C65.9678 16.6497 66.0625 15.7977 65.6638 15.0937C65.3452 14.5297 64.9585 14.011 64.4798 13.579C64.3358 13.4897 64.0412 13.5217 63.8678 13.4817C63.3652 13.8124 63.3478 14.451 63.5905 14.9564C64.4185 16.6817 64.6012 18.4683 64.7758 20.311C64.8572 21.1697 64.7545 21.9523 64.5878 22.7817C64.4372 23.5363 64.5092 24.295 64.1745 25.0323L64.5438 25.855C64.6012 25.9817 64.9718 25.927 64.9358 26.1643C65.5785 26.115 65.7465 25.031 65.7985 24.5257ZM21.9519 32.647C22.6079 32.3603 23.3053 32.1736 23.8706 31.8363C23.5093 32.051 25.0826 30.811 25.0586 30.8257C25.2253 30.7203 25.1519 30.3843 25.2679 30.2297L26.3039 28.8203L25.6333 27.7897C25.1759 27.0857 24.5666 24.499 24.5013 23.3843L24.3946 21.5643C24.3293 20.4283 24.3386 19.343 24.4986 18.215L24.8239 15.9124C24.9559 14.9844 25.2559 14.0777 25.2573 13.107C25.2573 12.8084 24.7866 12.711 24.5679 12.563C23.9266 12.1257 23.0159 11.7537 22.3026 12.2257C21.9213 12.5537 21.8026 13.3297 21.7066 13.7884C21.5746 14.4124 22.8386 14.3644 22.8773 14.683C22.9013 14.883 22.9733 15.0564 23.0333 15.2457C23.1893 15.7284 22.7493 16.2124 22.6519 16.6697C22.2173 18.6977 22.0333 20.2097 22.2106 22.2883C22.3346 23.747 22.4986 25.1803 23.0853 26.5243C23.2133 26.8177 24.0839 28.0083 23.6826 28.595C23.3439 29.0897 23.2146 29.843 22.7146 30.1523L21.8866 30.6657C21.4373 30.9443 21.1826 31.6416 21.6146 32.1496C21.7319 32.287 21.9506 32.3656 21.9519 32.647ZM82.7691 12.4737C83.0638 12.819 83.2558 12.5057 83.6798 12.371C83.5345 11.9617 83.0305 11.8364 82.6865 12.0537C82.5398 12.1457 82.6931 12.3857 82.7691 12.4737ZM59.5572 29.2057C59.5185 28.9843 59.6185 28.719 59.7852 28.499C60.9412 26.971 61.0798 25.235 61.4105 23.7923L61.6798 22.6177C61.8838 21.723 61.8972 20.7723 61.8198 19.843L61.6932 18.291L61.5238 16.607C61.4985 16.363 61.2585 16.1044 61.3652 15.8564C61.3932 15.795 61.6852 15.799 61.5718 15.7044C61.5065 15.6497 61.4012 15.623 61.3745 15.551C61.3412 15.463 61.4345 15.3524 61.4172 15.2524C61.4065 15.187 61.1812 15.2737 61.1692 15.2164C61.2878 15.4657 60.4492 13.1377 60.6198 13.8377C60.5092 13.3857 60.4105 12.9897 60.1505 12.5604C60.0305 12.363 60.0305 12.0844 59.8625 11.8497C59.6732 11.587 59.0692 9.76437 58.3932 8.65237C58.2078 8.34838 57.9332 8.18704 58.1718 7.74571C58.5398 7.06571 57.5119 6.62571 57.7225 6.66438C57.6452 6.65105 57.4732 6.71238 57.4372 6.82305C57.3305 7.14171 56.9972 7.15638 56.8319 7.36304C56.6692 7.56571 56.4879 7.82171 56.1999 7.92038C56.2465 8.56304 56.7092 9.14571 56.8785 9.75504C57.2825 11.2084 58.9265 14.743 58.9078 14.6737L59.1012 15.4017C59.7185 17.731 60.0105 20.4483 59.5105 22.7803C59.3158 23.6857 59.2078 24.5857 58.8372 25.4563C58.5332 26.171 58.4398 26.9617 58.0199 27.6417C57.9225 27.8003 57.3719 28.679 57.3692 28.723C57.3305 29.331 58.3905 30.1363 58.4945 30.255L59.3572 31.2497C59.5025 31.4177 59.6505 31.5536 59.8785 31.571C60.1398 31.5896 61.3345 30.8737 60.7865 30.451L59.9758 29.827C59.7452 29.6483 59.6065 29.483 59.5572 29.2057ZM48.7159 18.4164C49.0705 19.7177 49.0105 21.0723 48.8092 22.3843C48.6092 23.6923 47.4985 24.3043 46.8159 25.1763C46.2039 25.9577 45.5252 26.595 44.6479 27.0417C43.4026 27.675 42.1612 28.0963 40.8039 28.4123C39.8186 28.643 38.9052 28.8857 37.8972 28.7723L37.1946 28.6923C36.4359 28.607 35.1946 28.2003 34.5266 27.7537C34.3359 27.6257 34.0386 27.5523 33.8332 27.4243L33.1159 26.975C31.9933 26.2737 31.0346 25.4457 30.4013 24.2737C30.2839 24.055 30.0653 23.8843 29.9946 23.6217C29.7373 22.6643 29.2946 21.7803 29.1333 20.7723C28.7906 18.6257 29.1106 15.3844 30.3373 13.5924L31.7399 11.5417C32.2186 10.8404 33.0172 10.4777 33.6519 9.94037C34.0346 9.61771 34.4466 9.51904 34.8599 9.29237C36.2239 8.54837 37.6359 8.18971 39.1799 8.05638C39.7199 8.00971 40.1746 7.73771 40.7786 7.87771C41.2719 7.99238 41.8359 8.00704 42.3479 7.94838C45.0452 7.64171 47.5505 8.84837 49.6159 10.4524C49.9972 10.7484 50.3905 11.0017 50.6919 11.3697C50.9452 11.679 51.2905 11.871 51.5252 12.1964C52.2572 13.2124 52.9572 14.2444 53.3185 15.4497C53.7052 16.7364 53.8652 18.0777 53.9399 19.4257C53.9945 20.407 53.8905 21.315 53.7852 22.2603C53.6585 23.3937 53.5025 24.455 53.0519 25.4923C52.5812 26.579 52.0399 27.5683 51.2345 28.4483C51.0412 28.659 49.5319 29.751 49.1492 30.0203C48.7425 30.3083 48.4159 30.6603 47.9599 30.911C46.5612 31.6816 44.8892 32.3003 43.3039 32.4923L40.3492 32.847L39.4066 32.9536C38.7319 33.031 38.1626 32.939 37.5052 32.8856L35.7639 32.743C34.4732 32.6376 33.9119 32.7603 32.6586 32.6603C32.2159 32.815 32.6119 33.4403 32.8626 33.639C33.4106 34.071 33.9279 34.279 34.5666 34.483C34.8439 34.5723 35.0026 34.7056 35.3732 34.6683C36.2319 34.583 36.9279 35.047 37.9519 34.8963C38.4879 34.8176 39.0212 34.9283 39.5612 34.9203L40.8466 34.9016C41.2092 34.8963 42.0666 34.855 42.3652 34.8096C42.7252 34.755 45.0626 34.3123 45.1999 34.163C45.3586 33.991 46.6199 33.6243 46.9305 33.5723C47.1145 33.5416 47.2572 33.1963 47.5279 33.239C47.9972 33.315 48.2452 32.959 48.5879 32.7576L49.5705 32.1803C50.2439 31.783 52.1359 30.4977 52.5972 30.0217L53.7585 28.8257C54.5052 28.055 54.8439 27.0577 55.3559 26.1417C56.6559 23.8123 56.4959 22.0697 56.6585 19.5963C56.6985 18.9937 55.6452 14.719 55.4012 13.8604C55.2772 13.4257 55.1799 13.323 54.8239 13.0244C54.3092 12.5924 54.1239 11.7724 53.7359 11.2284C53.1985 10.4737 53.6679 10.703 53.0825 10.5084C52.9665 10.0804 52.4359 9.86704 52.1905 9.58571C51.3772 8.65904 50.4292 8.06704 49.4132 7.44438C48.3652 6.80038 47.4132 6.30038 46.1879 6.13105C45.7225 6.06571 45.2385 5.85105 44.7172 5.81905L42.0892 5.65638C41.4079 5.61372 38.8492 5.79238 38.2119 5.99238C37.3719 6.25638 36.5572 6.51638 35.7279 6.83638C34.5079 7.30571 34.7746 7.18171 33.7279 7.84038L32.2186 8.79104C31.4986 9.24437 30.4146 10.8017 29.7533 11.0497C29.6399 11.0924 29.5893 11.207 29.5666 11.2924C29.5479 11.3577 29.7439 11.4804 29.7119 11.5404L28.4853 13.8644C28.2946 14.2244 28.2786 14.591 28.1039 14.975C27.7266 15.8044 27.5466 16.7417 27.4586 17.6617C27.3893 18.391 27.1946 19.0977 27.2853 19.815C27.3559 20.375 27.3466 20.9363 27.4919 21.491C27.8839 22.9923 28.5186 24.4297 29.3866 25.6817C29.7133 26.1563 31.8599 28.0497 32.3386 28.3523C33.0866 28.8257 33.7519 29.403 34.5532 29.7657L35.5732 30.227C36.2172 30.519 36.9319 30.4803 37.6252 30.5537C40.2386 30.831 42.1172 30.4377 44.4519 29.563L46.0412 28.9683C46.7559 28.7003 47.7919 27.4577 48.1545 27.2323C48.4692 27.035 48.7879 26.767 49.0105 26.4617L49.4572 25.8523C49.9972 25.1163 49.9825 24.1643 50.2732 23.155C50.3772 22.7963 50.3732 22.4217 50.4319 22.0363C50.6652 20.4883 50.5479 18.8577 50.0945 17.3257L49.5239 15.391C49.3079 14.6617 48.7252 13.9884 48.2905 13.3844C48.1105 13.1337 47.7612 12.9697 47.5465 12.7417C46.6652 11.8097 44.3092 11.203 43.1692 10.7764C42.8386 10.6524 42.5546 10.407 42.1879 10.4484C42.1692 10.5644 42.1732 10.651 42.1079 10.7284C41.5852 10.5977 41.1012 10.6364 40.5879 10.6817L38.7972 10.8417L37.8279 11.2804C36.5199 11.8724 34.6972 13.5977 33.3652 14.503C33.5252 15.0937 33.2986 15.6324 33.1826 16.219C32.9653 17.3177 32.8572 18.4537 32.9506 19.5723C33.0212 20.4043 33.6119 21.055 33.9906 21.731C34.6119 22.8417 35.4986 23.5563 36.6586 24.0617C37.6172 24.4803 38.5412 25.0283 39.5866 25.0977C40.7519 25.1737 41.7519 24.915 42.7772 24.4817C44.7826 23.635 45.1812 21.799 45.2372 21.7443L45.4652 21.5177C45.5225 21.4617 45.2852 21.3897 45.2132 21.3017C45.2826 20.5457 45.1292 19.8923 44.7852 19.251C44.6546 19.007 44.6212 18.791 44.4172 18.571C43.8386 17.9484 43.3572 17.159 42.5052 16.8737C41.6759 16.5937 40.6999 16.3564 39.8786 16.7164C39.2372 16.9964 38.6826 17.7537 38.5319 18.4097C38.4359 18.827 38.6799 19.3577 38.8359 19.6923C39.0212 20.0897 39.5612 20.299 39.8666 20.0217C40.3492 19.5817 40.3292 18.431 41.3306 18.3777C41.7466 18.3564 42.0692 18.5483 42.4079 18.843C43.1692 19.503 43.3186 21.419 42.4212 21.2977C42.5026 21.4723 42.8172 21.707 42.6666 21.8323C41.6306 22.7057 41.3946 22.7523 40.0052 22.8123C39.3479 22.8403 38.7692 22.6017 38.1652 22.3257C37.6212 22.0763 37.0079 21.959 36.5386 21.567C36.3359 21.3977 36.0639 21.2643 35.8772 21.055C35.5639 20.7003 35.2226 20.1217 35.1839 19.6243L35.0319 17.679C34.9546 16.6884 35.1306 15.8044 35.7506 15.059C37.3132 13.1817 39.8372 11.935 42.1399 12.4417L43.4412 12.7284C44.1959 12.8937 44.8359 13.367 45.4239 13.8164C45.7466 14.0617 46.0732 14.2857 46.3492 14.5764C47.5492 15.839 48.2599 16.747 48.7159 18.4164ZM53.5972 5.22838C53.6839 5.15772 53.6185 4.91105 53.4932 4.93105C53.2892 4.96438 53.0692 4.96972 52.8545 4.83238C52.6892 5.09505 52.6145 5.59372 52.8852 5.93771C53.3719 5.67105 52.8319 5.84838 53.5972 5.22838ZM86.9491 6.40838C86.8491 7.15771 87.0371 8.09904 87.5518 8.61504C88.3131 9.37904 89.4078 9.37371 90.2531 8.94304C91.4904 8.30971 92.2451 7.02038 91.7158 5.68705C91.6104 5.42305 91.5424 5.00838 91.3251 4.81238C90.2278 3.82572 89.0678 4.33505 89.2611 4.34438C89.1891 4.34172 89.1384 4.26039 89.0851 4.16039C89.0211 4.51238 88.8451 4.52038 88.6091 4.57238C88.3371 4.63372 88.0438 4.81905 87.7438 4.85238C87.9984 5.30705 87.0744 5.45372 86.9491 6.40838ZM46.4865 3.00305C46.2105 2.45906 45.7345 2.31239 45.3359 2.46306C45.2559 2.49372 45.1839 2.70972 45.2905 2.78306C45.7532 2.64572 46.1025 2.86839 46.4865 3.00305ZM58.1932 56.1896C58.3319 55.5509 58.7305 54.3123 58.3599 53.2229C58.2105 52.7856 57.9345 52.3576 57.8639 51.9203C57.8105 51.5816 58.0105 51.1883 57.6465 50.9376C57.2879 51.6163 56.7319 53.5736 56.7825 54.3549C56.7999 54.6163 56.5812 54.9309 56.6625 55.2509C56.7279 55.5096 56.5439 55.7016 56.5119 55.9003C56.4705 56.1643 56.6425 56.4043 56.4159 56.6243C56.2719 56.7643 56.0719 56.9669 55.7932 56.9616C54.8879 56.9456 53.6185 57.3963 52.6852 57.4856L48.8665 57.8549L46.6772 57.9736C46.7385 58.8856 46.8719 59.0522 46.7639 59.8456L46.6385 60.7629C46.5279 61.5709 46.5225 62.1669 46.0719 62.8522C45.7359 63.3629 45.4665 63.9202 45.0025 64.3776C44.8199 64.5576 44.7332 64.5442 44.4986 64.6016C44.2906 64.6536 44.1559 65.0456 43.8746 64.9976C43.7492 64.9762 43.6372 64.8442 43.5479 64.8762C43.2519 64.9856 43.1679 65.2709 43.0386 65.1682C42.9759 65.1189 42.9332 65.0682 42.8826 65.0149C42.8119 65.1522 42.7919 65.2402 42.7332 65.2922C42.5306 65.4762 42.1746 65.0829 41.9119 65.3442C41.8399 65.4149 41.7586 65.4789 41.6892 65.4629C41.6492 65.4536 41.5599 65.3602 41.5146 65.3949C40.6199 66.0962 41.1159 65.3202 39.7692 65.7722C39.7732 65.7722 38.2132 65.8256 37.9839 65.7429C37.6986 65.6402 37.3226 65.9176 37.0479 65.7856C36.8066 65.6696 36.7119 65.7149 36.4666 65.7709C36.2839 65.8122 36.0146 65.5669 35.8066 65.7122C35.7052 65.7829 35.6279 65.8376 35.5506 65.8389C35.3999 65.8429 35.3159 65.7762 35.1919 65.6309C35.1426 65.7536 35.1706 65.8936 35.0746 66.0696C35.7159 66.3789 36.4266 66.4402 37.1532 66.4242C40.1466 66.3536 42.4426 67.6482 42.8439 67.7202C43.5799 67.8522 44.4572 68.6376 44.8492 68.8816C45.1932 69.0962 45.4052 69.2149 45.6452 69.5882C45.9239 70.0202 46.7839 71.1909 46.5359 71.7216C46.4532 71.9002 46.2372 72.2135 45.9572 72.2069C45.4692 72.1949 44.4106 71.5282 44.0786 71.2336L42.7559 70.0589C43.0492 70.3189 41.1786 69.1362 41.5919 69.7869C42.3746 71.0216 43.5892 71.4616 43.3319 72.6656C43.0692 72.5909 42.8666 72.8069 42.6972 72.8669C42.3026 72.7136 41.8306 72.5389 41.5039 72.2696C40.7212 71.6269 39.9266 71.0882 39.1092 70.5296C38.9919 70.4496 38.7852 70.5816 38.8079 70.6656L38.8879 70.9469C39.0119 71.3882 39.9826 72.3602 40.3439 73.1469C40.4159 73.3055 41.2092 74.4602 40.6612 74.8309C40.0066 75.2735 38.8359 74.1442 38.5519 73.9429L36.6866 72.6135C36.4026 72.4109 36.2359 72.3749 35.9292 72.2776C35.4586 72.1296 35.0519 71.7242 34.4759 71.7149C34.3212 71.7122 34.1412 71.4829 33.9999 71.5122C33.5986 71.5962 33.3332 71.3229 33.0159 71.2442C32.4253 71.0976 31.9333 70.9602 31.4039 70.6496L30.7519 70.2669C29.7466 69.6762 28.8079 68.6442 28.6826 67.3709C28.5706 66.2416 28.5453 65.6149 29.0959 64.5589C30.4746 61.9122 32.2759 61.4589 32.4906 61.0189C32.6186 60.7576 32.8626 60.4776 32.9399 60.2096C33.1812 59.3749 33.1652 58.4656 33.1546 57.5896C32.6732 57.4269 32.2719 57.4989 31.8506 57.4736C30.6453 57.4043 29.5039 57.2123 28.3093 57.0096C27.8333 56.9296 27.4466 56.8856 26.8479 56.9616C27.4439 57.2149 27.3959 57.7749 27.4333 58.3469C27.5306 59.8589 27.3866 61.3949 26.5053 62.6949C26.4333 62.8016 26.3573 62.9216 26.2679 63.0736C25.1706 64.9376 23.5853 65.3589 22.7719 66.0389C22.3733 66.3722 21.1786 66.1909 20.9626 66.3789C20.6719 66.6322 20.5613 66.4349 20.3319 66.4496C16.2573 66.7242 15.312 65.7522 12.8786 65.9056C12.7053 65.9176 12.54 66.1722 12.3453 66.1189C12.2306 66.1936 12.104 66.4496 12.0093 66.5482C11.6853 66.9136 15.7253 68.0149 15.7746 68.0242C15.9986 68.0642 16.1226 68.1802 16.32 68.2536C16.744 68.4122 17.168 68.4856 17.5533 68.7402C18.5093 69.3722 17.772 68.6216 18.4866 69.3109C18.8426 69.6549 19.8786 70.2456 20.3359 70.8242L20.8786 71.5136C21.2333 71.9629 21.4359 72.6735 21.1159 73.1802C20.9279 73.1629 20.6946 73.2856 20.5586 73.3309C19.9879 73.5242 19.5493 73.1095 19.1093 72.9269C18.74 72.7722 18.552 72.5989 18.264 72.3056C18.6413 72.6896 16.5466 70.8282 16.9973 71.4802C17.14 72.7269 17.8186 73.3682 17.8933 74.8709C17.8333 75.0069 17.4653 75.0762 17.5573 75.3655C17.412 75.4269 17.3946 75.2975 17.3253 75.2682C16.892 75.1175 16.64 74.8575 16.4053 74.4882C16.2533 74.2509 15.944 74.1082 15.8453 73.8135C15.6813 73.3229 15.3946 72.8935 14.892 72.6415C14.6306 72.9055 14.9213 73.1229 14.9466 73.3522C15.0013 73.8495 15.1146 75.7042 14.3333 75.7349C13.6813 75.7589 12.9973 75.2082 12.6133 74.6055C12.2653 74.0589 11.6466 73.0002 11.0946 72.5229C10.0373 71.6069 8.71731 71.2082 7.44398 70.8162C6.58932 70.5522 6.04665 69.7976 5.40665 69.3616C5.06265 69.1282 4.88399 68.8642 4.63732 68.5109C4.45332 68.2456 4.23999 68.0136 4.35999 67.6309C4.44399 67.3616 4.31466 67.0496 4.41199 66.7949L4.73865 65.9322C4.46799 65.8029 5.11332 65.4216 5.11865 65.4122C5.35199 65.0176 5.66665 64.7229 5.94132 64.3629C6.15065 64.0882 6.28132 63.7829 6.63865 63.5762C7.06532 63.3296 7.53598 63.1376 7.92531 62.8309C8.73598 62.1909 9.67597 61.8269 10.5266 61.2509L11.4613 60.6202C12.1386 60.1629 12.7066 59.5762 12.916 58.8069C13.0213 58.7883 13.1773 58.7389 13.076 58.6963C13.0493 58.6856 12.9506 58.6336 12.9653 58.5923L13.292 57.6456C13.0466 57.6069 13.156 56.4656 13.1426 56.2896C13.092 55.6349 12.8626 55.0003 12.892 54.3576C12.8973 54.2189 12.552 54.0096 12.7226 53.8016C12.9106 53.5723 13.1813 53.3389 13.508 53.4403C13.62 53.4749 13.7053 53.5083 13.7226 53.7243C14.0373 53.4709 14.2306 53.6629 14.5066 53.7509C14.9026 53.8789 15.336 53.8149 15.744 53.8536C18.1293 54.0789 17.4266 53.6429 17.4786 53.6389C16.8813 53.6829 16.524 53.3056 16.0453 53.1029C15.548 52.8896 15.1146 52.5563 14.6413 52.3096C14.2786 52.1189 14.0586 51.8749 13.7426 51.6403C13.3986 51.3843 12.9333 51.3656 12.68 50.9149L12.0693 50.7136C11.5213 50.5336 10.9706 50.0589 10.508 49.6589L10.128 49.3309C10.376 49.5443 8.63731 48.4976 8.08798 48.0269L6.47465 46.6443L5.12532 45.1616L3.85866 43.5576C3.20533 42.731 2.61199 41.9016 1.93999 41.0816C1.19066 40.167 0.430665 39.291 0.269332 37.987C0.254666 37.8736 0.108 37.8056 0 37.7256C0.386666 37.2376 0.0226662 36.347 0.769331 35.827C1.38666 35.399 2.16799 35.1296 2.93066 35.0576C3.19199 35.0323 3.47866 35.1296 3.76799 35.1256C3.84666 35.1243 3.89599 35.3936 3.94132 35.3816L4.19332 35.3163C4.39332 35.2643 6.31732 36.4683 6.31198 36.467C6.56532 36.563 6.87198 36.903 7.08931 37.0736L7.85331 37.675C8.19864 37.947 8.37198 38.0896 8.74664 38.2683C9.20131 38.487 9.61464 38.9763 10.1373 39.1576C9.70664 39.0083 11.9893 40.471 11.8253 40.355L12.6666 40.951C12.1453 40.5816 14.7226 42.1336 14.5266 42.019L15.9533 42.8496L16.9786 43.3096C17.4106 43.503 17.848 43.8496 18.3186 43.9723C18.6906 44.0696 18.92 44.4216 19.3053 44.491C19.6853 44.5576 20.6999 45.1043 20.5693 45.0776C20.9706 45.1576 21.2666 45.4496 21.5919 45.5576C21.9573 45.6776 22.4133 45.7843 22.7479 46.0363C22.8746 46.1336 23.1933 46.1616 23.3586 46.2163L24.0773 46.4576C24.3773 46.5576 24.6413 46.6136 24.9213 46.7816C25.2173 46.9589 25.5746 46.9056 25.9093 47.0549C26.3519 47.2536 26.9333 47.3789 27.4093 47.3856C28.5679 47.4029 27.5133 47.6736 28.9973 47.6069C29.3239 47.5923 29.4413 47.6269 29.7106 47.7976C29.9453 47.9456 30.4573 47.7296 30.7399 47.8536C31.1706 48.0416 31.7346 48.1696 32.1972 48.0789C32.1452 48.0896 33.4252 48.2749 33.3612 48.2403C33.7106 48.4229 34.6066 48.1843 34.9106 48.1429C35.0959 48.1176 35.4359 48.4456 35.6772 48.2056C35.7599 48.1243 36.0652 48.0256 36.1146 48.1203C36.3639 48.5896 37.3359 48.3056 37.6972 48.1963C38.7586 48.7283 38.5612 47.5843 39.2639 48.1869C39.2999 48.0203 39.2786 47.8069 39.4426 47.7829C39.5452 47.7683 39.7026 47.6003 39.7892 47.8149C39.8186 48.0416 40.0359 48.0523 40.0412 47.8269C40.0519 47.6429 40.1506 47.5349 40.2746 47.5723C40.3412 47.5936 40.3919 47.6603 40.5066 47.7696C40.5732 47.6176 40.7252 47.2803 40.5772 47.1043C40.2799 46.7523 39.0359 46.9483 38.7519 46.8736C37.5812 46.5709 35.8292 46.5336 34.5292 46.3496C34.1906 46.3003 33.8892 46.2643 33.5372 46.2363L32.6586 46.1656L30.9746 45.9603L30.1106 45.8523C29.5439 45.7803 28.9906 45.7229 28.4453 45.5589L25.3346 44.6216C24.5879 44.3963 23.8933 44.291 23.1799 43.967C22.1746 43.511 20.5239 43.1056 19.4839 42.343C18.9306 41.9363 18.2826 41.8016 17.7066 41.4523C17.7573 41.483 15.1813 39.931 15.4706 40.1243L13.9426 39.1003C13.6533 38.9056 13.356 38.811 13.1493 38.507C13.1053 38.4416 11.932 37.8123 11.7573 37.5363C11.552 37.2083 11.3333 37.095 11.0653 36.8416L10.432 36.2403C9.73197 35.5776 9.37598 35.579 9.15198 35.359L8.51464 34.7323C8.25465 34.4776 8.08531 33.967 8.01065 33.6176C7.94131 33.2976 8.03998 32.971 7.88398 32.627C7.83465 32.4443 7.98798 32.0696 7.98531 31.8296C8.47598 31.267 8.80398 30.563 9.15198 29.9003L10.444 27.4523C11.152 26.107 11.956 24.8723 12.6693 23.5083L13.868 21.2097L16.1 17.3204L17.012 15.8364C17.2 15.5284 17.4133 15.1937 17.6253 14.899C18.2186 14.0737 18.5466 13.471 19.1053 12.635L20.6866 10.267C21.0413 9.73504 21.5026 9.28304 21.9293 8.78437C23.8786 6.51505 27.7906 3.81772 30.6026 2.67239C32.2439 2.00306 33.8506 1.38573 35.5706 0.99106C38.3972 0.343061 39.0359 0.413728 41.8479 0.163062L43.0972 0.0523955C42.7292 0.0843954 45.6079 -0.0209376 45.0692 0.183062C45.4585 -0.162271 45.9839 0.0763953 46.4092 0.133728C46.7479 0.179062 47.0532 0.0270621 47.4212 0.168395C47.6199 0.243062 47.9839 -0.0169378 48.1732 0.176395C48.3932 0.401728 48.6012 0.332395 48.8532 0.396395L51.3479 1.03106C53.0785 1.47106 53.8932 1.60572 55.6745 2.34972L56.8252 2.83106C57.0052 2.90572 57.2039 3.09905 57.3465 3.15239C57.6612 3.26839 57.9505 3.35239 58.2252 3.56839C58.2785 3.60972 60.5225 4.92572 60.7932 5.07772C61.7132 5.59505 62.8945 6.64838 63.7958 7.32304L64.5052 7.85504L66.9865 10.5644C67.2398 10.8417 67.5292 11.0417 67.7492 11.351L68.8665 12.919C69.0665 13.199 69.7305 14.003 69.8358 14.3724C69.9838 14.8884 70.8078 16.311 70.6612 16.4524L70.4238 16.6817C70.2105 16.8884 71.7211 18.0524 71.1758 20.8843C71.0292 21.647 70.8705 22.4057 70.6305 23.155C69.9452 25.2963 68.7425 27.1403 67.1372 28.6843C65.6785 30.0857 64.2078 31.247 62.5505 32.3963C59.0065 34.851 56.1119 35.979 51.9639 37.0936C48.4999 38.0243 45.0772 38.791 41.4946 39.155C40.4132 39.2643 38.7999 39.2136 37.4812 39.315C35.9532 39.4336 34.4372 39.379 32.8946 39.3376C30.5733 39.275 28.4173 38.7176 26.2306 38.099L24.3826 37.575C22.2239 36.963 20.1039 36.3696 18.096 35.3603C17.3093 34.9656 15.7826 33.799 15.1786 34.7003C14.664 35.467 15.9466 36.4203 16.0253 36.4536L19.0413 37.7216C20.3453 38.271 21.5853 38.7843 22.9079 39.259C23.5706 39.4963 24.2933 39.6243 24.9159 39.931C25.4373 40.1883 25.8559 40.231 26.4213 40.347L29.5599 40.9896C30.2759 41.1363 31.0266 40.9243 31.7359 41.0843C32.3346 41.2203 32.8972 41.2523 33.5186 41.3083C34.1026 41.3616 34.6546 41.4736 35.2732 41.383C35.5732 41.3403 36.0426 41.599 36.2999 41.459C36.5719 41.311 36.6679 41.4456 36.9026 41.4576C38.5519 41.5323 39.3999 41.207 40.8599 41.1723C41.1266 41.167 41.6386 41.2496 41.8412 41.1203C42.1439 40.927 42.4066 41.0616 42.6879 41.0163C43.0412 40.959 43.2732 40.7416 43.6679 40.807C43.9359 40.8523 45.2599 40.6083 45.6692 40.5363L47.5372 40.2096C48.4225 40.055 48.3359 39.8003 48.8479 39.8883C49.1559 39.9416 51.2385 39.1523 51.5892 39.087C52.0879 38.9923 52.6172 39.0203 53.0892 38.8136C53.2919 38.7243 53.4679 38.5176 53.7025 38.511C54.3252 38.4923 59.4732 36.3683 59.4118 36.4403C59.7265 36.075 60.1078 36.055 60.5318 36.0496C60.8212 36.0456 61.0305 35.623 61.2838 35.5963C62.0265 35.519 61.3918 35.323 62.6958 34.8763C62.9892 34.775 62.9932 34.5043 63.1465 34.423C63.6705 34.143 64.1318 33.9603 64.3545 33.427C64.4958 33.243 64.9692 33.259 65.1425 32.8883C65.2358 32.691 65.6438 32.647 65.7878 32.3976C65.8918 32.2176 66.2558 32.3043 66.3305 32.123C66.3878 31.9843 66.4185 31.8323 66.5145 31.7363C66.6158 31.6363 66.8238 31.8043 66.9385 31.7297C66.9492 31.5643 66.8825 31.3283 67.0118 31.2056C67.0865 31.1336 67.3772 31.2283 67.4718 31.1657C68.2905 29.9243 68.5398 30.255 68.7252 30.1963C68.9825 30.115 68.7665 29.715 69.0972 29.5363C69.3958 29.3763 69.4532 29.6883 69.7198 29.431C69.8145 29.339 69.7492 29.2443 69.7358 29.0883C70.4612 29.4603 70.0185 28.3083 70.6345 28.643C71.2212 28.2977 70.7025 27.8963 71.3132 27.9963C71.7052 27.5523 73.0478 26.7097 73.3238 27.5457C73.7358 28.7977 72.3038 30.0177 71.9918 30.407L71.0132 31.6256C70.6425 32.087 70.0745 32.355 69.7212 32.815L69.0425 33.6963C68.9918 33.763 68.9972 33.895 68.9145 33.7896C68.8972 33.7683 68.8905 33.7323 68.7985 33.671C68.7345 34.1163 68.0372 34.3043 67.5932 35.0176C67.6492 35.307 68.2812 35.9336 68.6172 35.923C68.8052 35.9176 68.8332 35.715 68.9772 35.6056C69.6718 35.0843 70.3225 34.5456 70.8998 33.8923C71.1212 33.6403 71.4598 33.5123 71.6198 33.2616C72.0891 32.527 72.6478 32.2976 73.0318 31.703L74.2345 29.8417L74.9998 28.5657C75.2185 28.2003 75.3158 27.779 75.5131 27.391C76.1478 26.1537 76.7585 24.919 77.1851 23.5843L77.9385 21.2323C78.2705 20.1923 78.2451 19.8963 78.4931 18.8003C78.8078 17.4137 78.3051 16.7724 79.0905 15.703C79.1598 15.6097 79.1958 15.3897 79.1558 15.2737C79.1318 15.2004 79.0211 15.1737 78.9025 15.1017C79.1185 13.079 79.0825 10.2524 79.4491 8.32304L79.5745 7.66704L79.7851 6.82305C79.9318 6.23771 80.4785 5.93371 80.7838 5.48572C81.1958 4.88038 81.6665 4.27772 82.3278 3.96305C82.5171 3.87372 82.6385 3.56172 82.9478 3.55905C82.9785 3.48839 84.6585 2.47639 84.5891 2.50172C84.9771 2.35639 85.3211 2.16839 85.7131 2.05372L87.6184 1.49639C88.8531 1.13506 92.0851 0.451061 93.3318 0.599061L94.6318 0.753727C95.8731 0.900393 97.6397 1.76572 98.6517 2.56572C98.7251 2.62439 98.9291 2.65239 99.0117 2.75906C99.0517 2.81106 99.0624 2.86306 98.9451 2.97905C99.7904 3.44172 100.112 3.78572 100.809 4.55505C100.89 4.64305 100.824 4.82038 100.985 4.90305C101.408 5.12172 101.625 5.58305 101.568 6.00571C101.825 6.06305 101.95 6.19638 102.061 6.39771C102.161 6.57638 101.993 6.62305 101.92 6.83771C102.053 6.90571 102.284 6.85371 102.328 7.02438C102.356 7.12971 102.232 7.25504 102.21 7.38704C102.188 7.52704 102.541 7.71504 102.444 7.87638C102.248 8.19771 102.466 8.44571 102.421 8.75504C102.366 9.12304 102.069 9.6817 101.738 9.89504C101.44 10.0884 100.929 10.0284 100.582 10.0524C100.34 10.0697 100.132 9.77371 99.8731 9.84304C99.5037 9.9417 99.1397 9.65504 98.8117 9.65237C98.6024 9.65104 98.5411 9.79104 98.3051 9.68571C97.5984 9.36971 96.7904 9.54704 96.0558 9.53504C95.4571 9.52571 94.6651 9.54971 94.1518 9.82437C93.9118 9.95237 93.6078 10.0417 93.3918 10.1804C92.3318 10.859 92.0291 10.7337 91.9304 10.8044L91.3464 11.2204C91.2638 11.279 91.1384 11.095 91.0571 11.063C90.7611 11.4484 90.3891 11.5097 89.9784 11.3817C89.6624 11.2844 89.2958 11.6657 88.9731 11.6044C88.6651 11.5457 88.3944 11.4097 88.0598 11.4804C88.1224 11.6017 87.9411 11.743 87.9678 11.851C88.3771 13.4577 91.0371 12.9284 92.2051 12.6177C93.4518 12.2844 94.6464 11.947 95.8504 11.5057C96.9491 11.103 99.1677 10.991 100.08 11.6697C100.273 11.815 100.228 12.0564 100.269 12.247C100.341 12.579 100.022 12.643 99.9157 12.8404C99.6517 13.3337 98.3957 14.219 97.8784 14.5684L97.0077 15.1577C96.6024 15.431 96.2251 15.671 95.8371 15.947L95.3358 16.3017C94.6398 16.7964 93.0038 17.5244 92.5304 18.3004C92.2611 18.7403 91.8744 19.083 91.6464 19.511L90.9624 20.799C90.8611 20.991 90.7691 21.135 90.7158 21.287L90.3051 22.4483C90.0451 23.1803 88.7984 27.0243 88.8118 27.5337C88.8344 28.351 88.4331 29.123 88.3224 29.9017C88.2478 30.4257 88.0038 31.2697 87.9958 31.3843C87.9438 32.071 87.6198 32.6163 87.4158 33.2283C87.2038 33.867 87.0424 34.4803 86.7571 35.0883L86.4918 35.655L86.0278 36.7403L85.6384 37.3763C85.1158 38.231 84.7158 39.0603 84.0758 39.6203C84.1358 39.9296 82.5611 41.703 82.3518 41.9043C82.0945 42.155 81.9385 42.371 81.7398 42.6643C81.4798 43.0483 81.0371 43.351 80.6811 43.6736L79.3265 44.9056C78.1838 45.943 74.3278 47.5963 72.7638 48.1123C72.3225 48.2589 72.1692 47.9469 71.9118 47.8389C71.2825 47.5723 71.0278 46.9016 70.6745 46.3003C70.5012 46.0069 70.5158 45.7949 70.4385 45.4936C70.3558 45.171 70.2265 44.971 70.2612 44.6016C70.2972 44.2123 70.0372 43.7923 69.9918 43.395C69.9305 42.8563 69.9812 42.3243 69.7865 41.751C69.4892 41.9936 69.2238 44.815 69.2292 45.087C69.2345 45.3683 69.3278 45.6443 69.3172 45.9629C69.2998 46.4549 69.4092 47.0149 69.4892 47.5229L69.6572 48.5869C69.8692 49.9229 70.6492 54.8163 70.5065 55.7749C70.4292 56.3003 70.5852 56.9643 70.4492 57.5496L70.1078 59.0243C69.8452 60.1602 69.4865 61.1562 68.7292 62.0322C68.3825 62.4336 68.1358 62.8376 67.6572 63.1402C67.4652 63.2616 67.3918 63.7202 67.0372 63.4656C67.0932 63.7402 67.0665 63.9082 66.9238 63.9936C66.8572 64.0336 66.7852 64.0109 66.6398 64.0269C66.5372 64.2989 66.2225 64.7256 66.0198 64.5616L65.7985 64.3829C65.8078 64.6216 65.7598 64.7696 65.6558 64.9242C65.5878 65.0229 65.3198 64.9816 65.2612 65.0816C65.1238 65.3122 65.0278 65.4442 64.8012 65.6056C64.6078 65.7416 64.3958 66.3202 64.6078 66.5149C64.8798 66.7669 65.1638 67.1842 65.4852 67.3549C66.0518 67.6562 66.6105 67.8336 67.1492 68.2136L67.7612 68.6456C69.5518 69.9096 69.8278 72.2509 69.4598 72.2189L69.2065 72.1975C69.9052 73.3375 67.5105 71.8656 67.3598 71.7482C66.8372 71.3442 66.2852 70.2296 65.8052 70.5842L66.2278 71.9562C66.3185 72.2522 66.8558 73.6402 66.4625 73.8695C66.3505 73.9349 65.5985 73.8535 65.4612 73.7456C65.0318 73.4069 64.3132 72.0149 63.8585 71.4962C63.6438 71.4962 63.5145 71.7669 63.5212 71.9642L63.5692 73.3869C63.5838 73.8215 63.6785 74.5295 63.2385 74.8482C62.8852 75.1042 62.2865 74.6402 62.1012 74.3002C61.6625 73.4962 61.4092 72.6935 60.8852 71.9482C60.0718 70.7922 57.8279 70.5722 56.5799 69.9216L55.7025 69.4642C54.5745 68.8762 53.4612 67.6309 53.9345 66.2362C54.0532 65.8869 54.3919 65.6002 54.4479 65.2362C54.5199 64.7642 54.8212 64.4336 54.9799 64.0109C55.5159 62.5896 56.5799 61.9669 57.5225 59.7829C57.6785 59.4189 57.8012 58.8536 57.8025 58.4936C57.8052 58.0843 57.8332 57.8429 57.9465 57.3269L58.1932 56.1896Z" fill="#243D13"/>
<path d="M81.5318 65.8936C81.2291 65.5856 79.4652 65.3843 79.0545 65.4789C79.5052 66.5363 80.0278 67.3589 80.5971 68.3923C80.7638 67.3949 81.1065 66.9856 81.5318 65.8936ZM80.6038 61.2003L79.6905 58.7696C79.1292 59.607 78.7692 60.6056 78.8625 61.759C79.4918 61.7643 80.0625 61.5403 80.6038 61.2003ZM84.5051 54.915C83.9691 54.347 83.2358 54.0683 82.4945 53.919C82.2571 53.871 82.3358 53.5456 82.2038 53.3563C81.8838 53.6576 82.0678 54.0123 82.1371 54.3336C82.2931 55.075 82.3465 55.7483 82.6891 56.583C83.3598 56.1163 84.0131 55.6376 84.5051 54.915ZM79.0172 51.263C79.1958 50.8843 79.4105 50.5456 79.4425 50.1176L79.6785 49.7936C79.0905 49.479 78.8518 49.7603 78.5198 50.0323C78.0532 50.4163 77.4212 50.579 77.0385 51.103C77.4758 51.7243 77.8052 52.4056 78.3878 53.063C78.7172 52.483 78.7438 51.8443 79.0172 51.263ZM84.3665 49.9323C84.6385 49.259 84.9665 47.4803 84.9358 46.971L84.4105 47.0003C84.2251 47.5097 83.1518 47.343 83.0185 47.9137C83.3598 48.683 83.9411 49.2003 84.3665 49.9323ZM83.6731 72.4576C83.9638 73.5029 84.2225 74.4789 84.2478 75.5469C84.1425 75.7243 84.0025 75.8283 83.8838 75.9736C83.5611 75.8083 83.2078 75.8309 82.9291 75.5923C81.1585 72.7109 80.2745 73.1243 79.2345 72.4243C79.0372 72.2923 74.9065 71.6696 74.6825 70.4989C74.6185 70.1696 74.3625 69.7883 74.3545 69.4349C74.3398 68.7229 74.3038 68.0043 74.4038 67.2909C74.4385 67.0336 74.5785 66.8736 74.5812 66.5976C74.5838 66.2109 74.7798 65.7656 74.9052 65.3829L75.6985 62.9509C75.9505 62.179 76.2212 61.495 76.3105 60.6816C76.3772 60.087 76.4732 59.5656 76.3758 58.9696C76.3092 58.555 76.3332 58.151 76.1225 57.755C75.9585 57.4443 75.9652 56.9896 75.7425 56.7083C75.5665 56.4883 75.4772 56.351 75.4092 56.0856C75.2998 55.655 74.8385 55.4003 74.5958 55.0723C73.7158 53.879 73.9478 54.6936 73.0918 53.659C73.2332 53.2816 72.9345 53.047 72.7665 52.8683C72.6718 50.8243 73.3478 50.7323 74.4172 49.6696C74.7918 49.2963 75.3292 49.127 75.7612 48.811C76.6212 48.1803 77.4732 47.6177 78.3798 47.0483L80.6611 45.619C81.0265 45.391 81.4065 45.207 81.7598 44.951C82.0558 44.7363 82.2425 44.367 82.5731 44.199C83.2665 43.8457 84.0011 44.0403 84.6958 44.1257C85.7198 44.2523 86.9051 44.3777 87.6985 45.2857C87.8745 45.4883 88.0531 45.5963 88.1878 45.851C88.3785 46.2123 88.2371 45.5457 88.9278 47.1617C90.0771 49.8536 89.8918 52.3336 89.4198 55.1656L89.2598 56.1323C89.0651 57.3003 88.8465 58.0336 88.4718 59.1403L87.6358 61.6096L87.1558 62.6043C87.1225 62.6736 86.8918 62.6763 86.9078 62.7736C86.9918 63.2696 86.5358 63.5003 86.3078 64.0056C85.6558 65.4469 85.3358 64.9589 84.9678 66.0923C84.8625 66.4136 85.3731 66.4269 85.5451 66.5603C85.8025 66.7576 86.3305 66.9989 86.6411 67.2109C87.1478 67.5589 87.5145 67.9843 88.0731 68.2936C88.3385 68.4416 88.5945 68.7509 88.8531 68.9443C89.3291 69.2989 90.3585 70.8989 89.5411 71.7229C89.4958 71.7696 89.3731 71.6283 89.2985 71.5469C89.1891 72.4909 87.6491 71.3069 87.2918 71.0336C87.0065 70.8149 86.6958 70.7083 86.4518 70.4163C86.3585 70.3056 86.1411 70.4403 86.0798 70.5323C85.9851 70.6723 86.0998 70.8696 86.1798 71.0029C86.5465 71.6176 86.7398 72.2776 87.0585 72.9349C87.2318 73.2909 87.0771 73.8216 86.7158 73.8896C85.7385 74.0749 84.8865 72.3256 84.1118 72.0123C83.8985 71.9256 83.6331 72.3123 83.6731 72.4576Z" fill="#243D13"/>
<path d="M89.5048 6.66841C89.7035 6.58308 89.9355 6.42175 89.7995 6.14042C89.7342 6.00575 89.4595 5.92575 89.3328 5.97242C89.2075 6.01908 88.9408 6.19242 88.9688 6.39241C89.0128 6.71908 89.2982 6.75775 89.5048 6.66841ZM88.6248 5.18708C89.0462 4.80709 89.3782 4.70975 89.9235 4.94442C90.6888 5.27375 91.1288 5.92042 90.9715 6.81908C90.9275 7.07775 90.6102 7.10708 90.4368 7.26308C89.5568 8.05508 88.1142 7.20441 87.9488 6.52975C87.8022 5.93108 88.2448 5.52975 88.6248 5.18708Z" fill="#243D13"/>
</svg>
