<svg width="113" height="37" viewBox="0 0 113 37" fill="none" xmlns="http://www.w3.org/2000/svg">
<path d="M19.7121 35.7998C19.4414 35.7358 19.2641 35.7398 19.0841 35.7958C19.3214 35.8478 19.5161 35.8385 19.7121 35.7998ZM55.3547 35.7491C55.1427 35.7411 54.9693 35.6558 54.7627 35.7545C54.9573 35.8665 55.1507 35.8785 55.3547 35.7491ZM44.6054 35.8718C44.996 35.8945 45.3854 35.9025 45.736 35.8691C45.7507 35.7998 45.7414 35.7118 45.7134 35.6998C45.6934 35.6918 45.644 35.6958 45.6214 35.7225C45.6067 35.7398 45.648 35.7625 45.6387 35.8211C45.4854 35.7438 44.7267 35.8131 44.6054 35.8718ZM61.3293 35.5238C61.2653 35.5958 61.3533 35.6505 61.4 35.6398C61.424 35.6345 61.4746 35.6678 61.4973 35.6051C61.4933 35.6145 61.4013 35.4425 61.3293 35.5238ZM93.1172 35.4025C92.9519 35.2811 92.3052 35.4651 92.1039 35.5878C92.1906 35.6545 93.3732 35.5905 93.1172 35.4025ZM81.9879 35.4891C81.9279 35.2171 81.4026 35.2891 81.4186 35.2825C81.2119 35.3678 81.1079 35.2518 80.9413 35.2411C80.8079 35.2345 80.6799 35.3531 80.4933 35.2945C80.3826 35.2598 80.2133 35.5131 80.1573 35.6051C80.5533 35.6411 81.6759 35.7158 81.9879 35.4891ZM105.517 35.3371C105.904 35.5305 106.291 35.5611 106.673 35.5011C106.667 35.3131 106.509 35.2705 106.4 35.1851C106.297 35.1051 106.189 35.2238 106.06 35.2265C105.867 35.2291 105.644 35.1611 105.517 35.3371ZM8.32678 35.3358C8.24278 35.2958 8.18411 35.4225 8.19878 35.4878C8.24411 35.6905 9.21478 35.5025 9.34411 35.4545C9.48678 35.4011 9.31344 35.1705 9.22144 35.1505C9.08411 35.1225 8.98411 35.2078 8.93744 35.3931C8.65478 35.1065 8.77611 35.5438 8.32678 35.3358ZM71.5826 35.0838C71.512 35.1145 71.4826 35.1745 71.5106 35.2385C71.5253 35.2718 71.592 35.2678 71.636 35.2385C71.6666 35.2185 71.716 35.1691 71.676 35.1238C71.6613 35.1065 71.632 35.0625 71.5826 35.0838ZM104.795 34.9278C104.695 34.7945 104.303 35.0038 104.315 35.2038C104.324 35.3625 104.557 35.2745 104.649 35.2838C104.756 35.2958 104.885 35.0491 104.795 34.9278ZM70.7906 35.1291C70.6266 35.1305 70.452 35.0105 70.2666 35.0851C69.9386 35.2171 69.8933 34.8158 69.7373 34.8958C69.7173 34.9065 69.6533 34.9451 69.6613 34.9678C69.8133 35.4371 70.3573 35.5945 70.7853 35.3505C70.9853 35.2358 71.24 35.3331 71.4373 35.2411C71.5146 35.2051 71.3786 35.0611 71.3093 35.0931C71.2706 35.1118 71.2266 35.1118 71.156 35.1798C71.044 35.0158 70.92 35.1291 70.7906 35.1291ZM47.692 34.8998C47.628 34.9798 47.7213 35.0291 47.7693 35.0145C47.7947 35.0065 47.8427 35.0318 47.8653 34.9798C47.8853 34.9345 47.856 34.8851 47.8307 34.8878C47.7933 34.8918 47.7173 34.8678 47.692 34.8998ZM37.76 35.2585L39.676 35.0878C39.7734 35.0798 39.8534 35.0825 39.8587 34.9825C39.8747 34.7038 39.0774 34.8905 38.9347 34.8985C38.5307 34.9238 38.2587 34.8718 38.004 34.9998C37.8934 35.0558 37.696 35.0451 37.76 35.2585ZM54.1747 34.8985C53.8093 34.7011 53.5267 34.7451 53.2213 34.8158C53.5267 35.0425 53.8907 34.9811 54.1747 34.8985ZM64.0573 35.1771L64.716 34.9638C64.784 34.9425 64.6813 34.7678 64.6213 34.7451C64.5733 34.7278 63.376 34.8971 63.1946 34.9865C63.2333 35.0811 63.2893 35.3505 63.4293 35.3225C63.6506 35.2785 63.856 35.2425 64.0573 35.1771ZM89.3439 34.8691C89.4239 34.8598 89.4746 34.8625 89.5399 34.8225C89.5772 34.7985 89.5639 34.7811 89.5079 34.7038C89.3479 34.8038 89.1653 34.6838 89.0079 34.6811C88.6719 34.6771 88.3612 34.7171 88.0186 34.6598C87.8319 34.6291 87.6333 34.7251 87.4413 34.7465C88.2932 35.6011 88.9586 34.9105 89.3439 34.8691ZM58.392 34.6371C58.2693 34.7118 58.2093 34.6038 58.1573 34.7011C58.2173 34.8038 58.312 34.7758 58.372 34.7345C58.4 34.7171 58.4733 34.6545 58.392 34.6371ZM58.1307 34.7931C58.6333 34.4211 56.436 34.9278 56.7 34.9638C57.2173 34.9785 57.66 34.8345 58.1307 34.7931ZM8.49745 34.7531C8.46411 34.4371 7.64411 34.8358 7.59745 34.8678C7.56811 34.8878 7.57745 35.0771 7.60811 35.0678C8.02678 34.9291 8.34811 35.0411 8.49745 34.7531ZM96.7839 34.9478C96.8892 34.9545 96.9959 34.9118 97.0359 34.8571C97.0732 34.8051 97.1466 34.6571 97.0799 34.5705C96.9759 34.4345 96.7066 34.5225 96.5999 34.6411C96.5266 34.7225 96.4079 34.6331 96.3532 34.6665C96.1199 34.8051 95.9212 34.9905 95.6399 35.0611C95.6079 35.5945 96.1919 34.9131 96.7839 34.9478ZM4.50546 34.5318C4.30946 34.5198 4.14012 34.5505 3.94546 34.6678C4.12546 34.7398 4.36146 34.7531 4.50546 34.5318ZM61.1213 34.8211C61.7266 34.7318 62.3026 34.7251 62.908 34.4945C62.424 34.3638 61.8893 34.5465 61.2853 34.5278C61.0546 34.5211 60.752 34.5785 60.7173 34.8438C60.82 34.9398 61.0106 34.8371 61.1213 34.8211ZM55.5293 34.9785L56.3747 34.5425C56.208 34.2825 55.7507 34.6745 55.4413 34.6358C55.1053 34.5931 54.8547 34.6851 54.556 34.8225C54.496 34.8505 54.312 34.8185 54.324 34.9065C54.388 35.4131 55.5093 34.9891 55.5293 34.9785ZM44.1814 34.4571C44.0894 34.4998 44.0974 34.6065 44.152 34.6305C44.2014 34.6518 44.252 34.6465 44.3174 34.6331C44.3667 34.6225 44.368 34.5398 44.324 34.5198C44.2907 34.5038 44.2334 34.4345 44.1814 34.4571ZM44.9494 34.4358C44.7507 34.3425 44.5 34.3785 44.3627 34.5758C44.5734 34.6771 44.768 34.6331 44.9494 34.4358ZM11.7241 35.2211L13.5854 34.8985C13.8201 34.8585 13.9188 34.7891 14.0681 34.6158C15.5241 34.2865 13.9854 34.4625 13.8774 34.5518C13.7934 34.6225 13.7081 34.7211 13.5921 34.6305C13.4121 34.4918 13.3174 34.7105 13.2001 34.7211C12.8454 34.7545 12.5694 34.8305 12.2601 34.9651C12.0854 35.0411 11.7894 34.9371 11.7241 35.2211ZM80.0879 34.2398C79.9239 34.1745 79.8653 34.1865 79.7626 34.2171C79.8719 34.3291 79.9733 34.3051 80.0879 34.2398ZM81.7879 34.3625L80.5253 34.1971C80.3879 34.1665 80.2279 34.0785 80.1026 34.3011C80.6719 34.4145 81.2106 34.5198 81.7879 34.3625ZM20.5881 34.1731C20.4667 34.1318 20.4507 34.0891 20.4334 34.0731C20.4121 34.0531 20.3161 34.0771 20.3387 34.1478C20.3707 34.2385 20.5374 34.2105 20.5881 34.1731ZM21.0574 34.0531C20.8667 33.9371 20.7107 34.0398 20.6414 34.1758C20.8041 34.2025 20.9427 34.1905 21.0574 34.0531ZM95.4479 34.0531C95.5052 34.0358 95.4719 33.9518 95.4386 33.9491C95.3906 33.9465 95.3452 33.9478 95.2786 33.9478C95.1959 33.9478 95.2052 34.0411 95.2479 34.0718C95.3279 34.1305 95.3199 33.9851 95.4479 34.0531ZM92.1826 34.2438C92.5359 34.2878 92.9372 34.2945 93.1599 33.9625C92.5359 34.0985 90.9826 33.8025 90.9639 34.6225C91.3879 34.7318 91.4999 34.1598 92.1826 34.2438ZM110.692 34.2038L110.58 33.8878C110.485 34.0585 110.44 34.2545 110.524 34.4531C110.637 34.3958 110.727 34.3025 110.692 34.2038ZM103.408 33.8771C103.157 34.1945 103.024 34.5411 102.916 34.9291C103.18 34.9651 103.36 34.1025 103.408 33.8771ZM46.912 33.9851C46.744 33.7838 46.504 34.0905 46.444 34.2158C46.636 34.4025 46.9387 34.0158 46.912 33.9851ZM101.545 34.7625C101.835 34.4745 102.011 34.1705 102.165 33.8278C102.013 33.8731 101.501 34.6091 101.545 34.7625ZM95.9039 33.8625C95.8426 33.7345 95.7359 33.9038 95.5279 33.9291C95.5772 34.1505 95.7439 33.9225 95.9039 33.8625ZM85.4719 34.2518L84.5399 33.7185C84.5013 33.8905 84.6146 34.0118 84.7599 34.0891C84.9986 34.1531 85.1999 34.2758 85.4719 34.2518ZM76.1639 34.1398C76.3639 34.1131 76.4719 34.1091 76.6173 34.0505C76.8759 33.9438 77.6413 33.9451 78.1279 33.6265C77.7439 33.5171 77.4426 33.7718 77.0799 33.7651C76.6026 33.7571 76.1266 33.7718 75.6933 34.0758C75.6559 34.1025 75.5439 34.0451 75.5266 34.1105C75.5159 34.1491 75.5053 34.2305 75.5546 34.2238L76.1639 34.1398ZM49.7067 33.8278C49.1773 33.6691 49.3147 33.8571 48.9587 33.5811C48.892 33.6918 48.896 33.8745 49.012 33.9145C49.2467 33.9945 49.4947 33.9825 49.7067 33.8278ZM18.1241 33.5785C17.9561 33.6091 17.8881 33.5571 17.8494 33.6705C17.8441 33.7158 17.9774 33.7025 18.0468 33.6971C18.0921 33.6931 18.1668 33.6211 18.1241 33.5785ZM11.9308 34.0611C12.5268 33.9291 13.1348 33.8985 13.6748 33.5558C12.3588 33.7185 11.1481 33.9785 9.86544 34.3358C10.0814 34.5118 11.5588 34.1038 11.9308 34.0611ZM101.389 33.7611C101.375 33.7358 101.363 33.7251 101.293 33.7225C101.196 33.5905 101.123 33.4838 100.975 33.5411C100.883 33.5771 100.524 33.9011 100.537 33.8118L100.512 33.9731C100.503 34.0345 101.545 34.0225 101.389 33.7611ZM21.5001 34.0438C21.4441 34.2318 21.5174 33.4558 21.2427 33.5371C21.3227 33.6131 21.3081 33.7051 21.3134 33.7851C21.3187 33.8758 21.0001 33.9918 21.0974 34.0998C21.1521 34.1611 21.4654 34.1598 21.5001 34.0438ZM111.259 33.5545C111.251 33.3518 111.123 33.3225 111.1 33.4838C111.124 33.6051 111.228 33.6878 111.259 33.5545ZM71.4133 33.6451L72.1333 33.5118C72.9226 33.3651 71.32 33.3465 71.0546 33.6198C71.1386 33.7131 71.288 33.6678 71.4133 33.6451ZM38.032 33.5238C38.256 33.2238 37.5027 33.6025 37.4694 33.6545C37.6587 33.6931 37.8654 33.6505 38.032 33.5238ZM20.2308 33.3385C20.1988 33.3705 20.1961 33.4865 20.2481 33.5051C20.2374 33.5011 20.3827 33.4291 20.3427 33.3545C20.3241 33.3238 20.2734 33.2958 20.2308 33.3385ZM105.02 34.1611C105.1 33.8291 105.192 33.5651 105.175 33.2505C105.169 33.1745 105.005 33.1705 104.949 33.1891C104.899 33.2065 104.86 33.2878 104.833 33.3705L104.583 34.1785L105.02 34.1611ZM19.7974 33.2145C19.7268 33.2571 19.6481 33.3238 19.6774 33.3545C19.7348 33.4158 19.7814 33.3958 19.8134 33.3945C19.8521 33.3931 19.9201 33.3545 19.8961 33.2985C19.8841 33.2691 19.8414 33.1865 19.7974 33.2145ZM6.64012 34.3185C7.10678 34.0451 7.56945 33.8425 8.07478 33.6158C8.02145 33.4731 7.96145 33.3545 7.88278 33.2011L7.02812 33.7078C6.22679 34.1811 6.47878 34.4131 6.64012 34.3185ZM54.38 33.3051C54.1893 33.2505 54.1067 33.0438 53.8573 33.0798C53.9907 33.2198 54.1573 33.3398 54.38 33.3051ZM16.4334 33.2651C16.6681 33.2265 16.9148 33.2478 17.0748 33.0278C16.4161 32.9865 15.8521 33.2171 15.2001 33.2731C15.3214 33.3358 15.5308 33.4118 15.6588 33.3905L16.4334 33.2651ZM109.891 32.9691C109.833 33.0558 109.581 34.0185 109.769 33.9878C109.889 33.9678 110.155 33.0558 109.891 32.9691ZM80.0186 32.8651C79.9706 32.7838 79.8506 32.8105 79.8333 32.8558C79.8039 32.9331 79.8706 32.9598 79.9266 32.9518C79.9586 32.9478 80.0679 32.9491 80.0186 32.8651ZM67.7266 32.8345C67.6533 32.7158 67.5253 32.7438 67.448 32.7891C67.4026 32.8171 67.34 32.8838 67.4106 32.9451L67.7266 32.8345ZM102.917 32.7278C102.711 32.6958 102.509 32.7931 102.42 32.9718C102.636 33.0051 102.797 32.9185 102.917 32.7278ZM40.2054 32.7891C40.024 32.5678 40.1094 32.7651 39.696 32.9131C39.6467 32.9305 39.7267 33.0478 39.7694 33.0585C39.8067 33.0691 40.1707 32.8811 40.2054 32.7891ZM80.5786 32.9251C80.6559 32.7158 80.2679 32.6171 80.1573 32.6905C80.0786 32.7425 80.0626 32.8305 80.1013 32.9305C80.2613 32.9371 80.4066 32.9518 80.5786 32.9251ZM70.4066 32.6651C70.3706 32.7811 70.4746 32.8425 70.512 32.7971C70.5373 32.7665 70.596 32.7105 70.5453 32.7078C70.516 32.7051 70.4173 32.6318 70.4066 32.6651ZM82.1066 32.7025C81.9413 32.5705 81.7493 32.5531 81.5399 32.6371C81.7266 32.7145 81.8719 32.7571 82.1066 32.7025ZM97.3892 33.1825C97.7386 33.6358 98.1746 33.1465 98.7679 32.8571C98.9199 32.7825 99.0692 32.7158 99.0692 32.4891C98.9746 32.6265 98.8092 32.5718 98.7212 32.6318C98.5146 32.7705 98.3572 32.8665 98.1146 32.9198C97.8719 32.9745 97.6746 33.1545 97.3892 33.1825ZM23.9494 32.4065C23.7814 32.2678 23.5947 32.2625 23.3974 32.2825C23.5747 32.3438 23.7254 32.4825 23.9494 32.4065ZM42.1094 32.2065C41.8747 32.1905 41.688 32.3065 41.5574 32.4865C41.8067 32.5118 42.0147 32.4265 42.1094 32.2065ZM10.6468 32.2931C10.6601 32.2678 10.6494 32.1825 10.5868 32.1985C10.4668 32.2291 10.3308 32.2291 10.2681 32.3105C10.2508 32.3531 10.3374 32.4518 10.3641 32.4398C10.0814 32.5625 10.6814 32.2251 10.6468 32.2931ZM75.4706 32.4491C76.1586 32.4905 76.7799 32.3358 77.4399 32.2865C77.5626 32.2771 77.6253 32.2185 77.7439 32.1825C77.9799 32.1118 78.2359 32.1905 78.4519 32.0131C78.3759 31.8905 78.2719 31.9505 78.1666 31.9558L77.2879 31.9971C77.1946 32.0011 76.9946 32.0078 76.9346 32.0691C76.8293 32.1758 76.6573 32.1145 76.5373 32.1491L75.4706 32.4491ZM52.1307 32.0411C52.0013 31.8691 51.9147 31.8505 51.808 31.7571C51.8227 31.9278 51.992 32.1171 52.1307 32.0411ZM70.2386 31.7811C70.2986 31.7718 70.3386 31.6851 70.3613 31.6678C70.3746 31.6571 70.3133 31.6118 70.2946 31.5785C70.0413 31.5838 69.8346 31.7158 69.6426 31.8825L70.2386 31.7811ZM110.663 31.6265C110.636 31.5611 110.539 31.5318 110.464 31.5091C110.409 31.5198 110.48 31.6291 110.496 31.6718C110.512 31.7185 110.708 31.7305 110.663 31.6265ZM109.928 31.8945C110.012 31.8171 110.087 31.5785 109.973 31.5385C109.848 31.5265 109.852 31.7811 109.928 31.8945ZM70.276 31.3998C70.2173 31.4678 70.2853 31.5305 70.348 31.5131C70.3706 31.5065 70.3693 31.4838 70.4173 31.4518C70.452 31.4278 70.4546 31.3878 70.4146 31.3878C70.3573 31.3865 70.3026 31.3665 70.276 31.3998ZM40.5494 31.5491C40.672 31.4491 40.592 31.3225 40.476 31.4198C40.38 31.4998 40.408 31.5931 40.5494 31.5491ZM23.3734 31.4038C23.3761 31.4851 23.4201 31.4985 23.4427 31.5105C23.4667 31.5238 23.5267 31.5091 23.5334 31.4771C23.5427 31.4278 23.5241 31.3865 23.5001 31.3865C23.4747 31.3865 23.3721 31.3665 23.3734 31.4038ZM71.5586 32.5131C72.076 32.3785 72.5826 32.2758 73.0733 32.0731C73.2413 32.0051 74.1359 31.5318 73.74 31.3398C73.2746 31.6865 72.6946 31.8318 72.1426 32.0225C71.8266 32.1305 71.5586 32.2945 71.2266 32.3665C71.08 32.3985 70.976 32.6531 70.804 32.5998C70.7226 32.5745 70.64 32.5918 70.6346 32.6598C70.632 32.7038 70.664 32.7358 70.7173 32.7905C70.6533 32.7251 71.4226 32.5478 71.5586 32.5131ZM36.8187 31.3318C36.792 31.3718 36.7707 31.4451 36.7414 31.4811C36.7214 31.5051 36.8294 31.5385 36.8587 31.4825C36.872 31.4558 36.932 31.4145 36.8934 31.3891C36.8774 31.3785 36.8307 31.3158 36.8187 31.3318ZM12.5668 32.7905C12.4748 32.4371 12.9014 32.3385 13.0401 32.1998C13.2268 32.0145 13.4801 31.8931 13.6388 31.7038C13.7294 31.5958 13.7628 31.4545 13.9908 31.3851C13.6934 31.2531 13.5681 31.5571 13.3934 31.6958L12.1734 32.6691C11.9134 32.8771 11.6361 33.0571 11.4214 33.3051C11.3961 33.3345 11.2748 33.2971 11.2801 33.3585C11.2841 33.4025 11.2788 33.4331 11.3161 33.4438C11.4641 33.4865 12.3068 32.9278 12.5668 32.7905ZM100.631 32.0265C100.791 31.9491 101.649 31.3838 101.647 31.3558C101.645 31.3371 101.6 31.3251 101.568 31.2598L100.463 31.7438C100.127 31.8891 99.9986 32.3598 99.9946 32.3505C100.131 32.6491 100.081 32.2971 100.631 32.0265ZM98.2879 31.4238C98.4106 31.3251 98.3306 31.1971 98.2146 31.2945C98.1186 31.3745 98.1479 31.4678 98.2879 31.4238ZM7.14945 31.2625C6.55078 31.3958 6.30412 31.6411 5.75745 31.7918C6.05879 32.2411 6.88678 31.5331 7.14945 31.2625ZM21.0427 31.3611C21.0334 31.3038 20.9454 31.2731 20.9281 31.2238C20.8774 31.2771 20.8334 31.3065 20.8534 31.3518C20.8681 31.3878 20.9054 31.4171 20.9374 31.4398C20.9681 31.4625 21.0521 31.4211 21.0427 31.3611ZM108.961 31.8478C109.241 31.6198 109.2 31.3051 108.963 31.0465C108.861 31.3238 108.864 31.5811 108.961 31.8478ZM38.8507 30.9758C38.7587 31.0398 38.8414 31.1291 38.9067 31.1331C38.9534 31.1358 39.0254 31.0851 39.0374 31.0371C39.0574 30.9505 38.9494 30.9078 38.8507 30.9758ZM10.7201 32.2491C10.9601 32.1358 11.2668 32.2131 11.4708 32.0851C11.9668 31.7745 12.3921 31.3878 12.8521 31.0318C12.9134 30.9838 12.9241 30.9118 12.8961 30.8678C12.8001 30.7198 11.9801 31.3825 11.9694 31.3891C11.6614 31.5931 11.3241 31.7158 11.0294 31.9531C10.9228 32.0398 10.6628 31.9491 10.7201 32.2491ZM106.515 31.2638C106.615 31.0798 106.715 30.8465 106.593 30.6505C106.479 30.8598 106.339 31.0438 106.515 31.2638ZM99.5492 30.3251C99.6132 30.1411 98.1892 31.2505 98.4986 31.1611C98.9279 30.8238 99.2146 30.7025 99.5492 30.3251ZM39.9867 30.4865C40.1054 30.3825 40.036 30.2691 39.9094 30.3518C39.824 30.4465 39.8414 30.5251 39.9867 30.4865ZM75.8306 30.2385C75.6973 30.2091 75.5933 30.2891 75.4333 30.3358C75.4213 30.5038 75.5546 30.3985 75.6306 30.4291C75.7173 30.4638 75.8053 30.4318 75.8306 30.2385ZM76.0239 30.2945C76.1546 30.2665 76.2026 30.1985 76.1853 30.1105C76.1773 30.0678 76.1119 30.0185 76.0493 30.0265C76.0079 30.0305 75.8813 30.2211 75.9026 30.2718C75.9239 30.3211 75.9546 30.3091 76.0239 30.2945ZM76.5306 29.8358C76.4946 29.8758 76.5066 30.0398 76.5626 29.9838C76.6093 29.9358 76.6279 29.9985 76.6746 29.9945C76.7466 29.9891 76.6946 29.8878 76.6693 29.8745C76.6399 29.8598 76.5813 29.7758 76.5306 29.8358ZM50.1813 29.7865C50.2507 29.8505 50.3773 29.8078 50.46 29.7625C50.5093 29.7345 50.5693 29.6545 50.508 29.5625C50.384 29.6611 50.324 29.7425 50.1813 29.7865ZM18.5561 29.6251C18.5828 29.5611 18.4548 29.4891 18.3854 29.5318L18.1534 29.6731C18.2694 29.6878 18.4348 29.7545 18.5561 29.6251ZM109.401 29.8545C109.443 29.6211 109.179 29.3945 109.2 29.3971C109.164 29.3931 109.075 29.4158 109.071 29.4705C109.06 29.6211 109.145 29.7571 109.195 29.9091C109.277 29.8811 109.376 29.9038 109.401 29.8545ZM81.1053 29.3118C81.2079 29.2905 81.1626 29.0718 81.0959 29.0878C80.9759 29.1145 80.8999 29.1785 80.7666 29.2211C80.8533 29.2718 80.9613 29.3425 81.1053 29.3118ZM21.3041 28.8305C21.2241 28.8971 21.3081 28.9665 21.3667 28.9505C21.3894 28.9438 21.3907 28.9171 21.4361 28.8878C21.4587 28.8745 21.4881 28.8185 21.4347 28.8078C21.4067 28.8025 21.3294 28.8091 21.3041 28.8305ZM71.8866 28.5611C71.7533 28.4465 71.6666 28.6465 71.4933 28.7731C71.6453 28.7571 71.7946 28.8038 71.8866 28.5611ZM81.0359 28.4598C80.9799 28.5025 80.9346 28.5758 80.9906 28.5665C81.0693 28.5531 81.0973 28.6478 81.1199 28.6265C81.1506 28.5985 81.1653 28.4971 81.1439 28.4745C81.1199 28.4451 81.0773 28.4291 81.0359 28.4598ZM75.9399 28.4518C75.7853 28.4465 75.6599 28.5625 75.6639 28.7145C75.8146 28.6558 75.8706 28.5838 75.9399 28.4518ZM22.4321 28.5278C22.6374 28.6465 22.6934 28.6318 22.7334 28.5718C22.7601 28.5305 22.7454 28.4051 22.6907 28.3585C22.6134 28.4065 22.4601 28.4345 22.4321 28.5278ZM77.0613 28.4171C77.0626 28.3465 76.9799 28.2625 76.9479 28.2998C76.7546 28.5225 76.0053 29.0531 75.7373 29.4171C76.2026 29.5145 77.0599 28.5531 77.0613 28.4171ZM41.704 28.2585C41.6347 28.2251 41.3894 28.4758 41.5014 28.5171C41.5667 28.4105 41.8827 28.3465 41.704 28.2585ZM39.612 29.7998C40.0427 29.6065 40.3147 29.2931 40.6934 29.0931C40.948 28.9585 41.1974 28.8425 41.3467 28.5971C41.2294 28.5598 41.1654 28.6918 41.028 28.6225C41.1627 28.5278 41.3 28.4545 41.3507 28.2838C41.0747 28.3238 40.92 28.5091 40.6747 28.6705C40.7614 28.7638 40.876 28.7011 41.0227 28.6198C41.0654 28.7771 40.8987 28.8185 40.7867 28.8825L40.3107 29.1558C40.0307 29.3171 39.772 29.5158 39.612 29.7998ZM76.1599 28.3105C76.2173 28.2865 76.2706 28.2465 76.2626 28.2251C76.2519 28.1945 76.1959 28.1878 76.1373 28.1958C76.0919 28.2025 76.0239 28.2625 76.0226 28.2931C76.0213 28.3291 76.0973 28.3371 76.1599 28.3105ZM21.4747 28.7531C21.6094 28.4571 21.6801 28.1731 21.8481 27.8931C21.5334 27.9398 21.3201 28.1691 21.2041 28.4211C21.1387 28.5625 21.3414 28.8425 21.4747 28.7531ZM100.055 29.8625C99.8999 29.9971 99.6319 30.0545 99.7119 30.3011C100.753 29.5251 101.701 28.7225 102.532 27.8318L101.981 28.1958L100.055 29.8625ZM94.2279 28.0505C94.2946 28.0251 94.2359 27.8358 94.1639 27.8278C94.0852 27.8198 94.0332 27.9171 94.0679 27.9531C94.0959 27.9825 94.1399 28.0851 94.2279 28.0505ZM76.7919 27.7678C76.7519 27.7438 76.2986 27.8745 76.4306 28.0745C76.5773 27.9785 76.9466 27.8585 76.7919 27.7678ZM13.1094 28.0518C13.2908 28.0771 13.4948 27.9891 13.4494 27.7758C13.3094 27.8251 13.2081 27.9025 13.1094 28.0518ZM22.7534 27.7065C22.7027 27.7531 22.6267 27.7638 22.6001 27.7838C22.5747 27.8011 22.6574 27.8585 22.6867 27.8771C22.7121 27.8931 22.7454 27.8091 22.7801 27.7905C22.8067 27.7771 22.7694 27.6918 22.7534 27.7065ZM35.3547 27.8065C35.3027 27.7105 35.1067 27.5811 35.0387 27.6785C35.0654 27.7971 35.2467 27.8491 35.3547 27.8065ZM108.564 27.9718C108.488 27.8238 108.496 27.7398 108.46 27.5598C108.388 27.6251 108.315 27.7185 108.281 27.8038C108.229 27.9318 108.289 28.0211 108.355 28.0478C108.449 28.0865 108.605 28.0531 108.564 27.9718ZM109.672 27.5105C109.544 27.6611 109.505 27.8745 109.649 28.0158C109.62 27.8158 109.943 27.4478 109.672 27.5105ZM77.3306 27.4451C77.2506 27.3598 77.0373 27.4225 76.9853 27.5105C76.9533 27.5638 77.0146 27.6585 77.0493 27.6651C76.9706 27.6491 77.4453 27.5678 77.3306 27.4451ZM97.5772 27.2265C97.5439 27.1158 97.0746 27.4225 97.0412 27.4465C97.1146 27.6771 97.5772 27.2305 97.5772 27.2265ZM19.1868 27.8891C19.3441 27.7398 19.7894 27.2771 19.7668 27.2345C19.6601 27.0425 18.9788 27.8891 18.8841 27.9905C18.7254 28.1611 18.5334 28.3291 18.5548 28.5758C18.8574 28.4038 18.9548 28.1091 19.1868 27.8891ZM76.3813 27.0478C76.2719 27.2678 75.8853 27.3451 76.0546 27.4345C76.0799 27.4478 76.1293 27.4478 76.1546 27.4038C76.3506 27.0558 76.5733 27.1731 76.3813 27.0478ZM62.8933 27.0851C62.8373 27.1531 62.9106 27.2131 62.964 27.1998C62.9893 27.1931 62.988 27.1705 63.036 27.1371C63.0706 27.1145 63.072 27.0745 63.032 27.0731C62.9746 27.0731 62.9213 27.0531 62.8933 27.0851ZM46.184 27.2025C46.2267 27.1545 46.1774 27.0718 46.1494 27.0651C46.1174 27.0571 46.0787 27.0798 46.0267 27.1131L45.7974 27.4158C45.9414 27.3718 46.0827 27.3158 46.184 27.2025ZM108.464 27.4038C108.613 27.3758 108.728 27.3718 108.764 27.2691C108.788 27.2038 108.803 27.0398 108.697 27.0491C108.58 27.0585 108.476 27.1225 108.44 27.1811C108.408 27.2371 108.407 27.4145 108.464 27.4038ZM16.8321 26.9745C16.5854 26.8825 16.2374 26.9931 16.1361 27.2998C16.0961 27.4225 16.1001 27.5878 16.0708 27.7891C16.4534 27.3371 16.4148 27.4051 16.8321 26.9745ZM98.1506 26.9918C98.2226 26.9265 98.3292 26.9398 98.2546 26.8838C98.1412 26.8665 98.1159 26.8971 98.0652 26.9425C98.0146 26.9878 98.0599 27.0425 98.1506 26.9918ZM39.6014 26.8038C39.2707 26.8238 39.124 27.0425 38.892 27.2211C39.2 27.2598 39.4667 27.0651 39.6014 26.8038ZM21.9961 26.7745C21.8281 26.7478 21.1201 27.6438 21.1027 27.5998C21.1187 27.6398 21.1614 27.6731 21.1907 27.6838C21.2974 27.7211 21.9681 26.8731 21.9961 26.7745ZM89.5186 27.2905C89.5186 27.0265 89.6506 26.8985 89.9026 26.8705C89.8186 26.7638 89.7052 26.7811 89.6052 26.7158C89.4439 26.8305 89.3546 26.9891 89.3266 27.1851C89.3199 27.2398 89.4572 27.3051 89.5186 27.2905ZM108.817 26.5998C108.759 26.7238 108.803 26.7771 108.887 26.7611C108.924 26.7531 108.947 26.6825 108.895 26.6371C108.877 26.6225 108.84 26.5545 108.817 26.5998ZM75.4973 26.6251C75.5439 26.5518 75.4826 26.4811 75.4173 26.5398C75.3333 26.6158 75.2373 26.6785 75.2199 26.8025C75.3399 26.7985 75.3599 26.6758 75.4973 26.6251ZM31.1587 26.5491C31.0627 26.4891 31.0174 26.4345 30.9121 26.4518C30.9547 26.5638 31.0387 26.6131 31.1587 26.5491ZM109.551 26.2825C109.595 26.2371 109.656 26.3678 109.671 26.2891C109.679 26.2491 109.673 26.2118 109.671 26.1691C109.665 26.0891 109.473 26.2558 109.483 26.2278C109.471 26.2651 109.479 26.3545 109.551 26.2825ZM21.1214 26.3198C21.2374 26.2425 21.2507 26.1345 21.1881 26.0731C21.0721 26.1505 21.0574 26.2585 21.1214 26.3198ZM89.2999 26.1025C89.2813 25.9945 89.0773 25.9878 89.0639 26.0531C89.0533 26.1078 89.1546 26.1785 89.1959 26.1945C89.2266 26.2078 89.3119 26.1731 89.2999 26.1025ZM50.3493 25.9505C50.1213 26.1598 49.9213 26.3998 49.78 26.7371C49.984 26.7185 50.5293 26.2838 50.3493 25.9505ZM100.945 25.9425C101.019 25.9091 101.027 25.8425 100.996 25.8451C100.741 25.8745 100.424 25.8838 100.424 26.1838L100.945 25.9425ZM56.8387 26.0438C56.9093 26.0425 56.8773 25.9158 56.8507 25.8905C56.824 25.8651 56.796 25.7865 56.728 25.8691C56.7827 25.9318 56.8053 26.0251 56.8387 26.0438ZM108.088 26.3025C108.169 26.0238 108.209 25.9265 108.091 25.7798C107.925 25.9265 107.96 26.1638 108.088 26.3025ZM105.692 26.7758C106.14 26.8265 106.439 26.5051 106.715 26.2438C106.803 26.1585 106.947 26.1505 106.957 26.0118C106.964 25.9358 107.001 25.8065 106.881 25.7825C106.313 26.3198 106.389 26.3251 105.692 26.7758ZM60.7613 25.8065C60.7347 25.8918 60.86 25.9745 60.908 25.9425C60.976 25.8985 60.868 25.8745 60.88 25.8438C60.8973 25.7971 60.8013 25.6798 60.7613 25.8065ZM87.1132 25.8865C87.1799 25.8545 87.1413 25.7905 87.1519 25.7278C87.1639 25.6611 87.1426 25.6078 87.0239 25.6398C87.0133 25.7345 87.0852 25.7771 87.1132 25.8865ZM69.188 25.7545C69.2493 25.7171 69.276 25.6638 69.2413 25.6171C69.228 25.5985 69.1893 25.5798 69.1506 25.5705C69.1506 25.5705 68.9786 25.6825 69.0333 25.7771C69.052 25.8105 69.0586 25.8105 69.0826 25.8025C69.1293 25.7851 69.1546 25.7745 69.188 25.7545ZM23.0934 25.5131C22.9614 25.5385 22.5587 25.9318 22.6001 26.0225C22.6267 26.0825 22.7054 26.0825 22.7454 26.0691C22.6587 26.0985 23.2067 25.6118 23.0934 25.5131ZM99.7346 25.3691C99.6919 25.4771 99.7719 25.5118 99.8159 25.5038C99.8506 25.4985 99.8852 25.4971 99.9372 25.4465C99.9732 25.4105 99.9306 25.3811 99.9012 25.3638C99.8639 25.3411 99.7652 25.2891 99.7346 25.3691ZM91.2999 25.8065C91.3866 25.7065 91.3412 25.3811 91.2266 25.3478C91.0439 25.2958 90.9172 25.4718 90.8839 25.5811C90.8412 25.7291 90.8399 25.8425 90.9359 26.0105C90.9892 25.8678 91.1959 25.9265 91.2999 25.8065ZM30.6934 25.3585C30.6881 25.4638 30.7547 25.4678 30.7801 25.4878C30.8201 25.5211 30.8721 25.4771 30.8934 25.4451C30.9174 25.4078 30.8721 25.3585 30.8441 25.3438C30.8147 25.3278 30.6974 25.2785 30.6934 25.3585ZM111.099 26.6398L111.172 25.8251L111.145 25.1865C110.959 25.6038 111.055 26.0185 110.959 26.4398C110.899 26.6958 110.795 26.9438 110.913 27.2078C111.079 27.0558 111.08 26.8465 111.099 26.6398ZM79.5426 26.0518L79.9546 25.6891C80.1439 25.5225 80.3879 25.4038 80.4266 25.1371C79.9986 25.3545 79.7333 25.6745 79.4213 25.9731C79.3533 26.0371 79.3626 26.0478 79.4013 26.0918C79.4653 26.1625 79.4839 26.1038 79.5426 26.0518ZM50.8133 25.4145C50.9853 25.5705 51.1147 25.5811 51.212 25.4451C51.2773 25.3531 51.3053 25.2398 51.1413 25.1731C51.052 25.2371 50.9027 25.3238 50.8133 25.4145ZM81.6586 25.9505C81.9653 25.6691 82.1879 25.3958 82.4146 25.0731C82.1359 25.0465 82.0666 25.3038 81.9693 25.4545C81.8626 25.6211 81.6279 25.7185 81.6586 25.9505ZM37.532 25.1038C37.2627 25.1731 36.9734 25.1705 36.72 25.3131C36.344 25.5251 37.4427 25.6105 37.532 25.1038ZM52.716 25.0118C52.8 24.9185 52.7067 24.8318 52.6147 24.9078C52.548 24.9611 52.5453 25.0371 52.56 25.0758C52.5693 25.0971 52.58 25.1278 52.6187 25.0998C52.6427 25.0838 52.6707 25.0611 52.716 25.0118ZM24.4601 24.8571C24.2761 24.8611 24.1534 24.8065 23.9907 24.8665C24.1307 24.9931 24.3147 25.0091 24.4601 24.8571ZM59.776 24.9931C59.9053 24.9211 59.864 24.8398 59.808 24.7985C59.724 24.7331 59.6427 24.7665 59.5867 24.8491C59.536 24.9211 59.54 25.0038 59.5933 25.0398C59.6507 25.0758 59.6973 25.0371 59.776 24.9931ZM35.8814 24.8625C35.924 24.8051 35.8774 24.7545 35.812 24.7851C35.688 24.8438 35.5734 24.9065 35.56 25.0398C35.6827 25.0158 35.756 24.9505 35.8814 24.8625ZM68.7773 24.7225C68.696 24.7638 68.7266 24.8918 68.78 24.9331C68.816 24.9625 68.972 24.8411 68.94 24.7411C68.9186 24.6758 68.8293 24.6971 68.7773 24.7225ZM24.7547 24.8705C24.8214 24.8358 24.7201 24.8145 24.6827 24.7891C24.6027 24.7358 24.5587 24.6918 24.5241 24.7278C24.4601 24.7945 24.4134 24.8038 24.4214 24.8385C24.4387 24.9118 24.5161 24.9678 24.5627 24.9465C24.5961 24.9318 24.6387 24.9305 24.7547 24.8705ZM65.9173 24.5211C65.836 24.5531 65.804 24.6131 65.82 24.6625C65.8293 24.6945 65.8693 24.7091 65.912 24.6971C65.9653 24.6825 65.9586 24.5038 65.9173 24.5211ZM93.6746 24.4771C93.5719 24.4171 93.5066 24.4451 93.4039 24.4571C93.4359 24.5145 93.4706 24.5611 93.5066 24.5678C93.5599 24.5785 93.6599 24.6078 93.6746 24.4771ZM87.6066 24.4305C87.5199 24.4931 87.5973 24.5878 87.6253 24.6225C87.6453 24.6478 87.6773 24.6318 87.7506 24.5945C87.7799 24.5785 87.7839 24.5091 87.7252 24.4825C87.6959 24.4691 87.6519 24.3985 87.6066 24.4305ZM19.1081 25.0358C19.6348 24.9825 20.0907 24.6918 20.2094 24.2198L19.1601 24.5798C19.1748 24.7331 19.1828 24.8691 19.1081 25.0358ZM57.8707 25.8185C57.2373 25.1491 57.3027 24.7958 56.8787 24.1238C56.7813 24.3011 57.6453 25.9851 57.8707 25.8185ZM72.5226 24.0078C72.0826 24.1185 71.7466 24.3451 71.38 24.5465C71.2146 24.7398 72.724 23.9918 72.5226 24.0078ZM82.2799 24.2851C82.4653 24.3998 82.5359 24.2625 82.5839 24.1651C82.6106 24.1118 82.6799 24.0518 82.5706 23.9531C82.4959 24.0891 82.3039 24.1185 82.2799 24.2851ZM38.4547 24.0051C38.5027 23.9638 38.492 23.9265 38.48 23.9078C38.4854 23.9171 38.1054 23.8052 38.0347 23.8825C37.9867 23.9358 37.9094 24.0291 37.8934 24.1305C37.8254 24.2385 38.7707 23.7318 38.4547 24.0051ZM47.64 23.8385C47.7093 23.6811 47.4854 23.6958 47.4187 23.7705C47.376 23.8198 47.252 23.8398 47.284 23.9585C47.3894 23.8878 47.604 23.9091 47.64 23.8385ZM29.1841 23.7292C29.1281 23.8412 29.1881 23.8812 29.2121 23.9145C29.2561 23.9745 29.2907 23.9185 29.3254 23.8825C29.3601 23.8478 29.3494 23.7798 29.3174 23.7691C29.2854 23.7571 29.2054 23.6878 29.1841 23.7292ZM92.2879 23.7438C92.1452 23.6118 91.9799 23.6118 91.8359 23.7425C92.0066 23.7692 92.1186 23.7678 92.2879 23.7438ZM87.7186 23.7358C87.6053 23.7305 87.5079 23.6172 87.4439 23.6505C87.3826 23.6838 87.4466 23.8292 87.4959 23.8265C87.5613 23.8238 87.6653 23.8438 87.7186 23.7358ZM56.2413 23.8265C56.2507 23.6732 56.18 23.5772 56.0693 23.5025C56.0573 23.6532 56.1307 23.7545 56.2413 23.8265ZM60.1987 23.4425C59.892 23.4425 59.6987 23.6692 59.4507 23.7758C59.3667 23.8118 59.3307 23.8478 59.352 23.9198C59.436 24.1998 60.0787 23.5852 60.1987 23.4425ZM94.6052 23.4505C94.6012 23.3558 94.4652 23.3558 94.4612 23.4505C94.4532 23.6185 94.6119 23.6185 94.6052 23.4505ZM79.0746 23.3758C78.3186 23.7891 78.7613 23.7878 78.7679 23.7292C78.7893 23.5332 79.1546 23.5985 79.0746 23.3758ZM86.3933 24.0065C86.2799 23.6558 86.0573 23.3745 85.7373 23.1945C85.9519 23.4932 86.1186 23.7758 86.3933 24.0065ZM82.4773 23.2105C82.3746 23.2945 82.4493 23.3198 82.4906 23.3532C82.5399 23.3945 82.6133 23.4118 82.6346 23.3798C82.6746 23.3198 82.6879 23.2385 82.6506 23.2118C82.5999 23.1785 82.5319 23.1652 82.4773 23.2105ZM94.4852 23.0852C94.4532 23.1172 94.4519 23.2318 94.5012 23.2518C94.4919 23.2478 94.6359 23.1758 94.5959 23.1025C94.5786 23.0705 94.5266 23.0425 94.4852 23.0852ZM59.5133 23.0225C59.4787 23.0532 59.5 23.2052 59.5307 23.1838C59.5707 23.1572 59.6293 23.1358 59.6613 23.1252C59.7173 23.1078 59.692 23.0038 59.6547 23.0078C59.6027 23.0132 59.5507 22.9905 59.5133 23.0225ZM87.5079 23.2838C87.6933 23.2692 87.7199 23.1318 87.7052 23.0092C87.6972 22.9358 87.5813 22.8798 87.4519 22.9092C87.3426 22.9332 87.3946 23.2932 87.5079 23.2838ZM29.2427 23.0358C29.2401 22.9852 29.0961 22.9372 29.0307 22.9118C28.9827 22.9238 29.0081 23.0585 29.0414 23.0972C29.0747 23.1372 29.2494 23.1145 29.2427 23.0358ZM60.1773 22.7825C60.1987 22.6758 59.9827 22.6798 59.944 22.7318C59.8853 22.8105 59.7373 22.8412 59.7853 22.9625C59.932 22.9292 60.1453 22.9438 60.1773 22.7825ZM47.9374 23.2572C47.9667 23.1705 48.1107 23.1425 48.0467 23.0158C47.8307 23.1425 47.6107 23.2812 47.4494 23.4638C47.4934 23.5731 47.5827 23.4745 47.6827 23.4505C47.68 23.5532 47.6453 23.6745 47.72 23.7012L48.852 23.0452C48.7733 22.9718 48.664 22.9292 48.6813 22.8558C48.696 22.7958 48.7707 22.7772 48.8653 22.7452C48.8613 22.6905 48.8107 22.6865 48.7853 22.7012C48.7587 22.7158 48.708 22.7345 48.7 22.7718C48.6573 22.9585 48.492 22.9798 48.364 23.0745C48.224 23.1798 48.112 23.3038 47.9374 23.2572ZM31.6654 23.0025C31.8494 23.0292 31.8761 22.8825 31.8227 22.8198C31.7881 22.7798 31.7774 22.6558 31.6774 22.7158C31.6041 22.7585 31.5721 22.9892 31.6654 23.0025ZM62.9066 22.7265C62.9386 22.7412 63.0093 22.6825 63.0013 22.6638C62.992 22.6438 62.9426 22.6078 62.948 22.5412C62.956 22.3985 62.7893 22.4065 62.816 22.5545C62.8266 22.6158 62.8733 22.7118 62.9066 22.7265ZM55.2467 22.6558C55.272 22.5452 55.0613 22.4412 54.9693 22.4545C54.8693 22.4692 54.704 22.5385 54.7547 22.7078C54.8093 22.8918 55.1987 22.8665 55.2467 22.6558ZM84.1399 22.2132C83.9479 22.1692 83.7373 22.2252 83.7013 22.4425C83.8666 22.3772 83.9813 22.3118 84.1399 22.2132ZM50.196 22.2398C50.1507 22.2798 50.168 22.3492 50.212 22.3718C50.264 22.3985 50.2987 22.3478 50.332 22.3185C50.376 22.2785 50.3613 22.2092 50.3253 22.2118C50.272 22.2158 50.2227 22.2158 50.196 22.2398ZM34.3054 22.2718C34.16 22.1198 33.988 22.1785 33.9067 22.3278C33.86 22.4132 33.7107 22.3452 33.7267 22.5092C33.932 22.4265 34.104 22.3838 34.3054 22.2718ZM21.4307 22.3052C21.5001 22.2092 21.3907 22.2025 21.3401 22.2305C21.2827 22.2612 21.2467 22.2958 21.2387 22.4092C21.2774 22.4292 21.3694 22.3918 21.4307 22.3052ZM104.591 22.2892C104.651 22.3692 104.76 22.4078 104.777 22.3452C104.788 22.3118 104.829 22.2492 104.835 22.1705C104.781 22.1225 104.569 22.2198 104.591 22.2892ZM63.1 22.1958C63.0826 22.1838 63.0586 22.1372 63.036 22.1372C63.084 22.1372 62.82 22.2838 62.8173 22.2905C62.792 22.3825 62.86 22.3798 62.9106 22.3878C62.9386 22.3918 63.16 22.2372 63.1 22.1958ZM51.6667 22.2252C51.644 22.1212 51.4347 22.0705 51.4307 22.2025C51.4267 22.2865 51.672 22.2865 51.6667 22.2252ZM29.0414 22.5345C29.0814 22.6198 29.2281 22.5198 29.2707 22.4718C29.3121 22.4252 29.3121 22.2598 29.2294 22.2118C29.1841 22.1865 29.1347 22.2065 29.0254 22.1558C28.9761 22.2692 28.9787 22.4038 29.0414 22.5345ZM63.644 21.9585C63.588 22.0252 63.6533 22.0878 63.7173 22.0718C63.7413 22.0665 63.7893 22.1012 63.812 22.0385C63.808 22.0478 63.7133 21.8745 63.644 21.9585ZM56.6107 22.3532C56.692 22.2078 56.7787 21.9812 56.556 21.9065C56.472 22.4132 56.2907 22.5572 56.372 22.8465C56.5107 23.3452 56.5533 22.4558 56.6107 22.3532ZM49.796 22.0412C49.72 21.9972 49.6227 21.9612 49.5827 21.9932L49.316 22.2238C49.488 22.3052 49.716 22.2465 49.796 22.0412ZM50.8493 22.0145C50.9667 22.0132 50.9533 21.8958 50.8987 21.8838C50.7053 21.8412 50.6933 22.0185 50.6853 21.9798C50.6907 22.0065 50.7613 22.0145 50.8493 22.0145ZM52.0507 21.8532C51.6427 21.7705 51.34 21.8265 50.9907 21.9198C51.3533 21.9572 51.7213 21.9945 52.0507 21.8532ZM50.9613 21.5692C50.9733 21.5758 50.3933 21.7158 50.4213 21.8078C50.5053 21.8252 51.1747 21.6892 50.9613 21.5692ZM61.1746 21.7332C61.088 21.6185 61.0013 21.4985 60.86 21.4425C60.8426 21.5838 60.964 21.6958 61.036 21.7892C61.0653 21.7985 61.1093 21.7585 61.1746 21.7332ZM25.7081 21.4772C25.6601 21.3918 25.2801 21.5518 25.2867 21.6838C25.3121 21.7865 25.7361 21.5252 25.7081 21.4772ZM89.3559 21.4265C89.4266 21.4145 89.4066 21.2825 89.3359 21.2772C89.2252 21.2692 89.1052 21.2932 89.0132 21.3652C89.1306 21.4318 89.2306 21.4212 89.3559 21.4265ZM57.7733 21.1425C57.712 21.1812 57.6613 21.2505 57.7173 21.2505C57.7653 21.2505 57.796 21.2865 57.848 21.3105C57.8867 21.3278 57.884 21.1985 57.8467 21.1945C57.8267 21.1932 57.8 21.1265 57.7733 21.1425ZM59.836 20.9105C59.7773 21.0345 59.82 21.0865 59.9053 21.0718C59.9467 21.0652 59.9507 20.9812 59.916 20.9505C59.8973 20.9358 59.8573 20.8638 59.836 20.9105ZM48.308 21.3958C48.5547 21.2852 48.744 21.1358 48.908 20.9358C48.8427 20.8678 48.828 20.8052 48.7533 20.7452C48.6613 21.2692 48.536 20.8558 48.308 21.3958ZM59.012 20.5198C59.084 20.4012 58.596 20.4972 58.576 20.6078C58.5653 20.6625 58.556 20.7558 58.6 20.7785C58.7347 20.7452 58.888 20.6772 59.012 20.5198ZM49.4547 20.4652C49.528 20.3758 49.42 20.3438 49.3533 20.4225C49.3347 20.4678 49.244 20.5078 49.248 20.5385C49.256 20.5865 49.3227 20.5825 49.3373 20.5678C49.3547 20.5518 49.3827 20.5158 49.4547 20.4652ZM49.9747 19.8678C49.828 20.0492 49.6453 20.1412 49.4813 20.2918C49.1773 20.7518 50.4213 19.6412 49.9747 19.8678ZM61.6826 17.8012C61.5853 17.7292 61.4666 17.7185 61.368 17.8158C61.5333 17.9905 61.5773 18.1878 61.7093 18.3585C61.7373 18.3958 61.8386 18.2705 61.7986 18.2385C61.648 18.1172 61.8 17.8865 61.6826 17.8012ZM71.0226 17.1958C71.1453 17.2078 71.168 17.1305 71.04 17.1265C70.9906 17.0692 70.968 17.0545 70.9493 17.0985C70.9426 17.1172 70.884 17.1465 70.8906 17.1638C70.9026 17.1972 70.968 17.1985 71.0226 17.1958ZM60.8586 17.1785C60.9626 17.0225 60.8853 16.9505 60.8093 16.8638C60.7547 16.7998 60.6133 16.7092 60.58 16.8852C60.5933 17.0025 60.796 17.0758 60.8586 17.1785ZM76.2933 16.7132C76.1759 16.7225 75.9973 16.6372 75.9079 16.7092C75.8186 16.8105 75.9933 16.8718 76.0559 16.8918C76.1626 16.9238 76.2559 16.9105 76.2933 16.7132ZM104.129 16.7172C104.16 16.5412 104.085 16.5918 103.932 16.5385C103.759 16.4785 103.332 16.3972 103.293 16.5932C103.08 16.4878 102.771 16.4532 102.616 16.7012C103.621 16.5505 104.057 17.1345 104.129 16.7172ZM105.189 16.7118C105.305 16.7198 105.321 16.5238 105.256 16.4492C105.197 16.3798 105.099 16.4118 104.995 16.4598C104.924 16.4905 104.787 16.5745 104.881 16.6532C104.941 16.7038 105.096 16.7052 105.189 16.7118ZM70.1586 16.2532C69.9253 16.5092 70.1026 16.2478 69.4493 16.1612C69.564 16.4078 69.844 16.5932 70.104 16.4638C70.1453 16.4425 70.1546 16.3158 70.1586 16.2532ZM91.0346 16.1332C90.9519 15.9158 90.8786 16.1918 90.7719 16.3452C90.8519 16.3958 90.9786 16.2798 91.0346 16.1332ZM52.0133 27.3931C51.924 27.8905 51.9347 28.3771 51.9107 28.8878C51.8987 29.1705 51.88 29.3331 52.028 29.6038C52.208 29.9371 52.344 30.3291 52.62 30.6491L53.2507 31.3798C53.7467 31.9545 54.4947 32.2265 55.1827 32.5158L56.3293 32.9971C56.6453 33.1305 56.9653 33.1211 57.308 33.1518C57.8973 33.2038 58.4613 33.2571 59.0453 33.1131C59.2493 33.0625 59.4467 33.1345 59.6373 33.1051L61.0053 32.8891C61.1826 32.8611 61.3227 33.0025 61.512 33.0278C61.888 32.7998 62.2613 32.6291 62.6773 32.4825C64.1733 31.9585 65.7653 31.4131 67.0933 30.5331L69.168 29.1611L70.4266 28.2238L75.4186 24.6145C76.1079 24.1158 76.7253 23.6265 77.4359 23.1665C77.8866 22.8745 78.3653 22.5198 78.8133 22.2678C78.8919 22.3198 78.9933 22.4158 79.0546 22.3398C79.0826 22.3038 79.0453 22.1665 79.0879 22.1412C79.2373 22.1172 79.3479 22.0438 79.4573 21.9598C79.6906 21.7825 80.0093 21.7665 80.2439 21.6105C80.4386 21.4812 80.6306 21.4732 80.8319 21.4038C82.8493 20.7078 83.1573 21.4372 83.7973 21.2732C85.0479 20.9518 85.7413 21.8878 86.5866 22.6518C86.6293 22.7012 86.6746 22.6412 86.6226 22.5625C86.7706 22.1612 86.8239 21.7372 86.9973 21.3438C87.2653 20.7385 87.7279 20.2025 88.2759 19.8292C88.6012 19.6078 89.0319 19.5798 89.3906 19.5145C89.5786 19.4812 89.6399 19.6038 89.7372 19.6838C89.9559 19.8625 90.3466 19.9025 90.5106 20.1505C90.6412 20.3478 90.8559 20.4305 90.9839 20.5998C91.2772 20.9865 91.2146 21.9092 91.6532 21.7918C91.7906 21.2412 91.8612 20.6158 91.7252 20.0545C91.6892 19.9052 91.3959 18.9998 91.3319 18.8692C90.8986 17.9758 90.7239 17.7825 89.9012 17.1305C88.9732 16.3945 87.3679 15.7945 86.2386 16.2878C85.7839 16.4865 85.2826 16.6038 84.8453 16.8305L82.6279 17.9825L80.4866 19.4118C79.9573 19.7652 79.0133 20.7452 77.9533 21.4265C77.5266 21.6998 77.1506 21.9825 76.7599 22.3025L75.8626 23.0398C75.5906 23.2625 75.3279 23.4425 75.0733 23.6932C74.8319 23.9292 74.4839 24.0745 74.1973 24.2545C73.4386 24.7291 73.7613 24.8251 72.9746 25.3945L71.628 26.3705C71.5773 26.4078 71.4226 26.2945 71.384 26.3545C71.1693 26.6838 70.072 27.1771 69.572 27.3185C68.3066 27.6785 67.0826 28.0438 65.772 28.2198C65.788 28.0811 65.8986 28.0478 65.9533 27.9371L65.736 27.8385C65.2066 28.0985 65.0613 28.0545 64.5373 28.1558L63.76 28.3038L63.296 28.2038C63.068 28.1558 61.7973 28.1838 61.876 28.1998C61.5546 28.1331 61.224 27.9905 60.8853 28.0158C60.6147 28.0358 60.372 28.0851 60.112 27.9585C59.792 27.8011 59.416 27.6798 59.1493 27.4331C59.0413 27.3345 58.856 27.2651 58.7613 27.1958C58.66 26.9731 58.3347 26.9891 58.2213 26.8411L57.8413 26.3478C57.732 26.2065 57.5493 26.0745 57.3347 26.0505C57.252 26.3705 57.3653 26.7171 57.3333 27.0465C57.3187 27.1838 57.156 27.3185 57.1693 27.5051C57.176 27.6025 56.74 27.9918 56.5467 27.9331C56.456 27.9051 56.296 27.8798 56.272 27.7438C56.0813 26.6651 56.6693 25.5985 55.356 25.1411C54.5133 24.8465 55.044 24.8838 53.8053 24.8825C53.5547 25.0371 53.2893 25.2331 53.0733 25.4598C52.88 25.6638 52.748 25.8971 52.428 25.9438C52.4307 26.0851 52.496 26.1865 52.4413 26.2758C52.3853 26.3291 52.284 26.2878 52.244 26.3171C52.1933 26.3531 52.2173 26.4731 52.1867 26.5131C51.984 26.7758 52.0667 27.1038 52.0133 27.3931ZM98.6932 16.1825C98.7279 16.2025 98.7399 16.0758 98.7226 16.0372C98.6999 15.9878 98.6159 15.9878 98.5332 16.0265C98.5759 16.0758 98.6159 16.1332 98.6932 16.1825ZM75.1546 15.9532C75.0786 16.0172 75.1053 16.1065 75.1613 16.1385C75.1999 16.1612 75.2719 16.1785 75.3319 16.1158C75.3653 16.0798 75.3319 15.9945 75.2719 15.9572C75.2466 15.9412 75.2093 15.9078 75.1546 15.9532ZM84.9279 16.0918C85.0666 16.1198 85.1559 15.9398 85.0919 15.7932C85.0519 15.6998 84.9306 15.8532 84.8799 15.8932C84.8266 15.9345 84.8226 16.0705 84.9279 16.0918ZM61.768 15.7705C61.7386 15.8012 61.736 15.9118 61.784 15.9358C61.776 15.9318 62.0266 15.7598 61.9066 15.7572C61.844 15.7558 61.796 15.7385 61.768 15.7705ZM101.299 15.7025C101.239 15.7372 101.213 15.8065 101.239 15.8372C101.256 15.8612 101.325 15.8598 101.375 15.8598C101.413 15.8585 101.411 15.7865 101.38 15.7572C101.364 15.7412 101.344 15.6785 101.299 15.7025ZM31.2307 33.0065L32.1734 32.8318L33.2054 32.5465C33.8507 32.3691 33.7107 32.9705 35.084 32.3385L34.9867 32.2145C35.0987 32.1438 35.212 32.1305 35.2707 32.0251L34.676 32.2491C34.4067 32.3505 34.1494 32.4398 33.8294 32.3718C34.4987 32.0038 34.9147 31.9491 35.612 31.7011C36.4507 31.4038 37.2534 31.0851 38.0107 30.5971C38.2134 30.4678 38.3814 30.2198 38.6294 30.2145C38.6867 30.2145 38.744 30.3718 38.792 30.2811C38.812 30.2425 38.8534 30.2225 38.8347 30.1785C38.8227 30.1505 38.7667 30.1078 38.7267 30.0478C39.3654 29.4625 40.0187 28.8158 40.8427 28.4171C41.8667 27.6225 42.8494 26.8225 43.9307 26.0745C44.68 25.5545 45.3 24.9691 45.956 24.3505C46.3827 23.9492 46.9013 23.6612 47.3707 23.3092L48.1507 22.7212C49.2573 21.8878 49.08 22.0825 50.3853 21.5705C51.2947 21.2145 52.9267 21.1945 53.884 21.4932C54.2053 21.4158 54.492 21.5905 54.76 21.7412L55.8453 22.3518C55.8947 21.9025 55.9987 21.5092 56.24 21.1345C56.352 20.9625 56.4013 20.7252 56.576 20.6132C56.6307 20.5798 56.7373 20.6238 56.7773 20.5532C56.8013 20.5132 56.732 20.3852 56.772 20.3385C57.5173 19.4532 57.7707 19.6798 58.0213 19.4585C58.236 19.2678 58.6173 19.4518 58.856 19.4172C59.2107 19.3652 59.4533 19.5305 59.7747 19.6012C60.184 19.6918 60.528 19.7772 60.7813 20.1812C60.8987 20.3678 61.1147 20.5265 61.2173 20.7398L61.5973 21.5332C61.6626 21.6665 61.7013 21.7198 61.844 21.7025C62.1053 21.6705 62.032 20.9532 62.0306 20.8198C62.0266 20.4745 61.7213 19.6518 61.7533 19.4478L61.796 19.1852C61.8053 19.1265 61.6133 19.0918 61.6053 19.0345C61.5413 18.5732 61.3013 18.1918 60.9867 17.8438C60.7973 17.6345 60.632 17.3385 60.392 17.1852C59.644 16.7065 59.5387 16.2078 58.2773 15.8105C57.8747 15.6825 57.4293 15.6652 57.02 15.6825C56.3227 15.7105 55.7053 16.0185 55.1347 16.3838L53.4507 17.4612C52.5347 18.0465 51.7387 18.7252 50.912 19.4238L50.268 19.9692C49.9947 20.1998 49.7027 20.3812 49.4573 20.6612C49.2347 20.9158 48.7133 21.4212 48.46 21.5825C48.1067 21.8078 47.9093 22.1078 47.5987 22.3625L46.428 23.3212C46.18 23.5238 45.952 23.7225 45.7107 23.9118L45.2174 24.2945C45.0747 24.4051 44.9414 24.4798 44.784 24.5651C44.584 24.6731 44.4814 24.9371 44.2707 25.0251C44.0347 25.1251 43.8787 25.2438 43.7214 25.4291C43.5627 25.6185 43.252 25.6731 43.0734 25.8385C42.6867 26.1945 42.252 26.3705 41.7814 26.5585C41.552 26.6505 41.3747 26.8278 41.1134 26.8998C40.7814 26.9931 40.4547 27.1558 40.1467 27.3131C39.9774 27.3998 39.8254 27.4278 39.6467 27.4958C38.804 27.8158 37.9947 28.1678 37.0934 28.2345C36.8094 28.2558 36.5387 28.3891 36.2454 28.3038C36.1827 28.2865 36.1507 28.2038 36.1054 28.2305C36.0814 28.2438 36.0174 28.3305 35.98 28.3305L34.928 28.3011C34.2427 28.2825 33.5841 28.1331 32.9227 28.0118C32.6041 27.9531 32.3747 27.8398 32.1014 27.6825C31.9414 27.5918 31.6134 27.6718 31.4974 27.4878C31.3907 27.3198 31.2374 27.3171 31.0947 27.2078C30.8214 26.9971 30.5441 26.7918 30.3014 26.5518C30.2334 26.4838 30.2561 26.3345 30.0761 26.3371C30.0161 26.3371 29.9774 26.1625 29.9321 26.1825C29.8854 26.2025 29.7281 26.1891 29.6841 26.2465C29.0814 27.0425 29.4267 27.5958 29.1054 27.8838C28.7867 28.1691 28.5961 27.9025 28.2787 28.0198C28.1774 27.9438 27.9654 27.8678 27.8947 27.7838C27.6694 27.5171 28.1347 27.2478 28.2547 26.2345C28.2947 25.9051 28.0734 25.6131 27.9681 25.3478C27.8307 25.0051 27.6507 24.9211 27.3374 24.8345C27.0187 24.7478 26.7574 24.6465 26.3961 24.6918C25.8667 24.7598 25.3027 24.8571 24.9001 25.2585C23.8041 26.3531 24.2241 27.1731 23.8974 28.0065C23.7947 28.2678 23.9174 28.4851 23.9121 28.6945C23.8921 29.5105 24.1907 30.1131 24.8094 30.6225C25.9081 31.5278 26.7174 32.1078 28.0521 32.6398C29.2041 33.1011 30.0601 33.2225 31.2307 33.0065ZM42.3254 15.6732C42.3494 15.8585 42.4774 15.9852 42.6867 15.9438C42.884 15.9052 42.3054 15.5225 42.3254 15.6732ZM45.596 15.7998C45.5454 15.6945 45.3427 15.6372 45.2507 15.6105C45.1987 15.5958 45.1267 15.6918 45.0787 15.6945C45.0254 15.6972 44.9574 15.6185 44.9 15.6145L44.572 15.7812C44.7947 16.2532 45.6987 16.0172 45.596 15.7998ZM102.591 15.9025L103.071 15.8985C103.185 15.8972 103.284 15.8612 103.304 15.7545C103.317 15.6892 103.376 15.5478 103.273 15.5612L101.983 15.7332C101.883 15.7465 101.764 15.6598 101.713 15.8518C101.999 15.9265 102.277 15.9052 102.591 15.9025ZM61.5626 15.6692C61.588 15.5985 61.5173 15.5278 61.468 15.5105C61.4093 15.4892 61.3333 15.4798 61.292 15.5812C61.3613 15.6572 61.4373 15.6158 61.5626 15.6692ZM71.7986 15.5278C71.8093 15.4665 71.8186 15.3278 71.7773 15.3198C71.6813 15.2998 71.7066 15.4212 71.6946 15.4732C71.6786 15.5358 71.7626 15.6318 71.7986 15.5278ZM32.2441 15.5305C32.3187 15.6092 32.4334 15.6678 32.5134 15.5798C32.5667 15.5212 32.6241 15.4412 32.6227 15.3265C32.4921 15.3585 32.3801 15.4278 32.2441 15.5305ZM59.6453 15.4612C59.2027 15.3732 58.7853 15.2278 58.304 15.2052C58.7707 15.3892 59.2067 15.6252 59.6773 15.8425C59.7413 15.8718 59.8253 15.7145 59.8067 15.6545C59.792 15.6038 59.716 15.4758 59.6453 15.4612ZM26.4241 15.2305C26.3747 15.3545 26.5121 15.3878 26.5587 15.3812C26.6014 15.3758 26.6681 15.3065 26.6214 15.2625C26.5894 15.2318 26.4667 15.1225 26.4241 15.2305ZM56.024 15.2945C56.032 15.3398 56.156 15.3305 56.1867 15.2905C56.216 15.2532 56.2813 15.2318 56.236 15.1252C56.172 15.1985 56.0467 15.1745 56.024 15.2945ZM87.7279 15.0812C87.6706 15.1505 87.7386 15.2092 87.8013 15.1945C87.8253 15.1892 87.8746 15.2212 87.8959 15.1612C87.8919 15.1705 87.7973 14.9972 87.7279 15.0812ZM59.2253 15.1238C59.324 15.0772 59.2053 14.9785 59.1467 14.9612C59.1133 14.9518 59.0493 14.9158 59.008 15.0118C58.9733 15.0918 59.1053 15.1825 59.2253 15.1238ZM97.7946 14.9425C97.7599 14.8732 97.7079 14.8545 97.6479 14.8838C97.5199 14.9478 97.8586 15.4692 98.1652 15.5452C98.2852 15.5758 98.5066 15.4452 98.5172 15.3278C98.5492 14.9785 97.9572 15.2812 97.7946 14.9425ZM48.3427 15.0105C48.4693 15.0052 48.4653 14.8958 48.3973 14.8798C48.3373 14.8665 48.0787 14.9305 48.1147 15.0358C48.1253 15.0665 48.1827 15.0825 48.2067 15.0678C48.2267 15.0545 48.252 15.0145 48.3427 15.0105ZM88.7626 14.8158C88.8679 14.9238 88.9519 14.8692 88.9932 14.8145C89.0239 14.7718 89.0386 14.7212 89.0106 14.6278C88.9346 14.7318 88.7906 14.6625 88.7626 14.8158ZM71.8186 14.6078C71.664 14.4798 70.9546 14.5078 71.048 14.6718C71.3546 14.6918 71.6053 14.7238 71.8186 14.6078ZM49.588 14.5652C49.152 14.4092 48.756 14.6692 48.4773 14.9238C48.8867 14.8665 49.216 14.7265 49.588 14.5652ZM86.7266 14.4532C86.6973 14.4545 86.6199 14.3692 86.5839 14.3958C86.3413 14.5785 86.0973 14.7438 85.9226 14.9998C86.0266 14.9892 87.0213 14.4465 86.7266 14.4532ZM49.808 14.5332C49.9347 14.4518 49.8507 14.3118 49.7293 14.4212C49.5747 14.4705 49.616 14.5052 49.808 14.5332ZM40.9667 14.3825C40.936 14.1638 40.804 14.1065 40.6494 14.1385C40.5547 14.1585 40.408 14.1438 40.3467 14.2945L40.9667 14.3825ZM39.3734 14.4585C39.4654 14.3558 39.3734 14.0865 39.2494 14.1532C39.1187 14.2225 39.2987 14.5185 39.3734 14.4585ZM92.1466 14.0345C92.0506 14.1358 92.1492 14.1332 92.1906 14.1345C92.2839 14.1358 92.3052 14.0798 92.2799 14.0345C92.2559 13.9945 92.2012 13.9785 92.1466 14.0345ZM28.3174 13.7532C28.1401 13.5492 27.6521 14.0878 27.5467 14.2585C27.7001 14.1625 28.4387 13.8905 28.3174 13.7532ZM34.308 13.7985C34.404 13.7638 34.4134 13.7065 34.38 13.6598C34.352 13.6212 34.304 13.6118 34.2294 13.6252C34.1667 13.6372 34.1187 13.6838 34.1107 13.7198C34.1027 13.7518 34.1014 13.8225 34.1414 13.8532C34.1667 13.8718 34.24 13.8212 34.308 13.7985ZM73.2973 13.7892C73.1373 13.6838 72.932 13.4985 72.86 13.6745C72.828 13.8238 73.2093 13.9172 73.2973 13.7892ZM93.6719 13.9238C93.8252 13.8158 93.8732 13.6652 93.9172 13.4972C93.8106 13.4612 93.7492 13.5305 93.6586 13.5958C93.5039 13.7065 93.7679 13.5985 93.5986 13.8505C93.5866 13.8678 93.6172 13.9625 93.6719 13.9238ZM55.604 13.5532C55.7307 13.4718 55.6573 13.3918 55.5533 13.4758C55.5107 13.5252 55.4493 13.4932 55.4347 13.5358C55.4213 13.5745 55.4333 13.6118 55.4667 13.6305C55.5053 13.6518 55.5453 13.6252 55.604 13.5532ZM59.0707 13.3612C59.2187 13.4278 59.36 13.3105 59.356 13.1745C59.2107 13.2265 59.1787 13.3065 59.0707 13.3612ZM62.096 13.4972L62.5506 13.1438C62.46 13.0838 62.3306 13.0705 62.2533 13.1305C62.168 13.1985 61.796 13.4625 61.9813 13.5532C62.012 13.5678 62.0426 13.5385 62.096 13.4972ZM67.2333 13.3652C67.276 13.2065 67.3253 13.1398 67.3173 13.1025C67.3106 13.0692 67.2586 13.0225 67.2013 13.0052C67.2066 13.1478 67.1533 13.2585 67.2333 13.3652ZM68.54 13.0225C68.5413 12.8758 68.3266 13.0252 68.2026 13.0998C68.2706 13.1745 68.5373 13.2052 68.54 13.0225ZM63.4933 12.8532C63.4906 12.8238 63.48 12.7945 63.4346 12.7998C63.2586 12.7025 63.1493 12.8198 63.0013 12.8585C62.8786 12.8918 62.7813 12.8185 62.704 12.9332C62.6586 13.0025 62.58 13.1358 62.6866 13.1825C63.1706 12.9145 63.5226 13.0812 63.4933 12.8532ZM65.144 12.9798C65.1906 12.9252 65.04 12.8092 64.9733 12.8345C64.7186 12.9265 64.5293 12.7438 64.3066 12.7145C64.0866 12.6852 63.9893 12.9745 63.9226 13.1598C64.1066 13.2025 64.2546 13.0438 64.3813 12.8892C64.5653 12.8758 64.92 13.2372 65.144 12.9798ZM39.4974 12.7038C39.432 12.7772 39.5214 12.8305 39.568 12.8198C39.5934 12.8145 39.6427 12.8465 39.664 12.7852C39.6614 12.7958 39.5707 12.6238 39.4974 12.7038ZM56.684 12.5998C56.6893 12.5812 56.6333 12.5572 56.624 12.5358C56.6 12.4812 56.5933 12.5252 56.5373 12.5465C56.4867 12.5652 56.4213 12.5945 56.4333 12.6465C56.4373 12.6678 56.4267 12.7212 56.4627 12.7492C56.4453 12.7358 56.6827 12.6038 56.684 12.5998ZM93.7052 12.7158C93.7519 12.5412 93.6132 12.4318 93.4666 12.4492C93.5012 12.5678 93.5266 12.6798 93.7052 12.7158ZM42.4774 12.6505C42.5307 12.4118 41.9387 12.5012 41.7307 12.4825C41.7414 12.6332 41.7227 12.7252 41.7574 12.8132C41.9574 12.6452 42.4414 12.8132 42.4774 12.6505ZM39.1507 12.7998C39.1974 12.6665 39.2507 12.5212 39.1547 12.4705C39.048 12.5212 39.0587 12.7398 39.1507 12.7998ZM44.9094 12.9692C44.6067 12.6692 44.3067 12.4145 43.8974 12.4078C43.9907 12.6065 44.232 12.4705 44.3267 12.6145C44.4627 12.8198 44.6187 13.0372 44.9094 12.9692ZM84.4013 12.4065C84.5053 12.4678 84.6159 12.4945 84.6746 12.3518C84.5839 12.3185 84.5133 12.3865 84.4013 12.4065ZM68.276 12.2505C68.068 12.2678 67.892 12.3625 67.7933 12.4892C67.7613 12.5305 67.8213 12.6345 67.8586 12.6345C67.8906 12.6358 68.332 12.2998 68.276 12.2505ZM100.941 12.3918C101.063 12.3905 101.117 12.3505 101.088 12.2878C101.076 12.2612 101.028 12.2572 101.001 12.2265C100.943 12.1572 100.893 12.2172 100.847 12.2692C100.796 12.3252 100.788 12.3918 100.941 12.3918ZM74.3933 12.3718C74.1973 12.1598 73.9413 12.1612 73.7253 12.0385C73.6639 12.0038 73.5466 11.8652 73.4826 11.9558C73.5053 12.1852 73.7399 12.3012 73.9639 12.2878C74.1253 12.2785 74.216 12.4865 74.3933 12.3718ZM97.9386 11.7038C97.9079 11.4945 97.4252 12.9318 97.5999 12.8425C97.8412 12.4532 98.0066 12.1305 97.9386 11.7038ZM102.373 11.6585C102.315 11.7825 102.359 11.8345 102.443 11.8185C102.483 11.8118 102.501 11.7398 102.452 11.6958C102.435 11.6812 102.396 11.6118 102.373 11.6585ZM94.7172 12.0505C94.4826 11.8105 94.2052 11.6145 93.8399 11.5732C93.9959 11.6798 94.1652 11.7158 94.2826 11.8865L94.7172 12.0505ZM35.5867 11.3425C35.3627 11.2372 35.1947 11.2212 34.9934 11.2052L35.0067 11.5305C35.2347 11.5838 35.46 11.5252 35.5867 11.3425ZM39.4974 10.9585C39.412 11.1358 38.992 12.1612 39.2067 12.1385C39.42 11.6558 39.6134 11.4678 39.4974 10.9585ZM72.168 11.1318C72.2613 11.0465 72.2853 11.0172 72.2626 10.9745C72.252 10.9532 72.2226 10.9318 72.1653 10.8798C72.12 10.9492 72.1173 11.0692 72.168 11.1318ZM36.0547 11.0852C35.8534 10.9958 35.6907 10.8878 35.476 10.9025C35.6214 10.9118 36.152 11.4465 36.0547 11.0852ZM70.6186 11.0812C70.656 10.9825 70.532 10.8412 70.48 10.8558C70.3893 10.9225 70.4026 10.9958 70.4706 11.0358C70.508 11.0572 70.58 11.1905 70.6186 11.0812ZM91.2852 10.7732C91.0026 10.7878 90.6759 10.7465 90.4972 11.0478L91.2852 10.7732ZM69.7 10.7532L69.0706 10.8265C69.0213 11.0345 69.792 10.8625 69.7 10.7532ZM39.7054 10.7038C39.6254 10.7372 39.5934 10.7958 39.608 10.8465C39.6174 10.8772 39.6574 10.8918 39.7014 10.8798C39.7547 10.8665 39.7467 10.6865 39.7054 10.7038ZM100.252 10.8892C100.16 10.7732 100.071 10.6945 99.8852 10.6265C99.8919 10.7145 99.8412 10.8745 99.9119 10.9478C99.9932 11.0332 100.164 10.9492 100.252 10.8892ZM32.9241 10.0185C32.6067 10.0252 32.2827 10.0572 32.0881 10.3158C32.4027 10.2412 32.6614 10.1599 32.9241 10.0185ZM64.1933 6.47186C64.1786 6.43719 64.1266 6.42786 64.1026 6.44119C63.6853 6.67319 63.9786 6.62119 63.9733 6.62653C64.0533 6.52786 64.2506 6.60786 64.1933 6.47186ZM62.9253 16.6705C62.628 16.9772 62.5893 17.4212 62.4746 17.7972C62.3866 18.0905 62.2666 18.3038 62.3213 18.6318L62.5626 20.0652C62.6146 20.3825 62.7746 20.6198 62.96 20.8572C63.0813 21.0105 63.0613 21.2532 63.264 21.3772C63.3213 21.2972 63.1786 21.2865 63.2053 21.1852C63.712 21.3558 64.248 22.0905 64.7893 22.2025C65.1573 22.2772 65.32 22.6452 65.6066 22.7718C66.6013 23.2158 67.7226 23.3852 68.8146 23.4892C69.308 23.5372 69.776 23.4438 70.2626 23.4438C71.0333 23.4425 71.78 23.3212 72.484 23.0372C73.2959 22.7118 73.2066 22.9798 74.4586 22.3865C74.6253 22.3078 74.8079 22.3812 74.9319 22.3145L75.6346 21.9358C76.0359 21.7212 76.3453 21.3932 76.7346 21.1692C77.4519 20.7585 78.1346 20.1998 78.7546 19.7118C78.8613 19.6278 78.8479 19.8358 79.6559 19.1438L80.1266 18.7398C80.4599 18.4545 80.7626 18.1172 81.1239 17.8558C81.8559 17.3265 82.4506 16.6878 83.1773 16.1625L84.8426 14.9558L86.1413 13.8278C86.5106 13.5078 86.9186 13.2638 87.2759 12.9358C87.4839 12.7438 87.7119 12.6332 87.9386 12.4705C89.2279 11.5412 90.2426 10.2559 92.1466 10.5852C92.0386 10.6558 92.0146 10.6878 92.1306 10.7132C92.2346 10.8118 92.3399 10.6438 92.4386 10.6532C93.3319 10.7385 94.2399 11.0198 94.9572 11.5758C95.2812 11.8265 95.5892 12.0758 95.8212 12.3972L96.4746 13.3012C96.5906 13.4612 96.5626 13.7332 96.8092 13.7985C96.7306 13.2132 96.7799 12.7238 97.0119 12.2305C97.1346 11.9705 97.2119 11.5318 97.4612 11.3932C97.7026 11.2572 97.7892 11.0972 97.9519 10.9212C98.0399 10.8252 98.2439 10.7545 98.2892 10.6078C98.3119 10.5372 98.6919 10.2932 98.8212 10.1705C99.2812 9.73185 99.9266 9.89585 100.437 10.1612C100.957 10.4318 101.404 10.6932 101.716 11.2078C101.705 10.5105 101.333 9.29319 100.936 8.80119C100.637 8.43052 100.435 7.98119 100.096 7.65719C99.7839 7.35986 99.5172 7.05186 99.1972 6.77586C99.0906 6.68519 98.3239 6.47186 98.3919 6.46653C98.3532 6.47053 98.2959 6.54386 98.2439 6.53586C98.1199 6.51586 98.0506 6.34786 97.9346 6.35986C97.8746 6.36519 97.8239 6.45453 97.7599 6.44386C97.7119 6.43586 97.6532 6.34786 97.5959 6.35319C97.3666 6.37319 97.1439 6.35719 96.9426 6.27586C96.6852 6.51853 96.6919 6.21586 96.3359 6.22919C96.1146 6.23719 94.9399 6.53186 94.7479 6.63719L94.3746 6.83852L93.6039 7.24519C93.1746 7.47052 92.7986 7.71986 92.3946 7.99319C92.2799 8.07186 92.1612 8.09186 92.0399 8.19052C91.6559 8.50385 91.2506 8.79452 90.8266 9.02252C90.6986 9.09185 90.5772 9.04785 90.4892 9.23052C90.3492 9.51852 90.0013 9.62652 89.7639 9.80252C89.6093 9.91852 89.4812 10.0639 89.3359 10.1865C89.1492 10.3425 88.9919 10.3745 88.6199 10.6678L88.2359 10.9705C87.9173 11.2212 87.6506 11.5598 87.3039 11.7678C87.1053 11.8865 86.9452 11.9598 86.7812 12.1385C86.2973 12.6665 85.7626 13.0732 85.2706 13.5372C85.1933 13.4958 85.1479 13.4785 85.1106 13.4998C85.0359 13.5412 85.0946 13.6505 85.0599 13.6852C84.6866 14.0652 83.8039 14.7612 83.3146 15.0718C82.6466 15.4945 82.0559 16.0065 81.3439 16.3905C81.3093 16.4092 80.6919 16.8838 80.1239 17.1758C79.5106 17.4918 78.7493 17.7318 78.0559 17.9092C77.8093 17.9732 77.5639 17.9718 77.3199 18.0692C77.1373 18.1412 76.9426 18.1238 76.7919 18.0492L77.0159 17.8465C76.8066 17.6998 76.6933 17.8812 76.5613 17.9372C76.0213 18.1678 74.8266 18.3518 74.6679 18.4585C74.4479 18.6065 74.3466 18.4665 74.1773 18.5038C73.8853 18.5678 72.9706 18.5052 72.624 18.5052C72.0906 18.5038 72.3826 18.3985 71.6946 18.4318C71.4613 18.4425 71.328 18.3652 71.1146 18.2798C70.336 17.9665 69.536 17.8758 68.84 17.3545C68.2933 16.9452 68.156 16.5705 67.6266 16.2052C67.5266 16.1358 67.4933 15.9732 67.3413 15.9718C67.296 16.1665 67.3173 16.3705 67.3826 16.5705C67.44 16.7452 67.3973 16.8972 67.4053 17.0758C67.42 17.4065 67.448 17.8038 67.156 18.0425C67.0506 18.1278 66.784 18.2692 66.6386 18.2558C66.3653 18.2305 66.5093 17.8638 66.4946 17.7038C66.4653 17.3798 66.4133 17.0878 66.404 16.7865C66.3973 16.5518 66.0986 16.4878 65.9973 16.3492C65.8906 16.2038 65.7946 16.1812 65.6653 16.0958C65.464 15.9625 65.26 15.7745 64.9946 15.8758C64.8786 15.9198 64.736 15.7785 64.6626 15.8145C64.3573 15.9652 64.436 15.6958 63.6013 16.1158C62.864 16.4865 63.4266 16.1518 62.9253 16.6705ZM71.6413 6.26519C71.6426 6.18119 71.5813 6.17319 71.544 6.18919C71.4866 6.21453 71.5 6.57053 71.5586 6.50919C71.5853 6.41853 71.5653 6.36119 71.6413 6.26519ZM99.7679 5.66786C99.6159 5.63053 99.4426 5.59053 99.3292 5.67719C99.3159 5.86653 99.5066 5.82519 99.6092 5.82119C99.6706 5.81986 99.7972 5.78119 99.7679 5.66786ZM36.0814 21.4665C36.3334 21.6838 36.532 21.7212 36.8254 21.8065C38.3934 22.2705 38.0067 21.9372 39.1987 22.1652C39.4667 22.2172 39.6347 22.2172 39.888 22.1798C40.4107 22.1025 40.9374 22.1305 41.4547 21.9572C41.6107 21.9038 41.812 21.9598 41.9427 21.8985C42.1427 21.8065 42.2774 21.7332 42.5067 21.7638C42.676 21.7865 42.8454 21.5532 43.0347 21.5972C43.1227 21.6185 43.1267 21.7692 43.184 21.7878C43.2507 21.8092 43.4027 21.8532 43.4694 21.8012C43.98 21.4078 44.968 21.2212 45.1574 21.1198C45.48 20.9478 45.8254 20.9518 46.1374 20.8118C46.3454 20.7185 46.5414 20.6625 46.7614 20.5705L48.0427 20.0318C48.7093 19.7518 48.844 19.6132 49.5013 19.3118C49.4707 19.3265 50.664 18.5585 50.6947 18.5238C51.1653 18.0118 51.7893 17.7878 52.3 17.3572L53.4387 16.3972C53.604 16.2585 53.8133 16.2798 54.6253 15.5025L55.2293 14.9238L56.1453 14.2118C56.448 13.9758 56.7 13.7772 57.0107 13.5745L57.696 13.1278C58.6427 12.5118 59.2187 12.0372 60.168 11.4732C60.608 11.2105 60.9906 11.1212 61.5013 11.0292C62.4453 10.8572 62.536 11.0505 63.3853 11.2292C64.348 11.4332 65.4066 11.9318 65.9533 12.8265C66.108 13.0785 66.3333 13.2852 66.488 13.5865C66.4573 12.4945 66.4506 11.6545 67.1026 10.7798C67.468 10.2905 67.7253 9.98918 68.4013 9.88518C69.8693 9.65718 69.604 10.2012 70.0386 10.1172C70.136 10.0985 70.1653 10.3185 70.2266 10.3398C70.3546 10.3452 70.488 10.3465 70.5786 10.4958C70.6053 10.5278 70.7 10.5118 70.6906 10.5492C70.6746 10.6078 70.668 10.6372 70.6253 10.7198C70.964 10.7078 71.064 10.9678 71.1906 11.2145C71.3573 11.5398 71.5453 11.8105 71.5213 12.2332C71.8053 12.0398 71.7253 11.7892 71.7106 11.5585C71.6773 11.0518 71.7493 10.5518 71.64 10.0532C71.6013 9.87585 71.644 9.67585 71.6 9.52385C71.5226 9.25319 71.4613 8.96119 71.3666 8.69852C71.304 8.52519 71.112 8.44652 71.1626 8.19719C71.1866 8.07319 70.9466 7.96919 70.9013 7.86786C70.7053 7.42652 70.3933 7.12119 69.964 6.90652C69.6346 6.74119 69.3893 6.43053 69.04 6.29053C68.704 6.15453 68.376 5.97053 68.028 5.87319C67.436 5.70786 66.1173 5.73986 66.1106 5.72919C66.0973 5.70386 66.132 5.63719 66.0533 5.60386C65.88 5.85186 65.592 5.87319 65.3453 5.85053C65.1293 6.06119 64.78 6.09719 64.4426 6.34519C64.548 6.40253 64.6186 6.40653 64.6306 6.47053C64.6413 6.52919 64.5653 6.57053 64.5546 6.61319C64.492 6.85853 64.2506 6.76919 64.1173 6.83719C64.0226 6.88652 63.2773 7.27319 63.2773 7.27319C63.1413 7.41186 62.408 7.81052 61.996 8.17852C61.216 8.87319 60.864 8.98519 59.9427 9.80118C59.8413 9.89185 59.94 10.2625 59.6013 10.1945C59.5707 10.1879 59.5907 10.0825 59.5107 10.0572C59.3627 10.2118 59.188 10.2612 59.092 10.4158C59.272 10.4718 59.3707 10.3358 59.5213 10.4305L58.6053 11.2958C58.4893 11.4052 58.4027 11.4998 58.2733 11.5972L57.5293 12.1638L56.468 13.0385C56.4147 13.0825 56.3613 13.1745 56.3147 13.1438C56.2627 13.1092 56.216 13.0692 56.184 13.0265C56.2827 13.0038 56.3533 12.9798 56.34 12.9185C56.2733 12.6185 55.8867 13.2198 55.7267 13.2532C55.8187 13.4345 55.9627 13.3212 56.148 13.3092C56.0107 13.5758 55.748 13.7438 55.5387 13.9212C55.4773 13.8558 55.4853 13.8118 55.432 13.8398C55.38 13.8665 55.4267 13.9292 55.404 13.9572C54.8067 14.6998 54.8027 14.3105 54.716 14.4345C54.6947 14.4638 54.7293 14.5532 54.7 14.5878C54.3853 14.9545 53.9333 15.1412 53.5787 15.4558C53.1653 15.8212 52.688 16.0252 52.204 16.2812L50.4067 17.2345C50.0667 17.4158 49.8187 17.6452 49.4267 17.7678C48.4187 18.0865 47.3734 18.3665 46.3 18.2798C46.0854 18.2625 45.888 18.2945 45.6654 18.2518C45.304 18.1825 44.9734 18.3985 44.08 18.0585C43.9854 18.0225 43.7974 17.9478 43.7027 17.9465C43.0854 17.9385 41.34 17.2465 40.824 16.8598L40.2494 16.4292C40.048 16.2785 39.8614 16.2505 39.6947 16.0265C39.512 15.7825 39.0267 15.5772 38.936 15.1732C38.924 15.1185 38.8827 15.0692 38.828 15.0732C38.78 15.0785 38.736 15.0878 38.7427 15.1545C38.7454 15.1785 38.7694 15.2158 38.776 15.2612C38.864 15.8172 38.748 16.3438 38.6267 16.8865C38.5614 17.1812 38.3947 17.4585 38.0907 17.5652C37.9534 17.6132 37.8387 17.4892 37.78 17.4252C37.6054 17.2332 38.0814 16.2505 37.7947 15.6318C37.5987 15.2092 37.1974 14.8518 36.7707 14.6612C36.4347 14.5118 36.0254 14.4825 35.6707 14.5118C35.4067 14.5332 35.2027 14.7492 34.9694 14.7892C34.7654 14.8238 34.7174 14.9478 34.5947 15.0425C33.8027 15.6545 33.8347 16.4318 33.676 17.3438C33.5734 17.9425 33.7667 18.4852 33.9827 19.0545C34.8574 21.3518 35.612 21.0625 36.0814 21.4665ZM97.8119 5.57719C97.6892 5.43986 97.5586 5.49453 97.4706 5.53453C97.6079 5.55853 97.7026 5.68653 97.8119 5.57719ZM35.4987 5.61586C35.556 5.59186 35.608 5.55186 35.6014 5.53053C35.5907 5.50119 35.5334 5.4932 35.476 5.5012C35.4307 5.50786 35.3627 5.56653 35.3614 5.59719C35.3587 5.63853 35.436 5.64253 35.4987 5.61586ZM106.467 5.66653C106.484 5.59453 106.405 5.41986 106.355 5.43586C106.204 5.48119 106.388 5.68119 106.467 5.66653ZM101.053 5.39053C100.989 5.47053 101.081 5.51986 101.129 5.50519C101.156 5.49719 101.203 5.52253 101.227 5.47053C101.245 5.42519 101.217 5.37586 101.192 5.37853C101.151 5.38253 101.079 5.35853 101.053 5.39053ZM69.744 5.19586C69.5653 5.25053 69.4786 5.21986 69.3253 5.20253C69.3853 5.38386 69.5013 5.51853 69.7106 5.57053C69.7266 5.4332 69.7613 5.33586 69.744 5.19586ZM36.5467 5.15053C36.3574 5.09586 36.3054 5.19186 36.224 5.23053C36.3654 5.29586 36.4547 5.20253 36.5467 5.15053ZM99.8226 4.99186C99.5986 4.84386 99.4772 5.03053 99.3612 5.11853C99.5626 5.09053 99.6999 5.11053 99.8226 4.99186ZM43.772 4.95186C43.6907 4.9852 43.66 5.0452 43.6747 5.09453C43.684 5.1252 43.724 5.13986 43.768 5.12786C43.8214 5.11453 43.8134 4.93586 43.772 4.95186ZM68.6933 3.99053C68.524 3.97986 68.488 4.09986 68.4013 3.99853C68.3253 3.9332 68.2666 3.95187 68.22 4.0012C68.1933 4.0292 68.172 4.14653 68.2333 4.15186C68.3893 4.16653 68.6 4.1092 68.6933 3.99053ZM45.7107 4.06786C45.484 3.8652 44.8654 4.07186 44.7734 4.20786C44.4174 4.73853 45.5787 4.15053 45.7107 4.06786ZM72.544 3.90387C72.5586 3.8332 72.4626 3.80253 72.424 3.81453C72.3466 3.83587 72.2373 4.0772 72.1453 4.29986C72.332 4.26386 72.5 4.11986 72.544 3.90387ZM43.5507 3.84653C43.5294 3.80787 43.4894 3.79987 43.4387 3.83187L42.604 4.35586C42.8267 4.41586 43.5747 3.89053 43.5507 3.84653ZM73.9986 3.28253C73.9773 3.17453 73.7679 3.12787 73.7626 3.25987C73.7586 3.34253 74.0053 3.34387 73.9986 3.28253ZM43.212 2.6932C43.0494 2.59854 42.9294 2.61987 42.812 2.61454C42.6974 2.6092 42.5547 2.7252 42.6134 2.8492C42.82 2.81187 43.012 2.81587 43.212 2.6932ZM100.967 2.46787C101.076 2.4292 101.069 2.3452 101.016 2.31187C100.995 2.29854 100.741 2.3452 100.703 2.46654C100.688 2.5172 100.743 2.58387 100.816 2.5732C100.855 2.56654 100.865 2.50387 100.967 2.46787ZM40.688 2.99453C40.98 2.88787 41.1334 2.6932 41.3307 2.45854C41.4494 2.31587 41.7307 2.3452 41.8574 2.21187C41.8027 2.2132 41.7267 2.12654 41.6907 2.13987C41.424 2.23987 40.252 2.6612 40.2694 2.9732C40.0827 3.11587 39.936 3.36387 39.964 3.6452C39.976 3.73053 40.1974 3.68253 40.276 3.63987C40.4214 3.56253 40.444 3.08387 40.688 2.99453ZM42.9867 1.84787C42.7694 1.7772 42.524 1.82254 42.4827 1.91187C42.4654 1.95187 42.4707 2.0892 42.544 2.07187C42.7254 2.0292 42.8574 1.91987 42.9867 1.84787ZM45.4747 1.99854C45.4107 1.8572 45.3387 1.81054 45.244 1.74787C45.2294 1.8972 45.3507 2.0012 45.4747 1.99854ZM40.7094 1.71187C40.648 1.47054 40.084 1.9612 40.1334 1.88254C40.1067 1.92654 40.1067 2.03187 40.1467 2.0292C40.3814 2.01854 40.524 1.93987 40.7094 1.71187ZM101.071 1.6292C101.095 1.57987 101.063 1.55854 101.037 1.5332C100.996 1.49454 100.924 1.47987 100.863 1.49854C100.799 1.5172 100.751 1.5492 100.731 1.60787C100.708 1.67187 101.011 1.75054 101.071 1.6292ZM44.684 1.16387C44.5067 1.12254 44.3894 0.974539 44.1227 1.01587C44.2734 1.11321 44.452 1.22921 44.684 1.16387ZM42.004 1.24121C42.0174 1.19187 42.012 1.14121 42.0347 1.13721C42.0587 1.13321 42.156 1.18921 42.176 1.16787C42.2854 1.05454 42.4094 0.958539 42.6214 0.985206C42.6854 0.993206 42.6814 0.835873 42.6374 0.81454C42.5947 0.795873 42.5 0.725206 42.4294 0.767873C41.9174 1.08521 41.5227 1.07721 41.4267 1.23054C41.2827 1.46254 41.9614 1.26521 42.004 1.24121ZM93.5799 29.0451C92.8359 28.9651 92.1106 28.8705 91.3679 28.7425C91.3132 28.7331 91.2679 28.6331 91.2212 28.6131C91.1706 28.5918 91.0986 28.6958 91.0466 28.6691L90.4919 28.3758C90.2306 28.2371 89.9919 28.2318 89.7319 28.0611L89.3132 27.7878C88.8919 27.5118 88.5453 27.1811 88.1959 26.7638L87.6253 28.3571C87.5733 28.5038 87.4879 28.5798 87.3679 28.5745C87.2213 28.5678 87.0479 28.5211 87.0772 28.3251C87.1199 28.0505 87.2092 27.4305 87.0386 27.2385C86.6306 26.7771 87.2306 26.7531 86.1879 25.8518C85.5559 25.3051 84.9693 25.3651 84.2746 25.4985C83.5999 25.6265 83.1639 26.0371 82.8439 26.5891C82.6133 26.9865 82.5613 27.3585 82.4893 27.8131L82.2773 29.1265L82.3573 29.7438C82.4466 30.4345 82.7519 30.9278 83.2426 31.3531C83.7786 31.8158 84.3146 32.1985 84.9053 32.5825C85.4053 32.9078 85.8973 33.1331 86.4519 33.3545C87.0519 33.5931 87.6106 33.7238 88.2679 33.8025L89.2759 33.9225C90.2626 34.0398 89.6653 33.7798 91.0599 33.7371C91.2892 33.7305 91.5506 33.5905 91.7692 33.6865C92.1372 33.8465 92.1119 33.4798 93.1292 33.4785C93.2546 33.4785 93.2639 33.4731 93.3479 33.4305C93.7919 33.2078 94.2959 33.1251 94.7639 32.9198C95.2239 32.7171 95.5906 32.3785 95.9919 32.0971C96.2946 31.8838 96.5986 31.7771 96.9119 31.6251C97.3132 31.4291 98.2946 30.4451 98.3586 30.3998L98.9719 29.9598C99.3159 29.7145 99.6159 29.4425 99.9466 29.1811C100.415 28.8091 100.792 28.3718 101.265 28.0358C101.588 27.8078 101.823 27.5878 102.24 27.2865C102.42 27.1558 103.245 26.3571 103.375 26.3025C103.621 26.1971 103.64 26.0398 103.813 25.8891L104.371 25.4051C104.487 25.3038 104.655 25.2545 104.768 25.0998C104.884 24.9411 105.168 24.8931 105.292 24.6985C105.444 24.4611 105.712 24.4398 105.911 24.3251L106.229 24.0572C106.276 24.0185 107.309 23.1985 107.093 23.6012C107.04 23.6825 106.963 23.7265 106.916 23.8571C107.032 23.9078 107.217 23.8331 107.325 23.7278L108.237 22.8292L108.892 22.2358C109.347 21.8238 109.725 21.4065 110.344 21.2465C110.581 21.1852 110.797 21.0292 110.949 20.8572C111.147 20.6345 111.377 20.7038 111.564 20.8572C111.708 20.9758 111.767 21.0532 111.763 21.2585C111.755 21.6185 111.869 21.9785 111.899 22.3305L111.943 22.8358C111.947 22.8825 111.819 23.7652 111.803 23.8505C111.776 23.9918 111.76 25.2745 111.764 25.4651L111.772 26.0545C111.78 26.6398 111.913 26.4278 111.888 26.9785L111.781 29.3385C111.755 29.9158 111.868 30.4891 111.817 31.0705L111.773 31.5771C111.745 31.9025 111.744 33.0478 111.668 33.4305C111.644 33.5505 111.828 33.7331 111.757 33.8785C111.573 34.2558 111.565 34.6958 111.491 35.0958C111.472 35.1998 111.335 35.3691 111.284 35.4705C111.103 35.8265 109.388 35.8305 109.037 35.7785C108.825 35.7478 108.665 35.8198 108.465 35.8345L107.296 35.9185C107.099 35.9331 106.695 36.0225 106.472 35.9425C106.257 35.8638 105.968 35.9958 105.74 35.9518C105.459 35.8985 105.161 35.9291 104.873 35.9011C104.42 35.8558 104.416 35.7998 103.824 35.8531C103.264 35.9051 102.709 35.7958 102.132 35.7865C101.532 35.7771 100.944 35.8985 100.327 35.7891C100.044 35.7385 99.7372 35.8531 99.4612 35.7198C99.4106 35.6958 99.3786 35.6438 99.3292 35.6505C99.1439 35.6785 99.5572 35.8398 98.1746 35.9145C97.1572 35.9691 96.1906 35.9585 95.1439 35.9585L63.7733 35.9691L63.2413 35.9678L39.0014 35.9558C38.812 35.9558 38.7147 35.9571 38.532 35.9571L23.1067 35.9451L22.0801 35.9478L3.33479 35.9665C2.74146 35.9678 2.12146 36.2905 1.6508 36.0211L1.19346 35.7611C1.01613 35.6598 0.714798 35.6211 0.553465 35.4678C0.358799 35.2825 0.894798 35.1118 1.07213 34.7918C1.17346 34.6105 0.124133 35.1145 0.0161329 34.9118C-0.114533 34.6665 0.586798 34.3838 0.742798 34.2931L2.32013 33.3771C3.14146 32.9011 3.72146 32.8158 4.49212 32.2451C5.17212 31.7411 5.84679 31.2345 6.62145 30.8838C7.60811 30.4371 8.07611 30.2171 8.99078 29.6171L10.4334 28.6691C10.8774 28.3771 11.2534 28.0451 11.6881 27.7318L15.2788 25.1465L16.6948 24.1172L17.8481 23.2665L19.8108 21.9105C20.5321 21.4118 21.6587 20.9278 22.5094 20.6492C24.4374 20.0158 24.7881 20.6638 25.2267 20.5718C26.7187 20.2572 27.1361 21.0265 28.1907 21.9412C28.3267 21.5065 28.3961 21.0518 28.5881 20.6145C28.8427 20.0345 29.2801 19.5238 29.7987 19.1492C30.1961 18.8638 30.7547 18.7892 31.2241 18.8292C31.2747 18.8345 31.2601 18.9545 31.3121 18.9798C31.5734 19.1065 31.8814 19.2412 32.0961 19.4385L32.5561 19.8625C32.8121 20.0985 32.8041 21.1652 33.1961 21.0678C33.3387 21.0332 33.4707 19.8332 33.2841 19.2638C32.7854 17.7412 32.7227 17.3438 31.3614 16.3212C30.4601 15.6438 28.9041 15.0945 27.8774 15.5452C27.3867 15.7598 26.8627 15.8865 26.3921 16.1305L24.2201 17.2585L22.0747 18.6852C21.7121 18.9265 21.4107 19.2785 21.0681 19.5478C20.5414 19.9625 20.0401 20.3878 19.4774 20.7465C19.0614 21.0145 18.7028 21.3038 18.3161 21.6078C18.0174 21.8425 17.7694 22.0958 17.4681 22.3172L16.8108 22.7998C16.7308 22.8585 16.5401 22.8172 16.4734 22.7758C16.3961 22.7278 16.3614 22.5225 16.4414 22.4158C17.2481 21.3398 17.1188 21.7398 17.7481 21.2318L18.8561 20.3385L20.0681 19.2958C20.2387 19.1478 20.3854 18.9785 20.6041 18.9052C20.8934 18.8065 21.0281 18.6078 21.2507 18.4118L21.7161 18.0025C22.2041 17.5718 22.7121 17.1772 23.2107 16.7545L24.8001 15.4065L26.4001 14.2518L27.7067 13.1265L28.7961 12.2678C29.0494 12.0678 29.3067 11.9092 29.5627 11.7185C30.2614 11.1985 30.8867 10.6052 31.6521 10.1759C31.7787 10.1039 31.9121 10.1372 32.0481 10.0119C32.1521 9.91718 32.4214 9.94118 32.5774 9.86118C32.6761 9.81052 33.6227 9.81985 33.5667 9.81185C33.6427 9.82252 33.6561 9.95185 33.7414 10.0012C33.8574 10.0679 33.992 9.93052 34.1107 9.94118C35.0947 10.0292 35.964 10.4305 36.7534 10.9705C36.9187 11.0825 37.0014 11.0692 37.1174 11.2585C37.3507 11.6412 37.64 12.0225 37.9294 12.3732C38.0587 12.5318 38.08 12.6678 38.1574 12.8532C38.2067 12.9718 38.3654 13.0678 38.412 13.2585C38.3107 12.6145 38.332 12.0145 38.636 11.4052C38.764 11.1505 38.824 10.7678 39.084 10.6292C39.644 10.3332 39.3134 10.1745 39.6414 10.1559C39.6814 10.1532 39.7147 10.1092 39.6987 10.0399C39.6747 9.93318 39.7987 10.0399 39.8827 9.91318C39.9974 9.73985 40.1734 9.65052 40.3187 9.51985C40.7654 9.11719 40.668 9.55985 40.8267 9.22119C41.3734 9.03852 42.108 9.46785 42.6374 9.79052C42.796 9.88652 43.024 10.1319 43.204 10.0345C43.3494 9.88252 43.1427 9.61318 43.1067 9.45185C43.004 8.99052 42.876 8.59052 42.6027 8.20919C42.32 7.81452 42.112 7.36786 41.7627 7.01852L41.1507 6.40653C40.5574 5.81319 39.8894 5.49986 39.04 5.45319L38.32 5.41453L36.9 5.68386C36.6694 5.72653 36.5334 5.77453 36.3414 5.88786L35.9667 6.11053L35.2267 6.49986C34.852 6.69719 34.4747 6.88519 34.1547 7.17986C34.0454 7.27986 33.892 7.29052 33.7907 7.36519L33.1694 7.82519L32.6347 8.16385C32.5161 8.23985 32.2961 8.28519 32.2241 8.37185C31.9774 8.66652 31.6854 8.88519 31.3681 9.08785C31.1214 9.24519 30.9334 9.49585 30.6601 9.64118C29.9841 10.0012 29.5041 10.5972 28.8907 11.0398C28.7294 11.1572 28.5774 11.2185 28.4307 11.3625C27.9281 11.8612 27.4281 12.3385 26.8587 12.7772C26.8094 12.8158 26.7387 12.7652 26.7094 12.7905C26.6534 12.8398 26.6601 12.9118 26.6374 12.9745C26.5734 13.1452 26.4001 13.2012 26.2774 13.3158C25.8707 13.6932 25.9774 13.3372 25.8241 13.4865C25.7774 13.5318 25.7907 13.5478 25.8721 13.6012C25.4867 13.9945 25.0001 14.2852 24.5174 14.6132C23.9307 15.0118 23.3934 15.4598 22.7547 15.7292C22.6521 15.7732 22.4641 15.6545 22.4107 15.5892C22.3587 15.5238 22.3254 15.3545 22.4201 15.2665C23.2987 14.4345 24.2187 13.7025 25.1747 12.9652C25.4267 12.7705 25.6587 12.5838 25.9001 12.3758C26.9427 11.4745 27.9761 10.6252 29.0774 9.78918L31.4614 7.98119L32.5654 7.08919L35.3827 4.8932L36.344 3.95187L37.584 2.8532C38.1734 2.33054 39.928 0.990539 40.5814 0.667873C41.5667 0.182541 41.94 0.0398749 43.12 0.0332083C43.2427 0.0332083 43.3494 -0.0241249 43.476 0.011875L45.0334 0.442541C45.256 0.505207 45.428 0.537207 45.608 0.697207C45.7787 0.847873 46.016 0.889206 46.184 1.02654L46.8867 1.5972C47.112 1.7812 47.6387 2.53054 47.8027 2.8572L48.12 3.48653C48.4773 4.19453 48.572 4.77853 48.6893 4.99986C48.7613 5.1332 48.6893 5.27186 48.6453 5.38786C49.02 5.83719 48.7747 6.43053 48.7987 6.94519C48.8053 7.10919 48.8027 7.31319 48.636 7.39852C48.452 7.49319 48.22 7.45719 48.0013 7.41986C47.9587 7.04652 47.9973 6.68919 48.0347 6.32253C48.0667 6.00119 47.8854 5.73186 47.7894 5.47186C47.664 5.1292 47.4347 5.08786 47.1853 4.93186C46.6067 4.57186 45.968 4.33453 45.3 4.62253C44.7907 4.84253 44.3494 5.1572 44.0334 5.62253C43.9134 5.79719 43.6947 5.91986 43.6267 6.12786C43.3694 6.92919 43.3547 7.74519 43.5414 8.56385C43.5987 8.81585 43.508 9.18785 43.6894 9.36119C43.82 9.48519 43.784 9.55052 43.8427 9.68118C43.9494 9.91985 44.2214 10.1239 44.392 10.3465C44.9934 11.1292 45.764 11.6678 46.6307 12.1132C47.2293 12.4212 47.8107 12.6558 48.4933 12.7025C48.9787 12.7358 49.4347 12.8052 49.9293 12.7625C50.368 12.7252 50.8187 12.8305 51.2253 12.6705C52.0853 12.3332 52.3947 12.5452 53.144 12.1598C53.3147 12.0718 53.9547 11.9958 54.5267 11.5878C55.0067 11.2438 55.5093 10.9465 56.0267 10.6478C56.2293 10.5318 56.3667 10.3878 56.5987 10.3118C56.8987 10.2132 57.352 9.76118 57.54 9.73052C57.6933 9.70518 57.756 9.56252 57.8507 9.50385C58.0547 9.37852 58.9867 8.97719 59.156 8.77852C59.2907 8.61985 59.472 8.55452 59.6427 8.43985C59.936 8.24252 60.1907 7.98519 60.5347 7.84386C60.6933 7.77986 61.072 7.40119 61.4906 7.18652C62.4586 6.68919 61.8613 6.82119 62.4773 6.59853C62.508 6.34119 62.7853 6.35853 62.936 6.24786C63.2453 6.02119 64.3506 5.14653 64.5453 4.92653C64.7493 4.69586 64.9693 4.63453 65.2306 4.51186C65.4773 4.3972 66.2533 3.71587 66.5786 3.45187L66.9 3.1932C67.9093 2.37587 68.552 2.0932 69.7306 1.5372C70.1306 1.34787 70.9493 1.31587 71.444 1.14387C71.584 1.04787 71.412 1.06787 71.312 1.07187C71.2013 1.04921 71.104 1.02387 71.1146 0.995873C71.128 0.957206 72.0173 0.529207 71.9146 0.978539C71.8053 1.02121 71.828 1.08387 71.9346 1.08654C72.8413 1.06654 72.3053 0.974539 72.944 1.19454L73.6666 1.44387L73.7386 1.35054C73.7586 1.3252 73.784 1.27454 73.7946 1.28521L73.8866 1.37054C74.0666 1.5372 74.3466 1.5492 74.5946 1.55054C74.9826 1.55187 75.2693 1.8492 75.5359 2.09987L75.9879 2.52387L76.6573 3.17453C77.2226 3.72387 76.6133 3.51587 77.3253 4.62653C77.4826 4.87186 77.4759 5.21586 77.5919 5.49319C77.7839 5.94919 77.8146 6.46519 77.7973 6.97186C77.7866 7.27586 77.3733 7.57052 77.1133 7.47852C76.8746 7.29586 76.9799 6.88919 76.8813 6.62253C76.4719 5.5252 75.2879 4.80386 74.1453 4.81586C73.8013 4.81986 73.4 5.38519 73.2373 5.2492C73.22 5.16786 72.5746 5.64386 72.6733 5.74919C72.7026 5.77986 72.7653 5.75853 72.864 5.74653C72.9866 5.75453 72.66 6.08253 72.6373 6.09853C72.5573 6.15453 72.5773 6.04386 72.5266 5.95586C72.484 5.87986 72.42 5.97186 72.4013 6.01453C72.3626 6.10119 72.428 6.20386 72.5853 6.21986C72.192 6.94786 72.212 7.31852 72.208 8.08652C72.208 8.23852 72.0413 8.41185 72.216 8.57319C72.32 8.66919 72.188 8.79052 72.1373 8.92119C72.0586 9.12252 72.4013 8.93585 72.58 9.25852L73.052 10.1105L73.7333 11.1038C73.9026 11.3532 74.2133 11.4972 74.3773 11.7652C74.5439 12.0385 75.7079 12.5198 76.0759 12.6332C76.3079 12.7052 76.5226 12.8945 76.7613 12.9212C77.5493 13.0118 77.1293 13.3318 79.0759 13.4825C79.3039 13.4998 79.5399 13.4198 79.7666 13.4492C80.1613 13.4998 80.4999 13.4665 80.8799 13.3678C81.5879 13.1852 82.3933 13.1505 83.0253 12.7678C83.4679 12.4985 83.5333 12.6438 84.4573 12.1145C85.1253 11.7332 85.7466 11.3878 86.4693 11.1145C87.2946 10.8025 87.6279 10.3785 88.2199 9.93718L89.9679 8.63319C90.3106 8.37719 90.5999 8.11586 90.9372 7.85052L93.4666 5.85986L94.0332 5.38386C94.4599 5.0252 94.9812 4.4332 95.1692 4.30386C94.8626 4.51453 95.5279 3.89187 95.4666 4.0052C95.5719 3.8132 95.7879 3.8292 95.9146 3.70253C96.0492 3.56653 96.2252 3.50653 96.3532 3.39187C96.4132 3.33853 96.3986 3.2732 96.5106 3.2212C96.7372 3.11453 96.9426 2.87587 97.1506 2.74253L97.6839 2.39987C98.4599 1.9012 98.9119 0.83454 101.585 0.72654C101.775 0.71854 101.891 0.705207 102.083 0.77054C102.512 0.917206 102.955 1.04121 103.403 1.13587C103.633 1.18521 103.889 1.15587 104.041 1.39187C104.135 1.53454 104.349 1.5572 104.468 1.65054L105.26 2.2772C105.44 2.41987 105.572 2.63854 105.724 2.8052C105.988 3.0972 106.147 3.45053 106.339 3.78653C106.429 3.9452 106.584 4.03186 106.912 4.5772C107.235 5.11186 107.18 5.01053 107.261 5.54119C107.324 5.94653 107.532 6.27186 107.423 6.66253C107.565 7.06252 107.555 7.40119 107.252 7.71586C107.305 7.92252 107.159 8.07319 107.028 8.15186C106.872 8.24652 106.899 7.84919 106.709 7.39986C106.495 6.88786 106.344 6.35719 106.024 5.89719C105.909 5.73319 105.691 5.74786 105.543 5.63986C104.401 4.80653 103.204 5.3292 102.445 6.33719C102.321 6.50253 102.12 6.62386 102.056 6.82786C101.871 7.42519 101.743 8.11452 101.887 8.73719C101.96 9.05052 102.428 10.2359 102.603 10.5598L102.94 11.1852C103.204 11.6758 103.739 11.9345 104.097 12.3212C104.387 12.6332 104.557 12.9678 104.927 13.1852C105.829 13.7158 106.76 14.0492 107.795 14.1985C108.176 14.2532 108.475 14.4038 108.885 14.3625L109.396 14.3118C110.681 14.1852 110.828 13.7572 111.432 13.4785C111.62 13.3918 111.779 13.3692 111.944 13.2252C112.141 13.0532 112.377 12.9185 112.641 12.9545C113.013 13.0065 112.641 13.8598 112.717 13.7252C112.567 13.9905 112.432 14.2452 112.331 14.5292C112.263 14.7212 111.824 14.8838 111.621 15.1998C111.499 15.3892 111.368 15.5265 111.235 15.6958C110.812 16.2372 110.435 16.7958 109.881 17.2198C109.667 17.3852 109.403 17.4745 109.216 17.6745C108.997 17.9092 108.688 17.9972 108.409 18.1358C107.972 18.3532 107.76 18.8212 107.053 18.8972C106.82 18.9225 106.543 19.0225 106.307 18.9878C106.029 18.9478 105.825 18.9385 105.549 19.0078C105.468 19.0278 103.107 18.9598 102.924 18.9252C102.631 18.8678 102.348 18.6612 102.06 18.6692C101.613 18.6812 99.9252 18.0185 99.5452 17.7545C99.3346 17.6092 99.0959 17.4985 98.8972 17.3332C98.7666 17.2252 98.6799 17.0732 98.4946 17.0518C98.3346 17.0332 98.0212 16.6252 97.7532 16.4172C97.5972 16.2958 97.4799 16.2185 97.4026 16.0132C97.3039 15.7585 97.1719 15.8772 97.4132 16.3638C96.9559 16.8732 97.2786 17.5345 96.6079 18.1438C96.5932 18.1558 96.1559 18.2985 96.1239 18.1918C96.0386 17.9105 96.5359 16.8732 96.1639 16.2452C95.9692 15.9185 95.6439 15.6132 95.3052 15.4372C94.8172 15.1825 94.2626 15.1798 93.7226 15.2558C92.5999 15.4145 92.8506 15.4438 92.3839 16.6385C92.2012 17.1065 92.1599 17.5572 92.1146 18.0412C92.1052 18.1345 92.0586 18.2225 92.0586 18.3305C92.0612 19.2772 92.9599 21.3425 93.5879 21.6892L94.5546 22.2225C94.8092 22.3638 94.9759 22.4918 95.2732 22.5292C95.5706 22.5665 95.8666 22.7785 96.1772 22.7732C96.8052 22.7638 97.4012 22.8798 98.0212 22.9158C98.3746 22.9358 98.7372 22.8332 99.1012 22.8132C99.3599 22.7998 100.752 22.5118 100.897 22.4638C101.185 22.3705 101.431 22.3612 101.716 22.3025C102.468 22.1492 103.183 21.9545 103.919 21.7572C104.045 21.7225 105.443 20.7198 106.233 20.5265C106.855 20.3732 107.376 20.0052 107.949 19.7212C108.536 19.4305 109.116 19.1398 109.593 18.6825C109.836 18.4492 110.495 17.7878 110.879 17.9905C110.937 18.0212 110.975 18.1758 110.977 18.2585C110.983 18.4732 110.712 18.4665 110.627 18.5892C110.357 18.9772 110.057 19.2892 109.703 19.5972L108.427 20.7078C108.223 20.8865 108.005 20.9892 107.8 21.1425C107.429 21.4185 107.068 21.6985 106.725 21.9972L105.777 22.8238C105.707 22.8852 105.833 23.0612 105.751 23.1692C105.721 23.2065 105.173 23.5612 104.837 23.9251C104.76 24.0078 104.389 24.2811 104.403 24.2798C104.097 24.2958 103.896 24.5011 103.807 24.7851C103.557 25.1518 103.025 25.0491 102.837 25.4185C102.677 25.7305 102.407 25.8171 102.157 26.0038C101.68 26.3651 101.184 26.6411 100.668 26.9491C100.08 27.2998 99.5119 27.6211 98.8506 27.8331C98.5132 27.9411 98.2319 28.2078 97.8932 28.2291C97.8052 28.1678 97.7159 28.1371 97.6559 28.2158L97.5186 28.3971C97.3826 28.5731 96.1239 28.8571 95.6812 28.9051C95.2852 28.9478 94.8919 28.9331 94.5106 29.0105C94.2799 29.0571 93.7879 29.0731 93.7626 29.0291C93.7079 28.9398 93.6332 29.0518 93.5799 29.0451Z" fill="#243D13"/>
<path d="M47.6829 23.4504C47.6869 23.3411 47.8189 23.3091 47.9362 23.2571C47.9015 23.4171 47.7802 23.4264 47.6829 23.4504Z" fill="#243D13"/>
<path d="M73.1054 0.873171C72.9494 1.02517 72.7281 1.00384 72.5094 0.959838C72.6334 0.769171 72.8734 0.717172 73.1054 0.873171Z" fill="#243D13"/>
<path d="M73.7947 1.15847C73.6161 1.18247 73.5014 1.07181 73.3254 1.03181L73.6894 0.966475C73.7667 0.953142 73.8787 1.14781 73.7947 1.15847Z" fill="#243D13"/>
<path d="M64.9101 6.43729L64.7919 6.47893C64.7676 6.48609 64.716 6.37985 64.7299 6.35516C64.825 6.26794 65.0038 6.16539 65.2114 6.20109L64.9101 6.43729Z" fill="#243D13"/>
<path d="M65.5203 6.07318C65.5643 6.09451 65.495 6.23585 65.351 6.25585C65.2923 6.26251 65.2176 6.22918 65.2456 6.15185C65.259 6.11851 65.459 6.04251 65.5203 6.07318Z" fill="#243D13"/>
<path d="M65.7106 6.05317C65.7146 5.99584 65.8146 5.96917 65.892 5.94384C65.96 5.9345 65.9333 5.98784 65.9146 6.0065C65.8666 6.05584 65.8386 6.08917 65.7106 6.05317Z" fill="#243D13"/>
</svg>
