<svg width="242" height="256" viewBox="0 0 242 256" fill="none" xmlns="http://www.w3.org/2000/svg">
<path d="M122.702 10.7079H111.556V33.0501H100.391V55.3923H89.2445V77.7345H78.08V100.077H66.9334V122.419H55.7866V144.761H44.6221V167.103H33.4756V189.446H22.3111V211.788H11.1645V234.13H0V256.454H44.6221V234.112H55.7687V211.77H66.9334V189.428H78.08V167.085H89.2266V144.743H100.391V122.401H111.538V100.059H122.702V77.7166H133.849V55.3744H145.013V33.0501H156.16V-0.454224H122.702V10.7079Z" fill="#E5F17F"/>
<path d="M208.462 -0.454224V10.7079H197.316V33.0501H186.151V55.3923H175.004V77.7345H163.858V100.077H152.693V122.419H141.547V144.761H130.382V167.103H119.236V189.446H108.071V211.788H96.9244V234.13H85.7599V256.454H130.382V234.112H141.529V211.77H152.693V189.428H163.84V167.085H174.986V144.743H186.151V122.401H197.298V100.059H208.462V77.7345H219.609V55.3923H230.773V33.0501H241.92V-0.454224H208.462Z" fill="#E5F17F"/>
</svg>
